<svg width="14" height="14" viewBox="0 0 14 14" fill="none" xmlns="http://www.w3.org/2000/svg">
<path d="M13.6091 2.27749L8.88485 7L13.6091 11.7225C14.1303 12.2437 14.1303 13.0879 13.6091 13.6091C13.0879 14.1303 12.2437 14.1303 11.7225 13.6091L7 8.88485L2.27749 13.6091C1.75631 14.1303 0.912052 14.1303 0.390879 13.6091C-0.130293 13.0879 -0.130293 12.2437 0.390879 11.7225L5.11515 7L0.390879 2.27749C-0.130293 1.75631 -0.130293 0.912052 0.390879 0.390879C0.912052 -0.130293 1.75631 -0.130293 2.27749 0.390879L7 5.11515L11.7225 0.390879C12.2437 -0.130293 13.0879 -0.130293 13.6091 0.390879C14.1303 0.912052 14.1303 1.75631 13.6091 2.27749Z" fill="#145091"/>
</svg>
