<svg width="16" height="16" viewBox="0 0 16 16" fill="none" xmlns="http://www.w3.org/2000/svg">
<path fill-rule="evenodd" clip-rule="evenodd" d="M13.4204 6.89613C13.4204 8.39144 12.9227 9.76877 12.1101 10.8738L14.9134 13.7473C15.3282 14.1723 15.3282 14.8523 14.9134 15.2773C14.7145 15.4977 14.4326 15.6 14.1669 15.6C13.9012 15.6 13.6193 15.4811 13.4204 15.2773L10.6002 12.3873L10.5672 12.3534C9.53879 13.0673 8.29459 13.4923 6.96744 13.4923C3.41682 13.4923 0.530609 10.5338 0.530609 6.89613C0.530609 3.25763 3.41765 0.299988 6.96744 0.299988C10.5172 0.299988 13.4204 3.2578 13.4204 6.89613ZM2.63722 6.89531C2.63722 9.34381 4.57884 11.3326 6.96737 11.3326C9.35607 11.3326 11.2975 9.34381 11.2975 6.89531C11.2975 4.44681 9.35591 2.45799 6.96737 2.45799C4.57801 2.45799 2.63722 4.44766 2.63722 6.89531Z" fill="#808793"/>
</svg>
