<svg width="96" height="80" viewBox="0 0 96 80" fill="none" xmlns="http://www.w3.org/2000/svg">
<path fill-rule="evenodd" clip-rule="evenodd" d="M7.5498 0H88.5494C92.3501 0 95.5494 3.0977 95.4478 7V72.801C95.4478 76.6018 92.3462 79.801 88.4478 79.801H7.5498C3.749 79.801 0.549805 76.6994 0.549805 72.801V7C0.549805 3.1992 3.6514 0 7.5498 0ZM33.5498 10.1992C33.5498 8.5976 32.249 7.1992 30.5498 7.1992C28.8506 7.1992 27.5498 8.5 27.5498 10.1992C27.5498 11.8008 28.8506 13.1992 30.5498 13.1992C32.1514 13.1992 33.5498 11.8984 33.5498 10.1992ZM24.3506 10.1992C24.3506 8.5976 23.0498 7.1992 21.3506 7.1992C19.749 7.1992 18.3506 8.5 18.3506 10.1992C18.3506 11.8008 19.6514 13.1992 21.3506 13.1992C22.9522 13.1992 24.3506 11.8984 24.3506 10.1992ZM15.1514 10.1992C15.1514 8.5976 13.8506 7.1992 12.1514 7.1992C10.5498 7.1992 9.1514 8.5 9.1514 10.1992C9.1514 11.8008 10.4522 13.1992 12.1514 13.1992C13.753 13.1992 15.1514 11.8984 15.1514 10.1992ZM85.9484 70.6992C86.2492 70.6992 86.4484 70.5 86.4484 70.1992L86.4524 20.5002H9.6514V70.1992C9.6514 70.5 9.85062 70.6992 10.1514 70.6992H85.9484ZM27.4483 51.199H19.7491L19.749 51.1996C19.1513 51.1996 18.749 50.7972 18.8466 49.9965L20.1474 34.1954C20.249 33.6954 20.749 33.297 21.249 33.297L24.249 33.5978C24.749 33.6994 25.1475 34.1994 25.1475 34.6994L24.1475 46.0974H27.4483V41.9958C27.4483 41.3942 27.9483 40.9958 28.4483 40.9958H31.5499C32.1514 40.9958 32.5499 41.4958 32.5499 41.9958V46.0974H35.3507C35.9522 46.0974 36.3507 46.5974 36.3507 47.0974V50.199C36.3507 50.8005 35.8507 51.199 35.3507 51.199H32.5499V56.699C32.5499 57.3006 32.0499 57.699 31.5499 57.699H28.4483C27.8467 57.699 27.4483 57.199 27.4483 56.699V51.199ZM59.6521 51.199H67.3513V56.699C67.3513 57.199 67.7497 57.699 68.3513 57.699H71.4529C71.9529 57.699 72.4529 57.3006 72.4529 56.699V51.199H75.2537C75.7537 51.199 76.2537 50.8005 76.2537 50.199V47.0974C76.2537 46.5974 75.8552 46.0974 75.2537 46.0974H72.4529V41.9958C72.4529 41.4958 72.0544 40.9958 71.4529 40.9958H68.3513C67.8513 40.9958 67.3513 41.3942 67.3513 41.9958V46.0974H64.0505L65.0505 34.6994C65.0505 34.1994 64.652 33.6994 64.152 33.5978L61.152 33.297C60.652 33.297 60.152 33.6954 60.0504 34.1954L58.7496 49.9965C58.652 50.7972 59.152 51.1996 59.652 51.1996L59.6521 51.199ZM54.0502 57.699H40.4482C39.9482 57.699 39.4482 57.2967 39.4482 56.699V34.597C39.4482 33.9954 39.9482 33.597 40.4482 33.597H54.0502C54.6518 33.597 55.0502 34.097 55.0502 34.597V56.699C55.0502 57.3006 54.5502 57.699 54.0502 57.699ZM49.9482 38.597H44.4482V52.699H49.9482V38.597Z" fill="#E37925"/>
</svg>
