<?xml version="1.0" encoding="utf-8"?>
<!-- Generator: Adobe Illustrator 25.1.0, SVG Export Plug-In . SVG Version: 6.00 Build 0)  -->
<svg version="1.1" id="Layer_1" xmlns="http://www.w3.org/2000/svg" xmlns:xlink="http://www.w3.org/1999/xlink" x="0px" y="0px"
	 viewBox="0 0 445.92 169.79" enable-background="new 0 0 445.92 169.79" xml:space="preserve">
<path fill="#626366" d="M32,84.07c-0.57-0.6-0.85-1.36-0.85-2.3c0-0.94,0.28-1.71,0.85-2.31c0.57-0.6,1.3-0.89,2.19-0.89
	c0.89,0,1.62,0.3,2.19,0.89c0.57,0.6,0.85,1.37,0.85,2.31c0,0.94-0.28,1.71-0.85,2.3c-0.57,0.6-1.3,0.9-2.19,0.9
	C33.3,84.97,32.57,84.67,32,84.07 M32.61,123.05V92.07c0-0.42,0.2-0.64,0.61-0.64h2.01c0.4,0,0.61,0.21,0.61,0.64v30.98
	c0,0.43-0.2,0.64-0.61,0.64h-2.01C32.81,123.69,32.61,123.48,32.61,123.05"/>
<path fill="#626366" d="M43.65,121.74c-1.6-1.51-2.4-3.47-2.4-5.86v-0.38c0-0.43,0.2-0.64,0.61-0.64h1.89c0.4,0,0.61,0.21,0.61,0.64
	v0.38c0,1.54,0.53,2.82,1.58,3.84c1.05,1.02,2.41,1.54,4.07,1.54c1.62,0,2.93-0.52,3.92-1.57c0.99-1.04,1.49-2.4,1.49-4.06
	c0-1.24-0.28-2.26-0.85-3.07c-0.57-0.81-1.28-1.46-2.13-1.95c-0.85-0.49-2.01-1.06-3.47-1.7c-1.58-0.68-2.88-1.36-3.89-2.02
	c-1.01-0.66-1.88-1.58-2.58-2.75c-0.71-1.17-1.06-2.66-1.06-4.45c0-2.6,0.77-4.67,2.31-6.21c1.54-1.54,3.59-2.31,6.14-2.31
	c2.59,0,4.66,0.79,6.2,2.37c1.54,1.58,2.31,3.63,2.31,6.14v0.19c0,0.43-0.2,0.64-0.61,0.64h-1.82c-0.41,0-0.61-0.21-0.61-0.64v-0.32
	c0-1.58-0.51-2.9-1.52-3.97c-1.01-1.07-2.33-1.6-3.95-1.6c-1.62,0-2.92,0.52-3.89,1.57c-0.97,1.05-1.46,2.4-1.46,4.06
	c0,1.15,0.26,2.11,0.79,2.88c0.53,0.77,1.19,1.39,1.98,1.86c0.79,0.47,1.9,1.05,3.31,1.73c1.66,0.73,3.03,1.42,4.1,2.08
	c1.07,0.66,2,1.59,2.77,2.78c0.77,1.19,1.16,2.71,1.16,4.54c0,2.56-0.79,4.62-2.37,6.18c-1.58,1.56-3.67,2.33-6.26,2.33
	C47.36,124.01,45.25,123.25,43.65,121.74"/>
<path fill="#626366" d="M64.38,121.55c-1.64-1.77-2.46-4.08-2.46-6.94v-14.08c0-2.82,0.83-5.12,2.49-6.91
	c1.66-1.79,3.83-2.69,6.5-2.69c2.76,0,4.96,0.89,6.63,2.66c1.66,1.77,2.49,4.09,2.49,6.94v14.08c0,2.86-0.83,5.17-2.49,6.94
	c-1.66,1.77-3.87,2.66-6.63,2.66C68.2,124.2,66.02,123.32,64.38,121.55 M75.17,119.31c1.09-1.26,1.64-2.87,1.64-4.83v-13.76
	c0-2.01-0.55-3.64-1.64-4.9c-1.1-1.26-2.52-1.89-4.26-1.89c-1.7,0-3.09,0.63-4.16,1.89c-1.07,1.26-1.61,2.89-1.61,4.9v13.76
	c0,1.96,0.54,3.57,1.61,4.83c1.07,1.26,2.46,1.89,4.16,1.89C72.66,121.2,74.08,120.57,75.17,119.31"/>
<path fill="#626366" d="M94.69,94.12h-4.86c-0.16,0-0.24,0.09-0.24,0.26v20.61c0,2.13,0.34,3.62,1.03,4.45
	c0.69,0.83,1.78,1.25,3.28,1.25h0.61c0.4,0,0.61,0.21,0.61,0.64v1.73c0,0.43-0.2,0.64-0.61,0.64h-1.21c-2.27,0-3.98-0.55-5.14-1.66
	c-1.15-1.11-1.73-3.18-1.73-6.21V94.38c0-0.17-0.08-0.26-0.24-0.26h-2.49c-0.41,0-0.61-0.21-0.61-0.64v-1.41
	c0-0.43,0.2-0.64,0.61-0.64h2.49c0.16,0,0.24-0.08,0.24-0.26v-7.17c0-0.43,0.2-0.64,0.61-0.64h1.94c0.4,0,0.61,0.21,0.61,0.64v7.17
	c0,0.17,0.08,0.26,0.24,0.26h4.86c0.4,0,0.61,0.21,0.61,0.64v1.41C95.29,93.91,95.09,94.12,94.69,94.12"/>
<path fill="#626366" d="M111.29,91.82c0.28,0.17,0.38,0.45,0.3,0.83l-0.49,2.18c-0.12,0.38-0.38,0.49-0.79,0.32
	c-0.65-0.26-1.44-0.36-2.37-0.32c-1.62,0.04-2.94,0.9-3.95,2.56c-1.01,1.66-1.52,3.71-1.52,6.15v19.52c0,0.43-0.2,0.64-0.61,0.64
	h-2.01c-0.41,0-0.61-0.21-0.61-0.64V92.08c0-0.43,0.2-0.64,0.61-0.64h2.01c0.4,0,0.61,0.21,0.61,0.64v3.97
	c0,0.13,0.04,0.19,0.12,0.19c0.08,0,0.14-0.06,0.18-0.19c0.57-1.54,1.35-2.73,2.34-3.58c0.99-0.85,2.18-1.28,3.56-1.28
	C109.68,91.18,110.56,91.39,111.29,91.82"/>
<path fill="#626366" d="M131.04,108.78h-13.98c-0.16,0-0.24,0.09-0.24,0.26v5.44c0,1.96,0.54,3.57,1.61,4.83
	c1.07,1.26,2.46,1.89,4.16,1.89c1.42,0,2.63-0.45,3.65-1.34c1.01-0.9,1.68-2.07,2.01-3.52c0.12-0.38,0.35-0.58,0.67-0.58l1.95,0.13
	c0.16,0,0.3,0.04,0.42,0.13c0.12,0.09,0.16,0.22,0.12,0.39v0.26c-0.4,2.35-1.38,4.19-2.92,5.54c-1.54,1.34-3.51,2.02-5.9,2.02
	c-2.67,0-4.84-0.89-6.5-2.66c-1.66-1.77-2.49-4.06-2.49-6.88v-14.14c0-2.82,0.83-5.12,2.49-6.91c1.66-1.79,3.83-2.69,6.5-2.69
	c2.72,0,4.9,0.9,6.57,2.69c1.66,1.79,2.49,4.1,2.49,6.91v7.62C131.65,108.57,131.45,108.78,131.04,108.78 M118.43,95.82
	c-1.08,1.26-1.61,2.89-1.61,4.9v4.86c0,0.17,0.08,0.26,0.24,0.26h11.13c0.16,0,0.24-0.09,0.24-0.26v-4.86c0-2-0.54-3.64-1.61-4.9
	c-1.07-1.26-2.48-1.89-4.23-1.89C120.89,93.93,119.5,94.56,118.43,95.82"/>
<path fill="#626366" d="M145.7,94.12h-4.86c-0.16,0-0.24,0.09-0.24,0.26v20.61c0,2.13,0.34,3.62,1.03,4.45
	c0.69,0.83,1.78,1.25,3.28,1.25h0.61c0.4,0,0.61,0.21,0.61,0.64v1.73c0,0.43-0.2,0.64-0.61,0.64h-1.21c-2.27,0-3.98-0.55-5.14-1.66
	c-1.15-1.11-1.73-3.18-1.73-6.21V94.38c0-0.17-0.08-0.26-0.24-0.26h-2.49c-0.41,0-0.61-0.21-0.61-0.64v-1.41
	c0-0.43,0.2-0.64,0.61-0.64h2.49c0.16,0,0.24-0.08,0.24-0.26v-7.17c0-0.43,0.2-0.64,0.61-0.64h1.95c0.4,0,0.61,0.21,0.61,0.64v7.17
	c0,0.17,0.08,0.26,0.24,0.26h4.86c0.4,0,0.61,0.21,0.61,0.64v1.41C146.31,93.91,146.1,94.12,145.7,94.12"/>
<path fill="#626366" d="M150.2,84.07c-0.57-0.6-0.85-1.36-0.85-2.3c0-0.94,0.28-1.71,0.85-2.31c0.57-0.6,1.3-0.89,2.19-0.89
	c0.89,0,1.62,0.3,2.19,0.89c0.57,0.6,0.85,1.37,0.85,2.31c0,0.94-0.28,1.71-0.85,2.3c-0.57,0.6-1.3,0.9-2.19,0.9
	C151.49,84.97,150.76,84.67,150.2,84.07 M150.8,123.05V92.07c0-0.42,0.2-0.64,0.61-0.64h2.01c0.41,0,0.61,0.21,0.61,0.64v30.98
	c0,0.43-0.2,0.64-0.61,0.64h-2.01C151.01,123.69,150.8,123.48,150.8,123.05"/>
<path fill="#626366" d="M176.4,93.61c1.34,1.75,2.01,4.2,2.01,7.36v22.08c0,0.43-0.2,0.64-0.61,0.64h-2.01
	c-0.41,0-0.61-0.21-0.61-0.64v-21.76c0-2.3-0.49-4.1-1.46-5.38c-0.97-1.28-2.33-1.92-4.07-1.92c-1.78,0-3.18,0.68-4.2,2.05
	c-1.01,1.37-1.52,3.24-1.52,5.63v21.38c0,0.43-0.2,0.64-0.61,0.64h-2.01c-0.4,0-0.61-0.21-0.61-0.64V92.08
	c0-0.43,0.2-0.64,0.61-0.64h2.01c0.4,0,0.61,0.21,0.61,0.64v2.43c0,0.13,0.03,0.19,0.09,0.19c0.06,0,0.13-0.04,0.21-0.13
	c1.38-2.39,3.53-3.58,6.44-3.58C173.16,90.99,175.06,91.86,176.4,93.61"/>
<path fill="#626366" d="M185.86,121.55c-1.64-1.77-2.46-4.08-2.46-6.94v-14.08c0-2.82,0.83-5.12,2.49-6.91s3.83-2.69,6.51-2.69
	c2.76,0,4.97,0.89,6.63,2.66c1.66,1.77,2.49,4.09,2.49,6.94v14.08c0,2.86-0.83,5.17-2.49,6.94c-1.66,1.77-3.87,2.66-6.63,2.66
	C189.68,124.2,187.5,123.32,185.86,121.55 M196.65,119.31c1.09-1.26,1.64-2.87,1.64-4.83v-13.76c0-2.01-0.55-3.64-1.64-4.9
	c-1.1-1.26-2.51-1.89-4.26-1.89c-1.7,0-3.09,0.63-4.16,1.89c-1.07,1.26-1.61,2.89-1.61,4.9v13.76c0,1.96,0.54,3.57,1.61,4.83
	c1.07,1.26,2.46,1.89,4.16,1.89C194.13,121.2,195.55,120.57,196.65,119.31"/>
<path fill="#626366" d="M206.8,84.07c-0.57-0.6-0.85-1.36-0.85-2.3c0-0.94,0.28-1.71,0.85-2.31c0.57-0.6,1.3-0.89,2.19-0.89
	c0.89,0,1.62,0.3,2.19,0.89c0.57,0.6,0.85,1.37,0.85,2.31c0,0.94-0.28,1.71-0.85,2.3c-0.57,0.6-1.3,0.9-2.19,0.9
	C208.1,84.97,207.37,84.67,206.8,84.07 M207.41,123.05V92.07c0-0.42,0.2-0.64,0.61-0.64h2.01c0.41,0,0.61,0.21,0.61,0.64v30.98
	c0,0.43-0.2,0.64-0.61,0.64h-2.01C207.61,123.69,207.41,123.48,207.41,123.05"/>
<path fill="#626366" d="M233,93.61c1.34,1.75,2.01,4.2,2.01,7.36v22.08c0,0.43-0.2,0.64-0.61,0.64h-2.01
	c-0.41,0-0.61-0.21-0.61-0.64v-21.76c0-2.3-0.49-4.1-1.46-5.38C229.36,94.63,228,94,226.26,94c-1.78,0-3.18,0.68-4.2,2.05
	c-1.01,1.37-1.52,3.24-1.52,5.63v21.38c0,0.43-0.2,0.64-0.61,0.64h-2.01c-0.4,0-0.61-0.21-0.61-0.64V92.08
	c0-0.43,0.2-0.64,0.61-0.64h2.01c0.4,0,0.61,0.21,0.61,0.64v2.43c0,0.13,0.03,0.19,0.09,0.19c0.06,0,0.13-0.04,0.21-0.13
	c1.38-2.39,3.53-3.58,6.44-3.58C229.76,90.99,231.67,91.86,233,93.61"/>
<path fill="#626366" d="M252.61,121.55c-1.64-1.77-2.46-4.08-2.46-6.94v-14.08c0-2.82,0.83-5.12,2.49-6.91
	c1.66-1.79,3.83-2.69,6.51-2.69c1.78,0,3.36,0.4,4.74,1.19c1.38,0.79,2.44,1.83,3.19,3.13c0.75,1.3,1.12,2.72,1.12,4.26v0.38
	c0,0.43-0.2,0.64-0.61,0.64l-2.01,0.13c-0.4,0-0.61-0.21-0.61-0.64v-0.38c0-1.54-0.55-2.87-1.64-4c-1.09-1.13-2.49-1.69-4.19-1.69
	s-3.09,0.63-4.17,1.89c-1.07,1.26-1.61,2.89-1.61,4.9v13.76c0,1.96,0.54,3.57,1.61,4.83c1.07,1.26,2.46,1.89,4.17,1.89
	s3.1-0.57,4.19-1.7c1.09-1.13,1.64-2.46,1.64-4v-0.32c0-0.43,0.2-0.64,0.61-0.64h2.01c0.4,0,0.61,0.21,0.61,0.64v0.51
	c0,1.54-0.38,2.96-1.12,4.25c-0.75,1.3-1.82,2.34-3.19,3.1c-1.38,0.77-2.96,1.15-4.74,1.15
	C256.43,124.2,254.26,123.32,252.61,121.55"/>
<path fill="#626366" d="M287.63,93.83c1.56,1.94,2.34,4.53,2.34,7.78v21.44c0,0.43-0.2,0.64-0.61,0.64h-2.01
	c-0.41,0-0.61-0.21-0.61-0.64v-2.3c0-0.13-0.03-0.2-0.09-0.22c-0.06-0.02-0.13,0.01-0.21,0.1c-1.5,2.39-3.85,3.58-7.05,3.58
	c-2.15,0-4.01-0.66-5.59-1.98c-1.58-1.32-2.37-3.65-2.37-6.98c0-3.54,0.94-6.14,2.83-7.81c1.89-1.66,4.39-2.5,7.51-2.5h4.74
	c0.16,0,0.24-0.08,0.24-0.26v-2.94c0-2.39-0.51-4.29-1.52-5.7s-2.41-2.11-4.19-2.11c-1.38,0-2.58,0.47-3.62,1.41
	c-1.03,0.94-1.63,2.16-1.79,3.65c0,0.43-0.2,0.64-0.61,0.64l-2.19-0.13c-0.2,0-0.36-0.06-0.46-0.19c-0.1-0.13-0.13-0.28-0.09-0.45
	c0.24-2.39,1.2-4.31,2.86-5.76c1.66-1.45,3.67-2.18,6.02-2.18C283.91,90.92,286.07,91.89,287.63,93.83 M284.78,119.34
	c1.32-1.24,1.98-2.98,1.98-5.25v-6.08c0-0.17-0.08-0.26-0.24-0.26h-4.74c-2.11,0-3.8,0.61-5.08,1.82c-1.28,1.22-1.92,3.02-1.92,5.41
	c0,2.09,0.49,3.65,1.46,4.67c0.97,1.02,2.25,1.54,3.83,1.54C281.89,121.19,283.46,120.58,284.78,119.34"/>
<path fill="#626366" d="M311.4,93.58c1.52,1.77,2.28,4.09,2.28,6.94v14.08c0,2.86-0.76,5.17-2.28,6.94
	c-1.52,1.77-3.54,2.66-6.05,2.66c-1.22,0-2.35-0.26-3.41-0.77c-1.05-0.51-1.95-1.26-2.67-2.24c-0.08-0.08-0.15-0.12-0.21-0.1
	c-0.06,0.02-0.09,0.07-0.09,0.16v14.34c0,0.43-0.2,0.64-0.61,0.64h-2.01c-0.41,0-0.61-0.21-0.61-0.64V92.08
	c0-0.43,0.2-0.64,0.61-0.64h2.01c0.4,0,0.61,0.21,0.61,0.64v1.79c0,0.09,0.04,0.14,0.12,0.16c0.08,0.02,0.14-0.01,0.18-0.1
	c0.73-0.98,1.62-1.73,2.67-2.24c1.05-0.51,2.19-0.77,3.41-0.77C307.87,90.92,309.89,91.81,311.4,93.58 M308.88,95.82
	c-1.1-1.26-2.51-1.89-4.26-1.89c-1.66,0-3.02,0.62-4.07,1.86c-1.05,1.24-1.58,2.86-1.58,4.86v13.82c0,2.01,0.53,3.63,1.58,4.86
	c1.05,1.24,2.41,1.86,4.07,1.86c1.74,0,3.16-0.63,4.26-1.89c1.09-1.26,1.64-2.87,1.64-4.83v-13.82
	C310.52,98.69,309.98,97.08,308.88,95.82"/>
<path fill="#626366" d="M320.22,121.74c-1.6-1.51-2.4-3.47-2.4-5.86v-0.38c0-0.43,0.2-0.64,0.61-0.64h1.89
	c0.4,0,0.61,0.21,0.61,0.64v0.38c0,1.54,0.53,2.82,1.58,3.84c1.05,1.02,2.41,1.54,4.07,1.54c1.62,0,2.93-0.52,3.92-1.57
	c0.99-1.04,1.49-2.4,1.49-4.06c0-1.24-0.29-2.26-0.85-3.07c-0.57-0.81-1.28-1.46-2.13-1.95c-0.85-0.49-2.01-1.06-3.47-1.7
	c-1.58-0.68-2.88-1.36-3.89-2.02c-1.01-0.66-1.88-1.58-2.59-2.75c-0.71-1.17-1.06-2.66-1.06-4.45c0-2.6,0.77-4.67,2.31-6.21
	c1.54-1.54,3.59-2.31,6.14-2.31c2.59,0,4.66,0.79,6.2,2.37c1.54,1.58,2.31,3.63,2.31,6.14v0.19c0,0.43-0.2,0.64-0.61,0.64h-1.82
	c-0.41,0-0.61-0.21-0.61-0.64v-0.32c0-1.58-0.51-2.9-1.52-3.97c-1.01-1.07-2.33-1.6-3.95-1.6c-1.62,0-2.92,0.52-3.89,1.57
	c-0.97,1.05-1.46,2.4-1.46,4.06c0,1.15,0.26,2.11,0.79,2.88c0.53,0.77,1.18,1.39,1.98,1.86c0.79,0.47,1.9,1.05,3.31,1.73
	c1.66,0.73,3.03,1.42,4.1,2.08c1.07,0.66,2,1.59,2.77,2.78c0.77,1.19,1.16,2.71,1.16,4.54c0,2.56-0.79,4.62-2.37,6.18
	c-1.58,1.56-3.67,2.33-6.26,2.33C323.94,124.01,321.82,123.25,320.22,121.74"/>
<path fill="#626366" d="M353.87,91.44h2.01c0.4,0,0.61,0.21,0.61,0.64v30.97c0,0.43-0.2,0.64-0.61,0.64h-2.01
	c-0.41,0-0.61-0.21-0.61-0.64v-2.3c0-0.13-0.03-0.2-0.09-0.22c-0.06-0.02-0.13,0.01-0.21,0.1c-1.3,2.35-3.36,3.52-6.2,3.52
	c-2.43,0-4.36-0.78-5.78-2.34c-1.42-1.56-2.13-3.89-2.13-7.01V92.08c0-0.43,0.2-0.64,0.61-0.64h2.01c0.4,0,0.61,0.21,0.61,0.64
	v21.95c0,2.35,0.48,4.12,1.43,5.31c0.95,1.2,2.3,1.79,4.04,1.79c1.78,0,3.18-0.68,4.2-2.05c1.01-1.36,1.52-3.24,1.52-5.63V92.08
	C353.27,91.65,353.47,91.44,353.87,91.44"/>
<path fill="#626366" d="M362.26,123.05V79.53c0-0.43,0.2-0.64,0.61-0.64h2.01c0.41,0,0.61,0.21,0.61,0.64v43.52
	c0,0.43-0.2,0.64-0.61,0.64h-2.01C362.47,123.69,362.26,123.48,362.26,123.05"/>
<path fill="#626366" d="M387.92,108.78h-13.98c-0.16,0-0.24,0.09-0.24,0.26v5.44c0,1.96,0.54,3.57,1.61,4.83
	c1.07,1.26,2.46,1.89,4.16,1.89c1.42,0,2.64-0.45,3.65-1.34c1.01-0.9,1.68-2.07,2.01-3.52c0.12-0.38,0.35-0.58,0.67-0.58l1.95,0.13
	c0.16,0,0.3,0.04,0.42,0.13c0.12,0.09,0.16,0.22,0.12,0.39v0.26c-0.4,2.35-1.38,4.19-2.92,5.54c-1.54,1.34-3.51,2.02-5.9,2.02
	c-2.67,0-4.84-0.89-6.5-2.66c-1.66-1.77-2.49-4.06-2.49-6.88v-14.14c0-2.82,0.83-5.12,2.49-6.91c1.66-1.79,3.83-2.69,6.5-2.69
	c2.72,0,4.9,0.9,6.57,2.69c1.66,1.79,2.49,4.1,2.49,6.91v7.62C388.53,108.57,388.33,108.78,387.92,108.78 M375.31,95.82
	c-1.08,1.26-1.61,2.89-1.61,4.9v4.86c0,0.17,0.08,0.26,0.24,0.26h11.13c0.16,0,0.24-0.09,0.24-0.26v-4.86c0-2-0.54-3.64-1.61-4.9
	c-1.08-1.26-2.48-1.89-4.23-1.89C377.77,93.93,376.38,94.56,375.31,95.82"/>
<path fill="#626366" d="M394.52,121.74c-1.6-1.51-2.4-3.47-2.4-5.86v-0.38c0-0.43,0.2-0.64,0.61-0.64h1.89
	c0.4,0,0.61,0.21,0.61,0.64v0.38c0,1.54,0.53,2.82,1.58,3.84c1.05,1.02,2.41,1.54,4.07,1.54c1.62,0,2.93-0.52,3.92-1.57
	c0.99-1.04,1.49-2.4,1.49-4.06c0-1.24-0.29-2.26-0.85-3.07c-0.57-0.81-1.28-1.46-2.13-1.95c-0.85-0.49-2.01-1.06-3.47-1.7
	c-1.58-0.68-2.88-1.36-3.89-2.02c-1.01-0.66-1.88-1.58-2.59-2.75c-0.71-1.17-1.06-2.66-1.06-4.45c0-2.6,0.77-4.67,2.31-6.21
	c1.54-1.54,3.59-2.31,6.14-2.31c2.59,0,4.66,0.79,6.2,2.37c1.54,1.58,2.31,3.63,2.31,6.14v0.19c0,0.43-0.2,0.64-0.61,0.64h-1.82
	c-0.41,0-0.61-0.21-0.61-0.64v-0.32c0-1.58-0.51-2.9-1.52-3.97c-1.01-1.07-2.33-1.6-3.95-1.6c-1.62,0-2.92,0.52-3.89,1.57
	c-0.97,1.05-1.46,2.4-1.46,4.06c0,1.15,0.26,2.11,0.79,2.88c0.53,0.77,1.18,1.39,1.98,1.86c0.79,0.47,1.9,1.05,3.31,1.73
	c1.66,0.73,3.03,1.42,4.1,2.08c1.07,0.66,2,1.59,2.77,2.78c0.77,1.19,1.16,2.71,1.16,4.54c0,2.56-0.79,4.62-2.37,6.18
	c-1.58,1.56-3.67,2.33-6.26,2.33C398.24,124.01,396.12,123.25,394.52,121.74"/>
<path fill="#005F83" d="M24.57,50.48L14.43,69.67H2.05L39.12,2.32h14.51l4.04,67.35H45.82l-0.64-19.19H24.57z M45.06,41.49
	l-0.8-16.79c-0.06-3.6-0.13-8.79-0.17-12.79H43.9c-2.01,4.1-4.05,8.79-6.15,12.79l-9.02,16.79H45.06z"/>
<path fill="#005F83" d="M65.55,21.35c2.81-0.58,7.93-1.01,12.9-1.01c6.56,0,10.6,0.79,13.91,3.1c3.03,1.8,5.04,4.97,5.04,9.08
	c0,4.47-2.81,8.58-8.07,10.52v0.14c5.12,1.3,9.8,5.33,9.8,12.04c0,4.32-1.87,7.71-4.69,10.02c-3.46,3.03-9.15,4.54-18.02,4.54
	c-4.9,0-8.65-0.36-10.88-0.65V21.35z M74.34,40.53h4.54c6.13,0,9.59-2.88,9.59-6.99c0-4.54-3.46-6.63-9.08-6.63
	c-2.6,0-4.11,0.14-5.04,0.36V40.53z M74.34,62.87c1.15,0.14,2.67,0.22,4.68,0.22c5.69,0,10.74-2.16,10.74-8.14
	c0-5.62-4.9-7.93-11.03-7.93h-4.4V62.87z"/>
<path fill="#005F83" d="M105.81,59.63c2.88,1.66,7.21,3.1,11.75,3.1c5.69,0,8.87-2.67,8.87-6.63c0-3.68-2.45-5.84-8.65-8.07
	c-8-2.88-13.12-7.14-13.12-14.13c0-7.93,6.63-13.98,17.15-13.98c5.26,0,9.15,1.15,11.68,2.45l-2.16,7.14
	c-1.73-0.94-5.12-2.31-9.66-2.31c-5.62,0-8.07,3.03-8.07,5.84c0,3.75,2.81,5.48,9.3,8c8.43,3.17,12.54,7.42,12.54,14.41
	c0,7.79-5.91,14.56-18.45,14.56c-5.12,0-10.45-1.44-13.12-3.03L105.81,59.63z"/>
<path fill="#005F83" d="M186.12,44.49c0,16.29-9.87,25.59-23.28,25.59c-13.7,0-22.34-10.45-22.34-24.72
	c0-14.92,9.37-25.44,23.06-25.44C177.76,19.91,186.12,30.65,186.12,44.49 M149.86,45.21c0,9.88,4.97,17.73,13.48,17.73
	c8.58,0,13.41-7.93,13.41-18.09c0-9.15-4.54-17.8-13.41-17.8C154.55,27.05,149.86,35.19,149.86,45.21"/>
<path fill="#005F83" d="M192.92,21.35c3.32-0.58,8.29-1.01,13.41-1.01c6.99,0,11.75,1.15,14.99,3.89c2.67,2.24,4.18,5.62,4.18,9.73
	c0,6.27-4.25,10.52-8.79,12.18v0.22c3.46,1.3,5.55,4.68,6.78,9.37c1.51,6.05,2.81,11.68,3.82,13.55h-9.15
	c-0.72-1.44-1.87-5.41-3.24-11.46c-1.37-6.34-3.67-8.36-8.72-8.5h-4.47v19.96h-8.79V21.35z M201.72,42.83h5.26
	c5.98,0,9.73-3.17,9.73-8c0-5.33-3.75-7.78-9.51-7.78c-2.81,0-4.61,0.22-5.48,0.43V42.83z"/>
<rect x="233.93" y="20.7" fill="#005F83" width="8.87" height="48.58"/>
<path fill="#005F83" d="M287.15,67.84c-2.09,1.08-6.7,2.16-12.54,2.16c-15.42,0-24.79-9.66-24.79-24.43c0-16,11.1-25.66,25.95-25.66
	c5.84,0,10.02,1.22,11.82,2.16l-1.95,7.06c-2.31-1.01-5.48-1.87-9.51-1.87c-9.87,0-17.01,6.2-17.01,17.88
	c0,10.67,6.27,17.51,16.94,17.51c3.61,0,7.35-0.72,9.66-1.8L287.15,67.84z"/>
<path fill="#005F83" d="M303.72,55.52l-4.18,13.77h-9.15l15.57-48.58h11.32l15.79,48.58h-9.52l-4.4-13.77H303.72z M317.63,48.81
	l-3.82-11.96c-0.94-2.96-1.73-6.27-2.45-9.08h-0.14c-0.72,2.81-1.44,6.2-2.31,9.08l-3.75,11.96H317.63z"/>
<polygon fill="#97D700" points="59.71,2.32 60.45,15.08 337.52,15.08 338.25,2.32 "/>
<path fill="#97D700" d="M392.27,59.86c1.42,0.3,3.16,0.23,5.24,0.25c13.52,0.08,20.95-8.06,19.31-25.66
	c-1.43-15.44-8.65-23.42-19.62-23.49c-2.9-0.02-4.29,0.5-4.94,0.7C392.27,12.39,392.3,59.86,392.27,59.86 M382.1,2.72
	c3.94-0.9,8.65-1.41,13.97-1.41c9.18,0,16.49,3.08,21.51,8.24c5.24,5.39,8.51,12.46,9.67,24.01c1.23,12.05-1.35,21.41-6.15,27.2
	C416.01,66.92,407.4,70,396.26,70c-6.12,0-10.43-0.3-14.16-0.72V2.72z"/>
<polygon fill="#97D700" points="343.61,2.32 353.78,2.32 353.78,59.81 376.69,59.81 376.69,69.98 343.61,69.98 "/>
<path fill="#97D700" d="M429.44,2.43v1.58h-3.05v7.97h-1.9V4.01h-3.05V2.43H429.44z M439.76,11.97l-0.35-5.62
	c-0.04-0.74-0.04-1.65-0.07-2.67h-0.1c-0.25,0.84-0.53,1.97-0.81,2.84l-1.72,5.3h-1.97l-1.72-5.44c-0.17-0.74-0.46-1.86-0.67-2.7
	h-0.11c0,0.88-0.03,1.79-0.07,2.67l-0.35,5.62H430l0.7-9.55h2.84l1.65,4.67c0.21,0.74,0.39,1.44,0.63,2.42h0.04
	c0.25-0.88,0.46-1.68,0.67-2.39l1.65-4.7h2.74l0.74,9.55H439.76z"/>
<g>
	<path fill="#626366" d="M41.71,150.23c0.76,0.39,1.31,0.98,1.64,1.77c0.45,1.01,0.68,2.21,0.68,3.6c0,1.14-0.15,2.12-0.43,2.95
		c-0.35,1.05-0.92,1.88-1.71,2.46c-0.79,0.59-1.73,0.88-2.82,0.88c-1.05,0-1.97-0.29-2.74-0.87c-0.77-0.58-1.35-1.39-1.72-2.45
		c-0.29-0.91-0.43-1.91-0.43-3.01c0-1.32,0.2-2.44,0.59-3.35c0.35-0.87,0.93-1.53,1.74-1.98c0.08-0.06,0.08-0.12,0-0.19
		c-0.68-0.35-1.23-0.91-1.64-1.67c-0.45-0.87-0.68-1.92-0.68-3.16c0-1.26,0.23-2.31,0.68-3.16c0.39-0.76,0.95-1.36,1.67-1.78
		s1.57-0.64,2.54-0.64s1.82,0.2,2.54,0.6c0.72,0.4,1.28,0.99,1.67,1.75c0.5,0.87,0.74,1.95,0.74,3.25c0,1.24-0.22,2.26-0.65,3.07
		c-0.41,0.76-0.97,1.34-1.67,1.74C41.61,150.1,41.61,150.17,41.71,150.23z M36.35,145.39c0,0.93,0.17,1.71,0.5,2.33
		c0.45,1.01,1.2,1.52,2.23,1.52c0.56,0,1.04-0.14,1.44-0.43c0.4-0.29,0.71-0.69,0.91-1.21c0.29-0.62,0.43-1.36,0.43-2.23
		c0-0.99-0.18-1.78-0.53-2.36c-0.48-0.97-1.23-1.46-2.26-1.46c-1.05,0-1.81,0.52-2.26,1.55C36.5,143.72,36.35,144.48,36.35,145.39z
		 M41.86,155.47c0-1.07-0.14-1.96-0.43-2.67c-0.43-1.2-1.22-1.8-2.36-1.8c-0.56,0-1.04,0.17-1.44,0.5c-0.4,0.33-0.71,0.81-0.91,1.43
		c-0.25,0.68-0.37,1.53-0.37,2.54c0,0.85,0.09,1.6,0.28,2.26c0.19,0.7,0.49,1.25,0.91,1.64c0.42,0.39,0.93,0.59,1.53,0.59
		c0.62,0,1.15-0.2,1.6-0.6c0.44-0.4,0.76-0.98,0.95-1.72C41.78,156.98,41.86,156.25,41.86,155.47z"/>
	<path fill="#626366" d="M63.6,147.1c0.68,0.91,1.02,2.17,1.02,3.78v10.45c0,0.21-0.1,0.31-0.31,0.31h-1.55
		c-0.21,0-0.31-0.1-0.31-0.31v-10.26c0-1.05-0.22-1.89-0.67-2.5c-0.44-0.61-1.03-0.92-1.75-0.92c-0.79,0-1.41,0.3-1.86,0.9
		s-0.68,1.42-0.68,2.45v10.32c0,0.21-0.1,0.31-0.31,0.31H55.6c-0.21,0-0.31-0.1-0.31-0.31v-10.26c0-1.05-0.22-1.89-0.67-2.5
		c-0.44-0.61-1.02-0.92-1.72-0.92c-0.79,0-1.41,0.3-1.88,0.9c-0.46,0.6-0.7,1.42-0.7,2.45v10.32c0,0.21-0.1,0.31-0.31,0.31h-1.55
		c-0.21,0-0.31-0.1-0.31-0.31v-15.07c0-0.21,0.1-0.31,0.31-0.31h1.55c0.21,0,0.31,0.1,0.31,0.31v0.96c0,0.04,0.02,0.07,0.05,0.08
		c0.03,0.01,0.07,0,0.11-0.05c0.39-0.52,0.86-0.9,1.4-1.15c0.54-0.25,1.11-0.37,1.71-0.37c0.79,0,1.47,0.19,2.05,0.57
		c0.58,0.38,1.02,0.92,1.33,1.63c0.02,0.04,0.05,0.06,0.09,0.06c0.04,0,0.07-0.03,0.09-0.09c0.37-0.74,0.88-1.29,1.52-1.64
		s1.32-0.53,2.05-0.53C61.95,145.73,62.91,146.19,63.6,147.1z"/>
	<path fill="#626366" d="M76.31,145.95h1.58c0.21,0,0.31,0.1,0.31,0.31v15.07c0,2.21-0.51,3.89-1.53,5.04
		c-1.02,1.15-2.73,1.67-5.13,1.57c-0.21-0.02-0.31-0.13-0.31-0.34v-1.33c0-0.21,0.1-0.31,0.31-0.31c1.65,0.04,2.81-0.34,3.47-1.13
		c0.66-0.8,0.99-2.02,0.99-3.67v-0.93c0-0.04-0.02-0.07-0.05-0.09c-0.03-0.02-0.07-0.01-0.11,0.03c-0.35,0.52-0.8,0.91-1.35,1.18
		c-0.55,0.27-1.13,0.4-1.75,0.4c-1.3,0-2.33-0.43-3.08-1.3c-0.75-0.87-1.13-2.01-1.13-3.44v-6.54c0-1.45,0.38-2.6,1.13-3.46
		c0.75-0.86,1.78-1.29,3.08-1.29c0.62,0,1.2,0.13,1.75,0.39c0.55,0.26,1,0.65,1.35,1.16c0.04,0.06,0.08,0.09,0.11,0.08
		c0.03-0.01,0.05-0.05,0.05-0.11v-0.96C76,146.05,76.1,145.95,76.31,145.95z M75.27,158.99c0.49-0.55,0.73-1.26,0.73-2.12v-6.26
		c0-0.89-0.24-1.61-0.73-2.15c-0.49-0.55-1.11-0.82-1.88-0.82c-0.79,0-1.43,0.27-1.92,0.82s-0.74,1.27-0.74,2.15v6.26
		c0,0.87,0.25,1.58,0.74,2.12s1.14,0.82,1.92,0.82C74.16,159.81,74.78,159.53,75.27,158.99z"/>
	<path fill="#626366" d="M89,155.63c-0.61-0.62-0.92-1.35-0.92-2.2c0-0.86,0.31-1.6,0.92-2.2c0.61-0.6,1.35-0.91,2.21-0.91
		c0.85,0,1.57,0.3,2.19,0.91c0.61,0.6,0.92,1.34,0.92,2.2c0,0.85-0.31,1.58-0.92,2.2c-0.61,0.62-1.34,0.93-2.19,0.93
		C90.35,156.56,89.61,156.25,89,155.63z"/>
	<path fill="#626366" d="M106.63,139.94h1.67c0.21,0,0.31,0.1,0.31,0.31v21.08c0,0.21-0.1,0.31-0.31,0.31h-1.58
		c-0.21,0-0.31-0.1-0.31-0.31v-18.79c0-0.04-0.02-0.07-0.05-0.09c-0.03-0.02-0.07-0.02-0.11,0l-2.91,0.96l-0.09,0.03
		c-0.15,0-0.24-0.09-0.28-0.28l-0.15-1.15v-0.06c0-0.1,0.07-0.21,0.22-0.31l3.19-1.61C106.36,139.97,106.49,139.94,106.63,139.94z"
		/>
	<path fill="#626366" d="M122.63,155.03c0,0.89-0.04,1.65-0.12,2.29c-0.17,1.47-0.67,2.59-1.5,3.38s-1.95,1.18-3.33,1.18
		c-1.28,0-2.34-0.36-3.16-1.08s-1.34-1.79-1.55-3.19c-0.15-0.66-0.22-1.48-0.22-2.45l-0.03-10.17c0-1.61,0.45-2.9,1.36-3.86
		c0.91-0.96,2.11-1.44,3.6-1.44c1.34,0,2.45,0.49,3.33,1.46c0.88,0.97,1.32,2.25,1.32,3.84v0.5c0,0.21-0.1,0.31-0.31,0.31h-1.58
		c-0.21,0-0.31-0.1-0.31-0.31v-0.43c0-0.99-0.24-1.8-0.71-2.43c-0.48-0.63-1.05-0.95-1.74-0.95c-0.83,0-1.49,0.31-1.98,0.93
		s-0.74,1.44-0.74,2.45v4.15c0,0.04,0.02,0.07,0.05,0.08c0.03,0.01,0.07,0,0.11-0.05c0.29-0.41,0.66-0.73,1.12-0.95
		s0.96-0.33,1.52-0.33c1.26,0,2.29,0.38,3.1,1.15c0.81,0.77,1.32,1.82,1.55,3.16C122.55,153.1,122.63,154.02,122.63,155.03z
		 M120.43,154.88c0-0.95-0.09-1.84-0.28-2.67c-0.17-0.76-0.46-1.34-0.88-1.74c-0.42-0.39-0.96-0.59-1.6-0.59
		c-1.34,0-2.19,0.82-2.54,2.45c-0.12,0.66-0.19,1.51-0.19,2.54c0,0.97,0.05,1.78,0.15,2.42c0.35,1.78,1.21,2.67,2.57,2.67
		c0.7,0,1.28-0.24,1.72-0.71c0.44-0.48,0.74-1.18,0.88-2.11C120.38,156.32,120.43,155.56,120.43,154.88z"/>
	<path fill="#626366" d="M141.73,147.1c0.68,0.91,1.02,2.17,1.02,3.78v10.45c0,0.21-0.1,0.31-0.31,0.31h-1.55
		c-0.21,0-0.31-0.1-0.31-0.31v-10.26c0-1.05-0.22-1.89-0.67-2.5c-0.44-0.61-1.03-0.92-1.75-0.92c-0.79,0-1.41,0.3-1.86,0.9
		s-0.68,1.42-0.68,2.45v10.32c0,0.21-0.1,0.31-0.31,0.31h-1.58c-0.21,0-0.31-0.1-0.31-0.31v-10.26c0-1.05-0.22-1.89-0.67-2.5
		c-0.44-0.61-1.02-0.92-1.72-0.92c-0.79,0-1.41,0.3-1.88,0.9c-0.46,0.6-0.7,1.42-0.7,2.45v10.32c0,0.21-0.1,0.31-0.31,0.31h-1.55
		c-0.21,0-0.31-0.1-0.31-0.31v-15.07c0-0.21,0.1-0.31,0.31-0.31h1.55c0.21,0,0.31,0.1,0.31,0.31v0.96c0,0.04,0.02,0.07,0.05,0.08
		c0.03,0.01,0.07,0,0.11-0.05c0.39-0.52,0.86-0.9,1.4-1.15c0.54-0.25,1.11-0.37,1.71-0.37c0.79,0,1.47,0.19,2.05,0.57
		c0.58,0.38,1.02,0.92,1.33,1.63c0.02,0.04,0.05,0.06,0.09,0.06c0.04,0,0.07-0.03,0.09-0.09c0.37-0.74,0.88-1.29,1.52-1.64
		s1.32-0.53,2.05-0.53C140.08,145.73,141.04,146.19,141.73,147.1z"/>
	<path fill="#626366" d="M154.44,145.95h1.58c0.21,0,0.31,0.1,0.31,0.31v15.07c0,2.21-0.51,3.89-1.53,5.04
		c-1.02,1.15-2.73,1.67-5.13,1.57c-0.21-0.02-0.31-0.13-0.31-0.34v-1.33c0-0.21,0.1-0.31,0.31-0.31c1.65,0.04,2.81-0.34,3.47-1.13
		c0.66-0.8,0.99-2.02,0.99-3.67v-0.93c0-0.04-0.02-0.07-0.05-0.09c-0.03-0.02-0.07-0.01-0.11,0.03c-0.35,0.52-0.8,0.91-1.35,1.18
		c-0.55,0.27-1.13,0.4-1.75,0.4c-1.3,0-2.33-0.43-3.08-1.3c-0.75-0.87-1.13-2.01-1.13-3.44v-6.54c0-1.45,0.38-2.6,1.13-3.46
		c0.75-0.86,1.78-1.29,3.08-1.29c0.62,0,1.2,0.13,1.75,0.39c0.55,0.26,1,0.65,1.35,1.16c0.04,0.06,0.08,0.09,0.11,0.08
		c0.03-0.01,0.05-0.05,0.05-0.11v-0.96C154.13,146.05,154.23,145.95,154.44,145.95z M153.4,158.99c0.49-0.55,0.73-1.26,0.73-2.12
		v-6.26c0-0.89-0.24-1.61-0.73-2.15c-0.49-0.55-1.11-0.82-1.88-0.82c-0.79,0-1.43,0.27-1.92,0.82s-0.74,1.27-0.74,2.15v6.26
		c0,0.87,0.25,1.58,0.74,2.12s1.14,0.82,1.92,0.82C152.29,159.81,152.91,159.53,153.4,158.99z"/>
	<path fill="#626366" d="M167.07,155.63c-0.61-0.62-0.92-1.35-0.92-2.2c0-0.86,0.31-1.6,0.92-2.2c0.61-0.6,1.35-0.91,2.21-0.91
		c0.85,0,1.57,0.3,2.19,0.91c0.61,0.6,0.92,1.34,0.92,2.2c0,0.85-0.31,1.58-0.92,2.2c-0.61,0.62-1.34,0.93-2.19,0.93
		C168.42,156.56,167.68,156.25,167.07,155.63z"/>
	<path fill="#626366" d="M184.48,159.67c0.02,0.03,0.05,0.05,0.09,0.05h7.29c0.21,0,0.31,0.1,0.31,0.31v1.3
		c0,0.21-0.1,0.31-0.31,0.31h-9.73c-0.21,0-0.31-0.1-0.31-0.31v-1.4c0-0.17,0.04-0.3,0.12-0.4c0.64-1.01,1-1.59,1.09-1.74
		c1.82-2.87,3.25-5.21,4.31-7.01c1.32-2.27,1.98-4.15,1.98-5.64c0-1.07-0.25-1.93-0.74-2.57c-0.5-0.64-1.15-0.96-1.95-0.96
		c-0.79,0-1.42,0.32-1.91,0.95c-0.49,0.63-0.72,1.46-0.7,2.5v1.18c0,0.21-0.1,0.31-0.31,0.31h-1.61c-0.21,0-0.31-0.1-0.31-0.31
		v-1.24c0.04-1.59,0.51-2.87,1.41-3.84c0.9-0.97,2.07-1.46,3.52-1.46c1.45,0,2.61,0.5,3.5,1.5c0.89,1,1.33,2.32,1.33,3.95
		c0,1.94-0.73,4.13-2.2,6.57c-0.74,1.26-1.79,2.96-3.13,5.08l-1.74,2.76C184.46,159.6,184.46,159.64,184.48,159.67z"/>
	<path fill="#626366" d="M205.84,154.01v1.36c0,0.21-0.1,0.31-0.31,0.31h-0.96c-0.08,0-0.12,0.04-0.12,0.12v5.52
		c0,0.21-0.1,0.31-0.31,0.31h-1.58c-0.21,0-0.31-0.1-0.31-0.31v-5.52c0-0.08-0.04-0.12-0.12-0.12h-7.47c-0.21,0-0.31-0.1-0.31-0.31
		v-1.18c0-0.08,0.02-0.21,0.06-0.37l4.65-13.64c0.06-0.17,0.19-0.25,0.37-0.25h1.71c0.23,0,0.31,0.11,0.25,0.34l-4.46,13.27
		c-0.02,0.04-0.02,0.08,0,0.11s0.05,0.05,0.09,0.05h5.11c0.08,0,0.12-0.04,0.12-0.12v-4.74c0-0.21,0.1-0.31,0.31-0.31h1.58
		c0.21,0,0.31,0.1,0.31,0.31v4.74c0,0.08,0.04,0.12,0.12,0.12h0.96C205.74,153.7,205.84,153.8,205.84,154.01z"/>
	<path fill="#626366" d="M224.44,147.1c0.68,0.91,1.02,2.17,1.02,3.78v10.45c0,0.21-0.1,0.31-0.31,0.31h-1.55
		c-0.21,0-0.31-0.1-0.31-0.31v-10.26c0-1.05-0.22-1.89-0.67-2.5s-1.03-0.92-1.75-0.92c-0.79,0-1.41,0.3-1.86,0.9
		s-0.68,1.42-0.68,2.45v10.32c0,0.21-0.1,0.31-0.31,0.31h-1.58c-0.21,0-0.31-0.1-0.31-0.31v-10.26c0-1.05-0.22-1.89-0.67-2.5
		c-0.44-0.61-1.02-0.92-1.72-0.92c-0.79,0-1.41,0.3-1.88,0.9c-0.46,0.6-0.7,1.42-0.7,2.45v10.32c0,0.21-0.1,0.31-0.31,0.31h-1.55
		c-0.21,0-0.31-0.1-0.31-0.31v-15.07c0-0.21,0.1-0.31,0.31-0.31h1.55c0.21,0,0.31,0.1,0.31,0.31v0.96c0,0.04,0.02,0.07,0.05,0.08
		c0.03,0.01,0.07,0,0.11-0.05c0.39-0.52,0.86-0.9,1.4-1.15c0.54-0.25,1.11-0.37,1.71-0.37c0.79,0,1.47,0.19,2.05,0.57
		c0.58,0.38,1.02,0.92,1.33,1.63c0.02,0.04,0.05,0.06,0.09,0.06c0.04,0,0.07-0.03,0.09-0.09c0.37-0.74,0.88-1.29,1.52-1.64
		s1.32-0.53,2.05-0.53C222.8,145.73,223.76,146.19,224.44,147.1z"/>
	<path fill="#626366" d="M237.15,145.95h1.58c0.21,0,0.31,0.1,0.31,0.31v15.07c0,2.21-0.51,3.89-1.53,5.04
		c-1.02,1.15-2.73,1.67-5.13,1.57c-0.21-0.02-0.31-0.13-0.31-0.34v-1.33c0-0.21,0.1-0.31,0.31-0.31c1.65,0.04,2.81-0.34,3.47-1.13
		c0.66-0.8,0.99-2.02,0.99-3.67v-0.93c0-0.04-0.02-0.07-0.05-0.09s-0.07-0.01-0.11,0.03c-0.35,0.52-0.8,0.91-1.35,1.18
		c-0.55,0.27-1.13,0.4-1.75,0.4c-1.3,0-2.33-0.43-3.08-1.3c-0.75-0.87-1.13-2.01-1.13-3.44v-6.54c0-1.45,0.38-2.6,1.13-3.46
		c0.75-0.86,1.78-1.29,3.08-1.29c0.62,0,1.2,0.13,1.75,0.39c0.55,0.26,1,0.65,1.35,1.16c0.04,0.06,0.08,0.09,0.11,0.08
		c0.03-0.01,0.05-0.05,0.05-0.11v-0.96C236.84,146.05,236.95,145.95,237.15,145.95z M236.12,158.99c0.49-0.55,0.73-1.26,0.73-2.12
		v-6.26c0-0.89-0.24-1.61-0.73-2.15c-0.49-0.55-1.11-0.82-1.88-0.82c-0.79,0-1.43,0.27-1.92,0.82s-0.74,1.27-0.74,2.15v6.26
		c0,0.87,0.25,1.58,0.74,2.12s1.14,0.82,1.92,0.82C235,159.81,235.63,159.53,236.12,158.99z"/>
	<path fill="#626366" d="M249.85,155.63c-0.61-0.62-0.92-1.35-0.92-2.2c0-0.86,0.31-1.6,0.92-2.2c0.61-0.6,1.35-0.91,2.21-0.91
		c0.85,0,1.58,0.3,2.19,0.91c0.61,0.6,0.92,1.34,0.92,2.2c0,0.85-0.31,1.58-0.92,2.2c-0.61,0.62-1.34,0.93-2.19,0.93
		C251.2,156.56,250.46,156.25,249.85,155.63z"/>
	<path fill="#626366" d="M274.43,155.06c0,1.1-0.11,2.1-0.34,3.01c-0.58,2.54-2.11,3.81-4.59,3.81c-1.3,0-2.37-0.36-3.21-1.08
		s-1.36-1.73-1.57-3.01c-0.12-0.72-0.19-1.52-0.19-2.39c0-0.21,0.1-0.31,0.31-0.31h1.58c0.21,0,0.31,0.1,0.31,0.31
		c0,0.74,0.06,1.42,0.19,2.02c0.35,1.69,1.21,2.54,2.57,2.54c0.64,0,1.18-0.2,1.61-0.59c0.43-0.39,0.74-0.96,0.93-1.71
		c0.17-0.87,0.25-1.8,0.25-2.79c0-1.3-0.12-2.39-0.37-3.25c-0.21-0.66-0.52-1.16-0.93-1.5s-0.91-0.51-1.49-0.51
		c-0.19,0-0.42,0.06-0.71,0.19c-0.19,0.1-0.33,0.09-0.43-0.03l-0.81-0.84c-0.1-0.14-0.11-0.29-0.03-0.43l4.12-6.48
		c0.02-0.02,0.02-0.05,0-0.09s-0.05-0.06-0.09-0.06H265c-0.21,0-0.31-0.1-0.31-0.31v-1.3c0-0.21,0.1-0.31,0.31-0.31h9.05
		c0.21,0,0.31,0.1,0.31,0.31v1.39c0,0.1-0.04,0.24-0.12,0.4l-3.84,6.01c-0.02,0.04-0.03,0.08-0.02,0.11s0.04,0.05,0.08,0.05
		c0.83,0.08,1.54,0.42,2.15,1.01c0.61,0.59,1.05,1.36,1.32,2.31C274.26,152.58,274.43,153.76,274.43,155.06z"/>
	<path fill="#626366" d="M280.56,159.67c0.02,0.03,0.05,0.05,0.09,0.05h7.29c0.21,0,0.31,0.1,0.31,0.31v1.3
		c0,0.21-0.1,0.31-0.31,0.31h-9.73c-0.21,0-0.31-0.1-0.31-0.31v-1.4c0-0.17,0.04-0.3,0.12-0.4c0.64-1.01,1-1.59,1.08-1.74
		c1.82-2.87,3.25-5.21,4.31-7.01c1.32-2.27,1.98-4.15,1.98-5.64c0-1.07-0.25-1.93-0.74-2.57c-0.5-0.64-1.15-0.96-1.95-0.96
		c-0.79,0-1.42,0.32-1.91,0.95c-0.49,0.63-0.72,1.46-0.7,2.5v1.18c0,0.21-0.1,0.31-0.31,0.31h-1.61c-0.21,0-0.31-0.1-0.31-0.31
		v-1.24c0.04-1.59,0.51-2.87,1.41-3.84c0.9-0.97,2.07-1.46,3.52-1.46s2.61,0.5,3.5,1.5c0.89,1,1.33,2.32,1.33,3.95
		c0,1.94-0.73,4.13-2.2,6.57c-0.74,1.26-1.79,2.96-3.13,5.08l-1.74,2.76C280.54,159.6,280.54,159.64,280.56,159.67z"/>
	<path fill="#626366" d="M307.07,147.1c0.68,0.91,1.02,2.17,1.02,3.78v10.45c0,0.21-0.1,0.31-0.31,0.31h-1.55
		c-0.21,0-0.31-0.1-0.31-0.31v-10.26c0-1.05-0.22-1.89-0.67-2.5s-1.03-0.92-1.75-0.92c-0.79,0-1.41,0.3-1.86,0.9
		c-0.46,0.6-0.68,1.42-0.68,2.45v10.32c0,0.21-0.1,0.31-0.31,0.31h-1.58c-0.21,0-0.31-0.1-0.31-0.31v-10.26
		c0-1.05-0.22-1.89-0.67-2.5s-1.02-0.92-1.72-0.92c-0.79,0-1.41,0.3-1.88,0.9s-0.7,1.42-0.7,2.45v10.32c0,0.21-0.1,0.31-0.31,0.31
		h-1.55c-0.21,0-0.31-0.1-0.31-0.31v-15.07c0-0.21,0.1-0.31,0.31-0.31h1.55c0.21,0,0.31,0.1,0.31,0.31v0.96
		c0,0.04,0.02,0.07,0.05,0.08c0.03,0.01,0.07,0,0.11-0.05c0.39-0.52,0.86-0.9,1.4-1.15c0.54-0.25,1.11-0.37,1.71-0.37
		c0.79,0,1.47,0.19,2.05,0.57c0.58,0.38,1.02,0.92,1.33,1.63c0.02,0.04,0.05,0.06,0.09,0.06c0.04,0,0.07-0.03,0.09-0.09
		c0.37-0.74,0.88-1.29,1.52-1.64c0.64-0.35,1.32-0.53,2.05-0.53C305.43,145.73,306.39,146.19,307.07,147.1z"/>
	<path fill="#626366" d="M319.78,145.95h1.58c0.21,0,0.31,0.1,0.31,0.31v15.07c0,2.21-0.51,3.89-1.53,5.04
		c-1.02,1.15-2.73,1.67-5.13,1.57c-0.21-0.02-0.31-0.13-0.31-0.34v-1.33c0-0.21,0.1-0.31,0.31-0.31c1.65,0.04,2.81-0.34,3.47-1.13
		c0.66-0.8,0.99-2.02,0.99-3.67v-0.93c0-0.04-0.02-0.07-0.05-0.09s-0.07-0.01-0.11,0.03c-0.35,0.52-0.8,0.91-1.35,1.18
		c-0.55,0.27-1.13,0.4-1.75,0.4c-1.3,0-2.33-0.43-3.08-1.3c-0.75-0.87-1.13-2.01-1.13-3.44v-6.54c0-1.45,0.38-2.6,1.13-3.46
		c0.75-0.86,1.78-1.29,3.08-1.29c0.62,0,1.2,0.13,1.75,0.39c0.55,0.26,1,0.65,1.35,1.16c0.04,0.06,0.08,0.09,0.11,0.08
		c0.03-0.01,0.05-0.05,0.05-0.11v-0.96C319.47,146.05,319.57,145.95,319.78,145.95z M318.74,158.99c0.49-0.55,0.73-1.26,0.73-2.12
		v-6.26c0-0.89-0.24-1.61-0.73-2.15c-0.49-0.55-1.11-0.82-1.88-0.82c-0.79,0-1.43,0.27-1.92,0.82s-0.74,1.27-0.74,2.15v6.26
		c0,0.87,0.25,1.58,0.74,2.12s1.14,0.82,1.92,0.82C317.63,159.81,318.25,159.53,318.74,158.99z"/>
</g>
</svg>
