<svg width="190" height="64" viewBox="0 0 190 64" fill="none" xmlns="http://www.w3.org/2000/svg">
<path d="M104.104 2.08148C105.133 2.08148 106.558 2.23982 107.667 2.63565C108.3 2.87315 108.854 2.95232 109.329 3.11065C109.488 4.45648 109.725 6.19815 110.121 8.33565L108.854 8.57315" fill="#C84A37"/>
<path d="M108.775 8.65225C108.062 6.35642 106.875 3.66475 103.55 3.66475C101.017 3.66475 99.5916 5.56475 99.5916 7.78142C99.5916 9.99808 101.175 11.4231 104.183 12.7689L105.212 13.2439C108.221 14.5898 111.071 16.6481 111.071 20.6856C111.071 25.3564 107.429 28.6023 102.204 28.6023C100.7 28.6023 99.3541 28.2856 98.3249 27.9689C97.2166 27.6523 96.5041 27.3356 96.0291 27.1772C95.7124 26.1481 95.2374 23.5356 94.8416 21.1606L96.0291 20.7647C96.8207 22.8231 98.9582 27.0981 102.917 27.0981C105.45 27.0981 107.033 25.1189 107.033 22.6648C107.033 20.4481 106.004 18.9439 102.917 17.4397L101.65 16.8064C99.1166 15.4606 95.7916 13.4023 95.7916 9.60225C95.7916 5.48558 98.8791 2.16058 104.104 2.16058" fill="#C84A37"/>
<path d="M119.858 10.5522V11.2647C117.8 11.4231 117.642 11.6606 117.642 14.5106V23.9314C117.642 26.8606 117.879 27.0189 119.937 27.1772V27.8897H112.337V27.1772C114.396 27.0189 114.633 26.7814 114.633 23.9314V14.5106C114.633 11.5814 114.396 11.4231 112.337 11.2647V10.5522H119.858Z" fill="#C84A37"/>
<path d="M120.967 14.7481C121.046 13.0064 121.204 11.1856 121.283 9.83978H121.758C122.154 10.4731 122.392 10.5523 123.183 10.5523H134.267C134.979 10.5523 135.137 10.3939 135.533 9.83978H135.929C136.008 10.9481 136.087 13.0064 136.246 14.7481L135.454 14.8273C135.217 13.4023 134.9 12.7689 134.425 12.3731C133.95 11.8981 133.079 11.7398 131.417 11.7398H129.992V24.0898C129.992 27.0189 130.229 27.1773 132.683 27.3356V28.0481H124.45V27.3356C126.825 27.1773 127.062 26.9398 126.983 24.0898V11.7398H126.033C123.737 11.7398 123.025 12.0564 122.629 12.5314C122.312 12.9273 121.996 13.6398 121.679 14.9064L120.967 14.7481Z" fill="#C84A37"/>
<path d="M149.467 10.4731C149.546 10.8689 149.625 12.8481 149.783 14.5106L148.992 14.5898C148.754 13.3231 148.438 12.5314 147.963 12.1356C147.488 11.6606 146.617 11.5023 144.954 11.5023H143.608C142.579 11.5023 142.5 11.5023 142.5 12.4523V18.1523H144.796C147.092 18.1523 147.171 17.9939 147.408 15.9356H148.279V21.6356H147.408C147.171 19.4981 147.092 19.4189 144.796 19.4189H142.5V23.8523C142.5 25.4356 142.579 26.1481 143.054 26.5439C143.529 26.8606 144.479 26.8606 145.667 26.8606C147.013 26.8606 148.2 26.7814 148.833 26.0689C149.308 25.5939 149.783 24.6439 150.179 23.3772L150.971 23.5356C150.892 24.4856 150.258 27.1772 150.1 27.9689H137.038V27.2564C139.333 27.0981 139.571 26.8606 139.571 24.0106V14.5898C139.571 11.6606 139.333 11.5023 137.354 11.3439V10.6314L149.467 10.4731Z" fill="#C84A37"/>
<path d="M152.95 10.6314C152.713 10.6314 152.554 10.7106 152.317 10.7897C152.079 10.8689 151.921 11.0272 151.842 11.2647C151.763 11.5022 151.683 11.6606 151.683 11.8981C151.683 12.1356 151.763 12.3731 151.842 12.5314C151.921 12.7689 152.079 12.9272 152.317 13.0064C152.554 13.0856 152.713 13.1647 152.95 13.1647C153.188 13.1647 153.425 13.0856 153.583 13.0064C153.821 12.9272 153.979 12.7689 154.058 12.5314C154.138 12.2939 154.217 12.1356 154.217 11.8981C154.217 11.6606 154.138 11.4231 154.058 11.2647C153.979 11.0272 153.821 10.8689 153.583 10.7897C153.425 10.6314 153.188 10.6314 152.95 10.6314Z" fill="#FDFDFE"/>
<path fill-rule="evenodd" clip-rule="evenodd" d="M47.4209 7.38562C47.4209 8.49396 47.1834 9.52312 46.7876 10.4731C46.3917 11.4231 45.7584 12.294 44.8876 12.9273C44.0167 13.6398 43.0667 14.1148 41.8792 14.3523C44.3334 15.5398 45.5209 17.6773 45.5209 20.7648C45.5209 22.1898 45.2042 23.5356 44.6501 24.644C44.0959 25.7523 43.3834 26.7023 42.6709 27.3356C42.1959 27.7315 41.6417 28.0481 41.0084 28.2065C40.928 28.2266 40.8488 28.2467 40.7709 28.2665C40.2356 28.4025 39.7606 28.5231 39.3459 28.5231C38.7917 28.6023 38.2376 28.6023 37.6042 28.6023H29.6084L30.0042 26.7815C30.6376 26.7815 31.0334 26.544 31.3501 25.9898C31.6667 25.5148 31.9042 24.7231 32.0626 23.694L35.5459 6.67312C35.7042 5.96062 35.7834 5.48562 35.7834 5.08979C35.7834 3.82312 35.2292 3.18979 34.2001 3.18979L34.5959 1.36896H41.8792C42.6709 1.36896 43.3042 1.44812 43.8584 1.52729C44.4126 1.68562 44.9667 1.92312 45.4417 2.39812C45.9959 2.87312 46.5501 3.58562 46.8667 4.37729C47.2626 5.32729 47.4209 6.27729 47.4209 7.38562ZM41.8 18.6273C41.8 17.2023 41.5625 16.3314 41.0875 15.9356C40.6125 15.5398 40.0583 15.3814 39.3458 15.3814H37.4458L35.8625 23.1398C35.7042 23.7731 35.625 24.3273 35.625 24.8814C35.625 25.3564 35.7833 25.7523 36.1 26.1481C36.4167 26.5439 36.9708 26.7023 37.6833 26.7023C38.2375 26.7023 38.8708 26.5439 39.425 26.1481C39.9792 25.7523 40.4542 24.8814 40.9292 23.5356C41.1667 22.9023 41.325 22.1106 41.4833 21.1606C41.7208 20.2898 41.8 19.4189 41.8 18.6273ZM43.1457 3.90227C43.6207 4.13977 43.8582 4.93143 43.8582 6.11893C43.8582 6.98977 43.6999 8.01893 43.4624 9.20643C43.1457 10.3939 42.8291 11.2648 42.3541 11.8981C42.0374 12.2939 41.6416 12.6106 41.0874 12.9273C40.5332 13.2439 39.8207 13.4023 39.1082 13.4023H37.8416L39.8999 3.42727H41.0082C41.9582 3.42727 42.6707 3.5856 43.1457 3.90227Z" fill="#3E3A64"/>
<path d="M57.3168 14.2731C57.3168 15.144 57.1584 15.8565 56.8418 16.4898C56.5251 17.1231 56.1293 17.4398 55.6543 17.4398C55.2584 17.4398 54.8626 17.1231 54.4668 16.4106C54.2293 16.0148 54.0709 15.7773 53.8334 15.7773C53.5959 15.7773 53.2793 16.094 52.8043 16.8065C52.4084 17.519 51.9334 18.3898 51.5376 19.4981C51.0626 20.6065 50.6668 21.9523 50.2709 23.3773C49.8751 24.8023 49.4793 26.3065 49.1626 27.8898L49.0043 28.6815H45.8376L47.8959 17.3606C48.1334 16.2523 48.2126 15.5398 48.2126 15.0648C48.2126 14.9065 48.2126 14.7481 48.1334 14.5898C48.0543 14.4315 47.9751 14.3523 47.8168 14.3523C47.5001 14.3523 47.1043 14.7481 46.7876 15.4606C46.3918 16.1731 46.1543 16.8856 45.9959 17.4398L43.2251 18.469C43.7793 16.8856 45.8376 14.669 46.3918 13.7981C46.9459 12.9273 47.4209 12.3731 47.9751 12.0565C48.4501 11.7398 48.9251 11.5815 49.3209 11.5815C50.0334 11.5815 50.5084 11.8981 50.7459 12.6106C50.9834 13.244 51.0626 13.9565 51.0626 14.5898C51.0626 15.7773 50.8251 17.5981 50.3501 20.1315C50.8251 18.7856 51.3001 17.7565 51.6168 16.9648C51.9334 16.1731 52.3293 15.3815 52.8043 14.5106C53.2793 13.6398 53.7543 13.0065 54.2293 12.4523C54.7043 11.8981 55.2584 11.6606 55.7334 11.6606C56.4459 11.6606 56.8418 11.9773 57.0793 12.5315C57.1584 13.0856 57.3168 13.719 57.3168 14.2731Z" fill="#3E3A64"/>
<path fill-rule="evenodd" clip-rule="evenodd" d="M67.4501 22.6648C67.8459 21.319 68.0042 20.0523 68.0042 18.7065C68.0042 17.4398 67.8459 16.2523 67.4501 15.144C67.0542 14.0356 66.4209 13.1648 65.6292 12.5315C64.8376 11.8981 63.8876 11.5815 62.7792 11.5815C61.4334 11.5815 60.1667 12.0565 59.0584 13.0065C57.9501 13.9565 57.0001 15.3023 56.3667 16.8856C55.7334 18.5481 55.4167 20.2106 55.4167 22.0315C55.4167 23.4565 55.5751 24.7231 56.0501 25.8315C56.4459 26.8606 57.0792 27.7315 57.8709 28.3648C58.6626 28.9981 59.6126 29.3148 60.6417 29.3148C61.6709 29.3148 62.7001 28.9981 63.5709 28.444C64.5209 27.8898 65.3126 27.0981 65.9459 26.069C66.5792 25.0398 67.1334 23.9315 67.4501 22.6648ZM64.2833 14.3523C64.6791 15.0648 64.8375 16.0148 64.8375 17.2814C64.8375 18.0731 64.7583 19.0231 64.6 20.2106C64.4416 21.3981 64.125 22.5856 63.8083 23.6939C63.4916 24.8023 63.0166 25.7523 62.4625 26.4648C61.9083 27.1773 61.275 27.5731 60.5625 27.5731C59.9291 27.5731 59.375 27.1773 59.0583 26.4648C58.6625 25.6731 58.5041 24.8023 58.5041 23.6148C58.5041 22.8231 58.5833 21.7939 58.7416 20.6856C58.9 19.5773 59.2166 18.3898 59.5333 17.2814C59.9291 16.0939 60.325 15.1439 60.8791 14.4314C61.4333 13.7189 62.0666 13.3231 62.7 13.3231C63.4125 13.3231 63.9666 13.6398 64.2833 14.3523Z" fill="#3E3A64"/>
<path d="M94.9208 21.0814C93.5749 24.8023 90.0124 28.9189 88.0333 28.9189C87.3208 28.9189 86.8458 28.6023 86.4499 28.0481C86.0541 27.4939 85.8958 26.8606 85.8958 26.1481C85.8958 25.5939 85.975 24.8814 86.2125 23.9314L87.2416 18.8648C87.4791 17.6773 87.6374 16.9648 87.6374 16.5689C87.6374 16.0939 87.5583 15.6981 87.3208 15.4606C87.1624 15.1439 86.8458 15.0648 86.5291 15.0648C85.8166 15.0648 84.9458 15.6981 84.1541 16.9648C83.2833 18.2314 82.4916 19.8148 81.7791 21.7939C81.0666 23.7731 80.5125 25.7523 80.1166 27.7314L79.9583 28.6814H76.7916L78.8499 18.5481C79.0083 17.6773 79.0875 17.0439 79.0875 16.6481C79.0875 16.1731 79.0083 15.8564 78.8499 15.5398C78.6916 15.2231 78.4541 15.0648 78.1375 15.0648C77.5041 15.0648 76.8708 15.4606 76.2375 16.2523C75.6041 17.0439 74.9708 18.0731 74.4166 19.3398C73.8625 20.6064 73.3083 22.0314 72.8333 23.5356C72.3583 25.0398 71.9625 26.5439 71.6458 28.0481L71.4875 28.6814H68.3208L70.6166 17.1231C70.8541 15.8564 71.0125 15.0648 71.0125 14.7481C71.0125 14.5106 70.9333 14.3523 70.8541 14.2731C70.775 14.1148 70.6958 14.1148 70.5375 14.1148C70.3791 14.1148 70.2208 14.1939 70.0625 14.3523C69.9041 14.5106 69.6666 14.8273 69.4291 15.3023C69.1916 15.7773 68.9541 16.4106 68.6375 17.2023H67.45C67.8458 15.7773 68.4 14.4314 69.1125 13.3231C69.825 12.2148 70.775 11.5814 71.8833 11.5814C72.2791 11.5814 72.5958 11.6606 72.9125 11.8981C73.2291 12.1356 73.5458 12.4523 73.7041 12.8481C73.9416 13.3231 74.0208 13.8773 74.0208 14.5106C74.0208 15.2231 73.8625 16.4106 73.5458 17.9148L73.15 19.8148C73.625 18.5481 74.1791 17.3606 74.7333 16.3314C75.2875 15.3023 75.9208 14.4314 76.475 13.6398C77.1083 12.9273 77.6625 12.3731 78.2166 11.9773C78.7708 11.6606 79.325 11.5023 79.8791 11.5023C80.5916 11.5023 81.225 11.8189 81.7 12.3731C82.175 12.9273 82.4124 13.7189 82.4124 14.6689C82.4124 15.3814 82.2541 16.4106 82.0166 17.8356L81.6208 19.5773C82.175 18.2314 82.7291 16.8856 83.4416 15.6981C84.1541 14.5106 84.8666 13.4814 85.7374 12.6898C86.6083 11.8981 87.5583 11.4231 88.5083 11.4231C89.0624 11.4231 89.5375 11.5814 89.9333 11.9773C90.3291 12.2939 90.5666 12.7689 90.725 13.2439C90.8833 13.7189 90.9625 14.1939 90.9625 14.6689C90.9625 15.0648 90.9624 15.4606 90.8833 15.6981C90.8041 16.0148 90.725 16.6481 90.5666 17.5189L89.2999 23.7731C89.1416 24.5648 89.0625 25.1189 89.0625 25.3564C89.0625 25.8314 89.2208 25.9898 89.4583 25.9898C89.6958 25.9898 90.0124 25.7523 90.4083 25.3564C90.8041 24.9606 91.1999 24.1689 91.5958 23.0606L94.9208 21.0814Z" fill="#3E3A64"/>
<path d="M160.233 57.5773C160.233 56.7064 160.629 56.1523 161.025 56.1523C161.5 56.1523 161.817 56.7064 161.817 57.5773C161.817 58.4481 161.5 59.0023 161.025 59.0023C160.55 59.0023 160.233 58.4481 160.233 57.5773Z" fill="#5E6062"/>
<path d="M3.00832 40.4773C2.05832 42.694 1.34582 46.0981 1.34582 50.6106C1.34582 55.044 2.13748 58.4481 3.00832 60.6648H2.05832C1.18748 58.7648 0.31665 55.4398 0.31665 50.6106C0.31665 45.7023 1.26665 42.3773 2.05832 40.5565H3.00832V40.4773Z" fill="#5E6062"/>
<path fill-rule="evenodd" clip-rule="evenodd" d="M156.908 58.7648C158.413 58.7648 159.6 56.3106 159.6 50.4523C159.6 45.3064 158.729 42.2189 157.067 42.2189C155.325 42.2189 154.296 45.0689 154.296 50.5314C154.296 55.7564 155.325 58.7648 156.908 58.7648ZM156.988 57.1023C155.958 57.1023 155.563 54.3314 155.563 50.4523C155.563 46.5731 155.958 43.8023 156.908 43.8023C157.938 43.8023 158.333 46.6523 158.333 50.4523C158.333 54.3314 157.938 57.1023 156.988 57.1023Z" fill="#5E6062"/>
<path fill-rule="evenodd" clip-rule="evenodd" d="M165.458 58.7648C166.962 58.7648 168.15 56.3106 168.15 50.4523C168.15 45.3064 167.279 42.2189 165.617 42.2189C163.875 42.2189 162.846 45.0689 162.846 50.5314C162.846 55.7564 163.875 58.7648 165.458 58.7648ZM165.537 57.1023C164.508 57.1023 164.112 54.3314 164.112 50.4523C164.112 46.5731 164.508 43.8023 165.458 43.8023C166.487 43.8023 166.883 46.6523 166.883 50.4523C166.883 54.3314 166.487 57.1023 165.537 57.1023Z" fill="#5E6062"/>
<path d="M173.85 42.3773V43.4856L170.446 58.5273H169.258L172.583 44.1189V44.0398H168.862V42.3773H173.85V42.3773Z" fill="#5E6062"/>
<path d="M179.392 44.0398H176.542L176.146 48.3148C176.304 48.2356 176.383 48.2356 176.542 48.2356C177.096 48.2356 177.967 48.6314 178.521 49.4231C179.075 50.2939 179.392 51.4814 179.392 53.0648C179.392 56.3106 178.125 58.6064 176.225 58.6064C175.592 58.6064 174.879 58.3689 174.483 57.8939L174.721 56.3898C175.038 56.7064 175.592 57.0231 176.146 57.0231C177.175 57.0231 178.125 55.7564 178.125 53.3023C178.125 50.7689 177.096 49.6606 175.75 49.6606C175.354 49.6606 175.117 49.6606 174.958 49.7398L175.592 42.2189H179.313V44.0398H179.392Z" fill="#5E6062"/>
<path fill-rule="evenodd" clip-rule="evenodd" d="M184.3 47.1273C184.3 50.5314 183.35 52.0356 182.321 52.0356C181.212 52.0356 180.342 50.1356 180.342 47.1273C180.342 43.9606 181.212 42.1398 182.321 42.1398C183.508 42.2189 184.3 44.1189 184.3 47.1273ZM181.292 47.1273C181.292 48.7898 181.529 50.8481 182.321 50.8481C183.113 50.8481 183.35 48.7898 183.35 47.1273C183.35 45.5439 183.192 43.4064 182.321 43.4064C181.529 43.4064 181.292 45.4648 181.292 47.1273ZM187.387 42.2189L181.925 58.7648H182.717L188.179 42.2189H187.387ZM189.683 53.7773C189.683 57.1814 188.733 58.6856 187.704 58.6856C186.516 58.6856 185.725 56.8648 185.725 53.7773C185.725 50.6898 186.596 48.8689 187.704 48.8689C188.971 48.9481 189.683 50.8481 189.683 53.7773ZM187.783 57.4981C186.992 57.4981 186.754 55.4398 186.754 53.7773C186.754 52.1939 186.912 50.1356 187.783 50.0564C188.654 50.0564 188.812 52.1939 188.812 53.7773C188.812 55.4398 188.575 57.4981 187.783 57.4981Z" fill="#5E6062"/>
<path d="M9.73737 48.7897C9.73737 47.7606 9.6582 46.5731 9.6582 45.7022H10.7665L10.8457 47.6022C11.0832 46.4939 11.7957 45.5439 12.5082 45.5439C12.5874 45.5439 12.6665 45.5439 12.7457 45.5439V47.5231C12.6665 47.5231 12.5874 47.5231 12.5082 47.5231C11.7165 47.5231 11.1624 48.6314 11.004 50.0564C11.004 50.3731 10.9249 50.7689 10.9249 51.1647V57.8147H9.6582V48.7897H9.73737Z" fill="#5E6062"/>
<path fill-rule="evenodd" clip-rule="evenodd" d="M15.2792 57.8939C16.4667 57.8939 17.8917 56.3106 17.8917 51.6398C17.8917 47.4439 16.7833 45.4648 15.3583 45.4648C14.0125 45.4648 12.7458 47.2856 12.7458 51.7189C12.7458 55.9148 13.8542 57.8939 15.2792 57.8939ZM15.3584 56.3106C14.2501 56.3106 14.0126 53.6189 14.0126 51.6398C14.0126 49.8189 14.2501 46.9689 15.3584 46.9689C16.3876 46.9689 16.6251 49.8189 16.6251 51.6398C16.6251 53.4606 16.3876 56.3106 15.3584 56.3106Z" fill="#5E6062"/>
<path d="M18.9207 48.7897C18.9207 47.3647 18.8416 46.6522 18.8416 45.7022H19.9499L20.0291 47.2064C20.3457 46.2564 20.9791 45.5439 21.7707 45.5439C22.4832 45.5439 23.1166 46.0981 23.3541 47.3647C23.5916 46.7314 23.8291 46.2564 24.1457 46.0189C24.4624 45.7022 24.8582 45.5439 25.2541 45.5439C26.2832 45.5439 27.1541 46.7314 27.1541 49.8189V57.6564H25.9666V50.1356C25.9666 48.5522 25.8082 47.0481 24.8582 47.0481C24.3832 47.0481 23.9082 47.6814 23.7499 48.8689C23.7499 49.1856 23.6707 49.5814 23.6707 49.9772V57.7356H22.4832V49.8189C22.4832 48.4731 22.3249 47.0481 21.3749 47.0481C20.8999 47.0481 20.3457 47.6814 20.1874 48.9481C20.1874 49.2647 20.1082 49.5814 20.1082 49.9772V57.5772H18.9207V48.7897Z" fill="#5E6062"/>
<path d="M28.7376 57.6564V47.1272H27.7876V45.6231H28.7376V44.9106C28.7376 43.6439 28.8959 42.2981 29.4501 41.2689C29.9251 40.4772 30.5584 40.2397 31.0334 40.2397C31.4293 40.2397 31.7459 40.3981 31.9834 40.5564L31.7459 42.0606C31.5876 41.9814 31.4293 41.9022 31.0334 41.9022C30.1626 41.9022 29.9251 43.4064 29.9251 44.9106V45.6231H31.3501V47.1272H29.9251V57.6564H28.7376Z" fill="#5E6062"/>
<path fill-rule="evenodd" clip-rule="evenodd" d="M32.6169 51.9564C32.6306 55.5315 33.5731 56.3897 34.4376 56.3897C34.9918 56.3897 35.3876 56.1522 35.7043 55.9147L35.8626 57.3397C35.4668 57.7356 34.7543 57.8939 34.2001 57.8939C32.3001 57.8939 31.3501 55.5189 31.3501 51.8772C31.3501 47.9981 32.3793 45.5439 33.9626 45.5439C35.5459 45.5439 36.1793 48.1564 36.1793 50.8481V51.9564H32.6169ZM33.8042 46.9689C34.4375 46.9689 34.9917 48.0773 34.9917 50.4523H32.5375C32.6167 48.7898 33.0125 46.9689 33.8042 46.9689Z" fill="#5E6062"/>
<path d="M37.129 48.7898C37.129 47.3648 37.0498 46.6523 37.0498 45.7023H38.1581L38.2373 47.1273C38.554 46.1773 39.1873 45.4648 40.0581 45.4648C41.1665 45.4648 41.9581 46.7314 41.9581 49.5814V57.6564H40.6915V49.8981C40.6915 48.4731 40.5331 47.0481 39.5831 47.0481C39.1081 47.0481 38.554 47.6814 38.3956 49.0273C38.3956 49.3439 38.3165 49.6606 38.3165 50.0564V57.6564H37.0498V48.7898H37.129Z" fill="#5E6062"/>
<path fill-rule="evenodd" clip-rule="evenodd" d="M46.3124 56.3898L46.3915 57.6564V57.7356H47.579C47.4999 56.9439 47.4999 55.9148 47.4999 54.9648V49.7398C47.4999 47.0481 46.8665 45.4648 45.2832 45.4648C44.4915 45.4648 43.779 45.8606 43.4624 46.2564L43.6999 47.6023C44.0165 47.2064 44.4915 46.9689 44.9665 46.9689C45.9957 46.9689 46.2332 48.1564 46.2332 49.7398V50.1356C44.4915 50.1356 42.9082 51.4814 42.9082 54.4898C42.9082 56.5481 43.6999 57.8939 44.729 57.8939C45.3624 57.8939 45.9165 57.3398 46.2332 56.3898H46.3124ZM44.0165 54.2522C44.0165 51.6397 45.5206 51.4814 46.154 51.4814V53.9356V54.5689C45.9956 55.7564 45.5206 56.3897 44.9665 56.3897C44.4915 56.3897 44.0165 55.8356 44.0165 54.2522Z" fill="#5E6062"/>
<path d="M52.5666 57.4189C52.3291 57.6564 51.8541 57.8939 51.3 57.8939C49.5583 57.8939 48.45 55.7564 48.45 51.7981C48.45 48.3147 49.5583 45.5439 51.5375 45.5439C51.9333 45.5439 52.4083 45.7022 52.6458 45.9397L52.4083 47.5231C52.25 47.3647 51.9333 47.2064 51.5375 47.2064C50.2708 47.2064 49.7166 49.5022 49.7166 51.8772C49.7166 54.6481 50.4291 56.3897 51.5375 56.3897C51.8541 56.3897 52.1708 56.2314 52.4083 56.0731L52.5666 57.4189Z" fill="#5E6062"/>
<path fill-rule="evenodd" clip-rule="evenodd" d="M62.1733 46.8209C62.1962 47.4873 62.2249 48.3258 62.2249 49.4231V62.4065H63.4916V56.4689C63.7291 57.1814 64.1249 57.8939 64.8374 57.8939C66.0249 57.8939 67.2124 56.0731 67.2124 51.6398C67.2124 47.6814 66.3416 45.4648 64.9958 45.4648C64.3624 45.4648 63.7291 45.9398 63.3333 47.2064L63.2541 45.7023H62.1458C62.1458 46.0169 62.1583 46.3814 62.1733 46.8209ZM63.5709 54.3314C63.4918 54.0147 63.4918 53.6981 63.4918 53.3022H63.5709V50.3731V49.4231C63.6501 48.3147 64.1251 47.2064 64.6793 47.2064C65.6293 47.2064 66.0251 49.3439 66.0251 51.7981C66.0251 54.1731 65.7084 56.3897 64.6793 56.3897C64.3626 56.3897 63.8084 56.0731 63.5709 54.3314Z" fill="#5E6062"/>
<path fill-rule="evenodd" clip-rule="evenodd" d="M5.14564 40.8731H3.87897V53.8564C3.87897 54.9329 3.8513 55.7326 3.82868 56.3865C3.81304 56.8388 3.7998 57.2213 3.7998 57.5773H4.90814L4.9873 56.0731C5.4623 57.3398 6.01647 57.8148 6.6498 57.8148C7.99564 57.8148 8.86647 55.5981 8.86647 51.6398C8.86647 47.2064 7.67897 45.3856 6.49147 45.3856C5.77897 45.3856 5.38314 46.1773 5.14564 46.8106V40.8731ZM5.14579 54.094V53.144H5.06662V50.2148C5.06662 49.819 5.06662 49.4231 5.14579 49.1856C5.38329 47.444 5.93745 47.1273 6.25412 47.1273C7.28329 47.1273 7.59995 49.2648 7.59995 51.719C7.59995 54.2523 7.20412 56.3106 6.25412 56.3106C5.69995 56.3106 5.22495 55.2023 5.14579 54.094Z" fill="#5E6062"/>
<path d="M68.3206 40.4773H69.5873V46.969C69.7456 46.5731 69.9831 46.1773 70.2206 45.9398C70.5373 45.7023 70.7748 45.4648 71.2498 45.4648C72.1998 45.4648 73.0706 46.6523 73.0706 49.7398V57.6565H71.804V49.8981C71.804 48.394 71.5665 47.0481 70.7748 47.0481C70.2206 47.0481 69.7456 47.6815 69.5873 48.9481C69.5873 49.1856 69.5081 49.5815 69.5081 49.8981V57.6565H68.2415V40.4773H68.3206Z" fill="#5E6062"/>
<path d="M75.8417 42.4565V45.6231H77.3458V47.1273H75.8417V54.2523C75.8417 55.8356 76.2375 56.2315 76.6333 56.2315C76.7917 56.2315 76.95 56.2315 77.1083 56.1523L77.1875 57.6565C76.95 57.8148 76.7125 57.894 76.2375 57.894C75.7625 57.894 75.2875 57.6565 75.05 57.1815C74.7333 56.6273 74.575 55.8356 74.575 54.1731V47.2065H73.625V45.7023H74.575V43.0898L75.8417 42.4565Z" fill="#5E6062"/>
<path d="M78.0584 40.4773H79.3251V46.969C79.4834 46.5731 79.7209 46.1773 79.9584 45.9398C80.2751 45.7023 80.5126 45.4648 80.9876 45.4648C81.9376 45.4648 82.8084 46.6523 82.8084 49.7398V57.6565H81.5417V49.8981C81.5417 48.394 81.3042 47.0481 80.5126 47.0481C79.9584 47.0481 79.4834 47.6815 79.3251 48.9481C79.3251 49.1856 79.2459 49.5815 79.2459 49.8981V57.6565H77.9792V40.4773H78.0584Z" fill="#5E6062"/>
<path fill-rule="evenodd" clip-rule="evenodd" d="M87.1625 56.3898L87.2416 57.6564V57.7356H88.4291C88.35 56.9439 88.35 55.9148 88.35 54.9648V49.7398C88.35 47.0481 87.7166 45.4648 86.1333 45.4648C85.3416 45.4648 84.6291 45.8606 84.3125 46.2564L84.55 47.6023C84.8666 47.2064 85.3416 46.9689 85.8166 46.9689C86.8458 46.9689 87.0833 48.1564 87.0833 49.7398V50.1356C85.3416 50.1356 83.7583 51.4814 83.7583 54.4898C83.7583 56.5481 84.55 57.8939 85.5791 57.8939C86.2125 57.8939 86.7666 57.3398 87.0833 56.3898H87.1625ZM84.9457 54.2522C84.9457 51.6397 86.4499 51.4814 87.0832 51.4814V53.9356V54.5689C86.9249 55.7564 86.4499 56.3897 85.8957 56.3897C85.4207 56.3897 84.9457 55.8356 84.9457 54.2522Z" fill="#5E6062"/>
<path d="M89.6958 40.4773H90.9625V57.6565H89.6958V40.4773Z" fill="#5E6062"/>
<path d="M92.3875 48.7897C92.3875 47.3647 92.3083 46.6522 92.3083 45.7022H93.4167L93.4958 47.2064C93.8125 46.2564 94.4458 45.5439 95.2375 45.5439C95.95 45.5439 96.5833 46.0981 96.8208 47.3647C97.0583 46.7314 97.2958 46.2564 97.6125 46.0189C97.9292 45.7022 98.325 45.5439 98.7208 45.5439C99.75 45.5439 100.621 46.7314 100.621 49.8189V57.6564H99.4333V50.1356C99.4333 48.5522 99.275 47.0481 98.325 47.0481C97.85 47.0481 97.375 47.6814 97.2167 48.8689C97.2167 49.1856 97.1375 49.5814 97.1375 49.9772V57.7356H95.95V49.8189C95.95 48.4731 95.7917 47.0481 94.8417 47.0481C94.3667 47.0481 93.8125 47.6814 93.6542 48.9481C93.6542 49.2647 93.575 49.5814 93.575 49.9772V57.5772H92.3875V48.7897Z" fill="#5E6062"/>
<path fill-rule="evenodd" clip-rule="evenodd" d="M102.521 43.8023C102.996 43.8023 103.313 43.2481 103.313 42.5356C103.313 41.8231 102.996 41.3481 102.521 41.269C102.125 41.269 101.808 41.8231 101.808 42.5356C101.808 43.3273 102.125 43.8023 102.521 43.8023ZM101.967 45.6231V57.6565H103.233V45.6231H101.967Z" fill="#5E6062"/>
<path d="M108.3 57.4189C108.063 57.6564 107.588 57.8939 107.033 57.8939C105.292 57.8939 104.183 55.7564 104.183 51.7981C104.183 48.3147 105.292 45.5439 107.271 45.5439C107.667 45.5439 108.142 45.7022 108.379 45.9397L108.142 47.5231C107.983 47.3647 107.667 47.2064 107.271 47.2064C106.004 47.2064 105.45 49.5022 105.45 51.8772C105.45 54.6481 106.163 56.3897 107.271 56.3897C107.588 56.3897 107.904 56.2314 108.142 56.0731L108.3 57.4189Z" fill="#5E6062"/>
<path d="M110.992 56.1523C111.387 56.3898 112.021 56.6273 112.575 56.6273C113.683 56.6273 114.396 55.8356 114.396 54.5689C114.396 53.4606 113.842 52.7481 112.971 52.0356C112.1 51.4023 110.912 50.2148 110.912 48.6314C110.912 46.8106 112.021 45.4648 113.762 45.4648C114.396 45.4648 115.029 45.7023 115.267 45.9398L114.95 47.1273C114.712 46.8898 114.237 46.7314 113.683 46.7314C112.654 46.7314 112.1 47.6023 112.1 48.4731C112.1 49.6606 112.654 50.1356 113.683 51.0064C114.95 52.0356 115.583 53.1439 115.583 54.4898C115.583 56.5481 114.237 57.8939 112.575 57.8939C111.862 57.8939 111.071 57.6564 110.754 57.3398L110.992 56.1523Z" fill="#5E6062"/>
<path fill-rule="evenodd" clip-rule="evenodd" d="M118.829 57.8939C120.017 57.8939 121.442 56.3106 121.442 51.6398C121.442 47.4439 120.333 45.4648 118.908 45.4648C117.563 45.4648 116.296 47.2856 116.296 51.7189C116.296 55.9148 117.404 57.8939 118.829 57.8939ZM118.908 56.3106C117.8 56.3106 117.563 53.6189 117.563 51.6398C117.563 49.8189 117.8 46.9689 118.908 46.9689C119.938 46.9689 120.175 49.8189 120.175 51.6398C120.175 53.4606 119.938 56.3106 118.908 56.3106Z" fill="#5E6062"/>
<path fill-rule="evenodd" clip-rule="evenodd" d="M58.8209 57.8939C60.0084 57.8939 61.4334 56.3106 61.4334 51.6398C61.4334 47.4439 60.3251 45.4648 58.9001 45.4648C57.5543 45.4648 56.2876 47.2856 56.2876 51.7189C56.2876 55.9148 57.3959 57.8939 58.8209 57.8939ZM58.9001 56.3106C57.7918 56.3106 57.5543 53.6189 57.5543 51.6398C57.5543 49.8189 57.7918 46.9689 58.9001 46.9689C59.9293 46.9689 60.1668 49.8189 60.1668 51.6398C60.1668 53.4606 59.9293 56.3106 58.9001 56.3106Z" fill="#5E6062"/>
<path d="M122.471 40.4773H123.737V57.6565H122.471V40.4773Z" fill="#5E6062"/>
<path d="M129.833 54.4106C129.833 55.7564 129.913 56.7856 129.913 57.6564H128.804L128.725 56.3898C128.488 57.0231 127.854 57.8939 127.063 57.8939C125.717 57.8939 125.163 56.2314 125.163 53.3023V45.7023H126.429V53.0648C126.429 54.9648 126.588 56.3106 127.458 56.3106C128.171 56.3106 128.488 55.2814 128.567 54.7273C128.646 54.4106 128.646 54.0148 128.646 53.6189V45.7023H129.913V54.4106H129.833Z" fill="#5E6062"/>
<path d="M132.683 42.4565V45.6231H134.187V47.1273H132.683V54.2523C132.683 55.8356 133.079 56.2315 133.475 56.2315C133.633 56.2315 133.792 56.2315 133.95 56.1523L134.029 57.6565C133.792 57.8148 133.554 57.894 133.079 57.894C132.604 57.894 132.129 57.6565 131.892 57.1815C131.575 56.6273 131.417 55.8356 131.417 54.1731V47.2065H130.467V45.7023H131.417V43.0898L132.683 42.4565Z" fill="#5E6062"/>
<path fill-rule="evenodd" clip-rule="evenodd" d="M135.454 43.8023C135.929 43.8023 136.246 43.2481 136.246 42.5356C136.246 41.8231 135.929 41.3481 135.454 41.269C135.058 41.269 134.741 41.8231 134.741 42.5356C134.741 43.3273 135.058 43.8023 135.454 43.8023ZM134.9 45.6231V57.6565H136.167V45.6231H134.9Z" fill="#5E6062"/>
<path fill-rule="evenodd" clip-rule="evenodd" d="M139.65 57.8939C140.837 57.8939 142.262 56.3106 142.262 51.6398C142.262 47.4439 141.154 45.4648 139.729 45.4648C138.383 45.4648 137.116 47.2856 137.116 51.7189C137.116 55.9148 138.225 57.8939 139.65 57.8939ZM139.729 56.3106C138.621 56.3106 138.383 53.6189 138.383 51.6398C138.383 49.8189 138.621 46.9689 139.729 46.9689C140.758 46.9689 140.996 49.8189 140.996 51.6398C140.996 53.4606 140.758 56.3106 139.729 56.3106Z" fill="#5E6062"/>
<path d="M143.292 48.7898C143.292 47.3648 143.212 46.6523 143.212 45.7023H144.321L144.4 47.1273C144.717 46.1773 145.35 45.4648 146.221 45.4648C147.329 45.4648 148.121 46.7314 148.121 49.5814V57.6564H146.854V49.8981C146.854 48.4731 146.696 47.0481 145.746 47.0481C145.271 47.0481 144.717 47.6814 144.558 49.0273C144.558 49.3439 144.479 49.6606 144.479 50.0564V57.6564H143.292V48.7898Z" fill="#5E6062"/>
<path d="M148.675 60.6648C149.625 58.4481 150.337 55.044 150.337 50.5315C150.337 46.019 149.546 42.694 148.675 40.4773H149.625C150.496 42.2981 151.366 45.6231 151.366 50.5315C151.366 55.4398 150.416 58.7648 149.625 60.6648H148.675Z" fill="#5E6062"/>
<path d="M153.346 11.2647C153.267 11.1064 153.267 10.9481 153.187 10.8689C153.108 10.7897 153.029 10.7897 152.792 10.7897H152.554V12.6897C152.554 13.0064 152.554 13.0064 152.95 13.0856V13.2439H151.762V13.0856C152.079 13.0856 152.158 13.0064 152.158 12.6897V10.7897H152C151.683 10.7897 151.604 10.7897 151.525 10.8689C151.446 10.9481 151.446 11.0272 151.367 11.2647H151.208C151.208 11.0272 151.208 10.7106 151.287 10.5522H151.367L151.604 10.6314H153.187L153.425 10.5522H153.504C153.504 10.7106 153.504 11.0272 153.504 11.2647" fill="#C84A37"/>
<path d="M155.8 13.1647V13.0064C156.117 13.0064 156.117 12.9272 156.117 12.6106V11.1064L155.246 13.1647H155.167L154.375 11.1064L154.296 12.1356C154.296 12.4522 154.296 12.6106 154.296 12.7689C154.296 12.9272 154.375 13.0064 154.613 13.0064V13.1647H153.663V13.0064C153.9 13.0064 153.979 12.9272 153.979 12.7689C153.979 12.6106 154.058 12.4522 154.058 12.0564L154.138 11.2647C154.138 10.7897 154.138 10.7897 153.821 10.7106V10.5522H154.533L155.325 12.3731L156.117 10.5522H156.829V10.7106C156.513 10.7106 156.513 10.7897 156.513 11.1064V12.5314C156.513 12.9272 156.513 12.9272 156.829 12.9272V13.0856" fill="#C84A37"/>
</svg>
