<svg width="173" height="69" viewBox="0 0 173 69" fill="none" xmlns="http://www.w3.org/2000/svg">
<path d="M1.63212 68.1664C0.81608 64.6302 0.380859 60.6044 0.380859 56.7963C0.380859 52.9881 0.81608 49.0167 1.63212 45.4805H2.28495C1.68652 48.7991 1.41451 52.8793 1.41451 56.8507C1.41451 60.7676 1.63212 64.9022 2.28495 68.2208H1.63212V68.1664Z" fill="#58595B"/>
<path d="M6.63691 59.7883V62.6717C6.63691 63.5421 6.20169 64.2494 5.00484 64.2494C3.75358 64.2494 3.31836 63.5965 3.31836 62.6717V52.6072C3.31836 51.628 3.75358 51.0295 5.00484 51.0295C6.20169 51.0295 6.63691 51.628 6.63691 52.6072V55.2185H5.71207V52.716C5.71207 52.172 5.60327 51.8456 5.00484 51.8456C4.40641 51.8456 4.2432 52.2264 4.2432 52.716V62.7261C4.2432 63.1069 4.40641 63.4877 5.00484 63.4877C5.60327 63.4877 5.71207 63.1069 5.71207 62.7805V59.7883H6.63691V59.7883Z" fill="#58595B"/>
<path d="M9.08532 68.928H8.32369L8.86771 64.2494L7.29004 51.1928H8.21488L9.30293 62.3997H9.35733L10.391 51.1928H11.3158L9.08532 68.928Z" fill="#58595B"/>
<path d="M15.2871 59.7883V62.6717C15.2871 63.5421 14.8518 64.2494 13.655 64.2494C12.4037 64.2494 11.9685 63.5965 11.9685 62.6717V52.6072C11.9685 51.628 12.4037 51.0295 13.655 51.0295C14.8518 51.0295 15.2871 51.628 15.2871 52.6072V55.2185H14.3622V52.716C14.3622 52.172 14.2534 51.8456 13.655 51.8456C13.0566 51.8456 12.8933 52.2264 12.8933 52.716V62.7261C12.8933 63.1069 13.0566 63.4877 13.655 63.4877C14.2534 63.4877 14.3622 63.1069 14.3622 62.7805V59.7883H15.2871V59.7883Z" fill="#58595B"/>
<path d="M16.5383 45.4805H17.4632V64.1406H16.5383V45.4805Z" fill="#58595B"/>
<path fill-rule="evenodd" clip-rule="evenodd" d="M20.8361 51.084C19.748 51.084 19.0408 51.628 19.0408 52.7705V62.5629C19.0408 63.5966 19.748 64.2494 20.8361 64.2494C21.9241 64.2494 22.6313 63.5966 22.6313 62.5629V52.7705C22.6313 51.628 21.9241 51.084 20.8361 51.084ZM20.8361 63.4878C20.2377 63.4878 19.9657 63.0526 19.9657 62.5629V52.7705C19.9657 52.2265 20.2377 51.8456 20.8361 51.8456C21.4889 51.8456 21.7065 52.2265 21.7065 52.7705V62.5629C21.7065 63.0526 21.4889 63.4878 20.8361 63.4878Z" fill="#58595B"/>
<path d="M24.8621 59.8428V62.7261C24.8621 63.2701 25.1885 63.4878 25.6237 63.4878C26.059 63.4878 26.3854 63.2157 26.3854 62.7261V60.4956C26.3854 59.7884 26.3854 59.2988 26.059 58.8635L24.5357 56.361L24.2637 55.8714C23.9917 55.3818 23.9373 55.001 23.9373 54.4025V52.5529C23.9373 51.7368 24.4813 51.084 25.6237 51.084C26.7662 51.084 27.2558 51.628 27.2558 52.6073V54.8378H26.331V52.7705C26.331 52.2264 26.1678 51.9 25.6237 51.9C25.0797 51.9 24.8621 52.2808 24.8621 52.7705V54.5113C24.8621 54.9466 24.9165 55.3818 25.2429 55.817L25.7325 56.5786L26.9294 58.4827C27.2558 59.0268 27.3646 59.5164 27.3646 60.1692V62.7805C27.3646 63.7054 26.7662 64.3038 25.6237 64.3038C24.6445 64.3038 23.9917 63.8142 23.9917 62.9437V59.8428H24.8621Z" fill="#58595B"/>
<path fill-rule="evenodd" clip-rule="evenodd" d="M29.5406 51.1928H28.6157V68.8736H29.5406V63.651H29.595C29.7582 63.9774 30.139 64.2494 30.7374 64.2494C31.6079 64.2494 32.1519 63.651 32.1519 62.6173V52.6073C32.1519 51.5736 31.7167 51.084 30.7918 51.084C30.2478 51.084 29.8126 51.356 29.595 51.7368H29.5406V51.1928ZM30.5198 63.4878C30.0845 63.4878 29.5405 63.1614 29.5405 62.5629H29.5949V53.0425C29.5949 52.4985 29.9213 51.8456 30.4654 51.8456C31.0638 51.8456 31.2814 52.172 31.2814 52.7161V62.5629C31.2814 63.1614 31.0094 63.4878 30.5198 63.4878Z" fill="#58595B"/>
<path fill-rule="evenodd" clip-rule="evenodd" d="M35.6881 51.084C34.6001 51.084 33.8928 51.628 33.8928 52.7705V62.5629C33.8928 63.5966 34.6001 64.2494 35.6881 64.2494C36.7762 64.2494 37.4834 63.5966 37.4834 62.5629V52.7705C37.4834 51.628 36.7762 51.084 35.6881 51.084ZM35.6881 63.4878C35.0897 63.4878 34.8177 63.0526 34.8177 62.5629V52.7705C34.8177 52.2265 35.0897 51.8456 35.6881 51.8456C36.341 51.8456 36.5586 52.2265 36.5586 52.7705V62.5629C36.5586 63.0526 36.341 63.4878 35.6881 63.4878Z" fill="#58595B"/>
<path d="M39.1697 51.1928H40.0945V51.9H40.1489C40.3121 51.5736 40.7474 51.084 41.4546 51.084V51.8456C40.6385 51.8456 40.0945 52.3352 40.0945 53.2601V64.1406H39.1697V51.1928Z" fill="#58595B"/>
<path fill-rule="evenodd" clip-rule="evenodd" d="M43.4676 47.983H42.3252V49.3431H43.4676V47.983ZM43.3587 51.1928H42.4339V64.1406H43.3587V51.1928Z" fill="#58595B"/>
<path fill-rule="evenodd" clip-rule="evenodd" d="M98.0333 47.983H96.8909V49.3431H98.0333V47.983ZM97.9244 51.1928H96.9995V64.1406H97.9244V51.1928Z" fill="#58595B"/>
<path d="M44.9907 51.1928H45.9156V51.9H45.97C46.1332 51.5736 46.5684 51.084 47.1668 51.084C48.0373 51.084 48.5269 51.4648 48.5269 52.6073V64.1406H47.602V52.9337C47.602 52.1176 47.3844 51.8456 46.8404 51.8456C46.4052 51.8456 45.9156 52.3352 45.9156 53.2601V64.1406H44.9907V51.1928H44.9907Z" fill="#58595B"/>
<path fill-rule="evenodd" clip-rule="evenodd" d="M53.5321 62.7261V59.8428H52.6072V62.6173C52.6072 63.1069 52.444 63.4878 51.7912 63.4878C51.1383 63.4878 50.9751 63.1613 50.9751 62.6173V57.8843H53.5321V52.6617C53.5321 51.6824 52.988 51.084 51.7912 51.084C50.5943 51.084 50.0503 51.6824 50.0503 52.6617V62.7261C50.0503 63.651 50.6487 64.3038 51.7912 64.3038C52.988 64.3038 53.5321 63.5966 53.5321 62.7261ZM51.7912 51.8456C52.3896 51.8456 52.6072 52.172 52.6072 52.7161V57.0683H50.9751V52.7161C50.9751 52.2265 51.2471 51.8456 51.7912 51.8456Z" fill="#58595B"/>
<path fill-rule="evenodd" clip-rule="evenodd" d="M59.734 51.084C58.646 51.084 57.9387 51.628 57.9387 52.7705V62.5629C57.9387 63.5966 58.646 64.2494 59.734 64.2494C60.8221 64.2494 61.5293 63.5966 61.5293 62.5629V52.7705C61.5293 51.628 60.8221 51.084 59.734 51.084ZM59.734 63.4878C59.1356 63.4878 58.8636 63.0526 58.8636 62.5629V52.7705C58.8636 52.2265 59.1356 51.8456 59.734 51.8456C60.3869 51.8456 60.6045 52.2265 60.6045 52.7705V62.5629C60.6045 63.0526 60.3869 63.4878 59.734 63.4878Z" fill="#58595B"/>
<path fill-rule="evenodd" clip-rule="evenodd" d="M64.0862 51.1928H63.1614V68.8736H64.0862V63.651H64.1406C64.3038 63.9774 64.6846 64.2494 65.2831 64.2494C66.1535 64.2494 66.6975 63.651 66.6975 62.6173V52.6073C66.6975 51.5736 66.2623 51.084 65.3375 51.084C64.7935 51.084 64.3582 51.356 64.1406 51.7368H64.0862V51.1928ZM65.1198 63.4878C64.6845 63.4878 64.1405 63.1614 64.1405 62.5629H64.1949V53.0425C64.1949 52.4985 64.5213 51.8456 65.0654 51.8456C65.6638 51.8456 65.8814 52.172 65.8814 52.7161V62.5629C65.8814 63.1614 65.6094 63.4878 65.1198 63.4878Z" fill="#58595B"/>
<path d="M68.4382 45.4805H69.3631V51.8456H69.4175C69.5807 51.5192 70.0159 51.0296 70.6143 51.0296C71.4848 51.0296 71.9744 51.4104 71.9744 52.5529V64.0862H71.0496V52.8793C71.0496 52.0632 70.8319 51.7912 70.2879 51.7912C69.8527 51.7912 69.3631 52.2808 69.3631 53.2057V64.0862H68.4382V45.4805Z" fill="#58595B"/>
<path d="M73.0625 51.1928H73.8785V48.9079L74.8034 48.3638V51.1928H75.9458V51.9544H74.8034V62.7805C74.8034 63.2701 75.021 63.4877 75.3474 63.4877H75.9458V64.2494H75.1842C74.3682 64.2494 73.8785 63.923 73.8785 62.9981V51.9544H73.0625V51.1928H73.0625Z" fill="#58595B"/>
<path d="M77.0881 45.4805H78.013V51.8456H78.0674C78.2306 51.5192 78.6658 51.0296 79.2642 51.0296C80.1347 51.0296 80.6243 51.4104 80.6243 52.5529V64.0862H79.6995V52.8793C79.6995 52.0632 79.4818 51.7912 78.9378 51.7912C78.5026 51.7912 78.013 52.2808 78.013 53.2057V64.0862H77.0881V45.4805Z" fill="#58595B"/>
<path fill-rule="evenodd" clip-rule="evenodd" d="M82.1477 52.3896V54.8922H83.0725V52.6073C83.0725 52.172 83.2902 51.8456 83.943 51.8456C84.5414 51.8456 84.7046 52.172 84.7046 52.6073V56.361H84.2694C82.6373 56.361 82.1477 57.0139 82.1477 58.1563V63.1069C82.1477 63.9774 82.7461 64.2494 83.4534 64.2494C84.1606 64.2494 84.487 63.8686 84.6502 63.4878H84.7046V64.1406H85.6295V52.3896C85.6295 51.4104 84.9766 51.084 83.943 51.084C82.8549 51.084 82.1477 51.356 82.1477 52.3896ZM83.7798 63.4877C83.2358 63.4877 83.0726 63.2701 83.0726 62.8893V58.3195C83.0726 57.3402 83.5622 57.1226 84.4326 57.1226H84.7047V62.0733C84.7047 62.8893 84.3238 63.4877 83.7798 63.4877Z" fill="#58595B"/>
<path d="M87.0442 45.4805H87.969V64.1406H87.0442V45.4805Z" fill="#58595B"/>
<path d="M89.4377 51.1928H90.3626V51.9H90.417C90.5802 51.5736 91.0154 51.084 91.6138 51.084C92.4843 51.084 92.7563 51.5192 92.8107 51.9544H92.8651C93.0283 51.5736 93.5179 51.084 94.2252 51.084C95.0956 51.084 95.5852 51.4648 95.5852 52.6073V64.1406H94.6604V52.9337C94.6604 52.1176 94.4428 51.8456 93.8988 51.8456C93.4635 51.8456 92.9739 52.3352 92.9739 53.2601V64.1406H92.0491V52.7705C92.0491 52.0632 91.8315 51.7912 91.2874 51.7912C90.8522 51.7912 90.3626 52.2808 90.3626 53.3689V64.1406H89.4377V51.1928Z" fill="#58595B"/>
<path d="M102.603 59.7883V62.6717C102.603 63.5421 102.168 64.2494 100.971 64.2494C99.7199 64.2494 99.2847 63.5965 99.2847 62.6717V52.6072C99.2847 51.628 99.7199 51.0295 100.971 51.0295C102.168 51.0295 102.603 51.628 102.603 52.6072V55.2185H101.678V52.716C101.678 52.172 101.57 51.8456 100.971 51.8456C100.373 51.8456 100.21 52.2264 100.21 52.716V62.7261C100.21 63.1069 100.373 63.4877 100.971 63.4877C101.57 63.4877 101.678 63.1069 101.678 62.7805V59.7883H102.603V59.7883Z" fill="#58595B"/>
<path d="M107.39 59.8428V62.7261C107.39 63.2701 107.717 63.4878 108.152 63.4878C108.587 63.4878 108.914 63.2157 108.914 62.7261V60.4956C108.914 59.7884 108.914 59.2988 108.587 58.8635L107.064 56.361L106.792 55.8714C106.52 55.3818 106.466 55.001 106.466 54.4025V52.5529C106.466 51.7368 107.01 51.084 108.152 51.084C109.295 51.084 109.784 51.628 109.784 52.6073V54.8378H108.859V52.7705C108.859 52.2264 108.696 51.9 108.152 51.9C107.608 51.9 107.39 52.2808 107.39 52.7705V54.5113C107.39 54.9466 107.445 55.3818 107.771 55.817L108.261 56.5786L109.458 58.4827C109.784 59.0268 109.893 59.5164 109.893 60.1692V62.7805C109.893 63.7054 109.295 64.3038 108.152 64.3038C107.173 64.3038 106.52 63.8142 106.52 62.9437V59.8428H107.39Z" fill="#58595B"/>
<path fill-rule="evenodd" clip-rule="evenodd" d="M112.94 51.084C111.852 51.084 111.144 51.628 111.144 52.7705V62.5629C111.144 63.5966 111.852 64.2494 112.94 64.2494C114.028 64.2494 114.735 63.5966 114.735 62.5629V52.7705C114.735 51.628 114.028 51.084 112.94 51.084ZM112.994 63.4878C112.396 63.4878 112.124 63.0526 112.124 62.5629V52.7705C112.124 52.2265 112.396 51.8456 112.994 51.8456C113.647 51.8456 113.864 52.2265 113.864 52.7705V62.5629C113.864 63.0526 113.647 63.4878 112.994 63.4878Z" fill="#58595B"/>
<path d="M116.312 45.4805H117.237V64.1406H116.312V45.4805Z" fill="#58595B"/>
<path d="M121.481 64.1406V63.4334H121.426C121.263 63.7598 120.828 64.2494 120.229 64.2494C119.359 64.2494 118.869 63.8686 118.869 62.7261V51.1928H119.794V62.3997C119.794 63.2158 120.012 63.4878 120.556 63.4878C120.991 63.4878 121.481 62.9982 121.481 62.0733V51.1928H122.406V64.1406H121.481V64.1406Z" fill="#58595B"/>
<path d="M123.494 51.1928H124.31V48.9079L125.235 48.3638V51.1928H126.377V51.9544H125.235V62.7805C125.235 63.2701 125.452 63.4877 125.779 63.4877H126.377V64.2494H125.615C124.799 64.2494 124.31 63.923 124.31 62.9981V51.9544H123.494V51.1928Z" fill="#58595B"/>
<path fill-rule="evenodd" clip-rule="evenodd" d="M128.444 47.983H127.302V49.3431H128.444V47.983ZM128.335 51.1928H127.411V64.1406H128.335V51.1928Z" fill="#58595B"/>
<path fill-rule="evenodd" clip-rule="evenodd" d="M131.708 51.084C130.62 51.084 129.913 51.628 129.913 52.7705V62.5629C129.913 63.5966 130.62 64.2494 131.708 64.2494C132.796 64.2494 133.504 63.5966 133.504 62.5629V52.7705C133.504 51.628 132.796 51.084 131.708 51.084ZM131.708 63.4878C131.11 63.4878 130.838 63.0526 130.838 62.5629V52.7705C130.838 52.2265 131.11 51.8456 131.708 51.8456C132.361 51.8456 132.579 52.2265 132.579 52.7705V62.5629C132.579 63.0526 132.361 63.4878 131.708 63.4878Z" fill="#58595B"/>
<path d="M135.19 51.1928H136.115V51.9H136.169C136.333 51.5736 136.768 51.084 137.366 51.084C138.237 51.084 138.726 51.4648 138.726 52.6073V64.1406H137.802V52.9337C137.802 52.1176 137.584 51.8456 137.04 51.8456C136.605 51.8456 136.115 52.3352 136.115 53.2601V64.1406H135.19V51.1928H135.19Z" fill="#58595B"/>
<path d="M140.794 45.4805C141.61 49.0167 142.045 53.0425 142.045 56.8507C142.045 60.6588 141.61 64.6846 140.794 68.2208H140.141C140.739 64.9022 141.011 60.822 141.011 56.8507C141.011 52.9337 140.794 48.7991 140.141 45.4805H140.794Z" fill="#58595B"/>
<path fill-rule="evenodd" clip-rule="evenodd" d="M148.791 45.3717C147.485 45.3717 146.778 46.0245 146.778 47.0582V62.4541C146.778 63.5965 147.485 64.2494 148.791 64.2494C150.096 64.2494 150.804 63.5965 150.804 62.4541V47.167C150.804 46.0245 150.096 45.3717 148.791 45.3717ZM148.791 63.4878C148.084 63.4878 147.703 63.0525 147.703 62.3453V47.3302C147.703 46.623 148.084 46.1878 148.791 46.1878C149.498 46.1878 149.879 46.623 149.879 47.3302V62.3453C149.879 63.0525 149.498 63.4878 148.791 63.4878Z" fill="#58595B"/>
<path d="M152.545 62.835H153.687V64.195H152.545V62.835Z" fill="#58595B"/>
<path fill-rule="evenodd" clip-rule="evenodd" d="M157.441 45.3717C156.135 45.3717 155.428 46.0245 155.428 47.0582V62.4541C155.428 63.5965 156.135 64.2494 157.441 64.2494C158.747 64.2494 159.454 63.5965 159.454 62.4541V47.167C159.454 46.0245 158.747 45.3717 157.441 45.3717ZM157.441 63.4878C156.734 63.4878 156.353 63.0525 156.353 62.3453V47.3302C156.353 46.623 156.734 46.1878 157.441 46.1878C158.148 46.1878 158.529 46.623 158.529 47.3302V62.3453C158.529 63.0525 158.148 63.4878 157.441 63.4878Z" fill="#58595B"/>
<path fill-rule="evenodd" clip-rule="evenodd" d="M163.262 63.4877C162.609 63.4877 162.228 63.0525 162.228 62.3453H162.283V59.2987H161.358V62.4541C161.358 63.5965 162.065 64.2494 163.316 64.2494C164.622 64.2494 165.329 63.5965 165.329 62.4541V47.167C165.329 46.0245 164.622 45.3717 163.316 45.3717C162.011 45.3717 161.249 46.0245 161.249 47.167V55.817C161.249 56.9594 161.63 57.7211 162.881 57.7211C163.643 57.7211 164.132 57.3947 164.296 56.8506V62.3453C164.296 63.0525 163.969 63.4877 163.262 63.4877ZM163.208 56.9595C162.555 56.9595 162.174 56.5242 162.174 55.7626V47.3302C162.174 46.623 162.555 46.1878 163.153 46.1878C163.915 46.1878 164.35 46.623 164.35 47.3302V55.4906C164.35 56.361 163.752 56.9595 163.208 56.9595Z" fill="#58595B"/>
<path fill-rule="evenodd" clip-rule="evenodd" d="M171.803 44.61H171.096L167.614 65.0654H168.321L171.803 44.61ZM166.526 46.4054C166.526 45.7525 166.961 45.3717 167.669 45.3717C168.376 45.3717 168.757 45.7525 168.811 46.4054V54.1305C168.811 54.7833 168.376 55.1642 167.669 55.1642C166.961 55.1642 166.526 54.7833 166.526 54.1305V46.4054ZM168.158 46.5141C168.158 46.1877 167.995 45.9701 167.669 45.9701C167.342 45.9701 167.179 46.1877 167.179 46.5141V54.0761C167.179 54.4025 167.342 54.6201 167.669 54.6201C167.995 54.6201 168.158 54.4025 168.158 54.0761V46.5141ZM170.606 55.545C170.606 54.8921 171.042 54.5113 171.749 54.5113C172.456 54.5113 172.837 54.8921 172.891 55.545V63.2701C172.891 63.923 172.456 64.3038 171.749 64.3038C171.042 64.3038 170.606 63.923 170.606 63.2701V55.545ZM171.749 55.0553C172.075 55.0553 172.238 55.2729 172.238 55.5993V63.1613C172.238 63.4877 172.075 63.7053 171.749 63.7053C171.422 63.7053 171.259 63.4877 171.259 63.1613V55.5993C171.259 55.2729 171.422 55.0553 171.749 55.0553Z" fill="#58595B"/>
<path fill-rule="evenodd" clip-rule="evenodd" d="M90.1994 35.8513C93.5723 35.8513 96.2924 34.5456 98.9038 31.6623L96.2924 29.6494C94.5516 31.6623 92.4843 32.7504 90.0905 32.7504C86.3912 32.7504 83.7255 30.3566 83.1814 27.0381H99.7198C99.7198 20.2378 95.5852 15.668 89.6009 15.668C83.5622 15.668 79.6453 20.2378 79.6453 25.7324C79.6453 30.9007 83.3446 35.8513 90.1994 35.8513ZM89.6008 18.7145C93.0281 18.7145 95.6394 21.0538 95.9659 24.2635H83.2357C83.5621 21.5978 85.5206 18.7145 89.6008 18.7145Z" fill="#0047BA"/>
<path fill-rule="evenodd" clip-rule="evenodd" d="M122.732 16.1032H122.46C120.774 16.1032 119.413 17.4633 119.468 19.1497H119.413C117.836 16.8648 114.898 15.668 112.069 15.668C106.629 15.668 102.005 20.0202 102.005 25.5692C102.005 31.6079 106.792 35.8513 112.178 35.8513C115.496 35.8513 117.945 34.4368 119.359 32.4239H119.413V42.978C119.413 44.8277 120.882 46.2966 122.732 46.2966V16.1032ZM105.541 25.5692C105.541 22.3595 108.098 18.7689 112.613 18.7689C116.204 18.7689 119.413 21.8698 119.413 25.7868C119.413 29.6494 116.312 32.7504 112.504 32.7504C108.968 32.7504 105.541 30.0302 105.541 25.5692Z" fill="#0047BA"/>
<path d="M138.998 33.1312H138.944C137.965 34.872 135.789 35.8513 133.667 35.8513C129.913 35.8513 126.214 33.8384 126.214 28.5613V16.0488H129.532V27.3101C129.532 30.1934 130.729 32.7503 133.993 32.7503C137.094 32.7503 138.998 30.6286 138.998 26.9837V16.1032H142.317V35.4161H141.229C140.032 35.4161 138.998 34.3824 138.998 33.1312V33.1312Z" fill="#0047BA"/>
<path fill-rule="evenodd" clip-rule="evenodd" d="M153.85 18.5513C156.407 18.5513 159.617 19.2585 159.617 22.4683V24.5356C157.822 22.9579 155.646 22.3595 153.633 22.3595C148.247 22.3595 145.255 25.4604 145.255 28.9966C145.255 33.2944 148.954 35.9057 153.687 35.9057C156.244 35.9057 158.148 35.1985 159.835 33.4032C159.835 34.5456 160.759 35.4705 161.902 35.4705H162.935V22.2507C162.935 17.6265 158.638 15.668 154.013 15.668C152.273 15.668 149.988 15.94 147.05 17.1368L148.519 19.9114C150.314 18.9865 152.055 18.5513 153.85 18.5513ZM148.845 29.051C148.845 27.1469 150.205 25.1884 154.285 25.1884C158.366 25.1884 159.726 27.1469 159.726 29.051C159.726 30.9551 158.366 32.9135 154.285 32.9135C150.205 32.9135 148.845 30.9551 148.845 29.051Z" fill="#0047BA"/>
<path d="M77.3604 29.5406C75.4019 31.3903 72.9538 32.4784 69.9072 32.4784C64.1406 32.4784 58.7547 27.8541 58.7547 21.2714C58.7547 14.7975 64.0318 10.0645 69.9072 10.0645C72.6274 10.0645 75.1843 11.1526 77.1972 12.9479L79.5909 10.3365C77.306 8.26924 73.661 6.74597 69.9072 6.74597C60.3324 6.74597 54.9465 14.3079 54.9465 21.2714C54.9465 28.235 60.3324 35.7969 69.9072 35.7969C73.0626 35.7969 76.3811 34.6001 78.8292 32.7504C78.1764 31.7711 77.6868 30.6831 77.3604 29.5406Z" fill="#0047BA"/>
<path d="M165.166 16.6472H164.459V16.3207H166.254V16.6472H165.547V19.2041H165.166V16.6472Z" fill="#0047BA"/>
<path d="M169.246 16.3207H169.627V19.2041H169.246V17.0824V17.0824L168.104 19.2585L166.907 17.0824V17.0824V19.2041H166.526V16.3207H166.907L168.104 18.4968L169.246 16.3207Z" fill="#0047BA"/>
<path d="M36.776 19.2041C36.776 10.0101 30.0301 0.217651 30.0301 0.217651C30.0301 0.217651 23.2842 10.0101 23.2842 19.2041C23.2842 22.9035 26.2763 25.95 30.0301 25.95C33.7839 25.95 36.776 22.9035 36.776 19.2041Z" fill="#0047BA"/>
<path d="M36.1777 35.6881C27.038 35.6881 19.6393 28.2894 19.6393 19.1497C19.6393 16.8104 17.7352 14.8519 15.3415 14.8519C12.9478 14.8519 11.0437 16.756 11.0437 19.1497C11.0437 29.6494 19.5305 38.1362 30.0302 38.1362C33.784 38.1362 37.2657 37.0482 40.2034 35.1985C38.9522 35.5249 37.5921 35.6881 36.1777 35.6881Z" fill="#00BBB4"/>
<path d="M44.7732 14.9063C42.4339 14.9063 40.4754 16.8104 40.4754 19.2041C40.4754 24.9708 35.7968 29.595 30.0845 29.595C29.5405 29.595 28.9965 29.5406 28.5068 29.4862C30.6285 31.1183 33.3487 32.0431 36.232 32.0431C43.3043 32.0431 49.071 26.2764 49.071 19.2041C49.0166 16.8104 47.1125 14.9063 44.7732 14.9063Z" fill="#C2D500"/>
</svg>
