<svg width="186" height="52" viewBox="0 0 186 52" fill="none" xmlns="http://www.w3.org/2000/svg">
<path d="M69.5469 47.1098V46.3364C69.5469 45.0107 70.3755 44.3478 71.1488 43.7402C71.8117 43.2431 72.3641 42.8011 72.3641 42.083V41.8068C72.3641 41.144 72.1431 40.8678 71.4802 40.8678C70.8726 40.8678 70.5412 41.1992 70.5412 41.7516V42.6907H69.6021V41.6964C69.6021 40.5916 70.3202 39.9839 71.4802 39.9839C72.6955 39.9839 73.3031 40.6468 73.3031 41.7516V41.9726C73.3031 43.0221 72.585 43.6297 71.9222 44.1821C71.2593 44.7345 70.5964 45.2869 70.5964 46.1707H73.3031V47.0546H69.5469V47.1098Z" fill="#8E9BA1"/>
<path fill-rule="evenodd" clip-rule="evenodd" d="M74.187 42.2487V45.0659C74.187 46.5022 74.9051 47.2203 76.1756 47.2203C77.4461 47.2203 78.1642 46.5574 78.1642 45.0659V42.2487C78.1642 40.8125 77.3909 40.0944 76.1756 40.0944C74.9604 40.0944 74.187 40.8125 74.187 42.2487ZM77.1701 42.2488V45.0107C77.1701 45.8945 76.8387 46.3365 76.1758 46.3365C75.4577 46.3365 75.1263 45.8945 75.1263 45.0107V42.2488C75.1263 41.3649 75.4025 40.8678 76.1206 40.8678C76.8387 40.8678 77.1701 41.3649 77.1701 42.2488Z" fill="#8E9BA1"/>
<path d="M82.1417 47.1099H81.2026V41.4755H81.9207L82.0312 42.3041C82.1969 41.6964 82.6389 41.365 83.2465 41.365C83.9094 41.365 84.296 41.6964 84.4617 42.3041C84.6275 41.6964 85.0694 41.365 85.677 41.365C86.6161 41.365 87.0027 41.9726 87.0027 43.0774V47.1651H86.0637V43.2431C86.0637 42.5803 85.8427 42.1936 85.2903 42.1936C84.7379 42.1936 84.517 42.6355 84.517 43.2431V47.1651H83.5779V43.2431C83.5779 42.6355 83.4122 42.2488 82.8598 42.2488C82.3074 42.2488 82.0312 42.746 82.0312 43.4641V47.1099H82.1417Z" fill="#8E9BA1"/>
<path fill-rule="evenodd" clip-rule="evenodd" d="M89.3778 48.988C88.2178 48.988 87.7759 48.6013 87.7759 48.0489C87.7759 47.607 88.1626 47.2203 88.7702 47.0546C88.1073 46.9994 87.7759 46.7232 87.7759 46.226C87.7759 45.7289 88.1073 45.4527 88.7702 45.3422C88.273 45.1212 87.9968 44.7346 87.9968 44.1269V42.9669C87.9968 42.1383 88.494 41.5859 89.3778 41.4202L89.5435 41.365C90.2616 41.1993 90.4826 41.0888 90.4826 40.5364V40.205H91.4769V40.4259C91.4769 41.0888 91.2007 41.4755 90.2616 41.5307H90.4274C91.0902 41.6412 91.5321 42.1936 91.5321 42.8564V44.0165C91.5321 44.9555 90.8693 45.5631 89.7645 45.5631H89.5988C88.8807 45.5631 88.6045 45.6736 88.6045 45.9498C88.6045 46.1708 88.7702 46.2813 89.3226 46.2813H90.2616C91.3664 46.2813 91.8083 46.7784 91.8083 47.4965C91.8083 48.2699 91.2559 48.9327 89.5988 48.9327H89.3778V48.988ZM89.7643 48.2698C90.5377 48.2698 90.9243 47.9936 90.9243 47.6622C90.9243 47.386 90.7034 47.165 90.151 47.165H89.4881C88.991 47.2203 88.6595 47.4965 88.6595 47.8279C88.6595 48.1041 88.9357 48.2698 89.4329 48.2698H89.7643ZM90.5377 42.9116V44.0716C90.5377 44.624 90.2615 44.9002 89.6539 44.9002C89.1567 44.9002 88.8806 44.624 88.8806 44.0716V42.9116C88.8806 42.5249 89.0463 42.1935 89.4329 42.083C89.5434 42.0278 89.6539 42.0278 89.7644 42.0278C90.3168 42.0278 90.5377 42.4145 90.5377 42.9116Z" fill="#8E9BA1"/>
<path d="M92.5264 47.828C92.8579 47.7727 93.0236 47.5518 93.0788 47.1651C93.0236 47.1651 92.9683 47.1651 92.9683 47.1651C92.6369 47.1651 92.4712 47.0546 92.4712 46.5575C92.4712 46.0603 92.6369 45.8946 93.0788 45.8946C93.5207 45.8946 93.6865 46.0603 93.6865 46.7784C93.6865 47.6622 93.2998 48.2146 92.5264 48.3804V47.828Z" fill="#8E9BA1"/>
<path d="M96.7246 45.5079V44.5689H97.6637V45.3974C97.6637 46.0051 97.9951 46.2813 98.658 46.2813C99.3761 46.2813 99.6523 45.9498 99.6523 45.287V44.845C99.6523 44.2374 99.3208 43.906 98.658 43.906H98.1608V43.1326H98.658C99.3208 43.1326 99.597 42.746 99.597 42.1936V41.8069C99.597 41.1993 99.3761 40.9231 98.7132 40.9231C98.0503 40.9231 97.7742 41.2545 97.7742 41.8069V42.525H96.8351V41.7517C96.8351 40.7574 97.498 40.0945 98.7132 40.0945C99.9837 40.0945 100.536 40.7021 100.536 41.7517V42.1383C100.536 42.8012 100.315 43.3536 99.6523 43.5745C100.37 43.7403 100.647 44.2374 100.647 45.0108V45.4527C100.647 46.5022 100.149 47.2756 98.658 47.2756C97.3322 47.1651 96.7246 46.6127 96.7246 45.5079Z" fill="#8E9BA1"/>
<path fill-rule="evenodd" clip-rule="evenodd" d="M101.42 42.2487V45.0659C101.42 46.5022 102.138 47.2203 103.409 47.2203C104.679 47.2203 105.397 46.5574 105.397 45.0659V42.2487C105.397 40.8125 104.624 40.0944 103.409 40.0944C102.193 40.0944 101.42 40.8125 101.42 42.2487ZM104.403 42.2488V45.0107C104.403 45.8945 104.127 46.3365 103.409 46.3365C102.691 46.3365 102.359 45.8945 102.359 45.0107V42.2488C102.359 41.3649 102.635 40.8678 103.353 40.8678C104.072 40.8678 104.403 41.3649 104.403 42.2488Z" fill="#8E9BA1"/>
<path d="M109.374 47.1099H108.435V41.4755H109.153L109.264 42.3041C109.429 41.6964 109.871 41.365 110.479 41.365C111.142 41.365 111.528 41.6964 111.694 42.3041C111.86 41.6964 112.302 41.365 112.909 41.365C113.848 41.365 114.235 41.9726 114.235 43.0774V47.1651H113.296V43.2431C113.296 42.5803 113.075 42.1936 112.523 42.1936C111.97 42.1936 111.749 42.6355 111.749 43.2431V47.1651H110.81V43.2431C110.81 42.6355 110.645 42.2488 110.092 42.2488C109.54 42.2488 109.264 42.746 109.264 43.4641V47.1099H109.374Z" fill="#8E9BA1"/>
<path fill-rule="evenodd" clip-rule="evenodd" d="M116.666 48.988C115.506 48.988 115.064 48.6013 115.064 48.0489C115.064 47.607 115.451 47.2203 116.058 47.0546C115.395 46.9994 115.064 46.7232 115.064 46.226C115.064 45.7289 115.395 45.4527 116.058 45.3422C115.561 45.1212 115.285 44.7346 115.285 44.1269V42.9669C115.285 42.1383 115.782 41.5859 116.666 41.4202L116.832 41.365C117.55 41.1993 117.771 41.0888 117.771 40.5364V40.205H118.765V40.4259C118.765 41.0888 118.489 41.4755 117.55 41.5307H117.715C118.378 41.6412 118.82 42.1936 118.82 42.8564V44.0165C118.82 44.9555 118.157 45.5631 117.053 45.5631H116.887C116.169 45.5631 115.893 45.6736 115.893 45.9498C115.893 46.1708 116.058 46.2813 116.611 46.2813H117.55C118.655 46.2813 119.096 46.7784 119.096 47.4965C119.096 48.2699 118.544 48.9327 116.887 48.9327H116.666V48.988ZM116.997 48.2698C117.771 48.2698 118.157 47.9936 118.157 47.6622C118.157 47.386 117.936 47.165 117.384 47.165H116.721C116.224 47.2203 115.892 47.4965 115.892 47.8279C115.892 48.1041 116.169 48.2698 116.666 48.2698H116.997ZM117.826 42.9116V44.0716C117.826 44.624 117.55 44.9002 116.942 44.9002C116.445 44.9002 116.169 44.624 116.169 44.0716V42.9116C116.169 42.5249 116.334 42.1935 116.721 42.083C116.832 42.0278 116.942 42.0278 117.052 42.0278C117.605 42.0278 117.826 42.4145 117.826 42.9116Z" fill="#8E9BA1"/>
<path d="M119.815 47.828C120.146 47.7727 120.312 47.5518 120.367 47.1651C120.312 47.1651 120.256 47.1651 120.256 47.1651C119.925 47.1651 119.759 47.0546 119.759 46.5575C119.759 46.0603 119.925 45.8946 120.367 45.8946C120.809 45.8946 120.975 46.0603 120.975 46.7784C120.975 47.6622 120.588 48.2146 119.815 48.3804V47.828Z" fill="#8E9BA1"/>
<path fill-rule="evenodd" clip-rule="evenodd" d="M127.216 47.1098V45.6183H128.045V44.7897H127.216V40.1497H126.388L123.847 44.9002V45.5631H126.332V47.1098H127.216ZM126.388 44.7345H124.841L126.222 42.0278L126.553 41.0887L126.388 42.1383V44.7345Z" fill="#8E9BA1"/>
<path fill-rule="evenodd" clip-rule="evenodd" d="M128.763 42.2487V45.0659C128.763 46.5022 129.481 47.2203 130.752 47.2203C132.022 47.2203 132.74 46.5574 132.74 45.0659V42.2487C132.74 40.8125 131.967 40.0944 130.752 40.0944C129.537 40.0944 128.763 40.8125 128.763 42.2487ZM131.746 42.2488V45.0107C131.746 45.8945 131.415 46.3365 130.752 46.3365C130.034 46.3365 129.702 45.8945 129.702 45.0107V42.2488C129.702 41.3649 129.979 40.8678 130.697 40.8678C131.415 40.8678 131.746 41.3649 131.746 42.2488Z" fill="#8E9BA1"/>
<path d="M136.717 47.1099H135.778V41.4755H136.496L136.607 42.3041C136.773 41.6964 137.215 41.365 137.822 41.365C138.485 41.365 138.872 41.6964 139.037 42.3041C139.203 41.6964 139.645 41.365 140.253 41.365C141.192 41.365 141.578 41.9726 141.578 43.0774V47.1651H140.639V43.2431C140.639 42.5803 140.418 42.1936 139.866 42.1936C139.314 42.1936 139.093 42.6355 139.093 43.2431V47.1651H138.154V43.2431C138.154 42.6355 137.988 42.2488 137.435 42.2488C136.883 42.2488 136.607 42.746 136.607 43.4641V47.1099H136.717Z" fill="#8E9BA1"/>
<path fill-rule="evenodd" clip-rule="evenodd" d="M143.954 48.988C142.794 48.988 142.352 48.6013 142.352 48.0489C142.352 47.607 142.739 47.2203 143.346 47.0546C142.683 46.9994 142.352 46.7232 142.352 46.226C142.352 45.7289 142.683 45.4527 143.346 45.3422C142.849 45.1212 142.573 44.7346 142.573 44.1269V42.9669C142.573 42.1383 143.07 41.5859 143.954 41.4202L144.12 41.365C144.838 41.1993 145.059 41.0888 145.059 40.5364V40.205H146.053V40.4259C146.053 41.0888 145.777 41.4755 144.838 41.5307H145.004C145.666 41.6412 146.108 42.1936 146.108 42.8564V44.0165C146.108 44.9555 145.445 45.5631 144.341 45.5631H144.175C143.457 45.5631 143.181 45.6736 143.181 45.9498C143.181 46.1708 143.346 46.2813 143.899 46.2813H144.838C145.943 46.2813 146.385 46.7784 146.385 47.4965C146.385 48.2699 145.832 48.9327 144.175 48.9327H143.954V48.988ZM144.34 48.2698C145.114 48.2698 145.5 47.9936 145.5 47.6622C145.5 47.386 145.28 47.165 144.727 47.165H144.064C143.567 47.2203 143.236 47.4965 143.236 47.8279C143.236 48.1041 143.512 48.2698 144.009 48.2698H144.34ZM145.114 42.9116V44.0716C145.114 44.624 144.838 44.9002 144.23 44.9002C143.733 44.9002 143.457 44.624 143.457 44.0716V42.9116C143.457 42.5249 143.622 42.1935 144.009 42.083C144.12 42.0278 144.23 42.0278 144.341 42.0278C144.893 42.0278 145.114 42.4145 145.114 42.9116Z" fill="#8E9BA1"/>
<path d="M147.103 47.828C147.434 47.7727 147.6 47.5518 147.655 47.1651C147.6 47.1651 147.545 47.1651 147.545 47.1651C147.213 47.1651 147.047 47.0546 147.047 46.5575C147.047 46.0603 147.213 45.8946 147.655 45.8946C148.097 45.8946 148.263 46.0603 148.263 46.7784C148.263 47.6622 147.876 48.2146 147.103 48.3804V47.828Z" fill="#8E9BA1"/>
<path fill-rule="evenodd" clip-rule="evenodd" d="M151.411 45.0659C151.411 46.5574 152.129 47.2203 153.345 47.2203C154.615 47.2203 155.388 46.5022 155.333 45.1212V44.7345C155.333 43.464 154.67 42.8564 153.676 42.8564C152.958 42.8564 152.516 43.2431 152.295 43.7402V42.304C152.295 41.4202 152.626 40.923 153.4 40.923C154.063 40.923 154.339 41.3097 154.339 41.9726V42.1383H155.278V41.9173C155.278 40.7573 154.615 40.0944 153.455 40.0944C152.074 40.0944 151.411 40.8125 151.411 42.2487V45.0659ZM154.449 44.7345V45.0107C154.449 45.8946 154.063 46.3365 153.4 46.3365C152.682 46.3365 152.35 45.8946 152.35 45.0107V44.6793C152.406 44.0717 152.737 43.6298 153.4 43.6298C154.173 43.6298 154.449 44.1269 154.449 44.7345Z" fill="#8E9BA1"/>
<path fill-rule="evenodd" clip-rule="evenodd" d="M156.162 42.2487V45.0659C156.162 46.5022 156.935 47.2203 158.15 47.2203C159.421 47.2203 160.139 46.5574 160.139 45.0659V42.2487C160.139 40.8125 159.365 40.0944 158.15 40.0944C156.935 40.0944 156.162 40.8125 156.162 42.2487ZM159.2 42.2488V45.0107C159.2 45.8945 158.868 46.3365 158.206 46.3365C157.487 46.3365 157.156 45.8945 157.156 45.0107V42.2488C157.156 41.3649 157.432 40.8678 158.15 40.8678C158.868 40.8678 159.2 41.3649 159.2 42.2488Z" fill="#8E9BA1"/>
<path d="M164.171 47.1099H163.232V41.4755H163.951L164.061 42.3041C164.227 41.6964 164.669 41.365 165.276 41.365C165.939 41.365 166.326 41.6964 166.492 42.3041C166.657 41.6964 167.099 41.365 167.707 41.365C168.646 41.365 169.033 41.9726 169.033 43.0774V47.1651H168.093V43.2431C168.093 42.5803 167.873 42.1936 167.32 42.1936C166.768 42.1936 166.547 42.6355 166.547 43.2431V47.1651H165.718V43.2431C165.718 42.6355 165.552 42.2488 165 42.2488C164.448 42.2488 164.171 42.746 164.171 43.4641V47.1099Z" fill="#8E9BA1"/>
<path fill-rule="evenodd" clip-rule="evenodd" d="M171.408 48.988C170.248 48.988 169.806 48.6013 169.806 48.0489C169.806 47.607 170.193 47.2203 170.8 47.0546C170.138 46.9994 169.806 46.7232 169.806 46.226C169.806 45.7289 170.138 45.4527 170.8 45.3422C170.303 45.1212 170.027 44.7346 170.027 44.1269V42.9669C170.027 42.1383 170.524 41.5859 171.408 41.4202L171.574 41.365C172.292 41.1993 172.513 41.0888 172.513 40.5364V40.205H173.507V40.4259C173.507 41.0888 173.231 41.4755 172.292 41.5307H172.458C173.12 41.6412 173.562 42.1936 173.562 42.8564V44.0165C173.562 44.9555 172.9 45.5631 171.795 45.5631H171.629C170.911 45.5631 170.635 45.6736 170.635 45.9498C170.635 46.1708 170.8 46.2813 171.353 46.2813H172.292C173.397 46.2813 173.839 46.7784 173.839 47.4965C173.839 48.2699 173.286 48.9327 171.629 48.9327H171.408V48.988ZM171.795 48.2698C172.568 48.2698 172.955 47.9936 172.955 47.6622C172.955 47.386 172.734 47.165 172.181 47.165H171.518C171.021 47.2203 170.69 47.4965 170.69 47.8279C170.69 48.1041 170.966 48.2698 171.463 48.2698H171.795ZM172.568 42.9116V44.0716C172.568 44.624 172.292 44.9002 171.684 44.9002C171.187 44.9002 170.911 44.624 170.911 44.0716V42.9116C170.911 42.5249 171.077 42.1935 171.463 42.083C171.574 42.0278 171.684 42.0278 171.795 42.0278C172.347 42.0278 172.568 42.4145 172.568 42.9116Z" fill="#8E9BA1"/>
<path fill-rule="evenodd" clip-rule="evenodd" d="M71.7555 29.9857H69.4907V38.1059H71.7555C73.1365 38.1059 74.186 37.443 74.186 35.7306V32.3058C74.186 30.6486 73.1365 29.9857 71.7555 29.9857ZM71.3688 36.4487V31.5324H71.7002C72.0869 31.5324 72.3078 31.7534 72.3078 32.4163V35.5649C72.3078 36.2278 72.0869 36.4487 71.7002 36.4487H71.3688Z" fill="#8E9BA1"/>
<path d="M78.7712 38.0507H74.7939V29.9858H78.7159V31.643H76.6168V33.1344H78.495V34.8468H76.6168V36.3383H78.7712V38.0507Z" fill="#8E9BA1"/>
<path d="M79.3237 38.0507V29.9858H81.2571V36.2278H83.1352V38.1059H79.3237V38.0507Z" fill="#8E9BA1"/>
<path fill-rule="evenodd" clip-rule="evenodd" d="M85.3997 37.1668H86.6702L86.836 38.0506H88.6588L86.9464 29.9857H85.1235L83.4111 38.0506H85.234L85.3997 37.1668ZM86.3938 35.6202H85.6205L85.9519 33.6868L86.0071 32.6925L86.0624 33.6868L86.3938 35.6202Z" fill="#8E9BA1"/>
<path d="M89.3216 38.0507V35.1783L87.7749 29.9858H89.653L90.2054 32.4163L90.2607 32.8582L90.3159 32.4163L90.9235 29.9858H92.8017L91.255 35.1783V38.1059H89.3216V38.0507Z" fill="#8E9BA1"/>
<path d="M96.9997 38.0507H93.0225V29.9858H96.9444V31.643H94.8454V33.1344H96.7235V34.8468H94.8454V36.3383H96.9997V38.0507Z" fill="#8E9BA1"/>
<path fill-rule="evenodd" clip-rule="evenodd" d="M99.817 29.9857H97.5522V38.1059H99.817C101.198 38.1059 102.248 37.443 102.248 35.7306V32.3058C102.248 30.6486 101.198 29.9857 99.817 29.9857ZM99.4303 36.4487V31.5324H99.7617C100.148 31.5324 100.369 31.7534 100.369 32.4163V35.5649C100.369 36.2278 100.148 36.4487 99.7617 36.4487H99.4303Z" fill="#8E9BA1"/>
<path d="M105.949 34.8468H102.8V33.0792H105.949V34.8468Z" fill="#8E9BA1"/>
<path fill-rule="evenodd" clip-rule="evenodd" d="M108.379 38.0506V35.1782H108.656C109.098 35.1782 109.208 35.2887 109.208 35.7306V37.5535C109.208 37.8297 109.263 38.0506 109.374 38.1059H111.252C111.086 37.9954 111.031 37.8297 111.031 37.5535V35.6753C111.031 34.9572 110.865 34.5706 110.368 34.3496C110.865 34.1287 111.086 33.742 111.086 33.0239V31.9743C111.086 30.4829 110.423 29.9857 108.932 29.9857H106.612V38.0506H108.379ZM108.38 33.5211V31.5324H108.821C109.208 31.5324 109.319 31.6429 109.319 32.0296V33.0791C109.319 33.4106 109.208 33.5211 108.821 33.5211H108.38Z" fill="#8E9BA1"/>
<path d="M115.616 38.0507H111.639V29.9858H115.561V31.643H113.462V33.1344H115.34V34.8468H113.462V36.3383H115.616V38.0507Z" fill="#8E9BA1"/>
<path d="M116.168 38.0507V29.9858H118.101V36.2278H119.979V38.1059H116.168V38.0507Z" fill="#8E9BA1"/>
<path d="M124.509 38.0507H120.532V29.9858H124.454V31.643H122.355V33.1344H124.233V34.8468H122.355V36.3383H124.509V38.0507Z" fill="#8E9BA1"/>
<path fill-rule="evenodd" clip-rule="evenodd" d="M126.829 37.1668H128.099L128.265 38.0506H130.088L128.376 29.9857H126.553L124.84 38.0506H126.663L126.829 37.1668ZM127.823 35.6202H127.05L127.381 33.6868L127.436 32.6925L127.492 33.6868L127.823 35.6202Z" fill="#8E9BA1"/>
<path d="M130.199 36.1173V34.9573H132.077V36.0621C132.077 36.3935 132.132 36.5592 132.519 36.5592C132.85 36.5592 132.905 36.3935 132.905 36.0621V35.5649C132.905 35.0125 132.353 34.7363 131.801 34.4049C131.083 33.963 130.309 33.4658 130.309 32.3058V31.8639C130.309 30.4829 131.083 29.8201 132.574 29.8201C134.01 29.8201 134.728 30.4829 134.728 31.6982V32.582H132.905V31.8639C132.905 31.4772 132.795 31.3668 132.519 31.3668C132.243 31.3668 132.132 31.5325 132.132 31.8639V32.1401C132.132 32.582 132.629 32.803 133.237 33.1344C133.955 33.5211 134.784 34.0735 134.784 35.2887V36.1173C134.784 37.4983 134.065 38.1612 132.464 38.1612C130.806 38.2164 130.199 37.4983 130.199 36.1173Z" fill="#8E9BA1"/>
<path d="M139.258 38.0507H135.281V29.9858H139.203V31.643H137.104V33.1344H138.982V34.8468H137.104V36.3383H139.258V38.0507Z" fill="#8E9BA1"/>
<path d="M141.91 35.7307V32.1954C141.91 30.5382 142.849 29.8201 144.285 29.8201C145.776 29.8201 146.66 30.4829 146.66 32.0296V33.3554H144.727V32.1954C144.727 31.643 144.672 31.4772 144.285 31.4772C143.954 31.4772 143.843 31.6982 143.843 32.3611V35.6202C143.843 36.283 143.898 36.504 144.285 36.504C144.616 36.504 144.727 36.283 144.727 35.7307V34.4602H146.715V35.8411C146.66 37.5535 145.832 38.1612 144.285 38.1612C142.683 38.1612 141.91 37.4431 141.91 35.7307Z" fill="#8E9BA1"/>
<path fill-rule="evenodd" clip-rule="evenodd" d="M148.703 37.1668H149.974L150.14 38.0506H151.963L150.25 29.9857H148.427L146.715 38.0506H148.538L148.703 37.1668ZM149.753 35.6202H148.98L149.311 33.6868L149.366 32.6925L149.422 33.6868L149.753 35.6202Z" fill="#8E9BA1"/>
<path fill-rule="evenodd" clip-rule="evenodd" d="M154.117 38.0506V35.6201H154.559C156.161 35.6201 156.824 34.7915 156.824 33.4658V32.0296C156.824 30.6486 156.161 29.9857 154.559 29.9857H152.294V38.0506H154.117ZM154.117 34.0182V31.5324H154.504C154.891 31.5324 155.056 31.6982 155.056 32.0848V33.4106C155.056 33.8525 154.891 34.0182 154.504 34.0182H154.117Z" fill="#8E9BA1"/>
<path d="M157.266 36.1173V34.9573H159.144V36.0621C159.144 36.3935 159.199 36.5592 159.586 36.5592C159.918 36.5592 159.973 36.3935 159.973 36.0621V35.5649C159.973 35.0125 159.42 34.7363 158.868 34.4049C158.15 33.963 157.377 33.4658 157.377 32.3058V31.8639C157.377 30.4829 158.15 29.8201 159.641 29.8201C161.078 29.8201 161.796 30.4829 161.796 31.6982V32.582H159.973V31.8639C159.973 31.4772 159.862 31.3668 159.586 31.3668C159.31 31.3668 159.199 31.5325 159.199 31.8639V32.1401C159.199 32.582 159.697 32.803 160.304 33.1344C161.022 33.5211 161.851 34.0735 161.851 35.2887V36.1173C161.851 37.4983 161.133 38.1612 159.586 38.1612C157.874 38.2164 157.266 37.4983 157.266 36.1173Z" fill="#8E9BA1"/>
<path d="M162.348 35.7859V29.9858H164.171V35.6754C164.171 36.2278 164.281 36.3935 164.612 36.3935C164.944 36.3935 165.054 36.2278 165.054 35.6754V29.9858H166.877V35.7859C166.877 37.4983 166.049 38.2164 164.612 38.2164C163.176 38.1612 162.348 37.4431 162.348 35.7859Z" fill="#8E9BA1"/>
<path d="M167.595 38.0507V29.9858H169.529V36.2278H171.407V38.1059H167.595V38.0507Z" fill="#8E9BA1"/>
<path d="M175.937 38.0507H171.959V29.9858H175.881V31.643H173.782V33.1344H175.66V34.8468H173.782V36.3383H175.937V38.0507Z" fill="#8E9BA1"/>
<path d="M176.323 36.1173V34.9573H178.201V36.0621C178.201 36.3935 178.257 36.5592 178.643 36.5592C178.975 36.5592 179.03 36.3935 179.03 36.0621V35.5649C179.03 35.0125 178.478 34.7363 177.925 34.4049C177.207 33.963 176.434 33.4658 176.434 32.3058V31.8639C176.434 30.4829 177.207 29.8201 178.699 29.8201C180.135 29.8201 180.853 30.4829 180.853 31.6982V32.582H179.03V31.8639C179.03 31.4772 178.919 31.3668 178.643 31.3668C178.367 31.3668 178.257 31.5325 178.257 31.8639V32.1401C178.257 32.582 178.754 32.803 179.361 33.1344C180.08 33.5211 180.908 34.0735 180.908 35.2887V36.1173C180.908 37.4983 180.19 38.1612 178.588 38.1612C176.931 38.2164 176.323 37.4983 176.323 36.1173Z" fill="#8E9BA1"/>
<path d="M0.497559 31.9743C0.497559 29.1019 1.43662 28.3286 3.81191 28.3286V30.1514C2.65188 30.1514 2.32045 30.4829 2.32045 31.9191V45.5632C2.32045 46.9994 2.59664 47.3308 3.81191 47.3308V49.2089C1.27091 49.2089 0.497559 48.4356 0.497559 45.5632V31.9743Z" fill="#8E9BA1"/>
<path fill-rule="evenodd" clip-rule="evenodd" d="M7.45829 29.8201H5.08301V47.1651H7.40305C9.11546 47.1651 10.165 46.5575 10.165 44.6242V32.3611C10.165 30.4277 9.1707 29.8201 7.45829 29.8201ZM6.85066 45.508V31.422H7.29258C7.95544 31.422 8.28688 31.6429 8.28688 32.4163V44.4584C8.28688 45.1765 7.95544 45.508 7.29258 45.508H6.85066Z" fill="#8E9BA1"/>
<path d="M11.4902 44.845V29.8752H13.3131V44.6793C13.3131 45.3422 13.4788 45.6736 13.976 45.6736C14.4731 45.6736 14.6389 45.3974 14.6389 44.6793V29.8752H16.4618V44.845C16.4618 46.6127 15.6332 47.386 13.976 47.386C12.3188 47.386 11.4902 46.6127 11.4902 44.845Z" fill="#8E9BA1"/>
<path d="M18.0083 47.165V29.8199H19.8312V45.2869H21.9855V47.1098H18.0083V47.165Z" fill="#8E9BA1"/>
<path fill-rule="evenodd" clip-rule="evenodd" d="M22.9795 32.1952V44.8449C22.9795 46.6126 24.029 47.3859 25.5205 47.3859C27.1224 47.3859 28.1167 46.6126 28.1167 44.8449V32.1952C28.1167 30.538 27.1777 29.7094 25.5757 29.7094C23.9738 29.7094 22.9795 30.538 22.9795 32.1952ZM26.349 32.2504V44.5688C26.349 45.2869 26.128 45.6183 25.6309 45.5631C25.0232 45.5631 24.8575 45.2316 24.8575 44.5688V32.2504C24.8575 31.5876 25.0232 31.2561 25.5756 31.2561C26.128 31.2561 26.349 31.5876 26.349 32.2504Z" fill="#8E9BA1"/>
<path d="M30.6583 47.165H28.8906L30.6583 37.9401L29.1116 29.8199H30.7688L31.5421 34.2391L31.7078 36.2829L31.8735 34.2391L32.6469 29.8199H34.3041L32.6469 37.9401L34.525 47.165H32.8126L31.9288 42.3592L31.7631 39.763L31.5421 42.3592L30.6583 47.165Z" fill="#8E9BA1"/>
<path d="M39.1098 47.165H35.3535V29.8199H39.0545V31.5876H37.1212V37.4429H38.8888V39.2106H37.1212V45.3421H39.0545V47.165H39.1098Z" fill="#8E9BA1"/>
<path d="M43.2527 31.5876V47.165H41.4298V31.5876H40.0488V29.8199H44.6889V31.5876H43.2527Z" fill="#8E9BA1"/>
<path d="M45.6831 47.165V45.4526H46.6774V31.5324H45.6831V29.8199H49.3841V31.5324H48.4451V45.4526H49.3841V47.165H45.6831Z" fill="#8E9BA1"/>
<path d="M52.1459 47.165H50.5439V29.8199H51.9249L53.9688 39.5973L54.4107 42.1935L54.1345 38.4925V29.8199H55.7364V47.165H54.3554L52.2564 37.3325L51.8144 34.7915L52.0906 38.3268V47.165H52.1459Z" fill="#8E9BA1"/>
<path d="M61.0395 47.165H57.2832V29.8199H60.9842V31.5876H59.1061V37.4429H60.8737V39.2106H59.1061V45.3421H61.0395V47.165Z" fill="#8E9BA1"/>
<path d="M61.9238 47.386C63.0838 47.386 63.4153 47.0545 63.4153 45.6183V31.9743C63.4153 30.5381 63.1391 30.2066 61.9238 30.2066V28.3837C64.2991 28.3837 65.2382 29.1571 65.2382 32.0295V45.6736C65.2382 48.546 64.4648 49.3194 61.9238 49.3194V47.386Z" fill="#8E9BA1"/>
<path d="M15.7432 7.17188H18.947V9.10524C19.5547 7.88998 20.6042 7.17188 22.2061 7.17188H23.3662V10.3205H21.4328C19.7204 10.3205 18.947 11.2043 18.947 13.4139V18.9378H15.7432V7.17188Z" fill="#D1006F"/>
<path fill-rule="evenodd" clip-rule="evenodd" d="M28.3374 4.07845C28.3374 2.91843 27.5641 2.14508 26.4041 2.14508C25.2441 2.14508 24.4707 2.91843 24.4707 4.07845C24.4707 5.23847 25.2441 6.01182 26.4041 6.01182C27.5641 6.01182 28.3374 5.23847 28.3374 4.07845ZM28.0059 7.17188H24.802V18.9378H28.0059V7.17188Z" fill="#D1006F"/>
<path d="M29.5527 16.0654L35.7395 10.0443H29.6632V7.22711H40.0482V10.0995L33.8614 16.1206H40.1586V18.9378H29.5527V16.0654Z" fill="#D1006F"/>
<path fill-rule="evenodd" clip-rule="evenodd" d="M46.5666 6.95093C43.9151 6.95093 40.877 8.93954 40.877 13.0825C40.877 17.2254 44.0808 19.1588 46.5113 19.1588C48.0028 19.1588 49.2733 18.5511 50.0466 17.6121V18.9378H53.2505V7.17188H50.0466V8.33191C49.2733 7.50332 48.1133 6.95093 46.5666 6.95093ZM47.2293 9.87855C48.9417 9.87855 50.2122 11.3148 50.2122 13.0272C50.2122 14.7948 48.9417 16.231 47.2293 16.1758C45.4617 16.1758 44.0807 14.8501 44.0807 13.0272C44.0807 11.2043 45.4617 9.87855 47.2293 9.87855Z" fill="#D1006F"/>
<path d="M58.1668 1.75842V18.9378H54.9629V1.75842H58.1668Z" fill="#D1006F"/>
<path d="M59.8237 7.17188H63.0276V8.44238C63.7457 7.50332 64.8505 6.95093 66.1762 6.95093C67.8334 6.95093 69.1039 7.6138 69.822 8.82906C70.5954 7.72428 71.9763 6.95093 73.4678 6.95093C76.4507 6.95093 77.9422 8.71858 77.9422 11.7567V18.9378H74.6831V12.1986C74.6831 10.5967 74.0754 9.71288 72.6392 9.71288C71.4239 9.71288 70.5401 10.5415 70.5401 12.5301V18.9378H67.281V12.1986C67.281 10.5967 66.6734 9.71288 65.2372 9.71288C64.0219 9.71288 63.1381 10.5415 63.1381 12.5301V18.9378H59.9342V7.17188H59.8237Z" fill="#D1006F"/>
<path fill-rule="evenodd" clip-rule="evenodd" d="M84.903 6.95093C82.2515 6.95093 79.2134 8.93954 79.2134 13.0825C79.2134 17.2254 82.362 19.1588 84.8478 19.1588C86.3392 19.1588 87.6097 18.5511 88.3831 17.6121V18.9378H91.5869V7.17188H88.3831V8.33191C87.6097 7.50332 86.4497 6.95093 84.903 6.95093ZM85.5106 9.87855C87.223 9.87855 88.4935 11.3148 88.4935 13.0272C88.4935 14.7948 87.223 16.231 85.5106 16.1758C83.7429 16.1758 82.362 14.8501 82.362 13.0272C82.362 11.2043 83.7429 9.87855 85.5106 9.87855Z" fill="#D1006F"/>
<path d="M5.13764 1.75842H5.08241V4.79657C9.05962 4.90705 10.9378 7.17186 10.9378 10.3205C10.9378 13.4691 8.61771 15.8444 4.91669 15.8444H3.75667V13.8005H0.497559V18.8825H5.30336C10.5511 18.8825 14.2521 15.1815 14.2521 10.3205C14.1969 5.51468 10.9378 1.75842 5.13764 1.75842Z" fill="#D1006F"/>
<path d="M2.09918 12.4749C2.83136 12.4749 3.42492 11.8813 3.42492 11.1492C3.42492 10.417 2.83136 9.82343 2.09918 9.82343C1.36699 9.82343 0.773438 10.417 0.773438 11.1492C0.773438 11.8813 1.36699 12.4749 2.09918 12.4749Z" fill="#00A3AD"/>
<path d="M2.09918 4.68621C2.83136 4.68621 3.42492 4.09265 3.42492 3.36047C3.42492 2.62828 2.83136 2.03473 2.09918 2.03473C1.36699 2.03473 0.773438 2.62828 0.773438 3.36047C0.773438 4.09265 1.36699 4.68621 2.09918 4.68621Z" fill="#00A3AD"/>
<path d="M2.09918 8.55291C2.83136 8.55291 3.42492 7.95935 3.42492 7.22717C3.42492 6.49498 2.83136 5.90143 2.09918 5.90143C1.36699 5.90143 0.773438 6.49498 0.773438 7.22717C0.773438 7.95935 1.36699 8.55291 2.09918 8.55291Z" fill="#00A3AD"/>
<path fill-rule="evenodd" clip-rule="evenodd" d="M112.135 24.5723V17.0045C113.185 18.4408 114.953 19.1036 116.665 19.1589C120.311 19.1589 123.018 16.2312 123.018 12.6959C123.018 9.16058 120.366 6.23291 116.665 6.23291C115.008 6.23291 113.13 7.0615 112.08 8.49771V6.45387H110.257V24.5723H112.135ZM116.554 7.94535C119.095 7.94535 121.084 10.0444 121.084 12.6407C121.084 15.2921 119.095 17.3912 116.554 17.336C113.903 17.336 111.914 15.2369 111.914 12.6407C111.914 10.0997 113.903 7.94535 116.554 7.94535Z" fill="#00A3AD"/>
<path d="M125.006 6.45386H126.94V8.22151C127.603 7.06149 128.818 6.45386 130.365 6.45386H131.911V8.22151H130.365C127.879 8.22151 126.94 9.54725 126.94 12.4197V18.8274H125.006V6.45386Z" fill="#00A3AD"/>
<path d="M133.789 6.45386H135.722V12.5302V18.8274H133.789V12.5302V6.45386Z" fill="#00A3AD"/>
<path d="M138.153 6.45381H140.032V8.2767C140.915 7.0062 142.407 6.17761 144.23 6.17761C147.544 6.17761 149.588 8.38718 149.588 11.9225V18.8274H147.655V11.9777C147.655 9.5472 146.439 7.94526 143.953 7.94526C141.689 7.94526 140.032 9.71292 140.032 11.9777V18.8274H138.098V6.45381H138.153Z" fill="#00A3AD"/>
<path d="M156.382 12.8615L153.896 15.4025V18.8274H152.018V0.76416H153.896V13.193L160.47 6.45379H162.9L157.763 11.7015L162.9 18.8274H160.691L156.382 12.8615Z" fill="#00A3AD"/>
<path d="M164.392 0.76416H166.325V12.5301V18.8274H164.392V12.5301V0.76416Z" fill="#00A3AD"/>
<path fill-rule="evenodd" clip-rule="evenodd" d="M174.667 6.17761C170.966 6.17761 168.259 9.05005 168.259 12.7511C168.259 16.3968 170.855 19.1036 174.777 19.1036C177.539 19.1036 179.472 17.8331 180.632 15.6787L178.975 14.8502C178.202 16.3416 176.766 17.3912 174.777 17.3912C172.346 17.3912 170.358 15.6787 170.137 13.2482H181.019V12.4196C181.019 8.60813 178.257 6.17761 174.667 6.17761ZM179.086 11.5358H170.248C170.745 9.43676 172.457 7.94531 174.722 7.94531C177.097 7.94531 178.754 9.32628 179.086 11.5358Z" fill="#00A3AD"/>
<path d="M134.729 3.85759C135.461 3.85759 136.054 3.26404 136.054 2.53185C136.054 1.79967 135.461 1.20612 134.729 1.20612C133.996 1.20612 133.403 1.79967 133.403 2.53185C133.403 3.26404 133.996 3.85759 134.729 3.85759Z" fill="#00A3AD"/>
<path fill-rule="evenodd" clip-rule="evenodd" d="M178.919 2.8633H179.803V5.18334H180.355V2.8633H181.239V2.36615H178.919V2.8633ZM182.012 2.36615H181.57V5.18334H182.123V3.24998L183.117 4.52048L184.111 3.30521V5.18334H184.664V2.36615H184.167L183.062 3.74713L182.012 2.36615Z" fill="#00A3AD"/>
<path d="M96.1714 15.7893L97.8286 14.574C99.0438 16.4521 100.535 17.3912 102.579 17.3912C104.844 17.3912 106.446 15.955 106.446 13.9664C106.446 11.7568 104.292 11.0387 102.027 10.2654C99.541 9.43677 96.9447 8.38723 96.9447 5.2386C96.9447 2.58712 99.32 0.543274 102.524 0.543274C105.065 0.543274 106.833 1.53758 108.103 3.24999L106.556 4.41001C105.617 2.97379 104.292 2.25569 102.469 2.25569C100.425 2.25569 98.8781 3.52619 98.8781 5.2386C98.8781 7.33768 100.977 8.00055 103.187 8.7739C105.673 9.65773 108.324 10.7073 108.324 13.9664C108.324 16.6179 106.004 19.1589 102.524 19.1589C99.5962 19.1036 97.6076 17.8884 96.1714 15.7893Z" fill="#00A3AD"/>
</svg>
