<svg width="185" height="55" viewBox="0 0 185 55" fill="none" xmlns="http://www.w3.org/2000/svg">
<path fill-rule="evenodd" clip-rule="evenodd" d="M102.651 28.2701V19.72C103.814 21.2932 105.866 22.114 107.713 22.114C111.817 22.114 114.895 18.8307 114.895 14.8635C114.895 10.8962 111.885 7.61292 107.713 7.61292C105.934 7.61292 103.746 8.57053 102.583 10.2122V7.88652H100.531V28.2701H102.651ZM107.713 9.52814C110.518 9.52814 112.775 11.9222 112.775 14.8634C112.775 17.8047 110.518 20.1303 107.713 20.1987C104.772 20.1987 102.515 17.8047 102.515 14.8634C102.515 11.9222 104.704 9.52814 107.713 9.52814Z" fill="#00A3AD"/>
<path d="M117.152 7.88647H119.273V9.87011C120.025 8.57049 121.393 7.88647 123.172 7.88647H124.882V9.87011H123.172C120.367 9.87011 119.341 11.3749 119.341 14.5898V21.8404H117.152V7.88647Z" fill="#00A3AD"/>
<path d="M127.071 7.88647H129.26V14.7266V21.8404H127.071V14.7266V7.88647Z" fill="#00A3AD"/>
<path d="M131.927 7.88652H134.048V9.93856C135.005 8.50213 136.715 7.61292 138.767 7.61292C142.529 7.61292 144.855 10.0754 144.855 14.111V21.8404H142.666V14.0426C142.666 11.3066 141.298 9.52815 138.494 9.52815C135.963 9.52815 134.048 11.5118 134.048 14.111V21.8404H131.927V7.88652H131.927Z" fill="#00A3AD"/>
<path d="M152.516 15.0687L149.712 17.9415V21.8404H147.591V1.45679H149.712V15.4791L157.167 7.88651H159.904L154.089 13.8374L159.904 21.8404H157.373L152.516 15.0687Z" fill="#00A3AD"/>
<path d="M161.545 1.45679H163.734V14.7266V21.8404H161.545V14.7266V1.45679Z" fill="#00A3AD"/>
<path fill-rule="evenodd" clip-rule="evenodd" d="M173.173 7.54449C169 7.54449 165.922 10.7594 165.922 14.9318C165.922 19.0359 168.795 22.114 173.31 22.0456C176.388 22.0456 178.577 20.6092 179.876 18.1467L178.029 17.2575C177.14 18.9675 175.567 20.1303 173.31 20.1303C170.505 20.1303 168.316 18.2151 168.043 15.4791H180.355V14.5898C180.355 10.2805 177.209 7.54449 173.173 7.54449ZM178.098 13.5638H168.111C168.659 11.2382 170.642 9.52814 173.173 9.52814C175.841 9.52814 177.688 11.033 178.098 13.5638Z" fill="#00A3AD"/>
<path d="M128.165 4.94521C128.996 4.94521 129.67 4.27147 129.67 3.44038C129.67 2.60928 128.996 1.93555 128.165 1.93555C127.334 1.93555 126.66 2.60928 126.66 3.44038C126.66 4.27147 127.334 4.94521 128.165 4.94521Z" fill="#00A3AD"/>
<path fill-rule="evenodd" clip-rule="evenodd" d="M177.893 3.78244H178.85V6.38169H179.466V3.78244H180.492V3.23523H177.893V3.78244ZM181.381 3.23523H180.902V6.45009H181.518V4.26125L182.612 5.62928L183.707 4.26125V6.38169H184.322V3.23523H183.775L182.544 4.80846L181.381 3.23523Z" fill="#00A3AD"/>
<path d="M85.8931 49.6114V48.9958H86.8507V49.4746C86.8507 50.227 87.0559 50.569 87.7399 50.569C88.4239 50.569 88.6291 50.1586 88.6291 49.4062V48.2433C88.6291 47.6277 88.3555 47.3541 87.8083 47.3541C87.3295 47.3541 87.0559 47.6277 86.8507 47.9697L86.7823 48.1749L85.8931 47.9013L86.2351 44.4813H89.4499V44.5497C89.4499 45.3021 89.3131 45.3705 88.4923 45.3705H86.9875C86.9191 45.9177 86.8507 46.8753 86.7823 47.3541C86.9875 46.9437 87.3979 46.5333 88.0819 46.6017C89.0395 46.6017 89.5183 47.2857 89.5183 48.3117V49.6114C89.5183 50.8426 88.9027 51.5266 87.6715 51.5266C86.5087 51.4582 85.8931 50.911 85.8931 49.6114Z" fill="#8E99A1"/>
<path d="M93.1436 51.3214H92.2544V45.7808H93.0068L93.0752 46.6017C93.2804 45.986 93.6224 45.644 94.3064 45.644C94.9904 45.644 95.3325 45.986 95.4693 46.5333C95.6745 45.986 96.0849 45.644 96.6321 45.644C97.5213 45.644 97.9317 46.1913 97.9317 47.3541V51.3214H97.0425V47.4909C97.0425 46.8069 96.8373 46.4649 96.2901 46.4649C95.7429 46.4649 95.5377 46.9437 95.5377 47.4909V51.3214H94.6484V47.4909C94.6484 46.8753 94.4432 46.4649 93.9644 46.4649C93.4172 46.4649 93.212 46.9437 93.212 47.6277V51.3214H93.1436Z" fill="#8E99A1"/>
<path fill-rule="evenodd" clip-rule="evenodd" d="M100.257 53.2366C99.1629 53.2366 98.6841 52.8946 98.6841 52.279C98.6841 51.8686 99.0945 51.4582 99.7101 51.3214C99.0261 51.253 98.7525 50.9794 98.7525 50.5006C98.7525 50.0217 99.0945 49.7481 99.7101 49.6113C99.2313 49.4061 98.9577 48.9957 98.9577 48.3801V47.2857C98.9577 46.4649 99.4365 45.9177 100.257 45.7809H100.394C101.147 45.6441 101.283 45.5073 101.283 44.96V44.618H102.241V44.8232C102.241 45.5073 101.967 45.8493 101.078 45.9177H101.283C101.967 46.0545 102.309 46.5333 102.309 47.2173V48.3801C102.309 49.3377 101.625 49.8849 100.599 49.8849H100.394C99.6417 49.8849 99.4365 50.0217 99.4365 50.227C99.4365 50.4322 99.5733 50.569 100.121 50.569H101.01C102.104 50.569 102.515 51.0478 102.515 51.8002C102.515 52.5526 101.967 53.2366 100.394 53.2366H100.257ZM100.6 52.4842C101.352 52.4842 101.694 52.2106 101.694 51.8686C101.694 51.595 101.489 51.3898 100.942 51.3898H100.326C99.8471 51.4582 99.5051 51.7318 99.5051 52.0738C99.5051 52.3474 99.7787 52.5526 100.258 52.5526H100.6V52.4842ZM101.352 47.2857V48.3801C101.352 48.9273 101.078 49.2009 100.531 49.2693C100.052 49.2693 99.7788 48.9957 99.7788 48.4485V47.3541C99.7788 46.9437 99.984 46.67 100.326 46.5332C100.394 46.4648 100.463 46.4648 100.6 46.4648C101.147 46.4648 101.352 46.8069 101.352 47.2857Z" fill="#8E99A1"/>
<path d="M103.267 52.0054C103.609 51.937 103.746 51.7318 103.814 51.3214C103.746 51.3214 103.746 51.3214 103.678 51.3214C103.336 51.3214 103.199 51.1846 103.199 50.7057C103.199 50.2269 103.336 50.0217 103.814 50.0217C104.225 50.0217 104.43 50.2269 104.43 50.8425C104.43 51.6634 104.088 52.2106 103.336 52.4158L103.267 52.0054Z" fill="#8E99A1"/>
<path d="M107.029 51.3214V50.4322H107.987V46.1229H107.235V45.4389C107.85 45.3705 108.055 45.1653 108.124 44.4813H108.808V50.4322H109.765V51.3214H107.029Z" fill="#8E99A1"/>
<path fill-rule="evenodd" clip-rule="evenodd" d="M110.449 46.6017V49.3378C110.449 50.7742 111.202 51.4582 112.364 51.4582C113.527 51.4582 114.28 50.7742 114.28 49.3378V46.6017C114.28 45.2337 113.527 44.4813 112.364 44.4813C111.202 44.4813 110.449 45.2337 110.449 46.6017ZM113.39 46.6017V49.2693C113.39 50.1585 113.048 50.5689 112.364 50.5689C111.612 50.5689 111.338 50.1585 111.338 49.2693V46.6017C111.338 45.7125 111.612 45.2336 112.364 45.2336C113.117 45.2336 113.39 45.7125 113.39 46.6017Z" fill="#8E99A1"/>
<path d="M117.974 51.3214H117.084V45.7808H117.837L117.905 46.6017C118.11 45.986 118.452 45.644 119.137 45.644C119.821 45.644 120.163 45.986 120.299 46.5333C120.505 45.986 120.915 45.644 121.462 45.644C122.351 45.644 122.762 46.1913 122.762 47.3541V51.3214H121.873V47.4909C121.873 46.8069 121.667 46.4649 121.12 46.4649C120.573 46.4649 120.368 46.9437 120.368 47.4909V51.3214H119.479V47.4909C119.479 46.8753 119.273 46.4649 118.726 46.4649C118.179 46.4649 117.974 46.9437 117.974 47.6277V51.3214Z" fill="#8E99A1"/>
<path fill-rule="evenodd" clip-rule="evenodd" d="M125.019 53.2366C123.924 53.2366 123.445 52.8946 123.445 52.279C123.445 51.8686 123.856 51.4582 124.471 51.3214C123.787 51.253 123.514 50.9794 123.514 50.5006C123.514 50.0217 123.856 49.7481 124.471 49.6113C123.993 49.4061 123.719 48.9957 123.719 48.3801V47.2857C123.719 46.4649 124.198 45.9177 125.019 45.7809H125.155C125.839 45.6441 126.045 45.5073 126.045 44.96V44.618H127.002V44.8232C127.002 45.5073 126.729 45.8493 125.839 45.9177H126.045C126.729 46.0545 127.071 46.5333 127.071 47.2173V48.3801C127.071 49.3377 126.387 49.8849 125.361 49.8849H125.224C124.471 49.8849 124.266 50.0217 124.266 50.227C124.266 50.4322 124.403 50.569 124.95 50.569H125.839C126.934 50.569 127.344 51.0478 127.344 51.8002C127.344 52.5526 126.797 53.2366 125.224 53.2366H125.019ZM125.361 52.4842C126.113 52.4842 126.455 52.2106 126.455 51.8686C126.455 51.595 126.25 51.3898 125.703 51.3898H125.087C124.608 51.4582 124.266 51.7318 124.266 52.0738C124.266 52.3474 124.54 52.5526 125.019 52.5526H125.361V52.4842ZM126.181 47.2857V48.3801C126.181 48.9273 125.908 49.2009 125.361 49.2693C124.882 49.2693 124.608 48.9957 124.608 48.4485V47.3541C124.608 46.9437 124.813 46.67 125.155 46.5332C125.224 46.4648 125.292 46.4648 125.429 46.4648C125.976 46.4648 126.181 46.8069 126.181 47.2857Z" fill="#8E99A1"/>
<path d="M128.097 52.0054C128.439 51.937 128.576 51.7318 128.644 51.3214C128.576 51.3214 128.576 51.3214 128.507 51.3214C128.165 51.3214 128.028 51.1846 128.028 50.7057C128.028 50.2269 128.165 50.0217 128.644 50.0217C129.054 50.0217 129.26 50.2269 129.26 50.8425C129.26 51.6634 128.918 52.2106 128.165 52.4158L128.097 52.0054Z" fill="#8E99A1"/>
<path d="M131.928 51.3214V50.569C131.928 49.2693 132.749 48.5853 133.501 48.0381C134.117 47.5593 134.732 47.0805 134.732 46.3965V46.1229C134.732 45.5073 134.527 45.1653 133.843 45.1653C133.227 45.1653 132.954 45.4389 132.954 46.0545V47.0121H132.065V46.0545C132.065 44.9601 132.749 44.4128 133.911 44.4128C135.074 44.4128 135.69 45.0285 135.69 46.1229V46.3965C135.69 47.4225 135.006 47.9697 134.322 48.5853C133.638 49.1325 133.022 49.6113 133.022 50.5006H135.69V51.3898H131.928V51.3214Z" fill="#8E99A1"/>
<path fill-rule="evenodd" clip-rule="evenodd" d="M136.442 46.6017V49.3378C136.442 50.7742 137.194 51.4582 138.357 51.4582C139.52 51.4582 140.272 50.7742 140.272 49.3378V46.6017C140.272 45.2337 139.52 44.4813 138.357 44.4813C137.194 44.4813 136.442 45.2337 136.442 46.6017ZM139.383 46.6017V49.2693C139.383 50.1585 139.11 50.5689 138.357 50.5689C137.605 50.5689 137.331 50.1585 137.331 49.2693V46.6017C137.331 45.7125 137.605 45.2336 138.357 45.2336C139.11 45.2336 139.383 45.7125 139.383 46.6017Z" fill="#8E99A1"/>
<path d="M143.966 51.3214H143.077V45.7808H143.829L143.897 46.6017C144.103 45.986 144.445 45.644 145.129 45.644C145.813 45.644 146.155 45.986 146.292 46.5333C146.497 45.986 146.907 45.644 147.454 45.644C148.344 45.644 148.754 46.1913 148.754 47.3541V51.3214H147.865V47.4909C147.865 46.8069 147.66 46.4649 147.112 46.4649C146.565 46.4649 146.36 46.9437 146.36 47.4909V51.3214H145.471V47.4909C145.471 46.8753 145.266 46.4649 144.787 46.4649C144.239 46.4649 144.034 46.9437 144.034 47.6277V51.3214H143.966Z" fill="#8E99A1"/>
<path fill-rule="evenodd" clip-rule="evenodd" d="M151.08 53.2366C149.985 53.2366 149.506 52.8946 149.506 52.279C149.506 51.8686 149.917 51.4582 150.532 51.3214C149.848 51.253 149.575 50.9794 149.575 50.5006C149.575 50.0217 149.917 49.7481 150.532 49.6113C150.054 49.4061 149.78 48.9957 149.78 48.3801V47.2857C149.78 46.4649 150.259 45.9177 151.08 45.7809H151.216C151.969 45.6441 152.106 45.5073 152.106 44.96V44.618H153.063V44.8232C153.063 45.5073 152.79 45.8493 151.9 45.9177H152.106C152.79 46.0545 153.132 46.5333 153.132 47.2173V48.3801C153.132 49.3377 152.448 49.8849 151.422 49.8849H151.285C150.532 49.8849 150.327 50.0217 150.327 50.227C150.327 50.4322 150.464 50.569 151.011 50.569H151.9C152.995 50.569 153.405 51.0478 153.405 51.8002C153.405 52.5526 152.858 53.2366 151.285 53.2366H151.08ZM151.422 52.4842C152.174 52.4842 152.516 52.2106 152.516 51.8686C152.516 51.595 152.311 51.3898 151.764 51.3898H151.148C150.669 51.4582 150.327 51.7318 150.327 52.0738C150.327 52.3474 150.601 52.5526 151.08 52.5526H151.422V52.4842ZM152.174 47.2857V48.3801C152.174 48.9273 151.901 49.2009 151.353 49.2693C150.875 49.2693 150.601 48.9957 150.601 48.4485V47.3541C150.601 46.9437 150.806 46.67 151.148 46.5332C151.217 46.4648 151.285 46.4648 151.422 46.4648C151.969 46.4648 152.174 46.8069 152.174 47.2857Z" fill="#8E99A1"/>
<path d="M154.089 52.0054C154.431 51.937 154.568 51.7318 154.637 51.3214C154.568 51.3214 154.568 51.3214 154.5 51.3214C154.158 51.3214 154.021 51.1846 154.021 50.7057C154.021 50.2269 154.158 50.0217 154.637 50.0217C155.047 50.0217 155.252 50.2269 155.252 50.8425C155.252 51.6634 154.91 52.2106 154.158 52.4158L154.089 52.0054Z" fill="#8E99A1"/>
<path fill-rule="evenodd" clip-rule="evenodd" d="M161.066 51.3214V49.8166H161.887V48.9958H161.066V44.4813H160.245L157.783 49.1326V49.8166H160.245V51.3214H161.066ZM160.245 49.0641H158.741L160.109 46.4649L160.382 45.5073L160.245 46.5333V49.0641Z" fill="#8E99A1"/>
<path fill-rule="evenodd" clip-rule="evenodd" d="M162.571 46.6017V49.3378C162.571 50.7742 163.255 51.4582 164.486 51.4582C165.649 51.4582 166.401 50.7742 166.401 49.3378V46.6017C166.401 45.2337 165.649 44.4813 164.486 44.4813C163.323 44.4813 162.571 45.2337 162.571 46.6017ZM165.512 46.6017V49.2693C165.512 50.1585 165.17 50.5689 164.486 50.5689C163.734 50.5689 163.46 50.1585 163.46 49.2693V46.6017C163.46 45.7125 163.734 45.2336 164.486 45.2336C165.238 45.2336 165.512 45.7125 165.512 46.6017Z" fill="#8E99A1"/>
<path d="M170.027 51.3214H169.138V45.7808H169.89L169.959 46.6017C170.164 45.986 170.506 45.644 171.19 45.644C171.874 45.644 172.216 45.986 172.353 46.5333C172.558 45.986 172.968 45.644 173.515 45.644C174.405 45.644 174.815 46.1913 174.815 47.3541V51.3214H173.926V47.4909C173.926 46.8069 173.721 46.4649 173.173 46.4649C172.626 46.4649 172.421 46.9437 172.421 47.4909V51.3214H171.532V47.4909C171.532 46.8753 171.327 46.4649 170.848 46.4649C170.301 46.4649 170.095 46.9437 170.095 47.6277V51.3214H170.027Z" fill="#8E99A1"/>
<path fill-rule="evenodd" clip-rule="evenodd" d="M177.141 53.2366C176.046 53.2366 175.567 52.8946 175.567 52.279C175.567 51.8686 175.978 51.4582 176.593 51.3214C175.909 51.253 175.636 50.9794 175.636 50.5006C175.636 50.0217 175.978 49.7481 176.593 49.6113C176.115 49.4061 175.841 48.9957 175.841 48.3801V47.2857C175.841 46.4649 176.32 45.9177 177.141 45.7809H177.277C178.03 45.6441 178.167 45.5073 178.167 44.96V44.618H179.124V44.8232C179.124 45.5073 178.851 45.8493 177.961 45.9177H178.167C178.851 46.0545 179.193 46.5333 179.193 47.2173V48.3801C179.193 49.3377 178.509 49.8849 177.483 49.8849H177.346C176.662 49.8849 176.388 50.0217 176.388 50.227C176.388 50.4322 176.525 50.569 177.072 50.569H177.961C179.056 50.569 179.466 51.0478 179.466 51.8002C179.466 52.5526 178.919 53.2366 177.346 53.2366H177.141ZM177.483 52.4842C178.235 52.4842 178.577 52.2106 178.577 51.8686C178.577 51.595 178.372 51.3898 177.825 51.3898H177.209C176.73 51.4582 176.388 51.7318 176.388 52.0738C176.388 52.3474 176.662 52.5526 177.141 52.5526H177.483V52.4842ZM178.235 47.2857V48.3801C178.235 48.9273 177.962 49.2009 177.415 49.2693C176.936 49.2693 176.662 48.9957 176.662 48.4485V47.3541C176.662 46.9437 176.867 46.67 177.209 46.5332C177.278 46.4648 177.346 46.4648 177.483 46.4648C178.03 46.4648 178.235 46.8069 178.235 47.2857Z" fill="#8E99A1"/>
<path d="M14.9609 18.4203L22.2799 11.2381H15.0293V7.88647H27.41V11.3065L20.091 18.4203H27.6152V21.8404H14.9609V18.4203Z" fill="#612141"/>
<path fill-rule="evenodd" clip-rule="evenodd" d="M35.1394 7.61292C31.9929 7.61292 28.3677 9.93856 28.3677 14.8635C28.3677 19.7884 32.1982 22.114 35.071 22.114C36.9178 22.114 38.4227 21.3616 39.3119 20.2672V21.8404H43.1424V7.88652H39.3119V9.25455C38.3543 8.29693 36.9862 7.61292 35.1394 7.61292ZM35.8921 11.033C37.9442 11.033 39.449 12.743 39.449 14.795C39.449 16.9155 37.9442 18.5571 35.8921 18.5571C33.7717 18.5571 32.13 16.9155 32.13 14.795C32.13 12.6062 33.7717 11.033 35.8921 11.033Z" fill="#612141"/>
<path d="M49.0937 1.45679V11.6486V21.8404H45.2632V11.6486V1.45679H49.0937Z" fill="#612141"/>
<path d="M55.0443 1.45679V11.6486V21.8404H51.2139V11.6486V1.45679H55.0443Z" fill="#612141"/>
<path fill-rule="evenodd" clip-rule="evenodd" d="M63.7994 7.61292C59.7637 7.61292 56.5488 10.8278 56.5488 14.8635C56.5488 18.8991 59.7637 22.114 63.7994 22.114C67.8351 22.114 71.0499 18.8991 71.0499 14.8635C71.0499 10.8278 67.8351 7.61292 63.7994 7.61292ZM63.8679 11.2382C65.7831 11.2382 67.3563 12.8798 67.3563 14.8634C67.3563 16.8471 65.7831 18.4887 63.8679 18.4887C61.8842 18.4887 60.3794 16.8471 60.3794 14.8634C60.3794 12.8798 61.8842 11.2382 63.8679 11.2382Z" fill="#612141"/>
<path d="M72.6231 7.88647H76.4536V10.2121C77.1376 8.77569 78.4372 7.88647 80.284 7.88647H81.6521V11.5801H79.3264C77.2744 11.5801 76.3852 12.6746 76.3852 15.2738V21.8404H72.5547V7.88647H72.6231Z" fill="#612141"/>
<path d="M4.76899 6.10803V9.7333H12.9772V13.427H4.76899V18.0783H12.9772V21.8403H0.870117V6.10803H4.76899Z" fill="#612141"/>
<path d="M84.6621 18.3519L86.5089 16.9839C87.877 19.1043 89.587 20.1303 91.8443 20.1303C94.3751 20.1303 96.1535 18.4887 96.1535 16.2999C96.1535 13.769 93.6911 13.0166 91.1602 12.1274C88.3558 11.1698 85.4829 10.0069 85.4829 6.45007C85.4829 3.50881 88.1506 1.18317 91.7758 1.18317C94.6487 1.18317 96.6323 2.34599 98.0688 4.26123L96.3587 5.56085C95.3327 3.91922 93.8279 3.0984 91.7758 3.0984C89.4502 3.0984 87.7402 4.53483 87.7402 6.45007C87.7402 8.77572 90.0658 9.52813 92.5967 10.4173C95.4011 11.375 98.4108 12.5378 98.4108 16.2999C98.4108 19.3095 95.8115 22.114 91.8443 22.114C88.561 22.114 86.3037 20.746 84.6621 18.3519Z" fill="#00A3AD"/>
<path d="M85.8931 40.3088V36.8887C85.8931 35.2471 86.7823 34.563 88.2187 34.563C89.6551 34.563 90.5444 35.2471 90.5444 36.6835V37.9831H88.6291V36.8203C88.6291 36.2731 88.5607 36.1363 88.2187 36.1363C87.8767 36.1363 87.8083 36.4099 87.8083 36.9571V40.1036C87.8083 40.7192 87.8767 40.9244 88.2187 40.9244C88.5607 40.9244 88.6291 40.7192 88.6291 40.172V38.9407H90.5444V40.3088C90.5444 41.9504 89.7235 42.566 88.2187 42.566C86.5771 42.6344 85.8931 41.9504 85.8931 40.3088Z" fill="#8E99A1"/>
<path fill-rule="evenodd" clip-rule="evenodd" d="M92.9387 41.6768H94.1699L94.3751 42.566H96.1535L94.4435 34.6998H92.6651L91.0234 42.566H92.8019L92.9387 41.6768ZM93.8966 40.1719H93.1442L93.4178 38.2567L93.4862 37.2991L93.5546 38.2567L93.8966 40.1719Z" fill="#8E99A1"/>
<path fill-rule="evenodd" clip-rule="evenodd" d="M98.5475 42.4976V40.1035H98.9579C100.6 40.1035 101.215 39.2827 101.215 37.9831V36.615C101.215 35.247 100.531 34.6314 98.9579 34.6314H96.769V42.4976H98.5475ZM98.5475 38.5303V36.1362H98.8895C99.2999 36.1362 99.4367 36.3414 99.4367 36.6834V37.9831C99.4367 38.3251 99.2315 38.5303 98.8895 38.5303H98.5475Z" fill="#8E99A1"/>
<path d="M102.036 40.6507V39.5563H103.882V40.6507C103.882 40.9243 103.951 41.1295 104.293 41.1295C104.566 41.1295 104.635 40.9243 104.635 40.6507V40.1719C104.635 39.6247 104.088 39.3511 103.54 39.0775C102.856 38.6671 102.036 38.1883 102.036 37.0255V36.615C102.036 35.247 102.788 34.6314 104.224 34.6314C105.593 34.6314 106.345 35.247 106.345 36.4782V37.2991H104.566V36.5466C104.566 36.2046 104.498 36.0678 104.224 36.0678C103.951 36.0678 103.882 36.2046 103.882 36.5466V36.8203C103.882 37.2307 104.361 37.5043 104.909 37.7779C105.593 38.1883 106.413 38.6671 106.413 39.8983V40.7191C106.413 42.0872 105.729 42.7028 104.156 42.7028C102.583 42.6344 102.036 41.9504 102.036 40.6507Z" fill="#8E99A1"/>
<path d="M107.508 40.3087V34.6314H109.286V40.1719C109.286 40.7191 109.423 40.9243 109.697 40.9243C109.97 40.9243 110.107 40.7875 110.107 40.1719V34.6314H111.885V40.3087C111.885 41.9504 111.065 42.6344 109.697 42.6344C108.26 42.6344 107.508 41.9504 107.508 40.3087Z" fill="#8E99A1"/>
<path d="M113.048 42.566V34.6998H114.895V40.7875H116.742V42.6344H113.048V42.566Z" fill="#8E99A1"/>
<path d="M121.53 42.566H117.7V34.6998H121.53V36.3415H119.478V37.7779H121.325V39.4195H119.478V40.856H121.53V42.566Z" fill="#8E99A1"/>
<path d="M122.351 40.6507V39.5563H124.198V40.6507C124.198 40.9243 124.266 41.1295 124.608 41.1295C124.882 41.1295 124.95 40.9243 124.95 40.6507V40.1719C124.95 39.6247 124.403 39.3511 123.856 39.0775C123.172 38.6671 122.351 38.1883 122.351 37.0255V36.615C122.351 35.247 123.103 34.6314 124.54 34.6314C125.908 34.6314 126.66 35.247 126.66 36.4782V37.2991H124.882V36.5466C124.882 36.2046 124.814 36.0678 124.54 36.0678C124.266 36.0678 124.198 36.2046 124.198 36.5466V36.8203C124.198 37.2307 124.677 37.5043 125.224 37.7779C125.908 38.1883 126.729 38.6671 126.729 39.8983V40.7191C126.729 42.0872 126.045 42.7028 124.472 42.7028C122.967 42.6344 122.351 41.9504 122.351 40.6507Z" fill="#8E99A1"/>
<path d="M11.4726 3.98763C12.3037 3.98763 12.9774 3.31389 12.9774 2.4828C12.9774 1.6517 12.3037 0.977966 11.4726 0.977966C10.6415 0.977966 9.96777 1.6517 9.96777 2.4828C9.96777 3.31389 10.6415 3.98763 11.4726 3.98763Z" fill="#00A3AD"/>
<path d="M2.78559 3.98763C3.61669 3.98763 4.29042 3.31389 4.29042 2.4828C4.29042 1.6517 3.61669 0.977966 2.78559 0.977966C1.9545 0.977966 1.28076 1.6517 1.28076 2.4828C1.28076 3.31389 1.9545 3.98763 2.78559 3.98763Z" fill="#00A3AD"/>
<path d="M7.16352 3.98763C7.99462 3.98763 8.66835 3.31389 8.66835 2.4828C8.66835 1.6517 7.99462 0.977966 7.16352 0.977966C6.33243 0.977966 5.65869 1.6517 5.65869 2.4828C5.65869 3.31389 6.33243 3.98763 7.16352 3.98763Z" fill="#00A3AD"/>
<path d="M0.870117 49.6113V36.4783C0.870117 33.7422 1.75933 32.9898 4.08498 32.9898V34.7682C2.92216 34.7682 2.64855 35.1102 2.64855 36.4783V49.6113C2.64855 50.9794 2.92216 51.3214 4.08498 51.3214V53.0998C1.62253 53.0998 0.870117 52.3474 0.870117 49.6113Z" fill="#8E99A1"/>
<path fill-rule="evenodd" clip-rule="evenodd" d="M7.9156 51.253V44.1392V44.0024H8.39441C9.01002 44.0024 9.21523 44.276 9.21523 45.0285V50.1586C9.21523 50.6374 9.28363 51.0478 9.42043 51.1846H11.2673C11.0621 50.911 10.9937 50.569 10.9937 50.1586V44.8917C10.9937 43.934 10.7201 43.3868 10.036 43.1816C10.6517 42.908 10.9253 42.3608 10.9253 41.4032V36.6835C10.9253 35.1787 10.2412 34.563 8.46281 34.563H6.20557V51.253H7.9156ZM7.91582 42.4976V36.1363V36.0679H8.32623C9.07864 36.0679 9.28385 36.2731 9.28385 36.9571V41.6084C9.28385 42.224 9.01024 42.4976 8.39463 42.4976H7.91582Z" fill="#8E99A1"/>
<path fill-rule="evenodd" clip-rule="evenodd" d="M12.8408 36.8887V49.0641C12.8408 50.7742 13.7984 51.5266 15.3717 51.5266C16.8765 51.5266 17.8341 50.7742 17.8341 49.0641V36.8887C17.8341 35.3154 16.9449 34.4946 15.3717 34.4946C13.7984 34.4946 12.8408 35.3154 12.8408 36.8887ZM16.0557 36.9571V48.7905C16.0557 49.4745 15.8505 49.8165 15.3717 49.7481C14.8245 49.7481 14.6193 49.4745 14.6193 48.7905V36.9571C14.6193 36.2731 14.7561 35.9995 15.3033 35.9995C15.8505 35.9995 16.0557 36.2731 16.0557 36.9571Z" fill="#8E99A1"/>
<path d="M19.6123 49.0641V44.4812H21.3223V48.8589C21.3223 49.5429 21.4591 49.8165 21.938 49.8165C22.4168 49.8165 22.622 49.5429 22.622 48.9273V44.8916C22.622 44.0708 22.3484 43.934 21.3223 43.3184C20.1595 42.566 19.6807 42.0188 19.6807 40.7876V36.7519C19.6807 35.3154 20.5015 34.4946 22.0748 34.4946C23.5796 34.4946 24.2636 35.3154 24.332 36.5467V40.9244H22.6904V36.9571C22.6904 36.2731 22.5536 36.0679 22.0748 36.0679C21.5959 36.0679 21.4591 36.2731 21.4591 36.9571V40.5823C21.4591 41.2664 21.6643 41.4032 22.8272 42.224C23.9216 42.9764 24.332 43.3868 24.332 44.6864V49.0641C24.332 50.7741 23.5112 51.5266 21.938 51.5266C20.3647 51.5266 19.6123 50.7741 19.6123 49.0641Z" fill="#8E99A1"/>
<path d="M26.1787 49.0641V34.6314H27.9571V48.8589C27.9571 49.5429 28.0939 49.8165 28.5728 49.8165C29.0516 49.8165 29.1884 49.5429 29.1884 48.8589V34.6314H30.9668V49.0641C30.9668 50.7741 30.146 51.5265 28.5728 51.5265C26.9995 51.5265 26.1787 50.7741 26.1787 49.0641Z" fill="#8E99A1"/>
<path d="M34.1134 51.3213L32.2666 34.6314H33.9766L34.7975 44.276L34.9343 47.8329L35.0711 44.276L35.8919 34.6314H37.5335L35.8235 51.3213H34.1134Z" fill="#8E99A1"/>
<path fill-rule="evenodd" clip-rule="evenodd" d="M40.1324 49.2694H41.5689L41.7741 51.3214H43.4841L41.7741 34.6315H39.9956L38.354 51.3214H39.9956L40.1324 49.2694ZM41.5005 47.6277H40.2693L40.7481 41.54L40.8849 37.7779L41.0217 41.54L41.5005 47.6277Z" fill="#8E99A1"/>
<path d="M44.7158 49.0641V44.4812H46.4259V48.8589C46.4259 49.5429 46.5627 49.8165 47.0415 49.8165C47.5203 49.8165 47.7255 49.5429 47.7255 48.9273V44.8916C47.7255 44.0708 47.4519 43.934 46.4259 43.3184C45.263 42.566 44.7842 42.0188 44.7842 40.7876V36.7519C44.7842 35.3154 45.605 34.4946 47.1783 34.4946C48.6831 34.4946 49.3671 35.3154 49.4355 36.5467V40.9244H47.7255V36.9571C47.7255 36.2731 47.5887 36.0679 47.1099 36.0679C46.6311 36.0679 46.4943 36.2731 46.4943 36.9571V40.5823C46.4943 41.2664 46.6995 41.4032 47.8623 42.224C48.9567 42.9764 49.3671 43.3868 49.3671 44.6864V49.0641C49.3671 50.7741 48.5463 51.5266 46.9731 51.5266C45.4682 51.5266 44.7158 50.7741 44.7158 49.0641Z" fill="#8E99A1"/>
<path d="M53.6762 36.3414V51.3213H51.9662V36.3414H50.5981V34.6314H55.0442V36.3414H53.6762Z" fill="#8E99A1"/>
<path fill-rule="evenodd" clip-rule="evenodd" d="M57.3009 49.2694H58.7373L58.9425 51.3214H60.6526L58.9425 34.6315H57.1641L55.5225 51.3214H57.1641L57.3009 49.2694ZM58.6008 47.6277H57.3696L57.8484 41.54L57.9852 37.7779L58.122 41.54L58.6008 47.6277Z" fill="#8E99A1"/>
<path d="M64.0732 36.3414V51.3213H62.3631V36.3414H60.9951V34.6314H65.4412V36.3414H64.0732Z" fill="#8E99A1"/>
<path d="M66.1938 51.3214V49.6797H67.1515V36.3415H66.1938V34.6998H69.7507V36.3415H68.7931V49.6797H69.7507V51.3214H66.1938Z" fill="#8E99A1"/>
<path d="M72.8286 51.3214H71.3237V34.6315H72.6918L74.6754 44.0024L75.0858 46.4649L74.8122 42.908V34.563H76.3854V51.253H75.0858L73.1022 41.8136L72.6918 39.3511L72.9654 42.7712V51.3214H72.8286Z" fill="#8E99A1"/>
<path d="M78.4375 51.3214C79.6003 51.3214 79.8739 50.9794 79.8739 49.6113V36.4783C79.8739 35.1102 79.6003 34.7682 78.4375 34.7682V32.9898C80.7631 32.9898 81.6524 33.7422 81.6524 36.4783V49.6113C81.6524 52.3474 80.8999 53.0998 78.4375 53.0998V51.3214Z" fill="#8E99A1"/>
</svg>
