<svg width="191" height="61" viewBox="0 0 191 61" fill="none" xmlns="http://www.w3.org/2000/svg">
<path d="M1.18433 1.53339H10.9864V12.2083H20.1172V1.53339H29.8522V32.2825H20.1172V20.0634H10.9864V32.2825H1.18433V1.53339Z" fill="#3799D4"/>
<path fill-rule="evenodd" clip-rule="evenodd" d="M53.216 1.53333H43.6825L32.0005 32.2824H41.8026L43.2125 27.9185H53.2832L54.6259 32.2824H64.7637L53.216 1.53333ZM48.5163 11.8054L51.3361 21.2718H45.3608L48.4492 11.8054H48.5163Z" fill="#3799D4"/>
<path d="M66.9792 1.53339H76.7142V24.3602H90.746V32.2825H66.9792V1.53339Z" fill="#3799D4"/>
<path fill-rule="evenodd" clip-rule="evenodd" d="M126.128 16.9079C126.128 7.50864 119.75 0.794861 110.082 0.794861C100.414 0.794861 94.0359 7.50864 94.0359 16.9079C94.0359 26.3072 100.414 33.021 110.082 33.021C119.683 33.021 126.128 26.3072 126.128 16.9079ZM116.393 16.9079C116.393 23.756 112.566 25.3673 110.082 25.3673C107.598 25.3673 103.771 23.756 103.771 16.9079C103.771 10.0599 107.598 8.44855 110.082 8.44855C112.566 8.44855 116.393 10.0599 116.393 16.9079Z" fill="#3799D4"/>
<path d="M153.52 29.127C151.372 31.8125 147.948 33.021 144.523 33.021C135.124 33.021 129.35 25.9715 129.35 17.2436C129.35 5.49451 137.81 0.794861 144.993 0.794861C153.05 0.794861 158.152 5.02454 159.629 12.2754H150.23C149.895 10.0599 147.948 8.44857 145.598 8.44857C138.884 8.44857 139.085 15.2966 139.085 17.3779C139.085 20.2648 140.294 25.3002 146.202 25.3002C148.485 25.3002 150.767 24.1588 151.237 21.8761H146.94V15.2966H159.898V32.2154H153.721L153.52 29.127Z" fill="#3799D4"/>
<path fill-rule="evenodd" clip-rule="evenodd" d="M178.227 10.9326C178.227 6.50155 174.534 3.61462 170.439 3.61462C166.276 3.61462 162.651 6.50155 162.651 10.9326C162.651 15.4309 166.343 18.3178 170.439 18.3178C174.534 18.3178 178.227 15.4309 178.227 10.9326ZM176.146 10.9326C176.146 14.2895 173.594 16.7065 170.439 16.7065C167.216 16.7065 164.732 14.2895 164.732 10.9326C164.732 7.57573 167.283 5.15877 170.439 5.15877C173.594 5.15877 176.146 7.57573 176.146 10.9326ZM167.485 6.83725H170.64C172.789 6.83725 173.997 7.50863 173.997 9.25421C173.997 10.7984 173.057 11.3355 171.782 11.4698L174.064 15.0952H172.319L170.238 11.604H169.163V15.0952H167.485V6.83725ZM170.573 10.2612H169.096V8.11283H170.506C171.244 8.11283 172.251 8.2471 172.251 9.11989C172.251 10.127 171.513 10.2612 170.573 10.2612Z" fill="#3799D4"/>
<path d="M4.94404 39.6005C3.19845 42.4875 2.59421 45.9115 2.59421 49.2684C2.59421 52.7595 3.39987 55.8479 4.94404 58.9362H3.86983C1.8557 56.1836 0.714355 52.6924 0.714355 49.2684C0.781493 45.8443 1.8557 42.4203 3.86983 39.6005H4.94404Z" fill="#3799D4"/>
<path d="M15.2831 54.9751H13.4032V47.5899H8.16648V54.9751H6.28662V39.6005H8.16648V45.8443H13.4032V39.6005H15.2831V54.9751Z" fill="#3799D4"/>
<path fill-rule="evenodd" clip-rule="evenodd" d="M21.3256 43.1589C18.573 43.1589 17.4316 44.3003 17.4316 46.9187V47.0529H19.1772V46.9187C19.1772 46.5158 19.1772 44.636 21.1242 44.636C22.3327 44.636 23.0041 45.2402 23.0041 46.3144C23.0041 47.2543 23.0041 47.6572 21.6613 48.06L19.2444 48.7985C17.7673 49.2013 17.0959 50.3427 17.0959 51.954C17.0959 54.0353 18.103 55.3109 20.2514 55.3109C21.3256 55.3109 22.3998 54.6395 23.0041 53.6324H23.0712C23.1384 55.1095 24.0111 55.1095 24.6825 55.1095C24.9888 55.1095 25.295 55.0524 25.5084 55.0127C25.6224 54.9915 25.71 54.9752 25.7567 54.9752V53.6996C25.6896 53.7667 25.6224 53.8338 25.3539 53.8338C24.8168 53.8338 24.8168 53.3639 24.8168 52.8939V46.4487C24.8168 45.2402 24.8168 43.1589 21.3256 43.1589ZM21.1384 49.5498C21.8466 49.337 22.5976 49.1114 23.0041 48.6642V51.5511C23.0041 52.7596 21.8628 53.7667 20.6543 53.7667C19.4458 53.7667 19.043 52.961 19.043 51.8197C19.043 50.8126 19.3116 50.3427 19.9158 50.007C20.2336 49.8215 20.6769 49.6884 21.1384 49.5498Z" fill="#3799D4"/>
<path d="M27.3682 39.6005H29.1809V54.9079H27.3682V39.6005Z" fill="#3799D4"/>
<path d="M37.1703 46.9186C37.1703 45.7772 36.7004 44.5016 35.3576 44.5016C34.2163 44.5016 33.0749 45.0387 33.0749 49.2684C33.0749 50.7454 33.0749 53.7666 35.2905 53.7666C36.8346 53.7666 37.1703 52.1553 37.1703 50.8797H38.9831C38.9831 52.6924 38.1103 55.1765 35.2233 55.1765C32.4035 55.1765 31.1951 53.2295 31.1951 49.2684C31.1951 46.3815 31.7322 43.0917 35.2905 43.0917C38.446 43.0917 38.9831 45.5758 38.9831 46.9186H37.1703Z" fill="#3799D4"/>
<path fill-rule="evenodd" clip-rule="evenodd" d="M42.7429 39.6006H40.9302V41.6819H42.7429V39.6006ZM42.7429 43.4274H40.9302V54.9751H42.7429V43.4274Z" fill="#3799D4"/>
<path d="M45.2268 43.4274H46.9724V44.7702H47.0395C47.5095 43.696 48.718 43.0917 49.8593 43.0917C52.8805 43.0917 52.8805 45.3744 52.8805 46.7172V54.908H51.0678V46.9857C51.0678 46.1129 51.0007 44.6359 49.3894 44.6359C48.4494 44.6359 47.1067 45.3073 47.1067 46.9857V54.908H45.2939V43.4274H45.2268Z" fill="#3799D4"/>
<path fill-rule="evenodd" clip-rule="evenodd" d="M62.8842 49.2013C62.8842 45.9787 62.0785 43.1589 58.7216 43.1589C55.4319 43.1589 54.5591 45.9787 54.5591 49.2013C54.5591 52.424 55.3647 55.2437 58.7216 55.2437C62.0785 55.2437 62.8842 52.424 62.8842 49.2013ZM58.7217 44.5688C60.6687 44.5688 61.0044 46.7172 61.0044 49.2013C61.0044 51.6854 60.6015 53.8338 58.7217 53.8338C56.8418 53.8338 56.5061 51.6854 56.5061 49.2013C56.5061 46.7172 56.909 44.5688 58.7217 44.5688Z" fill="#3799D4"/>
<path d="M64.6965 43.4274H66.4421V44.7702H66.5093C66.9792 43.696 68.1877 43.0917 69.329 43.0917C72.3502 43.0917 72.3502 45.3744 72.3502 46.7172V54.908H70.5375V46.9857C70.5375 46.1129 70.4704 44.6359 68.8591 44.6359C67.9191 44.6359 66.5764 45.3073 66.5764 46.9857V54.908H64.7637V43.4274H64.6965Z" fill="#3799D4"/>
<path fill-rule="evenodd" clip-rule="evenodd" d="M76.5129 39.6006H74.7002V41.6819H76.5129V39.6006ZM76.5129 43.4274H74.7002V54.9751H76.5129V43.4274Z" fill="#3799D4"/>
<path fill-rule="evenodd" clip-rule="evenodd" d="M84.8381 54.9751H86.5836V39.7349H84.7709V44.8373H84.7038C84.301 43.8303 83.1596 43.226 82.1525 43.226C78.9299 43.226 78.5271 46.8515 78.5271 49.2684C78.5271 52.8939 79.5342 55.3108 82.2868 55.3108C83.4953 55.3108 84.5024 54.438 84.7709 53.5653H84.8381V54.9751ZM84.9052 49.2013C84.9052 51.8197 84.5696 53.6995 82.5554 53.6995C80.877 53.6995 80.4742 51.9539 80.4742 49.2013C80.4742 46.4486 80.877 44.7031 82.5554 44.7031C84.5024 44.7031 84.9052 46.9857 84.9052 49.2013Z" fill="#3799D4"/>
<path fill-rule="evenodd" clip-rule="evenodd" d="M92.6931 53.8338C90.5057 53.8338 90.4779 51.2163 90.4775 49.4699H96.4528V48.7314C96.4528 46.2473 96.1171 43.1589 92.6259 43.1589C89.0676 43.1589 88.5305 46.4487 88.5305 49.3356C88.5305 53.2967 89.739 55.2437 92.5588 55.2437C95.7143 55.2437 96.4528 52.3568 96.4528 51.1483H94.6401C94.6401 52.0211 94.4386 53.8338 92.6931 53.8338ZM94.6401 47.3886V47.9928H90.5447V47.59C90.5447 46.9186 90.7461 44.5688 92.6259 44.5688C94.2372 44.5688 94.6401 46.113 94.6401 47.3886Z" fill="#3799D4"/>
<path d="M98.8699 52.6924H100.817V54.5723C100.817 56.1836 100.683 57.6606 98.8699 58.1306V57.1235C99.6084 56.7879 99.8098 56.3179 99.8098 55.4451V54.908H98.8699V52.6924Z" fill="#3799D4"/>
<path d="M107.933 39.6005H109.813V50.4097C109.813 52.6924 110.552 53.6995 112.432 53.6995C114.446 53.6995 115.05 52.5581 115.05 50.4097V39.6005H116.93V50.4097C116.93 53.3638 115.453 55.2436 112.432 55.2436C109.343 55.2436 107.933 53.5652 107.933 50.4097V39.6005H107.933Z" fill="#3799D4"/>
<path d="M125.725 43.5617C125.725 41.9504 125.121 40.8091 123.308 40.8091C121.697 40.8091 120.757 41.6819 120.757 43.2932C120.757 47.59 128.008 45.0387 128.008 50.6112C128.008 54.1695 125.389 55.1766 123.241 55.1766C119.683 55.1766 118.608 53.2967 118.608 50.0741H120.488C120.488 51.8197 120.623 53.6324 123.375 53.6324C124.852 53.6324 126.061 52.5582 126.061 50.9469C126.061 46.5829 118.81 49.1342 118.81 43.4946C118.81 42.0847 119.414 39.2649 123.308 39.2649C126.262 39.2649 127.538 40.7419 127.605 43.5617H125.725Z" fill="#3799D4"/>
<path fill-rule="evenodd" clip-rule="evenodd" d="M133.916 39.6006H130.022V54.9751H131.902V48.4628H134.251C136.87 48.4628 138.683 46.9186 138.683 44.0317C138.683 39.6006 135.258 39.6006 133.916 39.6006ZM134.184 46.9186H131.902V41.2119H134.05C135.93 41.2119 136.736 42.2861 136.736 43.9645C136.736 45.9787 135.527 46.9186 134.184 46.9186Z" fill="#3799D4"/>
<path d="M139.153 58.9362C140.898 56.0493 141.502 52.6253 141.502 49.2684C141.502 45.7772 140.697 42.6889 139.153 39.6005H140.16C142.174 42.3532 143.315 45.8443 143.315 49.2684C143.315 52.6924 142.241 56.1164 140.16 58.9362H139.153Z" fill="#3799D4"/>
<path fill-rule="evenodd" clip-rule="evenodd" d="M154.594 39.8019C150.499 39.8019 150.23 44.233 150.23 47.5899C150.23 51.1482 150.432 55.2436 154.594 55.3108C158.69 55.3108 158.958 50.8125 158.958 47.5899C158.958 43.8973 158.69 39.8019 154.594 39.8019ZM157.011 47.5899C157.011 50.7454 156.944 53.8337 154.594 53.8337C152.244 53.8337 152.11 50.7454 152.177 47.5899C152.177 44.233 152.244 41.2118 154.594 41.2118C156.877 41.2118 157.011 44.233 157.011 47.5899Z" fill="#3799D4"/>
<path d="M161.308 52.6924H163.255V54.9751H161.308V52.6924Z" fill="#3799D4"/>
<path d="M166.343 42.2189C168.223 42.0846 170.036 41.8832 170.103 39.7348H171.379V54.9751H169.566V43.5617H166.343V42.2189Z" fill="#3799D4"/>
<path fill-rule="evenodd" clip-rule="evenodd" d="M187.291 39.7349H185.814L179.167 55.2437H180.644L187.291 39.7349ZM176.213 43.8974C176.213 41.749 176.481 39.802 179.033 39.802C181.584 39.802 181.852 41.749 181.852 43.8974C181.852 46.0458 181.584 47.9928 179.033 47.9928C176.414 47.9928 176.213 46.0458 176.213 43.8974ZM180.241 43.8974C180.241 42.1518 180.174 40.9434 178.966 40.9434C177.757 40.9434 177.69 42.1518 177.69 43.8974C177.69 45.643 177.757 46.8515 178.966 46.8515C180.174 46.8515 180.241 45.643 180.241 43.8974ZM184.874 51.1483C184.874 48.9998 185.142 47.0528 187.693 47.0528C190.245 47.0528 190.513 48.9998 190.513 51.1483C190.513 53.2967 190.245 55.2437 187.693 55.2437C185.142 55.2437 184.874 53.2967 184.874 51.1483ZM187.693 48.1942C188.902 48.1942 188.969 49.4027 188.969 51.1483C188.969 52.8938 188.902 54.1023 187.693 54.1023C186.485 54.1023 186.418 52.8938 186.418 51.1483C186.418 49.4027 186.485 48.1942 187.693 48.1942Z" fill="#3799D4"/>
</svg>
