<?xml version="1.0" encoding="utf-8"?>
<!-- Generator: Adobe Illustrator 25.1.0, SVG Export Plug-In . SVG Version: 6.00 Build 0)  -->
<svg version="1.1" id="Logo" xmlns="http://www.w3.org/2000/svg" xmlns:xlink="http://www.w3.org/1999/xlink" x="0px" y="0px"
	 viewBox="0 0 318.25 158.39" enable-background="new 0 0 318.25 158.39" xml:space="preserve">
<g>
	<path fill="#5F2167" d="M75.21,87.49V47.6c0-0.86,0.61-1.47,1.47-1.47h5.75c0.86,0,1.47,0.61,1.47,1.47v39.89
		c0,0.86-0.61,1.47-1.47,1.47h-5.75C75.82,88.96,75.21,88.35,75.21,87.49z"/>
	<path fill="#5F2167" d="M97.18,87.49V47.6c0-0.86,0.61-1.47,1.47-1.47h5.69c0.86,0,1.47,0.61,1.47,1.47v34.08h19.4
		c0.92,0,1.53,0.61,1.53,1.53v4.28c0,0.86-0.61,1.47-1.53,1.47H98.65C97.79,88.96,97.18,88.35,97.18,87.49z"/>
	<path fill="#5F2167" d="M132.28,72.56v-24.9c0-0.92,0.61-1.53,1.47-1.53h5.57c0.86,0,1.47,0.61,1.47,1.53v24.9
		c0,6.67,3.37,9.85,8.93,9.85s8.87-3.18,8.87-9.85v-24.9c0-0.92,0.61-1.53,1.53-1.53h5.51c0.86,0,1.47,0.61,1.47,1.53v24.9
		c0,11.75-6.73,17.01-17.38,17.01S132.28,84.31,132.28,72.56z"/>
	<path fill="#5F2167" d="M177.81,87.49V47.66c0-0.92,0.61-1.53,1.53-1.53h4.83c1.16,0,1.65,0.8,1.84,1.16l11.81,22.03l11.93-22.03
		c0.18-0.37,0.67-1.16,1.83-1.16h4.77c0.92,0,1.53,0.61,1.53,1.53v39.83c0,0.86-0.61,1.47-1.53,1.47h-5.14
		c-0.86,0-1.47-0.61-1.47-1.47V61l-8.57,16.34c-0.43,0.73-0.98,1.35-2.08,1.35h-2.51c-1.1,0-1.65-0.61-2.08-1.35L185.94,61v26.49
		c0,0.86-0.61,1.47-1.47,1.47h-5.14C178.42,88.96,177.81,88.35,177.81,87.49z"/>
	<path fill="#5F2167" d="M240.22,87.49V73.66l-14.44-25.58c-0.12-0.18-0.18-0.43-0.18-0.67c0-0.73,0.55-1.29,1.22-1.29h5.45
		c0.98,0,1.59,0.67,1.83,1.16l10.4,17.81l10.34-17.81c0.31-0.49,0.92-1.16,1.9-1.16h5.38c0.73,0,1.29,0.55,1.29,1.29
		c0,0.24-0.06,0.49-0.18,0.67l-14.44,25.58v13.83c0,0.86-0.67,1.47-1.53,1.47h-5.57C240.83,88.96,240.22,88.35,240.22,87.49z"/>
	<path fill="#5F2167" d="M262.61,87.68c0-0.12,0.06-0.37,0.12-0.55l14.75-39.47c0.24-0.86,0.92-1.53,2.14-1.53h6.67
		c1.22,0,1.84,0.67,2.14,1.53l14.75,39.47c0.06,0.18,0.06,0.43,0.06,0.55c0,0.73-0.55,1.29-1.22,1.29h-5.32
		c-1.16,0-1.65-0.73-1.77-1.16l-2.88-7.46h-18.17L271,87.8c-0.18,0.43-0.67,1.16-1.77,1.16h-5.32
		C263.23,88.96,262.61,88.41,262.61,87.68z M289.9,73.3l-6.98-18.91l-6.91,18.91H289.9z"/>
</g>
<g>
	<g>
		<path fill="#857874" d="M73.58,109.39v-1.97h2.92v-4.26l2.16-1.07v5.33h3.68v1.97h-3.68v13.28c0,2.75,0.25,3.4,1.98,3.4
			c0.72,0,1.23-0.04,1.7-0.12v2.13c-0.65,0.08-1.37,0.12-2.06,0.12c-2.92,0-3.79-1.48-3.79-4.02v-14.8H73.58z"/>
		<path fill="#857874" d="M84.59,101.64v-3.11h2.67v3.11H84.59z M84.84,128.12v-20.7H87v20.7H84.84z"/>
		<path fill="#857874" d="M90.88,128.12V98.52h2.16v29.59H90.88z"/>
		<path fill="#857874" d="M106.31,125.49l-0.07,0.04c-1.12,1.97-2.49,2.99-4.62,2.99c-5.27,0-5.55-5.94-5.55-10.78
			c0-3.98,0-10.74,5.59-10.74c1.66,0,3.28,0.86,4.4,2.46l0.07,0.04V98.52h2.16v25.49c0,2.05,0.11,3.4,0.22,4.1h-2.09L106.31,125.49z
			 M106.21,119.63v-3.69c0-1.23,0-6.97-4.08-6.97c-3.9,0-3.9,4.02-3.9,8.85c0,7.71,1.62,8.73,3.97,8.73
			C104.26,126.56,106.21,124.67,106.21,119.63z"/>
		<path fill="#857874" d="M113.8,110.21h0.07c0.9-1.97,2.81-3.2,5.01-3.2v2.5c-3.07-0.29-5.09,1.8-5.09,5.29v13.32h-2.16v-20.7h2.16
			V110.21z"/>
		<path fill="#857874" d="M129.67,125.57h-0.07c-1.15,1.97-2.92,2.95-5.16,2.95c-3.25,0-5.01-2.5-5.01-6.11
			c0-7.25,6.42-6.52,10.1-6.84v-1.72c0-3.03-0.79-4.88-3.68-4.88c-1.98,0-3.57,1.11-3.57,3.57h-2.31c0.18-3.98,2.89-5.53,6.06-5.53
			c1.84,0,5.66,0.21,5.66,5.49v10.41c0,1.48,0,2.79,0.22,5.21h-2.24V125.57z M129.53,117.54c-3.1,0.12-7.79-0.29-7.79,4.75
			c0,2.34,1.05,4.26,3.28,4.26c2.49,0,4.51-2.54,4.51-5.25V117.54z"/>
		<path fill="#857874" d="M135.02,98.52h2.16v18.03h0.07l6.28-9.14h2.52l-6.46,9.22l6.89,11.48h-2.74l-6.49-11.27h-0.07v11.27h-2.16
			V98.52z"/>
		<path fill="#857874" d="M148.56,101.64v-3.11h2.67v3.11H148.56z M148.82,128.12v-20.7h2.16v20.7H148.82z"/>
		<path fill="#857874" d="M153.61,126.11l7.58-16.72h-7.14v-1.97h9.34v2.05l-7.4,16.68h7.58v1.97h-9.96V126.11z"/>
		<path fill="#857874" d="M177.21,107.42v20.7h-1.88v-2.29h-0.07c-1.26,1.76-2.56,2.71-4.58,2.71c-3.75,0-4.8-3.12-4.8-6.48v-14.63
			h2.16v14.22c0,0.57-0.11,4.92,3.03,4.92c2.92,0,3.97-3.11,3.97-4.55v-14.59H177.21z"/>
		<path fill="#857874" d="M182.64,128.12h-2.16v-20.74h1.95v2.58h0.07c0.87-1.68,2.31-2.95,4.33-2.95c1.88,0,3.54,1.19,4.15,3.24
			c0.9-2.05,2.45-3.24,4.47-3.24c3.03,0,4.62,2.38,4.73,5.7v15.41H198v-14.8c-0.04-2.05-0.68-4.34-2.81-4.34
			c-2.74,0-3.79,3.11-3.79,5.82v13.32h-2.16v-14.8c-0.04-2.05-0.69-4.34-2.81-4.34c-2.74,0-3.79,3.11-3.79,5.82V128.12z"/>
		<path fill="#857874" d="M212.95,125.57h-0.07c-1.15,1.97-2.92,2.95-5.16,2.95c-3.25,0-5.01-2.5-5.01-6.11
			c0-7.25,6.42-6.52,10.1-6.84v-1.72c0-3.03-0.79-4.88-3.68-4.88c-1.98,0-3.57,1.11-3.57,3.57h-2.31c0.18-3.98,2.89-5.53,6.06-5.53
			c1.84,0,5.66,0.21,5.66,5.49v10.41c0,1.48,0,2.79,0.22,5.21h-2.24V125.57z M212.81,117.54c-3.1,0.12-7.79-0.29-7.79,4.75
			c0,2.34,1.05,4.26,3.28,4.26c2.49,0,4.51-2.54,4.51-5.25V117.54z"/>
		<path fill="#857874" d="M218.09,128.12c0.11-0.7,0.22-1.35,0.22-2.05V98.52h2.16v11.23l0.07,0.08c1.12-1.97,2.56-2.83,4.62-2.83
			c5.92,0,5.45,7.05,5.45,10.74c0,4.55-0.33,10.78-5.63,10.78c-2.13,0-3.68-0.98-4.58-2.91h-0.07v2.5H218.09z M224.33,126.56
			c4,0,4.11-3.89,4.11-8.73s-0.11-8.85-4.11-8.85c-3.5,0-3.93,5.37-3.93,8.48C220.4,120.74,220.4,126.56,224.33,126.56z"/>
		<path fill="#857874" d="M232.96,118.36v-2.34h7.29v2.34H232.96z"/>
		<path fill="#857874" d="M252.47,125.57h-0.07c-1.15,1.97-2.92,2.95-5.16,2.95c-3.25,0-5.01-2.5-5.01-6.11
			c0-7.25,6.42-6.52,10.1-6.84v-1.72c0-3.03-0.79-4.88-3.68-4.88c-1.98,0-3.57,1.11-3.57,3.57h-2.31c0.18-3.98,2.89-5.53,6.06-5.53
			c1.84,0,5.66,0.21,5.66,5.49v10.41c0,1.48,0,2.79,0.22,5.21h-2.24V125.57z M252.32,117.54c-3.1,0.12-7.79-0.29-7.79,4.75
			c0,2.34,1.05,4.26,3.28,4.26c2.49,0,4.51-2.54,4.51-5.25V117.54z"/>
		<path fill="#857874" d="M262.62,128.53c-3.93,0-5.48-2.17-5.45-6.56h2.2c0,2.83,0.58,4.71,3.36,4.71c2.09,0,3.1-1.35,3.1-3.65
			c0-5.41-8.19-4.02-8.19-10.86c0-3.81,2.31-5.16,5.48-5.16c3.61,0,4.76,2.83,4.76,5.98h-2.13c-0.11-2.62-0.72-4.02-3.17-4.02
			c-1.55,0-2.78,1.15-2.78,2.99c0,5.16,8.19,3.77,8.19,10.7C268,126.56,266.01,128.53,262.62,128.53z"/>
		<path fill="#857874" d="M272.76,128.12h-2.16v-20.74h1.95v2.58h0.07c0.87-1.68,2.31-2.95,4.33-2.95c1.88,0,3.54,1.19,4.15,3.24
			c0.9-2.05,2.45-3.24,4.47-3.24c3.03,0,4.62,2.38,4.73,5.7v15.41h-2.16v-14.8c-0.04-2.05-0.69-4.34-2.81-4.34
			c-2.74,0-3.79,3.11-3.79,5.82v13.32h-2.16v-14.8c-0.04-2.05-0.69-4.34-2.81-4.34c-2.74,0-3.79,3.11-3.79,5.82V128.12z"/>
		<path fill="#857874" d="M295.69,128.12h-2.16v-20.7h2.16v2.54h0.07c1.05-1.72,2.45-2.95,4.4-2.95c4.51,0,4.98,3.81,4.98,6.52
			v14.59h-2.16v-14.47c0-2.42-0.83-4.67-3.36-4.67c-1.95,0-3.93,1.52-3.93,6.15V128.12z"/>
	</g>
</g>
<linearGradient id="SVGID_1_" gradientUnits="userSpaceOnUse" x1="4.4923" y1="35.4896" x2="58.3262" y2="35.4896">
	<stop  offset="0" style="stop-color:#87588D"/>
	<stop  offset="0.3848" style="stop-color:#733C7A"/>
	<stop  offset="0.7509" style="stop-color:#64286C"/>
	<stop  offset="0.998" style="stop-color:#5F2167"/>
</linearGradient>
<path fill="url(#SVGID_1_)" d="M8.55,4.38c7.23,5.76,36.94,24.15,42.92,30.82c7.53,8.39,6.88,15.23,6.81,31.39
	c-5.96-14.81-44.13-30.2-48.5-35.5C4.64,26.01,1.59,18.05,8.55,4.38z"/>
<linearGradient id="SVGID_2_" gradientUnits="userSpaceOnUse" x1="7.7388" y1="61.2583" x2="58.2546" y2="61.2583">
	<stop  offset="0" style="stop-color:#9DB4D0"/>
	<stop  offset="9.366155e-03" style="stop-color:#9DB3D0"/>
	<stop  offset="0.311" style="stop-color:#8BA6C8"/>
	<stop  offset="0.631" style="stop-color:#809EC3"/>
	<stop  offset="1" style="stop-color:#7D9BC1"/>
</linearGradient>
<path fill="url(#SVGID_2_)" d="M8.82,33.48c6.68,6.45,42.72,20.09,49.08,36.2c0,0,1.32,16.79-1.1,19.35
	c-1.92-14.1-31.76-24.2-37.38-28.12C13.15,56.86,4.73,50.11,8.82,33.48z"/>
<g>
	<linearGradient id="SVGID_3_" gradientUnits="userSpaceOnUse" x1="26.9041" y1="85.4775" x2="55.4425" y2="85.4775">
		<stop  offset="0" style="stop-color:#FFE3A2"/>
		<stop  offset="0.9972" style="stop-color:#FFCD58"/>
	</linearGradient>
	<path fill="url(#SVGID_3_)" d="M55.44,91c-0.39-9.53-19.6-19.92-20.3-19.92c-4.48,0.37-8.31,1.22-8.24,5.02l0.44,23.69
		c0,0.06,0.05,0.09,0.09,0.08c0.03,0,0.07-0.02,0.09-0.06C30.04,95.93,48.98,100.46,55.44,91L55.44,91z"/>
</g>
<g>
	<g>
		<path fill="#857874" d="M77.2,137.79h1.67v13.73H77.2V137.79z"/>
		<path fill="#857874" d="M81.55,143.08l-0.02-1.1h1.57l0.02,1.54c0.18-0.4,0.79-1.73,2.69-1.73c0.75,0,3.05,0.32,3.05,3.25v6.48
			h-1.61v-6.06c0-0.63-0.07-1.2-0.45-1.64c-0.4-0.44-0.95-0.65-1.49-0.65c-1.14,0-2.19,0.93-2.19,2.85v5.49h-1.57V143.08z"/>
		<path fill="#857874" d="M89.87,153.92c1.24,0.06,1.54-0.19,1.54-1.71v-10.23h1.57v10.44c0,0.91-0.03,2.85-2.14,2.85
			c-0.2,0-0.54-0.02-0.97-0.08V153.92z M91.26,137.83h1.91v1.98h-1.91V137.83z"/>
		<path fill="#857874" d="M96.64,147.07c-0.03,1.98,0.69,3.44,2.41,3.44c1.02,0,1.84-0.61,1.97-1.98h1.57
			c-0.05,0.48-0.12,1.26-0.72,2c-0.37,0.48-1.2,1.27-2.89,1.27c-2.64,0-3.9-1.86-3.9-4.89c0-1.88,0.33-3.44,1.66-4.49
			c0.8-0.65,1.81-0.7,2.29-0.7c3.76,0,3.68,3.78,3.65,5.34H96.64z M101.07,145.82c0.02-0.91-0.13-2.81-2.07-2.81
			c-1.02,0-2.26,0.7-2.29,2.81H101.07z"/>
		<path fill="#857874" d="M109.71,145.04c-0.03-0.44-0.15-2-1.67-2c-2.18,0-2.18,2.87-2.18,3.59c0,1.96,0.42,3.78,2.09,3.78
			c1.34,0,1.79-1.14,1.82-2.07h1.59c-0.1,1.86-1.32,3.42-3.4,3.42c-0.57,0-1.87-0.13-2.76-1.24c-0.5-0.66-1-1.67-1-3.65
			c0-3.97,2.14-5.15,3.82-5.15c0.55,0,1.81,0.13,2.58,1.18c0.62,0.82,0.67,1.6,0.7,2.13H109.71z"/>
		<path fill="#857874" d="M112.22,141.94h1.49v-2l1.56-0.57v2.57h1.87v1.31h-1.87v5.72c0,0.47,0,1.27,1.12,1.27
			c0.32,0,0.62-0.06,0.75-0.1v1.39c-0.28,0.06-0.74,0.11-1.31,0.11c-1.44,0-2.12-0.47-2.12-2.03v-6.37h-1.49V141.94z"/>
		<path fill="#857874" d="M118.65,137.83h1.89v1.96h-1.89V137.83z M118.82,141.98h1.57v9.54h-1.57V141.98z"/>
		<path fill="#857874" d="M126.75,141.73c3.36,0,4.12,3,4.12,5c0,2.79-1.39,5.11-4.25,5.11c-2.78,0-4.13-2.19-4.13-4.98
			C122.49,144.5,123.46,141.73,126.75,141.73z M126.65,150.51c1.19,0,2.54-0.97,2.54-3.84c0-2.38-0.97-3.63-2.44-3.63
			c-1,0-2.63,0.72-2.63,3.71C124.13,148.71,124.86,150.51,126.65,150.51z"/>
		<path fill="#857874" d="M133.04,143.08l-0.02-1.1h1.57l0.02,1.54c0.18-0.4,0.79-1.73,2.69-1.73c0.75,0,3.05,0.32,3.05,3.25v6.48
			h-1.61v-6.06c0-0.63-0.07-1.2-0.45-1.64c-0.4-0.44-0.95-0.65-1.49-0.65c-1.14,0-2.19,0.93-2.19,2.85v5.49h-1.57V143.08z"/>
		<path fill="#857874" d="M149.76,140.44c-0.72,0.68-1.87,1.46-2.69,1.9v-1.9c1.09-0.65,2.16-1.44,2.81-2.07h1.49v13.16h-1.61
			V140.44z"/>
		<path fill="#857874" d="M158.26,138.1c3.46,0,3.88,4.22,3.88,6.69c0,3.12-0.55,4.87-1.61,5.99c-0.82,0.87-1.79,1.01-2.31,1.01
			c-1.54,0-2.59-1.03-3.1-2.19c-0.38-0.87-0.75-2.15-0.75-4.51C154.38,143.14,154.58,138.1,158.26,138.1z M158.24,150.21
			c1.94,0,2.28-2.89,2.28-5.25c0-3.15-0.49-5.34-2.24-5.34c-2.02,0-2.29,3.02-2.29,5.38C155.98,147.93,156.49,150.21,158.24,150.21z
			"/>
		<path fill="#857874" d="M167.67,138.1c3.46,0,3.88,4.22,3.88,6.69c0,3.12-0.55,4.87-1.61,5.99c-0.82,0.87-1.79,1.01-2.31,1.01
			c-1.54,0-2.59-1.03-3.1-2.19c-0.38-0.87-0.75-2.15-0.75-4.51C163.79,143.14,163.99,138.1,167.67,138.1z M167.65,150.21
			c1.94,0,2.28-2.89,2.28-5.25c0-3.15-0.49-5.34-2.24-5.34c-2.02,0-2.29,3.02-2.29,5.38C165.4,147.93,165.9,150.21,167.65,150.21z"
			/>
		<path fill="#857874" d="M176.39,143.25l-0.03-1.27h1.59v1.39c0.8-1.5,1.94-1.63,2.66-1.63c1.86,0,2.44,1.08,2.74,1.79
			c0.28-0.53,0.97-1.79,2.83-1.79c1.2,0,3.08,0.57,3.08,3.38v6.41h-1.59v-6.12c0-0.84-0.13-1.2-0.28-1.44
			c-0.27-0.44-0.8-0.84-1.61-0.84c-1.02,0-1.57,0.67-1.79,1.01c-0.37,0.59-0.37,1.64-0.37,2.05v5.34h-1.59v-6.31
			c0-1.18-0.6-2.09-1.84-2.09c-1.07,0-1.66,0.76-1.84,1.05c-0.35,0.55-0.37,1.33-0.37,1.94v5.42h-1.59V143.25z"/>
		<path fill="#857874" d="M193.46,152.26c0.07,1.06,0.47,1.86,1.96,1.86c2.19,0,2.23-1.81,2.23-4.39c-0.67,1.58-2.26,1.62-2.76,1.62
			c-0.77,0-1.87-0.19-2.58-1.18c-0.72-0.97-0.95-2.24-0.95-3.52c0-3.23,1.67-4.81,3.73-4.81c1.69,0,2.31,0.95,2.64,1.44l0.02-1.31
			h1.52l-0.03,1.73l-0.02,5.97c0,2.3-0.07,3.23-0.4,3.95c-0.7,1.52-2.34,1.71-3.5,1.71c-3.36,0-3.46-1.79-3.53-3.08H193.46z
			 M197.13,149.07c0.33-0.49,0.57-1.01,0.57-2.74c0-1.2-0.23-1.88-0.65-2.38c-0.42-0.51-1.09-0.84-1.81-0.84
			c-1.99,0-2.26,2.28-2.26,3.5c0,1.46,0.39,3.4,2.31,3.4C196.21,150.02,196.74,149.64,197.13,149.07z"/>
		<path fill="#857874" d="M204.54,137.96h1.09l-3.9,13.86h-1.1L204.54,137.96z"/>
		<path fill="#857874" d="M206.47,143.25l-0.03-1.27h1.59v1.39c0.8-1.5,1.94-1.63,2.66-1.63c1.86,0,2.44,1.08,2.74,1.79
			c0.28-0.53,0.97-1.79,2.83-1.79c1.2,0,3.08,0.57,3.08,3.38v6.41h-1.59v-6.12c0-0.84-0.13-1.2-0.28-1.44
			c-0.27-0.44-0.8-0.84-1.61-0.84c-1.02,0-1.57,0.67-1.79,1.01c-0.37,0.59-0.37,1.64-0.37,2.05v5.34h-1.59v-6.31
			c0-1.18-0.6-2.09-1.84-2.09c-1.07,0-1.66,0.76-1.84,1.05c-0.35,0.55-0.37,1.33-0.37,1.94v5.42h-1.59V143.25z"/>
		<path fill="#857874" d="M222.04,137.79h1.66v12.03h5.62v1.69h-7.28V137.79z"/>
	</g>
</g>
<g>
	<path fill="#5F2167" d="M300.49,50.95c0-3.27,2.65-5.92,5.92-5.92s5.92,2.65,5.92,5.92c0,3.27-2.65,5.92-5.92,5.92
		S300.49,54.23,300.49,50.95z M311.08,50.95c0-2.6-2.07-4.75-4.67-4.75c-2.58,0-4.66,2.15-4.66,4.75c0,2.6,2.07,4.75,4.66,4.75
		C309.01,55.71,311.08,53.55,311.08,50.95z M304.07,53.59v-5.3c0-0.21,0.15-0.36,0.36-0.36h2.22c1.25,0,2.4,0.51,2.4,1.97
		c0,0.87-0.46,1.43-1.07,1.69l0.97,1.76c0.03,0.05,0.07,0.13,0.07,0.23c0,0.18-0.12,0.36-0.36,0.36h-0.71
		c-0.23,0-0.38-0.11-0.48-0.31l-0.92-1.76h-1v1.71c0,0.21-0.15,0.36-0.36,0.36h-0.76C304.22,53.95,304.07,53.8,304.07,53.59z
		 M306.64,50.64c0.71,0,0.92-0.35,0.92-0.74c0-0.41-0.21-0.76-0.92-0.76h-1.09v1.5H306.64z"/>
</g>
</svg>
