<svg width="175" height="50" viewBox="0 0 175 50" fill="none" xmlns="http://www.w3.org/2000/svg">
<path d="M2.53285 42.958V41.8718H4.58457V47.1821C4.58457 48.389 3.98113 49.1132 2.65354 49.1132H2.17078C0.963884 49.1132 0.239746 48.5097 0.239746 47.1821V36.9235C0.239746 35.7166 0.843194 34.9925 2.17078 34.9925H2.65354C3.86044 34.9925 4.46388 35.5959 4.46388 36.8028V39.9408H3.25699V36.8028C3.25699 36.3201 3.01561 36.0787 2.53285 36.0787H2.17078C1.68802 36.0787 1.44664 36.3201 1.44664 36.8028V47.1821C1.44664 47.6649 1.68802 47.9063 2.17078 47.9063H2.53285C3.01561 47.9063 3.25699 47.6649 3.25699 47.1821V42.8373H2.53285V42.958Z" fill="#87898B"/>
<path d="M8.80891 35.1132V36.1994H6.75719V41.389H8.68822V42.4752H6.75719V47.9063H8.80891V48.9925H5.55029V35.1132H8.80891Z" fill="#87898B"/>
<path d="M10.74 37.1649V42.1132V48.9925H9.65381V35.1132H11.4642L12.7917 45.9752L14.1193 35.1132H15.9297V48.9925H14.8435V42.1132V37.2856L13.3952 48.9925H12.1883L10.74 37.1649Z" fill="#87898B"/>
<path d="M21.1192 43.32V47.1821C21.1192 48.389 20.5157 49.1131 19.1881 49.1131H18.8261C17.6192 49.1131 16.895 48.5097 16.895 47.1821V36.8028C16.895 35.5959 17.4985 34.8718 18.8261 34.8718H19.1881C20.395 34.8718 20.9985 35.4752 20.9985 36.6821V40.3028H19.9123V36.6821C19.9123 36.1994 19.6709 35.958 19.1881 35.958H18.9467C18.464 35.958 18.2226 36.1994 18.2226 36.6821V47.0614C18.2226 47.5442 18.464 47.7856 18.9467 47.7856H19.3088C19.7916 47.7856 20.033 47.5442 20.033 47.0614V43.32H21.1192Z" fill="#87898B"/>
<path d="M23.2914 48.9925H22.0845V41.389V35.1132H23.2914V41.389V48.9925Z" fill="#87898B"/>
<path d="M25.4638 48.9925V36.1994H24.1362V35.1132H28.119V36.1994H26.7914V48.9925H25.4638Z" fill="#87898B"/>
<path fill-rule="evenodd" clip-rule="evenodd" d="M31.0154 46.8201L31.2568 48.9925H32.343L30.774 35.1132H29.3257L27.8774 48.9925H28.9636L29.205 46.8201H31.0154ZM30.8947 45.7339H29.3257L30.0498 37.6477L30.8947 45.7339Z" fill="#87898B"/>
<path fill-rule="evenodd" clip-rule="evenodd" d="M37.1708 43.5614V47.1821C37.1708 48.389 36.5674 49.1132 35.2398 49.1132H33.0674V35.1132H35.1191C36.4467 35.1132 37.0501 35.7166 37.0501 37.0442V40.4235C37.0501 41.389 36.8088 41.7511 36.2053 41.9925C36.9295 42.1132 37.1708 42.5959 37.1708 43.5614ZM35.2397 36.1994H34.2742V41.3891H35.119C35.7225 41.3891 35.9638 41.1477 35.9638 40.5442V36.9235C36.0845 36.4408 35.8432 36.1994 35.2397 36.1994ZM35.2397 47.9063H34.2742V42.4753H35.119C35.7225 42.4753 35.9638 42.7166 35.9638 43.3201V47.1822C35.9638 47.6649 35.7225 47.9063 35.2397 47.9063Z" fill="#87898B"/>
<path d="M39.4642 48.9925H38.2573V41.1476V35.1132H39.4642V41.1476V48.9925Z" fill="#87898B"/>
<path d="M43.4464 48.9925L41.5154 37.7683V40.5442V48.9925H40.4292V35.1132H41.9982L43.6878 45.3718V43.5614V35.1132H44.774V48.9925H43.4464Z" fill="#87898B"/>
<path d="M49.2396 35.1132V36.1994H47.1879V41.389H49.1189V42.4752H47.1879V47.9063H49.2396V48.9925H45.981V35.1132H49.2396Z" fill="#87898B"/>
<path d="M52.2567 48.9925H51.0498V41.7511V35.2339H52.2567V41.7511V48.9925Z" fill="#87898B"/>
<path d="M56.2399 48.9925L54.3089 37.7683V40.5442V48.9925H53.2227V35.1132H54.7916L56.4813 45.3718V43.5614V35.1132H57.5675V48.9925H56.2399Z" fill="#87898B"/>
<path d="M63.8432 44.1649V47.1821C63.8432 48.389 63.2397 49.1132 61.9122 49.1132H61.5501C60.3432 49.1132 59.7397 48.5097 59.7397 47.3028V43.5615H60.9466V47.3028C60.9466 47.7856 61.188 48.027 61.6708 48.027H61.9122C62.3949 48.027 62.6363 47.7856 62.6363 47.3028V44.1649C62.6363 43.4408 62.5156 43.1994 62.1535 42.958L60.7053 41.7511C59.9811 41.1477 59.7397 40.6649 59.7397 39.6994V36.9235C59.7397 35.7166 60.3432 34.9925 61.6708 34.9925H61.9122C63.1191 34.9925 63.7225 35.5959 63.7225 36.8028V40.4235H62.5156V36.8028C62.5156 36.3201 62.2742 36.0787 61.7915 36.0787H61.5501C61.0673 36.0787 60.826 36.3201 60.826 36.8028V39.6994C60.826 40.4235 60.9466 40.6649 61.3087 40.9063L62.6363 41.9925C63.6018 42.5959 63.8432 43.0787 63.8432 44.1649Z" fill="#87898B"/>
<path fill-rule="evenodd" clip-rule="evenodd" d="M66.7396 49.1131H67.2224C68.4293 49.1131 69.0327 48.5097 69.1534 47.1821V36.8028C69.1534 35.4752 68.4293 34.8718 67.2224 34.8718H66.7396C65.412 34.8718 64.8086 35.5959 64.8086 36.8028V47.1821C64.8086 48.5097 65.5327 49.1131 66.7396 49.1131ZM66.7395 36.0787H67.1016C67.5844 36.0787 67.8257 36.3201 67.8257 36.8028V47.1821C67.8257 47.6649 67.5844 47.9063 67.1016 47.9063H66.7395C66.2568 47.9063 66.0154 47.6649 66.0154 47.1821V36.8028C66.0154 36.3201 66.2568 36.0787 66.7395 36.0787Z" fill="#87898B"/>
<path fill-rule="evenodd" clip-rule="evenodd" d="M72.0502 35.1132H70.1191V49.1132H72.0502C73.6191 49.1132 74.3433 48.2683 74.3433 46.8201V37.4063C74.3433 35.8373 73.6191 35.1132 72.0502 35.1132ZM72.0501 47.9063H71.3259V36.0787H72.0501C72.7742 36.0787 73.1363 36.5614 73.1363 37.2856V46.6994C73.1363 47.5442 72.7742 47.9063 72.0501 47.9063Z" fill="#87898B"/>
<path d="M76.516 48.9925H75.3091V41.389V35.1132H76.516V41.389V48.9925Z" fill="#87898B"/>
<path d="M81.8262 47.1821C81.8262 48.389 81.2227 49.1132 79.8952 49.1132H79.5331C78.3262 49.1132 77.6021 48.5097 77.6021 47.1821V35.1132H78.8089V47.1821C78.8089 47.6649 79.0503 47.9063 79.5331 47.9063H79.7745C80.2572 47.9063 80.4986 47.6649 80.4986 47.1821V35.1132H81.7055V47.1821H81.8262Z" fill="#87898B"/>
<path d="M83.8777 37.1649V42.1132V48.9925H82.7915V35.1132H84.6018L85.9294 45.9752L87.257 35.1132H89.0674V48.9925H87.9812V42.1132V37.2856L86.5329 48.9925H85.326L83.8777 37.1649Z" fill="#87898B"/>
<path d="M95.585 43.32V47.1821C95.585 48.389 94.9815 49.1131 93.6539 49.1131H93.2919C92.085 49.1131 91.3608 48.5097 91.3608 47.1821V36.8028C91.3608 35.5959 91.9643 34.8718 93.2919 34.8718H93.6539C94.8608 34.8718 95.4643 35.4752 95.4643 36.6821V40.3028H94.3781V36.6821C94.3781 36.1994 94.1367 35.958 93.6539 35.958H93.2919C92.8091 35.958 92.5677 36.1994 92.5677 36.6821V47.0614C92.5677 47.5442 92.8091 47.7856 93.2919 47.7856H93.6539C94.1367 47.7856 94.3781 47.5442 94.3781 47.0614V43.32H95.585Z" fill="#87898B"/>
<path d="M99.5671 41.389V35.1132H100.774V48.9925H99.5671V42.4752H97.6361V48.9925H96.4292V35.1132H97.6361V41.389H99.5671Z" fill="#87898B"/>
<path d="M103.068 35.1132V47.9063H104.878V48.9925H101.981V35.1132H103.068Z" fill="#87898B"/>
<path fill-rule="evenodd" clip-rule="evenodd" d="M107.291 49.1131H107.774C108.981 49.1131 109.584 48.5097 109.705 47.1821V36.8028C109.705 35.4752 108.981 34.8718 107.774 34.8718H107.291C105.963 34.8718 105.36 35.5959 105.36 36.8028V47.1821C105.36 48.5097 106.084 49.1131 107.291 49.1131ZM107.291 36.0787H107.653C108.256 36.0787 108.498 36.3201 108.377 36.8028V47.1821C108.377 47.6649 108.136 47.9063 107.653 47.9063H107.291C106.808 47.9063 106.567 47.6649 106.567 47.1821V36.8028C106.567 36.3201 106.808 36.0787 107.291 36.0787Z" fill="#87898B"/>
<path fill-rule="evenodd" clip-rule="evenodd" d="M114.774 48.9925V43.6821C114.774 42.958 114.532 42.4752 113.929 42.3545C114.412 42.1132 114.774 41.7511 114.774 40.7856V37.0442C114.774 35.7166 114.17 35.1132 112.843 35.1132H110.67V49.1132H111.877V42.958H112.722C113.326 42.958 113.567 43.1994 113.567 43.8028V48.9925H114.774ZM111.877 36.1994H112.843C113.325 36.1994 113.567 36.4408 113.567 37.0442V41.027C113.567 41.6304 113.325 41.8718 112.722 41.8718H111.877V36.1994Z" fill="#87898B"/>
<path d="M117.067 48.9925H115.86V41.389V35.1132H117.067V41.389V48.9925Z" fill="#87898B"/>
<path fill-rule="evenodd" clip-rule="evenodd" d="M120.085 35.1132H118.154V49.1132H120.085C121.654 49.1132 122.378 48.2683 122.378 46.8201V37.4063C122.378 35.8373 121.654 35.1132 120.085 35.1132ZM119.964 47.9063H119.24V36.0787H119.964C120.688 36.0787 121.05 36.5614 121.05 37.2856V46.6994C121.05 47.5442 120.688 47.9063 119.964 47.9063Z" fill="#87898B"/>
<path d="M126.602 35.1132V36.1994H124.55V41.389H126.481V42.4752H124.55V47.9063H126.602V48.9925H123.343V35.1132H126.602Z" fill="#87898B"/>
<path d="M129.861 48.9925H128.654V41.8718V35.1132H129.861V41.8718V48.9925Z" fill="#87898B"/>
<path d="M133.964 48.9925L132.033 37.7683V40.5442V48.9925H130.947V35.1132H132.516L134.205 45.3718V43.5614V35.1132H135.292V48.9925H133.964Z" fill="#87898B"/>
<path d="M138.55 47.0614C138.55 48.2683 137.826 48.9925 136.619 48.9925H136.136V47.9063H136.619C137.102 47.9063 137.464 47.6649 137.464 47.0614V35.1132H138.671V47.0614H138.55Z" fill="#87898B"/>
<path d="M142.895 35.1132V36.1994H140.843V41.389H142.774V42.4752H140.843V47.9063H142.895V48.9925H139.636V35.1132H142.895Z" fill="#87898B"/>
<path d="M147.843 43.32V47.1821C147.843 48.389 147.24 49.1131 145.912 49.1131H145.55C144.343 49.1131 143.619 48.5097 143.619 47.1821V36.8028C143.619 35.5959 144.223 34.8718 145.55 34.8718H145.912C147.119 34.8718 147.723 35.4752 147.723 36.6821V40.3028H146.636V36.6821C146.636 36.1994 146.395 35.958 145.912 35.958H145.671C145.188 35.958 144.947 36.1994 144.947 36.6821V47.0614C144.947 47.5442 145.188 47.7856 145.671 47.7856H146.033C146.516 47.7856 146.757 47.5442 146.757 47.0614V43.32H147.843Z" fill="#87898B"/>
<path d="M149.774 48.9925V36.1994H148.447V35.1132H152.43V36.1994H151.102V48.9925H149.774Z" fill="#87898B"/>
<path d="M154.24 48.9925H153.033V41.8718V35.1132H154.24V41.8718V48.9925Z" fill="#87898B"/>
<path fill-rule="evenodd" clip-rule="evenodd" d="M157.136 49.1131H157.619C158.826 49.1131 159.429 48.5097 159.55 47.1821V36.8028C159.55 35.4752 158.826 34.8718 157.619 34.8718H157.136C155.809 34.8718 155.205 35.5959 155.205 36.8028V47.1821C155.205 48.5097 155.929 49.1131 157.136 49.1131ZM157.136 36.0787H157.498C158.102 36.0787 158.343 36.3201 158.222 36.8028V47.1821C158.222 47.6649 157.981 47.9063 157.498 47.9063H157.136C156.653 47.9063 156.412 47.6649 156.412 47.1821V36.8028C156.412 36.3201 156.653 36.0787 157.136 36.0787Z" fill="#87898B"/>
<path d="M163.533 48.9925L161.602 37.7683V40.5442V48.9925H160.516V35.1132H162.085L163.774 45.3718V43.5614V35.1132H164.86V48.9925H163.533Z" fill="#87898B"/>
<path d="M0.360352 0.958008V28.5959H7.84311V14.7166V0.958008H0.360352Z" fill="#435CC8"/>
<path d="M28.7223 0.958008V15.4408L17.3774 0.958008H11.1016V28.5959H18.5843V13.9925L30.0498 28.5959H36.205V0.958008H28.7223Z" fill="#435CC8"/>
<path d="M39.5845 0.958008V28.5959H46.9465V18.458H54.9121V11.2166H46.9465V8.19939H57.2052V0.958008H39.5845Z" fill="#435CC8"/>
<path fill-rule="evenodd" clip-rule="evenodd" d="M115.619 0.957947H133.723V8.07864H123.102V11.0959H131.55V18.3373H123.102V21.3545H133.723V22.1993V28.5959H115.619V0.957947ZM132.878 7.35452V1.8028H116.464V27.7511H132.878V22.1994H122.257V17.4925H130.705V11.9407H122.257V7.35452H132.878Z" fill="#435CC8"/>
<path fill-rule="evenodd" clip-rule="evenodd" d="M85.0845 14.7166C85.0845 6.63039 91.3603 0.47522 99.5672 0.47522C103.55 0.47522 107.291 2.04419 110.067 4.94074L110.671 5.54419L105.481 10.4925L104.878 9.88901C103.429 8.56143 101.74 7.83729 99.6879 7.83729C95.5845 7.83729 92.6879 10.7338 92.6879 14.8373C92.6879 18.9407 95.5845 21.8373 99.6879 21.8373C102.584 21.8373 104.516 20.6304 105.36 18.3373H98.119V11.82H113.326L113.447 12.5442C113.929 17.6131 112.722 21.958 110.067 24.8545C107.533 27.5097 103.912 28.958 99.6879 28.958C91.3603 28.958 85.0845 22.8028 85.0845 14.7166ZM109.223 5.42352C106.809 2.76835 103.188 1.32007 99.5674 1.32007C91.6019 1.32007 85.9295 7.23386 85.8088 14.958C85.8088 22.4408 91.6019 28.3546 99.5674 28.3546C107.171 28.3546 113.326 23.4063 112.361 12.7856H98.8433V17.6132H106.326C105.723 20.7511 103.43 22.6821 99.5674 22.6821C94.7399 22.6821 91.7226 19.1821 91.7226 14.8373C91.7226 10.4925 94.8605 6.99249 99.5674 6.99249C101.619 6.99249 103.55 7.59593 105.24 9.28559L109.223 5.42352Z" fill="#435CC8"/>
<path fill-rule="evenodd" clip-rule="evenodd" d="M75.4294 17.6131V0.957947H82.6708V17.4924C82.6708 24.3717 77.9639 29.0786 71.2053 29.0786C64.4466 29.0786 59.7397 24.2511 59.7397 17.4924V0.957947H67.2225V17.6131C67.2225 20.2683 68.7915 21.8373 71.326 21.8373C73.8604 21.8373 75.4294 20.1476 75.4294 17.6131ZM71.3258 28.2338C77.6016 28.2338 82.0672 24.0097 82.0672 17.4925H81.9465V1.8028H76.1534V17.4925C76.1534 20.6304 74.2223 22.5614 71.3258 22.5614V28.2338Z" fill="#435CC8"/>
<path d="M167.998 1.68208H167.033V0.957947H169.688V1.68208H168.722V4.57864H167.878V1.68208H167.998Z" fill="#435CC8"/>
<path d="M171.257 2.28553V4.57864H170.412V0.957947H171.136L172.222 2.52691L173.309 0.957947H174.033V4.57864H173.188V2.28553L172.102 3.73381L171.257 2.28553Z" fill="#435CC8"/>
<path fill-rule="evenodd" clip-rule="evenodd" d="M158.826 0.957947H164.136H165.223V1.80277V27.7511V28.5959H164.378H158.464H157.619V27.7511V14.2338L151.464 22.6821L150.861 23.6476L150.136 22.6821L143.981 14.2338V27.7511V28.5959H143.136H137.343H136.499V27.7511V1.80277V0.957947H137.343H142.654H143.016L143.257 1.32002L150.74 11.5786L158.223 1.32002L158.464 0.957947H158.826ZM158.223 27.7511H164.016V1.8028H158.706L150.619 13.0269L142.533 1.8028H137.223V27.8718H143.016V11.82L150.619 22.32L158.223 11.82V27.7511Z" fill="#435CC8"/>
</svg>
