<svg width="187" height="44" viewBox="0 0 187 44" fill="none" xmlns="http://www.w3.org/2000/svg">
<path fill-rule="evenodd" clip-rule="evenodd" d="M18.3703 6.08234C15.8975 6.08234 13.0483 7.91008 13.0483 11.7806C13.0483 15.6511 16.005 17.4789 18.3165 17.4789C19.768 17.4789 20.9507 16.8875 21.6495 16.0274V17.2638H24.6599V6.29737H21.6495V7.37251C20.8969 6.61991 19.8218 6.08234 18.3703 6.08234ZM18.9615 8.77021C20.5743 8.77021 21.7569 10.1141 21.7569 11.7269C21.7569 13.3933 20.5743 14.6835 18.9615 14.6835C17.2951 14.6835 16.0049 13.3933 16.0049 11.7269C16.0049 10.0066 17.2951 8.77021 18.9615 8.77021Z" fill="#512D6D"/>
<path fill-rule="evenodd" clip-rule="evenodd" d="M28.8532 22.317V16.1887C29.6058 16.9951 30.7884 17.4789 32.1861 17.4789C34.4977 17.4789 37.4543 15.6511 37.4543 11.7806C37.4543 7.91008 34.6052 6.08234 32.1324 6.08234C30.6809 6.08234 29.552 6.67367 28.8532 7.53378V6.29737H25.8428V22.317H28.8532ZM31.5947 8.77021C33.2612 8.77021 34.5513 10.0604 34.5513 11.7269C34.5513 13.4471 33.2612 14.6835 31.5947 14.6835C29.982 14.6835 28.7993 13.3396 28.7993 11.7269C28.7993 10.1141 29.982 8.77021 31.5947 8.77021Z" fill="#512D6D"/>
<path d="M37.562 14.5223L40.4649 13.3934C40.8412 14.4148 41.7013 14.8986 42.7765 14.8986C43.7441 14.8986 44.2817 14.4148 44.2817 13.9309C44.2817 13.3396 43.2065 13.1783 41.9163 12.9095C39.9273 12.5332 37.9383 11.8882 37.9383 9.52284C37.9383 7.6951 39.7123 6.02862 42.4539 6.08238C44.9268 6.08238 46.3244 7.10377 47.1308 8.60897L44.4967 9.73787C44.2279 9.03903 43.4753 8.55521 42.4539 8.55521C41.4863 8.55521 41.0025 8.98527 41.0025 9.46909C41.0025 9.9529 41.6476 10.1142 43.2603 10.4367C45.088 10.813 47.2383 11.4581 47.2383 13.8234C47.2383 15.4361 45.7331 17.5327 42.5614 17.4789C39.9811 17.4789 38.3684 16.4575 37.562 14.5223Z" fill="#512D6D"/>
<path fill-rule="evenodd" clip-rule="evenodd" d="M51.0548 22.317V16.1887C51.7537 16.9951 52.9363 17.4789 54.3878 17.4789C56.6993 17.4789 59.656 15.6511 59.656 11.7806C59.656 7.91008 56.8069 6.08234 54.334 6.08234C52.8826 6.08234 51.7537 6.67367 51.0548 7.53378V6.29737H48.0444V22.317H51.0548ZM53.7964 8.77021C55.4628 8.77021 56.753 10.0604 56.753 11.7269C56.753 13.4471 55.4628 14.6835 53.7964 14.6835C52.1836 14.6835 51.001 13.3396 51.001 11.7269C51.001 10.1141 52.1836 8.77021 53.7964 8.77021Z" fill="#512D6D"/>
<path fill-rule="evenodd" clip-rule="evenodd" d="M65.4616 6.08234C62.9888 6.08234 60.1396 7.91008 60.1396 11.7806C60.1396 15.6511 63.0963 17.4789 65.4079 17.4789C66.8593 17.4789 68.042 16.8875 68.7408 16.0274V17.2638H71.7512V6.29737H68.7408V7.37251C67.9882 6.61991 66.9131 6.08234 65.4616 6.08234ZM66.0528 8.77021C67.6656 8.77021 68.8482 10.1141 68.8482 11.7269C68.8482 13.3933 67.6656 14.6835 66.0528 14.6835C64.3864 14.6835 63.0962 13.3933 63.0962 11.7269C63.0962 10.0066 64.3864 8.77021 66.0528 8.77021Z" fill="#512D6D"/>
<path d="M72.9874 6.29736H75.9978V8.12511C76.5353 6.99621 77.5567 6.29736 79.0082 6.29736H80.1908V9.20025H78.2556C76.6428 9.20025 75.944 10.0604 75.944 12.1031V17.2638H72.9336V6.29736H72.9874Z" fill="#512D6D"/>
<path fill-rule="evenodd" clip-rule="evenodd" d="M85.6745 6.08234C83.2017 6.08234 80.3525 7.91008 80.3525 11.7806C80.3525 15.6511 83.3092 17.4789 85.6207 17.5326C87.0722 17.5326 88.2549 16.9413 88.9537 16.0812V17.1026C88.9537 18.5003 87.9323 19.7904 86.3196 19.7904C84.8144 19.7904 83.8468 19.0378 83.2554 17.9089L80.6213 19.4141C81.4814 21.1344 83.5242 22.5858 86.3196 22.5858C90.0288 22.5858 91.9641 20.113 91.9641 16.9951V6.29737H88.9537V7.48002C88.2011 6.67367 87.1259 6.08234 85.6745 6.08234ZM86.2657 8.77021C87.8785 8.77021 89.0611 10.1141 89.0611 11.7269C89.0611 13.3933 87.8785 14.6835 86.2657 14.6835C84.5993 14.6835 83.3091 13.3933 83.3091 11.7269C83.3091 10.0066 84.5993 8.77021 86.2657 8.77021Z" fill="#512D6D"/>
<path fill-rule="evenodd" clip-rule="evenodd" d="M98.4151 6.08234C95.2434 6.08234 92.7168 8.60893 92.7168 11.7806C92.7168 14.9523 95.2434 17.4789 98.4151 17.4789C101.587 17.4789 104.113 14.9523 104.113 11.7806C104.113 8.60893 101.587 6.08234 98.4151 6.08234ZM98.469 8.93147C99.9742 8.93147 101.211 10.2216 101.211 11.7806C101.211 13.3396 99.9742 14.6297 98.469 14.6297C96.91 14.6297 95.7274 13.3396 95.7274 11.7806C95.7274 10.2216 96.91 8.93147 98.469 8.93147Z" fill="#512D6D"/>
<path d="M107.715 14.4685L109.166 13.3933C110.241 15.0598 111.585 15.8662 113.359 15.8662C115.348 15.8662 116.746 14.576 116.746 12.8557C116.746 10.8667 114.811 10.2754 112.822 9.57656C110.618 8.82396 108.36 7.91009 108.36 5.11471C108.36 2.80315 110.456 0.975403 113.306 0.975403C115.563 0.975403 117.122 1.88928 118.251 3.39448L116.907 4.41587C116.101 3.12569 114.918 2.48061 113.306 2.48061C111.478 2.48061 110.134 3.60951 110.134 5.11471C110.134 6.94245 111.962 7.53378 113.951 8.23263C116.155 8.98523 118.52 9.8991 118.52 12.8557C118.52 15.2211 116.477 17.4251 113.359 17.4251C110.779 17.4251 109.005 16.35 107.715 14.4685Z" fill="#00A3AD"/>
<path fill-rule="evenodd" clip-rule="evenodd" d="M121.907 22.317V15.5974C122.821 16.8338 124.38 17.4789 125.885 17.4789C129.111 17.4789 131.53 14.8985 131.53 11.7806C131.53 8.66268 129.164 6.08234 125.885 6.08234C124.488 6.08234 122.767 6.83494 121.853 8.12511V6.29737H120.241V22.317H121.907ZM125.885 7.58757C128.089 7.58757 129.863 9.46907 129.863 11.7806C129.863 14.0922 128.089 15.9199 125.885 15.9737C123.574 15.9737 121.8 14.0922 121.8 11.7806C121.8 9.46907 123.52 7.58757 125.885 7.58757Z" fill="#00A3AD"/>
<path d="M133.25 6.29736H134.916V7.85632C135.507 6.83494 136.582 6.29736 137.98 6.29736H139.324V7.85632H137.98C135.776 7.85632 134.97 9.03898 134.97 11.5656V17.2638H133.25V6.29736Z" fill="#00A3AD"/>
<path d="M141.044 6.29736H142.765V11.6731V17.2638H141.044V11.6731V6.29736Z" fill="#00A3AD"/>
<path d="M144.915 6.29737H146.581V7.91008C147.334 6.78118 148.678 6.08234 150.29 6.08234C153.247 6.08234 155.075 8.0176 155.075 11.1893V17.2638H153.354V11.1355C153.354 8.98523 152.279 7.58754 150.075 7.58754C148.086 7.58754 146.581 9.1465 146.581 11.1893V17.2638H144.915V6.29737H144.915Z" fill="#00A3AD"/>
<path d="M161.096 11.9419L158.892 14.1997V17.2639H157.225V1.2442H158.892V12.2644L164.751 6.29738H166.901L162.332 10.9743L166.901 17.3176H164.912L161.096 11.9419Z" fill="#00A3AD"/>
<path d="M168.192 1.2442H169.912V11.6731V17.2639H168.192V11.6731V1.2442Z" fill="#00A3AD"/>
<path fill-rule="evenodd" clip-rule="evenodd" d="M177.33 6.02863C174.051 6.02863 171.632 8.55522 171.632 11.8344C171.632 15.0598 173.89 17.4789 177.438 17.4252C179.857 17.4252 181.577 16.2963 182.598 14.361L181.147 13.6622C180.448 15.0061 179.212 15.92 177.438 15.92C175.234 15.92 173.513 14.4148 173.298 12.2645H182.975V11.5656C182.975 8.17891 180.502 6.02863 177.33 6.02863ZM181.201 10.7593H173.352C173.782 8.93152 175.341 7.58759 177.33 7.58759C179.427 7.58759 180.878 8.77025 181.201 10.7593Z" fill="#00A3AD"/>
<path d="M6.4362 9.57657L4.76973 11.6731V17.2639H1.70557V11.4043L9.93042 1.2442H13.6397L8.58649 7.48004L14.0697 17.2639H10.5755L6.4362 9.57657Z" fill="#512D6D"/>
<path d="M3.90971 5.16848C4.56287 5.16848 5.09237 4.63899 5.09237 3.98582C5.09237 3.33266 4.56287 2.80316 3.90971 2.80316C3.25655 2.80316 2.72705 3.33266 2.72705 3.98582C2.72705 4.63899 3.25655 5.16848 3.90971 5.16848Z" fill="#00A3AD"/>
<path d="M1.70561 7.85635C2.35877 7.85635 2.88827 7.32685 2.88827 6.67369C2.88827 6.02052 2.35877 5.49103 1.70561 5.49103C1.05244 5.49103 0.522949 6.02052 0.522949 6.67369C0.522949 7.32685 1.05244 7.85635 1.70561 7.85635Z" fill="#00A3AD"/>
<path d="M1.70561 2.42684C2.35877 2.42684 2.88827 1.89735 2.88827 1.24418C2.88827 0.591018 2.35877 0.0615234 1.70561 0.0615234C1.05244 0.0615234 0.522949 0.591018 0.522949 1.24418C0.522949 1.89735 1.05244 2.42684 1.70561 2.42684Z" fill="#00A3AD"/>
<path d="M141.904 3.9858C142.558 3.9858 143.087 3.45631 143.087 2.80314C143.087 2.14998 142.558 1.62048 141.904 1.62048C141.251 1.62048 140.722 2.14998 140.722 2.80314C140.722 3.45631 141.251 3.9858 141.904 3.9858Z" fill="#00A3AD"/>
<path d="M0.845703 39.143V28.8216C0.845703 26.6713 1.54455 26.08 3.37229 26.08V27.4777C2.45842 27.4777 2.24339 27.7465 2.24339 28.8216V39.143C2.24339 40.2182 2.45842 40.487 3.37229 40.487V41.8846C1.38328 41.8846 0.845703 41.2933 0.845703 39.143Z" fill="#8E99A1"/>
<path d="M5.25399 40.4332H4.01758V27.3165H5.03897L6.3829 33.3373L7.72683 27.3165H8.74821V40.4332H7.5118V34.1436L7.8881 29.8968L7.45804 32.3696L6.43665 36.5627H6.16787L5.14648 32.3696L4.71642 29.8968L5.09272 34.1974V40.4332H5.25399Z" fill="#8E99A1"/>
<path d="M12.6187 40.4332H9.76953V27.3165H12.5649V28.6604H11.1135V33.0685H12.4574V34.4124H11.1135V39.0355H12.6187V40.4332Z" fill="#8E99A1"/>
<path d="M15.5211 28.6604V40.4332H14.1772V28.6604H13.1021V27.3165H16.5963V28.6604H15.5211Z" fill="#8E99A1"/>
<path fill-rule="evenodd" clip-rule="evenodd" d="M17.0264 29.0904V38.6592C17.0264 40.0031 17.8327 40.5945 19.0154 40.5945C20.198 40.5945 20.9506 40.0031 20.9506 38.6592V29.0904C20.9506 27.854 20.2518 27.2089 19.0154 27.2089C17.779 27.2089 17.0264 27.854 17.0264 29.0904ZM19.553 29.198V38.498C19.553 39.0355 19.3917 39.2506 19.0154 39.2506C18.5853 39.2506 18.4241 39.0355 18.4241 38.498V29.198C18.4241 28.6604 18.5316 28.4454 18.9616 28.4454C19.3917 28.4454 19.553 28.6604 19.553 29.198Z" fill="#8E99A1"/>
<path fill-rule="evenodd" clip-rule="evenodd" d="M23.2087 40.4332V36.0789V36.0251H23.6925C25.0364 36.0251 25.6278 35.2725 25.6278 34.0899V29.0905C25.6278 27.9616 25.0902 27.3165 23.6925 27.3165H21.8647V40.4332H23.2087ZM23.2089 34.7888V28.4992H23.5314C24.069 28.4992 24.2303 28.6604 24.2303 29.198V34.0362C24.2303 34.5737 24.0152 34.7888 23.5314 34.7888H23.2089Z" fill="#8E99A1"/>
<path fill-rule="evenodd" clip-rule="evenodd" d="M27.8317 40.4332V34.8425V34.735H28.208C28.6918 34.735 28.8531 34.95 28.8531 35.5413V39.5731C28.8531 39.9494 28.9069 40.272 29.0144 40.3795H30.4658C30.3046 40.1644 30.2508 39.8957 30.2508 39.5731V35.4338C30.2508 34.6812 30.0358 34.2511 29.4982 34.0899C29.982 33.8748 30.197 33.4448 30.197 32.6922V28.9829C30.197 27.8003 29.6595 27.3165 28.2618 27.3165H26.4878V40.4332H27.8317ZM27.8319 33.4986V28.4991V28.4454H28.1545C28.7458 28.4454 28.9071 28.6066 28.9071 29.1442V32.7997C28.9071 33.2835 28.692 33.4986 28.2082 33.4986H27.8319Z" fill="#8E99A1"/>
<path fill-rule="evenodd" clip-rule="evenodd" d="M31.0039 29.0904V38.6592C31.0039 40.0031 31.8103 40.5945 32.9929 40.5945C34.1756 40.5945 34.9282 40.0031 34.9282 38.6592V29.0904C34.9282 27.854 34.2293 27.2089 32.9929 27.2089C31.7565 27.2089 31.0039 27.854 31.0039 29.0904ZM33.5305 29.198V38.498C33.5305 39.0355 33.3692 39.2506 32.9929 39.2506C32.5629 39.2506 32.4016 39.0355 32.4016 38.498V29.198C32.4016 28.6604 32.5091 28.4454 32.9392 28.4454C33.3692 28.4454 33.5305 28.6604 33.5305 29.198Z" fill="#8E99A1"/>
<path d="M35.8418 40.4332V27.3165H37.2395V39.0355H38.8522V40.4332H35.8418Z" fill="#8E99A1"/>
<path fill-rule="evenodd" clip-rule="evenodd" d="M39.3901 29.0904V38.6592C39.3901 40.0031 40.1427 40.5945 41.3792 40.5945C42.5618 40.5945 43.3144 40.0031 43.3144 38.6592V29.0904C43.3144 27.854 42.6156 27.2089 41.3792 27.2089C40.1427 27.2089 39.3901 27.854 39.3901 29.0904ZM41.9167 29.198V38.498C41.9167 39.0355 41.7555 39.2506 41.3792 39.2506C40.9491 39.2506 40.7878 39.0355 40.7878 38.498V29.198C40.7878 28.6604 40.8954 28.4454 41.3254 28.4454C41.7555 28.4454 41.9167 28.6604 41.9167 29.198Z" fill="#8E99A1"/>
<path d="M44.228 40.4332V27.3165H45.6257V39.0355H47.2384V40.4332H44.228Z" fill="#8E99A1"/>
<path d="M49.335 38.6592V35.0575H50.6789V38.4979C50.6789 39.0355 50.7864 39.2505 51.1627 39.2505C51.539 39.2505 51.7003 39.0355 51.7003 38.5517V35.38C51.7003 34.7349 51.4852 34.6274 50.6789 34.1436C49.765 33.5523 49.3887 33.1222 49.3887 32.1546V28.9829C49.3887 27.854 50.0338 27.2089 51.2702 27.2089C52.4529 27.2089 52.9905 27.854 53.0442 28.8216V32.2621H51.754V29.1442C51.754 28.6066 51.6465 28.4453 51.2702 28.4453C50.8939 28.4453 50.7864 28.6066 50.7864 29.1442V31.9933C50.7864 32.5309 50.9477 32.6384 51.8616 33.2835C52.7217 33.8748 53.0442 34.1974 53.0442 35.2188V38.6592C53.0442 40.0031 52.3991 40.5945 51.1627 40.5945C49.9263 40.5945 49.335 40.0569 49.335 38.6592Z" fill="#8E99A1"/>
<path d="M53.8501 38.6592V27.3165H55.2478V38.498C55.2478 39.0355 55.3553 39.2506 55.7316 39.2506C56.1079 39.2506 56.2154 39.0355 56.2154 38.498V27.3165H57.6131V38.6592C57.6131 40.0032 56.968 40.5945 55.7316 40.5945C54.4952 40.5945 53.8501 40.0569 53.8501 38.6592Z" fill="#8E99A1"/>
<path d="M58.4731 38.6592V29.0904C58.4731 27.8003 59.2257 27.2089 60.4084 27.2089C61.5911 27.2089 62.2362 27.8003 62.2899 29.0367V32.5309H60.946V29.1442C60.946 28.6066 60.7847 28.3916 60.4084 28.3916C60.0321 28.3916 59.8708 28.6066 59.8708 29.1442V38.4442C59.8708 38.9818 59.9783 39.1968 60.4084 39.1968C60.7847 39.1968 60.946 38.9818 60.946 38.4442V34.7349H62.2899V38.6055C62.2899 39.9494 61.6448 40.5407 60.4084 40.5407C59.1182 40.5945 58.4731 40.0569 58.4731 38.6592Z" fill="#8E99A1"/>
<path d="M63.0967 38.6592V29.0904C63.0967 27.8003 63.8493 27.2089 65.0319 27.2089C66.2146 27.2089 66.8597 27.8003 66.9134 29.0367V32.5309H65.5695V29.1442C65.5695 28.6066 65.4082 28.3916 65.0319 28.3916C64.6556 28.3916 64.4944 28.6066 64.4944 29.1442V38.4442C64.4944 38.9818 64.6019 39.1968 65.0319 39.1968C65.4082 39.1968 65.5695 38.9818 65.5695 38.4442V34.7349H66.9134V38.6055C66.9134 39.9494 66.2684 40.5407 65.0319 40.5407C63.688 40.5945 63.0967 40.0569 63.0967 38.6592Z" fill="#8E99A1"/>
<path d="M67.397 40.4332V39.143H68.1496V28.6604H67.397V27.3702H70.1923V28.6604H69.4397V39.143H70.1923V40.4332H67.397Z" fill="#8E99A1"/>
<path d="M72.0743 40.4332H70.8916V27.3165H71.9667L73.5257 34.6812L73.8482 36.6165L73.6332 33.8211V27.2627H74.8696V40.3795H73.8482L72.2893 32.961L71.9667 31.0257L72.1818 33.7136V40.4332H72.0743Z" fill="#8E99A1"/>
<path fill-rule="evenodd" clip-rule="evenodd" d="M76.8044 38.8205H77.9333L78.0946 40.4332H79.4385L78.0946 27.3165H76.6969L75.4067 40.4332H76.6969L76.8044 38.8205ZM77.8256 37.5841H76.858L77.2343 32.7997L77.3418 29.8431L77.4493 32.7997L77.8256 37.5841Z" fill="#8E99A1"/>
<path d="M81.4279 28.6604V40.4332H80.0839V28.6604H79.0088V27.3165H82.503V28.6604H81.4279Z" fill="#8E99A1"/>
<path d="M85.8897 40.4332H83.0405V27.3165H85.8359V28.6604H84.3845V33.0685H85.7284V34.4124H84.3845V39.0355H85.8897V40.4332Z" fill="#8E99A1"/>
<path d="M86.373 40.487C87.2869 40.487 87.5019 40.2182 87.5019 39.143V28.8216C87.5019 27.7465 87.2869 27.4777 86.373 27.4777V26.08C88.2008 26.08 88.8996 26.6713 88.8996 28.8216V39.143C88.8996 41.2933 88.3083 41.8846 86.373 41.8846V40.487Z" fill="#8E99A1"/>
<path d="M94.9206 33.5523H91.9102V27.3702H94.9206V28.6604H93.3078V29.7893H94.7593V31.0794H93.3078V32.2083H94.9206V33.5523Z" fill="#8E99A1"/>
<path d="M96.5872 33.5523H95.082L96.3722 30.2731L95.1895 27.3702H96.641L97.1248 28.8216V29.1442V28.8216L97.6086 27.3702H99.0601L97.8774 30.3268L99.1676 33.606H97.7161L97.1786 31.9395V31.6708V31.9395L96.5872 33.5523Z" fill="#8E99A1"/>
<path d="M101.533 28.6066V33.4985H100.135V28.6066H99.2212V27.3164H102.5V28.6066H101.533Z" fill="#8E99A1"/>
<path d="M105.941 33.5523H102.93V27.3702H105.941V28.6604H104.328V29.7893H105.779V31.0794H104.274V32.2083H105.887V33.5523H105.941Z" fill="#8E99A1"/>
<path d="M107.607 33.5523H106.317V27.3702H107.607L108.682 30.3806L108.79 30.7031V30.1656V27.3702H110.08V33.5523H108.843L107.715 30.5419L107.607 30.1656L107.661 30.7569V33.5523H107.607Z" fill="#8E99A1"/>
<path fill-rule="evenodd" clip-rule="evenodd" d="M112.284 27.3702H110.564H110.51V33.5523H112.23C113.305 33.5523 114.111 33.0684 114.111 31.7783V29.1442C114.111 27.854 113.359 27.3702 112.284 27.3702ZM111.961 32.3159V28.5529H112.176C112.445 28.5529 112.606 28.7142 112.606 29.2517V31.617C112.606 32.1009 112.445 32.3159 112.176 32.3159H111.961Z" fill="#8E99A1"/>
<path d="M117.66 33.5523H114.649V27.3702H117.66V28.6604H116.047V29.7893H117.499V31.0794H116.047V32.2083H117.66V33.5523Z" fill="#8E99A1"/>
<path fill-rule="evenodd" clip-rule="evenodd" d="M119.81 27.3702H118.09H118.036V33.5523H119.756C120.832 33.5523 121.638 33.0684 121.638 31.7783V29.1442C121.638 27.854 120.885 27.3702 119.81 27.3702ZM119.487 32.3159V28.5529H119.702C119.971 28.5529 120.132 28.7142 120.132 29.2517V31.617C120.132 32.1009 119.971 32.3159 119.702 32.3159H119.487Z" fill="#8E99A1"/>
<path d="M124.541 31.0795H122.176V29.7355H124.541V31.0795Z" fill="#8E99A1"/>
<path fill-rule="evenodd" clip-rule="evenodd" d="M126.369 33.4984V31.3481H126.584C126.906 31.3481 127.014 31.4557 127.014 31.7782V33.1221C127.014 33.3372 127.014 33.4984 127.121 33.5522H128.573C128.465 33.4447 128.412 33.3372 128.412 33.1221V31.6707C128.412 31.0794 128.304 30.8106 127.928 30.6493C128.25 30.488 128.465 30.1655 128.465 29.6279V28.8215C128.465 27.6926 127.928 27.3163 126.799 27.3163H125.025V33.4984H126.369ZM126.369 30.1117V28.5528H126.692C126.96 28.5528 127.068 28.6603 127.068 28.9291V29.7354C127.068 30.0042 126.96 30.1117 126.692 30.1117H126.369Z" fill="#8E99A1"/>
<path d="M131.905 33.5523H128.895V27.3702H131.905V28.6604H130.293V29.7893H131.744V31.0794H130.293V32.2083H131.905V33.5523Z" fill="#8E99A1"/>
<path d="M132.335 33.5523V27.3702H133.787V32.1546H135.238V33.606H132.335V33.5523Z" fill="#8E99A1"/>
<path d="M138.733 33.5523H135.722V27.3702H138.733V28.6604H137.12V29.7893H138.571V31.0794H137.066V32.2083H138.679V33.5523H138.733Z" fill="#8E99A1"/>
<path fill-rule="evenodd" clip-rule="evenodd" d="M140.452 32.8534H141.42L141.581 33.5523H142.979L141.635 27.3702H140.237L138.947 33.5523H140.345L140.452 32.8534ZM141.205 31.6708H140.614L140.829 30.1656L140.882 29.413L140.936 30.1656L141.205 31.6708Z" fill="#8E99A1"/>
<path d="M143.033 32.047V31.1869H144.485V32.047C144.485 32.2621 144.538 32.4233 144.807 32.4233C145.022 32.4233 145.076 32.2621 145.076 32.047V31.6707C145.076 31.2407 144.646 31.0257 144.216 30.8106C143.678 30.4881 143.033 30.1118 143.033 29.1979V28.8754C143.033 27.8002 143.625 27.3164 144.753 27.3164C145.829 27.3164 146.42 27.8002 146.42 28.7679V29.4129H145.13V28.8216C145.13 28.5528 145.076 28.4453 144.861 28.4453C144.646 28.4453 144.592 28.5528 144.592 28.8216V29.0366C144.592 29.3592 144.968 29.5742 145.399 29.7892C145.936 30.1118 146.581 30.4881 146.581 31.4557V32.1008C146.581 33.1759 146.044 33.6598 144.807 33.6598C143.517 33.6598 143.033 33.1222 143.033 32.047Z" fill="#8E99A1"/>
<path d="M149.968 33.5523H146.958V27.3702H149.968V28.6604H148.355V29.7893H149.807V31.0794H148.355V32.2083H149.968V33.5523Z" fill="#8E99A1"/>
<path d="M152.011 31.7782V29.0904C152.011 27.8002 152.71 27.2626 153.838 27.2626C154.967 27.2626 155.666 27.8002 155.666 28.9291V29.9505H154.161V29.0904C154.161 28.6603 154.107 28.5528 153.838 28.5528C153.57 28.5528 153.516 28.7678 153.516 29.1979V31.6707C153.516 32.1545 153.57 32.3158 153.838 32.3158C154.107 32.3158 154.161 32.1545 154.161 31.7245V30.7569H155.666V31.832C155.666 33.1222 155.021 33.606 153.838 33.606C152.602 33.6597 152.011 33.0684 152.011 31.7782Z" fill="#8E99A1"/>
<path fill-rule="evenodd" clip-rule="evenodd" d="M157.225 32.8534H158.193L158.354 33.5523H159.752L158.408 27.3702H157.01L155.72 33.5523H157.118L157.225 32.8534ZM157.978 31.6708H157.387L157.602 30.1656L157.655 29.413L157.709 30.1656L157.978 31.6708Z" fill="#8E99A1"/>
<path fill-rule="evenodd" clip-rule="evenodd" d="M161.364 33.4984V31.6169H161.687C162.977 31.6169 163.461 30.9718 163.461 29.9504V28.8753C163.461 27.8002 162.923 27.3163 161.687 27.3163H159.966V33.4984H161.364ZM161.364 30.4343V28.5528H161.633C161.955 28.5528 162.063 28.7141 162.063 28.9828V30.0042C162.063 30.273 161.902 30.4343 161.633 30.4343H161.364Z" fill="#8E99A1"/>
<path d="M163.784 32.047V31.1869H165.235V32.047C165.235 32.2621 165.289 32.4233 165.558 32.4233C165.773 32.4233 165.826 32.2621 165.826 32.047V31.6707C165.826 31.2407 165.396 31.0257 164.966 30.8106C164.429 30.4881 163.784 30.1118 163.784 29.1979V28.8754C163.784 27.8002 164.375 27.3164 165.504 27.3164C166.579 27.3164 167.17 27.8002 167.17 28.7679V29.4129H165.773V28.8216C165.773 28.5528 165.719 28.4453 165.504 28.4453C165.289 28.4453 165.235 28.5528 165.235 28.8216V29.0366C165.235 29.3592 165.611 29.5742 166.041 29.7892C166.579 30.1118 167.224 30.4881 167.224 31.4557V32.1008C167.224 33.1759 166.687 33.6598 165.45 33.6598C164.268 33.6598 163.784 33.1222 163.784 32.047Z" fill="#8E99A1"/>
<path d="M167.654 31.7783V27.3164H169.052V31.6707C169.052 32.1008 169.159 32.2621 169.375 32.2621C169.643 32.2621 169.697 32.1546 169.697 31.6707V27.3164H171.095V31.7783C171.095 33.0684 170.45 33.606 169.375 33.606C168.299 33.6598 167.654 33.0684 167.654 31.7783Z" fill="#8E99A1"/>
<path d="M171.686 33.5523V27.3702H173.137V32.1546H174.588V33.606H171.686V33.5523Z" fill="#8E99A1"/>
<path d="M178.029 33.5523H175.019V27.3702H178.029V28.6604H176.416V29.7893H177.868V31.0794H176.416V32.2083H178.029V33.5523Z" fill="#8E99A1"/>
<path d="M178.352 32.047V31.1869H179.803V32.047C179.803 32.2621 179.857 32.4233 180.126 32.4233C180.341 32.4233 180.395 32.2621 180.395 32.047V31.6707C180.395 31.2407 179.965 31.0257 179.535 30.8106C178.997 30.4881 178.352 30.1118 178.352 29.1979V28.8754C178.352 27.8002 178.943 27.3164 180.072 27.3164C181.147 27.3164 181.739 27.8002 181.739 28.7679V29.4129H180.341V28.8216C180.341 28.5528 180.287 28.4453 180.072 28.4453C179.857 28.4453 179.803 28.5528 179.803 28.8216V29.0366C179.803 29.3592 180.18 29.5742 180.61 29.7892C181.147 30.1118 181.793 30.4881 181.793 31.4557V32.1008C181.793 33.1759 181.255 33.6598 180.019 33.6598C178.836 33.6598 178.352 33.1222 178.352 32.047Z" fill="#8E99A1"/>
<path d="M91.9102 40.4331V39.8418C91.9102 38.8204 92.5552 38.2829 93.1466 37.8528C93.6304 37.4765 94.1142 37.1002 94.1142 36.5626V36.3476C94.1142 35.8638 93.9529 35.595 93.4154 35.595C92.9315 35.595 92.7165 35.81 92.7165 36.2938V37.0464H92.0177V36.2938C92.0177 35.4337 92.5552 35.0037 93.4691 35.0037C94.383 35.0037 94.8668 35.4875 94.8668 36.3476V36.5089C94.8668 37.3152 94.3292 37.7453 93.7917 38.2291C93.2541 38.6592 92.7703 39.0355 92.7703 39.7343H94.8668V40.4331H91.9102Z" fill="#8E99A1"/>
<path d="M95.3506 39.0892V38.6054H96.1032V38.9817C96.1032 39.573 96.2645 39.8418 96.802 39.8418C97.3396 39.8418 97.5009 39.5193 97.5009 38.928V38.0141C97.5009 37.5303 97.2858 37.3152 96.8558 37.3152C96.4795 37.3152 96.2645 37.5303 96.1032 37.7991L96.0494 37.9603L95.3506 37.7453L95.6194 35.0574H98.146V35.1112C98.146 35.7025 98.0384 35.7563 97.3934 35.7563H96.2107C96.1569 36.1863 96.1032 36.9389 96.0494 37.3152C96.2107 36.9927 96.5332 36.6702 97.0708 36.7239C97.8234 36.7239 98.1997 37.2615 98.1997 38.0678V39.0892C98.1997 40.0569 97.7159 40.5944 96.7483 40.5944C95.8882 40.5407 95.3506 40.1106 95.3506 39.0892Z" fill="#8E99A1"/>
<path d="M100.189 40.4332H99.4902V36.0788H100.082L100.135 36.7239C100.297 36.2401 100.565 35.9713 101.103 35.9713C101.641 35.9713 101.909 36.2401 102.017 36.6702C102.178 36.2401 102.501 35.9713 102.931 35.9713C103.63 35.9713 103.952 36.4014 103.952 37.3152V40.4332H103.199V37.4228C103.199 36.8852 103.038 36.6164 102.608 36.6164C102.178 36.6164 102.017 36.9927 102.017 37.4228V40.4332H101.318V37.4228C101.318 36.9389 101.157 36.6164 100.727 36.6164C100.297 36.6164 100.135 36.9927 100.135 37.5303V40.4332H100.189Z" fill="#8E99A1"/>
<path fill-rule="evenodd" clip-rule="evenodd" d="M105.726 41.9383C104.866 41.9383 104.49 41.6695 104.49 41.1857C104.49 40.8632 104.812 40.5406 105.296 40.4331C104.759 40.3794 104.544 40.1643 104.544 39.788C104.544 39.4117 104.812 39.1967 105.296 39.0892C104.92 38.9279 104.705 38.6054 104.705 38.1216V37.2614C104.705 36.6164 105.081 36.1863 105.726 36.0788H105.834C106.425 35.9713 106.533 35.8638 106.533 35.4337V35.1649H107.285V35.3262C107.285 35.8638 107.07 36.1325 106.371 36.1863H106.533C107.07 36.2938 107.339 36.6701 107.339 37.2077V38.1216C107.339 38.8742 106.801 39.3042 105.995 39.3042H105.887C105.35 39.3042 105.135 39.4117 105.135 39.573C105.135 39.7343 105.242 39.8418 105.672 39.8418H106.371C107.231 39.8418 107.554 40.2181 107.554 40.8094C107.554 41.4008 107.124 41.9383 105.887 41.9383H105.726ZM105.995 41.347C106.586 41.347 106.855 41.132 106.855 40.8632C106.855 40.6481 106.694 40.4869 106.264 40.4869H105.78C105.404 40.5406 105.135 40.7557 105.135 41.0244C105.135 41.2395 105.35 41.4007 105.726 41.4007H105.995V41.347ZM106.64 37.2614V38.1216C106.64 38.5516 106.425 38.7666 105.995 38.8204C105.619 38.8204 105.404 38.6054 105.404 38.1753V37.3152C105.404 36.9927 105.565 36.7776 105.834 36.6701C105.887 36.6164 105.941 36.6164 106.049 36.6164C106.479 36.6164 106.64 36.8851 106.64 37.2614Z" fill="#8E99A1"/>
<path d="M108.145 40.9707C108.414 40.9169 108.521 40.7557 108.575 40.4331C108.521 40.4331 108.521 40.4331 108.468 40.4331C108.199 40.4331 108.091 40.3256 108.091 39.9493C108.091 39.573 108.199 39.4117 108.575 39.4117C108.898 39.4117 109.059 39.573 109.059 40.0568C109.059 40.7019 108.79 41.132 108.199 41.2932L108.145 40.9707Z" fill="#8E99A1"/>
<path d="M111.048 39.0892V38.6054H111.8V38.9817C111.8 39.573 111.962 39.8418 112.499 39.8418C113.037 39.8418 113.198 39.5193 113.198 38.928V38.0141C113.198 37.5303 112.983 37.3152 112.553 37.3152C112.177 37.3152 111.962 37.5303 111.8 37.7991L111.747 37.9603L111.048 37.7453L111.317 35.0574H113.843V35.1112C113.843 35.7025 113.736 35.7563 113.091 35.7563H111.908C111.854 36.1863 111.8 36.9389 111.747 37.3152C111.908 36.9927 112.231 36.6702 112.768 36.7239C113.521 36.7239 113.897 37.2615 113.897 38.0678V39.0892C113.897 40.0569 113.413 40.5944 112.446 40.5944C111.532 40.5407 111.048 40.1106 111.048 39.0892Z" fill="#8E99A1"/>
<path fill-rule="evenodd" clip-rule="evenodd" d="M114.596 36.7239V38.8742C114.596 40.0031 115.187 40.5407 116.101 40.5407C117.015 40.5407 117.606 40.0031 117.606 38.8742V36.7239C117.606 35.6488 117.015 35.0574 116.101 35.0574C115.187 35.0574 114.596 35.6488 114.596 36.7239ZM116.907 36.7239V38.8204C116.907 39.5193 116.638 39.8418 116.101 39.8418C115.509 39.8418 115.294 39.5193 115.294 38.8204V36.7239C115.294 36.0251 115.509 35.6488 116.101 35.6488C116.692 35.6488 116.907 36.0251 116.907 36.7239Z" fill="#8E99A1"/>
<path d="M119.595 40.4332H118.896V36.0788H119.488L119.542 36.7239C119.703 36.2401 119.972 35.9713 120.509 35.9713C121.047 35.9713 121.316 36.2401 121.423 36.6702C121.584 36.2401 121.907 35.9713 122.337 35.9713C123.036 35.9713 123.358 36.4014 123.358 37.3152V40.4332H122.659V37.4228C122.659 36.8852 122.498 36.6164 122.068 36.6164C121.638 36.6164 121.477 36.9927 121.477 37.4228V40.4332H120.778V37.4228C120.778 36.9389 120.617 36.6164 120.187 36.6164C119.757 36.6164 119.595 36.9927 119.595 37.5303V40.4332Z" fill="#8E99A1"/>
<path fill-rule="evenodd" clip-rule="evenodd" d="M125.186 41.9383C124.326 41.9383 123.949 41.6695 123.949 41.1857C123.949 40.8632 124.272 40.5406 124.756 40.4331C124.218 40.3794 124.003 40.1643 124.003 39.788C124.003 39.4117 124.272 39.1967 124.756 39.0892C124.379 38.9279 124.164 38.6054 124.164 38.1216V37.2614C124.164 36.6164 124.541 36.1863 125.186 36.0788H125.293C125.884 35.9713 125.992 35.8638 125.992 35.4337V35.1649H126.745V35.3262C126.745 35.8638 126.53 36.1325 125.831 36.1863H125.992C126.53 36.2938 126.798 36.6701 126.798 37.2077V38.1216C126.798 38.8742 126.261 39.3042 125.454 39.3042H125.347C124.756 39.3042 124.594 39.4117 124.594 39.573C124.594 39.7343 124.702 39.8418 125.132 39.8418H125.831C126.691 39.8418 127.013 40.2181 127.013 40.8094C127.013 41.4008 126.583 41.9383 125.347 41.9383H125.186ZM125.454 41.347C126.046 41.347 126.315 41.132 126.315 40.8632C126.315 40.6481 126.153 40.4869 125.723 40.4869H125.239C124.863 40.5406 124.594 40.7557 124.594 41.0244C124.594 41.2395 124.809 41.4007 125.186 41.4007H125.454V41.347ZM126.046 37.2614V38.1216C126.046 38.5516 125.831 38.7666 125.401 38.8204C125.024 38.8204 124.809 38.6054 124.809 38.1753V37.3152C124.809 36.9927 124.971 36.7776 125.24 36.6701C125.293 36.6164 125.347 36.6164 125.455 36.6164C125.885 36.6164 126.046 36.8851 126.046 37.2614Z" fill="#8E99A1"/>
<path d="M127.551 40.9707C127.82 40.9169 127.927 40.7557 127.981 40.4331C127.927 40.4331 127.927 40.4331 127.873 40.4331C127.605 40.4331 127.497 40.3256 127.497 39.9493C127.497 39.573 127.605 39.4117 127.981 39.4117C128.303 39.4117 128.465 39.573 128.465 40.0568C128.465 40.7019 128.196 41.132 127.605 41.2932L127.551 40.9707Z" fill="#8E99A1"/>
<path d="M130.347 40.4332V39.7343H131.099V36.3476H130.508V35.81C130.992 35.7563 131.153 35.595 131.207 35.0574H131.744V39.7343H132.497V40.4332H130.347Z" fill="#8E99A1"/>
<path fill-rule="evenodd" clip-rule="evenodd" d="M133.034 36.7239V38.8742C133.034 40.0031 133.626 40.5407 134.539 40.5407C135.453 40.5407 136.045 40.0031 136.045 38.8742V36.7239C136.045 35.6488 135.453 35.0574 134.539 35.0574C133.626 35.0574 133.034 35.6488 133.034 36.7239ZM135.346 36.7239V38.8204C135.346 39.5193 135.13 39.8418 134.539 39.8418C133.948 39.8418 133.733 39.5193 133.733 38.8204V36.7239C133.733 36.0251 133.948 35.6488 134.539 35.6488C135.13 35.6488 135.346 36.0251 135.346 36.7239Z" fill="#8E99A1"/>
<path fill-rule="evenodd" clip-rule="evenodd" d="M136.797 36.7239V38.8742C136.797 40.0031 137.388 40.5407 138.302 40.5407C139.216 40.5407 139.807 40.0031 139.807 38.8742V36.7239C139.807 35.6488 139.216 35.0574 138.302 35.0574C137.388 35.0574 136.797 35.6488 136.797 36.7239ZM139.108 36.7239V38.8204C139.108 39.5193 138.893 39.8418 138.302 39.8418C137.711 39.8418 137.495 39.5193 137.495 38.8204V36.7239C137.495 36.0251 137.711 35.6488 138.302 35.6488C138.893 35.6488 139.108 36.0251 139.108 36.7239Z" fill="#8E99A1"/>
<path d="M141.797 40.4332H141.098V36.0788H141.689L141.743 36.7239C141.905 36.2401 142.173 35.9713 142.711 35.9713C143.248 35.9713 143.517 36.2401 143.625 36.6702C143.786 36.2401 144.109 35.9713 144.539 35.9713C145.237 35.9713 145.56 36.4014 145.56 37.3152V40.4332H144.861V37.4228C144.861 36.8852 144.7 36.6164 144.27 36.6164C143.84 36.6164 143.678 36.9927 143.678 37.4228V40.4332H142.98V37.4228C142.98 36.9389 142.818 36.6164 142.388 36.6164C141.958 36.6164 141.797 36.9927 141.797 37.5303V40.4332Z" fill="#8E99A1"/>
<path fill-rule="evenodd" clip-rule="evenodd" d="M147.388 41.9383C146.528 41.9383 146.151 41.6695 146.151 41.1857C146.151 40.8632 146.474 40.5406 146.958 40.4331C146.42 40.3794 146.205 40.1643 146.205 39.788C146.205 39.4117 146.474 39.1967 146.958 39.0892C146.581 38.9279 146.366 38.6054 146.366 38.1216V37.2614C146.366 36.6164 146.743 36.1863 147.388 36.0788H147.495C148.087 35.9713 148.194 35.8638 148.194 35.4337V35.1649H148.947V35.3262C148.947 35.8638 148.732 36.1325 148.033 36.1863H148.194C148.732 36.2938 149.001 36.6701 149.001 37.2077V38.1216C149.001 38.8742 148.463 39.3042 147.657 39.3042H147.549C147.011 39.3042 146.796 39.4117 146.796 39.573C146.796 39.7343 146.904 39.8418 147.334 39.8418H148.033C148.893 39.8418 149.216 40.2181 149.216 40.8094C149.216 41.4008 148.785 41.9383 147.549 41.9383H147.388ZM147.657 41.347C148.248 41.347 148.517 41.132 148.517 40.8632C148.517 40.6481 148.355 40.4869 147.925 40.4869H147.442C147.065 40.5406 146.796 40.7557 146.796 41.0244C146.796 41.2395 147.011 41.4007 147.388 41.4007H147.657V41.347ZM148.248 37.2614V38.1216C148.248 38.5516 148.033 38.7666 147.603 38.8204C147.227 38.8204 147.012 38.6054 147.012 38.1753V37.3152C147.012 36.9927 147.173 36.7776 147.442 36.6701C147.495 36.6164 147.549 36.6164 147.657 36.6164C148.087 36.6164 148.248 36.8851 148.248 37.2614Z" fill="#8E99A1"/>
<path d="M149.807 40.9707C150.075 40.9169 150.183 40.7557 150.237 40.4331C150.183 40.4331 150.183 40.4331 150.129 40.4331C149.86 40.4331 149.753 40.3256 149.753 39.9493C149.753 39.573 149.86 39.4117 150.237 39.4117C150.559 39.4117 150.721 39.573 150.721 40.0568C150.721 40.7019 150.452 41.132 149.86 41.2932L149.807 40.9707Z" fill="#8E99A1"/>
<path d="M152.656 40.4331V39.8418C152.656 38.8204 153.301 38.2829 153.892 37.8528C154.376 37.4765 154.86 37.1002 154.86 36.5626V36.3476C154.86 35.8638 154.699 35.595 154.161 35.595C153.677 35.595 153.462 35.81 153.462 36.2938V37.0464H152.763V36.2938C152.763 35.4337 153.301 35.0037 154.215 35.0037C155.129 35.0037 155.612 35.4875 155.612 36.3476V36.5089C155.612 37.3152 155.075 37.7453 154.537 38.2291C154 38.6592 153.516 39.0355 153.516 39.7343H155.612V40.4331H152.656Z" fill="#8E99A1"/>
<path fill-rule="evenodd" clip-rule="evenodd" d="M156.204 36.7239V38.8742C156.204 40.0031 156.795 40.5407 157.709 40.5407C158.623 40.5407 159.214 40.0031 159.214 38.8742V36.7239C159.214 35.6488 158.623 35.0574 157.709 35.0574C156.795 35.0574 156.204 35.6488 156.204 36.7239ZM158.515 36.7239V38.8204C158.515 39.5193 158.3 39.8418 157.709 39.8418C157.117 39.8418 156.902 39.5193 156.902 38.8204V36.7239C156.902 36.0251 157.117 35.6488 157.709 35.6488C158.3 35.6488 158.515 36.0251 158.515 36.7239Z" fill="#8E99A1"/>
<path fill-rule="evenodd" clip-rule="evenodd" d="M159.966 36.7239V38.8742C159.966 40.0031 160.558 40.5407 161.472 40.5407C162.385 40.5407 162.977 40.0031 162.977 38.8742V36.7239C162.977 35.6488 162.385 35.0574 161.472 35.0574C160.558 35.0574 159.966 35.6488 159.966 36.7239ZM162.278 36.7239V38.8204C162.278 39.5193 162.063 39.8418 161.471 39.8418C160.88 39.8418 160.665 39.5193 160.665 38.8204V36.7239C160.665 36.0251 160.88 35.6488 161.471 35.6488C162.063 35.6488 162.278 36.0251 162.278 36.7239Z" fill="#8E99A1"/>
<path d="M164.966 40.4332H164.268V36.0788H164.859L164.913 36.7239C165.074 36.2401 165.343 35.9713 165.88 35.9713C166.418 35.9713 166.687 36.2401 166.794 36.6702C166.955 36.2401 167.278 35.9713 167.708 35.9713C168.407 35.9713 168.729 36.4014 168.729 37.3152V40.4332H168.031V37.4228C168.031 36.8852 167.869 36.6164 167.439 36.6164C167.009 36.6164 166.848 36.9927 166.848 37.4228V40.4332H166.149V37.4228C166.149 36.9389 165.988 36.6164 165.558 36.6164C165.128 36.6164 164.966 36.9927 164.966 37.5303V40.4332Z" fill="#8E99A1"/>
<path fill-rule="evenodd" clip-rule="evenodd" d="M170.557 41.9383C169.697 41.9383 169.321 41.6695 169.321 41.1857C169.321 40.8632 169.643 40.5406 170.127 40.4331C169.59 40.3794 169.375 40.1643 169.375 39.788C169.375 39.4117 169.643 39.1967 170.127 39.0892C169.751 38.9279 169.536 38.6054 169.536 38.1216V37.2614C169.536 36.6164 169.912 36.1863 170.557 36.0788H170.665C171.256 35.9713 171.364 35.8638 171.364 35.4337V35.1649H172.116V35.3262C172.116 35.8638 171.901 36.1325 171.202 36.1863H171.364C171.901 36.2938 172.17 36.6701 172.17 37.2077V38.1216C172.17 38.8742 171.632 39.3042 170.826 39.3042H170.718C170.127 39.3042 169.966 39.4117 169.966 39.573C169.966 39.7343 170.073 39.8418 170.503 39.8418H171.202C172.062 39.8418 172.385 40.2181 172.385 40.8094C172.385 41.4008 171.955 41.9383 170.718 41.9383H170.557ZM170.826 41.347C171.417 41.347 171.686 41.132 171.686 40.8632C171.686 40.6481 171.525 40.4869 171.095 40.4869H170.611C170.235 40.5406 169.966 40.7557 169.966 41.0244C169.966 41.2395 170.181 41.4007 170.557 41.4007H170.826V41.347ZM171.417 37.2614V38.1216C171.417 38.5516 171.202 38.7666 170.772 38.8204C170.396 38.8204 170.181 38.6054 170.181 38.1753V37.3152C170.181 36.9927 170.342 36.7776 170.611 36.6701C170.665 36.6164 170.719 36.6164 170.826 36.6164C171.256 36.6164 171.417 36.8851 171.417 37.2614Z" fill="#8E99A1"/>
<path fill-rule="evenodd" clip-rule="evenodd" d="M180.986 3.07196H181.738V5.11474H182.222V3.07196H183.029V2.64191H180.986V3.07196ZM183.781 2.64191H183.405V5.1685H183.889V3.44827L184.749 4.52341L185.609 3.44827V5.11474H186.093V2.64191H185.663L184.695 3.87832L183.781 2.64191Z" fill="#00A3AD"/>
</svg>
