<svg id="Layer_1" data-name="Layer 1" xmlns="http://www.w3.org/2000/svg" viewBox="0 0 539.87 122.82"><polygon points="1.3 30.46 1.3 1.52 4.99 1.52 4.99 26.96 19.11 26.96 19.11 30.46 1.3 30.46" fill="#002f65"/><polygon points="25.61 30.46 25.61 1.52 42.31 1.52 42.31 4.9 29.31 4.9 29.31 13.76 40.58 13.76 40.58 17.01 29.31 17.01 29.31 27.05 42.31 27.05 42.31 30.46 25.61 30.46" fill="#002f65"/><polygon points="61.45 32.22 47.64 1.52 51.54 1.52 61.45 23.83 71.36 1.52 75.25 1.52 61.45 32.22" fill="#002f65"/><path d="M131.61,28.85a13.42,13.42,0,0,1-.85,4.89A10.51,10.51,0,0,1,124.58,40a14.59,14.59,0,0,1-9.87,0,10.65,10.65,0,0,1-3.77-2.45,10.92,10.92,0,0,1-2.41-3.79,13.64,13.64,0,0,1-.84-4.89V11h3.69V28.2a11,11,0,0,0,.77,4.38,7.76,7.76,0,0,0,2,2.83,7.43,7.43,0,0,0,2.67,1.52,9.18,9.18,0,0,0,5.74,0,7.6,7.6,0,0,0,2.67-1.52,7.88,7.88,0,0,0,2-2.83,11,11,0,0,0,.77-4.38V11h3.69Z" transform="translate(-26.34 -9.51)" fill="#002f65"/><polygon points="114.05 30.46 114.05 1.52 117.74 1.52 117.74 26.96 131.87 26.96 131.87 30.46 114.05 30.46" fill="#002f65"/><path d="M177.31,17.77,183,29.69H171.65Zm0-8.26L162.74,40h4l3.33-7h14.52L188,40h4Z" transform="translate(-26.34 -9.51)" fill="#002f65"/><polygon points="170.19 0 170.19 30.46 173.84 30.46 173.84 9.27 194.78 32.22 194.78 1.52 191.13 1.52 191.13 22.95 170.19 0" fill="#002f65"/><path d="M227,14.87h1.37a.72.72,0,0,0,.35-.08.84.84,0,0,0,.3-.24.8.8,0,0,0,.13-.51.62.62,0,0,0-.32-.58,1.44,1.44,0,0,0-.66-.17H227Zm1.15-2.31.42,0a1.42,1.42,0,0,1,.57.19,1.52,1.52,0,0,1,.51.44,1.38,1.38,0,0,1,.22.84,1.26,1.26,0,0,1-.24.93,1.6,1.6,0,0,1-.68.47l.92,2.13H229l-.8-2.07H227v2.07h-.74v-5Zm3.87,2.5a4.29,4.29,0,0,0-.36-1.52,4,4,0,0,0-2.1-2.08,3.69,3.69,0,0,0-1.51-.32,4,4,0,0,0-1.57.32,4.22,4.22,0,0,0-1.29.86,4,4,0,0,0-.88,1.29,3.79,3.79,0,0,0-.34,1.57,4.13,4.13,0,0,0,.31,1.59,4.17,4.17,0,0,0,.84,1.33,4.33,4.33,0,0,0,1.27.91,3.62,3.62,0,0,0,1.56.34,3.83,3.83,0,0,0,1.6-.34,4.17,4.17,0,0,0,1.33-.94,4.33,4.33,0,0,0,.87-1.37,3.86,3.86,0,0,0,.27-1.64m-8.75.08a5.08,5.08,0,0,1,.39-1.83,4.84,4.84,0,0,1,2.51-2.5,4.62,4.62,0,0,1,3.6,0,5,5,0,0,1,1.49,1,4.57,4.57,0,0,1,1,1.46,4.94,4.94,0,0,1,.42,1.8,4.84,4.84,0,0,1-.34,1.89,5.07,5.07,0,0,1-1,1.59,4.91,4.91,0,0,1-1.53,1.09A4.35,4.35,0,0,1,228,20a4.25,4.25,0,0,1-1.83-.4,4.7,4.7,0,0,1-1.5-1.06,5,5,0,0,1-1-1.56,4.73,4.73,0,0,1-.35-1.86" transform="translate(-26.34 -9.51)" fill="#002f65"/><polygon points="0.78 70.4 0.78 41.47 4.47 41.47 4.47 54.99 17.51 41.47 22.25 41.47 8.88 55.36 24.09 70.4 18.91 70.4 4.47 56.12 4.47 70.4 0.78 70.4" fill="#002f65"/><polygon points="29.15 70.4 29.15 41.47 45.84 41.47 45.84 44.84 32.84 44.84 32.84 53.71 44.11 53.71 44.11 56.96 32.84 56.96 32.84 66.99 45.84 66.99 45.84 70.4 29.15 70.4" fill="#002f65"/><path d="M82.81,65.14l.85.08a7.39,7.39,0,0,0,.84,0,26.67,26.67,0,0,0,3.13-.2A12.84,12.84,0,0,0,91,64.24a7,7,0,0,0,2.67-1.81,4.53,4.53,0,0,0,1.08-3.19,4.37,4.37,0,0,0-1.87-3.83,9.25,9.25,0,0,0-5.35-1.3h-4.7ZM79.12,79.91V51h8.71a15.12,15.12,0,0,1,4.35.58,9.8,9.8,0,0,1,3.31,1.66,7.56,7.56,0,0,1,2.11,2.63,7.85,7.85,0,0,1,.74,3.47,7.1,7.1,0,0,1-.7,3.27A8.3,8.3,0,0,1,95.89,65a8.46,8.46,0,0,1-2.3,1.57,15.2,15.2,0,0,1-2.35.86l10.83,12.52H97.34L87.23,68,86,68.11c-.38,0-.78,0-1.18,0s-.69,0-1,0l-1-.08V79.91Z" transform="translate(-26.34 -9.51)" fill="#002f65"/><path d="M120.69,57.72,115,69.64h11.36ZM106.13,79.91l14.52-30.46,14.73,30.46h-4l-3.38-7H113.47l-3.33,7Z" transform="translate(-26.34 -9.51)" fill="#002f65"/><path d="M157,72.65a7.93,7.93,0,0,1-.66,3.25,7.17,7.17,0,0,1-1.92,2.56,9.13,9.13,0,0,1-3.11,1.71,13.17,13.17,0,0,1-4.18.62,15.19,15.19,0,0,1-2.88-.26,15.51,15.51,0,0,1-2.37-.64,17.16,17.16,0,0,1-1.81-.78q-.76-.4-1.2-.69l-.28-4a29.07,29.07,0,0,0,4.14,2.07,11.9,11.9,0,0,0,4.51.9,8.52,8.52,0,0,0,2.47-.34,6.27,6.27,0,0,0,2-1A4.68,4.68,0,0,0,153,74.51a4.24,4.24,0,0,0,.48-2,4,4,0,0,0-.44-1.93A5.31,5.31,0,0,0,151.82,69a10,10,0,0,0-1.95-1.3,24.57,24.57,0,0,0-2.59-1.16c-1-.4-1.94-.86-2.92-1.37a12.73,12.73,0,0,1-2.66-1.84,8.79,8.79,0,0,1-1.91-2.53,7.64,7.64,0,0,1-.72-3.45,6.51,6.51,0,0,1,.64-2.89,7,7,0,0,1,1.79-2.3,8.41,8.41,0,0,1,2.77-1.53,11.26,11.26,0,0,1,3.56-.54,12.5,12.5,0,0,1,4.42.67,11.77,11.77,0,0,1,2.69,1.32v4.06c-1.2-.74-2.36-1.4-3.48-2a7.94,7.94,0,0,0-3.57-.84,7.12,7.12,0,0,0-2,.26,5.55,5.55,0,0,0-1.71.78,4,4,0,0,0-1.2,1.26,3.42,3.42,0,0,0-.44,1.75A4.21,4.21,0,0,0,144,60.69a12.57,12.57,0,0,0,3.8,2.21,32.22,32.22,0,0,1,3.56,1.6,13.32,13.32,0,0,1,2.94,2.07,9.31,9.31,0,0,1,2,2.67,7.7,7.7,0,0,1,.71,3.41" transform="translate(-26.34 -9.51)" fill="#002f65"/><polygon points="133.71 41.51 158.67 41.51 158.67 44.76 148.04 44.76 148.04 70.4 144.35 70.4 144.35 44.76 133.75 44.76 133.71 41.51" fill="#002f65"/><rect x="164.45" y="41.47" width="3.69" height="28.93" fill="#002f65"/><path d="M223.81,77.9c-.48.3-1,.61-1.58.95a17.78,17.78,0,0,1-1.95.94,14.69,14.69,0,0,1-2.44.72,15,15,0,0,1-3.05.28,14.56,14.56,0,0,1-13.67-9A15.21,15.21,0,0,1,200,65.87a17.07,17.07,0,0,1,1.14-6.34,15,15,0,0,1,3.17-5,14.41,14.41,0,0,1,4.8-3.25,15.27,15.27,0,0,1,6-1.16,13.93,13.93,0,0,1,3.21.34,16.8,16.8,0,0,1,2.52.78,10.5,10.5,0,0,1,1.81.9,9.69,9.69,0,0,1,1,.7l-.32,3.9a14,14,0,0,0-1.22-1,11,11,0,0,0-1.89-1.06,14.87,14.87,0,0,0-2.47-.84,11.87,11.87,0,0,0-2.92-.34,11.65,11.65,0,0,0-4.56.86,10,10,0,0,0-3.53,2.43,11.09,11.09,0,0,0-2.29,3.75,13.68,13.68,0,0,0-.82,4.79,14,14,0,0,0,.82,4.86A11.37,11.37,0,0,0,206.74,74a10.11,10.11,0,0,0,3.51,2.45,11.57,11.57,0,0,0,4.5.86A12.49,12.49,0,0,0,217.8,77a13.39,13.39,0,0,0,2.48-.88,14.9,14.9,0,0,0,2.05-1.19c.61-.42,1.19-.84,1.72-1.24Z" transform="translate(-26.34 -9.51)" fill="#002f65"/><polygon points="203.01 70.4 203.01 41.47 206.7 41.47 206.7 54.99 219.74 41.47 224.48 41.47 211.12 55.36 226.32 70.4 221.15 70.4 206.7 56.12 206.7 70.4 203.01 70.4" fill="#002f65"/><path d="M255.69,54.82h1.37a.89.89,0,0,0,.35-.08.84.84,0,0,0,.3-.24.8.8,0,0,0,.13-.51.62.62,0,0,0-.32-.58,1.47,1.47,0,0,0-.66-.17h-1.17Zm1.15-2.31.42,0a1.57,1.57,0,0,1,.57.18,1.66,1.66,0,0,1,.51.45,1.38,1.38,0,0,1,.22.84,1.31,1.31,0,0,1-.24.93,1.6,1.6,0,0,1-.68.47l.92,2.13h-.84l-.8-2.07h-1.21v2.07H255v-5ZM260.71,55a4.34,4.34,0,0,0-.36-1.52,4.13,4.13,0,0,0-.86-1.23,4,4,0,0,0-1.24-.84,3.69,3.69,0,0,0-1.51-.32,4,4,0,0,0-1.57.32,3.94,3.94,0,0,0-1.29.86,4.32,4.32,0,0,0-.89,1.28,3.86,3.86,0,0,0-.33,1.58A4.16,4.16,0,0,0,253.81,58a4,4,0,0,0,1.27.91,3.49,3.49,0,0,0,1.56.35,3.69,3.69,0,0,0,1.6-.35,4.15,4.15,0,0,0,1.33-.93,4.26,4.26,0,0,0,.87-1.38,3.81,3.81,0,0,0,.27-1.64m-8.75.09a4.69,4.69,0,0,1,.39-1.83,4.84,4.84,0,0,1,2.51-2.5,4.46,4.46,0,0,1,1.82-.38,4.34,4.34,0,0,1,1.78.37,5,5,0,0,1,1.49,1,4.74,4.74,0,0,1,1,1.46,4.94,4.94,0,0,1,.42,1.79,4.85,4.85,0,0,1-.34,1.9,4.91,4.91,0,0,1-2.54,2.68,4.35,4.35,0,0,1-1.85.41,4.25,4.25,0,0,1-1.83-.4,4.86,4.86,0,0,1-1.5-1.06,5.14,5.14,0,0,1-1-1.56,4.59,4.59,0,0,1-.35-1.86" transform="translate(-26.34 -9.51)" fill="#002f65"/><path d="M322.66,26.05V36.69h5.09a10.7,10.7,0,0,0,3.53-.5,6.13,6.13,0,0,0,2.25-1.33A4.67,4.67,0,0,0,334.72,33a6.53,6.53,0,0,0,.34-2.05,4.38,4.38,0,0,0-1.71-3.53,8,8,0,0,0-5.15-1.41Zm0-12v9.06h3.73a20.06,20.06,0,0,0,3.09-.22A8.44,8.44,0,0,0,332,22.1a4.43,4.43,0,0,0,1.72-1.48,4.21,4.21,0,0,0,0-4.5,3.75,3.75,0,0,0-1.6-1.28,8.87,8.87,0,0,0-2.49-.64,26.48,26.48,0,0,0-3.25-.18ZM319,39.94V11h10.15a10.35,10.35,0,0,1,3.83.64,8.45,8.45,0,0,1,2.71,1.66,7,7,0,0,1,1.62,2.27,6.06,6.06,0,0,1,.55,2.49,5.92,5.92,0,0,1-.45,2.39,7,7,0,0,1-1.08,1.78,7.34,7.34,0,0,1-1.4,1.29,9.6,9.6,0,0,1-1.41.8,8.69,8.69,0,0,1,3.61,2.43,6.21,6.21,0,0,1,1.45,4.31,8.25,8.25,0,0,1-.72,3.41,8.77,8.77,0,0,1-2,2.81,9.93,9.93,0,0,1-3.11,1.93,10.9,10.9,0,0,1-4,.72Z" transform="translate(-26.34 -9.51)" fill="#002f65"/><polygon points="319.39 30.43 319.39 1.5 323.08 1.5 323.08 26.94 337.2 26.94 337.2 30.43 319.39 30.43" fill="#002f65"/><path d="M393.68,28.82a13.65,13.65,0,0,1-.84,4.9,10.87,10.87,0,0,1-2.41,3.79A10.7,10.7,0,0,1,386.66,40a14.59,14.59,0,0,1-9.87,0,10.58,10.58,0,0,1-6.18-6.24,13.65,13.65,0,0,1-.85-4.9V11h3.7V28.18a11,11,0,0,0,.76,4.37,7.8,7.8,0,0,0,2,2.83,7.48,7.48,0,0,0,2.67,1.53,9.18,9.18,0,0,0,5.74,0,7.31,7.31,0,0,0,2.67-1.53,7.81,7.81,0,0,0,2-2.83,11.15,11.15,0,0,0,.76-4.37V11h3.69Z" transform="translate(-26.34 -9.51)" fill="#002f65"/><rect x="374.08" y="19.76" width="8.1" height="2.65" fill="#002f65"/><path d="M439.26,28.82a13.65,13.65,0,0,1-.84,4.9A10.58,10.58,0,0,1,432.24,40a14.59,14.59,0,0,1-9.87,0,10.7,10.7,0,0,1-3.77-2.45,10.87,10.87,0,0,1-2.41-3.79,13.65,13.65,0,0,1-.84-4.9V11H419V28.18a11,11,0,0,0,.76,4.37,7.81,7.81,0,0,0,2,2.83,7.31,7.31,0,0,0,2.67,1.53,9.15,9.15,0,0,0,5.73,0,7.31,7.31,0,0,0,2.67-1.53,7.7,7.7,0,0,0,2-2.83,11,11,0,0,0,.76-4.37V11h3.69Z" transform="translate(-26.34 -9.51)" fill="#002f65"/><path d="M445.5,14.85h1.37a.89.89,0,0,0,.35-.08,1,1,0,0,0,.3-.24.8.8,0,0,0,.13-.51.62.62,0,0,0-.32-.58,1.47,1.47,0,0,0-.66-.17H445.5Zm1.15-2.31.42,0a1.64,1.64,0,0,1,.57.18,1.54,1.54,0,0,1,.51.45,1.36,1.36,0,0,1,.22.84,1.31,1.31,0,0,1-.24.93,1.69,1.69,0,0,1-.68.47l.92,2.13h-.84l-.8-2.07h-1.21v2.07h-.74v-5ZM450.52,15a4.34,4.34,0,0,0-.36-1.52,4.13,4.13,0,0,0-.86-1.23,4,4,0,0,0-1.24-.84,3.69,3.69,0,0,0-1.51-.32,4,4,0,0,0-1.57.32,3.94,3.94,0,0,0-1.29.86,4.14,4.14,0,0,0-.89,1.28,3.85,3.85,0,0,0-.33,1.57,4.24,4.24,0,0,0,.3,1.59,4.09,4.09,0,0,0,.85,1.33,4.15,4.15,0,0,0,1.27.91,3.63,3.63,0,0,0,1.56.35,3.84,3.84,0,0,0,1.6-.35,4.31,4.31,0,0,0,1.33-.93,4.26,4.26,0,0,0,.87-1.38,4,4,0,0,0,.27-1.64m-8.75.08a4.68,4.68,0,0,1,.39-1.82,4.84,4.84,0,0,1,2.51-2.5,4.46,4.46,0,0,1,1.82-.38,4.34,4.34,0,0,1,1.78.37,5,5,0,0,1,1.49,1,4.74,4.74,0,0,1,1,1.46A4.94,4.94,0,0,1,451.2,15a4.89,4.89,0,0,1-.34,1.9,4.91,4.91,0,0,1-2.54,2.68,4.35,4.35,0,0,1-1.85.41,4.22,4.22,0,0,1-1.83-.4,4.86,4.86,0,0,1-1.5-1.06,5.14,5.14,0,0,1-1-1.56,4.61,4.61,0,0,1-.35-1.87" transform="translate(-26.34 -9.51)" fill="#002f65"/><polygon points="277.86 53.34 265.92 53.34 265.92 41.4 261.57 41.4 261.57 53.34 249.63 53.34 249.63 57.69 261.57 57.69 261.57 69.63 265.92 69.63 265.92 57.69 277.86 57.69 277.86 53.34" fill="#f7941e"/><g opacity="0.7"><path d="M31,87a23.72,23.72,0,0,0,0,21h-.91a21.09,21.09,0,0,1,0-21Z" transform="translate(-26.34 -9.51)" fill="#666766"/></g><g opacity="0.7"><path d="M37.21,96.69h-.05c-.12.42-.84.68-1.34.82l-1.06.3a2.37,2.37,0,0,0-1.91,2.57c0,1.45.67,2.44,1.77,2.44,1.53,0,2.59-1.29,2.59-3.51ZM31.86,95c0-2.55,1.09-4,3.45-4s3.16,1.34,3.16,3.3v7.35c0,.7.21,1,.65,1h.36v1a1.66,1.66,0,0,1-.59.14c-1,0-1.62-.26-1.62-1.55v-.42h0A2.75,2.75,0,0,1,34.34,104c-2,0-2.84-1.36-2.84-3.51A3.25,3.25,0,0,1,33.75,97l2.38-.75c.89-.28,1.08-.51,1.08-2s-.8-2.15-1.94-2.15c-1.5,0-2.15,1-2.15,2.8Z" transform="translate(-26.34 -9.51)" fill="#666766"/></g><g opacity="0.7"><path d="M41.14,91.29h1.14V93h0a3,3,0,0,1,2.84-2,2.3,2.3,0,0,1,2.34,2.18h0A2.88,2.88,0,0,1,50.39,91C52,91,53,92,53,94.21v9.5H51.71V94.42c0-1.47-.61-2.24-1.74-2.24s-2.28,1.26-2.28,3.18v8.35H46.43V94.42c0-1.47-.61-2.24-1.75-2.24s-2.27,1.26-2.27,3.18v8.35H41.14Z" transform="translate(-26.34 -9.51)" fill="#666766"/></g><g opacity="0.7"><path d="M55.58,91.29h1.27v12.42H55.58Zm0-4.28h1.27v2.38H55.58Z" transform="translate(-26.34 -9.51)" fill="#666766"/></g><g opacity="0.7"><path d="M59.37,91.29h1.14V93h0a3.15,3.15,0,0,1,2.87-2c1.7,0,2.86,1,2.86,3.33v9.38H65v-9c0-1.7-.63-2.54-1.92-2.54-1.47,0-2.46,1.26-2.46,3.18v8.35H59.37Z" transform="translate(-26.34 -9.51)" fill="#666766"/></g><g opacity="0.7"><path d="M72,102.82c1.41,0,2.5-1.36,2.5-5.34s-1.09-5.3-2.5-5.3-2.51,1.35-2.51,5.3,1.1,5.34,2.51,5.34M72,91c2.46,0,3.85,2.18,3.85,6.48S74.45,104,72,104s-3.86-2.18-3.86-6.51S69.52,91,72,91" transform="translate(-26.34 -9.51)" fill="#666766"/></g><g opacity="0.7"><rect x="51.43" y="77.5" width="1.26" height="16.7" fill="#666766"/></g><g opacity="0.7"><path d="M87.21,96.39c0-3.09-.82-4.21-2.38-4.21s-2.34,1.12-2.38,4.21Zm1.24,3.2c-.19,2.64-1.49,4.4-3.6,4.4-2.36,0-3.75-1.83-3.75-6.51C81.1,93.18,82.49,91,85,91s3.6,1.9,3.6,6v.51H82.45v.59c0,3.58,1.14,4.68,2.38,4.68s2.15-1.06,2.36-3.23Z" transform="translate(-26.34 -9.51)" fill="#666766"/></g><g opacity="0.7"><polygon points="63.12 81.78 64.47 81.78 66.95 92.61 66.99 92.61 69.27 81.78 70.61 81.78 67.67 94.2 66.24 94.2 63.12 81.78" fill="#666766"/></g><g opacity="0.7"><path d="M98.32,91.29h1.27V100c0,2,.61,2.79,1.93,2.79s2.45-1.27,2.45-3.18V91.29h1.26v12.42h-1.14V102h0a3.14,3.14,0,0,1-2.86,2c-1.71,0-2.87-1-2.87-3.32Z" transform="translate(-26.34 -9.51)" fill="#666766"/></g><g opacity="0.7"><rect x="81.41" y="77.5" width="1.26" height="16.7" fill="#666766"/></g><g opacity="0.7"><path d="M111.63,91.29h1.26v12.42h-1.26Zm0-4.28h1.26v2.38h-1.26Z" transform="translate(-26.34 -9.51)" fill="#666766"/></g><g opacity="0.7"><path d="M115.42,91.29h1.14V93h0a3.13,3.13,0,0,1,2.86-2c1.71,0,2.87,1,2.87,3.33v9.38h-1.27v-9c0-1.7-.63-2.54-1.91-2.54-1.48,0-2.47,1.26-2.47,3.18v8.35h-1.26Z" transform="translate(-26.34 -9.51)" fill="#666766"/></g><g opacity="0.7"><path d="M124.85,91.29h1.26v12.42h-1.26Zm0-4.28h1.26v2.38h-1.26Z" transform="translate(-26.34 -9.51)" fill="#666766"/></g><g opacity="0.7"><path d="M135.36,99.59c-.19,2.64-1.5,4.4-3.56,4.4-2.36,0-3.75-1.83-3.75-6.51,0-4.3,1.39-6.48,3.85-6.48,2.11,0,3.33,1.43,3.46,4h-1.27c-.14-1.94-.84-2.8-2.19-2.8s-2.5.93-2.5,5.33c0,4.68,1.2,5.31,2.38,5.31s2.1-1.06,2.31-3.23Z" transform="translate(-26.34 -9.51)" fill="#666766"/></g><g opacity="0.7"><path d="M147.38,96.69h0c-.13.42-.85.68-1.35.82l-1.05.3a2.37,2.37,0,0,0-1.92,2.57c0,1.45.67,2.44,1.77,2.44,1.54,0,2.59-1.29,2.59-3.51ZM142,95c0-2.55,1.1-4,3.45-4s3.16,1.34,3.16,3.3v7.35c0,.7.21,1,.66,1h.35v1a1.66,1.66,0,0,1-.59.14c-1,0-1.62-.26-1.62-1.55v-.42h0a2.74,2.74,0,0,1-2.89,2.11c-1.95,0-2.84-1.36-2.84-3.51A3.26,3.26,0,0,1,143.92,97l2.39-.75c.88-.28,1.07-.51,1.07-2s-.8-2.15-1.94-2.15c-1.49,0-2.15,1-2.15,2.8Z" transform="translate(-26.34 -9.51)" fill="#666766"/></g><g opacity="0.7"><path d="M158,99.59c-.19,2.64-1.5,4.4-3.56,4.4-2.36,0-3.75-1.83-3.75-6.51,0-4.3,1.39-6.48,3.85-6.48,2.11,0,3.33,1.43,3.46,4h-1.27c-.14-1.94-.84-2.8-2.19-2.8s-2.5.93-2.5,5.33c0,4.68,1.2,5.31,2.38,5.31s2.1-1.06,2.31-3.23Z" transform="translate(-26.34 -9.51)" fill="#666766"/></g><g opacity="0.7"><path d="M159.88,91.29h1.27v12.42h-1.27Zm0-4.28h1.27v2.38h-1.27Z" transform="translate(-26.34 -9.51)" fill="#666766"/></g><g opacity="0.7"><path d="M167,102.82c1.29,0,2.44-.73,2.44-5.34s-1.15-5.3-2.44-5.3-2.44.72-2.44,5.3,1.18,5.34,2.44,5.34m2.57-1.17h0a2.83,2.83,0,0,1-2.74,2.34c-2.46,0-3.58-2.2-3.58-6.51S164.33,91,166.79,91a2.54,2.54,0,0,1,2.61,2.16h0V87h1.27v16.7h-1.14Z" transform="translate(-26.34 -9.51)" fill="#666766"/></g><g opacity="0.7"><polygon points="158.91 85.87 153.04 85.87 153.04 94.2 151.69 94.2 151.69 77.5 153.04 77.5 153.04 84.61 158.91 84.61 158.91 77.5 160.26 77.5 160.26 94.2 158.91 94.2 158.91 85.87" fill="#666766"/></g><g opacity="0.7"><path d="M198.1,98.05c-.19,3.81-1.77,5.94-4.47,5.94-3.07,0-4.8-2.65-4.8-8.63s1.73-8.63,4.8-8.63,4.32,2.4,4.32,5.14H196.6c0-2.27-1-3.88-3-3.88-2.14,0-3.45,2-3.45,7.37s1.31,7.36,3.45,7.36c1.9,0,3-1.8,3.12-4.67Z" transform="translate(-26.34 -9.51)" fill="#666766"/></g><g opacity="0.7"><rect x="173.63" y="77.5" width="1.35" height="16.7" fill="#666766"/></g><g opacity="0.7"><path d="M202.41,108a23.81,23.81,0,0,0,0-21h.91a21.09,21.09,0,0,1,0,21Z" transform="translate(-26.34 -9.51)" fill="#666766"/></g><g opacity="0.7"><path d="M27.88,117H26.34v-1.17h1.54v-1.47c0-1.71.31-3,2.44-3a3.37,3.37,0,0,1,.8.07v1.17a2.32,2.32,0,0,0-.61-.07c-.93,0-1.37.39-1.37,1.82v1.47h2V117h-2v11.25H27.88Z" transform="translate(-26.34 -9.51)" fill="#666766"/></g><g opacity="0.7"><path d="M35.75,127.32c1.41,0,2.51-1.35,2.51-5.33s-1.1-5.31-2.51-5.31-2.5,1.36-2.5,5.31,1.09,5.33,2.5,5.33m0-11.81c2.47,0,3.86,2.18,3.86,6.48s-1.39,6.5-3.86,6.5-3.85-2.17-3.85-6.5,1.39-6.48,3.85-6.48" transform="translate(-26.34 -9.51)" fill="#666766"/></g><g opacity="0.7"><path d="M41.46,115.79h1.26v1.94h0a3,3,0,0,1,2.83-2.22,1.75,1.75,0,0,1,.44.07V117a2.66,2.66,0,0,0-.61-.07c-1.39,0-2.7,1.12-2.7,3.53v7.76H41.46Z" transform="translate(-26.34 -9.51)" fill="#666766"/></g><g opacity="0.7"><path d="M62.64,127.32c1.41,0,2.51-1.35,2.51-5.33s-1.1-5.31-2.51-5.31S60.13,118,60.13,122s1.1,5.33,2.51,5.33m0-11.81c2.46,0,3.85,2.18,3.85,6.48s-1.39,6.5-3.85,6.5-3.85-2.17-3.85-6.5,1.38-6.48,3.85-6.48" transform="translate(-26.34 -9.51)" fill="#666766"/></g><g opacity="0.7"><path d="M72,116.68a2.1,2.1,0,0,0-1.77,1.1c-.55.87-.72,2.08-.72,4.24,0,4.58,1.16,5.3,2.44,5.3s2.45-.72,2.45-5.3-1.18-5.34-2.4-5.34m-3.75-.89h1.13v1.78h.05a2.85,2.85,0,0,1,2.76-2.06c2.48,0,3.56,2.2,3.56,6.51s-1.12,6.47-3.58,6.47a2.55,2.55,0,0,1-2.62-2.15h0v6H68.22Z" transform="translate(-26.34 -9.51)" fill="#666766"/></g><g opacity="0.7"><path d="M77.78,115.79H79v12.42H77.78Zm0-4.28H79v2.39H77.78Z" transform="translate(-26.34 -9.51)" fill="#666766"/></g><g opacity="0.7"><path d="M88.28,124.1c-.19,2.64-1.49,4.39-3.56,4.39-2.35,0-3.74-1.82-3.74-6.5,0-4.3,1.39-6.48,3.85-6.48,2.11,0,3.33,1.43,3.45,4H87c-.15-1.94-.84-2.81-2.19-2.81s-2.51.94-2.51,5.34c0,4.67,1.2,5.3,2.38,5.3s2.11-1,2.32-3.22Z" transform="translate(-26.34 -9.51)" fill="#666766"/></g><g opacity="0.7"><path d="M95.25,121.2h0c-.13.42-.84.67-1.35.82l-1,.3a2.37,2.37,0,0,0-1.92,2.57c0,1.45.68,2.43,1.77,2.43,1.54,0,2.59-1.28,2.59-3.5Zm-5.35-1.71c0-2.55,1.1-4,3.46-4s3.16,1.34,3.16,3.3v7.34c0,.71.21,1,.65,1h.36v1a1.47,1.47,0,0,1-.59.14c-1,0-1.62-.25-1.62-1.54v-.42h0a2.72,2.72,0,0,1-2.88,2.1c-2,0-2.84-1.35-2.84-3.5a3.25,3.25,0,0,1,2.25-3.44l2.38-.75c.88-.28,1.07-.52,1.07-2s-.8-2.15-1.94-2.15c-1.49,0-2.14,1-2.14,2.81Z" transform="translate(-26.34 -9.51)" fill="#666766"/></g><g opacity="0.7"><rect x="72.85" y="102.01" width="1.26" height="16.7" fill="#666766"/></g><g opacity="0.7"><path d="M115,118.93c0-1.56-.65-2.49-2-2.49a2.08,2.08,0,0,0-2.14,2.26c0,3.75,5.49,1.69,5.49,6.11,0,2.43-1.37,3.68-3.43,3.68s-3.3-1.26-3.3-3.73v-.37h1v.47c0,1.61.76,2.68,2.25,2.68a2.26,2.26,0,0,0,2.44-2.55c0-3.74-5.49-1.61-5.49-6.17a3,3,0,0,1,3.13-3.33c2.11,0,3.08,1.2,3.08,3.44Z" transform="translate(-26.34 -9.51)" fill="#666766"/></g><g opacity="0.7"><path d="M121.4,127.32c1.41,0,2.5-1.35,2.5-5.33s-1.09-5.31-2.5-5.31-2.51,1.36-2.51,5.31,1.1,5.33,2.51,5.33m0-11.81c2.46,0,3.85,2.18,3.85,6.48s-1.39,6.5-3.85,6.5-3.85-2.17-3.85-6.5,1.38-6.48,3.85-6.48" transform="translate(-26.34 -9.51)" fill="#666766"/></g><g opacity="0.7"><rect x="100.85" y="102.01" width="1.26" height="16.7" fill="#666766"/></g><g opacity="0.7"><path d="M131,115.79h1.26v8.75c0,2,.61,2.78,1.94,2.78s2.44-1.26,2.44-3.18v-8.35h1.27v12.42h-1.14v-1.73h0a3.14,3.14,0,0,1-2.87,2c-1.7,0-2.86-1-2.86-3.32Z" transform="translate(-26.34 -9.51)" fill="#666766"/></g><g opacity="0.7"><path d="M140.79,117h-1.54v-1.17h1.54v-3.43h1.26v3.43h2V117h-2v8.91c0,1,.38,1.31,1.2,1.31A2.22,2.22,0,0,0,144,127v1.17a1.82,1.82,0,0,1-.88.14c-1.71,0-2.36-.51-2.36-2.17Z" transform="translate(-26.34 -9.51)" fill="#666766"/></g><g opacity="0.7"><path d="M145.48,115.79h1.27v12.42h-1.27Zm0-4.28h1.27v2.39h-1.27Z" transform="translate(-26.34 -9.51)" fill="#666766"/></g><g opacity="0.7"><path d="M152.54,127.32c1.41,0,2.5-1.35,2.5-5.33s-1.09-5.31-2.5-5.31S150,118,150,122s1.1,5.33,2.51,5.33m0-11.81c2.46,0,3.85,2.18,3.85,6.48s-1.39,6.5-3.85,6.5-3.86-2.17-3.86-6.5,1.39-6.48,3.86-6.48" transform="translate(-26.34 -9.51)" fill="#666766"/></g><g opacity="0.7"><path d="M158.24,115.79h1.14v1.73h0a3.13,3.13,0,0,1,2.87-2c1.7,0,2.86,1,2.86,3.32v9.38h-1.26v-9c0-1.71-.64-2.55-1.92-2.55-1.47,0-2.46,1.26-2.46,3.18v8.35h-1.27Z" transform="translate(-26.34 -9.51)" fill="#666766"/></g><g opacity="0.7"><path d="M168.18,125.83h1.43v2.38c0,1.38-.25,2.69-1.56,3.23v-.93c.55-.38.72-1,.74-2.3h-.61Z" transform="translate(-26.34 -9.51)" fill="#666766"/></g><g opacity="0.7"><path d="M176.68,116.85c0-3.21,1.42-5.2,4.22-5.2,2,0,3.85,1.34,3.85,4.49,0,2-.55,3.35-2.46,5.1l-1.62,1.48c-1.56,1.42-2.38,2.5-2.62,4.23h6.83v1.26h-8.26c0-2.73,1.12-4.51,3.12-6.38l1.6-1.5a5.21,5.21,0,0,0,2.06-4.11c0-2.2-1.09-3.4-2.63-3.4-1.7,0-2.65,1.27-2.74,4Z" transform="translate(-26.34 -9.51)" fill="#666766"/></g><g opacity="0.7"><path d="M190.86,127.32c2,0,2.84-1.94,2.84-7.25s-.8-7.25-2.84-7.25-2.85,1.94-2.85,7.25.8,7.25,2.85,7.25m0-15.67c3.39,0,4.19,3.54,4.19,8.42s-.8,8.42-4.19,8.42-4.2-3.53-4.2-8.42.8-8.42,4.2-8.42" transform="translate(-26.34 -9.51)" fill="#666766"/></g><g opacity="0.7"><path d="M207.34,127.46c.91,0,1.52-.77,1.52-3.27s-.61-3.27-1.52-3.27-1.51.79-1.51,3.27.63,3.27,1.51,3.27m0-7.57c1.69,0,2.66.91,2.66,4.3s-1,4.3-2.66,4.3-2.65-.91-2.65-4.3,1-4.3,2.65-4.3m-1.13-8.24h1l-6.47,16.84h-1Zm-6.53,7.58c.9,0,1.51-.77,1.51-3.27s-.61-3.28-1.51-3.28-1.52.8-1.52,3.28.63,3.27,1.52,3.27m0-7.58c1.68,0,2.65.92,2.65,4.31s-1,4.3-2.65,4.3S197,119.35,197,116s1-4.31,2.66-4.31" transform="translate(-26.34 -9.51)" fill="#666766"/></g><g opacity="0.7"><path d="M55,117H53.42v-1.17H55v-3.43h1.27v3.43h2V117h-2v8.91c0,1,.38,1.31,1.2,1.31a2.26,2.26,0,0,0,.78-.14v1.17a1.87,1.87,0,0,1-.89.14c-1.7,0-2.36-.51-2.36-2.17Z" transform="translate(-26.34 -9.51)" fill="#666766"/></g><g opacity="0.7"><path d="M320.39,65.76h2.51c2.34,0,3.48-1.17,3.48-3.42s-1.14-3.42-3.48-3.42h-2.51Zm0-8.1h2.13c2.32,0,3.38-1.11,3.38-3,0-2.22-1-3-3.15-3h-2.36ZM319,50.3h4.16c2.91,0,4.05,1.71,4.05,4.19a3.56,3.56,0,0,1-2.33,3.63v.05c1.86.4,2.81,2,2.81,4.17,0,2.93-1.71,4.68-4.55,4.68H319Z" transform="translate(-26.34 -9.51)" fill="#666766"/></g><g opacity="0.7"><rect x="303.37" y="40.8" width="1.27" height="16.72" fill="#666766"/></g><g opacity="0.7"><path d="M333.51,54.59h1.26v8.76c0,2,.61,2.78,1.94,2.78s2.45-1.26,2.45-3.18V54.59h1.26V67h-1.14V65.29h0a3.14,3.14,0,0,1-2.87,2c-1.7,0-2.86-1-2.86-3.33Z" transform="translate(-26.34 -9.51)" fill="#666766"/></g><g opacity="0.7"><path d="M348.52,59.69c0-3.09-.83-4.21-2.39-4.21s-2.34,1.12-2.38,4.21Zm1.24,3.21c-.19,2.65-1.5,4.41-3.6,4.41-2.37,0-3.76-1.83-3.76-6.52,0-4.31,1.39-6.48,3.86-6.48s3.61,1.89,3.61,6v.51h-6.12v.59c0,3.58,1.14,4.68,2.38,4.68s2.16-1,2.37-3.23Z" transform="translate(-26.34 -9.51)" fill="#666766"/></g><g opacity="0.7"><polygon points="330.52 40.8 331.87 40.8 331.87 56.25 338.12 56.25 338.12 57.52 330.52 57.52 330.52 40.8" fill="#666766"/></g><g opacity="0.7"><path d="M366,54.59h1.27V67H366Zm0-4.29h1.27v2.39H366Z" transform="translate(-26.34 -9.51)" fill="#666766"/></g><g opacity="0.7"><path d="M373,65.85c1.49,0,2.38-1.21,2.38-5.2s-.89-5.17-2.38-5.17-2.39,1.22-2.39,5.17.89,5.2,2.39,5.2m2.51-11.26h1.14V66.13c0,3.45-1.14,5.2-3.67,5.2-2.18,0-3.31-1.26-3.34-3H371a1.94,1.94,0,0,0,2.11,1.87c1.54,0,2.36-1.19,2.36-3.39v-2h0A2.68,2.68,0,0,1,372.76,67c-1.73,0-3.46-1.26-3.46-6.23,0-4.28,1.12-6.48,3.59-6.48a2.73,2.73,0,0,1,2.62,2.2h0Z" transform="translate(-26.34 -9.51)" fill="#666766"/></g><g opacity="0.7"><path d="M379.13,50.3h1.26v6h.05a2.67,2.67,0,0,1,2.74-2c1.71,0,2.87,1,2.87,3.32V67h-1.27V58c0-1.71-.63-2.55-1.92-2.55-1.47,0-2.47,1.26-2.47,3.18V67h-1.26Z" transform="translate(-26.34 -9.51)" fill="#666766"/></g><g opacity="0.7"><path d="M389,55.76h-1.53V54.59H389V51.14h1.27v3.45h2v1.17h-2v8.92c0,1,.38,1.31,1.2,1.31a2.22,2.22,0,0,0,.78-.14V67a1.82,1.82,0,0,1-.88.14c-1.71,0-2.37-.51-2.37-2.17Z" transform="translate(-26.34 -9.51)" fill="#666766"/></g><g opacity="0.7"><path d="M399.94,58.5h2.3c1.79,0,3.2-.89,3.2-3.47s-1.13-3.46-3.2-3.46h-2.3Zm-1.35-8.2h4.07c2.91,0,4.13,1.9,4.13,4.73,0,2.58-1.16,4.73-4.59,4.73h-2.26V67h-1.35Z" transform="translate(-26.34 -9.51)" fill="#666766"/></g><g opacity="0.7"><path d="M408.75,50.3H410v6h0a2.68,2.68,0,0,1,2.74-2c1.71,0,2.87,1,2.87,3.32V67H414.4V58c0-1.71-.63-2.55-1.92-2.55-1.47,0-2.46,1.26-2.46,3.18V67h-1.27Z" transform="translate(-26.34 -9.51)" fill="#666766"/></g><g opacity="0.7"><path d="M421.38,66.13c1.42,0,2.51-1.35,2.51-5.34s-1.09-5.31-2.51-5.31-2.51,1.35-2.51,5.31,1.1,5.34,2.51,5.34m0-11.82c2.47,0,3.86,2.17,3.86,6.48s-1.39,6.52-3.86,6.52-3.86-2.18-3.86-6.52,1.4-6.48,3.86-6.48" transform="translate(-26.34 -9.51)" fill="#666766"/></g><g opacity="0.7"><path d="M427.56,55.76H426V54.59h1.54V51.14h1.26v3.45h2v1.17h-2v8.92c0,1,.38,1.31,1.21,1.31a2.26,2.26,0,0,0,.78-.14V67a1.87,1.87,0,0,1-.89.14c-1.71,0-2.36-.51-2.36-2.17Z" transform="translate(-26.34 -9.51)" fill="#666766"/></g><g opacity="0.7"><path d="M435.45,66.13c1.41,0,2.5-1.35,2.5-5.34s-1.09-5.31-2.5-5.31-2.51,1.35-2.51,5.31,1.09,5.34,2.51,5.34m0-11.82c2.46,0,3.85,2.17,3.85,6.48s-1.39,6.52-3.85,6.52-3.86-2.18-3.86-6.52,1.39-6.48,3.86-6.48" transform="translate(-26.34 -9.51)" fill="#666766"/></g><g opacity="0.7"><path d="M444.49,66.13c1.29,0,2.45-.72,2.45-5.34s-1.16-5.31-2.45-5.31S442,56.2,442,60.79s1.19,5.34,2.45,5.34M447.06,65h0a2.83,2.83,0,0,1-2.74,2.35c-2.47,0-3.59-2.21-3.59-6.52s1.12-6.48,3.59-6.48a2.55,2.55,0,0,1,2.62,2.15h0V50.3h1.26V67h-1.14Z" transform="translate(-26.34 -9.51)" fill="#666766"/></g><g opacity="0.7"><path d="M449.44,54.59h1.35l2.51,10.77h0l2.26-10.77H457L453.68,68c-.59,2.44-1.26,3.12-3,3.12-.34,0-.59,0-.84-.05V69.93c.27,0,.54,0,.82,0,.78,0,1.31-.36,1.66-1.67l.32-1.17Z" transform="translate(-26.34 -9.51)" fill="#666766"/></g><g opacity="0.7"><path d="M458.32,54.59h1.14v1.73h0a3.13,3.13,0,0,1,2.87-2c1.71,0,2.87,1,2.87,3.32V67H464V58c0-1.71-.63-2.55-1.92-2.55-1.47,0-2.46,1.26-2.46,3.18V67h-1.27Z" transform="translate(-26.34 -9.51)" fill="#666766"/></g><g opacity="0.7"><path d="M472.81,60h-.05c-.12.42-.84.68-1.35.82l-1.05.3a2.37,2.37,0,0,0-1.92,2.58c0,1.45.68,2.43,1.77,2.43,1.54,0,2.6-1.28,2.6-3.51Zm-5.36-1.71c0-2.56,1.1-4,3.46-4s3.16,1.33,3.16,3.3V65c0,.71.21,1,.66,1h.35v1a1.47,1.47,0,0,1-.59.14c-1,0-1.62-.25-1.62-1.54V65.2h0a2.75,2.75,0,0,1-2.89,2.11c-2,0-2.85-1.36-2.85-3.52a3.26,3.26,0,0,1,2.26-3.44l2.38-.75c.89-.28,1.08-.52,1.08-2s-.8-2.15-1.94-2.15c-1.5,0-2.16,1-2.16,2.81Z" transform="translate(-26.34 -9.51)" fill="#666766"/></g><g opacity="0.7"><path d="M476.75,54.59h1.14v1.73h0a3,3,0,0,1,2.85-2,2.29,2.29,0,0,1,2.34,2.17h0A2.88,2.88,0,0,1,486,54.31c1.56,0,2.59,1,2.59,3.2V67h-1.27V57.73c0-1.48-.61-2.25-1.75-2.25s-2.27,1.26-2.27,3.18V67H482V57.73c0-1.48-.61-2.25-1.75-2.25S478,56.74,478,58.66V67h-1.26Z" transform="translate(-26.34 -9.51)" fill="#666766"/></g><g opacity="0.7"><path d="M491.21,54.59h1.27V67h-1.27Zm0-4.29h1.27v2.39h-1.27Z" transform="translate(-26.34 -9.51)" fill="#666766"/></g><g opacity="0.7"><path d="M501.73,62.9c-.19,2.65-1.49,4.41-3.56,4.41-2.36,0-3.75-1.83-3.75-6.52,0-4.31,1.39-6.48,3.86-6.48,2.1,0,3.33,1.42,3.45,4h-1.26c-.15-1.95-.84-2.81-2.19-2.81s-2.51.93-2.51,5.34c0,4.68,1.2,5.31,2.38,5.31s2.11-1,2.32-3.23Z" transform="translate(-26.34 -9.51)" fill="#666766"/></g><g opacity="0.7"><polygon points="484.31 42.06 480.43 42.06 480.43 40.8 489.54 40.8 489.54 42.06 485.66 42.06 485.66 57.52 484.31 57.52 484.31 42.06" fill="#666766"/></g><g opacity="0.7"><path d="M517.23,50.3h1.26v6h0a2.67,2.67,0,0,1,2.74-2c1.71,0,2.87,1,2.87,3.32V67h-1.27V58c0-1.71-.63-2.55-1.92-2.55-1.48,0-2.47,1.26-2.47,3.18V67h-1.26Z" transform="translate(-26.34 -9.51)" fill="#666766"/></g><g opacity="0.7"><path d="M532.24,59.69c0-3.09-.82-4.21-2.38-4.21s-2.34,1.12-2.38,4.21Zm1.25,3.21c-.19,2.65-1.5,4.41-3.61,4.41-2.36,0-3.75-1.83-3.75-6.52,0-4.31,1.39-6.48,3.86-6.48s3.6,1.89,3.6,6v.51h-6.11v.59c0,3.58,1.13,4.68,2.38,4.68s2.15-1,2.36-3.23Z" transform="translate(-26.34 -9.51)" fill="#666766"/></g><g opacity="0.7"><path d="M535.57,54.59h1.27v1.94h0a3,3,0,0,1,2.82-2.22,1.41,1.41,0,0,1,.45.07v1.4a2.66,2.66,0,0,0-.61-.07c-1.4,0-2.7,1.12-2.7,3.54V67h-1.27Z" transform="translate(-26.34 -9.51)" fill="#666766"/></g><g opacity="0.7"><path d="M546.56,60h0c-.13.42-.85.68-1.35.82l-1.06.3a2.38,2.38,0,0,0-1.92,2.58c0,1.45.68,2.43,1.77,2.43,1.54,0,2.6-1.28,2.6-3.51Zm-5.36-1.71c0-2.56,1.1-4,3.46-4s3.16,1.33,3.16,3.3V65c0,.71.21,1,.66,1h.36v1a1.55,1.55,0,0,1-.59.14c-1,0-1.63-.25-1.63-1.54V65.2h0a2.75,2.75,0,0,1-2.89,2.11c-2,0-2.85-1.36-2.85-3.52a3.26,3.26,0,0,1,2.26-3.44l2.38-.75c.89-.28,1.08-.52,1.08-2s-.8-2.15-1.94-2.15c-1.5,0-2.15,1-2.15,2.81Z" transform="translate(-26.34 -9.51)" fill="#666766"/></g><g opacity="0.7"><path d="M554,55.48a2.1,2.1,0,0,0-1.77,1.1c-.55.87-.72,2.08-.72,4.24,0,4.59,1.16,5.31,2.45,5.31s2.45-.72,2.45-5.31-1.18-5.34-2.41-5.34m-3.75-.89h1.14v1.78h0a2.86,2.86,0,0,1,2.76-2.06c2.49,0,3.57,2.2,3.57,6.51s-1.12,6.49-3.59,6.49a2.54,2.54,0,0,1-2.61-2.16h-.05v6h-1.26Z" transform="translate(-26.34 -9.51)" fill="#666766"/></g><g opacity="0.7"><path d="M558.7,54.59h1.35l2.51,10.77h0l2.26-10.77h1.35L562.94,68c-.59,2.44-1.27,3.12-3,3.12-.34,0-.59,0-.85-.05V69.93c.28,0,.55,0,.82,0,.78,0,1.31-.36,1.67-1.67l.32-1.17Z" transform="translate(-26.34 -9.51)" fill="#666766"/></g><g opacity="0.7"><rect x="292.78" y="65.34" width="1.35" height="16.72" fill="#666766"/></g><g opacity="0.7"><rect x="296.71" y="65.34" width="1.27" height="16.72" fill="#666766"/></g><g opacity="0.7"><rect x="300.58" y="65.34" width="1.27" height="16.72" fill="#666766"/></g><g opacity="0.7"><path d="M330.72,79.13H332v8.76c0,2,.61,2.79,1.94,2.79s2.44-1.27,2.44-3.19V79.13h1.27V91.57H336.5V89.83h0a3.12,3.12,0,0,1-2.87,2c-1.71,0-2.87-1-2.87-3.33Z" transform="translate(-26.34 -9.51)" fill="#666766"/></g><g opacity="0.7"><path d="M340.17,79.13h1.14v1.73h0a3,3,0,0,1,2.84-2A2.3,2.3,0,0,1,346.54,81h0a2.88,2.88,0,0,1,2.84-2.18c1.57,0,2.6,1,2.6,3.21v9.51h-1.27v-9.3c0-1.48-.61-2.25-1.75-2.25s-2.27,1.26-2.27,3.19v8.36h-1.27v-9.3c0-1.48-.61-2.25-1.75-2.25s-2.28,1.26-2.28,3.19v8.36h-1.26Z" transform="translate(-26.34 -9.51)" fill="#666766"/></g><g opacity="0.7"><path d="M354.63,79.13h1.27V91.57h-1.27Zm0-4.29h1.27v2.39h-1.27Z" transform="translate(-26.34 -9.51)" fill="#666766"/></g><g opacity="0.7"><path d="M358.43,79.13h1.13v1.73h.05a3.12,3.12,0,0,1,2.86-2c1.71,0,2.87,1,2.87,3.32v9.4h-1.26v-9c0-1.71-.64-2.55-1.92-2.55-1.48,0-2.47,1.26-2.47,3.19v8.36h-1.26Z" transform="translate(-26.34 -9.51)" fill="#666766"/></g><g opacity="0.7"><path d="M372.91,84.54h0c-.13.42-.85.68-1.35.82l-1.06.3a2.38,2.38,0,0,0-1.91,2.58c0,1.45.67,2.44,1.77,2.44,1.54,0,2.59-1.29,2.59-3.52Zm-5.36-1.71c0-2.55,1.1-4,3.46-4s3.17,1.33,3.17,3.3v7.36c0,.7.21,1,.65,1h.36v1a1.66,1.66,0,0,1-.59.14c-1,0-1.63-.26-1.63-1.55v-.42h0A2.74,2.74,0,0,1,370,91.85c-2,0-2.84-1.36-2.84-3.52a3.25,3.25,0,0,1,2.25-3.44l2.39-.75c.88-.28,1.07-.51,1.07-2S372.11,80,371,80c-1.5,0-2.15,1-2.15,2.81Z" transform="translate(-26.34 -9.51)" fill="#666766"/></g><g opacity="0.7"><path d="M377.23,80.3h-1.54V79.13h1.54V75.69h1.27v3.44h2V80.3h-2v8.92c0,1,.38,1.32,1.2,1.32a2.47,2.47,0,0,0,.78-.14v1.17a2,2,0,0,1-.89.14c-1.7,0-2.36-.52-2.36-2.18Z" transform="translate(-26.34 -9.51)" fill="#666766"/></g><g opacity="0.7"><path d="M385.12,90.68c1.41,0,2.51-1.36,2.51-5.34S386.53,80,385.12,80s-2.51,1.36-2.51,5.32,1.09,5.34,2.51,5.34m0-11.83c2.47,0,3.86,2.18,3.86,6.49s-1.39,6.51-3.86,6.51-3.86-2.18-3.86-6.51,1.39-6.49,3.86-6.49" transform="translate(-26.34 -9.51)" fill="#666766"/></g><g opacity="0.7"><path d="M390.83,79.13h1.27v1.94h0A3,3,0,0,1,395,78.85a1.41,1.41,0,0,1,.45.07v1.4a3.37,3.37,0,0,0-.62-.07c-1.39,0-2.69,1.13-2.69,3.54v7.78h-1.27Z" transform="translate(-26.34 -9.51)" fill="#666766"/></g><g opacity="0.7"><polygon points="375.49 65.34 377.83 65.34 381.46 80.19 381.51 80.19 385.13 65.34 387.35 65.34 387.35 82.06 386 82.06 386 66.74 385.96 66.74 382.05 82.06 380.79 82.06 376.89 66.74 376.84 66.74 376.84 82.06 375.49 82.06 375.49 65.34" fill="#666766"/></g><g opacity="0.7"><path d="M419.49,90.68c1.41,0,2.5-1.36,2.5-5.34S420.9,80,419.49,80,417,81.38,417,85.34s1.09,5.34,2.51,5.34m0-11.83c2.46,0,3.85,2.18,3.85,6.49s-1.39,6.51-3.85,6.51-3.86-2.18-3.86-6.51,1.39-6.49,3.86-6.49" transform="translate(-26.34 -9.51)" fill="#666766"/></g><g opacity="0.7"><path d="M428.53,90.68c1.29,0,2.45-.73,2.45-5.34S429.82,80,428.53,80s-2.45.73-2.45,5.32,1.18,5.34,2.45,5.34m2.57-1.17h0a2.83,2.83,0,0,1-2.74,2.34c-2.47,0-3.59-2.2-3.59-6.51s1.12-6.49,3.59-6.49A2.53,2.53,0,0,1,430.93,81H431V74.84h1.26V91.57H431.1Z" transform="translate(-26.34 -9.51)" fill="#666766"/></g><g opacity="0.7"><path d="M440.21,84.24c0-3.1-.82-4.22-2.38-4.22s-2.34,1.12-2.39,4.22Zm1.24,3.2c-.18,2.65-1.49,4.41-3.6,4.41-2.36,0-3.76-1.83-3.76-6.51,0-4.31,1.4-6.49,3.86-6.49s3.61,1.9,3.61,6v.52h-6.12V86c0,3.59,1.14,4.69,2.39,4.69s2.15-1.06,2.36-3.24Z" transform="translate(-26.34 -9.51)" fill="#666766"/></g><g opacity="0.7"><rect x="417.28" y="65.34" width="1.27" height="16.72" fill="#666766"/></g><g opacity="0.7"><path d="M457.69,86V77.37h0L453.07,86Zm0,1.26h-5.76V85.9L457.69,75H459V86h1.75V87.3H459v4.27h-1.26Z" transform="translate(-26.34 -9.51)" fill="#666766"/></g><g opacity="0.7"><path d="M466.23,78.87h-3.42v-1c2.51,0,3.63-1.12,3.71-2.86h1V91.57h-1.26Z" transform="translate(-26.34 -9.51)" fill="#666766"/></g><g opacity="0.7"><path d="M472.36,75.26h8.4v1.27a31.23,31.23,0,0,0-5.36,15H474a31.59,31.59,0,0,1,5.53-15h-7.13Z" transform="translate(-26.34 -9.51)" fill="#666766"/></g><g opacity="0.7"><path d="M486.68,90.68c2,0,2.85-2,2.85-7.26s-.81-7.27-2.85-7.27-2.85,1.95-2.85,7.27.8,7.26,2.85,7.26m0-15.7c3.39,0,4.2,3.54,4.2,8.44s-.81,8.43-4.2,8.43-4.2-3.54-4.2-8.43.8-8.44,4.2-8.44" transform="translate(-26.34 -9.51)" fill="#666766"/></g></svg>