<svg width="122" height="98" viewBox="0 0 122 98" fill="none" xmlns="http://www.w3.org/2000/svg">
<path d="M45.1325 31.0562C44.7191 30.2671 44.193 29.6283 43.6293 29.1398C42.8778 29.4404 42.0887 29.5531 41.2995 29.3652C40.7734 29.2525 40.2849 29.027 39.8716 28.6888C38.9697 29.741 38.9697 31.8829 40.0219 33.9873C40.9613 35.8662 42.4644 37.1062 43.7797 37.2565C43.0657 34.814 43.5166 32.3715 45.1325 31.0562" fill="#308B76"/>
<path d="M80.794 10.9522C79.8921 8.8103 77.9381 7.60782 76.3598 8.24664C74.7816 8.88546 74.2555 11.1401 75.1198 13.282C76.0216 15.424 78.0133 16.6265 79.5539 15.9876C81.0946 15.3488 81.6583 13.0942 80.794 10.9522" fill="#308B76"/>
<path d="M53.9631 33.7994C54.6771 34.814 55.1656 35.8662 55.4286 36.9559C55.9172 36.8432 56.3305 36.6177 56.7439 36.3171C58.9609 34.6261 58.8858 30.7932 56.5936 27.787C54.3013 24.7432 50.6187 23.6534 48.4016 25.3444C47.0113 26.3966 46.5227 28.2379 46.8985 30.2295C49.2283 29.8162 52.0842 31.169 53.9631 33.7994" fill="#308B76"/>
<path d="M43.855 17.641C44.4186 17.7538 44.9447 18.0168 45.3957 18.3926C45.7714 17.5283 46.0345 16.664 46.1472 15.8749C45.8842 15.0106 45.8842 14.0712 46.1096 13.1317C45.8842 12.305 45.4332 11.6662 44.7944 11.3656C43.0658 10.5765 40.5106 12.4929 39.0826 15.6119C38.1432 17.7162 37.9553 19.8206 38.4438 21.2485C39.4584 18.7308 41.6755 17.1525 43.855 17.641" fill="#308B76"/>
<path d="M82.9732 28.1252C81.8834 27.787 80.4931 29.1398 79.9294 31.1314C79.3282 33.123 79.7415 35.0019 80.8689 35.3401C81.9586 35.6783 83.349 34.3255 83.9126 32.3339C84.5139 30.3423 84.1005 28.4634 82.9732 28.1252" fill="#308B76"/>
<path d="M56.7065 39.5488C56.3683 39.4361 56.0301 39.3609 55.6543 39.2858C55.5792 40.8264 54.9779 42.1417 53.813 42.9684C52.7984 43.6824 51.5584 43.8702 50.2432 43.6072C51.145 44.7345 52.7233 45.7491 54.6773 46.3128C58.0593 47.3274 61.2534 46.6134 61.8171 44.7345C62.3807 42.8556 60.0885 40.5258 56.7065 39.5488" fill="#308B76"/>
<path d="M58.7732 7.23202C59.2617 6.21743 59.3745 5.16525 59.0363 4.18823C58.172 1.82084 54.8652 0.918978 51.6711 2.08389C48.477 3.28637 46.5605 6.14227 47.4248 8.47208C47.5751 8.84786 47.8006 9.18606 48.0636 9.48668C48.5897 8.88544 49.2285 8.32177 49.9425 7.83326C53.0239 5.72892 56.6689 5.54103 58.7732 7.23202" fill="#308B76"/>
<path d="M74.2926 39.3985C72.7519 41.127 72.1506 43.1186 72.9398 43.8326C73.7665 44.5466 75.6454 43.7575 77.2236 42.0289C78.7643 40.3003 79.3656 38.3087 78.5764 37.5947C77.7497 36.8808 75.8708 37.6699 74.2926 39.3985" fill="#308B76"/>
<path d="M68.6936 19.1817C70.3846 18.8811 71.8877 17.6786 72.4138 15.9125C73.1278 13.4324 71.7374 10.8395 69.2573 10.0879C66.965 9.41154 64.5601 10.5765 63.6582 12.756C66.4765 13.7705 68.393 16.3258 68.6936 19.1817" fill="#C4D82E"/>
<path d="M64.034 31.5823C61.629 33.3861 60.8023 36.3547 62.1927 38.196C63.5831 40.0749 66.6644 40.15 69.0694 38.3463C71.4744 36.5426 72.3011 33.5739 70.9107 31.7326C69.5203 29.8538 66.439 29.7786 64.034 31.5823" fill="#C4D82E"/>
<path d="M76.8854 22.9019C75.1192 22.3758 73.1652 23.7661 72.4888 26.0584C71.8124 28.313 72.6767 30.5677 74.4428 31.0938C76.209 31.6199 78.163 30.1919 78.8394 27.9373C79.5158 25.6826 78.6515 23.4279 76.8854 22.9019" fill="#C4D82E"/>
<path d="M80.9066 21.5115C81.0945 23.0522 81.9588 24.1795 82.7855 24.0668C83.6498 23.954 84.1759 22.6388 83.988 21.0981C83.8001 19.5575 82.9358 18.4301 82.1091 18.5429C81.2448 18.6556 80.7188 19.9708 80.9066 21.5115" fill="#C4D82E"/>
<path d="M66.2512 43.1562C64.3723 43.6072 63.0571 44.8472 63.3201 45.8994C63.5832 46.9516 65.3117 47.4025 67.153 46.9516C69.0319 46.5006 70.3471 45.2606 70.0841 44.2084C69.8586 43.1562 68.1301 42.7053 66.2512 43.1562" fill="#C4D82E"/>
<path d="M40.4352 28.2755C41.3371 27.8246 42.5396 28.2003 43.6293 29.1398C45.2827 28.4634 46.6355 26.7348 47.124 24.4802C47.6501 21.9625 46.8986 19.5951 45.3579 18.3926C45.3579 18.4302 45.3579 18.4302 45.3203 18.4677C43.8924 21.6243 41.3371 23.5031 39.6085 22.714C39.0448 22.451 38.6315 21.9249 38.406 21.2485C38.2557 21.6618 38.1054 22.1128 37.9927 22.5637C37.429 25.119 38.2557 27.5615 39.8716 28.764C40.0594 28.5385 40.2473 28.3882 40.4352 28.2755" fill="#C4D82E"/>
<path d="M43.6293 29.1398C42.5396 28.1628 41.3371 27.787 40.4352 28.2755C40.2098 28.3882 40.0219 28.5386 39.8716 28.7264C40.2849 29.0271 40.7734 29.2525 41.2995 29.3653C42.1262 29.5532 42.9154 29.4404 43.6293 29.1398" fill="#007054"/>
<path d="M39.6463 22.714C41.3749 23.5032 43.9678 21.5867 45.3581 18.4677C45.3581 18.4302 45.3581 18.4302 45.3957 18.3926C44.9448 18.0168 44.4187 17.7538 43.855 17.641C41.6755 17.1901 39.4584 18.7308 38.4438 21.2485C38.6693 21.9249 39.0827 22.451 39.6463 22.714" fill="#007054"/>
<path d="M46.1469 15.8749C46.2597 16.2882 46.4476 16.7016 46.7106 17.0774C48.0258 18.9938 50.769 19.5951 53.5122 18.7684C53.5497 18.4302 53.6249 18.1296 53.7376 17.7914C54.6395 14.7476 57.2323 12.6808 60.201 12.3426C60.6143 10.8395 60.464 9.33638 59.6373 8.1339C59.3743 7.75812 59.1112 7.4575 58.773 7.19446C58.0966 8.58483 56.6687 9.86247 54.7898 10.5389C52.1218 11.5159 49.3786 11.0274 48.0258 9.44912C47.0112 10.5764 46.3724 11.8165 46.0718 13.0566C46.2972 13.8833 46.3348 14.8227 46.1469 15.8749" fill="#C4D82E"/>
<path d="M46.1472 15.8749C46.3351 14.8603 46.2975 13.9208 46.1096 13.1317C45.8841 14.0712 45.8841 15.0106 46.1472 15.8749" fill="#007054"/>
<path d="M54.8275 10.5764C56.7063 9.90001 58.0967 8.62237 58.8107 7.232C56.7063 5.57858 53.0237 5.76647 49.9424 7.87082C49.2284 8.35933 48.6271 8.92299 48.0635 9.52423C49.4163 11.0649 52.1219 11.591 54.8275 10.5764" fill="#007054"/>
<path d="M65.4994 8.13387C69.1821 9.22362 72.6392 8.43449 73.2404 6.4053C73.8417 4.37611 71.3616 1.82083 67.679 0.731076C63.9963 -0.358675 60.5392 0.430455 59.938 2.45965C59.3367 4.52642 61.8168 7.04412 65.4994 8.13387" fill="#C4D82E"/>
<path d="M49.5667 41.1271C50.0552 39.4361 52.6857 38.6845 55.6543 39.2858C55.6919 38.5342 55.6167 37.7827 55.4288 36.956C53.2493 37.5572 50.4686 36.3547 48.5521 33.8746C47.6878 32.7097 47.1242 31.4696 46.8987 30.2296C46.2975 30.3423 45.7714 30.5678 45.2829 30.906C45.2453 30.9435 45.2077 30.9811 45.1326 31.0563C45.1701 31.169 45.2453 31.2441 45.2829 31.3569C46.5229 33.7994 46.335 36.3547 44.8695 37.1063C44.5313 37.2941 44.1555 37.3317 43.7422 37.2566C44.0428 38.196 44.4937 39.173 45.1326 40.0749C46.5229 42.0289 48.4018 43.269 50.2431 43.6072C49.6419 42.7805 49.3413 41.9162 49.5667 41.1271" fill="#C4D82E"/>
<path d="M45.3202 31.3568C45.2827 31.2441 45.2075 31.1689 45.1699 31.0562C43.5165 32.3714 43.0656 34.7764 43.8171 37.2565C44.2305 37.2941 44.6063 37.2565 44.9445 37.0686C46.3724 36.3922 46.5603 33.7994 45.3202 31.3568" fill="#007054"/>
<path d="M55.4291 36.956C55.166 35.9038 54.6775 34.814 53.9635 33.7994C52.0846 31.1314 49.2287 29.7786 46.8989 30.2296C47.1244 31.4321 47.6881 32.7097 48.5523 33.8746C50.4688 36.3923 53.2495 37.5572 55.4291 36.956" fill="#007054"/>
<path d="M53.8507 42.9684C54.978 42.1417 55.5792 40.8264 55.692 39.2858C52.7233 38.6845 50.0929 39.4361 49.6044 41.1271C49.3789 41.9162 49.642 42.7805 50.3184 43.6072C51.596 43.8702 52.8361 43.6823 53.8507 42.9684" fill="#007054"/>
<path d="M56.4432 17.3404C55.5038 17.9793 54.5267 18.4678 53.5121 18.7308C52.9109 22.4886 55.1656 26.1712 58.8858 27.2985C62.9441 28.501 67.1904 26.1712 68.3929 22.1128C68.6935 21.1358 68.7687 20.1212 68.6559 19.1817C67.9795 19.2945 67.2656 19.2945 66.5516 19.069C64.0715 18.355 62.6435 15.7246 63.3951 13.2445C63.4326 13.0566 63.5454 12.9063 63.6205 12.756C63.5078 12.7184 63.3575 12.6432 63.2448 12.6056C62.2302 12.305 61.2156 12.2299 60.201 12.3426C59.7125 14.1839 58.3972 16.0252 56.4432 17.3404" fill="#FFCE34"/>
<path d="M66.589 19.069C67.303 19.2944 68.017 19.2944 68.6934 19.1817C68.3928 16.3258 66.4763 13.7705 63.6204 12.7559C63.5452 12.9062 63.4701 13.0941 63.4325 13.2444C62.681 15.7246 64.1089 18.355 66.589 19.069" fill="#BEBB39"/>
<path d="M53.7377 17.7914C53.6625 18.092 53.5874 18.4302 53.5122 18.7684C54.4892 18.4678 55.5038 18.0168 56.4433 17.378C58.3973 16.0252 59.7125 14.1839 60.201 12.3802C57.27 12.6808 54.6395 14.7476 53.7377 17.7914" fill="#BEBB39"/>
<path d="M6.31466 80.2454C4.84914 82.8006 4.13516 85.6941 4.13516 88.6252C4.13516 91.5562 4.84914 94.4873 6.31466 97.005H5.52553C3.68423 93.9988 3.04541 91.218 3.04541 88.6252C3.04541 86.0323 3.68423 83.214 5.52553 80.2454H6.31466Z" fill="#007054"/>
<path d="M9.73425 88.6627C8.34388 88.1367 7.81779 87.31 7.81779 86.2954C7.81779 84.2662 9.09543 83.4395 10.7864 83.4395C12.6653 83.4395 13.5296 84.3789 13.5296 86.2202V86.4832H12.4023V86.2202C12.4023 84.9426 11.801 84.3789 10.7864 84.3789C9.47121 84.3789 8.9827 85.0553 8.9827 86.0699C8.9827 86.7463 9.20816 87.31 10.3355 87.7233L11.9513 88.3245C13.3041 88.8131 13.7926 89.7525 13.7926 90.8422C13.7926 92.5332 12.8156 93.8109 10.7113 93.8109C8.68208 93.8109 7.66748 92.9842 7.66748 90.7295V90.4289H8.79481V90.6919C8.79481 92.1575 9.43363 92.909 10.7113 92.909C11.9138 92.909 12.6653 92.2326 12.6653 91.1429C12.6653 90.2786 12.3271 89.7149 11.3125 89.3016L9.73425 88.6627Z" fill="#007054"/>
<path fill-rule="evenodd" clip-rule="evenodd" d="M22.3606 88.6252C22.3606 85.168 21.1206 83.4395 18.941 83.4395C16.724 83.4395 15.5215 85.2056 15.5215 88.6252C15.5215 92.0823 16.7615 93.8109 18.941 93.8109C21.1206 93.8109 22.3606 92.0823 22.3606 88.6252ZM21.1583 88.6628C21.1583 91.8193 20.1813 92.9091 18.9413 92.9091C17.6636 92.9091 16.6866 91.8193 16.7242 88.6628C16.7242 85.5063 17.7012 84.4165 18.9413 84.4165C20.1813 84.4165 21.1583 85.5063 21.1583 88.6628Z" fill="#007054"/>
<path d="M24.0889 83.6649H25.1035V85.0553H25.141C25.7047 83.9655 26.6817 83.4395 27.6963 83.4395C29.1994 83.4395 30.2516 84.2286 30.2516 86.1075V93.623H29.1243V86.4457C29.1243 85.0929 28.5606 84.4165 27.4333 84.4165C26.1181 84.4165 25.2538 85.4311 25.2538 86.9718V93.6606H24.1264V83.6649H24.0889Z" fill="#007054"/>
<path fill-rule="evenodd" clip-rule="evenodd" d="M33.5209 80.2454H32.3936V82.1618H33.5209V80.2454ZM33.5209 83.6649H32.3936V93.5854H33.5209V83.6649Z" fill="#007054"/>
<path fill-rule="evenodd" clip-rule="evenodd" d="M41.2616 91.9695H41.2992V93.623H42.3138V80.2829H41.1865V85.2056H41.1489C40.8859 84.1534 40.0592 83.477 38.8191 83.477C36.602 83.477 35.625 85.2431 35.625 88.6627C35.625 92.0823 36.6396 93.8484 38.8191 93.8484C40.0216 93.8484 40.961 93.0969 41.2616 91.9695ZM41.2241 88.6627C41.2241 92.3453 40.1719 92.909 39.0446 92.909C37.9173 92.909 36.8651 92.3077 36.8651 88.6627C36.8651 84.9801 37.9173 84.4164 39.0446 84.4164C40.2095 84.4164 41.2241 84.9801 41.2241 88.6627Z" fill="#007054"/>
<path fill-rule="evenodd" clip-rule="evenodd" d="M47.6501 93.8485C49.529 93.8485 50.6939 92.4205 50.8442 90.3162H49.7168C49.529 92.0823 48.7774 92.909 47.6125 92.909C46.5227 92.909 45.5081 92.0072 45.5081 89.1513V88.7003H50.9193V88.287C50.9193 84.9802 49.9423 83.4771 47.7252 83.4771C45.5457 83.4771 44.3057 85.2056 44.3057 88.6628C44.3057 92.383 45.5457 93.8485 47.6501 93.8485ZM47.6501 84.3789C49.0405 84.3789 49.7169 85.2808 49.7545 87.7609H45.5458C45.5834 85.2808 46.2598 84.3789 47.6501 84.3789Z" fill="#007054"/>
<path fill-rule="evenodd" clip-rule="evenodd" d="M59.2616 83.6649H58.247V85.168H58.2095C57.8337 84.0407 56.9694 83.4019 55.8796 83.4019C53.6626 83.4019 52.6855 85.168 52.6855 88.5876C52.6855 92.5332 54.2262 93.5478 55.7669 93.5478C56.8191 93.5478 57.7585 92.9842 58.0967 91.7817H58.1343V93.3599C58.1343 95.1261 57.3828 96.0655 56.03 96.0655C55.0154 96.0655 54.1511 95.5019 54.1511 94.5624H53.0237C53.0613 95.9904 54.0759 97.005 55.9924 97.005C58.247 97.005 59.2616 95.6146 59.2616 92.8714V83.6649ZM58.1344 88.5124C58.1344 91.7065 57.3453 92.6836 56.0301 92.6836C54.6773 92.6836 53.8882 91.7065 53.9257 88.5124C53.9257 85.3559 54.7149 84.3789 56.0301 84.3789C57.3453 84.3789 58.1344 85.3559 58.1344 88.5124Z" fill="#007054"/>
<path fill-rule="evenodd" clip-rule="evenodd" d="M62.869 80.2454H61.7417V82.1618H62.869V80.2454ZM62.869 83.6649H61.7417V93.5854H62.869V83.6649Z" fill="#007054"/>
<path fill-rule="evenodd" clip-rule="evenodd" d="M66.9647 80.2454H65.8374V93.5854H66.852V91.932H66.8896C67.1902 93.0969 68.1672 93.8109 69.3321 93.8109C71.5492 93.8109 72.5262 92.0823 72.5262 88.6252C72.5262 85.2056 71.5116 83.4395 69.3321 83.4395C68.0921 83.4395 67.2278 84.1159 67.0023 85.168H66.9647V80.2454ZM71.3238 88.6628C71.3238 92.3454 70.2716 92.909 69.1443 92.909C67.9794 92.909 66.9648 92.3078 66.9648 88.6628C66.9648 84.9801 68.017 84.4165 69.1443 84.4165C70.2716 84.4165 71.3238 84.9801 71.3238 88.6628Z" fill="#007054"/>
<path d="M73.5039 97.0426C74.9694 94.4873 75.6834 91.5938 75.6834 88.6628C75.6834 85.7317 74.9694 82.8007 73.5039 80.283H74.293C76.1343 83.2892 76.7732 86.0699 76.7732 88.6628C76.7732 91.2556 76.1343 94.074 74.293 97.0426H73.5039Z" fill="#007054"/>
<path fill-rule="evenodd" clip-rule="evenodd" d="M118.521 60.0285C119.235 60.0285 119.648 60.2915 119.648 60.9304C119.648 61.494 119.31 61.7195 118.897 61.7195L119.686 63.0347H119.085L118.371 61.7571H117.995V63.0347H117.431V60.0285H118.521ZM117.995 60.517V61.3062H118.521C118.859 61.3062 119.085 61.2686 119.085 60.8928C119.085 60.5546 118.747 60.517 118.484 60.517H117.995Z" fill="#007054"/>
<path fill-rule="evenodd" clip-rule="evenodd" d="M1.05339 61.5692C2.44376 57.5108 6.01364 54.9931 10.3726 54.9931C14.2807 54.9931 16.6481 56.9471 17.7379 58.112C18.9403 59.4273 20.3683 61.7195 20.3307 65.3645C20.3307 67.4689 19.8046 70.4751 17.4372 72.9176C16.122 74.2329 14.8068 74.8717 13.9049 75.1723C12.8528 75.5481 11.6127 75.736 10.2975 75.736C7.29128 75.736 5.11178 74.7965 3.19532 72.6922C1.35401 70.7006 0.452148 68.2956 0.452148 65.4021C0.452148 64.876 0.452148 63.3353 1.05339 61.5692ZM10.4104 72.4667C11.2747 72.4667 12.1014 72.3164 12.8529 71.9782C14.2057 71.4145 16.4979 69.7987 16.5731 65.7027C16.5731 64.3875 16.3852 62.4711 15.2955 60.8176C14.1681 59.0891 12.4396 58.1496 10.3352 58.1496C9.39578 58.1496 8.45633 58.3375 7.62963 58.7509C6.61503 59.277 4.24764 60.968 4.24764 65.2142C4.24764 66.9052 4.62341 69.949 7.25385 71.6024C8.19329 72.1661 9.24546 72.4667 10.4104 72.4667Z" fill="#007054"/>
<path fill-rule="evenodd" clip-rule="evenodd" d="M32.318 59.9909C32.5059 60.1037 32.6938 60.2164 32.9944 60.4419C33.1254 60.5467 33.2381 60.6697 33.3326 60.7729C33.3736 60.8176 33.4112 60.8587 33.4453 60.8928L33.5205 60.968L33.8963 61.3437V54.6549H37.2031V75.0971H33.8963V73.2558L33.5205 73.6316C33.4453 73.7068 33.3702 73.7819 33.295 73.8947C33.2575 73.9322 33.2293 73.9698 33.2011 74.0074C33.1729 74.045 33.1447 74.0825 33.1071 74.1201C32.5435 74.6462 31.3034 75.5481 29.3118 75.5481C28.3348 75.5481 27.3578 75.3226 26.4559 74.9093C25.2534 74.3832 22.5103 72.5794 22.5103 67.7319C22.5103 63.3353 24.8025 60.7049 26.7941 59.803C27.5832 59.4648 28.4851 59.277 29.4621 59.277C30.1385 59.277 31.1531 59.3521 32.2429 59.9534L32.318 59.9909ZM32.6188 71.4521C33.5207 70.4751 33.9341 69.1975 33.8965 67.5065C33.8965 66.7173 33.7838 65.2518 33.1449 64.1621C32.957 63.7863 32.5813 63.3354 32.2806 63.1099C31.6418 62.5838 30.9279 62.3583 30.026 62.3583C29.6878 62.3583 28.8235 62.3959 27.9592 62.9596C26.1555 64.1621 26.0052 66.6422 26.0052 67.3562C26.0052 69.7987 27.0574 72.617 29.9884 72.617C31.0782 72.617 31.9425 72.2413 32.6188 71.4521Z" fill="#007054"/>
<path fill-rule="evenodd" clip-rule="evenodd" d="M47.8752 59.277C48.7019 59.277 49.942 59.3897 51.2572 59.991C52.3094 60.4419 55.7289 62.3208 55.8041 67.3937C55.8041 69.0096 55.4659 70.1369 55.2029 70.8509C54.7519 71.9406 52.9482 75.5857 48.0255 75.5857C47.4994 75.5857 46.1091 75.5857 44.5308 74.8717C43.4786 74.3832 40.0215 72.4667 40.0215 67.3562C40.0215 65.6559 40.4941 64.4283 40.6884 63.9237C40.6916 63.9152 40.6948 63.907 40.6979 63.899C41.1488 62.8093 43.0277 59.277 47.8752 59.277ZM47.9882 72.5795C49.1531 72.5795 50.1677 72.1661 50.9192 71.377C51.8587 70.4 52.3472 68.9344 52.272 67.281C52.1969 64.8761 50.7689 62.2456 47.7627 62.2456C47.4997 62.2456 46.4475 62.2832 45.508 62.8844C45.0195 63.1851 43.4788 64.4251 43.4788 67.281C43.4788 67.9574 43.5164 68.6714 43.817 69.4981C44.1928 70.663 45.508 72.5795 47.9882 72.5795Z" fill="#007054"/>
<path d="M76.547 59.277C74.7433 59.277 73.6911 59.8406 73.0523 60.2916C72.3008 60.7801 72.0001 61.1934 71.7371 61.4941L71.4365 61.8698L71.2862 61.5692C70.497 60.1413 68.9188 59.277 67.0775 59.277C65.0483 59.277 63.3573 60.3292 62.7936 60.8928C62.6433 61.0055 62.5682 61.0807 62.3051 61.4189L61.8918 61.9826L61.8542 59.7655H58.5098V75.0972H61.8542V68.709C61.8542 66.9804 61.8542 64.6506 63.5076 63.2226C64.3719 62.4711 65.3113 62.3959 65.6495 62.3959C66.1756 62.3959 66.8896 62.5087 67.4908 63.0723C68.0921 63.636 68.4303 64.4251 68.4303 65.4397C68.4303 65.6276 68.4303 65.7779 68.4303 65.9658C68.4303 66.1537 68.4303 66.304 68.4303 66.4919V75.0972H71.7371V67.8823C71.7371 66.4919 71.8123 65.2142 72.5262 64.0493C73.5032 62.4711 75.0815 62.3208 75.5324 62.3208C78.2004 62.3208 78.4259 64.8385 78.4259 65.6276V75.0596H81.7327V65.2894C81.7327 63.899 81.6952 63.2602 81.5073 62.5838C80.9812 60.517 79.1399 59.277 76.547 59.277Z" fill="#007054"/>
<path d="M84.6265 72.5043V75.0972H97.7035V72.2037H89.0982L97.7035 62.3959V59.7655H85.4908V62.6966H93.4572L84.6265 72.5043Z" fill="#007054"/>
<path fill-rule="evenodd" clip-rule="evenodd" d="M107.398 59.277C108.225 59.277 109.465 59.3897 110.78 59.991C111.832 60.4419 115.289 62.3208 115.327 67.3937C115.327 68.972 114.989 70.1369 114.726 70.8509C114.275 71.9406 112.471 75.5857 107.548 75.5857C107.022 75.5857 105.632 75.5857 104.054 74.8717C103.002 74.3832 99.5444 72.4667 99.5444 67.3562C99.5444 65.6276 100.033 64.35 100.221 63.899C100.784 62.5087 102.663 59.277 107.398 59.277ZM107.511 72.5795C108.676 72.5795 109.691 72.1661 110.442 71.377C111.382 70.4 111.87 68.9344 111.833 67.281C111.757 64.8761 110.329 62.2456 107.323 62.2456C107.023 62.2456 105.97 62.2832 105.031 62.8844C104.542 63.1851 103.002 64.4251 103.002 67.281C103.002 68.1829 103.115 68.8217 103.34 69.4981C103.716 70.663 105.031 72.5795 107.511 72.5795Z" fill="#007054"/>
<path fill-rule="evenodd" clip-rule="evenodd" d="M115.853 61.5692C115.853 59.8782 117.168 58.9388 118.446 58.9388C119.724 58.9388 121.039 59.8406 121.039 61.5692C121.039 63.2602 119.724 64.1997 118.446 64.1997C117.206 64.1997 115.853 63.2978 115.853 61.5692ZM116.454 61.5317C116.454 62.7717 117.319 63.7112 118.446 63.7112C119.573 63.7112 120.438 62.7717 120.438 61.5317C120.438 60.3292 119.573 59.3897 118.446 59.3897C117.319 59.3897 116.454 60.2916 116.454 61.5317Z" fill="#007054"/>
<path d="M84.1002 84.2662C84.0251 85.3559 83.4239 86.1075 82.4468 86.1075C81.3571 86.1075 80.7183 85.3559 80.7183 83.4019C80.7183 81.5982 81.3571 80.6963 82.522 80.6963C83.499 80.6963 84.0627 81.2975 84.1378 82.3497H83.5366C83.4614 81.523 83.1608 81.1848 82.522 81.1848C81.8832 81.1848 81.3571 81.5606 81.3571 83.4019C81.3571 85.3559 81.9207 85.619 82.4468 85.619C83.0481 85.619 83.4239 85.168 83.5366 84.2662H84.1002V84.2662Z" fill="#007054"/>
<path fill-rule="evenodd" clip-rule="evenodd" d="M86.6929 80.7339C85.6031 80.7339 85.077 81.3351 85.077 82.3873H85.6031C85.6031 81.6358 85.9413 81.2224 86.6177 81.2224C87.1438 81.2224 87.5196 81.4479 87.5196 82.1243C87.5196 82.7255 87.4444 82.8382 87.0311 82.951L85.9413 83.2516C85.1898 83.4395 84.8892 84.0031 84.8892 84.6795C84.8892 85.5814 85.3025 86.1451 86.2044 86.1451C86.8056 86.1451 87.3317 85.9572 87.5572 85.2808H87.5948V85.4687C87.5948 85.9948 87.8954 86.1075 88.3463 86.1075C88.4013 86.1075 88.4563 86.0874 88.5261 86.0618C88.5516 86.0525 88.5791 86.0424 88.6093 86.0323V85.619H88.459C88.2711 85.619 88.1584 85.5062 88.1584 85.2056V82.1243C88.1584 81.2976 87.7826 80.7339 86.6929 80.7339ZM86.9185 83.4395C87.144 83.4019 87.4822 83.2892 87.5573 83.1013V84.191C87.5573 85.1305 87.0688 85.6566 86.3549 85.6566C85.8288 85.6566 85.5282 85.2432 85.5282 84.642C85.5282 84.0032 85.8288 83.7025 86.43 83.5522L86.9185 83.4395Z" fill="#007054"/>
<path fill-rule="evenodd" clip-rule="evenodd" d="M90.0373 80.7714H89.5112H89.4736V87.6856H90.0749V85.1679H90.1125C90.2252 85.7316 90.6761 86.0698 91.3149 86.0698C92.4423 86.0698 92.9684 85.1679 92.9684 83.3642C92.9684 81.5605 92.4798 80.6586 91.3149 80.6586C90.6385 80.6586 90.2252 81.0344 90.0373 81.5229V80.7714ZM90.4133 81.5981C90.6011 81.335 90.9018 81.1472 91.24 81.1472C91.8036 81.1472 92.3673 81.4854 92.3297 83.3642C92.3297 85.2807 91.8036 85.5813 91.2024 85.5813C90.6011 85.5813 90.0751 85.2807 90.0751 83.3642C90.0751 82.4624 90.1502 81.9739 90.4133 81.5981Z" fill="#007054"/>
<path d="M95.1107 83.4019C94.3592 83.1012 94.0962 82.6879 94.0962 82.1618C94.0962 81.1096 94.7725 80.6587 95.6368 80.6587C96.6139 80.6587 97.0648 81.1472 97.0648 82.1242V82.2745H96.4635V82.1242C96.4635 81.4478 96.1629 81.1472 95.5993 81.1472C94.9229 81.1472 94.6598 81.523 94.6598 82.0115C94.6598 82.3873 94.7725 82.6503 95.3738 82.8758L96.2381 83.214C96.9521 83.477 97.2151 83.9655 97.2151 84.5292C97.2151 85.4311 96.689 86.0699 95.5993 86.0699C94.5471 86.0699 94.021 85.6189 94.021 84.454V84.3037H94.6222V84.454C94.6222 85.2056 94.9604 85.6189 95.6368 85.6189C96.2757 85.6189 96.6514 85.2807 96.6514 84.6795C96.6514 84.2286 96.4635 83.9279 95.9375 83.7025L95.1107 83.4019Z" fill="#007054"/>
<path d="M98.2671 80.7714H98.8683V84.4165C98.8683 85.2432 99.169 85.5814 99.7702 85.5814C100.447 85.5814 100.898 85.0553 100.898 84.2661V80.7714H101.499V85.9571H100.973V85.2432H100.935C100.634 85.8068 100.146 86.0699 99.6199 86.0699C98.8308 86.0699 98.3047 85.6565 98.3047 84.6795V80.7714H98.2671Z" fill="#007054"/>
<path d="M102.852 79.0053H103.453V85.9948H102.852V79.0053Z" fill="#007054"/>
<path fill-rule="evenodd" clip-rule="evenodd" d="M108.147 84.3037C108.148 84.2913 108.149 84.2787 108.15 84.2662V84.3037H108.147ZM106.459 86.1075C107.462 86.1075 108.061 85.3732 108.147 84.3037H107.549C107.474 85.2056 107.06 85.6565 106.459 85.6565C105.895 85.6565 105.369 85.2056 105.369 83.7025V83.4395H108.225V83.214C108.225 81.4854 107.699 80.6963 106.534 80.6963C105.369 80.6963 104.73 81.5982 104.73 83.4019C104.73 85.3559 105.369 86.1075 106.459 86.1075ZM106.459 81.1472C107.173 81.1472 107.549 81.6358 107.549 82.9134H105.369C105.369 81.6358 105.745 81.1472 106.459 81.1472Z" fill="#007054"/>
<path d="M110.329 83.4019C109.578 83.1012 109.315 82.6879 109.315 82.1618C109.315 81.1096 109.991 80.6587 110.856 80.6587C111.833 80.6587 112.284 81.1472 112.284 82.1242V82.2745H111.682V82.1242C111.682 81.4478 111.382 81.1472 110.818 81.1472C110.142 81.1472 109.879 81.523 109.879 82.0115C109.879 82.3873 109.991 82.6503 110.593 82.8758L111.457 83.214C112.171 83.477 112.434 83.9655 112.434 84.5292C112.434 85.4311 111.908 86.0699 110.818 86.0699C109.766 86.0699 109.24 85.6189 109.24 84.454V84.3037H109.841V84.454C109.841 85.2056 110.179 85.6189 110.856 85.6189C111.494 85.6189 111.87 85.2807 111.87 84.6795C111.87 84.2286 111.682 83.9279 111.156 83.7025L110.329 83.4019Z" fill="#007054"/>
<path d="M90.4887 90.1658C90.4887 89.0385 91.0524 88.3245 92.1422 88.3245C92.9313 88.3245 93.6453 88.7755 93.6453 89.9028C93.6453 90.6168 93.4198 91.0677 92.6683 91.7065L92.0294 92.2326C91.4282 92.7211 91.09 93.0969 91.0148 93.7357H93.6828V94.1866H90.4512C90.4512 93.2096 90.9021 92.6084 91.6537 91.932L92.2925 91.4059C92.8937 90.9174 93.0816 90.504 93.0816 89.9779C93.0816 89.1888 92.6683 88.7755 92.067 88.7755C91.3906 88.7755 91.0148 89.2264 91.0148 90.2034H90.4887V90.1658Z" fill="#007054"/>
<path fill-rule="evenodd" clip-rule="evenodd" d="M97.8913 91.2932C97.8913 89.5646 97.5907 88.3245 96.2755 88.3245C94.9603 88.3245 94.6597 89.5646 94.6597 91.2932C94.6597 93.0217 94.9603 94.2618 96.2755 94.2618C97.5907 94.2618 97.8913 93.0217 97.8913 91.2932ZM97.403 91.2932C97.403 93.1721 97.0648 93.8485 96.2757 93.8485C95.4866 93.8485 95.1484 93.1721 95.1484 91.2932C95.1484 89.4143 95.4866 88.7379 96.2757 88.7379C97.1024 88.7379 97.403 89.4143 97.403 91.2932Z" fill="#007054"/>
<path fill-rule="evenodd" clip-rule="evenodd" d="M102.326 91.2932C102.326 89.5646 102.025 88.3245 100.71 88.3245C99.3947 88.3245 99.0565 89.5646 99.0941 91.2932C99.0941 93.0217 99.3947 94.2618 100.71 94.2618C102.025 94.2618 102.326 93.0217 102.326 91.2932ZM101.837 91.2932C101.837 93.1721 101.499 93.8485 100.71 93.8485C99.9209 93.8485 99.5827 93.1721 99.5827 91.2932C99.5827 89.4143 99.9209 88.7379 100.71 88.7379C101.537 88.7379 101.837 89.4143 101.837 91.2932Z" fill="#007054"/>
<path d="M103.753 89.79H104.204V90.3913V90.3913C104.43 89.9028 104.843 89.6773 105.332 89.6773C105.858 89.6773 106.158 90.0155 106.234 90.4289V90.4289C106.421 89.9404 106.797 89.6773 107.361 89.6773C107.962 89.6773 108.375 90.0155 108.375 90.8046V94.149H107.887V90.8798C107.887 90.3537 107.661 90.0907 107.211 90.0907C106.722 90.0907 106.309 90.5416 106.309 91.218V94.149H105.82V90.8798C105.82 90.3537 105.595 90.0907 105.144 90.0907C104.655 90.0907 104.242 90.5416 104.242 91.218V94.149H103.753V89.79H103.753Z" fill="#007054"/>
<path fill-rule="evenodd" clip-rule="evenodd" d="M112.284 89.7901H111.833H111.795V90.504C111.645 89.9779 111.269 89.7149 110.781 89.7149C109.841 89.7149 109.39 90.504 109.39 92.0071C109.39 93.7357 110.067 94.1866 110.743 94.1866C111.194 94.1866 111.607 93.9236 111.758 93.3975V94.0739C111.758 94.863 111.457 95.2764 110.856 95.2764C110.405 95.2764 110.029 95.0509 110.029 94.6376H109.54C109.578 95.2388 109.991 95.6898 110.856 95.6898C111.833 95.6898 112.284 95.0509 112.284 93.8484V89.7901ZM111.795 91.8944C111.795 93.3224 111.457 93.7357 110.856 93.7357C110.292 93.7357 109.954 93.3224 109.916 91.8944C109.916 90.504 110.255 90.0907 110.856 90.0907C111.457 90.0907 111.795 90.504 111.795 91.8944Z" fill="#007054"/>
</svg>
