<svg width="196" height="47" viewBox="0 0 196 47" fill="none" xmlns="http://www.w3.org/2000/svg">
<path d="M18.8501 31.6408C18.8501 29.2214 19.6566 28.5389 21.7038 28.5389V30.0899C20.7112 30.0899 20.4631 30.4001 20.4631 31.6408V43.3038C20.4631 44.5445 20.7112 44.8547 21.7038 44.8547V46.4676C19.5325 46.4676 18.8501 45.7852 18.8501 43.3658V31.6408Z" fill="#8E9BA1"/>
<path d="M24.2467 44.9787H22.8198V30.1519H23.9985L25.5495 36.9759L27.1004 30.1519H28.2791V44.9787H26.9143V37.8445L27.3485 33.0056L26.8522 35.7972L25.7356 40.5741H25.4254L24.2467 35.7972L23.7504 33.0056L24.2467 37.9065V44.9787Z" fill="#8E9BA1"/>
<path d="M32.994 44.9787H29.7681V30.1519H32.932V31.6407H31.319V36.6657H32.8699V38.2167H31.319V43.4278H32.994V44.9787Z" fill="#8E9BA1"/>
<path d="M36.7155 31.6407V44.9787H35.1646V31.6407H33.9238V30.1519H37.8942V31.6407H36.7155Z" fill="#8E9BA1"/>
<path d="M40.5006 38.2787V44.9787H38.9497V30.1519H42.1136V31.6407H40.5006V36.7898H42.0516V38.2787H40.5006Z" fill="#8E9BA1"/>
<path d="M43.2305 42.9936V32.1371C43.2305 30.7102 44.099 30.0278 45.4638 30.0278C46.8286 30.0278 47.6351 30.7723 47.6351 32.1371V42.9936C47.6351 44.4825 46.7666 45.1649 45.4018 45.1649C44.099 45.1649 43.2305 44.4825 43.2305 42.9936ZM46.0842 42.7454V32.1991C46.0842 31.6408 45.8981 31.3306 45.4638 31.3306C45.0295 31.3306 44.8434 31.5788 44.8434 32.1991V42.7454C44.8434 43.3038 45.0295 43.6139 45.4638 43.6139C45.8981 43.6139 46.0842 43.3658 46.0842 42.7454Z" fill="#8E9BA1"/>
<path d="M50.6124 38.6509V44.9787H49.1235V30.1519H51.1708C52.7837 30.1519 53.3421 30.7102 53.3421 32.075V36.2935C53.3421 37.162 53.0939 37.6583 52.5356 37.8445C53.0939 38.0306 53.4041 38.5269 53.4041 39.3954V44.0482C53.4041 44.4204 53.4661 44.7306 53.6522 44.9787H52.0393C51.9152 44.8546 51.8532 44.4824 51.8532 44.1102V39.5195C51.8532 38.8991 51.6671 38.6509 51.1087 38.6509H50.6124ZM50.6124 31.4546V37.162H51.0467C51.605 37.162 51.8532 36.9139 51.8532 36.3556V32.2611C51.8532 31.7028 51.6671 31.5167 51.0467 31.5167H50.6124V31.4546Z" fill="#8E9BA1"/>
<path d="M56.1344 44.9787H54.7075V30.1519H55.8862L57.4371 36.9759L58.9881 30.1519H60.1668V44.9787H58.802V37.8445L59.2362 33.0056L58.7399 35.7972L57.6233 40.5741H57.3131L56.1344 35.7972L55.6381 33.0056L56.1344 37.9065V44.9787Z" fill="#8E9BA1"/>
<path d="M61.3457 44.9787V43.4898H62.1522V31.5787H61.3457V30.1519H64.5096V31.5787H63.7031V43.4898H64.5096V44.9787H61.3457Z" fill="#8E9BA1"/>
<path d="M67.0523 44.9787H65.6875V30.1519H66.8662L68.6032 38.5269L68.9755 40.6982L68.7273 37.5343V30.1519H70.1542V44.9787H68.9755L67.1764 36.5417L66.8042 34.3704L67.0523 37.4102V44.9787Z" fill="#8E9BA1"/>
<path d="M77.1642 38.2787H75.9855V44.9787H74.3726V30.1519H75.9855V36.7898H77.1642V30.1519H78.7772V44.9787H77.1642V38.2787Z" fill="#8E9BA1"/>
<path d="M80.2041 42.9315V32.075C80.2041 30.6482 81.0106 29.9658 82.3754 29.9658C83.7402 29.9658 84.4847 30.5861 84.4847 32.013V35.9834H82.9337V32.1991C82.9337 31.6408 82.7476 31.3306 82.3134 31.3306C81.8791 31.3306 81.755 31.5787 81.755 32.1991V42.6834C81.755 43.3037 81.8791 43.5519 82.3134 43.5519C82.7476 43.5519 82.8717 43.3037 82.9337 42.6834V38.4648H84.4847V42.8695C84.4847 44.4204 83.7402 45.0408 82.3754 45.0408C80.8865 45.1648 80.2041 44.4824 80.2041 42.9315Z" fill="#8E9BA1"/>
<path d="M85.8501 44.9787V30.1519H87.4631V43.4278H89.2621V44.9787H85.8501Z" fill="#8E9BA1"/>
<path d="M90.1309 44.8547C91.1235 44.8547 91.3716 44.5445 91.3716 43.3038V31.6408C91.3716 30.4001 91.1235 30.0899 90.1309 30.0899V28.5389C92.1781 28.5389 92.9846 29.2214 92.9846 31.6408V43.3038C92.9846 45.7232 92.3022 46.4056 90.1309 46.4056V44.8547Z" fill="#8E9BA1"/>
<path d="M99.1878 36.6657H96.0859V30.338H99.1258V31.6407H97.5128V32.8194H98.9396V34.1222H97.5128V35.3009H99.1878V36.6657Z" fill="#8E9BA1"/>
<path d="M101.048 36.6657H99.4976L100.8 33.3157L99.6216 30.338H101.111L101.545 31.8268L101.607 32.137V31.8268L102.103 30.338H103.592L102.413 33.3157L103.654 36.6657H102.165L101.607 34.9907V34.7426V34.9907L101.048 36.6657Z" fill="#8E9BA1"/>
<path d="M106.26 31.6407V36.6657H104.833V31.6407H103.84V30.338H107.19V31.6407H106.26Z" fill="#8E9BA1"/>
<path d="M110.913 36.6657H107.811V30.338H110.851V31.6407H109.238V32.8194H110.665V34.1222H109.238V35.3009H110.913V36.6657Z" fill="#8E9BA1"/>
<path d="M112.774 36.6657H111.472V30.338H112.774L113.891 33.4398L114.015 33.812L113.953 33.1917V30.338H115.256V36.6657H114.015L112.836 33.5639L112.774 33.1917V33.812V36.6657Z" fill="#8E9BA1"/>
<path d="M116 30.338H117.799C118.916 30.338 119.66 30.8342 119.66 32.137V34.8046C119.66 36.1074 118.854 36.6657 117.737 36.6657H116V30.338ZM117.427 31.5787V35.425H117.675C117.985 35.425 118.171 35.2389 118.171 34.7426V32.3231C118.171 31.7648 117.985 31.6407 117.675 31.6407H117.427V31.5787Z" fill="#8E9BA1"/>
<path d="M123.382 36.6657H120.28V30.338H123.382V31.6407H121.707V32.8194H123.196V34.1222H121.707V35.3009H123.382V36.6657Z" fill="#8E9BA1"/>
<path d="M124.003 30.338H125.802C126.919 30.338 127.663 30.8342 127.663 32.137V34.8046C127.663 36.1074 126.857 36.6657 125.74 36.6657H124.003V30.338ZM125.43 31.5787V35.425H125.678C125.988 35.425 126.112 35.2389 126.112 34.7426V32.3231C126.112 31.7648 125.926 31.6407 125.678 31.6407H125.43V31.5787Z" fill="#8E9BA1"/>
<path d="M130.703 32.8195H128.283V34.1843H130.703V32.8195Z" fill="#8E9BA1"/>
<path d="M132.749 34.3704V36.6657H131.384V30.338H133.183C134.362 30.338 134.858 30.7722 134.858 31.8889V32.6954C134.858 33.2537 134.672 33.5639 134.3 33.6879C134.672 33.8741 134.796 34.1222 134.796 34.6805V36.1694C134.796 36.3555 134.858 36.5417 134.982 36.6037H133.494C133.431 36.5417 133.369 36.3555 133.369 36.1694V34.8046C133.369 34.4944 133.245 34.3704 132.935 34.3704H132.749ZM132.749 31.5787V33.1296H133.059C133.369 33.1296 133.431 33.0055 133.431 32.7574V31.9509C133.431 31.6407 133.307 31.5167 133.059 31.5167H132.749V31.5787Z" fill="#8E9BA1"/>
<path d="M138.581 36.6657H135.479V30.338H138.581V31.6407H136.906V32.8194H138.395V34.1222H136.906V35.3009H138.581V36.6657Z" fill="#8E9BA1"/>
<path d="M139.202 36.6657V30.338H140.691V35.1768H142.179V36.6657H139.202Z" fill="#8E9BA1"/>
<path d="M145.839 36.6657H142.799V30.338H145.839V31.6407H144.226V32.8194H145.653V34.1222H144.226V35.3009H145.839V36.6657Z" fill="#8E9BA1"/>
<path d="M148.818 35.9833H147.825L147.701 36.6657H146.274L147.577 30.338H149.004L150.369 36.6657H148.942L148.818 35.9833ZM148.011 34.7426H148.632L148.384 33.1917L148.322 32.3852L148.26 33.1917L148.011 34.7426Z" fill="#8E9BA1"/>
<path d="M150.616 35.1149V34.2464H152.105V35.1149C152.105 35.363 152.167 35.4871 152.415 35.4871C152.663 35.4871 152.725 35.363 152.725 35.1149V34.7427C152.725 34.3084 152.291 34.1223 151.857 33.8742C151.299 33.564 150.678 33.1297 150.678 32.1992V31.889C150.678 30.7723 151.299 30.276 152.415 30.276C153.532 30.276 154.09 30.7723 154.09 31.7649V32.4473H152.663V31.889C152.663 31.5788 152.601 31.4547 152.353 31.4547C152.105 31.4547 152.043 31.5788 152.043 31.889V32.0751C152.043 32.4473 152.415 32.6334 152.912 32.8816C153.47 33.1917 154.152 33.626 154.152 34.5566V35.1769C154.152 36.2316 153.594 36.7899 152.353 36.7899C151.112 36.7899 150.616 36.2316 150.616 35.1149Z" fill="#8E9BA1"/>
<path d="M157.874 36.6657H154.772V30.338H157.812V31.6407H156.199V32.8194H157.688V34.1222H156.199V35.3009H157.874V36.6657Z" fill="#8E9BA1"/>
<path d="M96.0244 43.1797V40.45C96.0244 39.1473 96.7689 38.5889 97.8855 38.5889C99.0022 38.5889 99.7466 39.2093 99.7466 40.45V43.1797C99.7466 44.4824 99.0022 45.0408 97.8855 45.0408C96.7689 45.0408 96.0244 44.4824 96.0244 43.1797ZM98.2577 43.0556V40.5121C98.2577 40.0158 98.1957 39.8297 97.8855 39.8297C97.5753 39.8297 97.5133 40.0158 97.5133 40.5121V43.0556C97.5133 43.5519 97.5753 43.738 97.8855 43.738C98.1957 43.738 98.2577 43.5519 98.2577 43.0556Z" fill="#8E9BA1"/>
<path d="M101.793 42.6834V44.9788H100.428V38.651H102.227C103.406 38.651 103.902 39.0853 103.902 40.2019V41.0084C103.902 41.5667 103.716 41.8769 103.343 42.001C103.778 42.1871 103.84 42.4353 103.84 42.9936V44.4825C103.84 44.6686 103.902 44.8547 104.026 44.9167H102.537C102.475 44.8547 102.413 44.6686 102.413 44.4825V43.1177C102.413 42.8075 102.289 42.6834 101.979 42.6834H101.793ZM101.793 39.8297V41.3806H102.103C102.413 41.3806 102.475 41.2566 102.475 41.0084V40.2019C102.475 39.8917 102.351 39.7677 102.103 39.7677H101.793V39.8297Z" fill="#8E9BA1"/>
<path d="M106.756 44.2964H105.763L105.639 44.9788H104.212L105.515 38.651H106.942L108.307 44.9788H106.88L106.756 44.2964ZM105.949 43.0556H106.57L106.322 41.5047L106.26 40.6982L106.198 41.5047L105.949 43.0556Z" fill="#8E9BA1"/>
<path d="M108.741 44.9788V38.651H110.23V43.4899H111.657V44.9788H108.741Z" fill="#8E9BA1"/>
<path d="M114.015 43.4278V42.5593H115.504V43.4278C115.504 43.676 115.566 43.8 115.814 43.8C116.062 43.8 116.124 43.676 116.124 43.4278V43.0556C116.124 42.6213 115.69 42.4352 115.255 42.1871C114.697 41.8769 114.077 41.4426 114.077 40.5121V40.2019C114.077 39.0852 114.697 38.5889 115.814 38.5889C116.93 38.5889 117.489 39.0852 117.489 40.0778V40.7602H116.062V40.2019C116.062 39.8917 116 39.7676 115.752 39.7676C115.504 39.7676 115.441 39.8917 115.441 40.2019V40.388C115.441 40.7602 115.814 40.9463 116.31 41.1945C116.868 41.5047 117.551 41.9389 117.551 42.8695V43.4899C117.551 44.5445 116.992 45.1028 115.752 45.1028C114.511 45.0408 114.015 44.5445 114.015 43.4278Z" fill="#8E9BA1"/>
<path d="M118.109 43.1797V38.651H119.536V43.1177C119.536 43.5519 119.598 43.676 119.908 43.676C120.156 43.676 120.28 43.5519 120.28 43.1177V38.651H121.707V43.1797C121.707 44.4825 121.025 45.0408 119.908 45.0408C118.791 45.0408 118.109 44.4825 118.109 43.1797Z" fill="#8E9BA1"/>
<path d="M122.265 43.4278V42.5593H123.754V43.4278C123.754 43.676 123.816 43.8 124.064 43.8C124.312 43.8 124.374 43.676 124.374 43.4278V43.0556C124.374 42.6213 123.94 42.4352 123.506 42.1871C122.948 41.8769 122.327 41.4426 122.327 40.5121V40.2019C122.327 39.0852 122.948 38.5889 124.064 38.5889C125.181 38.5889 125.739 39.0852 125.739 40.0778V40.7602H124.312V40.2019C124.312 39.8917 124.25 39.7676 124.002 39.7676C123.754 39.7676 123.692 39.8917 123.692 40.2019V40.388C123.692 40.7602 124.064 40.9463 124.561 41.1945C125.119 41.5047 125.801 41.9389 125.801 42.8695V43.4899C125.801 44.5445 125.243 45.1028 124.002 45.1028C122.761 45.0408 122.265 44.5445 122.265 43.4278Z" fill="#8E9BA1"/>
<path d="M127.85 43.0556V44.9788H126.423V38.651H128.222C129.463 38.651 130.021 39.1473 130.021 40.2019V41.3186C130.021 42.3732 129.525 42.9936 128.222 42.9936H127.85V43.0556ZM127.85 39.8297V41.7529H128.16C128.47 41.7529 128.594 41.6288 128.594 41.3186V40.326C128.594 40.0158 128.47 39.8917 128.16 39.8917H127.85V39.8297Z" fill="#8E9BA1"/>
<path d="M133.68 44.9788H130.579V38.651H133.618V39.9538H132.005V41.1325H133.432V42.4353H132.005V43.614H133.68V44.9788Z" fill="#8E9BA1"/>
<path d="M135.542 44.9788H134.239V38.651H135.542L136.659 41.7529L136.783 42.063L136.721 41.5047V38.651H138.024V44.9788H136.783L135.604 41.8769L135.542 41.5047V42.1251V44.9788Z" fill="#8E9BA1"/>
<path d="M138.582 43.4278V42.5593H140.07V43.4278C140.07 43.676 140.132 43.8 140.381 43.8C140.629 43.8 140.691 43.676 140.691 43.4278V43.0556C140.691 42.6213 140.257 42.4352 139.822 42.1871C139.264 41.8769 138.644 41.4426 138.644 40.5121V40.2019C138.644 39.0852 139.264 38.5889 140.381 38.5889C141.497 38.5889 142.056 39.0852 142.056 40.0778V40.7602H140.629V40.2019C140.629 39.8917 140.567 39.7676 140.319 39.7676C140.07 39.7676 140.008 39.8917 140.008 40.2019V40.388C140.008 40.7602 140.381 40.9463 140.877 41.1945C141.435 41.5047 142.118 41.9389 142.118 42.8695V43.4899C142.118 44.5445 141.559 45.1028 140.319 45.1028C139.016 45.0408 138.582 44.5445 138.582 43.4278Z" fill="#8E9BA1"/>
<path d="M142.614 44.9788V43.614H143.297V40.0158H142.614V38.651H145.344V40.0158H144.661V43.614H145.344V44.9788H142.614Z" fill="#8E9BA1"/>
<path d="M145.778 43.1797V40.45C145.778 39.1473 146.522 38.5889 147.639 38.5889C148.756 38.5889 149.5 39.2093 149.5 40.45V43.1797C149.5 44.4824 148.756 45.0408 147.639 45.0408C146.522 45.0408 145.778 44.4824 145.778 43.1797ZM148.073 43.0556V40.5121C148.073 40.0158 148.011 39.8297 147.701 39.8297C147.391 39.8297 147.329 40.0158 147.329 40.5121V43.0556C147.329 43.5519 147.391 43.738 147.701 43.738C148.011 43.738 148.073 43.5519 148.073 43.0556Z" fill="#8E9BA1"/>
<path d="M151.485 44.9788H150.182V38.651H151.485L152.602 41.7529L152.726 42.063L152.664 41.5047V38.651H153.966V44.9788H152.726L151.609 41.8769L151.485 41.5047V42.1251V44.9788Z" fill="#8E9BA1"/>
<path d="M68.5423 19.1714C68.1701 19.1714 67.7979 19.0473 67.5497 18.7992C67.3016 18.551 67.1775 18.1788 67.1775 17.8066V11.2306C67.1775 10.3621 66.9914 9.67971 66.5571 9.30749C66.1229 8.87323 65.5645 8.68712 64.8821 8.68712C64.1377 8.68712 63.5793 8.93527 63.1451 9.43157C62.6488 9.92786 62.4627 10.5482 62.4627 11.3547V17.8066C62.4627 18.1788 62.3386 18.551 62.0904 18.7992C61.8423 19.0473 61.4701 19.2334 61.0979 19.2334C60.7256 19.2334 60.3534 19.1093 60.1053 18.8612C59.8571 18.613 59.733 18.2408 59.733 17.8686V11.2306C59.733 10.3621 59.5469 9.67971 59.1127 9.30749C58.6784 8.87323 58.1201 8.68712 57.4377 8.68712C56.6932 8.68712 56.1349 8.93527 55.6386 9.43157C55.1423 9.92786 54.9562 10.5482 54.9562 11.3547V17.8066C54.9562 18.1788 54.8321 18.551 54.584 18.7992C54.3358 19.0473 53.9636 19.2334 53.5914 19.2334C53.2192 19.2334 52.8469 19.1093 52.5988 18.8612C52.3506 18.613 52.2266 18.2408 52.2266 17.8686V7.63249C52.2266 7.19823 52.3506 6.88805 52.6608 6.57786C52.909 6.32971 53.2812 6.20564 53.6534 6.20564C54.0877 6.20564 54.3979 6.32971 54.646 6.57786C54.7701 6.70193 54.8942 6.88805 54.9562 7.07416C55.1423 6.95008 55.2664 6.82601 55.4525 6.70194C56.1969 6.26768 57.0034 6.01953 57.934 6.01953C58.8025 6.01953 59.671 6.20564 60.3534 6.6399C60.7877 6.88805 61.2219 7.26027 61.5321 7.69453C61.9043 7.32231 62.2766 7.01212 62.7729 6.70194C63.5793 6.26768 64.5099 6.01953 65.5025 6.01953C66.371 6.01953 67.2395 6.20564 67.9219 6.6399C68.6043 7.07416 69.1627 7.63249 69.5969 8.43897C69.9692 9.18342 70.1553 10.176 70.1553 11.2306V17.7445C70.1553 18.1167 70.0312 18.489 69.783 18.7371C69.2867 19.0473 68.9145 19.1714 68.5423 19.1714Z" fill="#AF6D04"/>
<path d="M92.3021 19.2334C91.4335 19.2334 90.6891 18.9852 90.0067 18.551C89.3243 18.1167 88.828 17.4963 88.3937 16.7519C88.0215 16.0075 87.8354 15.1389 87.8354 14.2084V8.68709H86.9669C86.5946 8.68709 86.2224 8.56302 85.9743 8.31487C85.7261 8.06672 85.6021 7.75653 85.6021 7.38431C85.6021 7.01209 85.7261 6.63987 85.9743 6.39172C86.2224 6.14357 86.5326 6.0195 86.9669 6.0195H87.8354V2.35931C87.8354 1.92505 87.9595 1.55283 88.2696 1.30468C88.5178 0.994495 88.89 0.870422 89.3243 0.870422C89.7585 0.870422 90.0687 0.994495 90.3789 1.30468C90.627 1.61487 90.8132 1.92505 90.8132 2.35931V6.0195H92.6122C92.9845 6.0195 93.3567 6.14357 93.6048 6.39172C93.853 6.63987 93.977 6.95005 93.977 7.38431C93.977 7.75653 93.853 8.06672 93.6048 8.31487C93.3567 8.56302 93.0465 8.68709 92.6122 8.68709H90.8132V14.2084C90.8132 14.8288 90.9993 15.3251 91.3095 15.6973C91.6196 16.0695 91.9919 16.2556 92.4261 16.2556H93.2326C93.6048 16.2556 93.915 16.3797 94.1632 16.6899C94.4113 16.938 94.5354 17.3102 94.5354 17.7445C94.5354 18.1788 94.3493 18.551 94.0391 18.7991C93.7289 19.0473 93.3567 19.2334 92.8604 19.2334H92.3021Z" fill="#AF6D04"/>
<path d="M77.9714 19.2334C75.614 19.2334 73.6909 18.1167 72.264 15.9454C71.8298 15.201 71.5816 14.3945 71.4575 13.588C71.3955 13.2158 71.3955 12.9677 71.3955 12.6575C71.3955 10.238 72.5122 8.31487 74.8075 6.88802C75.9242 6.32969 76.9788 6.08154 77.9714 6.08154C80.515 6.08154 82.5001 7.32228 83.865 9.67969C84.3613 10.6102 84.6094 11.6649 84.6094 12.7815V13.0297C84.4853 13.8982 83.989 14.3945 83.3066 14.3945H74.5594L74.6214 14.5806C74.9937 15.3251 75.8622 16.5038 78.0335 16.5658C79.0261 16.5658 79.7085 16.2556 80.2668 16.0075L80.3288 15.9454C80.3909 15.9454 80.4529 15.8834 80.4529 15.8834C80.515 15.8834 80.639 15.8834 80.7011 15.8834C81.9418 15.8834 81.9418 17.0621 81.9418 17.1862V17.3102C82.0038 19.1714 78.0335 19.2334 77.9714 19.2334ZM77.8474 8.81117C77.227 8.81117 76.6687 8.93525 76.1724 9.18339C74.6214 9.92784 74.3733 11.3547 74.3733 11.4167V11.5408H81.8177L81.7557 11.3547C81.7557 11.3547 81.6937 11.2927 81.6937 11.2306C81.5696 10.7964 81.0733 9.36951 79.2742 8.87321C78.964 8.74914 78.6538 8.6871 78.3437 8.6871H77.8474V8.81117Z" fill="#AF6D04"/>
<path d="M48.193 8.00469C46.8282 6.70191 45.2773 6.08154 43.6023 6.08154C42.2995 6.08154 41.0587 6.5158 39.88 7.32228C38.0189 8.74914 37.0884 10.5482 37.0884 12.6575C37.0884 14.0843 37.5847 15.4491 38.5152 16.7519C40.0041 18.3649 41.6791 19.2334 43.4782 19.2334H43.8504C44.781 19.2334 45.7736 18.9852 46.8282 18.489C49.1236 17.1241 50.3023 15.1389 50.3023 12.7195C50.1782 10.9204 49.4958 9.36951 48.193 8.00469ZM43.6023 16.3797C41.555 16.3797 39.88 14.7047 39.88 12.6575C39.88 10.6102 41.555 8.93525 43.6023 8.93525C45.6495 8.93525 47.3245 10.6102 47.3245 12.6575C47.3245 14.7047 45.6495 16.3797 43.6023 16.3797Z" fill="#AF6D04"/>
<path d="M33.7389 6.08154C33.3046 6.08154 32.9944 5.95746 32.6843 5.64728C32.3741 5.33709 32.25 5.02691 32.25 4.59265C32.25 4.15839 32.3741 3.84821 32.6843 3.53802C32.9944 3.22784 33.3046 3.10376 33.7389 3.10376C34.1731 3.10376 34.4833 3.22784 34.7935 3.53802C35.1037 3.84821 35.2278 4.15839 35.2278 4.59265C35.2278 5.02691 35.1037 5.33709 34.7935 5.64728C34.5454 5.95746 34.1731 6.08154 33.7389 6.08154Z" fill="#AF6D04"/>
<path d="M33.7389 19.1714C33.3046 19.1714 32.9324 19.0473 32.6843 18.7371C32.3741 18.4269 32.25 18.1167 32.25 17.6825V8.6871C32.25 8.25284 32.3741 7.88062 32.6843 7.57043C32.9944 7.32228 33.3046 7.13617 33.7389 7.13617C34.1731 7.13617 34.5454 7.26025 34.8556 7.57043C35.1037 7.81858 35.2898 8.1908 35.2898 8.6871V17.6825C35.2898 18.1167 35.1657 18.4889 34.8556 18.7371C34.5454 19.0473 34.1731 19.1714 33.7389 19.1714Z" fill="#AF6D04"/>
<path d="M29.955 16.938L26.1087 10.3C26.1087 10.3 28.7142 8.87319 28.7142 6.01948V5.64726C28.7142 4.84078 28.5281 4.0343 28.1559 3.22782C26.9772 1.30467 25.4263 0.312073 23.5651 0.312073H19.7188C19.0364 0.312073 18.292 0.498183 18.292 1.92503V17.6824C18.292 19.6056 21.3318 19.6056 21.3318 17.6824V11.1065H23.0068H23.0688L27.2874 18.4269C27.4735 18.7991 27.7837 19.0473 28.2179 19.1093C28.5901 19.2334 28.9624 19.1713 29.3346 18.9232C29.7068 18.675 29.955 18.4269 30.079 17.9926C30.2031 17.6824 30.1411 17.3102 29.955 16.938ZM23.5651 8.0667H23.379H21.3318V5.77133V5.7093V5.64726V3.35189H22.6346H23.5651C23.5651 3.35189 25.7985 3.35189 25.7985 5.7093C25.7985 8.12874 23.5651 8.0667 23.5651 8.0667Z" fill="#AF6D04"/>
<path d="M15.314 19.4195C15.314 19.4195 16.5547 20.0399 19.7186 19.9158C19.7186 19.9158 26.0464 19.7297 23.0686 18.9852C23.0686 18.9852 24.9917 19.1713 23.751 19.8537C23.751 19.8537 22.7584 20.4121 19.7186 20.4121C19.7186 20.4121 15.6862 20.4741 15.314 19.4195Z" fill="#00A3AD"/>
<path d="M19.9671 21.4047C13.4532 21.4047 8.11806 20.6603 8.11806 19.6677C8.11806 19.3575 8.80046 18.9853 9.97917 18.7371C8.24213 19.1093 7.1875 19.5436 7.1875 20.1019C7.1875 21.2806 12.7088 22.2112 19.4708 22.2112C26.2329 22.2112 31.7542 21.2806 31.7542 20.1019C31.7542 20.0399 31.7542 19.9779 31.6921 19.9779C30.7616 20.7843 25.8606 21.4047 19.9671 21.4047Z" fill="#00A3AD"/>
<path d="M36.034 19.1713C36.7784 19.4815 37.2127 19.8537 37.2127 20.226C37.2127 21.901 29.0858 23.2658 19.0979 23.2658C9.10991 23.2658 1.0451 21.963 1.0451 20.226C0.796949 20.4741 0.61084 20.7223 0.61084 20.9084C0.61084 22.7695 9.17195 24.3204 19.7182 24.3204C30.2645 24.3204 38.8256 22.7695 38.8256 20.9084C38.8256 20.288 37.771 19.7297 36.034 19.1713Z" fill="#00A3AD"/>
<path d="M123.755 1.36672H122.886V0.870422H125.182V1.36672H124.313V3.66209H123.755V1.36672ZM125.43 0.870422H125.926L126.981 2.23524L128.035 0.870422H128.532V3.66209H127.973V1.73894L126.981 2.97968L125.988 1.73894V3.66209H125.43V0.870422Z" fill="#00A3AD"/>
<path d="M113.518 19.1713C113.146 19.1713 112.525 18.9852 112.525 18.2408V1.92505C112.525 0.932457 112.898 0.870422 113.394 0.870422H117.364C119.039 0.870422 120.466 1.80098 121.583 3.60005C121.893 4.28246 122.079 5.0269 122.079 5.77135V6.14357C122.079 8.74913 119.722 10.0519 119.66 10.0519L119.101 10.3621L123.382 17.7445C123.506 17.9926 123.568 18.2408 123.506 18.4889C123.444 18.7371 123.32 18.9232 123.072 19.0473C122.886 19.1713 122.762 19.1713 122.575 19.1713C122.513 19.1713 122.451 19.1713 122.327 19.1093C122.079 19.0473 121.893 18.9232 121.769 18.675L117.24 10.7963H114.449V18.2408C114.511 19.1093 113.704 19.1713 113.518 19.1713ZM114.511 8.8732H117.364C117.426 8.8732 118.109 8.8732 118.791 8.50098C119.474 8.12876 120.218 7.38431 120.218 5.83338C120.218 3.41394 118.357 2.79357 117.302 2.79357H114.449V8.8732H114.511Z" fill="#00A3AD"/>
<path d="M100.491 19.2334C100.242 19.2334 99.9943 19.1713 99.8702 18.9852C99.6841 18.7991 99.6221 18.613 99.6221 18.3649V1.80098C99.6221 1.55283 99.6841 1.30468 99.8702 1.11857C100.056 0.93246 100.242 0.870422 100.553 0.870422H109.796C110.106 0.870422 110.292 0.93246 110.479 1.11857C110.665 1.24265 110.727 1.49079 110.727 1.73894C110.727 1.98709 110.665 2.1732 110.479 2.29728C110.292 2.42135 110.106 2.54542 109.796 2.54542H101.483V9.18339H107.377C107.687 9.18339 107.873 9.24542 108.059 9.43153C108.245 9.55561 108.307 9.74172 108.307 9.98986C108.307 10.238 108.245 10.4241 108.059 10.5482C107.873 10.6723 107.687 10.7963 107.377 10.7963H101.483V17.6204H109.796C110.106 17.6204 110.292 17.6825 110.479 17.8686C110.603 17.9926 110.727 18.1788 110.727 18.4269C110.727 18.6751 110.665 18.8612 110.479 19.0473C110.292 19.2334 110.106 19.2954 109.796 19.2954H100.491V19.2334Z" fill="#00A3AD"/>
<path d="M157.131 43.1797V42.6834H157.937V43.1177C157.937 43.8001 158.123 44.0482 158.744 44.0482C159.364 44.0482 159.55 43.676 159.55 43.0556V42.063C159.55 41.5667 159.302 41.2566 158.806 41.2566C158.372 41.2566 158.123 41.5047 157.999 41.8149L157.937 42.001L157.193 41.7529L157.503 38.7751H160.295V38.8371C160.295 39.4575 160.171 39.5195 159.488 39.5195H158.185C158.123 40.0158 158.061 40.8223 157.999 41.2566C158.185 40.8843 158.496 40.5742 159.116 40.5742C159.985 40.5742 160.357 41.1325 160.357 42.063V43.1797C160.357 44.2343 159.798 44.7927 158.744 44.7927C157.689 44.7927 157.131 44.3584 157.131 43.1797Z" fill="#8E9BA1"/>
<path d="M160.977 42.9316V40.5121C160.977 39.3334 161.597 38.651 162.652 38.651C163.707 38.651 164.327 39.2714 164.327 40.5121V42.9316C164.327 44.1723 163.707 44.7927 162.652 44.7927C161.659 44.7927 160.977 44.2343 160.977 42.9316ZM163.583 42.8695V40.5742C163.583 39.8297 163.334 39.3955 162.714 39.3955C162.094 39.3955 161.846 39.8297 161.846 40.5742V42.8695C161.846 43.614 162.094 44.0482 162.714 44.0482C163.272 44.0482 163.583 43.676 163.583 42.8695Z" fill="#8E9BA1"/>
<path d="M165.195 42.9316V40.5121C165.195 39.3334 165.815 38.651 166.87 38.651C167.924 38.651 168.545 39.2714 168.545 40.5121V42.9316C168.545 44.1723 167.924 44.7927 166.87 44.7927C165.815 44.7927 165.195 44.2343 165.195 42.9316ZM167.738 42.8695V40.5742C167.738 39.8297 167.49 39.3955 166.87 39.3955C166.249 39.3955 166.001 39.8297 166.001 40.5742V42.8695C166.001 43.614 166.249 44.0482 166.87 44.0482C167.49 44.0482 167.738 43.676 167.738 42.8695Z" fill="#8E9BA1"/>
<path d="M170.779 44.6686H170.034V39.8917H170.655L170.717 40.5741C170.841 40.0778 171.213 39.7676 171.771 39.7676C172.33 39.7676 172.702 40.0778 172.764 40.5741C172.95 40.0778 173.26 39.7676 173.756 39.7676C174.501 39.7676 174.873 40.2639 174.873 41.1945V44.6686H174.129V41.3186C174.129 40.7602 173.943 40.4501 173.508 40.4501C173.012 40.4501 172.826 40.8223 172.826 41.3186V44.6686H172.081V41.3186C172.081 40.8223 171.957 40.4501 171.461 40.4501C170.965 40.4501 170.779 40.8843 170.779 41.5047V44.6686Z" fill="#8E9BA1"/>
<path d="M176.92 46.3436C175.927 46.3436 175.555 46.0334 175.555 45.5371C175.555 45.1648 175.865 44.8547 176.424 44.7306C175.865 44.6685 175.555 44.4204 175.555 43.9861C175.555 43.5519 175.803 43.3037 176.362 43.2417C175.927 43.0556 175.679 42.7454 175.679 42.1871V41.1945C175.679 40.5121 176.114 40.0158 176.858 39.8917H176.982C177.602 39.7676 177.789 39.6436 177.789 39.2093V38.8991H178.657V39.0852C178.657 39.6436 178.409 40.0158 177.602 40.0158C177.664 40.0158 177.664 40.0158 177.726 40.0158C178.285 40.0778 178.657 40.5741 178.657 41.1324V42.125C178.657 42.9315 178.099 43.4278 177.168 43.4278H177.044C176.424 43.4278 176.238 43.4899 176.238 43.738C176.238 43.9241 176.362 44.0482 176.858 43.9861H177.664C178.595 43.9861 178.967 44.4204 178.967 45.0408C178.967 45.7232 178.471 46.2815 177.106 46.2815H176.92V46.3436ZM177.23 45.6611C177.913 45.6611 178.223 45.413 178.223 45.1028C178.223 44.8547 178.037 44.6686 177.54 44.6686H176.982C176.61 44.7306 176.3 44.9787 176.3 45.2269C176.3 45.475 176.548 45.5991 176.982 45.5991H177.23V45.6611ZM177.913 42.125V41.1324C177.913 40.6982 177.726 40.388 177.23 40.388C177.168 40.388 177.044 40.388 176.982 40.45C176.672 40.5741 176.548 40.8223 176.548 41.1945V42.1871C176.548 42.6834 176.796 42.8695 177.23 42.8695C177.664 42.8695 177.913 42.5593 177.913 42.125Z" fill="#8E9BA1"/>
<path d="M157.131 43.1797V42.6834H157.937V43.1177C157.937 43.8001 158.123 44.0482 158.744 44.0482C159.364 44.0482 159.55 43.676 159.55 43.0556V42.063C159.55 41.5667 159.302 41.2565 158.806 41.2565C158.372 41.2565 158.123 41.5047 157.999 41.8149L157.937 42.001L157.193 41.8149L157.503 38.8371H160.295V38.8991C160.295 39.5195 160.171 39.5815 159.488 39.5815H158.185C158.123 40.0778 158.061 40.8843 157.999 41.3186C158.185 40.9464 158.496 40.6362 159.116 40.6362C159.985 40.6362 160.357 41.1945 160.357 42.1251V43.2417C160.357 44.2964 159.798 44.8547 158.744 44.8547C157.689 44.7927 157.131 44.3584 157.131 43.1797Z" fill="#8E9BA1"/>
<path d="M161.039 42.9315V40.5741C161.039 39.3954 161.659 38.713 162.714 38.713C163.769 38.713 164.389 39.3333 164.389 40.5741V42.9935C164.389 44.2342 163.769 44.7926 162.714 44.7926C161.659 44.7926 161.039 44.1722 161.039 42.9315ZM163.583 42.9315V40.5741C163.583 39.8296 163.334 39.3954 162.714 39.3954C162.094 39.3954 161.846 39.8296 161.846 40.5741V42.8694C161.846 43.6139 162.094 43.9861 162.714 43.9861C163.272 44.0481 163.583 43.6759 163.583 42.9315Z" fill="#8E9BA1"/>
<path d="M165.195 42.9315V40.5741C165.195 39.3954 165.815 38.713 166.87 38.713C167.924 38.713 168.545 39.3333 168.545 40.5741V42.9935C168.545 44.2342 167.924 44.7926 166.87 44.7926C165.815 44.7926 165.195 44.1722 165.195 42.9315ZM167.738 42.9315V40.5741C167.738 39.8296 167.49 39.3954 166.87 39.3954C166.249 39.3954 166.001 39.8296 166.001 40.5741V42.8694C166.001 43.6139 166.249 43.9861 166.87 43.9861C167.49 44.0481 167.738 43.6759 167.738 42.9315Z" fill="#8E9BA1"/>
<path d="M170.841 44.6686H170.097V39.9538H170.717L170.779 40.6362C170.903 40.1399 171.275 39.8297 171.834 39.8297C172.392 39.8297 172.702 40.1399 172.826 40.6362C173.012 40.1399 173.323 39.8297 173.819 39.8297C174.563 39.8297 174.936 40.326 174.936 41.2566V44.6686H174.191V41.3806C174.191 40.8223 174.005 40.5121 173.571 40.5121C173.074 40.5121 172.888 40.8843 172.888 41.3806V44.6686H172.144V41.3186C172.144 40.8223 172.02 40.4501 171.524 40.4501C171.027 40.4501 170.841 40.8843 170.841 41.4427V44.6686Z" fill="#8E9BA1"/>
<path d="M176.92 46.2815C175.989 46.2815 175.555 45.9713 175.555 45.475C175.555 45.1028 175.865 44.7926 176.424 44.6686C175.865 44.6065 175.555 44.3584 175.555 43.9241C175.555 43.4898 175.803 43.2417 176.362 43.1797C175.927 42.9935 175.679 42.6834 175.679 42.125V41.1945C175.679 40.5121 176.114 40.0158 176.796 39.8917H176.92C177.54 39.7676 177.726 39.6436 177.726 39.2093V38.8991H178.595V39.0852C178.595 39.6436 178.409 40.0158 177.602 40.0158C177.664 40.0158 177.664 40.0158 177.726 40.0158C178.285 40.0778 178.657 40.5741 178.657 41.1324V42.125C178.657 42.9315 178.099 43.4278 177.168 43.4278H177.044C176.424 43.4278 176.238 43.4899 176.238 43.738C176.238 43.9241 176.362 44.0482 176.858 43.9861H177.664C178.595 43.9861 178.967 44.4204 178.967 45.0408C178.967 45.7232 178.471 46.2815 177.106 46.2815H176.92ZM177.23 45.6611C177.913 45.6611 178.223 45.413 178.223 45.1028C178.223 44.8547 178.037 44.6686 177.54 44.6686H176.982C176.61 44.7306 176.3 44.9787 176.3 45.2269C176.3 45.475 176.548 45.5991 176.982 45.5991H177.23V45.6611ZM177.913 42.125V41.1945C177.913 40.7602 177.726 40.45 177.23 40.45C177.168 40.45 177.044 40.45 176.982 40.5121C176.672 40.6361 176.548 40.8843 176.548 41.1945V42.125C176.548 42.5593 176.796 42.8074 177.23 42.8074C177.664 42.8695 177.913 42.5593 177.913 42.125Z" fill="#8E9BA1"/>
<path d="M179.215 44.6686L180.58 38.7751H181.387L180.022 44.6686H179.215Z" fill="#8E9BA1"/>
<path d="M181.883 43.1797V42.6834H182.69V43.1177C182.69 43.8001 182.876 44.0482 183.496 44.0482C184.117 44.0482 184.303 43.676 184.303 43.0556V42.063C184.303 41.5667 184.055 41.2565 183.558 41.2565C183.124 41.2565 182.876 41.5047 182.752 41.8149L182.69 42.001L181.945 41.8149L182.256 38.8371H185.047V38.8991C185.047 39.5195 184.923 39.5815 184.241 39.5815H182.938C182.876 40.0778 182.814 40.8843 182.752 41.3186C182.938 40.9464 183.248 40.6362 183.868 40.6362C184.737 40.6362 185.109 41.1945 185.109 42.1251V43.2417C185.109 44.2964 184.551 44.8547 183.496 44.8547C182.442 44.7927 181.883 44.3584 181.883 43.1797Z" fill="#8E9BA1"/>
<path d="M187.404 44.6686H186.659V39.9538H187.28L187.342 40.6362C187.466 40.1399 187.838 39.8297 188.396 39.8297C188.955 39.8297 189.265 40.1399 189.389 40.6362C189.575 40.1399 189.885 39.8297 190.381 39.8297C191.126 39.8297 191.498 40.326 191.498 41.2566V44.6686H190.754V41.3806C190.754 40.8223 190.567 40.5121 190.133 40.5121C189.637 40.5121 189.451 40.8843 189.451 41.3806V44.6686H188.706V41.3186C188.706 40.8223 188.582 40.4501 188.086 40.4501C187.59 40.4501 187.404 40.8843 187.404 41.4427V44.6686Z" fill="#8E9BA1"/>
<path d="M192.491 44.6686V38.7751H193.236V43.9242H195.035V44.6686H192.491Z" fill="#8E9BA1"/>
</svg>
