<svg width="221" height="44" viewBox="0 0 221 44" fill="none" xmlns="http://www.w3.org/2000/svg">
<path d="M46.7884 42.4801C45.9294 40.1373 45.4608 37.9507 45.4608 35.1394C45.4608 32.4062 46.0075 29.9073 46.7884 27.7207H47.2569C46.3979 29.9854 46.0075 32.7186 46.0075 35.5299C46.0075 37.8726 46.476 40.5278 47.2569 42.4801H46.7884Z" fill="#808285"/>
<path d="M47.6474 27.955H48.2722V32.5624C48.5064 31.5472 49.1312 30.9225 49.834 30.9225C51.2397 30.9225 51.6301 32.172 51.6301 34.1243V39.4345H51.0054V34.2805C51.0054 32.8748 50.693 31.7815 49.7559 31.7815C48.8188 31.7815 48.1941 33.031 48.1941 34.5928V39.4345H47.5693V27.955H47.6474Z" fill="#808285"/>
<path fill-rule="evenodd" clip-rule="evenodd" d="M54.5977 30.8444C53.4263 30.8444 52.6454 31.7034 52.5673 33.6557V33.7338H53.1921C53.1921 32.3281 53.7387 31.7815 54.5196 31.7815C55.2224 31.7815 55.8472 32.1719 55.8472 33.4995C55.8472 34.3585 55.5348 34.5147 55.0663 34.5928C54.9879 34.6066 54.9095 34.6199 54.8314 34.6331C53.5866 34.8442 52.4111 35.0434 52.4111 37.2479C52.4111 38.8878 53.114 39.6687 54.0511 39.6687C54.9882 39.6687 55.4567 39.044 55.8472 37.9507C55.8472 38.8097 55.9253 39.3564 56.55 39.3564C56.7062 39.3564 56.7843 39.3564 56.9405 39.2783V38.4193C56.9405 38.4974 56.8624 38.4974 56.7843 38.4974C56.4719 38.4974 56.3938 38.2631 56.3938 37.8726V33.4995C56.3938 31.3129 55.4567 30.8444 54.5977 30.8444ZM55.691 35.0352C55.7252 34.998 55.7525 34.9551 55.7691 34.9052H55.691V35.0352ZM55.691 35.0352C55.5976 35.1371 55.4528 35.1973 55.3341 35.2466C55.2926 35.2638 55.2543 35.2797 55.2225 35.2956C55.049 35.349 54.8665 35.3932 54.683 35.4377C53.7924 35.6536 52.8797 35.8748 52.8797 37.1698C52.8797 38.185 53.4264 38.8098 53.973 38.8098C54.9101 38.8098 55.691 37.7946 55.691 36.2327V35.0352Z" fill="#808285"/>
<path d="M57.4089 27.955H58.0336V39.4345H57.4089V27.955Z" fill="#808285"/>
<path fill-rule="evenodd" clip-rule="evenodd" d="M61.0792 39.6687C62.563 39.6687 63.422 37.6383 63.422 35.2956C63.422 32.8747 62.641 30.9224 61.0792 30.9224C59.5955 30.9224 58.7365 32.9528 58.7365 35.2956C58.7365 37.6383 59.5174 39.6687 61.0792 39.6687ZM61.0792 38.8098C59.9079 38.8098 59.3612 37.0917 59.3612 35.2956C59.3612 33.4995 59.9079 31.7815 61.0792 31.7815C62.2506 31.7815 62.7973 33.4995 62.7973 35.2956C62.7973 37.0136 62.2506 38.8098 61.0792 38.8098Z" fill="#808285"/>
<path fill-rule="evenodd" clip-rule="evenodd" d="M64.8276 27.955H64.2029V39.4345H64.7495V37.8726C65.0619 38.9659 65.7647 39.6687 66.5456 39.6687C68.1075 39.6687 68.8103 37.6383 68.8103 35.2956C68.8103 32.9528 68.0294 30.9224 66.5456 30.9224C65.8428 30.9224 65.0619 31.5472 64.8276 32.7186V27.955ZM64.8277 35.2956C64.8277 33.5776 65.2181 31.7815 66.5457 31.7815C67.7171 31.7815 68.1856 33.5776 68.1856 35.2956C68.1856 37.0136 67.7171 38.8097 66.5457 38.8097C65.2962 38.8097 64.8277 37.0136 64.8277 35.2956Z" fill="#808285"/>
<path fill-rule="evenodd" clip-rule="evenodd" d="M69.8258 35.6079C69.842 37.0758 70.3144 38.8097 71.4653 38.8097C72.3244 38.8097 72.871 37.9507 73.0272 36.7012H73.6519C73.4176 38.5754 72.7148 39.6687 71.4653 39.6687C69.9035 39.6687 69.2007 37.6383 69.2007 35.2956C69.2007 33.109 69.9035 30.9224 71.4653 30.9224C73.0272 30.9224 73.73 33.2652 73.6519 35.6079H69.8258ZM71.5434 31.7034C72.4805 31.7034 73.1052 33.109 73.1052 34.6709H69.9035C69.9816 33.109 70.5282 31.7034 71.5434 31.7034Z" fill="#808285"/>
<path d="M75.2919 31.1568H76.307V32.0158H75.2919V37.5603C75.2919 38.1851 75.3699 38.5755 75.7604 38.6536C75.9166 38.6536 76.0728 38.6536 76.307 38.5755V39.4345C76.1509 39.4345 75.9166 39.4345 75.7604 39.4345C74.9795 39.4345 74.6671 38.966 74.6671 37.5603V31.9377H73.8081V31.0787H74.6671V28.5798H75.2919V31.1568Z" fill="#808285"/>
<path fill-rule="evenodd" clip-rule="evenodd" d="M78.9622 30.8444C77.7908 30.8444 77.0099 31.7034 76.9318 33.6557V33.7338H77.5566C77.5566 32.3281 78.1032 31.7815 78.8841 31.7815C79.5869 31.7815 80.2117 32.1719 80.2117 33.4995C80.2117 34.3585 79.8993 34.5147 79.4308 34.5928C79.3524 34.6066 79.274 34.6199 79.1959 34.6331C77.9511 34.8442 76.7756 35.0434 76.7756 37.2479C76.7756 38.8878 77.4785 39.6687 78.4156 39.6687C79.3527 39.6687 79.8212 39.044 80.2117 37.9507C80.2117 38.8097 80.2898 39.3564 80.9145 39.3564C81.0707 39.3564 81.1488 39.3564 81.305 39.2783V38.4193C81.305 38.4974 81.2269 38.4974 81.1488 38.4974C80.8364 38.4974 80.7583 38.2631 80.7583 37.8726V33.4995C80.7583 31.3129 79.8212 30.8444 78.9622 30.8444ZM80.0555 35.0352C80.0897 34.998 80.117 34.9551 80.1336 34.9052H80.0555V35.0352ZM80.0555 35.0352C79.9621 35.1371 79.8173 35.1973 79.6986 35.2466C79.6571 35.2638 79.6188 35.2797 79.587 35.2956C79.4135 35.349 79.231 35.3932 79.0475 35.4377C78.1569 35.6536 77.2442 35.8748 77.2442 37.1698C77.2442 38.185 77.7909 38.8098 78.3375 38.8098C79.2746 38.8098 80.0555 37.7946 80.0555 36.2327V35.0352Z" fill="#808285"/>
<path d="M84.7411 33.5777C84.7411 32.3282 84.1164 31.7816 83.4136 31.7816C82.8669 31.7816 82.2422 32.172 82.2422 33.1872C82.2422 34.0462 82.8669 34.4367 83.2574 34.5929L84.0383 34.9052C84.7411 35.0614 85.444 35.7642 85.444 37.1699C85.444 38.966 84.3507 39.6688 83.4136 39.6688C82.2422 39.6688 81.4613 38.8098 81.3832 36.7794H82.0079C82.086 38.107 82.6326 38.8098 83.4917 38.8098C84.0383 38.8098 84.8192 38.4194 84.8192 37.248C84.8192 36.3109 84.2726 35.9985 83.7259 35.7642L82.945 35.4519C82.1641 35.0614 81.5394 34.671 81.5394 33.2653C81.5394 31.5473 82.5546 30.9225 83.4136 30.9225C84.4288 30.9225 85.2097 31.7816 85.2097 33.5777H84.7411Z" fill="#808285"/>
<path fill-rule="evenodd" clip-rule="evenodd" d="M88.3332 39.6687C89.817 39.6687 90.676 37.6383 90.676 35.2956C90.676 32.8747 89.817 30.9224 88.3332 30.9224C86.8495 30.9224 85.9905 32.9528 85.9905 35.2956C85.9905 37.6383 86.8495 39.6687 88.3332 39.6687ZM88.3333 38.8098C87.1619 38.8098 86.6153 37.0917 86.6153 35.2956C86.6153 33.4995 87.1619 31.7815 88.3333 31.7815C89.5046 31.7815 90.0513 33.4995 90.0513 35.2956C90.0513 37.0136 89.5046 38.8098 88.3333 38.8098Z" fill="#808285"/>
<path d="M91.3789 27.955H92.0036V39.4345H91.3789V27.955Z" fill="#808285"/>
<path fill-rule="evenodd" clip-rule="evenodd" d="M95.9861 31.1567H95.4395V42.48H96.0642V37.8726C96.2985 39.044 97.0013 39.6687 97.7822 39.6687C99.344 39.6687 100.047 37.6383 100.047 35.2956C100.047 32.9528 99.266 30.9224 97.7822 30.9224C96.9232 30.9224 96.2985 31.6253 95.9861 32.7185V31.1567ZM96.0642 35.2956C96.0642 33.4214 96.4547 31.7815 97.7822 31.7815C98.9536 31.7815 99.4222 33.5776 99.4222 35.2956C99.4222 37.0136 98.9536 38.8098 97.7822 38.8098C96.5328 38.8098 96.0642 37.0136 96.0642 35.2956Z" fill="#808285"/>
<path d="M100.828 31.1567H101.375V33.109C101.687 31.7815 102.39 31.0006 103.249 31.0787V32.0939C102.156 32.0158 101.375 33.3433 101.375 35.0613V39.4345H100.75V31.1567H100.828Z" fill="#808285"/>
<path fill-rule="evenodd" clip-rule="evenodd" d="M105.592 39.6687C107.075 39.6687 107.934 37.6383 107.934 35.2956C107.934 32.8747 107.075 30.9224 105.592 30.9224C104.108 30.9224 103.249 32.9528 103.249 35.2956C103.249 37.6383 104.108 39.6687 105.592 39.6687ZM105.513 38.8098C104.342 38.8098 103.795 37.0917 103.795 35.2956C103.795 33.4995 104.342 31.7815 105.513 31.7815C106.685 31.7815 107.231 33.4995 107.231 35.2956C107.231 37.0136 106.685 38.8098 105.513 38.8098Z" fill="#808285"/>
<path fill-rule="evenodd" clip-rule="evenodd" d="M109.184 31.1567H108.637V42.48H109.262V37.8726C109.496 39.044 110.199 39.6687 110.98 39.6687C112.542 39.6687 113.245 37.6383 113.245 35.2956C113.245 32.9528 112.464 30.9224 110.98 30.9224C110.121 30.9224 109.496 31.6253 109.184 32.7185V31.1567ZM109.262 35.2956C109.262 33.4214 109.652 31.7815 110.98 31.7815C112.151 31.7815 112.62 33.5776 112.62 35.2956C112.62 37.0136 112.151 38.8098 110.98 38.8098C109.73 38.8098 109.262 37.0136 109.262 35.2956Z" fill="#808285"/>
<path fill-rule="evenodd" clip-rule="evenodd" d="M114.572 27.955H113.947V29.5949H114.572V27.955ZM114.572 31.1568H113.947V39.4345H114.572V31.1568Z" fill="#808285"/>
<path fill-rule="evenodd" clip-rule="evenodd" d="M117.696 39.6687C119.18 39.6687 120.039 37.6383 120.039 35.2956C120.039 32.8747 119.18 30.9224 117.696 30.9224C116.212 30.9224 115.353 32.9528 115.353 35.2956C115.353 37.6383 116.134 39.6687 117.696 39.6687ZM117.618 38.8098C116.446 38.8098 115.9 37.0917 115.9 35.2956C115.9 33.4995 116.524 31.7815 117.618 31.7815C118.789 31.7815 119.336 33.4995 119.336 35.2956C119.336 37.0136 118.789 38.8098 117.618 38.8098Z" fill="#808285"/>
<path d="M120.741 31.1568H121.366V32.5625C121.6 31.5473 122.225 30.9225 122.928 30.9225C124.334 30.9225 124.724 32.172 124.724 34.1243V39.4346H124.099V34.2805C124.099 32.8748 123.787 31.7816 122.85 31.7816C121.913 31.7816 121.288 33.031 121.288 34.5929V39.4346H120.663V31.1568H120.741Z" fill="#808285"/>
<path fill-rule="evenodd" clip-rule="evenodd" d="M127.691 30.8444C126.52 30.8444 125.739 31.7034 125.661 33.6557V33.7338H126.286C126.286 32.3281 126.832 31.7815 127.613 31.7815C128.316 31.7815 128.941 32.1719 128.941 33.4995C128.941 34.3585 128.629 34.5147 128.16 34.5928C128.082 34.6066 128.003 34.6199 127.925 34.6331C126.68 34.8442 125.505 35.0434 125.505 37.2479C125.505 38.8878 126.208 39.6687 127.145 39.6687C128.082 39.6687 128.55 39.044 128.941 37.9507C128.941 38.8097 129.019 39.3564 129.644 39.3564C129.8 39.3564 129.878 39.3564 130.034 39.2783V38.4193C130.034 38.4974 129.956 38.4974 129.878 38.4974C129.566 38.4974 129.488 38.2631 129.488 37.8726V33.4995C129.488 31.3129 128.55 30.8444 127.691 30.8444ZM128.785 35.0352C128.819 34.998 128.846 34.9551 128.863 34.9052H128.785V35.0352ZM128.785 35.0352C128.691 35.1371 128.547 35.1973 128.428 35.2466C128.386 35.2638 128.348 35.2797 128.316 35.2956C128.143 35.349 127.96 35.3932 127.777 35.4377C126.886 35.6536 125.973 35.8748 125.973 37.1698C125.973 38.185 126.52 38.8098 127.067 38.8098C128.004 38.8098 128.785 37.7946 128.785 36.2327V35.0352Z" fill="#808285"/>
<path d="M131.518 31.1568H132.533V32.0158H131.518V37.5603C131.518 38.1851 131.596 38.5755 131.987 38.6536C132.143 38.6536 132.299 38.6536 132.533 38.5755V39.4345C132.377 39.4345 132.143 39.4345 131.987 39.4345C131.206 39.4345 130.893 38.966 130.893 37.5603V31.9377H130.034V31.0787H130.893V28.5798H131.518V31.1568Z" fill="#808285"/>
<path fill-rule="evenodd" clip-rule="evenodd" d="M133.549 35.6079C133.565 37.0758 134.037 38.8097 135.188 38.8097C136.047 38.8097 136.594 37.9507 136.75 36.7012H137.375C137.141 38.5754 136.438 39.6687 135.188 39.6687C133.627 39.6687 132.924 37.6383 132.924 35.2956C132.924 33.109 133.627 30.9224 135.188 30.9224C136.75 30.9224 137.453 33.2652 137.375 35.6079H133.549ZM135.188 31.7034C136.126 31.7034 136.75 33.109 136.75 34.6709H133.548C133.627 33.109 134.173 31.7034 135.188 31.7034Z" fill="#808285"/>
<path d="M139.171 37.7165V39.4345C139.171 40.3716 138.937 41.3087 138.312 41.6211V40.9183C138.625 40.7621 138.781 39.9031 138.781 39.4345H138.39V37.7165H139.171V37.7165Z" fill="#808285"/>
<path fill-rule="evenodd" clip-rule="evenodd" d="M145.106 39.6687C147.058 39.6687 147.449 36.5451 147.449 33.8899C147.449 31.2348 147.058 28.1111 145.106 28.1111C143.154 28.1111 142.763 31.2348 142.763 33.8899C142.763 36.5451 143.154 39.6687 145.106 39.6687ZM145.028 38.8098C143.544 38.8098 143.31 35.8423 143.31 33.89C143.31 31.9377 143.544 28.9702 145.028 28.9702C146.512 28.9702 146.746 31.9377 146.746 33.89C146.746 35.8423 146.59 38.8098 145.028 38.8098Z" fill="#808285"/>
<path d="M148.464 39.4345V37.7165H149.245V39.4345H148.464Z" fill="#808285"/>
<path fill-rule="evenodd" clip-rule="evenodd" d="M152.759 39.6687C154.711 39.6687 155.102 36.5451 155.102 33.8899C155.102 31.2348 154.711 28.1111 152.759 28.1111C150.807 28.1111 150.416 31.2348 150.416 33.8899C150.416 36.5451 150.807 39.6687 152.759 39.6687ZM152.681 38.8098C151.197 38.8098 150.963 35.8423 150.963 33.89C150.963 31.9377 151.197 28.9702 152.681 28.9702C154.165 28.9702 154.399 31.9377 154.399 33.89C154.399 35.8423 154.243 38.8098 152.681 38.8098Z" fill="#808285"/>
<path d="M156.117 36.2327C156.117 37.7946 156.82 38.8098 157.757 38.8098C158.772 38.8098 159.475 37.4041 159.475 35.7642C159.475 34.1243 158.772 32.8748 157.757 32.8748C157.132 32.8748 156.586 33.3433 156.273 34.2023H155.727L156.351 28.3455H159.709V29.2826H156.742L156.273 33.031C156.586 32.4062 157.21 32.0158 157.679 32.0158C159.085 32.0158 159.944 33.6557 159.944 35.9204C159.944 38.1069 158.928 39.7469 157.601 39.7469C156.351 39.7469 155.414 38.4193 155.414 36.3108H156.117V36.2327Z" fill="#808285"/>
<path fill-rule="evenodd" clip-rule="evenodd" d="M167.05 27.7988H166.581L162.208 39.9811H162.677L167.05 27.7988ZM164.082 31.1567C164.082 32.8748 163.614 34.2023 162.52 34.2023C161.427 34.2023 160.959 32.8748 160.959 31.1567C160.959 29.4387 161.427 28.1112 162.52 28.1112C163.614 28.1112 164.082 29.4387 164.082 31.1567ZM161.505 31.1567C161.505 32.1719 161.74 33.4214 162.52 33.4214C163.301 33.4214 163.536 32.1719 163.536 31.1567C163.536 30.1415 163.301 28.814 162.52 28.814C161.74 28.814 161.505 30.1415 161.505 31.1567ZM168.299 36.6231C168.299 38.3412 167.831 39.6687 166.737 39.6687C165.644 39.6687 165.176 38.3412 165.176 36.6231C165.176 34.9051 165.644 33.5776 166.737 33.5776C167.831 33.5776 168.299 34.9051 168.299 36.6231ZM166.816 38.8879C166.035 38.8879 165.8 37.6384 165.8 36.6232C165.8 35.608 166.035 34.2804 166.816 34.2804C167.596 34.2804 167.831 35.608 167.831 36.6232C167.831 37.6384 167.596 38.8879 166.816 38.8879Z" fill="#808285"/>
<path d="M169.236 27.7207C170.096 30.0635 170.564 32.25 170.564 35.0613C170.564 37.7946 170.017 40.2935 169.236 42.4801H168.768C169.627 40.2154 170.017 37.4822 170.017 34.6709C170.017 32.3281 169.549 29.673 168.768 27.7207H169.236Z" fill="#808285"/>
<path d="M2.82261 1.09143H5.08728V15.0699C5.08728 18.3497 6.57102 19.9897 9.46042 20.0678C12.3498 20.1458 13.8336 18.4278 13.8336 15.0699V1.09143H18.441V15.6165C18.441 21.161 15.1611 24.0504 9.46042 24.0504C3.68163 24.0504 0.479858 21.3172 0.479858 15.6165V3.51228C0.479858 2.26281 1.57314 1.09143 2.82261 1.09143Z" fill="#8A1E41"/>
<path d="M25.0007 3.19988V23.6599H20.5494V1.01331H22.8141C23.9855 1.0914 25.0007 2.0285 25.0007 3.19988Z" fill="#8A1E41"/>
<path d="M32.3414 9.21299H31.8728V18.9745C31.8728 19.6773 32.3414 20.0678 33.2004 20.0678H34.5279V23.4257C33.1223 23.5819 31.5604 23.5819 29.8424 23.4257C28.1244 23.2695 27.3435 22.2543 27.4216 20.302V1.09143H29.6862C30.8576 1.09143 31.7947 2.18472 31.7947 3.35609V6.1674H34.4498V7.1045C34.5279 8.27588 33.5908 9.21299 32.3414 9.21299Z" fill="#8A1E41"/>
<path d="M36.4022 14.6013C36.5584 8.9006 39.5259 6.08929 45.4609 6.08929H46.0856V10.6967H44.6019C42.1029 10.6967 40.9316 12.0243 40.9316 14.5232V23.66H36.4803V14.6013H36.4022Z" fill="#8A1E41"/>
<path fill-rule="evenodd" clip-rule="evenodd" d="M48.2721 10.6967H52.7233C52.9576 9.83773 53.8166 9.44727 55.3785 9.44727C57.2527 9.44727 58.1898 9.91582 58.2679 10.931C58.2679 11.9462 57.2527 12.4929 55.3785 12.7271C50.8491 13.1176 47.8036 14.289 47.7255 18.5059C47.7255 22.4105 50.693 24.3628 54.9099 24.0504C59.6735 23.7381 62.5629 21.5515 62.5629 16.7098V10.6967C62.4848 7.41688 59.9859 5.85504 55.1442 5.85504C51.0834 5.85504 48.8188 7.41688 48.2721 10.6967ZM58.2678 14.8357V16.4756C58.2678 18.9745 56.7841 20.3802 54.3633 20.4583C52.9576 20.4583 52.1767 19.8335 52.0986 18.4279C52.0986 17.1003 52.9576 16.2413 54.7537 15.9289C56.0032 15.6166 57.2527 15.3042 58.2678 14.8357Z" fill="#8A1E41"/>
<path d="M80.8364 6.08929L74.589 23.66H69.9035L63.7343 6.08929H68.654L72.2463 18.4278L75.2919 7.65113C75.6042 6.63594 76.3851 6.08929 77.4784 6.08929H80.8364Z" fill="#8A1E41"/>
<path fill-rule="evenodd" clip-rule="evenodd" d="M81.9297 10.6967H86.3809C86.6152 9.83773 87.4742 9.44727 89.0361 9.44727C90.9103 9.44727 91.8474 9.91582 91.9255 10.931C91.9255 11.9462 90.9103 12.4929 89.0361 12.7271C84.5067 13.1176 81.4611 14.289 81.3831 18.5059C81.3831 22.4105 84.3505 24.3628 88.5675 24.0504C93.3311 23.7381 96.2205 21.5515 96.2205 16.7098V10.6967C96.1424 7.41688 93.6435 5.85504 88.8018 5.85504C84.741 5.85504 82.4763 7.41688 81.9297 10.6967ZM91.9254 14.8357V16.4756C91.9254 18.9745 90.4417 20.3802 88.0208 20.4583C86.6152 20.4583 85.8343 19.8335 85.7562 18.4279C85.7562 17.1003 86.6152 16.2413 88.4113 15.9289C89.6608 15.6166 90.9102 15.3042 91.9254 14.8357Z" fill="#8A1E41"/>
<path d="M103.952 9.21299H103.483V18.9745C103.483 19.6773 103.952 20.0678 104.811 20.0678H106.138V23.4257C104.733 23.5819 103.171 23.5819 101.453 23.4257C99.7346 23.2695 98.9537 22.2543 99.0318 20.302V1.09143H101.296C102.468 1.09143 103.405 2.18472 103.405 3.35609V6.1674H106.06V7.1045C106.138 8.27588 105.123 9.21299 103.952 9.21299Z" fill="#8A1E41"/>
<path fill-rule="evenodd" clip-rule="evenodd" d="M107.856 14.8356C107.856 20.7706 110.511 23.8943 115.822 24.0504C120.117 24.0504 122.537 22.0201 123.553 18.3497H120.273C119.648 18.3497 119.18 18.5059 118.789 18.9745C117.93 19.7554 116.915 20.2239 115.9 20.2239C113.713 20.2239 112.542 18.8183 112.386 16.1632H123.787C124.099 9.29108 121.522 5.85504 115.9 5.85504C110.511 5.85504 107.856 8.90062 107.856 14.8356ZM119.101 12.9614H112.464C112.776 10.6187 113.869 9.44727 115.822 9.44727C117.774 9.44727 118.867 10.6187 119.101 12.9614Z" fill="#8A1E41"/>
<path fill-rule="evenodd" clip-rule="evenodd" d="M124.646 6.63594C124.646 8.74442 126.208 9.9158 128.004 9.9158C129.722 9.9158 131.362 8.74442 131.362 6.63594C131.362 4.52746 129.8 3.35608 128.004 3.35608C126.208 3.35608 124.646 4.60555 124.646 6.63594ZM125.661 6.71408C125.661 5.23033 126.676 4.21514 128.004 4.21514C129.253 4.21514 130.347 5.23033 130.347 6.71408C130.347 8.19783 129.253 9.21302 128.004 9.21302C126.676 9.21302 125.661 8.19783 125.661 6.71408ZM127.379 8.43207H126.676V4.91794H128.004C128.941 4.91794 129.488 5.15222 129.488 6.01123C129.488 6.63596 129.097 6.87024 128.629 6.94833L129.566 8.51017H128.629L127.77 7.02642H127.379V8.43207ZM128.629 5.9331C128.629 6.32356 128.394 6.40165 128.082 6.40165H127.379V5.54264H127.926C128.238 5.54264 128.629 5.54264 128.629 5.9331Z" fill="#A31D4A"/>
<path d="M137.922 24.0504H152.603V20.5363H141.904V1.63806H139.952C139.405 1.63806 138.937 1.79425 138.546 2.2628C138.156 2.65326 137.922 3.12181 137.922 3.66845V24.0504Z" fill="#00A7E1"/>
<path fill-rule="evenodd" clip-rule="evenodd" d="M153.54 11.7119C153.852 10.5405 154.321 9.60341 155.024 8.82249C156.117 7.57302 157.523 6.7921 159.319 6.40164C159.865 6.32355 160.412 6.32355 160.959 6.32355C162.13 6.32355 163.223 6.55782 164.16 6.87019C165.8 7.57302 166.972 8.6663 167.753 10.2281C168.455 11.6338 168.846 13.3518 168.846 15.226C168.846 16.6317 168.69 17.8031 168.377 18.8182C168.065 19.8334 167.674 20.6144 167.206 21.3172C166.191 22.7228 164.863 23.6599 163.301 23.9723C161.896 24.3628 160.412 24.3628 159.006 24.0504C157.601 23.738 156.429 23.1914 155.57 22.4105C154.711 21.7076 154.086 20.6925 153.696 19.3649C153.306 18.0373 153.071 16.6317 153.071 15.226C153.071 14.0546 153.227 12.8833 153.54 11.7119ZM164.16 11.5557C163.536 10.6967 162.911 10.0719 162.13 9.83767C161.349 9.6034 160.568 9.52531 159.943 9.75958C159.24 9.99386 158.694 10.2281 158.303 10.6186C157.288 11.7119 156.82 13.4299 156.898 15.5384C157.054 17.725 157.444 19.2087 158.147 20.0677C158.46 20.4582 158.928 20.7705 159.709 21.0829C160.1 21.2391 160.568 21.3172 160.959 21.3172C161.271 21.3172 161.661 21.2391 161.974 21.161C162.833 21.0048 163.457 20.3801 164.082 19.5211C164.629 18.6621 164.941 17.2564 165.019 15.3822C165.019 13.7423 164.707 12.4147 164.16 11.5557Z" fill="#00A7E1"/>
<path d="M177.514 21.3172H176.499C175.015 21.3172 174.781 20.3801 174.781 19.7554V9.36918H175.64C176.187 9.36918 176.577 9.213 176.967 8.82254C177.358 8.43208 177.514 8.04162 177.514 7.41689V6.87024H174.781V3.4342C174.781 2.88756 174.625 2.4971 174.234 2.10664C173.844 1.71618 173.453 1.56 172.985 1.56H170.954V21.0049C170.954 22.8791 171.657 23.8162 173.219 23.8943C174.781 24.0505 176.265 24.0505 177.592 23.9724V21.3172H177.514Z" fill="#00A7E1"/>
<path d="M180.794 6.87018V24.0504H184.699V8.82248C184.699 8.27583 184.542 7.88537 184.152 7.49491C183.762 7.10445 183.371 6.94827 182.824 6.94827H180.794V6.87018Z" fill="#00A7E1"/>
<path d="M184.777 4.5274V3.51221C184.777 2.96556 184.621 2.5751 184.23 2.18464C183.84 1.79418 183.449 1.638 182.903 1.638H180.872V4.5274H184.777Z" fill="#00A7E1"/>
<path fill-rule="evenodd" clip-rule="evenodd" d="M187.588 11.7119C187.9 10.5405 188.369 9.60341 189.072 8.82249C190.165 7.57302 191.571 6.7921 193.367 6.40164C193.913 6.32355 194.46 6.32355 195.007 6.32355C196.178 6.32355 197.271 6.55782 198.208 6.87019C199.848 7.57302 201.02 8.6663 201.801 10.2281C202.503 11.6338 202.894 13.3518 202.894 15.226C202.894 16.6317 202.738 17.8031 202.425 18.8182C202.113 19.8334 201.723 20.6144 201.254 21.3172C200.239 22.7228 198.911 23.6599 197.349 23.9723C195.944 24.3628 194.46 24.3628 193.054 24.0504C191.649 23.738 190.477 23.1914 189.618 22.4105C188.759 21.7076 188.135 20.6925 187.744 19.3649C187.354 18.0373 187.119 16.6317 187.119 15.226C187.119 14.0546 187.276 12.8833 187.588 11.7119ZM198.13 11.5557C197.584 10.6967 196.959 10.0719 196.178 9.83767C195.397 9.6034 194.616 9.52531 193.913 9.75958C193.211 9.99386 192.664 10.2281 192.273 10.6186C191.258 11.7119 190.79 13.4299 190.868 15.5384C191.024 17.725 191.414 19.2087 192.117 20.0677C192.43 20.4582 192.898 20.7705 193.679 21.0829C194.07 21.2391 194.538 21.3172 194.929 21.3172C195.241 21.3172 195.631 21.2391 195.944 21.161C196.803 21.0048 197.428 20.3801 198.052 19.5211C198.599 18.6621 198.911 17.2564 198.989 15.3822C198.989 13.7423 198.677 12.4147 198.13 11.5557Z" fill="#00A7E1"/>
<path d="M217.575 23.5038C217.966 23.8943 218.356 24.0505 218.981 24.0505H220.933V13.8985C220.933 10.931 220.152 8.90065 218.59 7.96354C217.029 6.94835 215.232 6.4798 213.358 6.4798C211.484 6.55789 209.844 7.10453 208.282 8.11973C206.799 9.05683 206.096 11.0091 206.096 13.8985V24.0505H210V12.9614C210 11.79 210.391 10.8529 211.094 10.3063C211.796 9.75966 212.577 9.44729 213.514 9.44729C214.373 9.44729 215.232 9.75966 215.935 10.3063C216.716 10.8529 217.107 11.79 217.107 12.9614V22.0982C217.029 22.7229 217.185 23.1134 217.575 23.5038Z" fill="#00A7E1"/>
</svg>
