<svg id="Layer_1" data-name="Layer 1" xmlns="http://www.w3.org/2000/svg" viewBox="0 0 180 98.34" width="182" height="99"><path d="M181.32,86.46a.92.92,0,0,0-.86-.37H7a.93.93,0,0,0-.86.37,16.21,16.21,0,0,0-2.42,8.59,17.32,17.32,0,0,0,2.42,8.8c.19.3.52.65.87.65H180.45c.36,0,.69-.37.87-.68a16.79,16.79,0,0,0,2.43-8.67A16.57,16.57,0,0,0,181.32,86.46Zm-2.54,16.13c-.16.26-.42.6-.72.6H9.43c-.29,0-.56-.34-.71-.6a15.8,15.8,0,0,1-2-7.67,14.46,14.46,0,0,1,2-7.35c.16-.25.42-.17.71-.17H178.07c.29,0,.56-.13.71.13a15.14,15.14,0,0,1,2,7.53A15.37,15.37,0,0,1,178.78,102.59Z" transform="translate(-3.75 -6.17)" style="fill:#3fae2a"/><path d="M128.41,94.06h-1.33v-.89h3.62v.89h-1.33v3.48h-1Z" transform="translate(-3.75 -6.17)" style="fill:#0082ca"/><path d="M131.44,93.17h3.29V94h-2.34v.89h2.06v.86h-2.06v.92h2.38v.85h-3.33Z" transform="translate(-3.75 -6.17)" style="fill:#0082ca"/><path d="M135.43,95.37v0a2.35,2.35,0,0,1,4-1.58l-.61.7A1.64,1.64,0,0,0,137.7,94a1.29,1.29,0,0,0-1.27,1.36h0a1.3,1.3,0,0,0,1.27,1.38,1.58,1.58,0,0,0,1.15-.51l.61.62a2.24,2.24,0,0,1-1.79.78A2.21,2.21,0,0,1,135.43,95.37Z" transform="translate(-3.75 -6.17)" style="fill:#0082ca"/><path d="M140.23,93.17h1V94.9H143V93.17h1v4.37h-1V95.79h-1.78v1.75h-1Z" transform="translate(-3.75 -6.17)" style="fill:#0082ca"/><path d="M145,93.17h.89l2,2.69V93.17h1v4.37h-.81l-2.12-2.78v2.78h-1Z" transform="translate(-3.75 -6.17)" style="fill:#0082ca"/><path d="M149.72,95.37v0a2.33,2.33,0,0,1,4.65,0h0a2.33,2.33,0,0,1-4.65,0Zm3.64,0v0A1.33,1.33,0,0,0,152,94a1.3,1.3,0,0,0-1.31,1.36h0a1.33,1.33,0,0,0,1.32,1.38A1.31,1.31,0,0,0,153.36,95.37Z" transform="translate(-3.75 -6.17)" style="fill:#0082ca"/><path d="M155.22,93.17h1v3.5h2.18v.87h-3.14Z" transform="translate(-3.75 -6.17)" style="fill:#0082ca"/><path d="M158.65,95.37v0a2.32,2.32,0,0,1,4.64,0h0A2.26,2.26,0,0,1,161,97.62,2.24,2.24,0,0,1,158.65,95.37Zm3.64,0v0A1.33,1.33,0,0,0,161,94a1.31,1.31,0,0,0-1.31,1.36h0A1.33,1.33,0,0,0,161,96.73,1.31,1.31,0,0,0,162.29,95.37Z" transform="translate(-3.75 -6.17)" style="fill:#0082ca"/><path d="M164,95.37v0a2.25,2.25,0,0,1,2.3-2.26,2.41,2.41,0,0,1,1.71.6l-.6.73a1.62,1.62,0,0,0-1.14-.44A1.32,1.32,0,0,0,165,95.34h0a1.31,1.31,0,0,0,1.32,1.39,1.57,1.57,0,0,0,.91-.26v-.63h-1V95h1.9v1.9a2.85,2.85,0,0,1-1.87.7A2.19,2.19,0,0,1,164,95.37Z" transform="translate(-3.75 -6.17)" style="fill:#0082ca"/><path d="M170.09,95.82l-1.68-2.65h1.12l1.05,1.75,1.06-1.75h1.09l-1.68,2.63v1.74h-1Z" transform="translate(-3.75 -6.17)" style="fill:#0082ca"/><path d="M14.76,93.35h3.12V94H15.5v1.14h2.11v.68H15.5v1.7h-.74Z" transform="translate(-3.75 -6.17)" style="fill:#0082ca"/><path d="M18.4,96h0a1.65,1.65,0,0,1,1.69-1.65A1.63,1.63,0,0,1,21.77,96h0a1.65,1.65,0,0,1-1.69,1.64A1.64,1.64,0,0,1,18.4,96Zm2.65,0h0a1,1,0,0,0-1-1,1,1,0,0,0-.95,1h0a1,1,0,0,0,1,1A1,1,0,0,0,21.05,96Z" transform="translate(-3.75 -6.17)" style="fill:#0082ca"/><path d="M22.56,94.38h.73v.71a1.14,1.14,0,0,1,1.12-.77v.77h0c-.63,0-1.08.41-1.08,1.25v1.2h-.73Z" transform="translate(-3.75 -6.17)" style="fill:#0082ca"/><path d="M25.1,94.38h.73v.48a1.11,1.11,0,0,1,1-.54,1,1,0,0,1,.95.55,1.27,1.27,0,0,1,1.06-.55,1.06,1.06,0,0,1,1.11,1.2v2h-.73V95.75c0-.51-.23-.78-.64-.78s-.67.28-.67.79v1.78h-.73v-1.8c0-.49-.24-.77-.64-.77s-.67.3-.67.79v1.78H25.1Z" transform="translate(-3.75 -6.17)" style="fill:#0082ca"/><path d="M30.81,96.39v-2h.72v1.8c0,.49.25.76.68.76a.69.69,0,0,0,.71-.78V94.38h.73v3.16h-.73v-.49a1.14,1.14,0,0,1-1,.56A1.08,1.08,0,0,1,30.81,96.39Z" transform="translate(-3.75 -6.17)" style="fill:#0082ca"/><path d="M34.65,93.17h.73v4.37h-.73Z" transform="translate(-3.75 -6.17)" style="fill:#0082ca"/><path d="M36.17,96.63h0c0-.68.54-1,1.31-1a2.81,2.81,0,0,1,.85.13v-.07c0-.45-.27-.69-.78-.69a2.38,2.38,0,0,0-.91.19l-.19-.56a2.65,2.65,0,0,1,1.19-.26,1.4,1.4,0,0,1,1,.35,1.33,1.33,0,0,1,.34,1v1.87h-.7v-.39a1.32,1.32,0,0,1-1,.46A1,1,0,0,1,36.17,96.63Zm2.17-.23v-.21a2,2,0,0,0-.71-.13c-.47,0-.75.2-.75.53h0c0,.31.27.48.62.48S38.34,96.8,38.34,96.4Z" transform="translate(-3.75 -6.17)" style="fill:#0082ca"/><path d="M40.08,96.67V95h-.4v-.62h.4v-.87h.72v.87h.85V95H40.8v1.55a.35.35,0,0,0,.39.4,1,1,0,0,0,.45-.11v.59a1.16,1.16,0,0,1-.65.16A.81.81,0,0,1,40.08,96.67Z" transform="translate(-3.75 -6.17)" style="fill:#0082ca"/><path d="M42.19,96h0a1.56,1.56,0,0,1,1.54-1.64A1.53,1.53,0,0,1,45.25,96a1.49,1.49,0,0,1,0,.21H42.91a.89.89,0,0,0,.91.8,1.13,1.13,0,0,0,.86-.38l.42.38a1.59,1.59,0,0,1-1.29.59A1.57,1.57,0,0,1,42.19,96Zm2.34-.23a.82.82,0,0,0-.8-.83.85.85,0,0,0-.82.83Z" transform="translate(-3.75 -6.17)" style="fill:#0082ca"/><path d="M45.88,96h0a1.5,1.5,0,0,1,1.46-1.64,1.3,1.3,0,0,1,1.08.55v-1.7h.72v4.37h-.72V97a1.26,1.26,0,0,1-1.08.6A1.52,1.52,0,0,1,45.88,96Zm2.55,0h0a1,1,0,0,0-.91-1,.93.93,0,0,0-.91,1h0a.94.94,0,0,0,.91,1A1,1,0,0,0,48.43,96Z" transform="translate(-3.75 -6.17)" style="fill:#0082ca"/><path d="M51.7,94.38h.75l.63,2.17.7-2.18h.63l.7,2.18.64-2.17h.73l-1,3.19H54.8l-.71-2.17-.71,2.17h-.65Z" transform="translate(-3.75 -6.17)" style="fill:#0082ca"/><path d="M57.2,93.21H58v.69H57.2Zm0,1.17H58v3.16h-.73Z" transform="translate(-3.75 -6.17)" style="fill:#0082ca"/><path d="M59.11,96.67V95h-.4v-.62h.4v-.87h.72v.87h.85V95h-.85v1.55a.35.35,0,0,0,.39.4,1,1,0,0,0,.45-.11v.59a1.18,1.18,0,0,1-.65.16A.8.8,0,0,1,59.11,96.67Z" transform="translate(-3.75 -6.17)" style="fill:#0082ca"/><path d="M61.47,93.17h.73v1.7a1.13,1.13,0,0,1,1-.55,1.07,1.07,0,0,1,1.12,1.2v2h-.72V95.75c0-.5-.25-.78-.68-.78a.71.71,0,0,0-.71.79v1.78h-.73Z" transform="translate(-3.75 -6.17)" style="fill:#0082ca"/><path d="M69.39,91.89h1.5v5.45h3.39V98.7H69.39Z" transform="translate(-3.75 -6.17)" style="fill:#0082ca"/><path d="M75.48,91.89H77V98.7h-1.5Z" transform="translate(-3.75 -6.17)" style="fill:#0082ca"/><path d="M78.68,91.89h2.78a2.34,2.34,0,0,1,2.61,2.36h0c0,1.58-1.23,2.4-2.75,2.4H80.18v2h-1.5Zm2.68,3.43a1.05,1.05,0,0,0,1.19-1v0c0-.67-.47-1-1.22-1H80.18v2.08Z" transform="translate(-3.75 -6.17)" style="fill:#0082ca"/><path d="M85.24,91.89h1.5V98.7h-1.5Z" transform="translate(-3.75 -6.17)" style="fill:#0082ca"/><path d="M94.34,91.89l-2.27,3.33,2.37,3.48H92.69l-1.52-2.34L89.63,98.7h-1.7l2.37-3.46L88,91.89h1.75l1.41,2.21,1.45-2.21Z" transform="translate(-3.75 -6.17)" style="fill:#0082ca"/><path d="M95.56,91.89h5.13v1.33H97.05V94.6h3.21v1.34H97.05v1.43h3.69V98.7H95.56Z" transform="translate(-3.75 -6.17)" style="fill:#0082ca"/><path d="M102.08,91.89h1.49v5.45H107V98.7h-4.89Z" transform="translate(-3.75 -6.17)" style="fill:#0082ca"/><path d="M108.1,91.89h1.49v5.45H113V98.7H108.1Z" transform="translate(-3.75 -6.17)" style="fill:#0082ca"/><path d="M114.12,91.89h5.13v1.33H115.6V94.6h3.21v1.34H115.6v1.43h3.7V98.7h-5.18Z" transform="translate(-3.75 -6.17)" style="fill:#0082ca"/><path d="M120.61,92.24h-.52V92h1.33v.27h-.52v1.37h-.29Z" transform="translate(-3.75 -6.17)" style="fill:#0082ca"/><path d="M121.75,92h.3l.5.78.5-.78h.3v1.64h-.29V92.44l-.51.77h0l-.51-.77v1.17h-.28Z" transform="translate(-3.75 -6.17)" style="fill:#0082ca"/><path d="M9.73,53.1a65.09,65.09,0,0,0-1.1,11.69,57.84,57.84,0,0,0,1.08,11.7h-1a48.65,48.65,0,0,1-1.32-11.7A46.35,46.35,0,0,1,8.73,53.1Z" transform="translate(-3.75 -6.17)" style="fill:#67675d"/><path d="M10.59,53.43h1.25V73.49H10.59Z" transform="translate(-3.75 -6.17)" style="fill:#67675d"/><path d="M15.62,60.85c0-.92-.22-1.28-.72-1.28-.7,0-.8.58-.8,1.47v1.42H12.86V60.68a2.22,2.22,0,0,1,2.08-2.5c1.2,0,1.92.69,1.92,2.64V73.49H15.7v-.81h0a1.56,1.56,0,0,1-1.44,1c-1,0-1.48-1-1.48-2.5V67c0-1.89.92-2.92,2.88-2.92Zm0,4.66A1.56,1.56,0,0,0,14,67.15V70.6c0,1.08.12,1.66.78,1.66s.86-.55.86-1.55Z" transform="translate(-3.75 -6.17)" style="fill:#67675d"/><path d="M18.13,56.32l1.24-.67v2.7h.88v1.39h-.88v11.5c0,.69.26.86.62.86h.26v1.39h-.6c-1,0-1.52-.7-1.52-1.87V59.74h-.62V58.35h.62Z" transform="translate(-3.75 -6.17)" style="fill:#67675d"/><path d="M23.78,60.85c0-.92-.22-1.28-.72-1.28-.7,0-.8.58-.8,1.47v1.42H21V60.68a2.22,2.22,0,0,1,2.08-2.5c1.2,0,1.93.69,1.93,2.64V73.49H23.86v-.81h0a1.56,1.56,0,0,1-1.44,1c-1,0-1.48-1-1.48-2.5V67c0-1.89.92-2.92,2.88-2.92Zm0,4.66a1.56,1.56,0,0,0-1.64,1.64V70.6c0,1.08.12,1.66.78,1.66s.86-.55.86-1.55Z" transform="translate(-3.75 -6.17)" style="fill:#67675d"/><path d="M25.89,58.35h1.16v1h0a1.75,1.75,0,0,1,1.44-1.2c1,0,1.49,1.06,1.49,2.28v13H28.77V61.12c0-.8-.22-1.38-.78-1.38s-.86.77-.86,1.38V73.49H25.89Z" transform="translate(-3.75 -6.17)" style="fill:#67675d"/><path d="M30.87,61.1c0-2.31,1-2.92,2.07-2.92S35,58.79,35,61.1v9.64c0,2.3-1,2.91-2.06,2.91s-2.07-.61-2.07-2.91Zm2.89,0c0-1.11-.32-1.53-.82-1.53s-.82.42-.82,1.53v9.64c0,1.11.32,1.52.82,1.52s.82-.41.82-1.52Z" transform="translate(-3.75 -6.17)" style="fill:#67675d"/><path d="M35.86,58.35H37v.94h0a1.33,1.33,0,0,1,1.32-1.11c.8,0,1.6.67,1.6,2.94V71.29c0,1.36-.56,2.36-1.42,2.36a1.52,1.52,0,0,1-1.42-1.11h0v3.95H35.86Zm2.88,2.83c0-1-.22-1.61-.72-1.61s-.92.44-.92,1.67v9.19c0,.94.36,1.67.9,1.67s.74-.64.74-1.75Z" transform="translate(-3.75 -6.17)" style="fill:#67675d"/><path d="M40.84,58.35H42v1h0a1.77,1.77,0,0,1,1.66-1.22V59.9c-1.2,0-1.62.64-1.62,2.22V73.49H40.84Z" transform="translate(-3.75 -6.17)" style="fill:#67675d"/><path d="M44.43,61.1c0-2.31,1-2.92,2.06-2.92s2.06.61,2.06,2.92v9.64c0,2.3-1,2.91-2.06,2.91s-2.06-.61-2.06-2.91Zm2.88,0c0-1.11-.32-1.53-.82-1.53s-.82.42-.82,1.53v9.64c0,1.11.32,1.52.82,1.52s.82-.41.82-1.52Z" transform="translate(-3.75 -6.17)" style="fill:#67675d"/><path d="M51.93,60.6c0-.7-.24-1-.64-1s-.64.5-.64,1.08v1.7a3.3,3.3,0,0,0,.46,1.5l1.57,3a3.21,3.21,0,0,1,.44,1.67V71.1c0,1.64-.66,2.55-1.87,2.55-1,0-1.84-.66-1.84-2.36V68.65h1.24V71c0,.69.08,1.27.62,1.27s.6-.61.6-1.3V69.12a3.47,3.47,0,0,0-.46-1.66L50,64.76a3.82,3.82,0,0,1-.58-2v-2c0-1.66.82-2.61,1.94-2.61,1.33,0,1.75,1.25,1.75,2.17v2.5H51.93Z" transform="translate(-3.75 -6.17)" style="fill:#67675d"/><path d="M54.39,56.32l1.24-.67v2.7h.88v1.39h-.88v11.5c0,.69.26.86.62.86h.26v1.39h-.6c-1,0-1.52-.7-1.52-1.87V59.74h-.62V58.35h.62Z" transform="translate(-3.75 -6.17)" style="fill:#67675d"/><path d="M59.49,61.1c0-2.31,1-2.92,2.06-2.92s2.07.61,2.07,2.92v9.64c0,2.3-1,2.91-2.07,2.91s-2.06-.61-2.06-2.91Zm2.88,0c0-1.11-.32-1.53-.82-1.53s-.82.42-.82,1.53v9.64c0,1.11.32,1.52.82,1.52s.82-.41.82-1.52Z" transform="translate(-3.75 -6.17)" style="fill:#67675d"/><path d="M64.47,58.35h1.17v.94h0A1.34,1.34,0,0,1,67,58.18c.8,0,1.6.67,1.6,2.94V71.29c0,1.36-.56,2.36-1.42,2.36a1.52,1.52,0,0,1-1.42-1.11h0v3.95H64.47Zm2.89,2.83c0-1-.22-1.61-.72-1.61s-.92.44-.92,1.67v9.19c0,.94.36,1.67.9,1.67s.74-.64.74-1.75Z" transform="translate(-3.75 -6.17)" style="fill:#67675d"/><path d="M69.46,53.43H70.7v6h0a1.66,1.66,0,0,1,1.4-1.2c1,0,1.44,1.06,1.44,2.28v13H72.34V61.12c0-.8-.22-1.38-.78-1.38s-.86.77-.86,1.38V73.49H69.46Z" transform="translate(-3.75 -6.17)" style="fill:#67675d"/><path d="M74.86,56.32l1.24-.67v2.7H77v1.39H76.1v11.5c0,.69.26.86.62.86H77v1.39h-.6c-1,0-1.52-.7-1.52-1.87V59.74h-.62V58.35h.62Z" transform="translate(-3.75 -6.17)" style="fill:#67675d"/><path d="M77.63,53.43h1.24v6h0a1.66,1.66,0,0,1,1.4-1.2c1,0,1.44,1.06,1.44,2.28v13H80.51V61.12c0-.8-.22-1.38-.78-1.38s-.86.77-.86,1.38V73.49H77.63Z" transform="translate(-3.75 -6.17)" style="fill:#67675d"/><path d="M85.49,60.85c0-.92-.22-1.28-.72-1.28-.7,0-.8.58-.8,1.47v1.42H82.72V60.68a2.23,2.23,0,0,1,2.09-2.5c1.2,0,1.92.69,1.92,2.64V73.49H85.57v-.81h0a1.56,1.56,0,0,1-1.44,1c-1,0-1.49-1-1.49-2.5V67c0-1.89.92-2.92,2.89-2.92Zm0,4.66a1.56,1.56,0,0,0-1.64,1.64V70.6c0,1.08.12,1.66.78,1.66s.86-.55.86-1.55Z" transform="translate(-3.75 -6.17)" style="fill:#67675d"/><path d="M87.65,53.43h1.24V73.49H87.65Z" transform="translate(-3.75 -6.17)" style="fill:#67675d"/><path d="M89.84,58.35H91v1h0c.38-.78.78-1.2,1.44-1.2a1.33,1.33,0,0,1,1.16,1,1.53,1.53,0,0,1,1.28-1c1,0,1.48,1.06,1.48,2.28v13H95.16V61c0-.83-.16-1.3-.62-1.3s-.8.63-.8,1.38V73.49H92.5V61c0-.83-.16-1.3-.62-1.3s-.8.63-.8,1.38V73.49H89.84Z" transform="translate(-3.75 -6.17)" style="fill:#67675d"/><path d="M97.33,53.43h1.32v2.11H97.33Zm0,4.92h1.24V73.49H97.37Z" transform="translate(-3.75 -6.17)" style="fill:#67675d"/><path d="M102,60.82c0-.94-.18-1.25-.58-1.25s-.68.39-.68,1.25v10.3c0,.78.16,1.14.62,1.14s.64-.44.64-1.14V68.68h1.24V71.1c0,1.64-.66,2.55-1.86,2.55-1,0-1.88-.69-1.88-2.28V61.1c0-2.31,1-2.92,2.06-2.92s1.68.81,1.68,2.44v2.53H102Z" transform="translate(-3.75 -6.17)" style="fill:#67675d"/><path d="M109.55,68.6h1.24v2.14c0,2.3-1,2.91-2.06,2.91s-2.07-.61-2.07-2.91V61.1c0-2.31,1-2.92,2.07-2.92s2.06.61,2.06,2.92v5.25h-2.88v4.39c0,1.11.32,1.52.82,1.52s.82-.41.82-1.52Zm0-7.5c0-1.11-.32-1.53-.82-1.53s-.82.42-.82,1.53v3.69h1.64Z" transform="translate(-3.75 -6.17)" style="fill:#67675d"/><path d="M111.67,58.35h1.16v1h0c.38-.78.78-1.2,1.44-1.2a1.33,1.33,0,0,1,1.16,1,1.53,1.53,0,0,1,1.28-1c1,0,1.48,1.06,1.48,2.28v13H117V61c0-.83-.16-1.3-.62-1.3s-.8.63-.8,1.38V73.49h-1.24V61c0-.83-.16-1.3-.62-1.3s-.8.63-.8,1.38V73.49h-1.24Z" transform="translate(-3.75 -6.17)" style="fill:#67675d"/><path d="M123.26,73.49H122.1v-1h0a1.74,1.74,0,0,1-1.44,1.19c-1,0-1.49-1.05-1.49-2.28v-13h1.25V70.71c0,.8.22,1.39.78,1.39s.86-.78.86-1.39V58.35h1.24Z" transform="translate(-3.75 -6.17)" style="fill:#67675d"/><path d="M124.19,53.43h1.24V73.49h-1.24Z" transform="translate(-3.75 -6.17)" style="fill:#67675d"/><path d="M128.87,60.6c0-.7-.24-1-.64-1s-.65.5-.65,1.08v1.7a3.22,3.22,0,0,0,.47,1.5l1.56,3a3.21,3.21,0,0,1,.44,1.67V71.1c0,1.64-.66,2.55-1.86,2.55-1,0-1.85-.66-1.85-2.36V68.65h1.24V71c0,.69.08,1.27.63,1.27s.6-.61.6-1.3V69.12a3.47,3.47,0,0,0-.46-1.66l-1.43-2.7a3.82,3.82,0,0,1-.58-2v-2c0-1.66.82-2.61,1.95-2.61,1.32,0,1.74,1.25,1.74,2.17v2.5h-1.16Z" transform="translate(-3.75 -6.17)" style="fill:#67675d"/><path d="M130.93,53.43h1.32v2.11h-1.32Zm0,4.92h1.24V73.49H131Z" transform="translate(-3.75 -6.17)" style="fill:#67675d"/><path d="M133.12,61.1c0-2.31,1-2.92,2.06-2.92s2.06.61,2.06,2.92v9.64c0,2.3-1,2.91-2.06,2.91s-2.06-.61-2.06-2.91Zm2.88,0c0-1.11-.32-1.53-.82-1.53s-.82.42-.82,1.53v9.64c0,1.11.32,1.52.82,1.52s.82-.41.82-1.52Z" transform="translate(-3.75 -6.17)" style="fill:#67675d"/><path d="M138.1,58.35h1.16v1h0a1.75,1.75,0,0,1,1.44-1.2c1,0,1.49,1.06,1.49,2.28v13H141V61.12c0-.8-.23-1.38-.79-1.38s-.86.77-.86,1.38V73.49H138.1Z" transform="translate(-3.75 -6.17)" style="fill:#67675d"/><path d="M142.8,76.49a65.2,65.2,0,0,0,1.1-11.7,57.67,57.67,0,0,0-1.08-11.69h1a48.51,48.51,0,0,1,1.32,11.69,46.5,46.5,0,0,1-1.34,11.7Z" transform="translate(-3.75 -6.17)" style="fill:#67675d"/><path d="M148.43,56.24c0-2.53,1.16-3,2.06-3s2.06.45,2.06,3V70.68c0,2.53-1.16,3-2.06,3s-2.06-.44-2.06-3Zm2.88-.2c0-.5,0-1.39-.82-1.39s-.82.89-.82,1.39V70.87c0,.5,0,1.39.82,1.39s.82-.89.82-1.39Z" transform="translate(-3.75 -6.17)" style="fill:#67675d"/><path d="M153.67,71.37H155v2.12h-1.32Z" transform="translate(-3.75 -6.17)" style="fill:#67675d"/><path d="M156.09,56.24c0-2.53,1.17-3,2.07-3s2.06.45,2.06,3V70.68c0,2.53-1.16,3-2.06,3s-2.07-.44-2.07-3ZM159,56c0-.5,0-1.39-.82-1.39s-.83.89-.83,1.39V70.87c0,.5,0,1.39.83,1.39s.82-.89.82-1.39Z" transform="translate(-3.75 -6.17)" style="fill:#67675d"/><path d="M161.33,56.24c0-2.53,1.16-3,2.07-3s2.06.45,2.06,3V70.68c0,2.53-1.16,3-2.06,3s-2.07-.44-2.07-3Zm2.89-.2c0-.5,0-1.39-.82-1.39s-.83.89-.83,1.39V70.87c0,.5,0,1.39.83,1.39s.82-.89.82-1.39Z" transform="translate(-3.75 -6.17)" style="fill:#67675d"/><path d="M166.65,53.43h4V55h-2.8v6.77h0a1.4,1.4,0,0,1,1.2-.91c1,0,1.66.77,1.66,2.58v7.19c0,1.81-.6,3-2.08,3s-2.1-1.22-2.1-3V67.9h1.24v2.72c0,1,.18,1.64.86,1.64s.84-.61.84-1.64V63.87c0-1-.18-1.63-.82-1.63s-.84.61-.84,1.63v.81h-1.24Z" transform="translate(-3.75 -6.17)" style="fill:#67675d"/><path d="M171.74,55.43c0-1.5.54-2.17,1.62-2.17s1.62.67,1.62,2.17v5.39c0,1.5-.54,2.17-1.62,2.17s-1.62-.67-1.62-2.17Zm2.16-.19c0-.5-.12-.86-.54-.86s-.54.36-.54.86V61c0,.45.12.86.54.86s.54-.41.54-.86Zm4-2h1l-5,20.39h-1ZM176.86,66.1c0-1.5.54-2.17,1.62-2.17s1.62.67,1.62,2.17v5.39c0,1.5-.54,2.16-1.62,2.16s-1.62-.66-1.62-2.16Zm2.16-.2c0-.5-.12-.86-.54-.86s-.54.36-.54.86v5.78c0,.44.12.86.54.86s.54-.42.54-.86Z" transform="translate(-3.75 -6.17)" style="fill:#67675d"/><path d="M71.84,8.71A94.26,94.26,0,0,1,89.52,7.65a.37.37,0,0,0,.07-.73,71.49,71.49,0,0,0-18.3-.31C56.6,8.18,44.24,13.69,38.22,20.52a.37.37,0,0,0,.49.54C46.43,15.39,58.21,10.77,71.84,8.71Z" transform="translate(-3.75 -6.17)" style="fill:#3fae2a"/><path d="M122.24,23.41c-.85-.08-1.71-.08-1.87-.08a45.88,45.88,0,0,0-9.68,1.76,3.15,3.15,0,0,0-2.23,3V45.74h3.93V28.87c1.43-.81,4.5-1.37,6.88-1.67A13.72,13.72,0,0,1,122.24,23.41Z" transform="translate(-3.75 -6.17)" style="fill:#0082ca"/><path d="M96,10.32c-6.72-.8-42.87-3.07-63.61,19.59l1.31,1.57a2.23,2.23,0,0,0,3.37.08c5-5.51,22.13-20.51,58.84-20A.61.61,0,0,0,96,10.32Z" transform="translate(-3.75 -6.17)" style="fill:#0082ca"/><path d="M16.69,47.94,28.53,34.67,16.69,21.4a1.31,1.31,0,0,1,1-2.15h0a5.34,5.34,0,0,1,4.06,1.88l24.17,26.8a1.43,1.43,0,0,1-1.09,2.35h0a4.54,4.54,0,0,1-3.55-1.71L31.36,37.26l-10,11.29a4.65,4.65,0,0,1-3.62,1.73h0A1.42,1.42,0,0,1,16.69,47.94Z" transform="translate(-3.75 -6.17)" style="fill:#0082ca"/><path d="M42.65,34.58c0-7.26,5.86-11.3,12.3-11.3,7.59,0,12.12,4.42,12.14,11.64v.14h0a1.23,1.23,0,0,1-1.22,1.11H47.23c0,4.54,4.63,7,9,7a51.74,51.74,0,0,0,8.94-1.27v1.26a2.15,2.15,0,0,1-1.7,2.12,40.27,40.27,0,0,1-8,.93C48.24,46.24,42.65,42.7,42.65,34.58Zm20-1.18c0-4.08-3.41-7-7.67-7s-7.72,2.95-7.72,7Z" transform="translate(-3.75 -6.17)" style="fill:#0082ca"/><path d="M133.91,23.28h.26c6.18,0,13.16,2.64,13.16,11.44s-6.92,11.66-13.1,11.52h-.32c-6.18.14-13.16-3.13-13.16-11.39S127.73,23.15,133.91,23.28Zm.16,3c-5.54,0-8.74,3.31-8.74,8.39,0,5.31,3.2,8.58,8.74,8.58s8.68-3,8.68-8.58C142.75,29.36,139.55,26.28,134.07,26.28Z" transform="translate(-3.75 -6.17)" style="fill:#0082ca"/><path d="M160,26.28c-4.37-.18-6.23,1.54-6.28,3.13,0,0-.38,1.86,2.39,2.54,7.14,2,12.57,2.77,12.25,8.17-.47,5.22-5.27,6.12-11.07,6.12A22.39,22.39,0,0,1,150.33,45a1.53,1.53,0,0,1-1-1.45v-2.1A24.7,24.7,0,0,0,157.4,43c3.62,0,6.17-.5,6.44-3s-3.94-3.27-9.11-4.72c-6.07-1.68-5.64-5.8-5.64-5.8.16-3.77,3.46-6.45,11.08-6.18a38.75,38.75,0,0,1,5.62.82A1.5,1.5,0,0,1,167,25.57v2A26.32,26.32,0,0,0,160,26.28Z" transform="translate(-3.75 -6.17)" style="fill:#0082ca"/><path d="M91.91,23.28h-.26a14.29,14.29,0,0,0-9.45,3A2.25,2.25,0,0,0,81.42,28V51.59a2.29,2.29,0,0,0,2.29,2.29h0A2.28,2.28,0,0,0,86,51.59V29.29a2.32,2.32,0,0,1,1.32-2.08,10.27,10.27,0,0,1,4.49-.93c5.48,0,8.68,3.08,8.68,8.39,0,5.54-3.2,8.58-8.68,8.58a11.31,11.31,0,0,1-3-.39v2.22a1,1,0,0,0,.86,1.09,16.55,16.55,0,0,0,2,.07H92c6.17.14,13.1-2.58,13.1-11.52S98.09,23.28,91.91,23.28Z" transform="translate(-3.75 -6.17)" style="fill:#0082ca"/><path d="M74.34,39.35V15q-2.31.42-4.53,1V39.62c0,4.54,2.26,6,7.33,6.27a1.1,1.1,0,0,0,1.15-1.11v-2C74.43,42.49,74.34,41,74.34,39.35Z" transform="translate(-3.75 -6.17)" style="fill:#0082ca"/><path d="M171.14,22.31h-.73V19.17h-1.17v-.66h3.07v.66h-1.17Zm3.93-.88H175l-1.17-1.83v2.71h-.71v-3.8h.78l1.15,1.8,1.15-1.8H177v3.8h-.7V19.6Z" transform="translate(-3.75 -6.17)" style="fill:#0082ca"/></svg>