<svg width="173" height="57" viewBox="0 0 173 57" fill="none" xmlns="http://www.w3.org/2000/svg">
<path d="M78.5769 16.8388L67.6558 0.974731H71.2628L80.1132 14.1002L89.0305 0.974731H92.4705L81.5828 16.8054V27.2256H78.5769V16.8388Z" fill="#002554"/>
<path fill-rule="evenodd" clip-rule="evenodd" d="M89.5645 17.5736V17.6404C89.5645 23.1177 93.806 27.6932 99.6173 27.6932C105.462 27.6932 109.77 23.0509 109.77 17.5736V17.5068C109.77 12.0295 105.495 7.45398 99.6841 7.45398C93.8394 7.45398 89.5645 12.0963 89.5645 17.5736ZM106.798 17.5736V17.6403C106.798 21.7149 103.892 25.0881 99.6507 25.1215C95.5761 25.1215 92.5035 21.7483 92.5035 17.5736V17.5068C92.5035 13.3988 95.3757 9.99219 99.5839 9.99219C103.692 9.99219 106.798 13.3988 106.798 17.5736Z" fill="#002554"/>
<path d="M113.144 7.85476H116.016V11.228C117.285 9.12388 119.323 7.45398 122.662 7.45398C127.338 7.45398 130.077 10.5934 130.077 15.2357V27.2924H127.205V15.9037C127.205 12.2967 125.268 10.059 121.828 10.059C118.488 10.059 116.016 12.4971 116.016 16.1375V27.259H113.144V7.85476H113.144Z" fill="#002554"/>
<path d="M132.815 24.7541L134.285 22.6834C136.389 24.2531 138.693 25.1549 140.998 25.1549C143.336 25.1549 145.006 23.9525 145.006 22.0822V22.0154C145.006 20.0784 142.735 19.3102 140.163 18.6088C137.124 17.7405 133.751 16.7052 133.751 13.1316V13.0648C133.751 9.72496 136.523 7.52069 140.363 7.52069C142.735 7.52069 145.34 8.35564 147.344 9.65817L146.041 11.829C144.238 10.6601 142.167 9.95875 140.297 9.95875C138.026 9.95875 136.556 11.1611 136.556 12.7642V12.831C136.556 14.6679 138.961 15.3692 141.532 16.1708C144.538 17.0725 147.744 18.2415 147.744 21.7149V21.8151C147.744 25.4888 144.705 27.6263 140.831 27.6263C138.092 27.6263 134.986 26.5242 132.815 24.7541" fill="#002554"/>
<path fill-rule="evenodd" clip-rule="evenodd" d="M149.848 21.548V21.6148C149.848 25.5891 153.489 27.6598 157.062 27.6932C160.469 27.6932 162.74 26.1235 164.076 24.3534V27.2924H166.848V15.4361C166.848 12.9647 166.146 11.061 164.844 9.75845C163.441 8.32233 161.337 7.62097 158.598 7.62097C155.793 7.62097 153.689 8.25553 151.551 9.22408L152.42 11.5953C154.223 10.7604 156.027 10.1592 158.298 10.1592C161.938 10.1592 164.076 11.9627 164.076 15.4361V16.1041C162.372 15.6031 160.602 15.2691 158.131 15.2691C153.221 15.2691 149.848 17.4734 149.848 21.548ZM164.142 18.2416V20.1118C164.142 23.1845 161.203 25.3553 157.63 25.3553C154.991 25.3553 152.754 23.9192 152.754 21.4812V21.4144C152.754 18.9763 154.791 17.4066 158.431 17.4066C160.803 17.4066 162.706 17.8408 164.142 18.2416Z" fill="#002554"/>
<path d="M112.944 50.5374L112.008 50.8046L111.808 49.7024L113.311 49.2349H114.179V55.3467H112.944V50.5374Z" fill="#00A7B5"/>
<path d="M115.248 54.3448L117.052 52.5079C117.686 51.8399 117.92 51.5059 117.92 51.0718C117.92 50.6042 117.619 50.337 117.185 50.337C116.751 50.337 116.45 50.5708 116.083 51.0718L115.281 50.3036C115.816 49.5689 116.417 49.2015 117.319 49.2015C118.454 49.2015 119.222 49.8694 119.222 50.9716V51.005C119.222 51.8399 118.822 52.3409 117.92 53.2092L116.918 54.2446H119.222V55.3801H115.281V54.3448H115.248Z" fill="#00A7B5"/>
<path d="M119.891 54.7122L120.592 53.777C120.993 54.111 121.36 54.3114 121.794 54.3114C122.362 54.3114 122.729 53.9774 122.729 53.4097V53.4097C122.729 52.8753 122.329 52.5413 121.761 52.5413C121.46 52.5413 121.16 52.6415 120.926 52.7417L120.225 52.2741L120.392 49.3017H123.731V50.4372H121.46L121.394 51.5394C121.594 51.4726 121.794 51.4392 122.061 51.4392C123.097 51.4392 123.999 52.0069 123.999 53.3429V53.3763C123.999 54.6788 123.13 55.4803 121.861 55.4803C121.026 55.4803 120.392 55.1798 119.891 54.7122Z" fill="#00A7B5"/>
<path d="M126.704 50.7044H127.94V51.3389C128.207 50.9382 128.574 50.6376 129.142 50.6376C129.676 50.6376 130.077 50.9048 130.277 51.3055C130.611 50.9048 131.046 50.6376 131.613 50.6376C132.448 50.6376 132.983 51.1719 132.983 52.2073V55.3801H131.747V52.5747C131.747 52.0403 131.513 51.7397 131.112 51.7397C130.712 51.7397 130.444 52.0403 130.444 52.5747V55.3801H129.209V52.5747C129.209 52.0403 128.975 51.7397 128.574 51.7397C128.173 51.7397 127.906 52.0403 127.906 52.5747V55.3801H126.67V50.7044H126.704Z" fill="#00A7B5"/>
<path fill-rule="evenodd" clip-rule="evenodd" d="M134.352 55.3467L133.985 56.3153C134.519 56.549 135.12 56.716 135.755 56.716C136.556 56.716 137.124 56.5156 137.525 56.1483C137.892 55.7809 138.059 55.2465 138.059 54.5118V50.7044H136.823V51.3055C136.523 50.9382 136.155 50.6042 135.521 50.6042C134.619 50.6042 133.784 51.3055 133.784 52.7751V52.8085C133.784 54.278 134.586 55.0127 135.521 55.0127C136.155 55.0127 136.523 54.6788 136.823 54.278V54.5786C136.823 55.3133 136.456 55.6807 135.688 55.6807C135.187 55.6807 134.719 55.5471 134.352 55.3467ZM135.955 51.7063C136.456 51.7063 136.857 52.1405 136.857 52.8419C136.857 53.5098 136.456 53.9774 135.955 53.9774C135.421 53.9774 135.053 53.5432 135.053 52.8419C135.053 52.1405 135.421 51.7063 135.955 51.7063Z" fill="#00A7B5"/>
<path d="M141.199 54.2112V51.7731H140.731V50.7378H141.199V49.5355H142.434V50.7378H143.369V51.7731H142.434V53.9774C142.434 54.2446 142.568 54.3782 142.802 54.3782C143.002 54.3782 143.169 54.3114 143.336 54.2446V55.2131C143.102 55.3467 142.802 55.4469 142.434 55.4469C141.7 55.4469 141.199 55.1797 141.199 54.2112Z" fill="#00A7B5"/>
<path fill-rule="evenodd" clip-rule="evenodd" d="M143.903 53.9775V54.0443C143.903 54.946 144.538 55.447 145.306 55.4804C145.84 55.4804 146.241 55.2466 146.508 54.8792V55.4136H147.711V52.5748C147.711 51.9736 147.577 51.506 147.243 51.172C146.943 50.8715 146.475 50.7045 145.84 50.7045C145.172 50.7045 144.705 50.8381 144.237 51.0718L144.571 52.0404C144.872 51.9068 145.206 51.7732 145.64 51.7732C146.174 51.7732 146.508 52.0404 146.508 52.5748V52.7084C146.241 52.5748 145.941 52.508 145.54 52.508C144.571 52.508 143.903 52.9421 143.903 53.9775ZM146.508 53.4431V53.8439C146.508 54.278 146.174 54.5786 145.673 54.5452C145.306 54.5452 145.072 54.3448 145.072 53.9775V53.9441C145.072 53.5433 145.339 53.3095 145.807 53.3095C146.074 53.3095 146.341 53.3429 146.508 53.4431Z" fill="#00A7B5"/>
<path fill-rule="evenodd" clip-rule="evenodd" d="M149.882 55.3802V54.779C150.149 55.113 150.516 55.4469 151.151 55.4469C152.086 55.4469 152.921 54.7122 152.921 53.1091V52.9755C152.921 51.4058 152.086 50.6376 151.151 50.6376C150.516 50.6376 150.149 50.9716 149.882 51.3724V49.1013H148.646V55.3802H149.882ZM151.685 52.9755V53.0757C151.685 53.8772 151.284 54.3782 150.783 54.3782C150.282 54.3782 149.882 53.8772 149.882 53.0757V52.9755C149.882 52.1739 150.282 51.673 150.783 51.673C151.284 51.673 151.685 52.1739 151.685 52.9755Z" fill="#00A7B5"/>
<path d="M153.79 49.1013H155.025V55.3802H153.79V49.1013Z" fill="#00A7B5"/>
<path fill-rule="evenodd" clip-rule="evenodd" d="M155.86 53.0423V53.1091C155.86 54.5452 156.829 55.4804 158.031 55.447C158.733 55.447 159.267 55.1798 159.701 54.7122L159.067 53.9774C158.766 54.278 158.465 54.445 158.098 54.445C157.597 54.445 157.196 54.111 157.096 53.5099H159.868V53.1091C159.868 51.7398 159.234 50.6376 157.898 50.6376C156.729 50.6376 155.86 51.673 155.86 53.0423ZM157.898 51.673C158.365 51.673 158.632 52.0737 158.699 52.7083H157.096C157.163 52.0403 157.43 51.673 157.898 51.673Z" fill="#00A7B5"/>
<path d="M160.87 54.2112V51.7731H160.402V50.7378H160.87V49.5355H162.106V50.7378H163.041V51.7731H162.106V53.9774C162.106 54.2446 162.239 54.3782 162.473 54.3782C162.673 54.3782 162.84 54.3114 163.007 54.2446V55.2131C162.774 55.3467 162.473 55.4469 162.106 55.4469C161.404 55.4469 160.87 55.1797 160.87 54.2112Z" fill="#00A7B5"/>
<path d="M163.475 54.8123L164.009 53.944C164.41 54.278 164.878 54.4784 165.245 54.4784C165.579 54.4784 165.746 54.3114 165.746 54.111V54.0776C165.746 53.8104 165.412 53.7102 164.911 53.4764C164.243 53.1758 163.675 52.8753 163.675 52.0737V52.0403C163.675 51.1386 164.377 50.6042 165.279 50.6042C165.78 50.6042 166.347 50.7712 166.815 51.1052L166.314 52.0069C165.98 51.7731 165.579 51.6061 165.245 51.6061C164.945 51.6061 164.778 51.7397 164.778 51.9401V51.9735C164.778 52.2073 165.112 52.3409 165.613 52.5747C166.281 52.9087 166.848 53.2426 166.848 53.9774V54.0108C166.848 54.9793 166.147 55.4469 165.212 55.4469C164.711 55.4469 164.043 55.2799 163.475 54.8123Z" fill="#00A7B5"/>
<path d="M68.8247 38.5141C68.8247 34.8737 70.194 32.4023 72.0309 31.0997V31.7009C70.6282 33.0368 69.5595 35.1075 69.5595 38.5141C69.5595 41.9207 70.6282 43.9914 72.0309 45.3273V45.9285C70.1606 44.6259 68.8247 42.1545 68.8247 38.5141Z" fill="#002554"/>
<path fill-rule="evenodd" clip-rule="evenodd" d="M72.6987 40.7517V40.8853C72.6987 42.4884 73.5671 43.6908 74.8028 43.6574C75.6712 43.6574 76.2723 43.0896 76.6397 42.1878V43.5238H77.3745V36.9777C77.3745 35.2744 76.4393 34.3393 74.9364 34.3393C74.3018 34.3393 73.7341 34.5063 73.2331 34.7401V35.4414C73.7675 35.1742 74.2684 35.0407 74.903 35.0407C76.0719 35.0407 76.6397 35.7754 76.6397 37.0445V38.1801C76.2055 38.0131 75.738 37.8461 75.1034 37.8461C73.5671 37.8461 72.6987 39.0818 72.6987 40.7517ZM76.6397 38.848V40.6849C76.6397 41.8872 75.9717 43.0562 74.903 43.0228C73.9345 43.0228 73.4335 42.0542 73.4335 40.8185V40.6849C73.4335 39.4158 74.0013 38.4806 75.1368 38.4806C75.6712 38.4806 76.1387 38.6142 76.6397 38.848Z" fill="#002554"/>
<path fill-rule="evenodd" clip-rule="evenodd" d="M79.8129 43.5572V41.7871C80.1803 42.8225 80.8148 43.6908 81.7166 43.6908C82.9523 43.6908 84.0878 42.0543 84.0878 39.1487V38.8147C84.0878 35.8757 82.9523 34.2725 81.7166 34.2725C80.8148 34.2725 80.1803 35.1409 79.8129 36.1762V31.2667H79.0781V43.5572H79.8129ZM83.3863 38.8481V39.1153C83.3863 41.6201 82.5847 43.0228 81.6496 43.0562C80.7144 43.0562 79.7793 41.6535 79.7793 39.2155V38.7813C79.7793 36.3432 80.7144 34.9405 81.6496 34.9405C82.5847 34.9405 83.3863 36.3432 83.3863 38.8481Z" fill="#002554"/>
<path fill-rule="evenodd" clip-rule="evenodd" d="M86.4251 31.2667H85.6235V32.4691H86.4251V31.2667ZM86.3919 34.4061H85.6571V43.5238H86.3919V34.4061Z" fill="#002554"/>
<path d="M88.2959 34.4061H89.0307V35.7421C89.3646 34.9071 90.0994 34.2391 91.1681 34.3059V35.0741H91.1347C89.9992 35.0741 89.0307 35.8089 89.0307 37.412V43.5238H88.2959V34.4061H88.2959Z" fill="#002554"/>
<path fill-rule="evenodd" clip-rule="evenodd" d="M91.502 40.7517V40.8853C91.502 42.4884 92.3703 43.6908 93.606 43.6574C94.4744 43.6574 95.0755 43.0896 95.4429 42.1878V43.5238H96.1777V36.9777C96.1777 35.2744 95.2425 34.3393 93.7396 34.3393C93.1051 34.3393 92.5373 34.5063 92.0363 34.7401V35.4414C92.5707 35.1742 93.0717 35.0407 93.7062 35.0407C94.8752 35.0407 95.4429 35.7754 95.4429 37.0445V38.1801C95.0087 38.0131 94.5412 37.8461 93.9066 37.8461C92.3703 37.8461 91.502 39.0818 91.502 40.7517ZM95.4429 38.848V40.6849C95.4429 41.8872 94.775 43.0562 93.7062 43.0228C92.7377 43.0228 92.2367 42.0542 92.2367 40.8185V40.6849C92.2367 39.4158 92.8045 38.4806 93.94 38.4806C94.4744 38.4806 94.942 38.6142 95.4429 38.848Z" fill="#002554"/>
<path d="M98.0817 42.0209V35.1075H97.2134V34.4395H98.0817V31.8679H98.8165V34.4395H100.286V35.1075H98.8165V41.9207C98.8165 42.7222 99.1839 42.9226 99.785 42.9226C99.952 42.9226 100.186 42.8892 100.353 42.8224V43.4904C100.186 43.5572 99.9186 43.5906 99.7182 43.5906C98.7163 43.624 98.0817 43.1898 98.0817 42.0209Z" fill="#002554"/>
<path fill-rule="evenodd" clip-rule="evenodd" d="M101.121 38.9817V39.1487C101.121 42.1545 102.49 43.6574 104.026 43.6574C104.728 43.6574 105.162 43.5238 105.796 43.1565L105.696 42.4217C105.128 42.8225 104.694 42.9561 104.126 42.9561C102.891 42.9561 101.889 41.7537 101.855 39.2823H105.997V38.7479C105.997 35.8757 104.995 34.2726 103.625 34.2726C102.29 34.2726 101.121 35.8089 101.121 38.9817ZM103.625 34.9739C104.594 34.9739 105.295 36.5436 105.295 38.6477H101.855C101.922 36.243 102.69 34.9739 103.625 34.9739Z" fill="#002554"/>
<path d="M107.466 34.4061H108.201V35.7421C108.535 34.9071 109.27 34.2391 110.339 34.3059V35.0741H110.305C109.17 35.0741 108.201 35.8089 108.201 37.412V43.5238H107.466V34.4061H107.466Z" fill="#002554"/>
<path fill-rule="evenodd" clip-rule="evenodd" d="M110.772 38.8815V39.0485C110.772 41.9207 112.008 43.6908 113.378 43.6574C114.747 43.6574 115.949 41.9207 115.949 39.0485V38.8815C115.949 36.0427 114.747 34.2726 113.378 34.2726C112.008 34.2726 110.772 36.0093 110.772 38.8815ZM115.214 38.8815V39.0485C115.214 41.4531 114.379 42.9895 113.344 42.9895C112.309 42.9895 111.474 41.4531 111.474 39.0485V38.8815C111.474 36.4768 112.309 34.9405 113.344 34.9405C114.379 34.9405 115.214 36.4768 115.214 38.8815Z" fill="#002554"/>
<path d="M117.385 34.4061H118.12V35.742C118.421 34.9739 118.989 34.2725 119.99 34.2725C121.226 34.2725 122.061 35.3079 122.061 37.1448V43.5238H121.326V37.2116C121.326 35.7086 120.792 34.8737 119.824 34.8737C118.855 34.8737 118.087 35.8756 118.087 37.3451V43.5238H117.352V34.4061H117.385Z" fill="#002554"/>
<path fill-rule="evenodd" clip-rule="evenodd" d="M123.431 38.9817V39.1487C123.431 42.1545 124.8 43.6574 126.336 43.6574C127.038 43.6574 127.472 43.5238 128.106 43.1565L128.006 42.4217C127.438 42.8225 127.004 42.9561 126.436 42.9561C125.201 42.9561 124.199 41.7537 124.165 39.2823H128.307V38.7479C128.307 35.8757 127.305 34.2726 125.936 34.2726C124.6 34.2726 123.431 35.8089 123.431 38.9817ZM125.936 34.9739C126.904 34.9739 127.605 36.5436 127.605 38.6477H124.165C124.232 36.243 125 34.9739 125.936 34.9739Z" fill="#002554"/>
<path fill-rule="evenodd" clip-rule="evenodd" d="M132.147 40.7517V40.8853C132.147 42.4884 133.016 43.6908 134.252 43.6574C135.12 43.6574 135.721 43.0896 136.088 42.1878V43.5238H136.823V36.9777C136.823 35.2744 135.888 34.3393 134.385 34.3393C133.751 34.3393 133.183 34.5063 132.682 34.7401V35.4414C133.216 35.1742 133.717 35.0407 134.352 35.0407C135.521 35.0407 136.088 35.7754 136.088 37.0445V38.1801C135.654 38.0131 135.187 37.8461 134.552 37.8461C133.016 37.8461 132.147 39.0818 132.147 40.7517ZM136.088 38.848V40.6849C136.088 41.8872 135.42 43.0562 134.352 43.0228C133.383 43.0228 132.882 42.0542 132.882 40.8185V40.6849C132.882 39.4158 133.45 38.4806 134.586 38.4806C135.12 38.4806 135.587 38.6142 136.088 38.848Z" fill="#002554"/>
<path d="M138.159 39.0819V38.9149C138.159 35.7421 139.562 34.306 140.931 34.306C141.399 34.306 141.766 34.4396 142.033 34.6066V35.4081C141.733 35.1743 141.365 35.0073 140.931 35.0073C139.996 35.0073 138.894 36.2097 138.894 38.8815V39.1153C138.894 41.8539 139.963 42.9561 140.998 42.9561C141.365 42.9561 141.733 42.7891 142.033 42.5553V43.3234C141.733 43.5238 141.399 43.6574 140.931 43.6574C139.529 43.6574 138.159 42.2881 138.159 39.0819Z" fill="#002554"/>
<path fill-rule="evenodd" clip-rule="evenodd" d="M142.835 38.9817V39.1487C142.835 42.1545 144.204 43.6574 145.741 43.6574C146.442 43.6574 146.876 43.5238 147.511 43.1565L147.41 42.4217C146.843 42.8225 146.409 42.9561 145.841 42.9561C144.605 42.9561 143.603 41.7537 143.57 39.2823H147.711V38.7479C147.711 35.8757 146.709 34.2726 145.34 34.2726C144.004 34.2726 142.835 35.8089 142.835 38.9817ZM145.306 34.9739C146.275 34.9739 146.976 36.5436 146.976 38.6477H143.536C143.603 36.243 144.371 34.9739 145.306 34.9739Z" fill="#002554"/>
<path d="M149.381 42.0209V35.1075H148.513V34.4395H149.381V31.8679H150.116V34.4395H151.585V35.1075H150.116V41.9207C150.116 42.7222 150.483 42.9226 151.084 42.9226C151.251 42.9226 151.485 42.8892 151.652 42.8224V43.4904C151.485 43.5572 151.218 43.5906 151.018 43.5906C149.982 43.624 149.381 43.1898 149.381 42.0209Z" fill="#002554"/>
<path fill-rule="evenodd" clip-rule="evenodd" d="M152.52 40.7517V40.8853C152.52 42.4884 153.355 43.6908 154.624 43.6574C155.492 43.6574 156.094 43.0896 156.461 42.1878V43.5238H157.196V36.9777C157.196 35.2744 156.261 34.3393 154.758 34.3393C154.123 34.3393 153.555 34.5063 153.054 34.7401V35.4414C153.589 35.1742 154.09 35.0407 154.724 35.0407C155.893 35.0407 156.461 35.7754 156.461 37.0445V38.1801C156.027 38.0131 155.559 37.8461 154.925 37.8461C153.388 37.8461 152.52 39.0818 152.52 40.7517ZM156.427 38.848V40.6849C156.427 41.8872 155.793 43.0562 154.691 43.0228C153.722 43.0228 153.221 42.0542 153.221 40.8185V40.6849C153.221 39.4158 153.789 38.4806 154.924 38.4806C155.459 38.4806 155.926 38.6142 156.427 38.848Z" fill="#002554"/>
<path d="M159.066 42.0209V35.1075H158.198V34.4395H159.066V31.8679H159.801V34.4395H161.27V35.1075H159.801V41.9207C159.801 42.7222 160.168 42.9226 160.769 42.9226C160.936 42.9226 161.17 42.8892 161.337 42.8224V43.4904C161.17 43.5572 160.903 43.5906 160.703 43.5906C159.701 43.624 159.066 43.1898 159.066 42.0209Z" fill="#002554"/>
<path fill-rule="evenodd" clip-rule="evenodd" d="M162.105 38.9817V39.1487C162.105 42.1545 163.475 43.6574 165.011 43.6574C165.712 43.6574 166.147 43.5238 166.781 43.1565L166.681 42.4217C166.113 42.8225 165.679 42.9561 165.111 42.9561C163.876 42.9561 162.874 41.7537 162.84 39.2823H166.982V38.7479C166.982 35.8757 165.98 34.2726 164.61 34.2726C163.274 34.2726 162.105 35.8089 162.105 38.9817ZM164.61 34.9739C165.579 34.9739 166.28 36.5436 166.28 38.6477H162.84C162.907 36.243 163.675 34.9739 164.61 34.9739Z" fill="#002554"/>
<path d="M167.816 45.3273C169.219 43.9914 170.288 41.9207 170.288 38.5141C170.288 35.1075 169.219 33.0368 167.816 31.7009V31.0997C169.653 32.4023 171.023 34.8737 171.023 38.5141C171.023 42.1545 169.653 44.6259 167.816 45.9285V45.3273H167.816Z" fill="#002554"/>
<path d="M41.3713 43.7576C40.6699 43.7576 39.9686 43.4236 39.5678 42.8225L17.6587 12.0295C16.9573 11.0275 17.1911 9.65821 18.193 8.92345C19.195 8.22209 20.5643 8.45588 21.2657 9.45782L41.3713 29.5634L61.4769 9.45782C62.1783 8.45588 63.581 8.22209 64.5496 8.92345C65.5515 9.62481 65.7853 11.0275 65.0839 12.0295L43.1748 42.8225C42.774 43.4236 42.1061 43.7576 41.3713 43.7576" fill="#F93822"/>
<path d="M30.4499 5.08266C30.0492 3.91372 28.78 3.31256 27.6111 3.74673C26.4756 4.14751 25.841 5.41664 26.2752 6.58557L27.6111 14.1335L36.996 23.5184L30.4499 5.08266Z" fill="#002554"/>
<path d="M46.1475 23.1511L48.7525 4.41476C48.9195 3.21243 48.0846 2.0769 46.8822 1.90991C45.6799 1.74292 44.5444 2.57787 44.3774 3.8136L37.8647 24.3868L41.3715 27.8936L46.1475 23.1511Z" fill="#00A7B5"/>
<path d="M8.54126 22.1491C7.43912 21.5813 6.1032 22.0155 5.56883 23.1176C5.00106 24.2198 5.43524 25.5557 6.53737 26.0901L25.1067 35.5751L37.4974 41.9207L27.7117 28.1607L8.54126 22.1491Z" fill="#00A7B5"/>
<path d="M26.9435 37.8128L22.8689 35.7421L2.86345 39.1153C1.62772 39.1153 0.65918 40.1173 0.65918 41.3196C0.65918 42.5553 1.66112 43.5239 2.86345 43.5239H5.4017H38.1318L26.9435 37.8128Z" fill="#002554"/>
<path fill-rule="evenodd" clip-rule="evenodd" d="M170.054 7.62097C168.752 7.62097 167.75 8.65631 167.75 9.92544C167.75 11.1612 168.752 12.1965 170.054 12.1965C171.357 12.1965 172.359 11.1278 172.359 9.89204C172.359 8.65631 171.357 7.62097 170.054 7.62097ZM170.055 7.85473C171.223 7.85473 172.092 8.78987 172.092 9.92541C172.092 11.0609 171.223 11.9961 170.021 11.9961C168.852 11.9961 167.984 11.0609 167.984 9.92541C167.984 8.78987 168.886 7.85473 170.055 7.85473ZM169.119 8.65629H170.188C170.522 8.65629 170.756 8.75649 170.923 8.92348C171.056 9.05707 171.123 9.22406 171.123 9.42445C171.123 9.82523 170.889 10.059 170.555 10.1592L171.19 11.061H170.655L170.088 10.226H169.587V11.061H169.119V8.65629ZM170.656 9.45786C170.656 9.69165 170.489 9.82524 170.188 9.82524V9.85864H169.587V9.09048H170.188C170.489 9.09048 170.656 9.22408 170.656 9.45786Z" fill="#002554"/>
</svg>
