<svg width="14" height="12" viewBox="0 0 14 12" fill="none" xmlns="http://www.w3.org/2000/svg">
<path d="M0.335793 5.13301L4.94174 0.338983C5.37599 -0.112994 6.08969 -0.112994 6.53754 0.338983C6.76178 0.572375 6.87334 0.863823 6.87334 1.16949C6.87334 1.47575 6.76122 1.7672 6.53754 2L3.80797 4.82676H12.8663C13.1742 4.82676 13.4542 4.95768 13.6642 5.17627C13.8742 5.39485 14 5.6863 14 6.00678C14 6.64773 13.4958 7.18737 12.8657 7.18737H3.83583L6.5381 10C6.76234 10.2334 6.8739 10.5248 6.8739 10.8305C6.8739 11.1368 6.76178 11.4282 6.5381 11.661C6.10386 12.113 5.37593 12.113 4.9423 11.661L0.335793 6.85212C0.112104 6.6193 0 6.32785 0 6.02161V5.99258V5.96355C0 5.65729 0.112115 5.36585 0.335793 5.13304V5.13301Z" fill="#1D295B"/>
</svg>
