<?xml version="1.0" encoding="utf-8"?>
<!-- Generator: Adobe Illustrator 25.2.0, SVG Export Plug-In . SVG Version: 6.00 Build 0)  -->
<svg version="1.1" id="Layer_1" xmlns="http://www.w3.org/2000/svg" xmlns:xlink="http://www.w3.org/1999/xlink" x="0px" y="0px"
	 viewBox="0 0 243 144" style="enable-background:new 0 0 243 144;" xml:space="preserve">
<style type="text/css">
	.st0{fill:#FFFFFF;}
	.st1{fill:#626366;}
	.st2{fill:#005F83;}
	.st3{fill:#97D700;}
</style>
<path class="st0" d="M0,6c0-3.3,2.7-6,6-6h231c3.3,0,6,2.7,6,6v132c0,3.3-2.7,6-6,6H6c-3.3,0-6-2.7-6-6V6z"/>
<g>
	<path class="st1" d="M45.3,77.3c-0.2-0.2-0.3-0.5-0.3-0.9s0.1-0.7,0.3-0.9c0.2-0.2,0.5-0.4,0.9-0.4s0.6,0.1,0.9,0.4
		c0.2,0.2,0.3,0.5,0.3,0.9s-0.1,0.7-0.3,0.9c-0.2,0.2-0.5,0.4-0.9,0.4S45.6,77.6,45.3,77.3 M45.6,93V80.5c0-0.2,0.1-0.3,0.2-0.3h0.8
		c0.2,0,0.2,0.1,0.2,0.3V93c0,0.2-0.1,0.3-0.2,0.3h-0.8C45.7,93.2,45.6,93.1,45.6,93"/>
	<path class="st1" d="M50,92.4c-0.6-0.6-1-1.4-1-2.4v-0.2c0-0.2,0.1-0.3,0.2-0.3H50c0.2,0,0.2,0.1,0.2,0.3v0.2
		c0,0.6,0.2,1.1,0.6,1.5c0.4,0.4,1,0.6,1.6,0.6c0.6,0,1.2-0.2,1.6-0.6c0.4-0.4,0.6-1,0.6-1.6c0-0.5-0.1-0.9-0.3-1.2
		c-0.2-0.3-0.5-0.6-0.9-0.8c-0.3-0.2-0.8-0.4-1.4-0.7c-0.6-0.3-1.2-0.5-1.6-0.8c-0.4-0.3-0.8-0.6-1-1.1c-0.3-0.5-0.4-1.1-0.4-1.8
		c0-1,0.3-1.9,0.9-2.5c0.6-0.6,1.4-0.9,2.5-0.9c1,0,1.9,0.3,2.5,1c0.6,0.6,0.9,1.5,0.9,2.5v0.1c0,0.2-0.1,0.3-0.2,0.3h-0.7
		c-0.2,0-0.2-0.1-0.2-0.3v-0.1c0-0.6-0.2-1.2-0.6-1.6c-0.4-0.4-0.9-0.6-1.6-0.6c-0.6,0-1.2,0.2-1.6,0.6s-0.6,1-0.6,1.6
		c0,0.5,0.1,0.8,0.3,1.2c0.2,0.3,0.5,0.6,0.8,0.7c0.3,0.2,0.8,0.4,1.3,0.7c0.7,0.3,1.2,0.6,1.6,0.8c0.4,0.3,0.8,0.6,1.1,1.1
		c0.3,0.5,0.5,1.1,0.5,1.8c0,1-0.3,1.9-1,2.5c-0.6,0.6-1.5,0.9-2.5,0.9C51.5,93.3,50.6,93,50,92.4"/>
	<path class="st1" d="M58.3,92.4c-0.7-0.7-1-1.6-1-2.8v-5.6c0-1.1,0.3-2.1,1-2.8c0.7-0.7,1.5-1.1,2.6-1.1c1.1,0,2,0.4,2.7,1.1
		c0.7,0.7,1,1.6,1,2.8v5.6c0,1.1-0.3,2.1-1,2.8c-0.7,0.7-1.6,1.1-2.7,1.1C59.9,93.4,59,93.1,58.3,92.4 M62.6,91.5
		c0.4-0.5,0.7-1.2,0.7-1.9V84c0-0.8-0.2-1.5-0.7-2c-0.4-0.5-1-0.8-1.7-0.8c-0.7,0-1.2,0.3-1.7,0.8c-0.4,0.5-0.6,1.2-0.6,2v5.5
		c0,0.8,0.2,1.4,0.6,1.9c0.4,0.5,1,0.8,1.7,0.8C61.6,92.2,62.2,92,62.6,91.5"/>
	<path class="st1" d="M70.5,81.3h-1.9c-0.1,0-0.1,0-0.1,0.1v8.3c0,0.9,0.1,1.5,0.4,1.8c0.3,0.3,0.7,0.5,1.3,0.5h0.2
		c0.2,0,0.2,0.1,0.2,0.3V93c0,0.2-0.1,0.3-0.2,0.3h-0.5c-0.9,0-1.6-0.2-2.1-0.7c-0.5-0.4-0.7-1.3-0.7-2.5v-8.6c0-0.1,0-0.1-0.1-0.1
		h-1c-0.2,0-0.2-0.1-0.2-0.3v-0.6c0-0.2,0.1-0.3,0.2-0.3h1c0.1,0,0.1,0,0.1-0.1v-2.9c0-0.2,0.1-0.3,0.2-0.3h0.8
		c0.2,0,0.2,0.1,0.2,0.3v2.9c0,0.1,0,0.1,0.1,0.1h1.9c0.2,0,0.2,0.1,0.2,0.3v0.6C70.7,81.3,70.6,81.3,70.5,81.3"/>
	<path class="st1" d="M77.1,80.4c0.1,0.1,0.2,0.2,0.1,0.3l-0.2,0.9c0,0.2-0.2,0.2-0.3,0.1c-0.3-0.1-0.6-0.1-1-0.1
		c-0.6,0-1.2,0.4-1.6,1c-0.4,0.7-0.6,1.5-0.6,2.5V93c0,0.2-0.1,0.3-0.2,0.3h-0.8c-0.2,0-0.2-0.1-0.2-0.3V80.5c0-0.2,0.1-0.3,0.2-0.3
		h0.8c0.2,0,0.2,0.1,0.2,0.3v1.6c0,0.1,0,0.1,0,0.1s0.1,0,0.1-0.1c0.2-0.6,0.5-1.1,0.9-1.4c0.4-0.3,0.9-0.5,1.4-0.5
		C76.5,80.2,76.8,80.3,77.1,80.4"/>
	<path class="st1" d="M85.1,87.2h-5.6c-0.1,0-0.1,0-0.1,0.1v2.2c0,0.8,0.2,1.4,0.6,1.9c0.4,0.5,1,0.8,1.7,0.8c0.6,0,1.1-0.2,1.5-0.5
		c0.4-0.4,0.7-0.8,0.8-1.4c0-0.2,0.1-0.2,0.3-0.2l0.8,0.1c0.1,0,0.1,0,0.2,0.1c0,0,0.1,0.1,0,0.2v0.1c-0.2,0.9-0.6,1.7-1.2,2.2
		c-0.6,0.5-1.4,0.8-2.4,0.8c-1.1,0-1.9-0.4-2.6-1.1c-0.7-0.7-1-1.6-1-2.8v-5.7c0-1.1,0.3-2.1,1-2.8c0.7-0.7,1.5-1.1,2.6-1.1
		c1.1,0,2,0.4,2.6,1.1c0.7,0.7,1,1.6,1,2.8V87C85.3,87.1,85.2,87.2,85.1,87.2 M80,82c-0.4,0.5-0.6,1.2-0.6,2v1.9
		c0,0.1,0,0.1,0.1,0.1h4.5c0.1,0,0.1,0,0.1-0.1V84c0-0.8-0.2-1.5-0.6-2c-0.4-0.5-1-0.8-1.7-0.8C81,81.3,80.4,81.5,80,82"/>
	<path class="st1" d="M90.9,81.3H89c-0.1,0-0.1,0-0.1,0.1v8.3c0,0.9,0.1,1.5,0.4,1.8c0.3,0.3,0.7,0.5,1.3,0.5h0.2
		c0.2,0,0.2,0.1,0.2,0.3V93c0,0.2-0.1,0.3-0.2,0.3h-0.5c-0.9,0-1.6-0.2-2.1-0.7c-0.5-0.4-0.7-1.3-0.7-2.5v-8.6c0-0.1,0-0.1-0.1-0.1
		h-1c-0.2,0-0.2-0.1-0.2-0.3v-0.6c0-0.2,0.1-0.3,0.2-0.3h1c0.1,0,0.1,0,0.1-0.1v-2.9c0-0.2,0.1-0.3,0.2-0.3h0.8
		c0.2,0,0.2,0.1,0.2,0.3v2.9c0,0.1,0,0.1,0.1,0.1H91c0.2,0,0.2,0.1,0.2,0.3v0.6C91.2,81.3,91.1,81.3,90.9,81.3"/>
	<path class="st1" d="M92.8,77.3c-0.2-0.2-0.3-0.5-0.3-0.9s0.1-0.7,0.3-0.9c0.2-0.2,0.5-0.4,0.9-0.4c0.4,0,0.6,0.1,0.9,0.4
		c0.2,0.2,0.3,0.5,0.3,0.9s-0.1,0.7-0.3,0.9c-0.2,0.2-0.5,0.4-0.9,0.4C93.3,77.7,93,77.6,92.8,77.3 M93,93V80.5
		c0-0.2,0.1-0.3,0.2-0.3H94c0.2,0,0.2,0.1,0.2,0.3V93c0,0.2-0.1,0.3-0.2,0.3h-0.8C93.1,93.2,93,93.1,93,93"/>
	<path class="st1" d="M103.3,81.1c0.5,0.7,0.8,1.7,0.8,3V93c0,0.2-0.1,0.3-0.2,0.3H103c-0.2,0-0.2-0.1-0.2-0.3v-8.7
		c0-0.9-0.2-1.6-0.6-2.2s-0.9-0.8-1.6-0.8c-0.7,0-1.3,0.3-1.7,0.8c-0.4,0.5-0.6,1.3-0.6,2.3V93c0,0.2-0.1,0.3-0.2,0.3h-0.8
		C97,93.2,97,93.1,97,93V80.5c0-0.2,0.1-0.3,0.2-0.3H98c0.2,0,0.2,0.1,0.2,0.3v1c0,0.1,0,0.1,0,0.1s0.1,0,0.1-0.1
		c0.6-1,1.4-1.4,2.6-1.4C102,80.1,102.7,80.4,103.3,81.1"/>
	<path class="st1" d="M107.1,92.4c-0.7-0.7-1-1.6-1-2.8v-5.6c0-1.1,0.3-2.1,1-2.8c0.7-0.7,1.5-1.1,2.6-1.1c1.1,0,2,0.4,2.7,1.1
		c0.7,0.7,1,1.6,1,2.8v5.6c0,1.1-0.3,2.1-1,2.8c-0.7,0.7-1.6,1.1-2.7,1.1C108.6,93.4,107.7,93.1,107.1,92.4 M111.4,91.5
		c0.4-0.5,0.7-1.2,0.7-1.9V84c0-0.8-0.2-1.5-0.7-2c-0.4-0.5-1-0.8-1.7-0.8c-0.7,0-1.2,0.3-1.7,0.8c-0.4,0.5-0.6,1.2-0.6,2v5.5
		c0,0.8,0.2,1.4,0.6,1.9c0.4,0.5,1,0.8,1.7,0.8C110.4,92.2,110.9,92,111.4,91.5"/>
	<path class="st1" d="M115.5,77.3c-0.2-0.2-0.3-0.5-0.3-0.9s0.1-0.7,0.3-0.9c0.2-0.2,0.5-0.4,0.9-0.4c0.4,0,0.6,0.1,0.9,0.4
		c0.2,0.2,0.3,0.5,0.3,0.9s-0.1,0.7-0.3,0.9c-0.2,0.2-0.5,0.4-0.9,0.4C116,77.7,115.7,77.6,115.5,77.3 M115.7,93V80.5
		c0-0.2,0.1-0.3,0.2-0.3h0.8c0.2,0,0.2,0.1,0.2,0.3V93c0,0.2-0.1,0.3-0.2,0.3h-0.8C115.8,93.2,115.7,93.1,115.7,93"/>
	<path class="st1" d="M126,81.1c0.5,0.7,0.8,1.7,0.8,3V93c0,0.2-0.1,0.3-0.2,0.3h-0.8c-0.2,0-0.2-0.1-0.2-0.3v-8.7
		c0-0.9-0.2-1.6-0.6-2.2c-0.4-0.5-0.9-0.8-1.6-0.8c-0.7,0-1.3,0.3-1.7,0.8c-0.4,0.5-0.6,1.3-0.6,2.3V93c0,0.2-0.1,0.3-0.2,0.3h-0.8
		c-0.2,0-0.2-0.1-0.2-0.3V80.5c0-0.2,0.1-0.3,0.2-0.3h0.8c0.2,0,0.2,0.1,0.2,0.3v1c0,0.1,0,0.1,0,0.1s0.1,0,0.1-0.1
		c0.6-1,1.4-1.4,2.6-1.4C124.7,80.1,125.4,80.4,126,81.1"/>
	<path class="st1" d="M133.8,92.4c-0.7-0.7-1-1.6-1-2.8v-5.6c0-1.1,0.3-2.1,1-2.8c0.7-0.7,1.5-1.1,2.6-1.1c0.7,0,1.3,0.2,1.9,0.5
		c0.6,0.3,1,0.7,1.3,1.3s0.4,1.1,0.4,1.7v0.2c0,0.2-0.1,0.3-0.2,0.3L139,84c-0.2,0-0.2-0.1-0.2-0.3v-0.2c0-0.6-0.2-1.2-0.7-1.6
		s-1-0.7-1.7-0.7c-0.7,0-1.2,0.3-1.7,0.8c-0.4,0.5-0.6,1.2-0.6,2v5.5c0,0.8,0.2,1.4,0.6,1.9c0.4,0.5,1,0.8,1.7,0.8s1.2-0.2,1.7-0.7
		c0.4-0.5,0.7-1,0.7-1.6v-0.1c0-0.2,0.1-0.3,0.2-0.3h0.8c0.2,0,0.2,0.1,0.2,0.3V90c0,0.6-0.2,1.2-0.4,1.7c-0.3,0.5-0.7,0.9-1.3,1.2
		c-0.6,0.3-1.2,0.5-1.9,0.5C135.4,93.4,134.5,93.1,133.8,92.4"/>
	<path class="st1" d="M147.9,81.2c0.6,0.8,0.9,1.8,0.9,3.1V93c0,0.2-0.1,0.3-0.2,0.3h-0.8c-0.2,0-0.2-0.1-0.2-0.3V92
		c0-0.1,0-0.1,0-0.1c0,0-0.1,0-0.1,0c-0.6,1-1.5,1.4-2.8,1.4c-0.9,0-1.6-0.3-2.2-0.8s-1-1.5-1-2.8c0-1.4,0.4-2.5,1.1-3.1
		c0.8-0.7,1.8-1,3-1h1.9c0.1,0,0.1,0,0.1-0.1v-1.2c0-1-0.2-1.7-0.6-2.3c-0.4-0.6-1-0.8-1.7-0.8c-0.6,0-1,0.2-1.5,0.6
		c-0.4,0.4-0.7,0.9-0.7,1.5c0,0.2-0.1,0.3-0.2,0.3l-0.9-0.1c-0.1,0-0.1,0-0.2-0.1c0-0.1-0.1-0.1,0-0.2c0.1-1,0.5-1.7,1.1-2.3
		s1.5-0.9,2.4-0.9C146.4,80.1,147.3,80.5,147.9,81.2 M146.7,91.5c0.5-0.5,0.8-1.2,0.8-2.1v-2.4c0-0.1,0-0.1-0.1-0.1h-1.9
		c-0.8,0-1.5,0.2-2,0.7c-0.5,0.5-0.8,1.2-0.8,2.2c0,0.8,0.2,1.5,0.6,1.9c0.4,0.4,0.9,0.6,1.5,0.6C145.6,92.2,146.2,92,146.7,91.5"/>
	<path class="st1" d="M157.4,81.1c0.6,0.7,0.9,1.6,0.9,2.8v5.6c0,1.1-0.3,2.1-0.9,2.8c-0.6,0.7-1.4,1.1-2.4,1.1
		c-0.5,0-0.9-0.1-1.4-0.3c-0.4-0.2-0.8-0.5-1.1-0.9c0,0-0.1,0-0.1,0c0,0,0,0,0,0.1V98c0,0.2-0.1,0.3-0.2,0.3h-0.8
		c-0.2,0-0.2-0.1-0.2-0.3V80.5c0-0.2,0.1-0.3,0.2-0.3h0.8c0.2,0,0.2,0.1,0.2,0.3v0.7c0,0,0,0.1,0,0.1s0.1,0,0.1,0
		c0.3-0.4,0.6-0.7,1.1-0.9c0.4-0.2,0.9-0.3,1.4-0.3C156,80.1,156.8,80.4,157.4,81.1 M156.4,82c-0.4-0.5-1-0.8-1.7-0.8
		c-0.7,0-1.2,0.2-1.6,0.7c-0.4,0.5-0.6,1.1-0.6,1.9v5.5c0,0.8,0.2,1.5,0.6,1.9c0.4,0.5,1,0.7,1.6,0.7c0.7,0,1.3-0.3,1.7-0.8
		c0.4-0.5,0.7-1.2,0.7-1.9V84C157.1,83.2,156.9,82.5,156.4,82"/>
	<path class="st1" d="M161,92.4c-0.6-0.6-1-1.4-1-2.4v-0.2c0-0.2,0.1-0.3,0.2-0.3h0.8c0.2,0,0.2,0.1,0.2,0.3v0.2
		c0,0.6,0.2,1.1,0.6,1.5c0.4,0.4,1,0.6,1.6,0.6c0.6,0,1.2-0.2,1.6-0.6c0.4-0.4,0.6-1,0.6-1.6c0-0.5-0.1-0.9-0.3-1.2
		c-0.2-0.3-0.5-0.6-0.9-0.8c-0.3-0.2-0.8-0.4-1.4-0.7c-0.6-0.3-1.2-0.5-1.6-0.8c-0.4-0.3-0.8-0.6-1-1.1c-0.3-0.5-0.4-1.1-0.4-1.8
		c0-1,0.3-1.9,0.9-2.5c0.6-0.6,1.4-0.9,2.5-0.9c1,0,1.9,0.3,2.5,1c0.6,0.6,0.9,1.5,0.9,2.5v0.1c0,0.2-0.1,0.3-0.2,0.3h-0.7
		c-0.2,0-0.2-0.1-0.2-0.3v-0.1c0-0.6-0.2-1.2-0.6-1.6c-0.4-0.4-0.9-0.6-1.6-0.6c-0.6,0-1.2,0.2-1.6,0.6s-0.6,1-0.6,1.6
		c0,0.5,0.1,0.8,0.3,1.2c0.2,0.3,0.5,0.6,0.8,0.7c0.3,0.2,0.8,0.4,1.3,0.7c0.7,0.3,1.2,0.6,1.6,0.8c0.4,0.3,0.8,0.6,1.1,1.1
		c0.3,0.5,0.5,1.1,0.5,1.8c0,1-0.3,1.9-1,2.5c-0.6,0.6-1.5,0.9-2.5,0.9C162.5,93.3,161.6,93,161,92.4"/>
	<path class="st1" d="M174.5,80.3h0.8c0.2,0,0.2,0.1,0.2,0.3V93c0,0.2-0.1,0.3-0.2,0.3h-0.8c-0.2,0-0.2-0.1-0.2-0.3V92
		c0-0.1,0-0.1,0-0.1c0,0-0.1,0-0.1,0c-0.5,0.9-1.3,1.4-2.5,1.4c-1,0-1.7-0.3-2.3-0.9c-0.6-0.6-0.9-1.6-0.9-2.8v-9.1
		c0-0.2,0.1-0.3,0.2-0.3h0.8c0.2,0,0.2,0.1,0.2,0.3v8.8c0,0.9,0.2,1.7,0.6,2.1c0.4,0.5,0.9,0.7,1.6,0.7c0.7,0,1.3-0.3,1.7-0.8
		c0.4-0.5,0.6-1.3,0.6-2.3v-8.6C174.2,80.4,174.3,80.3,174.5,80.3"/>
	<path class="st1" d="M177.8,93V75.5c0-0.2,0.1-0.3,0.2-0.3h0.8c0.2,0,0.2,0.1,0.2,0.3V93c0,0.2-0.1,0.3-0.2,0.3h-0.8
		C177.9,93.2,177.8,93.1,177.8,93"/>
	<path class="st1" d="M188.1,87.2h-5.6c-0.1,0-0.1,0-0.1,0.1v2.2c0,0.8,0.2,1.4,0.6,1.9s1,0.8,1.7,0.8c0.6,0,1.1-0.2,1.5-0.5
		c0.4-0.4,0.7-0.8,0.8-1.4c0-0.2,0.1-0.2,0.3-0.2l0.8,0.1c0.1,0,0.1,0,0.2,0.1c0,0,0.1,0.1,0,0.2v0.1c-0.2,0.9-0.6,1.7-1.2,2.2
		c-0.6,0.5-1.4,0.8-2.4,0.8c-1.1,0-1.9-0.4-2.6-1.1c-0.7-0.7-1-1.6-1-2.8v-5.7c0-1.1,0.3-2.1,1-2.8c0.7-0.7,1.5-1.1,2.6-1.1
		c1.1,0,2,0.4,2.6,1.1c0.7,0.7,1,1.6,1,2.8V87C188.4,87.1,188.3,87.2,188.1,87.2 M183.1,82c-0.4,0.5-0.6,1.2-0.6,2v1.9
		c0,0.1,0,0.1,0.1,0.1h4.5c0.1,0,0.1,0,0.1-0.1V84c0-0.8-0.2-1.5-0.6-2c-0.4-0.5-1-0.8-1.7-0.8C184.1,81.3,183.5,81.5,183.1,82"/>
	<path class="st1" d="M190.8,92.4c-0.6-0.6-1-1.4-1-2.4v-0.2c0-0.2,0.1-0.3,0.2-0.3h0.8c0.2,0,0.2,0.1,0.2,0.3v0.2
		c0,0.6,0.2,1.1,0.6,1.5c0.4,0.4,1,0.6,1.6,0.6c0.6,0,1.2-0.2,1.6-0.6c0.4-0.4,0.6-1,0.6-1.6c0-0.5-0.1-0.9-0.3-1.2
		c-0.2-0.3-0.5-0.6-0.9-0.8c-0.3-0.2-0.8-0.4-1.4-0.7c-0.6-0.3-1.2-0.5-1.6-0.8c-0.4-0.3-0.8-0.6-1-1.1c-0.3-0.5-0.4-1.1-0.4-1.8
		c0-1,0.3-1.9,0.9-2.5c0.6-0.6,1.4-0.9,2.5-0.9c1,0,1.9,0.3,2.5,1c0.6,0.6,0.9,1.5,0.9,2.5v0.1c0,0.2-0.1,0.3-0.2,0.3h-0.7
		c-0.2,0-0.2-0.1-0.2-0.3v-0.1c0-0.6-0.2-1.2-0.6-1.6c-0.4-0.4-0.9-0.6-1.6-0.6c-0.6,0-1.2,0.2-1.6,0.6s-0.6,1-0.6,1.6
		c0,0.5,0.1,0.8,0.3,1.2c0.2,0.3,0.5,0.6,0.8,0.7c0.3,0.2,0.8,0.4,1.3,0.7c0.7,0.3,1.2,0.6,1.6,0.8c0.4,0.3,0.8,0.6,1.1,1.1
		c0.3,0.5,0.5,1.1,0.5,1.8c0,1-0.3,1.9-1,2.5c-0.6,0.6-1.5,0.9-2.5,0.9C192.3,93.3,191.4,93,190.8,92.4"/>
	<path class="st2" d="M42.3,63.8l-4.1,7.7h-5l14.9-27H54l1.6,27h-4.8l-0.3-7.7C50.6,63.8,42.3,63.8,42.3,63.8z M50.6,60.2l-0.3-6.7
		c0-1.4-0.1-3.5-0.1-5.1h-0.1c-0.8,1.6-1.6,3.5-2.5,5.1L44,60.2H50.6z"/>
	<path class="st2" d="M58.8,52.2c1.1-0.2,3.2-0.4,5.2-0.4c2.6,0,4.3,0.3,5.6,1.2c1.2,0.7,2,2,2,3.6c0,1.8-1.1,3.4-3.2,4.2v0.1
		c2.1,0.5,3.9,2.1,3.9,4.8c0,1.7-0.8,3.1-1.9,4c-1.4,1.2-3.7,1.8-7.2,1.8c-2,0-3.5-0.1-4.4-0.3L58.8,52.2L58.8,52.2z M62.3,59.8h1.8
		c2.5,0,3.8-1.2,3.8-2.8c0-1.8-1.4-2.7-3.6-2.7c-1,0-1.6,0.1-2,0.1L62.3,59.8L62.3,59.8z M62.3,68.8c0.5,0.1,1.1,0.1,1.9,0.1
		c2.3,0,4.3-0.9,4.3-3.3c0-2.3-2-3.2-4.4-3.2h-1.8L62.3,68.8L62.3,68.8z"/>
	<path class="st2" d="M74.9,67.5c1.2,0.7,2.9,1.2,4.7,1.2c2.3,0,3.6-1.1,3.6-2.7c0-1.5-1-2.3-3.5-3.2c-3.2-1.2-5.3-2.9-5.3-5.7
		c0-3.2,2.7-5.6,6.9-5.6c2.1,0,3.7,0.5,4.7,1l-0.9,2.9c-0.7-0.4-2.1-0.9-3.9-0.9c-2.3,0-3.2,1.2-3.2,2.3c0,1.5,1.1,2.2,3.7,3.2
		c3.4,1.3,5,3,5,5.8c0,3.1-2.4,5.8-7.4,5.8c-2.1,0-4.2-0.6-5.3-1.2L74.9,67.5z"/>
	<path class="st2" d="M107.2,61.4c0,6.5-4,10.3-9.3,10.3c-5.5,0-9-4.2-9-9.9c0-6,3.8-10.2,9.3-10.2
		C103.8,51.6,107.2,55.9,107.2,61.4 M92.6,61.7c0,4,2,7.1,5.4,7.1c3.4,0,5.4-3.2,5.4-7.3c0-3.7-1.8-7.1-5.4-7.1
		C94.5,54.4,92.6,57.7,92.6,61.7"/>
	<path class="st2" d="M109.9,52.2c1.3-0.2,3.3-0.4,5.4-0.4c2.8,0,4.7,0.5,6,1.6c1.1,0.9,1.7,2.3,1.7,3.9c0,2.5-1.7,4.2-3.5,4.9v0.1
		c1.4,0.5,2.2,1.9,2.7,3.8c0.6,2.4,1.1,4.7,1.5,5.4H120c-0.3-0.6-0.8-2.2-1.3-4.6c-0.5-2.5-1.5-3.4-3.5-3.4h-1.8v8h-3.5L109.9,52.2
		L109.9,52.2z M113.4,60.8h2.1c2.4,0,3.9-1.3,3.9-3.2c0-2.1-1.5-3.1-3.8-3.1c-1.1,0-1.8,0.1-2.2,0.2V60.8z"/>
	<rect x="126.3" y="51.9" class="st2" width="3.6" height="19.5"/>
	<path class="st2" d="M147.7,70.8c-0.8,0.4-2.7,0.9-5,0.9c-6.2,0-9.9-3.9-9.9-9.8c0-6.4,4.5-10.3,10.4-10.3c2.3,0,4,0.5,4.7,0.9
		l-0.8,2.8c-0.9-0.4-2.2-0.8-3.8-0.8c-4,0-6.8,2.5-6.8,7.2c0,4.3,2.5,7,6.8,7c1.4,0,2.9-0.3,3.9-0.7L147.7,70.8z"/>
	<path class="st2" d="M154.3,65.9l-1.7,5.5H149l6.2-19.5h4.5l6.3,19.5h-3.8l-1.8-5.5H154.3z M159.9,63.2l-1.5-4.8
		c-0.4-1.2-0.7-2.5-1-3.6h-0.1c-0.3,1.1-0.6,2.5-0.9,3.6l-1.5,4.8H159.9z"/>
	<polygon class="st3" points="56.4,44.5 56.7,49.6 167.9,49.6 168.2,44.5 	"/>
	<path class="st3" d="M189.9,67.6c0.6,0.1,1.3,0.1,2.1,0.1c5.4,0,8.4-3.2,7.7-10.3c-0.6-6.2-3.5-9.4-7.9-9.4c-1.2,0-1.7,0.2-2,0.3
		C189.9,48.6,189.9,67.6,189.9,67.6 M185.8,44.7c1.6-0.4,3.5-0.6,5.6-0.6c3.7,0,6.6,1.2,8.6,3.3c2.1,2.2,3.4,5,3.9,9.6
		c0.5,4.8-0.5,8.6-2.5,10.9c-2,2.5-5.5,3.7-10,3.7c-2.5,0-4.2-0.1-5.7-0.3V44.7z"/>
	<polygon class="st3" points="170.3,44.5 174.4,44.5 174.4,67.6 183.6,67.6 183.6,71.7 170.3,71.7 	"/>
	<path class="st3" d="M204.8,44.6v0.6h-1.2v3.2h-0.8v-3.2h-1.2v-0.6H204.8z M208.9,48.4l-0.1-2.3c0-0.3,0-0.7,0-1.1h0
		c-0.1,0.3-0.2,0.8-0.3,1.1l-0.7,2.1h-0.8l-0.7-2.2c-0.1-0.3-0.2-0.7-0.3-1.1h0c0,0.4,0,0.7,0,1.1l-0.1,2.3H205l0.3-3.8h1.1l0.7,1.9
		c0.1,0.3,0.2,0.6,0.3,1h0c0.1-0.4,0.2-0.7,0.3-1l0.7-1.9h1.1l0.3,3.8H208.9z"/>
	<g>
		<path class="st1" d="M49.2,103.9c0.3,0.2,0.5,0.4,0.7,0.7c0.2,0.4,0.3,0.9,0.3,1.4c0,0.5-0.1,0.9-0.2,1.2c-0.1,0.4-0.4,0.8-0.7,1
			c-0.3,0.2-0.7,0.4-1.1,0.4c-0.4,0-0.8-0.1-1.1-0.3c-0.3-0.2-0.5-0.6-0.7-1c-0.1-0.4-0.2-0.8-0.2-1.2c0-0.5,0.1-1,0.2-1.3
			c0.1-0.3,0.4-0.6,0.7-0.8c0,0,0,0,0-0.1c-0.3-0.1-0.5-0.4-0.7-0.7c-0.2-0.3-0.3-0.8-0.3-1.3c0-0.5,0.1-0.9,0.3-1.3
			c0.2-0.3,0.4-0.5,0.7-0.7c0.3-0.2,0.6-0.3,1-0.3c0.4,0,0.7,0.1,1,0.2s0.5,0.4,0.7,0.7c0.2,0.3,0.3,0.8,0.3,1.3
			c0,0.5-0.1,0.9-0.3,1.2C49.7,103.4,49.5,103.6,49.2,103.9C49.2,103.8,49.2,103.8,49.2,103.9z M47.1,101.9c0,0.4,0.1,0.7,0.2,0.9
			c0.2,0.4,0.5,0.6,0.9,0.6c0.2,0,0.4-0.1,0.6-0.2c0.2-0.1,0.3-0.3,0.4-0.5c0.1-0.2,0.2-0.5,0.2-0.9c0-0.4-0.1-0.7-0.2-0.9
			c-0.2-0.4-0.5-0.6-0.9-0.6c-0.4,0-0.7,0.2-0.9,0.6C47.1,101.2,47.1,101.5,47.1,101.9z M49.3,106c0-0.4-0.1-0.8-0.2-1.1
			c-0.2-0.5-0.5-0.7-0.9-0.7c-0.2,0-0.4,0.1-0.6,0.2c-0.2,0.1-0.3,0.3-0.4,0.6c-0.1,0.3-0.1,0.6-0.1,1c0,0.3,0,0.6,0.1,0.9
			c0.1,0.3,0.2,0.5,0.4,0.7c0.2,0.2,0.4,0.2,0.6,0.2c0.2,0,0.5-0.1,0.6-0.2c0.2-0.2,0.3-0.4,0.4-0.7C49.3,106.6,49.3,106.3,49.3,106
			z"/>
		<path class="st1" d="M58,102.6c0.3,0.4,0.4,0.9,0.4,1.5v4.2c0,0.1,0,0.1-0.1,0.1h-0.6c-0.1,0-0.1,0-0.1-0.1v-4.1
			c0-0.4-0.1-0.8-0.3-1c-0.2-0.2-0.4-0.4-0.7-0.4c-0.3,0-0.6,0.1-0.7,0.4c-0.2,0.2-0.3,0.6-0.3,1v4.1c0,0.1,0,0.1-0.1,0.1h-0.6
			c-0.1,0-0.1,0-0.1-0.1v-4.1c0-0.4-0.1-0.8-0.3-1c-0.2-0.2-0.4-0.4-0.7-0.4c-0.3,0-0.6,0.1-0.8,0.4c-0.2,0.2-0.3,0.6-0.3,1v4.1
			c0,0.1,0,0.1-0.1,0.1h-0.6c-0.1,0-0.1,0-0.1-0.1v-6c0-0.1,0-0.1,0.1-0.1h0.6c0.1,0,0.1,0,0.1,0.1v0.4c0,0,0,0,0,0c0,0,0,0,0,0
			c0.2-0.2,0.3-0.4,0.6-0.5c0.2-0.1,0.4-0.1,0.7-0.1c0.3,0,0.6,0.1,0.8,0.2c0.2,0.2,0.4,0.4,0.5,0.7c0,0,0,0,0,0s0,0,0,0
			c0.1-0.3,0.4-0.5,0.6-0.7c0.3-0.1,0.5-0.2,0.8-0.2C57.3,102.1,57.7,102.2,58,102.6z"/>
		<path class="st1" d="M63.1,102.1h0.6c0.1,0,0.1,0,0.1,0.1v6c0,0.9-0.2,1.6-0.6,2s-1.1,0.7-2.1,0.6c-0.1,0-0.1-0.1-0.1-0.1v-0.5
			c0-0.1,0-0.1,0.1-0.1c0.7,0,1.1-0.1,1.4-0.5c0.3-0.3,0.4-0.8,0.4-1.5v-0.4c0,0,0,0,0,0c0,0,0,0,0,0c-0.1,0.2-0.3,0.4-0.5,0.5
			s-0.5,0.2-0.7,0.2c-0.5,0-0.9-0.2-1.2-0.5s-0.5-0.8-0.5-1.4V104c0-0.6,0.2-1,0.5-1.4s0.7-0.5,1.2-0.5c0.2,0,0.5,0.1,0.7,0.2
			s0.4,0.3,0.5,0.5c0,0,0,0,0,0c0,0,0,0,0,0v-0.4C63,102.2,63,102.1,63.1,102.1z M62.7,107.4c0.2-0.2,0.3-0.5,0.3-0.9V104
			c0-0.4-0.1-0.6-0.3-0.9c-0.2-0.2-0.4-0.3-0.8-0.3c-0.3,0-0.6,0.1-0.8,0.3c-0.2,0.2-0.3,0.5-0.3,0.9v2.5c0,0.3,0.1,0.6,0.3,0.9
			c0.2,0.2,0.5,0.3,0.8,0.3C62.2,107.7,62.5,107.6,62.7,107.4z"/>
		<path class="st1" d="M68.2,106c-0.2-0.2-0.4-0.5-0.4-0.9c0-0.3,0.1-0.6,0.4-0.9c0.2-0.2,0.5-0.4,0.9-0.4c0.3,0,0.6,0.1,0.9,0.4
			c0.2,0.2,0.4,0.5,0.4,0.9c0,0.3-0.1,0.6-0.4,0.9c-0.2,0.2-0.5,0.4-0.9,0.4C68.7,106.4,68.4,106.3,68.2,106z"/>
		<path class="st1" d="M75.3,99.7h0.7c0.1,0,0.1,0,0.1,0.1v8.5c0,0.1,0,0.1-0.1,0.1h-0.6c-0.1,0-0.1,0-0.1-0.1v-7.5c0,0,0,0,0,0
			c0,0,0,0,0,0l-1.2,0.4l0,0c-0.1,0-0.1,0-0.1-0.1l-0.1-0.5v0c0,0,0-0.1,0.1-0.1l1.3-0.6C75.2,99.7,75.2,99.7,75.3,99.7z"/>
		<path class="st1" d="M81.7,105.8c0,0.4,0,0.7,0,0.9c-0.1,0.6-0.3,1-0.6,1.4c-0.3,0.3-0.8,0.5-1.3,0.5c-0.5,0-0.9-0.1-1.3-0.4
			c-0.3-0.3-0.5-0.7-0.6-1.3c-0.1-0.3-0.1-0.6-0.1-1l0-4.1c0-0.6,0.2-1.2,0.5-1.5c0.4-0.4,0.8-0.6,1.4-0.6c0.5,0,1,0.2,1.3,0.6
			s0.5,0.9,0.5,1.5v0.2c0,0.1,0,0.1-0.1,0.1h-0.6c-0.1,0-0.1,0-0.1-0.1v-0.2c0-0.4-0.1-0.7-0.3-1c-0.2-0.3-0.4-0.4-0.7-0.4
			c-0.3,0-0.6,0.1-0.8,0.4c-0.2,0.2-0.3,0.6-0.3,1v1.7c0,0,0,0,0,0c0,0,0,0,0,0c0.1-0.2,0.3-0.3,0.4-0.4c0.2-0.1,0.4-0.1,0.6-0.1
			c0.5,0,0.9,0.2,1.2,0.5c0.3,0.3,0.5,0.7,0.6,1.3C81.7,105,81.7,105.4,81.7,105.8z M80.8,105.7c0-0.4,0-0.7-0.1-1.1
			c-0.1-0.3-0.2-0.5-0.4-0.7c-0.2-0.2-0.4-0.2-0.6-0.2c-0.5,0-0.9,0.3-1,1c0,0.3-0.1,0.6-0.1,1c0,0.4,0,0.7,0.1,1
			c0.1,0.7,0.5,1.1,1,1.1c0.3,0,0.5-0.1,0.7-0.3c0.2-0.2,0.3-0.5,0.4-0.8C80.8,106.3,80.8,106,80.8,105.7z"/>
		<path class="st1" d="M89.4,102.6c0.3,0.4,0.4,0.9,0.4,1.5v4.2c0,0.1,0,0.1-0.1,0.1H89c-0.1,0-0.1,0-0.1-0.1v-4.1
			c0-0.4-0.1-0.8-0.3-1c-0.2-0.2-0.4-0.4-0.7-0.4c-0.3,0-0.6,0.1-0.7,0.4c-0.2,0.2-0.3,0.6-0.3,1v4.1c0,0.1,0,0.1-0.1,0.1h-0.6
			c-0.1,0-0.1,0-0.1-0.1v-4.1c0-0.4-0.1-0.8-0.3-1c-0.2-0.2-0.4-0.4-0.7-0.4c-0.3,0-0.6,0.1-0.8,0.4c-0.2,0.2-0.3,0.6-0.3,1v4.1
			c0,0.1,0,0.1-0.1,0.1h-0.6c-0.1,0-0.1,0-0.1-0.1v-6c0-0.1,0-0.1,0.1-0.1h0.6c0.1,0,0.1,0,0.1,0.1v0.4c0,0,0,0,0,0c0,0,0,0,0,0
			c0.2-0.2,0.3-0.4,0.6-0.5c0.2-0.1,0.4-0.1,0.7-0.1c0.3,0,0.6,0.1,0.8,0.2s0.4,0.4,0.5,0.7c0,0,0,0,0,0s0,0,0,0
			c0.1-0.3,0.4-0.5,0.6-0.7c0.3-0.1,0.5-0.2,0.8-0.2C88.7,102.1,89.1,102.2,89.4,102.6z"/>
		<path class="st1" d="M94.5,102.1h0.6c0.1,0,0.1,0,0.1,0.1v6c0,0.9-0.2,1.6-0.6,2s-1.1,0.7-2.1,0.6c-0.1,0-0.1-0.1-0.1-0.1v-0.5
			c0-0.1,0-0.1,0.1-0.1c0.7,0,1.1-0.1,1.4-0.5c0.3-0.3,0.4-0.8,0.4-1.5v-0.4c0,0,0,0,0,0c0,0,0,0,0,0c-0.1,0.2-0.3,0.4-0.5,0.5
			c-0.2,0.1-0.5,0.2-0.7,0.2c-0.5,0-0.9-0.2-1.2-0.5c-0.3-0.3-0.5-0.8-0.5-1.4V104c0-0.6,0.2-1,0.5-1.4c0.3-0.3,0.7-0.5,1.2-0.5
			c0.2,0,0.5,0.1,0.7,0.2c0.2,0.1,0.4,0.3,0.5,0.5c0,0,0,0,0,0c0,0,0,0,0,0v-0.4C94.3,102.2,94.4,102.1,94.5,102.1z M94,107.4
			c0.2-0.2,0.3-0.5,0.3-0.9V104c0-0.4-0.1-0.6-0.3-0.9c-0.2-0.2-0.4-0.3-0.8-0.3c-0.3,0-0.6,0.1-0.8,0.3c-0.2,0.2-0.3,0.5-0.3,0.9
			v2.5c0,0.3,0.1,0.6,0.3,0.9c0.2,0.2,0.5,0.3,0.8,0.3C93.6,107.7,93.8,107.6,94,107.4z"/>
		<path class="st1" d="M99.5,106c-0.2-0.2-0.4-0.5-0.4-0.9c0-0.3,0.1-0.6,0.4-0.9c0.2-0.2,0.5-0.4,0.9-0.4c0.3,0,0.6,0.1,0.9,0.4
			c0.2,0.2,0.4,0.5,0.4,0.9c0,0.3-0.1,0.6-0.4,0.9c-0.2,0.2-0.5,0.4-0.9,0.4C100.1,106.4,99.8,106.3,99.5,106z"/>
		<path class="st1" d="M106.5,107.6C106.5,107.7,106.5,107.7,106.5,107.6l3,0c0.1,0,0.1,0,0.1,0.1v0.5c0,0.1,0,0.1-0.1,0.1h-3.9
			c-0.1,0-0.1,0-0.1-0.1v-0.6c0-0.1,0-0.1,0-0.2c0.3-0.4,0.4-0.6,0.4-0.7c0.7-1.2,1.3-2.1,1.7-2.8c0.5-0.9,0.8-1.7,0.8-2.3
			c0-0.4-0.1-0.8-0.3-1c-0.2-0.3-0.5-0.4-0.8-0.4c-0.3,0-0.6,0.1-0.8,0.4c-0.2,0.3-0.3,0.6-0.3,1v0.5c0,0.1,0,0.1-0.1,0.1h-0.6
			c-0.1,0-0.1,0-0.1-0.1v-0.5c0-0.6,0.2-1.2,0.6-1.5c0.4-0.4,0.8-0.6,1.4-0.6s1,0.2,1.4,0.6c0.4,0.4,0.5,0.9,0.5,1.6
			c0,0.8-0.3,1.7-0.9,2.6c-0.3,0.5-0.7,1.2-1.3,2L106.5,107.6C106.5,107.6,106.5,107.6,106.5,107.6z"/>
		<path class="st1" d="M115.1,105.4v0.5c0,0.1,0,0.1-0.1,0.1h-0.4c0,0,0,0,0,0v2.2c0,0.1,0,0.1-0.1,0.1h-0.6c-0.1,0-0.1,0-0.1-0.1
			v-2.2c0,0,0,0,0,0h-3c-0.1,0-0.1,0-0.1-0.1v-0.5c0,0,0-0.1,0-0.1l1.9-5.5c0-0.1,0.1-0.1,0.1-0.1h0.7c0.1,0,0.1,0,0.1,0.1l-1.8,5.3
			c0,0,0,0,0,0c0,0,0,0,0,0h2.1c0,0,0,0,0,0v-1.9c0-0.1,0-0.1,0.1-0.1h0.6c0.1,0,0.1,0,0.1,0.1v1.9c0,0,0,0,0,0h0.4
			C115,105.2,115.1,105.3,115.1,105.4z"/>
		<path class="st1" d="M122.5,102.6c0.3,0.4,0.4,0.9,0.4,1.5v4.2c0,0.1,0,0.1-0.1,0.1h-0.6c-0.1,0-0.1,0-0.1-0.1v-4.1
			c0-0.4-0.1-0.8-0.3-1c-0.2-0.2-0.4-0.4-0.7-0.4c-0.3,0-0.6,0.1-0.7,0.4c-0.2,0.2-0.3,0.6-0.3,1v4.1c0,0.1,0,0.1-0.1,0.1h-0.6
			c-0.1,0-0.1,0-0.1-0.1v-4.1c0-0.4-0.1-0.8-0.3-1c-0.2-0.2-0.4-0.4-0.7-0.4c-0.3,0-0.6,0.1-0.8,0.4c-0.2,0.2-0.3,0.6-0.3,1v4.1
			c0,0.1,0,0.1-0.1,0.1h-0.6c-0.1,0-0.1,0-0.1-0.1v-6c0-0.1,0-0.1,0.1-0.1h0.6c0.1,0,0.1,0,0.1,0.1v0.4c0,0,0,0,0,0c0,0,0,0,0,0
			c0.2-0.2,0.3-0.4,0.6-0.5c0.2-0.1,0.4-0.1,0.7-0.1c0.3,0,0.6,0.1,0.8,0.2s0.4,0.4,0.5,0.7c0,0,0,0,0,0s0,0,0,0
			c0.1-0.3,0.4-0.5,0.6-0.7c0.3-0.1,0.5-0.2,0.8-0.2C121.9,102.1,122.3,102.2,122.5,102.6z"/>
		<path class="st1" d="M127.6,102.1h0.6c0.1,0,0.1,0,0.1,0.1v6c0,0.9-0.2,1.6-0.6,2s-1.1,0.7-2.1,0.6c-0.1,0-0.1-0.1-0.1-0.1v-0.5
			c0-0.1,0-0.1,0.1-0.1c0.7,0,1.1-0.1,1.4-0.5c0.3-0.3,0.4-0.8,0.4-1.5v-0.4c0,0,0,0,0,0c0,0,0,0,0,0c-0.1,0.2-0.3,0.4-0.5,0.5
			c-0.2,0.1-0.5,0.2-0.7,0.2c-0.5,0-0.9-0.2-1.2-0.5c-0.3-0.3-0.5-0.8-0.5-1.4V104c0-0.6,0.2-1,0.5-1.4c0.3-0.3,0.7-0.5,1.2-0.5
			c0.2,0,0.5,0.1,0.7,0.2c0.2,0.1,0.4,0.3,0.5,0.5c0,0,0,0,0,0c0,0,0,0,0,0v-0.4C127.5,102.2,127.6,102.1,127.6,102.1z M127.2,107.4
			c0.2-0.2,0.3-0.5,0.3-0.9V104c0-0.4-0.1-0.6-0.3-0.9c-0.2-0.2-0.4-0.3-0.8-0.3c-0.3,0-0.6,0.1-0.8,0.3c-0.2,0.2-0.3,0.5-0.3,0.9
			v2.5c0,0.3,0.1,0.6,0.3,0.9c0.2,0.2,0.5,0.3,0.8,0.3C126.8,107.7,127,107.6,127.2,107.4z"/>
		<path class="st1" d="M132.7,106c-0.2-0.2-0.4-0.5-0.4-0.9c0-0.3,0.1-0.6,0.4-0.9c0.2-0.2,0.5-0.4,0.9-0.4c0.3,0,0.6,0.1,0.9,0.4
			c0.2,0.2,0.4,0.5,0.4,0.9c0,0.3-0.1,0.6-0.4,0.9c-0.2,0.2-0.5,0.4-0.9,0.4C133.3,106.4,133,106.3,132.7,106z"/>
		<path class="st1" d="M142.6,105.8c0,0.4,0,0.8-0.1,1.2c-0.2,1-0.8,1.5-1.8,1.5c-0.5,0-1-0.1-1.3-0.4c-0.3-0.3-0.5-0.7-0.6-1.2
			c0-0.3-0.1-0.6-0.1-1c0-0.1,0-0.1,0.1-0.1h0.6c0.1,0,0.1,0,0.1,0.1c0,0.3,0,0.6,0.1,0.8c0.1,0.7,0.5,1,1,1c0.3,0,0.5-0.1,0.6-0.2
			c0.2-0.2,0.3-0.4,0.4-0.7c0.1-0.3,0.1-0.7,0.1-1.1c0-0.5,0-1-0.1-1.3c-0.1-0.3-0.2-0.5-0.4-0.6c-0.2-0.1-0.4-0.2-0.6-0.2
			c-0.1,0-0.2,0-0.3,0.1c-0.1,0-0.1,0-0.2,0l-0.3-0.3c0-0.1,0-0.1,0-0.2l1.7-2.6c0,0,0,0,0,0c0,0,0,0,0,0h-2.6c-0.1,0-0.1,0-0.1-0.1
			v-0.5c0-0.1,0-0.1,0.1-0.1h3.6c0.1,0,0.1,0,0.1,0.1v0.6c0,0,0,0.1,0,0.2L141,103c0,0,0,0,0,0c0,0,0,0,0,0c0.3,0,0.6,0.2,0.9,0.4
			c0.2,0.2,0.4,0.5,0.5,0.9C142.5,104.8,142.6,105.3,142.6,105.8z"/>
		<path class="st1" d="M145.1,107.6C145.1,107.7,145.1,107.7,145.1,107.6l3,0c0.1,0,0.1,0,0.1,0.1v0.5c0,0.1,0,0.1-0.1,0.1h-3.9
			c-0.1,0-0.1,0-0.1-0.1v-0.6c0-0.1,0-0.1,0-0.2c0.3-0.4,0.4-0.6,0.4-0.7c0.7-1.2,1.3-2.1,1.7-2.8c0.5-0.9,0.8-1.7,0.8-2.3
			c0-0.4-0.1-0.8-0.3-1c-0.2-0.3-0.5-0.4-0.8-0.4c-0.3,0-0.6,0.1-0.8,0.4c-0.2,0.3-0.3,0.6-0.3,1v0.5c0,0.1,0,0.1-0.1,0.1h-0.6
			c-0.1,0-0.1,0-0.1-0.1v-0.5c0-0.6,0.2-1.2,0.6-1.5c0.4-0.4,0.8-0.6,1.4-0.6c0.6,0,1,0.2,1.4,0.6c0.4,0.4,0.5,0.9,0.5,1.6
			c0,0.8-0.3,1.7-0.9,2.6c-0.3,0.5-0.7,1.2-1.3,2L145.1,107.6C145,107.6,145,107.6,145.1,107.6z"/>
		<path class="st1" d="M155.7,102.6c0.3,0.4,0.4,0.9,0.4,1.5v4.2c0,0.1,0,0.1-0.1,0.1h-0.6c-0.1,0-0.1,0-0.1-0.1v-4.1
			c0-0.4-0.1-0.8-0.3-1c-0.2-0.2-0.4-0.4-0.7-0.4c-0.3,0-0.6,0.1-0.7,0.4c-0.2,0.2-0.3,0.6-0.3,1v4.1c0,0.1,0,0.1-0.1,0.1h-0.6
			c-0.1,0-0.1,0-0.1-0.1v-4.1c0-0.4-0.1-0.8-0.3-1c-0.2-0.2-0.4-0.4-0.7-0.4c-0.3,0-0.6,0.1-0.8,0.4c-0.2,0.2-0.3,0.6-0.3,1v4.1
			c0,0.1,0,0.1-0.1,0.1h-0.6c-0.1,0-0.1,0-0.1-0.1v-6c0-0.1,0-0.1,0.1-0.1h0.6c0.1,0,0.1,0,0.1,0.1v0.4c0,0,0,0,0,0c0,0,0,0,0,0
			c0.2-0.2,0.3-0.4,0.6-0.5c0.2-0.1,0.4-0.1,0.7-0.1c0.3,0,0.6,0.1,0.8,0.2c0.2,0.2,0.4,0.4,0.5,0.7c0,0,0,0,0,0s0,0,0,0
			c0.1-0.3,0.4-0.5,0.6-0.7c0.3-0.1,0.5-0.2,0.8-0.2C155,102.1,155.4,102.2,155.7,102.6z"/>
		<path class="st1" d="M160.8,102.1h0.6c0.1,0,0.1,0,0.1,0.1v6c0,0.9-0.2,1.6-0.6,2c-0.4,0.5-1.1,0.7-2.1,0.6
			c-0.1,0-0.1-0.1-0.1-0.1v-0.5c0-0.1,0-0.1,0.1-0.1c0.7,0,1.1-0.1,1.4-0.5c0.3-0.3,0.4-0.8,0.4-1.5v-0.4c0,0,0,0,0,0s0,0,0,0
			c-0.1,0.2-0.3,0.4-0.5,0.5s-0.5,0.2-0.7,0.2c-0.5,0-0.9-0.2-1.2-0.5c-0.3-0.3-0.5-0.8-0.5-1.4V104c0-0.6,0.2-1,0.5-1.4
			c0.3-0.3,0.7-0.5,1.2-0.5c0.2,0,0.5,0.1,0.7,0.2c0.2,0.1,0.4,0.3,0.5,0.5c0,0,0,0,0,0c0,0,0,0,0,0v-0.4
			C160.7,102.2,160.7,102.1,160.8,102.1z M160.4,107.4c0.2-0.2,0.3-0.5,0.3-0.9V104c0-0.4-0.1-0.6-0.3-0.9c-0.2-0.2-0.4-0.3-0.8-0.3
			c-0.3,0-0.6,0.1-0.8,0.3c-0.2,0.2-0.3,0.5-0.3,0.9v2.5c0,0.3,0.1,0.6,0.3,0.9c0.2,0.2,0.5,0.3,0.8,0.3
			C159.9,107.7,160.2,107.6,160.4,107.4z"/>
	</g>
</g>
</svg>
