<svg width="243" height="144" viewBox="0 0 243 144" fill="none" xmlns="http://www.w3.org/2000/svg">
<path d="M0 6C0 2.68629 2.68629 0 6 0H237C240.314 0 243 2.68629 243 6V138C243 141.314 240.314 144 237 144H6C2.68629 144 0 141.314 0 138V6Z" fill="white"/>
<path d="M132.172 40.5625C133.3 40.5625 134.863 40.7361 136.079 41.1703C136.773 41.4307 137.381 41.5176 137.902 41.6912C138.076 43.1672 138.336 45.0773 138.77 47.4215L137.381 47.682" fill="#C84A37"/>
<path d="M137.295 47.7689C136.513 45.251 135.211 42.299 131.564 42.299C128.786 42.299 127.223 44.3828 127.223 46.8138C127.223 49.2449 128.96 50.8077 132.259 52.2837L133.388 52.8046C136.687 54.2806 139.813 56.538 139.813 60.966C139.813 66.0885 135.819 69.6483 130.088 69.6483C128.439 69.6483 126.963 69.301 125.834 68.9537C124.619 68.6064 123.837 68.2591 123.316 68.0855C122.969 66.9568 122.448 64.0916 122.014 61.4869L123.316 61.0528C124.184 63.3102 126.529 67.9986 130.87 67.9986C133.648 67.9986 135.385 65.8281 135.385 63.1365C135.385 60.7055 134.256 59.0559 130.87 57.4062L129.481 56.7117C126.702 55.2357 123.056 52.9783 123.056 48.8108C123.056 44.296 126.442 40.6494 132.172 40.6494" fill="#C84A37"/>
<path d="M149.45 49.8525V50.6339C147.192 50.8076 147.019 51.0681 147.019 54.1937V64.5256C147.019 67.7381 147.279 67.9117 149.537 68.0854V68.8668H141.202V68.0854C143.459 67.9117 143.719 67.6512 143.719 64.5256V54.1937C143.719 50.9812 143.459 50.8076 141.202 50.6339V49.8525H149.45Z" fill="#C84A37"/>
<path d="M150.665 54.4543C150.752 52.5442 150.926 50.5473 151.013 49.0713H151.534C151.968 49.7659 152.228 49.8527 153.097 49.8527H165.252C166.033 49.8527 166.207 49.679 166.641 49.0713H167.075C167.162 50.2868 167.249 52.5442 167.422 54.4543L166.554 54.5411C166.294 52.9783 165.946 52.2837 165.425 51.8496C164.904 51.3287 163.949 51.155 162.126 51.155H160.563V64.6994C160.563 67.9119 160.824 68.0855 163.515 68.2592V69.0406H154.486V68.2592C157.09 68.0855 157.351 67.825 157.264 64.6994V51.155H156.222C153.704 51.155 152.923 51.5023 152.489 52.0233C152.141 52.4574 151.794 53.2388 151.447 54.628L150.665 54.4543Z" fill="#C84A37"/>
<path d="M181.922 49.7656C182.008 50.1997 182.095 52.3703 182.269 54.1936L181.401 54.2804C181.14 52.8912 180.793 52.023 180.272 51.5889C179.751 51.068 178.796 50.8943 176.973 50.8943H175.497C174.368 50.8943 174.281 50.8943 174.281 51.9362V58.1874H176.799C179.317 58.1874 179.404 58.0138 179.664 55.7564H180.619V62.0077H179.664C179.404 59.6634 179.317 59.5766 176.799 59.5766H174.281V64.4387C174.281 66.1752 174.368 66.9566 174.889 67.3907C175.41 67.738 176.452 67.738 177.754 67.738C179.23 67.738 180.532 67.6511 181.227 66.8697C181.748 66.3488 182.269 65.3069 182.703 63.9178L183.571 64.0914C183.484 65.1333 182.79 68.0853 182.616 68.9535H168.29V68.1721C170.808 67.9984 171.069 67.738 171.069 64.6123V54.2804C171.069 51.068 170.808 50.8943 168.638 50.7207V49.9393L181.922 49.7656Z" fill="#C84A37"/>
<path d="M185.742 49.9395C185.481 49.9395 185.308 50.0263 185.047 50.1131C184.787 50.1999 184.613 50.3736 184.526 50.634C184.439 50.8945 184.353 51.0682 184.353 51.3286C184.353 51.5891 184.439 51.8496 184.526 52.0232C184.613 52.2837 184.787 52.4573 185.047 52.5441C185.308 52.631 185.481 52.7178 185.742 52.7178C186.002 52.7178 186.263 52.631 186.436 52.5441C186.697 52.4573 186.871 52.2837 186.957 52.0232C187.044 51.7627 187.131 51.5891 187.131 51.3286C187.131 51.0682 187.044 50.8077 186.957 50.634C186.871 50.3736 186.697 50.1999 186.436 50.1131C186.263 49.9395 186.002 49.9395 185.742 49.9395Z" fill="#FDFDFE"/>
<path fill-rule="evenodd" clip-rule="evenodd" d="M70.007 46.3798C70.007 47.5953 69.7465 48.724 69.3124 49.7659C68.8783 50.8078 68.1837 51.7628 67.2287 52.4574C66.2736 53.2388 65.2317 53.7597 63.9294 54.0202C66.6209 55.3226 67.9232 57.6668 67.9232 61.0529C67.9232 62.6157 67.5759 64.0917 66.9682 65.3072C66.3604 66.5227 65.579 67.5646 64.7976 68.2592C64.2767 68.6933 63.6689 69.0406 62.9743 69.2142C62.8863 69.2362 62.7997 69.2582 62.7144 69.2799L62.7139 69.28C62.1268 69.4292 61.6058 69.5615 61.151 69.5615C60.5433 69.6483 59.9355 69.6483 59.2409 69.6483H50.4718L50.9059 67.6514C51.6005 67.6514 52.0346 67.3909 52.3819 66.7832C52.7292 66.2622 52.9897 65.394 53.1633 64.2653L56.9836 45.5984C57.1572 44.817 57.244 44.296 57.244 43.8619C57.244 42.4728 56.6363 41.7782 55.5076 41.7782L55.9417 39.7812H63.9294C64.7976 39.7812 65.4922 39.8681 66.1 39.9549C66.7077 40.1285 67.3155 40.389 67.8364 40.9099C68.4442 41.4309 69.0519 42.2123 69.3992 43.0805C69.8333 44.1224 70.007 45.1643 70.007 46.3798ZM63.8422 58.7086C63.8422 57.1458 63.5817 56.1907 63.0608 55.7566C62.5398 55.3225 61.9321 55.1489 61.1507 55.1489H59.0669L57.3304 63.6575C57.1568 64.3521 57.07 64.9599 57.07 65.5676C57.07 66.0885 57.2436 66.5227 57.5909 66.9568C57.9382 67.3909 58.546 67.5645 59.3274 67.5645C59.9351 67.5645 60.6297 67.3909 61.2375 66.9568C61.8452 66.5227 62.3662 65.5676 62.8871 64.0916C63.1476 63.397 63.3212 62.5288 63.4949 61.4869C63.7553 60.5319 63.8422 59.5768 63.8422 58.7086ZM65.3186 42.5596C65.8395 42.8201 66.1 43.6883 66.1 44.9907C66.1 45.9457 65.9263 47.0744 65.6659 48.3768C65.3186 49.6791 64.9713 50.6341 64.4503 51.3287C64.103 51.7628 63.6689 52.1101 63.0612 52.4574C62.4534 52.8047 61.672 52.9784 60.8906 52.9784H59.5014L61.7588 42.0387H62.9743C64.0162 42.0387 64.7976 42.2123 65.3186 42.5596Z" fill="#3E3A64"/>
<path d="M80.8598 53.9334C80.8598 54.8885 80.6861 55.6699 80.3388 56.3645C79.9915 57.059 79.5574 57.4063 79.0365 57.4063C78.6024 57.4063 78.1682 57.059 77.7341 56.2776C77.4737 55.8435 77.3 55.5831 77.0395 55.5831C76.7791 55.5831 76.4318 55.9304 75.9108 56.7118C75.4767 57.4932 74.9558 58.4482 74.5217 59.6637C74.0007 60.8793 73.5666 62.3552 73.1325 63.9181C72.6984 65.4809 72.2643 67.1305 71.917 68.867L71.7433 69.7352H68.2704L70.5278 57.3195C70.7883 56.104 70.8751 55.3226 70.8751 54.8017C70.8751 54.628 70.8751 54.4544 70.7883 54.2807C70.7015 54.1071 70.6146 54.0202 70.441 54.0202C70.0937 54.0202 69.6596 54.4544 69.3123 55.2358C68.8782 56.0172 68.6177 56.7986 68.4441 57.4063L65.4053 58.535C66.013 56.7986 68.2704 54.3675 68.8782 53.4125C69.486 52.4574 70.0069 51.8497 70.6146 51.5024C71.1356 51.1551 71.6565 50.9814 72.0906 50.9814C72.872 50.9814 73.393 51.3287 73.6535 52.1101C73.9139 52.8047 74.0007 53.5861 74.0007 54.2807C74.0007 55.5831 73.7403 57.58 73.2193 60.3583C73.7403 58.8823 74.2612 57.7536 74.6085 56.8854C74.9558 56.0172 75.3899 55.1489 75.9108 54.1939C76.4318 53.2388 76.9527 52.5443 77.4737 51.9365C77.9946 51.3287 78.6024 51.0683 79.1233 51.0683C79.9047 51.0683 80.3388 51.4156 80.5993 52.0233C80.6861 52.6311 80.8598 53.3257 80.8598 53.9334Z" fill="#3E3A64"/>
<path fill-rule="evenodd" clip-rule="evenodd" d="M91.9728 63.1367C92.4069 61.6607 92.5805 60.2715 92.5805 58.7955C92.5805 57.4063 92.4069 56.104 91.9728 54.8885C91.5387 53.673 90.8441 52.7179 89.9759 52.0233C89.1076 51.3287 88.0657 50.9814 86.8502 50.9814C85.3742 50.9814 83.9851 51.5024 82.7695 52.5443C81.554 53.5861 80.5122 55.0621 79.8176 56.7986C79.123 58.6219 78.7757 60.4451 78.7757 62.4421C78.7757 64.0049 78.9493 65.394 79.4703 66.6096C79.9044 67.7383 80.599 68.6933 81.4672 69.3879C82.3354 70.0825 83.3773 70.4298 84.506 70.4298C85.6347 70.4298 86.7634 70.0825 87.7185 69.4747C88.7603 68.867 89.6286 67.9987 90.3231 66.87C91.0177 65.7413 91.6255 64.5258 91.9728 63.1367ZM88.5002 54.0202C88.9343 54.8016 89.108 55.8435 89.108 57.2327C89.108 58.1009 89.0212 59.1428 88.8475 60.4451C88.6739 61.7475 88.3266 63.0498 87.9793 64.2653C87.632 65.4809 87.1111 66.5227 86.5033 67.3041C85.8955 68.0855 85.201 68.5197 84.4196 68.5197C83.725 68.5197 83.1172 68.0855 82.7699 67.3041C82.3358 66.4359 82.1622 65.4809 82.1622 64.1785C82.1622 63.3103 82.249 62.1816 82.4226 60.9661C82.5963 59.7505 82.9436 58.4482 83.2909 57.2327C83.725 55.9303 84.1591 54.8885 84.7668 54.1071C85.3746 53.3257 86.0692 52.8915 86.7638 52.8915C87.5452 52.8915 88.1529 53.2388 88.5002 54.0202Z" fill="#3E3A64"/>
<path d="M122.1 61.4C120.624 65.4807 116.717 69.9955 114.547 69.9955C113.765 69.9955 113.245 69.6482 112.81 69.0404C112.376 68.4327 112.203 67.7381 112.203 66.9567C112.203 66.3489 112.289 65.5675 112.55 64.5256L113.679 58.969C113.939 57.6666 114.113 56.8852 114.113 56.4511C114.113 55.9302 114.026 55.4961 113.765 55.2356C113.592 54.8883 113.245 54.8015 112.897 54.8015C112.116 54.8015 111.161 55.4961 110.293 56.8852C109.337 58.2744 108.469 60.0108 107.688 62.1814C106.906 64.352 106.299 66.5226 105.865 68.6931L105.691 69.735H102.218L104.475 58.6217C104.649 57.6666 104.736 56.972 104.736 56.5379C104.736 56.017 104.649 55.6697 104.475 55.3224C104.302 54.9751 104.041 54.8015 103.694 54.8015C102.999 54.8015 102.305 55.2356 101.61 56.1038C100.916 56.972 100.221 58.1007 99.6133 59.4899C99.0056 60.8791 98.3978 62.4419 97.8769 64.0915C97.3559 65.7412 96.9218 67.3908 96.5745 69.0404L96.4009 69.735H92.928L95.4458 57.0589C95.7063 55.6697 95.8799 54.8015 95.8799 54.4542C95.8799 54.1937 95.7931 54.0201 95.7063 53.9332C95.6195 53.7596 95.5326 53.7596 95.359 53.7596C95.1853 53.7596 95.0117 53.8464 94.8381 54.0201C94.6644 54.1937 94.4039 54.541 94.1435 55.0619C93.883 55.5829 93.6225 56.2775 93.2752 57.1457H91.9729C92.407 55.5829 93.0148 54.1069 93.7962 52.8914C94.5776 51.6758 95.6195 50.9813 96.835 50.9813C97.2691 50.9813 97.6164 51.0681 97.9637 51.3286C98.311 51.589 98.6583 51.9363 98.8319 52.3704C99.0924 52.8914 99.1792 53.4991 99.1792 54.1937C99.1792 54.9751 99.0056 56.2775 98.6583 57.9271L98.2242 60.0108C98.7451 58.6217 99.3528 57.3193 99.9606 56.1906C100.568 55.0619 101.263 54.1069 101.871 53.2387C102.565 52.4573 103.173 51.8495 103.781 51.4154C104.389 51.0681 104.996 50.8944 105.604 50.8944C106.386 50.8944 107.08 51.2417 107.601 51.8495C108.122 52.4573 108.382 53.3255 108.382 54.3674C108.382 55.1488 108.209 56.2775 107.948 57.8403L107.514 59.7504C108.122 58.2744 108.73 56.7984 109.511 55.4961C110.293 54.1937 111.074 53.065 112.029 52.1968C112.984 51.3286 114.026 50.8076 115.068 50.8076C115.676 50.8076 116.196 50.9813 116.631 51.4154C117.065 51.7627 117.325 52.2836 117.499 52.8045C117.672 53.3255 117.759 53.8464 117.759 54.3674C117.759 54.8015 117.759 55.2356 117.672 55.4961C117.586 55.8433 117.499 56.5379 117.325 57.493L115.936 64.352C115.762 65.2202 115.676 65.828 115.676 66.0884C115.676 66.6094 115.849 66.783 116.11 66.783C116.37 66.783 116.717 66.5226 117.152 66.0884C117.586 65.6543 118.02 64.7861 118.454 63.5706L122.1 61.4Z" fill="#3E3A64"/>
<path d="M193.729 101.425C193.729 100.47 194.164 99.8623 194.598 99.8623C195.119 99.8623 195.466 100.47 195.466 101.425C195.466 102.38 195.119 102.988 194.598 102.988C194.077 102.988 193.729 102.38 193.729 101.425Z" fill="#5E6062"/>
<path d="M21.2992 82.6719C20.2573 85.1029 19.4759 88.8363 19.4759 93.7852C19.4759 98.6473 20.3441 102.381 21.2992 104.812H20.2573C19.3023 102.728 18.3472 99.0814 18.3472 93.7852C18.3472 88.4022 19.3891 84.7556 20.2573 82.7587H21.2992V82.6719Z" fill="#5E6062"/>
<path fill-rule="evenodd" clip-rule="evenodd" d="M190.083 102.728C191.733 102.728 193.035 100.037 193.035 93.6116C193.035 87.9681 192.08 84.582 190.257 84.582C188.346 84.582 187.218 87.7077 187.218 93.6984C187.218 99.4287 188.346 102.728 190.083 102.728ZM190.169 100.905C189.041 100.905 188.607 97.8659 188.607 93.6116C188.607 89.3573 189.041 86.3185 190.083 86.3185C191.211 86.3185 191.645 89.4441 191.645 93.6116C191.645 97.8659 191.211 100.905 190.169 100.905Z" fill="#5E6062"/>
<path fill-rule="evenodd" clip-rule="evenodd" d="M199.46 102.728C201.109 102.728 202.412 100.037 202.412 93.6116C202.412 87.9681 201.457 84.582 199.633 84.582C197.723 84.582 196.595 87.7077 196.595 93.6984C196.595 99.4287 197.723 102.728 199.46 102.728ZM199.546 100.905C198.418 100.905 197.984 97.8659 197.984 93.6116C197.984 89.3573 198.418 86.3185 199.46 86.3185C200.588 86.3185 201.022 89.4441 201.022 93.6116C201.022 97.8659 200.588 100.905 199.546 100.905Z" fill="#5E6062"/>
<path d="M208.663 84.7549V85.9704L204.93 102.467H203.628L207.274 86.665V86.5782H203.193V84.7549H208.663V84.7549Z" fill="#5E6062"/>
<path d="M214.741 86.579H211.615L211.181 91.2674C211.355 91.1806 211.441 91.1806 211.615 91.1806C212.223 91.1806 213.178 91.6147 213.786 92.4829C214.393 93.438 214.741 94.7403 214.741 96.4768C214.741 100.037 213.351 102.554 211.268 102.554C210.573 102.554 209.792 102.294 209.358 101.773L209.618 100.123C209.965 100.471 210.573 100.818 211.181 100.818C212.31 100.818 213.351 99.4287 213.351 96.7372C213.351 93.9589 212.223 92.7434 210.747 92.7434C210.313 92.7434 210.052 92.7434 209.879 92.8302L210.573 84.582H214.654V86.579H214.741Z" fill="#5E6062"/>
<path fill-rule="evenodd" clip-rule="evenodd" d="M220.124 89.965C220.124 93.6983 219.082 95.348 217.953 95.348C216.738 95.348 215.783 93.2642 215.783 89.965C215.783 86.492 216.738 84.4951 217.953 84.4951C219.256 84.5819 220.124 86.6657 220.124 89.965ZM216.825 89.965C216.825 91.7883 217.085 94.0457 217.953 94.0457C218.821 94.0457 219.082 91.7883 219.082 89.965C219.082 88.2286 218.908 85.8844 217.953 85.8844C217.085 85.8844 216.825 88.1418 216.825 89.965ZM223.51 84.582L217.519 102.728H218.387L224.378 84.582H223.51ZM226.028 97.2581C226.028 100.992 224.986 102.641 223.857 102.641C222.555 102.641 221.686 100.644 221.686 97.2581C221.686 93.872 222.641 91.8751 223.857 91.8751C225.246 91.9619 226.028 94.0457 226.028 97.2581ZM223.944 101.339C223.075 101.339 222.815 99.0814 222.815 97.2581C222.815 95.5217 222.989 93.2643 223.944 93.1774C224.899 93.1774 225.072 95.5217 225.072 97.2581C225.072 99.0814 224.812 101.339 223.944 101.339Z" fill="#5E6062"/>
<path d="M28.679 91.7883C28.679 90.6596 28.5922 89.3572 28.5922 88.4022H29.8077L29.8945 90.4859C30.155 89.2704 30.9364 88.2285 31.7178 88.2285C31.8046 88.2285 31.8915 88.2285 31.9783 88.2285V90.3991C31.8915 90.3991 31.8046 90.3991 31.7178 90.3991C30.8496 90.3991 30.2418 91.6146 30.0682 93.1774C30.0682 93.5247 29.9814 93.9588 29.9814 94.3929V101.686H28.5922V91.7883H28.679Z" fill="#5E6062"/>
<path fill-rule="evenodd" clip-rule="evenodd" d="M34.7568 101.773C36.0592 101.773 37.622 100.036 37.622 94.9138C37.622 90.3122 36.4065 88.1416 34.8436 88.1416C33.3677 88.1416 31.9785 90.1385 31.9785 95.0006C31.9785 99.6022 33.194 101.773 34.7568 101.773ZM34.8432 100.036C33.6277 100.036 33.3672 97.0843 33.3672 94.9137C33.3672 92.9168 33.6277 89.7912 34.8432 89.7912C35.9719 89.7912 36.2324 92.9168 36.2324 94.9137C36.2324 96.9106 35.9719 100.036 34.8432 100.036Z" fill="#5E6062"/>
<path d="M38.7508 91.7883C38.7508 90.2254 38.664 89.444 38.664 88.4022H39.8795L39.9663 90.0518C40.3136 89.0099 41.0082 88.2285 41.8764 88.2285C42.6578 88.2285 43.3524 88.8363 43.6129 90.2254C43.8733 89.5309 44.1338 89.0099 44.4811 88.7495C44.8284 88.4022 45.2625 88.2285 45.6966 88.2285C46.8253 88.2285 47.7804 89.5309 47.7804 92.917V101.512H46.478V93.2642C46.478 91.5278 46.3044 89.8782 45.2625 89.8782C44.7416 89.8782 44.2206 90.5727 44.047 91.8751C44.047 92.2224 43.9602 92.6565 43.9602 93.0906V101.599H42.6578V92.917C42.6578 91.441 42.4842 89.8782 41.4423 89.8782C40.9214 89.8782 40.3136 90.5727 40.14 91.9619C40.14 92.3092 40.0531 92.6565 40.0531 93.0906V101.426H38.7508V91.7883Z" fill="#5E6062"/>
<path d="M49.5167 101.512V89.9647H48.4749V88.3151H49.5167V87.5337C49.5167 86.1445 49.6904 84.6685 50.2981 83.5398C50.8191 82.6716 51.5137 82.4111 52.0346 82.4111C52.4687 82.4111 52.816 82.5848 53.0765 82.7584L52.816 84.4081C52.6424 84.3212 52.4687 84.2344 52.0346 84.2344C51.0795 84.2344 50.8191 85.884 50.8191 87.5337V88.3151H52.3819V89.9647H50.8191V101.512H49.5167Z" fill="#5E6062"/>
<path fill-rule="evenodd" clip-rule="evenodd" d="M53.7712 95.2612C53.7862 99.1821 54.8199 100.123 55.768 100.123C56.3758 100.123 56.8099 99.8628 57.1572 99.6023L57.3308 101.165C56.8967 101.599 56.1153 101.773 55.5075 101.773C53.4238 101.773 52.3819 99.1682 52.3819 95.1743C52.3819 90.92 53.5106 88.2285 55.2471 88.2285C56.9835 88.2285 57.6781 91.0937 57.6781 94.0457V95.2612H53.7712ZM55.0733 89.7914C55.7679 89.7914 56.3756 91.0069 56.3756 93.6116H53.6841C53.7709 91.7883 54.205 89.7914 55.0733 89.7914Z" fill="#5E6062"/>
<path d="M58.7201 91.7882C58.7201 90.2254 58.6332 89.4439 58.6332 88.4021H59.8488L59.9356 89.9649C60.2829 88.923 60.9775 88.1416 61.9325 88.1416C63.148 88.1416 64.0163 89.5308 64.0163 92.6564V101.512H62.6271V93.0037C62.6271 91.4409 62.4534 89.8781 61.4116 89.8781C60.8906 89.8781 60.2829 90.5726 60.1092 92.0486C60.1092 92.3959 60.0224 92.7432 60.0224 93.1773V101.512H58.6332V91.7882H58.7201Z" fill="#5E6062"/>
<path fill-rule="evenodd" clip-rule="evenodd" d="M68.7912 100.123L68.878 101.512V101.599H70.1804C70.0936 100.731 70.0936 99.6022 70.0936 98.5604V92.83C70.0936 89.8781 69.399 88.1416 67.6625 88.1416C66.7943 88.1416 66.0129 88.5757 65.6656 89.0098L65.9261 90.4858C66.2734 90.0517 66.7943 89.7912 67.3152 89.7912C68.4439 89.7912 68.7044 91.0936 68.7044 92.83V93.2642C66.7943 93.2642 65.0578 94.7401 65.0578 98.0394C65.0578 100.297 65.9261 101.773 67.0548 101.773C67.7493 101.773 68.3571 101.165 68.7044 100.123H68.7912ZM66.2736 97.779C66.2736 94.9138 67.9232 94.7402 68.6178 94.7402V97.4317V98.1263C68.4442 99.4286 67.9232 100.123 67.3155 100.123C66.7945 100.123 66.2736 99.5154 66.2736 97.779Z" fill="#5E6062"/>
<path d="M75.6502 101.252C75.3898 101.512 74.8688 101.773 74.2611 101.773C72.351 101.773 71.1354 99.4287 71.1354 95.0875C71.1354 91.2673 72.351 88.2285 74.5215 88.2285C74.9556 88.2285 75.4766 88.4022 75.7371 88.6626L75.4766 90.3991C75.3029 90.2254 74.9556 90.0518 74.5215 90.0518C73.1324 90.0518 72.5246 92.5697 72.5246 95.1743C72.5246 98.2132 73.306 100.123 74.5215 100.123C74.8688 100.123 75.2161 99.9496 75.4766 99.776L75.6502 101.252Z" fill="#5E6062"/>
<path fill-rule="evenodd" clip-rule="evenodd" d="M86.1859 89.6288C86.211 90.3597 86.2425 91.2793 86.2425 92.4827V106.722H87.6317V100.21C87.8921 100.991 88.3262 101.773 89.1076 101.773C90.41 101.773 91.7123 99.7759 91.7123 94.9138C91.7123 90.5726 90.7573 88.1416 89.2813 88.1416C88.5867 88.1416 87.8921 88.6625 87.458 90.0517L87.3712 88.4021H86.1557C86.1557 88.7471 86.1694 89.1469 86.1859 89.6288ZM87.7188 97.8657C87.632 97.5184 87.632 97.1711 87.632 96.737H87.7188V93.5246V92.4827C87.8056 91.2672 88.3266 90.0517 88.9343 90.0517C89.9762 90.0517 90.4103 92.3959 90.4103 95.0874C90.4103 97.6921 90.063 100.123 88.9343 100.123C88.587 100.123 87.9793 99.7758 87.7188 97.8657Z" fill="#5E6062"/>
<path fill-rule="evenodd" clip-rule="evenodd" d="M23.6436 83.1055H22.2544V97.3444C22.2544 98.5249 22.2241 99.402 22.1993 100.119C22.1821 100.615 22.1676 101.035 22.1676 101.425H23.3831L23.4699 99.7755C23.9909 101.165 24.5986 101.686 25.2932 101.686C26.7692 101.686 27.7243 99.2545 27.7243 94.9134C27.7243 90.0513 26.4219 88.0544 25.1196 88.0544C24.3382 88.0544 23.9041 88.9226 23.6436 89.6172V83.1055ZM23.6433 97.6048V96.563H23.5565V93.3505C23.5565 92.9164 23.5565 92.4823 23.6433 92.2218C23.9038 90.3117 24.5116 89.9644 24.8589 89.9644C25.9876 89.9644 26.3348 92.3086 26.3348 95.0001C26.3348 97.7785 25.9007 100.036 24.8589 100.036C24.2511 100.036 23.7302 98.8204 23.6433 97.6048Z" fill="#5E6062"/>
<path d="M92.928 82.6719H94.3171V89.7914C94.4908 89.3572 94.7513 88.9231 95.0117 88.6627C95.359 88.4022 95.6195 88.1417 96.1404 88.1417C97.1823 88.1417 98.1374 89.4441 98.1374 92.8302V101.512H96.7482V93.0038C96.7482 91.3542 96.4877 89.8782 95.6195 89.8782C95.0117 89.8782 94.4908 90.5728 94.3171 91.9619C94.3171 92.2224 94.2303 92.6565 94.2303 93.0038V101.512H92.8412V82.6719H92.928Z" fill="#5E6062"/>
<path d="M101.176 84.8418V88.3147H102.826V89.9643H101.176V97.7784C101.176 99.5149 101.61 99.949 102.044 99.949C102.218 99.949 102.392 99.949 102.565 99.8622L102.652 101.512C102.392 101.685 102.131 101.772 101.61 101.772C101.089 101.772 100.568 101.512 100.308 100.991C99.9605 100.383 99.7869 99.5149 99.7869 97.6916V90.0512H98.745V88.4015H99.7869V85.5364L101.176 84.8418Z" fill="#5E6062"/>
<path d="M103.607 82.6719H104.996V89.7914C105.17 89.3572 105.43 88.9231 105.691 88.6627C106.038 88.4022 106.299 88.1417 106.82 88.1417C107.861 88.1417 108.816 89.4441 108.816 92.8302V101.512H107.427V93.0038C107.427 91.3542 107.167 89.8782 106.299 89.8782C105.691 89.8782 105.17 90.5728 104.996 91.9619C104.996 92.2224 104.909 92.6565 104.909 93.0038V101.512H103.52V82.6719H103.607Z" fill="#5E6062"/>
<path fill-rule="evenodd" clip-rule="evenodd" d="M113.592 100.123L113.679 101.512V101.599H114.981C114.894 100.731 114.894 99.6022 114.894 98.5604V92.83C114.894 89.8781 114.2 88.1416 112.463 88.1416C111.595 88.1416 110.814 88.5757 110.467 89.0098L110.727 90.4858C111.074 90.0517 111.595 89.7912 112.116 89.7912C113.245 89.7912 113.505 91.0936 113.505 92.83V93.2642C111.595 93.2642 109.859 94.7401 109.859 98.0394C109.859 100.297 110.727 101.773 111.856 101.773C112.55 101.773 113.158 101.165 113.505 100.123H113.592ZM111.161 97.779C111.161 94.9138 112.811 94.7402 113.505 94.7402V97.4317V98.1263C113.332 99.4286 112.811 100.123 112.203 100.123C111.682 100.123 111.161 99.5154 111.161 97.779Z" fill="#5E6062"/>
<path d="M116.37 82.6719H117.76V101.512H116.37V82.6719Z" fill="#5E6062"/>
<path d="M119.322 91.7883C119.322 90.2254 119.236 89.444 119.236 88.4022H120.451L120.538 90.0518C120.885 89.0099 121.58 88.2285 122.448 88.2285C123.229 88.2285 123.924 88.8363 124.184 90.2254C124.445 89.5309 124.705 89.0099 125.053 88.7495C125.4 88.4022 125.834 88.2285 126.268 88.2285C127.397 88.2285 128.352 89.5309 128.352 92.917V101.512H127.05V93.2642C127.05 91.5278 126.876 89.8782 125.834 89.8782C125.313 89.8782 124.792 90.5727 124.619 91.8751C124.619 92.2224 124.532 92.6565 124.532 93.0906V101.599H123.229V92.917C123.229 91.441 123.056 89.8782 122.014 89.8782C121.493 89.8782 120.885 90.5727 120.712 91.9619C120.712 92.3092 120.625 92.6565 120.625 93.0906V101.426H119.322V91.7883Z" fill="#5E6062"/>
<path fill-rule="evenodd" clip-rule="evenodd" d="M130.436 86.3184C130.957 86.3184 131.304 85.7106 131.304 84.9292C131.304 84.1478 130.957 83.6269 130.436 83.54C130.002 83.54 129.654 84.1478 129.654 84.9292C129.654 85.7974 130.002 86.3184 130.436 86.3184ZM129.828 88.3153V101.512H131.217V88.3153H129.828Z" fill="#5E6062"/>
<path d="M136.774 101.252C136.513 101.512 135.992 101.773 135.385 101.773C133.474 101.773 132.259 99.4287 132.259 95.0875C132.259 91.2673 133.474 88.2285 135.645 88.2285C136.079 88.2285 136.6 88.4022 136.861 88.6626L136.6 90.3991C136.426 90.2254 136.079 90.0518 135.645 90.0518C134.256 90.0518 133.648 92.5697 133.648 95.1743C133.648 98.2132 134.43 100.123 135.645 100.123C135.992 100.123 136.34 99.9496 136.6 99.776L136.774 101.252Z" fill="#5E6062"/>
<path d="M139.726 99.8627C140.16 100.123 140.854 100.384 141.462 100.384C142.678 100.384 143.459 99.5154 143.459 98.1262C143.459 96.9107 142.851 96.1293 141.896 95.3479C140.941 94.6533 139.639 93.351 139.639 91.6145C139.639 89.6176 140.854 88.1416 142.764 88.1416C143.459 88.1416 144.154 88.4021 144.414 88.6625L144.067 89.9649C143.806 89.7044 143.285 89.5308 142.678 89.5308C141.549 89.5308 140.941 90.4858 140.941 91.4409C140.941 92.7432 141.549 93.2642 142.678 94.2192C144.067 95.3479 144.761 96.5634 144.761 98.0394C144.761 100.297 143.285 101.773 141.462 101.773C140.681 101.773 139.812 101.512 139.465 101.165L139.726 99.8627Z" fill="#5E6062"/>
<path fill-rule="evenodd" clip-rule="evenodd" d="M148.321 101.773C149.623 101.773 151.186 100.036 151.186 94.9138C151.186 90.3122 149.971 88.1416 148.408 88.1416C146.932 88.1416 145.543 90.1385 145.543 95.0006C145.543 99.6022 146.758 101.773 148.321 101.773ZM148.408 100.036C147.192 100.036 146.932 97.0843 146.932 94.9137C146.932 92.9168 147.192 89.7912 148.408 89.7912C149.536 89.7912 149.797 92.9168 149.797 94.9137C149.797 96.9106 149.536 100.036 148.408 100.036Z" fill="#5E6062"/>
<path fill-rule="evenodd" clip-rule="evenodd" d="M82.5094 101.773C83.8118 101.773 85.3746 100.036 85.3746 94.9138C85.3746 90.3122 84.1591 88.1416 82.5963 88.1416C81.1203 88.1416 79.7311 90.1385 79.7311 95.0006C79.7311 99.6022 80.9466 101.773 82.5094 101.773ZM82.596 100.036C81.3805 100.036 81.12 97.0843 81.12 94.9137C81.12 92.9168 81.3805 89.7912 82.596 89.7912C83.7247 89.7912 83.9852 92.9168 83.9852 94.9137C83.9852 96.9106 83.7247 100.036 82.596 100.036Z" fill="#5E6062"/>
<path d="M152.315 82.6719H153.704V101.512H152.315V82.6719Z" fill="#5E6062"/>
<path d="M160.39 97.9529C160.39 99.4289 160.476 100.558 160.476 101.513H159.261L159.174 100.123C158.914 100.818 158.219 101.773 157.351 101.773C155.875 101.773 155.267 99.9498 155.267 96.7373V88.4023H156.656V96.4769C156.656 98.5606 156.83 100.037 157.785 100.037C158.566 100.037 158.914 98.9079 159 98.3002C159.087 97.9529 159.087 97.5187 159.087 97.0846V88.4023H160.476V97.9529H160.39Z" fill="#5E6062"/>
<path d="M163.515 84.8418V88.3147H165.165V89.9643H163.515V97.7784C163.515 99.5149 163.949 99.949 164.384 99.949C164.557 99.949 164.731 99.949 164.904 99.8622L164.991 101.512C164.731 101.685 164.47 101.772 163.949 101.772C163.429 101.772 162.908 101.512 162.647 100.991C162.3 100.383 162.126 99.5149 162.126 97.6916V90.0512H161.084V88.4015H162.126V85.5364L163.515 84.8418Z" fill="#5E6062"/>
<path fill-rule="evenodd" clip-rule="evenodd" d="M166.554 86.3184C167.075 86.3184 167.422 85.7106 167.422 84.9292C167.422 84.1478 167.075 83.6269 166.554 83.54C166.12 83.54 165.772 84.1478 165.772 84.9292C165.772 85.7974 166.12 86.3184 166.554 86.3184ZM165.946 88.3153V101.512H167.336V88.3153H165.946Z" fill="#5E6062"/>
<path fill-rule="evenodd" clip-rule="evenodd" d="M171.155 101.773C172.458 101.773 174.021 100.036 174.021 94.9138C174.021 90.3122 172.805 88.1416 171.242 88.1416C169.766 88.1416 168.377 90.1385 168.377 95.0006C168.377 99.6022 169.593 101.773 171.155 101.773ZM171.242 100.036C170.026 100.036 169.766 97.0843 169.766 94.9137C169.766 92.9168 170.026 89.7912 171.242 89.7912C172.371 89.7912 172.631 92.9168 172.631 94.9137C172.631 96.9106 172.371 100.036 171.242 100.036Z" fill="#5E6062"/>
<path d="M175.149 91.7882C175.149 90.2254 175.063 89.4439 175.063 88.4021H176.278L176.365 89.9649C176.712 88.923 177.407 88.1416 178.362 88.1416C179.577 88.1416 180.446 89.5308 180.446 92.6564V101.512H179.056V93.0037C179.056 91.4409 178.883 89.8781 177.841 89.8781C177.32 89.8781 176.712 90.5726 176.539 92.0486C176.539 92.3959 176.452 92.7432 176.452 93.1773V101.512H175.149V91.7882Z" fill="#5E6062"/>
<path d="M181.054 104.812C182.095 102.381 182.877 98.6473 182.877 93.6984C182.877 88.7495 182.009 85.1029 181.054 82.6719H182.095C183.05 84.6688 184.006 88.3154 184.006 93.6984C184.006 99.0814 182.964 102.728 182.095 104.812H181.054Z" fill="#5E6062"/>
<path d="M186.176 50.6339C186.089 50.4603 186.089 50.2867 186.002 50.1998C185.915 50.113 185.829 50.113 185.568 50.113H185.308V52.1968C185.308 52.544 185.308 52.544 185.742 52.6309V52.8045H184.439V52.6309C184.787 52.6309 184.873 52.544 184.873 52.1968V50.113H184.7C184.353 50.113 184.266 50.113 184.179 50.1998C184.092 50.2867 184.092 50.3735 184.005 50.6339H183.832C183.832 50.3735 183.832 50.0262 183.918 49.8525H184.005L184.266 49.9394H186.002L186.263 49.8525H186.349C186.349 50.0262 186.349 50.3735 186.349 50.6339" fill="#C84A37"/>
<path d="M188.867 52.7177V52.544C189.215 52.544 189.215 52.4572 189.215 52.1099V50.4603L188.26 52.7177H188.173L187.305 50.4603L187.218 51.589C187.218 51.9363 187.218 52.1099 187.218 52.2836C187.218 52.4572 187.305 52.544 187.565 52.544V52.7177H186.523V52.544C186.784 52.544 186.87 52.4572 186.87 52.2836C186.87 52.1099 186.957 51.9363 186.957 51.5022L187.044 50.6339C187.044 50.113 187.044 50.113 186.697 50.0262V49.8525H187.478L188.346 51.8495L189.215 49.8525H189.996V50.0262C189.649 50.0262 189.649 50.113 189.649 50.4603V52.0231C189.649 52.4572 189.649 52.4572 189.996 52.4572V52.6309" fill="#C84A37"/>
</svg>
