<svg width="243" height="144" viewBox="0 0 243 144" fill="none" xmlns="http://www.w3.org/2000/svg">
<path d="M0 6C0 2.68629 2.68629 0 6 0H237C240.314 0 243 2.68629 243 6V138C243 141.314 240.314 144 237 144H6C2.68629 144 0 141.314 0 138V6Z" fill="white"/>
<path d="M25.8019 109.259C24.9009 105.355 24.4204 100.91 24.4204 96.706C24.4204 92.5016 24.9009 88.117 25.8019 84.2129H26.5226C25.8619 87.8767 25.5616 92.3814 25.5616 96.766C25.5616 101.091 25.8019 105.655 26.5226 109.319H25.8019V109.259Z" fill="#58595B"/>
<path d="M31.3279 100.009V103.192C31.3279 104.153 30.8474 104.934 29.526 104.934C28.1446 104.934 27.6641 104.213 27.6641 103.192V92.0807C27.6641 90.9996 28.1446 90.3389 29.526 90.3389C30.8474 90.3389 31.3279 90.9996 31.3279 92.0807V94.9637H30.3068V92.2008C30.3068 91.6002 30.1867 91.2398 29.526 91.2398C28.8653 91.2398 28.6851 91.6603 28.6851 92.2008V103.252C28.6851 103.673 28.8653 104.093 29.526 104.093C30.1867 104.093 30.3068 103.673 30.3068 103.312V100.009H31.3279Z" fill="#58595B"/>
<path d="M34.0304 110.1H33.1895L33.7902 104.935L32.0483 90.5195H33.0694L34.2707 102.892H34.3307L35.4719 90.5195H36.493L34.0304 110.1Z" fill="#58595B"/>
<path d="M40.8777 100.009V103.192C40.8777 104.153 40.3972 104.934 39.0758 104.934C37.6944 104.934 37.2139 104.213 37.2139 103.192V92.0807C37.2139 90.9996 37.6944 90.3389 39.0758 90.3389C40.3972 90.3389 40.8777 90.9996 40.8777 92.0807V94.9637H39.8566V92.2008C39.8566 91.6002 39.7365 91.2398 39.0758 91.2398C38.4151 91.2398 38.2349 91.6603 38.2349 92.2008V103.252C38.2349 103.673 38.4151 104.093 39.0758 104.093C39.7365 104.093 39.8566 103.673 39.8566 103.312V100.009H40.8777Z" fill="#58595B"/>
<path d="M42.2593 84.2129H43.2803V104.814H42.2593V84.2129Z" fill="#58595B"/>
<path fill-rule="evenodd" clip-rule="evenodd" d="M47.004 90.3994C45.8028 90.3994 45.022 91 45.022 92.2614V103.073C45.022 104.214 45.8028 104.935 47.004 104.935C48.2053 104.935 48.9861 104.214 48.9861 103.073V92.2614C48.9861 91 48.2053 90.3994 47.004 90.3994ZM47.0042 104.094C46.3436 104.094 46.0432 103.613 46.0432 103.073V92.2614C46.0432 91.6608 46.3436 91.2403 47.0042 91.2403C47.725 91.2403 47.9653 91.6608 47.9653 92.2614V103.073C47.9653 103.613 47.725 104.094 47.0042 104.094Z" fill="#58595B"/>
<path d="M51.4488 100.07V103.253C51.4488 103.853 51.8092 104.094 52.2897 104.094C52.7702 104.094 53.1306 103.793 53.1306 103.253V100.79C53.1306 100.009 53.1306 99.4689 52.7702 98.9884L51.0884 96.2255L50.7881 95.6849C50.4878 95.1444 50.4277 94.7239 50.4277 94.0632V92.0211C50.4277 91.1202 51.0284 90.3994 52.2897 90.3994C53.551 90.3994 54.0916 91 54.0916 92.0812V94.5438H53.0705V92.2614C53.0705 91.6607 52.8903 91.3004 52.2897 91.3004C51.6891 91.3004 51.4488 91.7208 51.4488 92.2614V94.1834C51.4488 94.6639 51.5089 95.1444 51.8692 95.6249L52.4098 96.4658L53.7312 98.568C54.0916 99.1686 54.2117 99.7092 54.2117 100.43V103.313C54.2117 104.334 53.551 104.995 52.2897 104.995C51.2086 104.995 50.4878 104.454 50.4878 103.493V100.07H51.4488Z" fill="#58595B"/>
<path fill-rule="evenodd" clip-rule="evenodd" d="M56.6143 90.5195H55.5933V110.04H56.6143V104.274H56.6744C56.8546 104.634 57.275 104.935 57.9357 104.935C58.8967 104.935 59.4973 104.274 59.4973 103.133V92.0812C59.4973 90.94 59.0168 90.3994 57.9958 90.3994C57.3951 90.3994 56.9146 90.6997 56.6744 91.1202H56.6143V90.5195ZM57.6955 104.094C57.215 104.094 56.6143 103.733 56.6143 103.073H56.6744V92.5617C56.6744 91.9611 57.0348 91.2403 57.6354 91.2403C58.2961 91.2403 58.5363 91.6007 58.5363 92.2013V103.073C58.5363 103.733 58.236 104.094 57.6955 104.094Z" fill="#58595B"/>
<path fill-rule="evenodd" clip-rule="evenodd" d="M63.401 90.3994C62.1998 90.3994 61.4189 91 61.4189 92.2614V103.073C61.4189 104.214 62.1998 104.935 63.401 104.935C64.6023 104.935 65.3831 104.214 65.3831 103.073V92.2614C65.3831 91 64.6023 90.3994 63.401 90.3994ZM63.4011 104.094C62.7404 104.094 62.4401 103.613 62.4401 103.073V92.2614C62.4401 91.6608 62.7404 91.2403 63.4011 91.2403C64.1218 91.2403 64.3621 91.6608 64.3621 92.2614V103.073C64.3621 103.613 64.1218 104.094 63.4011 104.094Z" fill="#58595B"/>
<path d="M67.2451 90.5195H68.2662V91.3004H68.3262C68.5064 90.94 68.9869 90.3994 69.7678 90.3994V91.2403C68.8668 91.2403 68.2662 91.7809 68.2662 92.8019V104.815H67.2451V90.5195Z" fill="#58595B"/>
<path fill-rule="evenodd" clip-rule="evenodd" d="M71.9903 86.9756H70.729V88.4772H71.9903V86.9756ZM71.87 90.5193H70.8489V104.814H71.87V90.5193Z" fill="#58595B"/>
<path fill-rule="evenodd" clip-rule="evenodd" d="M132.233 86.9756H130.972V88.4772H132.233V86.9756ZM132.113 90.5193H131.092V104.814H132.113V90.5193Z" fill="#58595B"/>
<path d="M73.6724 90.5195H74.6934V91.3004H74.7535C74.9337 90.94 75.4142 90.3994 76.0749 90.3994C77.0359 90.3994 77.5765 90.8199 77.5765 92.0812V104.815H76.5554V92.4416C76.5554 91.5406 76.3151 91.2403 75.7145 91.2403C75.234 91.2403 74.6934 91.7809 74.6934 92.8019V104.815H73.6724V90.5195H73.6724Z" fill="#58595B"/>
<path fill-rule="evenodd" clip-rule="evenodd" d="M83.1018 103.253V100.07H82.0808V103.133C82.0808 103.673 81.9006 104.094 81.1798 104.094C80.4591 104.094 80.2789 103.733 80.2789 103.133V97.9073H83.1018V92.1412C83.1018 91.0601 82.5012 90.3994 81.1798 90.3994C79.8584 90.3994 79.2578 91.0601 79.2578 92.1412V103.253C79.2578 104.274 79.9185 104.995 81.1798 104.995C82.5012 104.995 83.1018 104.214 83.1018 103.253ZM81.1798 91.2403C81.8405 91.2403 82.0808 91.6007 82.0808 92.2013V97.0064H80.2789V92.2013C80.2789 91.6608 80.5792 91.2403 81.1798 91.2403Z" fill="#58595B"/>
<path fill-rule="evenodd" clip-rule="evenodd" d="M89.9489 90.3994C88.7476 90.3994 87.9668 91 87.9668 92.2614V103.073C87.9668 104.214 88.7476 104.935 89.9489 104.935C91.1501 104.935 91.9309 104.214 91.9309 103.073V92.2614C91.9309 91 91.1501 90.3994 89.9489 90.3994ZM89.9491 104.094C89.2884 104.094 88.9881 103.613 88.9881 103.073V92.2614C88.9881 91.6608 89.2884 91.2403 89.9491 91.2403C90.6699 91.2403 90.9101 91.6608 90.9101 92.2614V103.073C90.9101 103.613 90.6699 104.094 89.9491 104.094Z" fill="#58595B"/>
<path fill-rule="evenodd" clip-rule="evenodd" d="M94.754 90.5195H93.7329V110.04H94.754V104.274H94.814C94.9942 104.634 95.4147 104.935 96.0754 104.935C97.0364 104.935 97.637 104.274 97.637 103.133V92.0812C97.637 90.94 97.1565 90.3994 96.1354 90.3994C95.5348 90.3994 95.0543 90.6997 94.814 91.1202H94.754V90.5195ZM95.8955 104.094C95.415 104.094 94.8143 103.733 94.8143 103.073H94.8744V92.5617C94.8744 91.9611 95.2348 91.2403 95.8354 91.2403C96.4961 91.2403 96.7363 91.6007 96.7363 92.2013V103.073C96.7363 103.733 96.436 104.094 95.8955 104.094Z" fill="#58595B"/>
<path d="M99.5591 84.2129H100.58V91.2402H100.64C100.82 90.8799 101.301 90.3393 101.962 90.3393C102.923 90.3393 103.463 90.7597 103.463 92.0211V104.754H102.442V92.3814C102.442 91.4805 102.202 91.1802 101.601 91.1802C101.121 91.1802 100.58 91.7208 100.58 92.7418V104.754H99.5591V84.2129Z" fill="#58595B"/>
<path d="M104.664 90.5188H105.565V87.9961L106.586 87.3955V90.5188H107.847V91.3597H106.586V103.312C106.586 103.853 106.826 104.093 107.187 104.093H107.847V104.934H107.007C106.106 104.934 105.565 104.573 105.565 103.552V91.3597H104.664V90.5188H104.664Z" fill="#58595B"/>
<path d="M109.109 84.2129H110.13V91.2402H110.191C110.371 90.8799 110.851 90.3393 111.512 90.3393C112.473 90.3393 113.013 90.7597 113.013 92.0211V104.754H111.992V92.3814C111.992 91.4805 111.752 91.1802 111.152 91.1802C110.671 91.1802 110.13 91.7208 110.13 92.7418V104.754H109.109V84.2129Z" fill="#58595B"/>
<path fill-rule="evenodd" clip-rule="evenodd" d="M114.695 91.8409V94.6038H115.716V92.0812C115.716 91.6007 115.956 91.2403 116.677 91.2403C117.338 91.2403 117.518 91.6007 117.518 92.0812V96.2255H117.037C115.235 96.2255 114.695 96.9463 114.695 98.2076V103.673C114.695 104.634 115.356 104.935 116.136 104.935C116.917 104.935 117.278 104.514 117.458 104.094H117.518V104.815H118.539V91.8409C118.539 90.7598 117.818 90.3994 116.677 90.3994C115.476 90.3994 114.695 90.6997 114.695 91.8409ZM116.497 104.094C115.896 104.094 115.716 103.854 115.716 103.433V98.3878C115.716 97.3067 116.257 97.0664 117.218 97.0664H117.518V102.532C117.518 103.433 117.097 104.094 116.497 104.094Z" fill="#58595B"/>
<path d="M120.101 84.2129H121.122V104.814H120.101V84.2129Z" fill="#58595B"/>
<path d="M122.743 90.5195H123.764V91.3004H123.824C124.004 90.94 124.485 90.3994 125.146 90.3994C126.107 90.3994 126.407 90.8799 126.467 91.3604H126.527C126.707 90.94 127.248 90.3994 128.029 90.3994C128.99 90.3994 129.53 90.8199 129.53 92.0812V104.815H128.509V92.4416C128.509 91.5406 128.269 91.2403 127.668 91.2403C127.188 91.2403 126.647 91.7809 126.647 92.8019V104.815H125.626V92.2614C125.626 91.4805 125.386 91.1802 124.785 91.1802C124.305 91.1802 123.764 91.7208 123.764 92.9221V104.815H122.743V90.5195Z" fill="#58595B"/>
<path d="M137.279 100.009V103.192C137.279 104.153 136.798 104.934 135.477 104.934C134.095 104.934 133.615 104.213 133.615 103.192V92.0807C133.615 90.9996 134.095 90.3389 135.477 90.3389C136.798 90.3389 137.279 90.9996 137.279 92.0807V94.9637H136.258V92.2008C136.258 91.6002 136.137 91.2398 135.477 91.2398C134.816 91.2398 134.636 91.6603 134.636 92.2008V103.252C134.636 103.673 134.816 104.093 135.477 104.093C136.137 104.093 136.258 103.673 136.258 103.312V100.009H137.279Z" fill="#58595B"/>
<path d="M142.564 100.07V103.253C142.564 103.853 142.924 104.094 143.405 104.094C143.885 104.094 144.246 103.793 144.246 103.253V100.79C144.246 100.009 144.246 99.4689 143.885 98.9884L142.204 96.2255L141.903 95.6849C141.603 95.1444 141.543 94.7239 141.543 94.0632V92.0211C141.543 91.1202 142.144 90.3994 143.405 90.3994C144.666 90.3994 145.207 91 145.207 92.0812V94.5438H144.186V92.2614C144.186 91.6607 144.006 91.3004 143.405 91.3004C142.804 91.3004 142.564 91.7208 142.564 92.2614V94.1834C142.564 94.6639 142.624 95.1444 142.984 95.6249L143.525 96.4658L144.846 98.568C145.207 99.1686 145.327 99.7092 145.327 100.43V103.313C145.327 104.334 144.666 104.995 143.405 104.995C142.324 104.995 141.603 104.454 141.603 103.493V100.07H142.564Z" fill="#58595B"/>
<path fill-rule="evenodd" clip-rule="evenodd" d="M148.691 90.3994C147.489 90.3994 146.708 91 146.708 92.2614V103.073C146.708 104.214 147.489 104.935 148.691 104.935C149.892 104.935 150.673 104.214 150.673 103.073V92.2614C150.673 91 149.892 90.3994 148.691 90.3994ZM148.751 104.094C148.09 104.094 147.79 103.613 147.79 103.073V92.2614C147.79 91.6608 148.09 91.2403 148.751 91.2403C149.472 91.2403 149.712 91.6608 149.712 92.2614V103.073C149.712 103.613 149.472 104.094 148.751 104.094Z" fill="#58595B"/>
<path d="M152.414 84.2129H153.435V104.814H152.414V84.2129Z" fill="#58595B"/>
<path d="M158.12 104.814V104.034H158.06C157.88 104.394 157.4 104.935 156.739 104.935C155.778 104.935 155.237 104.514 155.237 103.253V90.5195H156.258V102.892C156.258 103.793 156.499 104.094 157.099 104.094C157.58 104.094 158.12 103.553 158.12 102.532V90.5195H159.141V104.814H158.12Z" fill="#58595B"/>
<path d="M160.343 90.5188H161.244V87.9961L162.265 87.3955V90.5188H163.526V91.3597H162.265V103.312C162.265 103.853 162.505 104.093 162.865 104.093H163.526V104.934H162.685C161.784 104.934 161.244 104.573 161.244 103.552V91.3597H160.343V90.5188Z" fill="#58595B"/>
<path fill-rule="evenodd" clip-rule="evenodd" d="M165.809 86.9756H164.547V88.4772H165.809V86.9756ZM165.688 90.5193H164.667V104.814H165.688V90.5193Z" fill="#58595B"/>
<path fill-rule="evenodd" clip-rule="evenodd" d="M169.412 90.3994C168.211 90.3994 167.43 91 167.43 92.2614V103.073C167.43 104.214 168.211 104.935 169.412 104.935C170.614 104.935 171.394 104.214 171.394 103.073V92.2614C171.394 91 170.614 90.3994 169.412 90.3994ZM169.412 104.094C168.752 104.094 168.451 103.613 168.451 103.073V92.2614C168.451 91.6608 168.752 91.2403 169.412 91.2403C170.133 91.2403 170.373 91.6608 170.373 92.2614V103.073C170.373 103.613 170.133 104.094 169.412 104.094Z" fill="#58595B"/>
<path d="M173.256 90.5195H174.277V91.3004H174.337C174.517 90.94 174.998 90.3994 175.658 90.3994C176.619 90.3994 177.16 90.8199 177.16 92.0812V104.815H176.139V92.4416C176.139 91.5406 175.899 91.2403 175.298 91.2403C174.817 91.2403 174.277 91.7809 174.277 92.8019V104.815H173.256V90.5195H173.256Z" fill="#58595B"/>
<path d="M179.443 84.2129C180.344 88.117 180.824 92.5616 180.824 96.766C180.824 100.97 180.344 105.415 179.443 109.319H178.722C179.383 105.655 179.683 101.151 179.683 96.766C179.683 92.4415 179.443 87.8767 178.722 84.2129H179.443Z" fill="#58595B"/>
<path fill-rule="evenodd" clip-rule="evenodd" d="M188.272 84.0928C186.831 84.0928 186.05 84.8135 186.05 85.9547V102.953C186.05 104.214 186.831 104.935 188.272 104.935C189.714 104.935 190.494 104.214 190.494 102.953V86.0748C190.494 84.8135 189.714 84.0928 188.272 84.0928ZM188.272 104.094C187.491 104.094 187.071 103.613 187.071 102.832V86.255C187.071 85.4742 187.491 84.9937 188.272 84.9937C189.053 84.9937 189.473 85.4742 189.473 86.255V102.832C189.473 103.613 189.053 104.094 188.272 104.094Z" fill="#58595B"/>
<path d="M192.417 103.373H193.678V104.875H192.417V103.373Z" fill="#58595B"/>
<path fill-rule="evenodd" clip-rule="evenodd" d="M197.822 84.0928C196.38 84.0928 195.6 84.8135 195.6 85.9547V102.953C195.6 104.214 196.38 104.935 197.822 104.935C199.263 104.935 200.044 104.214 200.044 102.953V86.0748C200.044 84.8135 199.263 84.0928 197.822 84.0928ZM197.822 104.094C197.041 104.094 196.621 103.613 196.621 102.832V86.255C196.621 85.4742 197.041 84.9937 197.822 84.9937C198.603 84.9937 199.023 85.4742 199.023 86.255V102.832C199.023 103.613 198.603 104.094 197.822 104.094Z" fill="#58595B"/>
<path fill-rule="evenodd" clip-rule="evenodd" d="M204.249 104.094C203.528 104.094 203.107 103.613 203.107 102.832H203.168V99.4689H202.146V102.953C202.146 104.214 202.927 104.935 204.309 104.935C205.75 104.935 206.531 104.214 206.531 102.953V86.0748C206.531 84.8135 205.75 84.0928 204.309 84.0928C202.867 84.0928 202.026 84.8135 202.026 86.0748V95.6248C202.026 96.8862 202.447 97.727 203.828 97.727C204.669 97.727 205.21 97.3667 205.39 96.766V102.832C205.39 103.613 205.03 104.094 204.249 104.094ZM204.189 96.8862C203.468 96.8862 203.048 96.4057 203.048 95.5648V86.255C203.048 85.4742 203.468 84.9937 204.129 84.9937C204.97 84.9937 205.45 85.4742 205.45 86.255V95.2645C205.45 96.2255 204.789 96.8862 204.189 96.8862Z" fill="#58595B"/>
<path fill-rule="evenodd" clip-rule="evenodd" d="M213.679 83.252H212.898L209.054 105.836H209.835L213.679 83.252ZM207.853 85.2341C207.853 84.5133 208.333 84.0929 209.114 84.0929C209.895 84.0929 210.315 84.5133 210.375 85.2341V93.763C210.375 94.4837 209.895 94.9042 209.114 94.9042C208.333 94.9042 207.853 94.4837 207.853 93.763V85.2341ZM209.654 85.3541C209.654 84.9937 209.474 84.7535 209.114 84.7535C208.753 84.7535 208.573 84.9937 208.573 85.3541V93.7028C208.573 94.0632 208.753 94.3035 209.114 94.3035C209.474 94.3035 209.654 94.0632 209.654 93.7028V85.3541ZM212.357 95.3246C212.357 94.6039 212.838 94.1834 213.619 94.1834C214.399 94.1834 214.82 94.6039 214.88 95.3246V103.854C214.88 104.574 214.399 104.995 213.619 104.995C212.838 104.995 212.357 104.574 212.357 103.854V95.3246ZM213.619 94.784C213.979 94.784 214.159 95.0243 214.159 95.3846V103.733C214.159 104.094 213.979 104.334 213.619 104.334C213.258 104.334 213.078 104.094 213.078 103.733V95.3846C213.078 95.0243 213.258 94.784 213.619 94.784Z" fill="#58595B"/>
<path fill-rule="evenodd" clip-rule="evenodd" d="M123.584 73.5812C127.308 73.5812 130.311 72.1397 133.194 68.9563L130.311 66.734C128.389 68.9563 126.107 70.1576 123.464 70.1576C119.38 70.1576 116.437 67.5148 115.836 63.851H134.095C134.095 56.3431 129.531 51.2979 122.924 51.2979C116.257 51.2979 111.932 56.3431 111.932 62.4095C111.932 68.1155 116.016 73.5812 123.584 73.5812ZM122.924 54.6614C126.708 54.6614 129.591 57.2441 129.951 60.7878H115.896C116.257 57.8447 118.419 54.6614 122.924 54.6614Z" fill="#0047BA"/>
<path fill-rule="evenodd" clip-rule="evenodd" d="M159.502 51.7784H159.202C157.34 51.7784 155.838 53.2799 155.898 55.1419H155.838C154.096 52.6192 150.853 51.2979 147.73 51.2979C141.724 51.2979 136.618 56.1029 136.618 62.2293C136.618 68.8963 141.904 73.5812 147.85 73.5812C151.514 73.5812 154.217 72.0195 155.778 69.7972H155.838V81.4494C155.838 83.4916 157.46 85.1133 159.502 85.1133V51.7784ZM140.522 62.2293C140.522 58.6856 143.345 54.7214 148.33 54.7214C152.294 54.7214 155.838 58.145 155.838 62.4695C155.838 66.734 152.415 70.1576 148.21 70.1576C144.306 70.1576 140.522 67.1544 140.522 62.2293Z" fill="#0047BA"/>
<path d="M177.46 70.5785H177.4C176.319 72.5005 173.917 73.5816 171.574 73.5816C167.43 73.5816 163.346 71.3593 163.346 65.5332V51.7188H167.01V64.1518C167.01 67.3351 168.331 70.1581 171.935 70.1581C175.358 70.1581 177.46 67.8156 177.46 63.7914V51.7788H181.124V73.1011H179.923C178.602 73.1011 177.46 71.9599 177.46 70.5785Z" fill="#0047BA"/>
<path fill-rule="evenodd" clip-rule="evenodd" d="M193.858 54.4812C196.681 54.4812 200.225 55.262 200.225 58.8057V61.0881C198.243 59.3463 195.84 58.6856 193.618 58.6856C187.672 58.6856 184.368 62.1092 184.368 66.0133C184.368 70.7582 188.452 73.6412 193.678 73.6412C196.501 73.6412 198.603 72.8604 200.465 70.8783C200.465 72.1397 201.486 73.1607 202.747 73.1607H203.889V58.5655C203.889 53.4601 199.144 51.2979 194.038 51.2979C192.116 51.2979 189.594 51.5982 186.35 52.9195L187.972 55.9828C189.954 54.9617 191.876 54.4812 193.858 54.4812ZM188.332 66.0733C188.332 63.9711 189.834 61.8088 194.339 61.8088C198.843 61.8088 200.345 63.9711 200.345 66.0733C200.345 68.1755 198.843 70.3378 194.339 70.3378C189.834 70.3378 188.332 68.1755 188.332 66.0733Z" fill="#0047BA"/>
<path d="M109.409 66.6146C107.247 68.6567 104.544 69.858 101.181 69.858C94.8142 69.858 88.868 64.7526 88.868 57.485C88.868 50.3375 94.6941 45.1121 101.181 45.1121C104.184 45.1121 107.007 46.3133 109.229 48.2954L111.872 45.4124C109.349 43.13 105.325 41.4482 101.181 41.4482C90.6098 41.4482 84.6636 49.797 84.6636 57.485C84.6636 65.1731 90.6098 73.5218 101.181 73.5218C104.665 73.5218 108.328 72.2004 111.031 70.1583C110.31 69.0772 109.77 67.8759 109.409 66.6146Z" fill="#0047BA"/>
<path d="M206.351 52.3789H205.57V52.0186H207.552V52.3789H206.771V55.2019H206.351V52.3789Z" fill="#0047BA"/>
<path d="M210.855 52.0186H211.276V55.2019H210.855V52.8594L209.594 55.262L208.272 52.8594V55.2019H207.852V52.0186H208.272L209.594 54.4211L210.855 52.0186Z" fill="#0047BA"/>
<path d="M64.6021 55.2022C64.6021 45.0516 57.1543 34.2402 57.1543 34.2402C57.1543 34.2402 49.7065 45.0516 49.7065 55.2022C49.7065 59.2865 53.01 62.65 57.1543 62.65C61.2987 62.65 64.6021 59.2865 64.6021 55.2022Z" fill="#0047BA"/>
<path d="M63.9419 73.4015C53.8514 73.4015 45.6828 65.233 45.6828 55.1424C45.6828 52.5597 43.5806 50.3975 40.9378 50.3975C38.2951 50.3975 36.1929 52.4997 36.1929 55.1424C36.1929 66.7346 45.5627 76.1044 57.1548 76.1044C61.2992 76.1044 65.1432 74.9031 68.3866 72.861C67.0051 73.2214 65.5036 73.4015 63.9419 73.4015Z" fill="#00BBB4"/>
<path d="M73.4315 50.457C70.8488 50.457 68.6865 52.5592 68.6865 55.202C68.6865 61.5687 63.5211 66.674 57.2145 66.674C56.6139 66.674 56.0132 66.6139 55.4727 66.5539C57.8151 68.3558 60.8183 69.3768 64.0016 69.3768C71.8098 69.3768 78.1764 63.0102 78.1764 55.202C78.1164 52.5592 76.0142 50.457 73.4315 50.457Z" fill="#C2D500"/>
</svg>
