<svg width="243" height="144" viewBox="0 0 243 144" fill="none" xmlns="http://www.w3.org/2000/svg">
<path d="M0 6C0 2.68629 2.68629 0 6 0H237C240.314 0 243 2.68629 243 6V138C243 141.314 240.314 144 237 144H6C2.68629 144 0 141.314 0 138V6Z" fill="white"/>
<path d="M97.135 94.3787V93.5588C97.135 92.1534 98.0134 91.4506 98.8333 90.8064C99.5361 90.2794 100.122 89.8109 100.122 89.0496V88.7568C100.122 88.054 99.8874 87.7612 99.1847 87.7612C98.5405 87.7612 98.1891 88.1126 98.1891 88.6982V89.6938H97.1936V88.6396C97.1936 87.4684 97.9549 86.8242 99.1847 86.8242C100.473 86.8242 101.117 87.527 101.117 88.6982V88.9324C101.117 90.0451 100.356 90.6893 99.6532 91.2749C98.9504 91.8605 98.2477 92.4462 98.2477 93.3832H101.117V94.3202H97.135V94.3787Z" fill="#8E9BA1"/>
<path fill-rule="evenodd" clip-rule="evenodd" d="M102.054 89.2253V92.212C102.054 93.7346 102.816 94.4959 104.163 94.4959C105.509 94.4959 106.271 93.7932 106.271 92.212V89.2253C106.271 87.7027 105.451 86.9414 104.163 86.9414C102.874 86.9414 102.054 87.7027 102.054 89.2253ZM105.216 89.2253V92.1534C105.216 93.0904 104.865 93.5589 104.162 93.5589C103.401 93.5589 103.05 93.0904 103.05 92.1534V89.2253C103.05 88.2883 103.342 87.7613 104.104 87.7613C104.865 87.7613 105.216 88.2883 105.216 89.2253Z" fill="#8E9BA1"/>
<path d="M110.487 94.3795H109.492V88.4062H110.253L110.37 89.2846C110.546 88.6404 111.014 88.2891 111.659 88.2891C112.361 88.2891 112.771 88.6404 112.947 89.2846C113.123 88.6404 113.591 88.2891 114.235 88.2891C115.231 88.2891 115.641 88.9332 115.641 90.1045V94.4381H114.645V90.2802C114.645 89.5774 114.411 89.1675 113.825 89.1675C113.24 89.1675 113.005 89.636 113.005 90.2802V94.4381H112.01V90.2802C112.01 89.636 111.834 89.2261 111.249 89.2261C110.663 89.2261 110.37 89.7531 110.37 90.5144V94.3795H110.487Z" fill="#8E9BA1"/>
<path fill-rule="evenodd" clip-rule="evenodd" d="M118.159 96.3699C116.929 96.3699 116.46 95.96 116.46 95.3744C116.46 94.9059 116.87 94.496 117.515 94.3203C116.812 94.2617 116.46 93.9689 116.46 93.4418C116.46 92.9148 116.812 92.622 117.515 92.5049C116.987 92.2706 116.695 91.8607 116.695 91.2165V89.9867C116.695 89.1083 117.222 88.5226 118.159 88.347L118.334 88.2884C119.096 88.1127 119.33 87.9956 119.33 87.41V87.0586H120.384V87.2928C120.384 87.9956 120.091 88.4055 119.096 88.4641H119.271C119.974 88.5812 120.443 89.1668 120.443 89.8696V91.0994C120.443 92.0949 119.74 92.7391 118.569 92.7391H118.393C117.632 92.7391 117.339 92.8562 117.339 93.149C117.339 93.3833 117.515 93.5004 118.1 93.5004H119.096C120.267 93.5004 120.735 94.0275 120.735 94.7888C120.735 95.6086 120.15 96.3114 118.393 96.3114H118.159V96.3699ZM118.568 95.6088C119.388 95.6088 119.798 95.316 119.798 94.9646C119.798 94.6718 119.564 94.4375 118.978 94.4375H118.276C117.749 94.4961 117.397 94.7889 117.397 95.1403C117.397 95.4331 117.69 95.6088 118.217 95.6088H118.568ZM119.388 89.9281V91.1579C119.388 91.7436 119.096 92.0364 118.451 92.0364C117.924 92.0364 117.632 91.7436 117.632 91.1579V89.9281C117.632 89.5182 117.807 89.1668 118.217 89.0497C118.334 88.9911 118.451 88.9911 118.569 88.9911C119.154 88.9911 119.388 89.4011 119.388 89.9281Z" fill="#8E9BA1"/>
<path d="M121.497 95.1395C121.848 95.081 122.024 94.8467 122.082 94.4368C122.024 94.4368 121.965 94.4368 121.965 94.4368C121.614 94.4368 121.438 94.3196 121.438 93.7926C121.438 93.2655 121.614 93.0898 122.082 93.0898C122.551 93.0898 122.727 93.2655 122.727 94.0268C122.727 94.9638 122.317 95.5494 121.497 95.7251V95.1395Z" fill="#8E9BA1"/>
<path d="M125.947 92.6805V91.6849H126.943V92.5634C126.943 93.2075 127.294 93.5003 127.997 93.5003C128.758 93.5003 129.051 93.149 129.051 92.4462V91.9777C129.051 91.3336 128.7 90.9822 127.997 90.9822H127.47V90.1623H127.997C128.7 90.1623 128.993 89.7524 128.993 89.1668V88.7568C128.993 88.1126 128.758 87.8198 128.056 87.8198C127.353 87.8198 127.06 88.1712 127.06 88.7568V89.5181H126.064V88.6983C126.064 87.6441 126.767 86.9414 128.056 86.9414C129.403 86.9414 129.988 87.5856 129.988 88.6983V89.1082C129.988 89.8109 129.754 90.3966 129.051 90.6308C129.812 90.8065 130.105 91.3336 130.105 92.1534V92.6219C130.105 93.7346 129.578 94.5545 127.997 94.5545C126.592 94.4373 125.947 93.8517 125.947 92.6805Z" fill="#8E9BA1"/>
<path fill-rule="evenodd" clip-rule="evenodd" d="M130.925 89.2253V92.212C130.925 93.7346 131.687 94.4959 133.034 94.4959C134.38 94.4959 135.142 93.7932 135.142 92.212V89.2253C135.142 87.7027 134.322 86.9414 133.034 86.9414C131.745 86.9414 130.925 87.7027 130.925 89.2253ZM134.087 89.2253V92.1534C134.087 93.0904 133.795 93.5589 133.033 93.5589C132.272 93.5589 131.921 93.0904 131.921 92.1534V89.2253C131.921 88.2883 132.213 87.7613 132.975 87.7613C133.736 87.7613 134.087 88.2883 134.087 89.2253Z" fill="#8E9BA1"/>
<path d="M139.358 94.3795H138.363V88.4062H139.124L139.241 89.2846C139.417 88.6404 139.885 88.2891 140.529 88.2891C141.232 88.2891 141.642 88.6404 141.818 89.2846C141.993 88.6404 142.462 88.2891 143.106 88.2891C144.102 88.2891 144.512 88.9332 144.512 90.1045V94.4381H143.516V90.2802C143.516 89.5774 143.282 89.1675 142.696 89.1675C142.111 89.1675 141.876 89.636 141.876 90.2802V94.4381H140.881V90.2802C140.881 89.636 140.705 89.2261 140.119 89.2261C139.534 89.2261 139.241 89.7531 139.241 90.5144V94.3795H139.358Z" fill="#8E9BA1"/>
<path fill-rule="evenodd" clip-rule="evenodd" d="M147.089 96.3699C145.859 96.3699 145.39 95.96 145.39 95.3744C145.39 94.9059 145.8 94.496 146.444 94.3203C145.742 94.2617 145.39 93.9689 145.39 93.4418C145.39 92.9148 145.742 92.622 146.444 92.5049C145.917 92.2706 145.624 91.8607 145.624 91.2165V89.9867C145.624 89.1083 146.152 88.5226 147.089 88.347L147.264 88.2884C148.026 88.1127 148.26 87.9956 148.26 87.41V87.0586H149.314V87.2928C149.314 87.9956 149.021 88.4055 148.026 88.4641H148.201C148.904 88.5812 149.372 89.1668 149.372 89.8696V91.0994C149.372 92.0949 148.67 92.7391 147.498 92.7391H147.323C146.561 92.7391 146.269 92.8562 146.269 93.149C146.269 93.3833 146.444 93.5004 147.03 93.5004H148.026C149.197 93.5004 149.665 94.0275 149.665 94.7888C149.665 95.6086 149.08 96.3114 147.323 96.3114H147.089V96.3699ZM147.44 95.6088C148.26 95.6088 148.67 95.316 148.67 94.9646C148.67 94.6718 148.435 94.4375 147.85 94.4375H147.147C146.62 94.4961 146.269 94.7889 146.269 95.1403C146.269 95.4331 146.561 95.6088 147.088 95.6088H147.44ZM148.318 89.9281V91.1579C148.318 91.7436 148.025 92.0364 147.381 92.0364C146.854 92.0364 146.561 91.7436 146.561 91.1579V89.9281C146.561 89.5182 146.737 89.1668 147.147 89.0497C147.264 88.9911 147.381 88.9911 147.498 88.9911C148.084 88.9911 148.318 89.4011 148.318 89.9281Z" fill="#8E9BA1"/>
<path d="M150.426 95.1395C150.777 95.081 150.953 94.8467 151.012 94.4368C150.953 94.4368 150.895 94.4368 150.895 94.4368C150.543 94.4368 150.368 94.3196 150.368 93.7926C150.368 93.2655 150.543 93.0898 151.012 93.0898C151.48 93.0898 151.656 93.2655 151.656 94.0268C151.656 94.9638 151.246 95.5494 150.426 95.7251V95.1395Z" fill="#8E9BA1"/>
<path fill-rule="evenodd" clip-rule="evenodd" d="M158.274 94.3788V92.7976H159.152V91.9192H158.274V87H157.395L154.701 92.0363V92.7391H157.337V94.3788H158.274ZM157.395 91.8608H155.755L157.219 88.9913L157.571 87.9957L157.395 89.1084V91.8608Z" fill="#8E9BA1"/>
<path fill-rule="evenodd" clip-rule="evenodd" d="M159.913 89.2253V92.212C159.913 93.7346 160.675 94.4959 162.022 94.4959C163.369 94.4959 164.13 93.7932 164.13 92.212V89.2253C164.13 87.7027 163.31 86.9414 162.022 86.9414C160.733 86.9414 159.913 87.7027 159.913 89.2253ZM163.076 89.2253V92.1534C163.076 93.0904 162.724 93.5589 162.021 93.5589C161.26 93.5589 160.909 93.0904 160.909 92.1534V89.2253C160.909 88.2883 161.202 87.7613 161.963 87.7613C162.724 87.7613 163.076 88.2883 163.076 89.2253Z" fill="#8E9BA1"/>
<path d="M168.346 94.3795H167.351V88.4062H168.112L168.229 89.2846C168.405 88.6404 168.873 88.2891 169.518 88.2891C170.22 88.2891 170.63 88.6404 170.806 89.2846C170.982 88.6404 171.45 88.2891 172.094 88.2891C173.09 88.2891 173.5 88.9332 173.5 90.1045V94.4381H172.504V90.2802C172.504 89.5774 172.27 89.1675 171.684 89.1675C171.099 89.1675 170.864 89.636 170.864 90.2802V94.4381H169.869V90.2802C169.869 89.636 169.693 89.2261 169.108 89.2261C168.522 89.2261 168.229 89.7531 168.229 90.5144V94.3795H168.346Z" fill="#8E9BA1"/>
<path fill-rule="evenodd" clip-rule="evenodd" d="M176.018 96.3699C174.788 96.3699 174.32 95.96 174.32 95.3744C174.32 94.9059 174.73 94.496 175.374 94.3203C174.671 94.2617 174.32 93.9689 174.32 93.4418C174.32 92.9148 174.671 92.622 175.374 92.5049C174.847 92.2706 174.554 91.8607 174.554 91.2165V89.9867C174.554 89.1083 175.081 88.5226 176.018 88.347L176.194 88.2884C176.955 88.1127 177.189 87.9956 177.189 87.41V87.0586H178.243V87.2928C178.243 87.9956 177.95 88.4055 176.955 88.4641H177.131C177.833 88.5812 178.302 89.1668 178.302 89.8696V91.0994C178.302 92.0949 177.599 92.7391 176.428 92.7391H176.252C175.491 92.7391 175.198 92.8562 175.198 93.149C175.198 93.3833 175.374 93.5004 175.959 93.5004H176.955C178.126 93.5004 178.595 94.0275 178.595 94.7888C178.595 95.6086 178.009 96.3114 176.252 96.3114H176.018V96.3699ZM176.428 95.6088C177.247 95.6088 177.657 95.316 177.657 94.9646C177.657 94.6718 177.423 94.4375 176.838 94.4375H176.135C175.608 94.4961 175.256 94.7889 175.256 95.1403C175.256 95.4331 175.549 95.6088 176.076 95.6088H176.428ZM177.248 89.9281V91.1579C177.248 91.7436 176.955 92.0364 176.311 92.0364C175.784 92.0364 175.491 91.7436 175.491 91.1579V89.9281C175.491 89.5182 175.666 89.1668 176.076 89.0497C176.193 88.9911 176.311 88.9911 176.428 88.9911C177.013 88.9911 177.248 89.4011 177.248 89.9281Z" fill="#8E9BA1"/>
<path d="M179.356 95.1395C179.707 95.081 179.883 94.8467 179.941 94.4368C179.883 94.4368 179.824 94.4368 179.824 94.4368C179.473 94.4368 179.297 94.3196 179.297 93.7926C179.297 93.2655 179.473 93.0898 179.941 93.0898C180.41 93.0898 180.586 93.2655 180.586 94.0268C180.586 94.9638 180.176 95.5494 179.356 95.7251V95.1395Z" fill="#8E9BA1"/>
<path fill-rule="evenodd" clip-rule="evenodd" d="M183.924 92.212C183.924 93.7932 184.685 94.4959 185.973 94.4959C187.32 94.4959 188.14 93.7346 188.082 92.2705V91.8606C188.082 90.5137 187.379 89.8695 186.325 89.8695C185.563 89.8695 185.095 90.2794 184.861 90.8065V89.2839C184.861 88.3469 185.212 87.8198 186.032 87.8198C186.735 87.8198 187.027 88.2298 187.027 88.9325V89.1082H188.023V88.874C188.023 87.6442 187.32 86.9414 186.09 86.9414C184.626 86.9414 183.924 87.7027 183.924 89.2253V92.212ZM187.144 91.8606V92.1534C187.144 93.0904 186.734 93.5589 186.032 93.5589C185.27 93.5589 184.919 93.0904 184.919 92.1534V91.802C184.977 91.1578 185.329 90.6893 186.032 90.6893C186.851 90.6893 187.144 91.2164 187.144 91.8606Z" fill="#8E9BA1"/>
<path fill-rule="evenodd" clip-rule="evenodd" d="M188.96 89.2253V92.212C188.96 93.7346 189.78 94.4959 191.068 94.4959C192.415 94.4959 193.176 93.7932 193.176 92.212V89.2253C193.176 87.7027 192.357 86.9414 191.068 86.9414C189.78 86.9414 188.96 87.7027 188.96 89.2253ZM192.181 89.2253V92.1534C192.181 93.0904 191.83 93.5589 191.127 93.5589C190.366 93.5589 190.014 93.0904 190.014 92.1534V89.2253C190.014 88.2883 190.307 87.7613 191.068 87.7613C191.83 87.7613 192.181 88.2883 192.181 89.2253Z" fill="#8E9BA1"/>
<path d="M197.451 94.3795H196.456V88.4062H197.217L197.334 89.2846C197.51 88.6404 197.979 88.2891 198.623 88.2891C199.325 88.2891 199.735 88.6404 199.911 89.2846C200.087 88.6404 200.555 88.2891 201.199 88.2891C202.195 88.2891 202.605 88.9332 202.605 90.1045V94.4381H201.609V90.2802C201.609 89.5774 201.375 89.1675 200.789 89.1675C200.204 89.1675 199.97 89.636 199.97 90.2802V94.4381H199.091V90.2802C199.091 89.636 198.916 89.2261 198.33 89.2261C197.744 89.2261 197.451 89.7531 197.451 90.5144V94.3795Z" fill="#8E9BA1"/>
<path fill-rule="evenodd" clip-rule="evenodd" d="M205.124 96.3699C203.894 96.3699 203.425 95.96 203.425 95.3744C203.425 94.9059 203.835 94.496 204.479 94.3203C203.777 94.2617 203.425 93.9689 203.425 93.4418C203.425 92.9148 203.777 92.622 204.479 92.5049C203.952 92.2706 203.66 91.8607 203.66 91.2165V89.9867C203.66 89.1083 204.187 88.5226 205.124 88.347L205.299 88.2884C206.061 88.1127 206.295 87.9956 206.295 87.41V87.0586H207.349V87.2928C207.349 87.9956 207.056 88.4055 206.061 88.4641H206.236C206.939 88.5812 207.408 89.1668 207.408 89.8696V91.0994C207.408 92.0949 206.705 92.7391 205.534 92.7391H205.358C204.597 92.7391 204.304 92.8562 204.304 93.149C204.304 93.3833 204.479 93.5004 205.065 93.5004H206.061C207.232 93.5004 207.7 94.0275 207.7 94.7888C207.7 95.6086 207.115 96.3114 205.358 96.3114H205.124V96.3699ZM205.533 95.6088C206.353 95.6088 206.763 95.316 206.763 94.9646C206.763 94.6718 206.529 94.4375 205.943 94.4375H205.241C204.714 94.4961 204.362 94.7889 204.362 95.1403C204.362 95.4331 204.655 95.6088 205.182 95.6088H205.533ZM206.353 89.9281V91.1579C206.353 91.7436 206.061 92.0364 205.416 92.0364C204.889 92.0364 204.596 91.7436 204.596 91.1579V89.9281C204.596 89.5182 204.772 89.1668 205.182 89.0497C205.299 88.9911 205.416 88.9911 205.533 88.9911C206.119 88.9911 206.353 89.4011 206.353 89.9281Z" fill="#8E9BA1"/>
<path fill-rule="evenodd" clip-rule="evenodd" d="M99.4772 76.2246H97.0762V84.8332H99.4772C100.941 84.8332 102.054 84.1305 102.054 82.3151V78.6842C102.054 76.9274 100.941 76.2246 99.4772 76.2246ZM99.0672 83.0764V77.8644H99.4186C99.8285 77.8644 100.063 78.0986 100.063 78.8014V82.1394C100.063 82.8421 99.8285 83.0764 99.4186 83.0764H99.0672Z" fill="#8E9BA1"/>
<path d="M106.914 84.7747H102.698V76.2246H106.856V77.9815H104.631V79.5626H106.622V81.3781H104.631V82.9592H106.914V84.7747Z" fill="#8E9BA1"/>
<path d="M107.5 84.7747V76.2246H109.55V82.8421H111.541V84.8332H107.5V84.7747Z" fill="#8E9BA1"/>
<path fill-rule="evenodd" clip-rule="evenodd" d="M113.942 83.8377H115.289L115.464 84.7747H117.397L115.581 76.2246H113.649L111.833 84.7747H113.766L113.942 83.8377ZM114.996 82.198H114.176L114.527 80.1483L114.586 79.0942L114.644 80.1483L114.996 82.198Z" fill="#8E9BA1"/>
<path d="M118.1 84.7747V81.7294L116.46 76.2246H118.451L119.037 78.8013L119.095 79.2698L119.154 78.8013L119.798 76.2246H121.789L120.15 81.7294V84.8332H118.1V84.7747Z" fill="#8E9BA1"/>
<path d="M126.24 84.7747H122.023V76.2246H126.181V77.9815H123.956V79.5626H125.947V81.3781H123.956V82.9592H126.24V84.7747Z" fill="#8E9BA1"/>
<path fill-rule="evenodd" clip-rule="evenodd" d="M129.227 76.2246H126.826V84.8332H129.227C130.691 84.8332 131.804 84.1305 131.804 82.3151V78.6842C131.804 76.9274 130.691 76.2246 129.227 76.2246ZM128.817 83.0764V77.8644H129.168C129.578 77.8644 129.812 78.0986 129.812 78.8014V82.1394C129.812 82.8421 129.578 83.0764 129.168 83.0764H128.817Z" fill="#8E9BA1"/>
<path d="M135.727 81.3779H132.389V79.5039H135.727V81.3779Z" fill="#8E9BA1"/>
<path fill-rule="evenodd" clip-rule="evenodd" d="M138.304 84.7747V81.7294H138.597C139.065 81.7294 139.182 81.8466 139.182 82.3151V84.2476C139.182 84.5404 139.241 84.7747 139.358 84.8332H141.349C141.173 84.7161 141.115 84.5404 141.115 84.2476V82.2565C141.115 81.4952 140.939 81.0853 140.412 80.851C140.939 80.6168 141.173 80.2068 141.173 79.4455V78.3328C141.173 76.7517 140.471 76.2246 138.889 76.2246H136.43V84.7747H138.304ZM138.304 79.9726V77.8644H138.772C139.182 77.8644 139.299 77.9815 139.299 78.3914V79.5041C139.299 79.8555 139.182 79.9726 138.772 79.9726H138.304Z" fill="#8E9BA1"/>
<path d="M145.976 84.7747H141.759V76.2246H145.917V77.9815H143.692V79.5626H145.683V81.3781H143.692V82.9592H145.976V84.7747Z" fill="#8E9BA1"/>
<path d="M146.561 84.7747V76.2246H148.611V82.8421H150.602V84.8332H146.561V84.7747Z" fill="#8E9BA1"/>
<path d="M155.404 84.7747H151.188V76.2246H155.345V77.9815H153.12V79.5626H155.111V81.3781H153.12V82.9592H155.404V84.7747Z" fill="#8E9BA1"/>
<path fill-rule="evenodd" clip-rule="evenodd" d="M157.863 83.8377H159.21L159.386 84.7747H161.318L159.503 76.2246H157.571L155.755 84.7747H157.688L157.863 83.8377ZM158.917 82.198H158.097L158.449 80.1483L158.507 79.0942L158.566 80.1483L158.917 82.198Z" fill="#8E9BA1"/>
<path d="M161.436 82.7249V81.4951H163.427V82.6663C163.427 83.0177 163.486 83.1934 163.895 83.1934C164.247 83.1934 164.305 83.0177 164.305 82.6663V82.1393C164.305 81.5537 163.72 81.2608 163.134 80.9095C162.373 80.441 161.553 79.9139 161.553 78.6841V78.2156C161.553 76.7516 162.373 76.0488 163.954 76.0488C165.477 76.0488 166.238 76.7516 166.238 78.0399V78.9769H164.305V78.2156C164.305 77.8057 164.188 77.6886 163.895 77.6886C163.603 77.6886 163.486 77.8642 163.486 78.2156V78.5084C163.486 78.9769 164.013 79.2112 164.657 79.5625C165.418 79.9725 166.296 80.5581 166.296 81.8465V82.7249C166.296 84.1889 165.535 84.8917 163.837 84.8917C162.08 84.9502 161.436 84.1889 161.436 82.7249Z" fill="#8E9BA1"/>
<path d="M171.04 84.7747H166.823V76.2246H170.981V77.9815H168.756V79.5626H170.747V81.3781H168.756V82.9592H171.04V84.7747Z" fill="#8E9BA1"/>
<path d="M173.851 82.315V78.567C173.851 76.8101 174.847 76.0488 176.369 76.0488C177.95 76.0488 178.887 76.7516 178.887 78.3913V79.7968H176.838V78.567C176.838 77.9814 176.779 77.8057 176.369 77.8057C176.018 77.8057 175.901 78.0399 175.901 78.7427V82.1978C175.901 82.9006 175.959 83.1348 176.369 83.1348C176.721 83.1348 176.838 82.9006 176.838 82.315V80.968H178.946V82.4321C178.887 84.2475 178.009 84.8917 176.369 84.8917C174.671 84.8917 173.851 84.1304 173.851 82.315Z" fill="#8E9BA1"/>
<path fill-rule="evenodd" clip-rule="evenodd" d="M181.054 83.8377H182.401L182.577 84.7747H184.509L182.694 76.2246H180.761L178.946 84.7747H180.878L181.054 83.8377ZM182.166 82.198H181.347L181.698 80.1483L181.756 79.0942L181.815 80.1483L182.166 82.198Z" fill="#8E9BA1"/>
<path fill-rule="evenodd" clip-rule="evenodd" d="M186.793 84.7747V82.1979H187.262C188.96 82.1979 189.663 81.3195 189.663 79.914V78.3914C189.663 76.9274 188.96 76.2246 187.262 76.2246H184.861V84.7747H186.793ZM186.793 80.4997V77.8644H187.203C187.613 77.8644 187.789 78.0401 187.789 78.45V79.8555C187.789 80.324 187.613 80.4997 187.203 80.4997H186.793Z" fill="#8E9BA1"/>
<path d="M190.131 82.7249V81.4951H192.122V82.6663C192.122 83.0177 192.181 83.1934 192.591 83.1934C192.942 83.1934 193.001 83.0177 193.001 82.6663V82.1393C193.001 81.5537 192.415 81.2608 191.83 80.9095C191.068 80.441 190.248 79.9139 190.248 78.6841V78.2156C190.248 76.7516 191.068 76.0488 192.649 76.0488C194.172 76.0488 194.933 76.7516 194.933 78.0399V78.9769H193.001V78.2156C193.001 77.8057 192.884 77.6886 192.591 77.6886C192.298 77.6886 192.181 77.8642 192.181 78.2156V78.5084C192.181 78.9769 192.708 79.2112 193.352 79.5625C194.114 79.9725 194.992 80.5581 194.992 81.8465V82.7249C194.992 84.1889 194.231 84.8917 192.591 84.8917C190.775 84.9502 190.131 84.1889 190.131 82.7249Z" fill="#8E9BA1"/>
<path d="M195.519 82.3736V76.2246H197.451V82.2565C197.451 82.8421 197.568 83.0178 197.92 83.0178C198.271 83.0178 198.388 82.8421 198.388 82.2565V76.2246H200.321V82.3736C200.321 84.189 199.442 84.9503 197.92 84.9503C196.397 84.8918 195.519 84.1305 195.519 82.3736Z" fill="#8E9BA1"/>
<path d="M201.082 84.7747V76.2246H203.132V82.8421H205.123V84.8332H201.082V84.7747Z" fill="#8E9BA1"/>
<path d="M209.925 84.7747H205.709V76.2246H209.866V77.9815H207.641V79.5626H209.632V81.3781H207.641V82.9592H209.925V84.7747Z" fill="#8E9BA1"/>
<path d="M210.335 82.7249V81.4951H212.326V82.6663C212.326 83.0177 212.385 83.1934 212.795 83.1934C213.146 83.1934 213.205 83.0177 213.205 82.6663V82.1393C213.205 81.5537 212.619 81.2608 212.033 80.9095C211.272 80.441 210.452 79.9139 210.452 78.6841V78.2156C210.452 76.7516 211.272 76.0488 212.853 76.0488C214.376 76.0488 215.137 76.7516 215.137 78.0399V78.9769H213.205V78.2156C213.205 77.8057 213.088 77.6886 212.795 77.6886C212.502 77.6886 212.385 77.8642 212.385 78.2156V78.5084C212.385 78.9769 212.912 79.2112 213.556 79.5625C214.317 79.9725 215.196 80.5581 215.196 81.8465V82.7249C215.196 84.1889 214.434 84.8917 212.736 84.8917C210.979 84.9502 210.335 84.1889 210.335 82.7249Z" fill="#8E9BA1"/>
<path d="M23.9324 78.3338C23.9324 75.2886 24.928 74.4688 27.4461 74.4688V76.4013C26.2163 76.4013 25.8649 76.7527 25.8649 78.2753V92.7401C25.8649 94.2627 26.1578 94.6141 27.4461 94.6141V96.6052C24.7523 96.6052 23.9324 95.7853 23.9324 92.7401V78.3338Z" fill="#8E9BA1"/>
<path fill-rule="evenodd" clip-rule="evenodd" d="M31.3113 76.0488H28.7931V94.4373H31.2527C33.0681 94.4373 34.1808 93.7931 34.1808 91.7434V78.7427C34.1808 76.693 33.1267 76.0488 31.3113 76.0488ZM30.6671 92.6806V77.7473H31.1356C31.8383 77.7473 32.1897 77.9815 32.1897 78.8014V91.5679C32.1897 92.3292 31.8383 92.6806 31.1356 92.6806H30.6671Z" fill="#8E9BA1"/>
<path d="M35.5862 91.9797V76.1094H37.5187V91.804C37.5187 92.5067 37.6944 92.8581 38.2214 92.8581C38.7485 92.8581 38.9242 92.5653 38.9242 91.804V76.1094H40.8567V91.9797C40.8567 93.8537 39.9783 94.6735 38.2214 94.6735C36.4646 94.6735 35.5862 93.8537 35.5862 91.9797Z" fill="#8E9BA1"/>
<path d="M42.4965 94.4392V76.0508H44.429V92.4481H46.7129V94.3807H42.4965V94.4392Z" fill="#8E9BA1"/>
<path fill-rule="evenodd" clip-rule="evenodd" d="M47.7669 78.5689V91.9796C47.7669 93.8536 48.8796 94.6734 50.4607 94.6734C52.159 94.6734 53.2131 93.8536 53.2131 91.9796V78.5689C53.2131 76.812 52.2176 75.9336 50.5193 75.9336C48.821 75.9336 47.7669 76.812 47.7669 78.5689ZM51.3391 78.6275V91.6868C51.3391 92.4481 51.1048 92.7995 50.5777 92.7409C49.9336 92.7409 49.7579 92.3895 49.7579 91.6868V78.6275C49.7579 77.9247 49.9336 77.5734 50.5192 77.5734C51.1048 77.5734 51.3391 77.9247 51.3391 78.6275Z" fill="#8E9BA1"/>
<path d="M55.9073 94.4392H54.0333L55.9073 84.6594L54.2675 76.0508H56.0244L56.8443 80.7357L57.02 82.9025L57.1956 80.7357L58.0155 76.0508H59.7724L58.0155 84.6594L60.0066 94.4392H58.1912L57.2542 89.3443L57.0785 86.5919L56.8443 89.3443L55.9073 94.4392Z" fill="#8E9BA1"/>
<path d="M64.8673 94.4392H60.8851V76.0508H64.8088V77.9248H62.7591V84.1323H64.6331V86.0063H62.7591V92.5067H64.8088V94.4392H64.8673Z" fill="#8E9BA1"/>
<path d="M69.2595 77.9248V94.4392H67.327V77.9248H65.8629V76.0508H70.7821V77.9248H69.2595Z" fill="#8E9BA1"/>
<path d="M71.8359 94.4392V92.6238H72.89V77.8662H71.8359V76.0508H75.7596V77.8662H74.764V92.6238H75.7596V94.4392H71.8359Z" fill="#8E9BA1"/>
<path d="M78.6878 94.4392H76.9895V76.0508H78.4536L80.6204 86.4163L81.0889 89.1687L80.7961 85.245V76.0508H82.4944V94.4392H81.0303L78.805 84.0152L78.3365 81.3214L78.6293 85.0693V94.4392H78.6878Z" fill="#8E9BA1"/>
<path d="M88.1164 94.4392H84.1342V76.0508H88.0578V77.9248H86.0667V84.1323H87.9407V86.0063H86.0667V92.5067H88.1164V94.4392Z" fill="#8E9BA1"/>
<path d="M89.053 94.6727C90.2828 94.6727 90.6342 94.3213 90.6342 92.7987V78.3339C90.6342 76.8113 90.3413 76.4599 89.053 76.4599V74.5273C91.5711 74.5273 92.5667 75.3472 92.5667 78.3924V92.8572C92.5667 95.9025 91.7468 96.7223 89.053 96.7223V94.6727Z" fill="#8E9BA1"/>
<path d="M40.0953 52.0391H43.4919V54.0887C44.1361 52.8004 45.2487 52.0391 46.947 52.0391H48.1768V55.3771H46.1272C44.3117 55.3771 43.4919 56.3141 43.4919 58.6566V64.5128H40.0953V52.0391Z" fill="#D1006F"/>
<path fill-rule="evenodd" clip-rule="evenodd" d="M53.4473 48.7606C53.4473 47.5308 52.6274 46.7109 51.3976 46.7109C50.1678 46.7109 49.348 47.5308 49.348 48.7606C49.348 49.9904 50.1678 50.8103 51.3976 50.8103C52.6274 50.8103 53.4473 49.9904 53.4473 48.7606ZM53.0958 52.0402H49.6992V64.5139H53.0958V52.0402Z" fill="#D1006F"/>
<path d="M54.7358 61.4676L61.2947 55.0843H54.8529V52.0977H65.8626V55.1429L59.3036 61.5261H65.9797V64.5128H54.7358V61.4676Z" fill="#D1006F"/>
<path fill-rule="evenodd" clip-rule="evenodd" d="M72.7726 51.8047C69.9617 51.8047 66.7408 53.9129 66.7408 58.3051C66.7408 62.6972 70.1373 64.7469 72.7141 64.7469C74.2952 64.7469 75.6422 64.1027 76.462 63.1071V64.5126H79.8586V52.0389H76.462V53.2687C75.6422 52.3903 74.4124 51.8047 72.7726 51.8047ZM73.4752 54.9086C75.2907 54.9086 76.6376 56.4312 76.6376 58.2466C76.6376 60.1206 75.2907 61.6432 73.4752 61.5847C71.6013 61.5847 70.1372 60.1792 70.1372 58.2466C70.1372 56.3141 71.6013 54.9086 73.4752 54.9086Z" fill="#D1006F"/>
<path d="M85.0706 46.3008V64.5136H81.674V46.3008H85.0706Z" fill="#D1006F"/>
<path d="M86.8277 52.0389H90.2243V53.3859C90.9856 52.3903 92.1568 51.8047 93.5623 51.8047C95.3192 51.8047 96.6661 52.5074 97.4274 53.7958C98.2473 52.6246 99.7113 51.8047 101.292 51.8047C104.455 51.8047 106.036 53.6787 106.036 56.8996V64.5126H102.581V57.3681C102.581 55.6698 101.937 54.7328 100.414 54.7328C99.1257 54.7328 98.1887 55.6112 98.1887 57.7194V64.5126H94.7335V57.3681C94.7335 55.6698 94.0894 54.7328 92.5667 54.7328C91.2784 54.7328 90.3414 55.6112 90.3414 57.7194V64.5126H86.9448V52.0389H86.8277Z" fill="#D1006F"/>
<path fill-rule="evenodd" clip-rule="evenodd" d="M113.415 51.8047C110.604 51.8047 107.383 53.9129 107.383 58.3051C107.383 62.6972 110.721 64.7469 113.356 64.7469C114.938 64.7469 116.285 64.1027 117.104 63.1071V64.5126H120.501V52.0389H117.104V53.2687C116.285 52.3903 115.055 51.8047 113.415 51.8047ZM114.059 54.9086C115.875 54.9086 117.221 56.4312 117.221 58.2466C117.221 60.1206 115.875 61.6432 114.059 61.5847C112.185 61.5847 110.721 60.1792 110.721 58.2466C110.721 56.3141 112.185 54.9086 114.059 54.9086Z" fill="#D1006F"/>
<path d="M28.8516 46.3008H28.793V49.5217C33.0095 49.6388 35.0006 52.0399 35.0006 55.3779C35.0006 58.7159 32.541 61.2341 28.6174 61.2341H27.3876V59.0673H23.9324V64.455H29.0273C34.5907 64.455 38.5143 60.5313 38.5143 55.3779C38.4558 50.283 35.0006 46.3008 28.8516 46.3008Z" fill="#D1006F"/>
<path d="M25.631 57.6625C26.4073 57.6625 27.0365 57.0333 27.0365 56.257C27.0365 55.4808 26.4073 54.8516 25.631 54.8516C24.8548 54.8516 24.2256 55.4808 24.2256 56.257C24.2256 57.0333 24.8548 57.6625 25.631 57.6625Z" fill="#00A3AD"/>
<path d="M25.631 49.4047C26.4073 49.4047 27.0365 48.7755 27.0365 47.9992C27.0365 47.223 26.4073 46.5938 25.631 46.5938C24.8548 46.5938 24.2256 47.223 24.2256 47.9992C24.2256 48.7755 24.8548 49.4047 25.631 49.4047Z" fill="#00A3AD"/>
<path d="M25.631 53.5043C26.4073 53.5043 27.0365 52.8751 27.0365 52.0988C27.0365 51.3226 26.4073 50.6934 25.631 50.6934C24.8548 50.6934 24.2256 51.3226 24.2256 52.0988C24.2256 52.8751 24.8548 53.5043 25.631 53.5043Z" fill="#00A3AD"/>
<path fill-rule="evenodd" clip-rule="evenodd" d="M142.286 70.4855V62.4626C143.399 63.9852 145.273 64.6879 147.088 64.7465C150.953 64.7465 153.823 61.6427 153.823 57.8947C153.823 54.1468 151.012 51.043 147.088 51.043C145.332 51.043 143.34 51.9214 142.228 53.444V51.2772H140.295V70.4855H142.286ZM146.971 52.8584C149.665 52.8584 151.773 55.0837 151.773 57.8361C151.773 60.6471 149.665 62.8725 146.971 62.8139C144.16 62.8139 142.052 60.5885 142.052 57.8361C142.052 55.1423 144.16 52.8584 146.971 52.8584Z" fill="#00A3AD"/>
<path d="M155.931 51.2773H157.981V53.1513C158.683 51.9215 159.972 51.2773 161.611 51.2773H163.251V53.1513H161.611C158.976 53.1513 157.981 54.5568 157.981 57.602V64.3952H155.931V51.2773Z" fill="#00A3AD"/>
<path d="M165.242 51.2773H167.292V57.7192V64.3952H165.242V57.7192V51.2773Z" fill="#00A3AD"/>
<path d="M169.869 51.2772H171.86V53.2097C172.797 51.8628 174.378 50.9844 176.311 50.9844C179.825 50.9844 181.991 53.3269 181.991 57.0748V64.3951H179.942V57.1334C179.942 54.5567 178.653 52.8584 176.018 52.8584C173.617 52.8584 171.86 54.7323 171.86 57.1334V64.3951H169.81V51.2772H169.869Z" fill="#00A3AD"/>
<path d="M189.194 58.0712L186.559 60.765V64.3959H184.568V45.2461H186.559V58.4225L193.528 51.278H196.105L190.658 56.8414L196.105 64.3959H193.762L189.194 58.0712Z" fill="#00A3AD"/>
<path d="M197.686 45.2461H199.736V57.7198V64.3959H197.686V57.7198V45.2461Z" fill="#00A3AD"/>
<path fill-rule="evenodd" clip-rule="evenodd" d="M208.579 50.9844C204.655 50.9844 201.786 54.0296 201.786 57.9532C201.786 61.8183 204.538 64.6879 208.696 64.6879C211.624 64.6879 213.674 63.341 214.903 61.057L213.147 60.1786C212.327 61.7598 210.804 62.8725 208.696 62.8725C206.119 62.8725 204.011 61.057 203.777 58.4803H215.313V57.6019C215.313 53.5611 212.385 50.9844 208.579 50.9844ZM213.263 56.665H203.893C204.421 54.4396 206.236 52.8585 208.637 52.8585C211.155 52.8585 212.912 54.3225 213.263 56.665Z" fill="#00A3AD"/>
<path d="M166.238 48.5258C167.014 48.5258 167.644 47.8966 167.644 47.1203C167.644 46.3441 167.014 45.7148 166.238 45.7148C165.462 45.7148 164.833 46.3441 164.833 47.1203C164.833 47.8966 165.462 48.5258 166.238 48.5258Z" fill="#00A3AD"/>
<path fill-rule="evenodd" clip-rule="evenodd" d="M213.087 47.4704H214.024V49.93H214.61V47.4704H215.547V46.9434H213.087V47.4704ZM216.367 46.9434H215.898V49.93H216.484V47.8804L217.538 49.2273L218.592 47.9389V49.93H219.178V46.9434H218.651L217.48 48.4074L216.367 46.9434Z" fill="#00A3AD"/>
<path d="M125.362 61.1748L127.119 59.8865C128.407 61.8776 129.988 62.8731 132.155 62.8731C134.556 62.8731 136.254 61.3505 136.254 59.2423C136.254 56.8998 133.97 56.1385 131.569 55.3186C128.934 54.4402 126.182 53.3275 126.182 49.9895C126.182 47.1785 128.7 45.0117 132.097 45.0117C134.79 45.0117 136.664 46.0658 138.011 47.8813L136.372 49.1111C135.376 47.5884 133.97 46.8271 132.038 46.8271C129.871 46.8271 128.231 48.1741 128.231 49.9895C128.231 52.2148 130.457 52.9176 132.799 53.7375C135.435 54.6744 138.246 55.7871 138.246 59.2423C138.246 62.0533 135.786 64.7471 132.097 64.7471C128.993 64.6885 126.884 63.4002 125.362 61.1748Z" fill="#00A3AD"/>
<path d="M39.3798 121V113.954H38.5009V121H39.3798ZM40.9993 121H41.8391V117.885C41.8391 116.962 42.3811 116.4 43.2209 116.4C44.0608 116.4 44.4612 116.85 44.4612 117.797V121H45.301V117.592C45.301 116.342 44.6418 115.644 43.4602 115.644C42.6545 115.644 42.1418 115.985 41.8782 116.566H41.8V115.736H40.9993V121ZM51.1246 117.348C50.9781 116.41 50.1968 115.644 48.9175 115.644C47.4429 115.644 46.5054 116.708 46.5054 118.349C46.5054 120.023 47.4478 121.093 48.9224 121.093C50.1871 121.093 50.9732 120.38 51.1246 119.413H50.275C50.1187 120.009 49.6255 120.336 48.9175 120.336C47.98 120.336 47.3746 119.564 47.3746 118.349C47.3746 117.157 47.9703 116.4 48.9175 116.4C49.6744 116.4 50.1382 116.825 50.275 117.348H51.1246ZM52.2948 121H53.1347V117.738C53.1347 116.996 53.7157 116.459 54.5165 116.459C54.6825 116.459 54.9852 116.488 55.0536 116.508V115.668C54.9462 115.653 54.7704 115.644 54.6337 115.644C53.9354 115.644 53.33 116.005 53.1737 116.518H53.0956V115.736H52.2948V121ZM57.9865 116.386C58.8215 116.386 59.3781 117.001 59.3977 117.934H56.4973C56.5607 117.001 57.1467 116.386 57.9865 116.386ZM59.3732 119.638C59.1535 120.102 58.6945 120.351 58.0158 120.351C57.1223 120.351 56.5412 119.691 56.4973 118.651V118.612H60.2814V118.29C60.2814 116.654 59.4172 115.644 57.9963 115.644C56.551 115.644 55.6232 116.718 55.6232 118.373C55.6232 120.038 56.5363 121.093 57.9963 121.093C59.1486 121.093 59.9592 120.541 60.2131 119.638H59.3732ZM63.1509 120.355C62.5405 120.355 62.0864 120.043 62.0864 119.506C62.0864 118.979 62.438 118.7 63.2388 118.646L64.6548 118.554V119.037C64.6548 119.789 64.0152 120.355 63.1509 120.355ZM62.9946 121.093C63.6978 121.093 64.2739 120.785 64.6157 120.224H64.6939V121H65.4946V117.396C65.4946 116.303 64.7769 115.644 63.4927 115.644C62.3696 115.644 61.5396 116.2 61.4273 117.045H62.2769C62.3941 116.63 62.8335 116.391 63.4634 116.391C64.2495 116.391 64.6548 116.747 64.6548 117.396V117.875L63.1363 117.968C61.9107 118.041 61.2173 118.583 61.2173 119.525C61.2173 120.487 61.9741 121.093 62.9946 121.093ZM66.8553 117.177C66.8553 117.938 67.3045 118.363 68.2909 118.603L69.1942 118.822C69.7557 118.959 70.0291 119.203 70.0291 119.564C70.0291 120.048 69.5213 120.385 68.8133 120.385C68.1395 120.385 67.7196 120.102 67.578 119.657H66.7137C66.8065 120.531 67.6122 121.093 68.784 121.093C69.9803 121.093 70.8934 120.443 70.8934 119.501C70.8934 118.744 70.4149 118.314 69.4237 118.075L68.6131 117.88C67.993 117.729 67.7 117.504 67.7 117.143C67.7 116.674 68.1883 116.356 68.8133 116.356C69.4481 116.356 69.8582 116.635 69.9706 117.055H70.8006C70.6883 116.19 69.9217 115.644 68.8182 115.644C67.7 115.644 66.8553 116.303 66.8553 117.177ZM74.2414 116.386C75.0763 116.386 75.633 117.001 75.6525 117.934H72.7521C72.8156 117.001 73.4015 116.386 74.2414 116.386ZM75.6281 119.638C75.4084 120.102 74.9494 120.351 74.2707 120.351C73.3771 120.351 72.7961 119.691 72.7521 118.651V118.612H76.5363V118.29C76.5363 116.654 75.672 115.644 74.2511 115.644C72.8058 115.644 71.8781 116.718 71.8781 118.373C71.8781 120.038 72.7912 121.093 74.2511 121.093C75.4035 121.093 76.214 120.541 76.4679 119.638H75.6281ZM79.7329 121.093C80.4604 121.093 81.0854 120.746 81.4175 120.16H81.4956V121H82.2964V113.646H81.4565V116.566H81.3833C81.0854 115.99 80.4653 115.644 79.7329 115.644C78.395 115.644 77.521 116.718 77.521 118.368C77.521 120.023 78.3852 121.093 79.7329 121.093ZM79.9282 116.4C80.8804 116.4 81.4761 117.162 81.4761 118.368C81.4761 119.584 80.8852 120.336 79.9282 120.336C78.9663 120.336 78.3901 119.599 78.3901 118.368C78.3901 117.143 78.9712 116.4 79.9282 116.4ZM86.6095 121H87.4493V117.738C87.4493 116.996 88.0304 116.459 88.8312 116.459C88.9972 116.459 89.2999 116.488 89.3683 116.508V115.668C89.2609 115.653 89.0851 115.644 88.9484 115.644C88.2501 115.644 87.6446 116.005 87.4884 116.518H87.4103V115.736H86.6095V121ZM90.3676 121H91.2075V115.736H90.3676V121ZM90.7875 114.667C91.1098 114.667 91.3735 114.403 91.3735 114.081C91.3735 113.759 91.1098 113.495 90.7875 113.495C90.4653 113.495 90.2016 113.759 90.2016 114.081C90.2016 114.403 90.4653 114.667 90.7875 114.667ZM92.617 117.177C92.617 117.938 93.0662 118.363 94.0525 118.603L94.9558 118.822C95.5173 118.959 95.7908 119.203 95.7908 119.564C95.7908 120.048 95.283 120.385 94.575 120.385C93.9011 120.385 93.4812 120.102 93.3396 119.657H92.4754C92.5681 120.531 93.3738 121.093 94.5457 121.093C95.742 121.093 96.655 120.443 96.655 119.501C96.655 118.744 96.1765 118.314 95.1853 118.075L94.3748 117.88C93.7547 117.729 93.4617 117.504 93.4617 117.143C93.4617 116.674 93.95 116.356 94.575 116.356C95.2097 116.356 95.6199 116.635 95.7322 117.055H96.5623C96.45 116.19 95.6834 115.644 94.5798 115.644C93.4617 115.644 92.617 116.303 92.617 117.177ZM98.8702 118.036H98.7921V113.646H97.9522V121H98.7921V119.003L99.295 118.534L101.268 121H102.337L99.92 117.992L102.186 115.736H101.155L98.8702 118.036ZM108.178 121.093C109.677 121.093 110.605 120.058 110.605 118.368C110.605 116.674 109.677 115.644 108.178 115.644C106.679 115.644 105.752 116.674 105.752 118.368C105.752 120.058 106.679 121.093 108.178 121.093ZM108.178 120.336C107.182 120.336 106.621 119.613 106.621 118.368C106.621 117.118 107.182 116.4 108.178 116.4C109.175 116.4 109.736 117.118 109.736 118.368C109.736 119.613 109.175 120.336 108.178 120.336ZM112.205 121H113.045V116.439H114.251V115.736H113.045V115.175C113.045 114.599 113.299 114.306 113.904 114.306C114.056 114.306 114.197 114.311 114.3 114.33V113.646C114.124 113.612 113.939 113.598 113.733 113.598C112.732 113.598 112.205 114.101 112.205 115.15V115.736H111.331V116.439H112.205V121ZM118.037 117.177C118.037 117.938 118.486 118.363 119.472 118.603L120.376 118.822C120.937 118.959 121.211 119.203 121.211 119.564C121.211 120.048 120.703 120.385 119.995 120.385C119.321 120.385 118.901 120.102 118.759 119.657H117.895C117.988 120.531 118.794 121.093 119.966 121.093C121.162 121.093 122.075 120.443 122.075 119.501C122.075 118.744 121.596 118.314 120.605 118.075L119.795 117.88C119.174 117.729 118.882 117.504 118.882 117.143C118.882 116.674 119.37 116.356 119.995 116.356C120.63 116.356 121.04 116.635 121.152 117.055H121.982C121.87 116.19 121.103 115.644 120 115.644C118.882 115.644 118.037 116.303 118.037 117.177ZM127.581 115.736H126.741V118.852C126.741 119.774 126.233 120.326 125.306 120.326C124.466 120.326 124.114 119.887 124.114 118.939V115.736H123.274V119.145C123.274 120.39 123.89 121.093 125.071 121.093C125.877 121.093 126.438 120.761 126.702 120.175H126.78V121H127.581V115.736ZM129.113 121H129.952V115.736H129.113V121ZM129.533 114.667C129.855 114.667 130.118 114.403 130.118 114.081C130.118 113.759 129.855 113.495 129.533 113.495C129.21 113.495 128.947 113.759 128.947 114.081C128.947 114.403 129.21 114.667 129.533 114.667ZM135.839 117.348C135.693 116.41 134.912 115.644 133.632 115.644C132.158 115.644 131.22 116.708 131.22 118.349C131.22 120.023 132.163 121.093 133.637 121.093C134.902 121.093 135.688 120.38 135.839 119.413H134.99C134.834 120.009 134.34 120.336 133.632 120.336C132.695 120.336 132.089 119.564 132.089 118.349C132.089 117.157 132.685 116.4 133.632 116.4C134.389 116.4 134.853 116.825 134.99 117.348H135.839ZM137.029 121H137.869V115.736H137.029V121ZM137.449 114.667C137.771 114.667 138.035 114.403 138.035 114.081C138.035 113.759 137.771 113.495 137.449 113.495C137.127 113.495 136.863 113.759 136.863 114.081C136.863 114.403 137.127 114.667 137.449 114.667ZM141.349 121.093C142.076 121.093 142.701 120.746 143.033 120.16H143.112V121H143.912V113.646H143.073V116.566H142.999C142.701 115.99 142.081 115.644 141.349 115.644C140.011 115.644 139.137 116.718 139.137 118.368C139.137 120.023 140.001 121.093 141.349 121.093ZM141.544 116.4C142.496 116.4 143.092 117.162 143.092 118.368C143.092 119.584 142.501 120.336 141.544 120.336C140.582 120.336 140.006 119.599 140.006 118.368C140.006 117.143 140.587 116.4 141.544 116.4ZM147.094 120.355C146.484 120.355 146.03 120.043 146.03 119.506C146.03 118.979 146.381 118.7 147.182 118.646L148.598 118.554V119.037C148.598 119.789 147.959 120.355 147.094 120.355ZM146.938 121.093C147.641 121.093 148.217 120.785 148.559 120.224H148.637V121H149.438V117.396C149.438 116.303 148.72 115.644 147.436 115.644C146.313 115.644 145.483 116.2 145.371 117.045H146.22C146.338 116.63 146.777 116.391 147.407 116.391C148.193 116.391 148.598 116.747 148.598 117.396V117.875L147.08 117.968C145.854 118.041 145.161 118.583 145.161 119.525C145.161 120.487 145.918 121.093 146.938 121.093ZM150.97 121H151.809V113.646H150.97V121ZM158.74 121.093C160.073 121.093 160.947 120.014 160.947 118.368C160.947 116.713 160.078 115.644 158.74 115.644C158.017 115.644 157.378 116 157.089 116.566H157.011V113.646H156.171V121H156.972V120.16H157.05C157.382 120.746 158.007 121.093 158.74 121.093ZM158.544 116.4C159.506 116.4 160.078 117.138 160.078 118.368C160.078 119.599 159.506 120.336 158.544 120.336C157.587 120.336 156.992 119.584 156.992 118.368C156.992 117.152 157.587 116.4 158.544 116.4ZM164.295 116.386C165.13 116.386 165.686 117.001 165.706 117.934H162.806C162.869 117.001 163.455 116.386 164.295 116.386ZM165.682 119.638C165.462 120.102 165.003 120.351 164.324 120.351C163.431 120.351 162.849 119.691 162.806 118.651V118.612H166.59V118.29C166.59 116.654 165.725 115.644 164.305 115.644C162.859 115.644 161.932 116.718 161.932 118.373C161.932 120.038 162.845 121.093 164.305 121.093C165.457 121.093 166.267 120.541 166.521 119.638H165.682ZM167.887 121H168.727V117.885C168.727 116.996 169.244 116.4 170.187 116.4C170.983 116.4 171.403 116.864 171.403 117.797V121H172.242V117.592C172.242 116.356 171.539 115.644 170.426 115.644C169.62 115.644 169.069 115.985 168.805 116.566H168.727V113.646H167.887V121ZM175.327 120.355C174.716 120.355 174.262 120.043 174.262 119.506C174.262 118.979 174.614 118.7 175.415 118.646L176.831 118.554V119.037C176.831 119.789 176.191 120.355 175.327 120.355ZM175.17 121.093C175.874 121.093 176.45 120.785 176.792 120.224H176.87V121H177.67V117.396C177.67 116.303 176.953 115.644 175.668 115.644C174.545 115.644 173.715 116.2 173.603 117.045H174.453C174.57 116.63 175.009 116.391 175.639 116.391C176.425 116.391 176.831 116.747 176.831 117.396V117.875L175.312 117.968C174.086 118.041 173.393 118.583 173.393 119.525C173.393 120.487 174.15 121.093 175.17 121.093ZM183.255 115.736H182.356L180.916 120.072H180.838L179.397 115.736H178.499L180.447 121H181.306L183.255 115.736ZM184.327 121H185.167V115.736H184.327V121ZM184.747 114.667C185.069 114.667 185.333 114.403 185.333 114.081C185.333 113.759 185.069 113.495 184.747 113.495C184.425 113.495 184.161 113.759 184.161 114.081C184.161 114.403 184.425 114.667 184.747 114.667ZM188.862 121.093C190.361 121.093 191.289 120.058 191.289 118.368C191.289 116.674 190.361 115.644 188.862 115.644C187.363 115.644 186.435 116.674 186.435 118.368C186.435 120.058 187.363 121.093 188.862 121.093ZM188.862 120.336C187.866 120.336 187.304 119.613 187.304 118.368C187.304 117.118 187.866 116.4 188.862 116.4C189.858 116.4 190.419 117.118 190.419 118.368C190.419 119.613 189.858 120.336 188.862 120.336ZM192.537 121H193.377V117.738C193.377 116.996 193.958 116.459 194.759 116.459C194.925 116.459 195.227 116.488 195.296 116.508V115.668C195.188 115.653 195.012 115.644 194.876 115.644C194.178 115.644 193.572 116.005 193.416 116.518H193.338V115.736H192.537V121ZM199.047 121H199.887V115.736H199.047V121ZM199.467 114.667C199.789 114.667 200.053 114.403 200.053 114.081C200.053 113.759 199.789 113.495 199.467 113.495C199.145 113.495 198.881 113.759 198.881 114.081C198.881 114.403 199.145 114.667 199.467 114.667ZM201.419 121H202.259V117.885C202.259 116.962 202.801 116.4 203.64 116.4C204.48 116.4 204.881 116.85 204.881 117.797V121H205.72V117.592C205.72 116.342 205.061 115.644 203.88 115.644C203.074 115.644 202.561 115.985 202.298 116.566H202.219V115.736H201.419V121ZM44.6548 125.644C43.9371 125.644 43.3072 126.01 42.9703 126.615H42.8922V125.736H42.0914V132.758H42.9312V130.209H43.0093C43.2974 130.766 43.9029 131.093 44.6548 131.093C45.9927 131.093 46.8668 130.014 46.8668 128.368C46.8668 126.713 45.9976 125.644 44.6548 125.644ZM44.4547 130.336C43.5074 130.336 42.9068 129.574 42.9068 128.368C42.9068 127.157 43.5074 126.4 44.4595 126.4C45.4214 126.4 45.9976 127.138 45.9976 128.368C45.9976 129.599 45.4214 130.336 44.4547 130.336ZM50.2147 126.386C51.0497 126.386 51.6063 127.001 51.6259 127.934H48.7255C48.7889 127.001 49.3749 126.386 50.2147 126.386ZM51.6014 129.638C51.3817 130.102 50.9227 130.351 50.244 130.351C49.3505 130.351 48.7694 129.691 48.7255 128.651V128.612H52.5097V128.29C52.5097 126.654 51.6454 125.644 50.2245 125.644C48.7792 125.644 47.8514 126.718 47.8514 128.373C47.8514 130.038 48.7645 131.093 50.2245 131.093C51.3768 131.093 52.1874 130.541 52.4413 129.638H51.6014ZM55.7063 131.093C56.4338 131.093 57.0588 130.746 57.3908 130.16H57.4689V131H58.2697V123.646H57.4299V126.566H57.3566C57.0588 125.99 56.4387 125.644 55.7063 125.644C54.3684 125.644 53.4943 126.718 53.4943 128.368C53.4943 130.023 54.3586 131.093 55.7063 131.093ZM55.9016 126.4C56.8537 126.4 57.4494 127.162 57.4494 128.368C57.4494 129.584 56.8586 130.336 55.9016 130.336C54.9397 130.336 54.3635 129.599 54.3635 128.368C54.3635 127.143 54.9445 126.4 55.9016 126.4ZM59.8501 131H60.69V125.736H59.8501V131ZM60.27 124.667C60.5923 124.667 60.856 124.403 60.856 124.081C60.856 123.759 60.5923 123.495 60.27 123.495C59.9478 123.495 59.6841 123.759 59.6841 124.081C59.6841 124.403 59.9478 124.667 60.27 124.667ZM63.8426 130.355C63.2323 130.355 62.7782 130.043 62.7782 129.506C62.7782 128.979 63.1297 128.7 63.9305 128.646L65.3465 128.554V129.037C65.3465 129.789 64.7069 130.355 63.8426 130.355ZM63.6864 131.093C64.3895 131.093 64.9657 130.785 65.3075 130.224H65.3856V131H66.1864V127.396C66.1864 126.303 65.4686 125.644 64.1844 125.644C63.0614 125.644 62.2313 126.2 62.119 127.045H62.9686C63.0858 126.63 63.5252 126.391 64.1551 126.391C64.9413 126.391 65.3465 126.747 65.3465 127.396V127.875L63.828 127.968C62.6024 128.041 61.909 128.583 61.909 129.525C61.909 130.487 62.6659 131.093 63.6864 131.093ZM68.0207 124.374V125.736H67.1711V126.439H68.0207V129.633C68.0207 130.639 68.4552 131.039 69.5392 131.039C69.7052 131.039 69.8664 131.02 70.0324 130.99V130.282C69.8761 130.297 69.7931 130.302 69.6418 130.302C69.0949 130.302 68.8605 130.038 68.8605 129.418V126.439H70.0324V125.736H68.8605V124.374H68.0207ZM71.2319 131H72.0718V127.738C72.0718 126.996 72.6528 126.459 73.4536 126.459C73.6196 126.459 73.9223 126.488 73.9907 126.508V125.668C73.8833 125.653 73.7075 125.644 73.5708 125.644C72.8725 125.644 72.2671 126.005 72.1108 126.518H72.0327V125.736H71.2319V131ZM74.99 131H75.8299V125.736H74.99V131ZM75.41 124.667C75.7322 124.667 75.9959 124.403 75.9959 124.081C75.9959 123.759 75.7322 123.495 75.41 123.495C75.0877 123.495 74.824 123.759 74.824 124.081C74.824 124.403 75.0877 124.667 75.41 124.667ZM81.7169 127.348C81.5704 126.41 80.7892 125.644 79.5099 125.644C78.0353 125.644 77.0978 126.708 77.0978 128.349C77.0978 130.023 78.0402 131.093 79.5148 131.093C80.7794 131.093 81.5655 130.38 81.7169 129.413H80.8673C80.7111 130.009 80.2179 130.336 79.5099 130.336C78.5724 130.336 77.9669 129.564 77.9669 128.349C77.9669 127.157 78.5626 126.4 79.5099 126.4C80.2667 126.4 80.7306 126.825 80.8673 127.348H81.7169ZM87.2605 130.355C86.6502 130.355 86.1961 130.043 86.1961 129.506C86.1961 128.979 86.5476 128.7 87.3484 128.646L88.7644 128.554V129.037C88.7644 129.789 88.1248 130.355 87.2605 130.355ZM87.1043 131.093C87.8074 131.093 88.3836 130.785 88.7254 130.224H88.8035V131H89.6043V127.396C89.6043 126.303 88.8865 125.644 87.6023 125.644C86.4793 125.644 85.6492 126.2 85.5369 127.045H86.3865C86.5037 126.63 86.9431 126.391 87.573 126.391C88.3591 126.391 88.7644 126.747 88.7644 127.396V127.875L87.2459 127.968C86.0203 128.041 85.3269 128.583 85.3269 129.525C85.3269 130.487 86.0838 131.093 87.1043 131.093ZM91.087 131H91.9268V127.885C91.9268 126.962 92.4688 126.4 93.3087 126.4C94.1485 126.4 94.5489 126.85 94.5489 127.797V131H95.3888V127.592C95.3888 126.342 94.7296 125.644 93.5479 125.644C92.7423 125.644 92.2296 125.985 91.9659 126.566H91.8878V125.736H91.087V131ZM98.8051 131.093C99.5326 131.093 100.158 130.746 100.49 130.16H100.568V131H101.369V123.646H100.529V126.566H100.455C100.158 125.99 99.5375 125.644 98.8051 125.644C97.4672 125.644 96.5932 126.718 96.5932 128.368C96.5932 130.023 97.4574 131.093 98.8051 131.093ZM99.0004 126.4C99.9525 126.4 100.548 127.162 100.548 128.368C100.548 129.584 99.9574 130.336 99.0004 130.336C98.0385 130.336 97.4623 129.599 97.4623 128.368C97.4623 127.143 98.0434 126.4 99.0004 126.4ZM106.131 132.904C107.064 132.904 107.483 132.543 107.933 131.322L109.988 125.736H109.095L107.654 130.067H107.576L106.131 125.736H105.223L107.171 131.005L107.073 131.317C106.854 131.952 106.59 132.182 106.106 132.182C105.989 132.182 105.857 132.177 105.755 132.157V132.875C105.872 132.895 106.019 132.904 106.131 132.904ZM113.009 131.093C114.508 131.093 115.436 130.058 115.436 128.368C115.436 126.674 114.508 125.644 113.009 125.644C111.51 125.644 110.582 126.674 110.582 128.368C110.582 130.058 111.51 131.093 113.009 131.093ZM113.009 130.336C112.013 130.336 111.452 129.613 111.452 128.368C111.452 127.118 112.013 126.4 113.009 126.4C114.005 126.4 114.567 127.118 114.567 128.368C114.567 129.613 114.005 130.336 113.009 130.336ZM120.942 125.736H120.102V128.852C120.102 129.774 119.594 130.326 118.667 130.326C117.827 130.326 117.475 129.887 117.475 128.939V125.736H116.635V129.145C116.635 130.39 117.251 131.093 118.432 131.093C119.238 131.093 119.799 130.761 120.063 130.175H120.141V131H120.942V125.736ZM122.454 131H123.294V127.885C123.294 126.962 123.836 126.4 124.676 126.4C125.516 126.4 125.916 126.85 125.916 127.797V131H126.756V127.592C126.756 126.342 126.097 125.644 124.915 125.644C124.109 125.644 123.597 125.985 123.333 126.566H123.255V125.736H122.454V131ZM130.353 130.18C129.376 130.18 128.829 129.438 128.829 128.29C128.829 127.143 129.376 126.4 130.353 126.4C131.325 126.4 131.915 127.143 131.915 128.29C131.915 129.438 131.329 130.18 130.353 130.18ZM130.392 133.021C131.827 133.021 132.736 132.27 132.736 131.093V125.736H131.935V126.571H131.857C131.554 126.005 130.905 125.644 130.167 125.644C128.815 125.644 127.96 126.713 127.96 128.29C127.96 129.867 128.805 130.922 130.167 130.922C130.89 130.922 131.486 130.595 131.818 130.014H131.896V131.049C131.896 131.825 131.334 132.289 130.392 132.289C129.635 132.289 129.166 132.011 129.074 131.581H128.185C128.312 132.45 129.122 133.021 130.392 133.021ZM138.621 130.355C138.011 130.355 137.557 130.043 137.557 129.506C137.557 128.979 137.908 128.7 138.709 128.646L140.125 128.554V129.037C140.125 129.789 139.485 130.355 138.621 130.355ZM138.465 131.093C139.168 131.093 139.744 130.785 140.086 130.224H140.164V131H140.965V127.396C140.965 126.303 140.247 125.644 138.963 125.644C137.84 125.644 137.01 126.2 136.897 127.045H137.747C137.864 126.63 138.304 126.391 138.934 126.391C139.72 126.391 140.125 126.747 140.125 127.396V127.875L138.606 127.968C137.381 128.041 136.687 128.583 136.687 129.525C136.687 130.487 137.444 131.093 138.465 131.093ZM144.396 131.093C145.123 131.093 145.748 130.746 146.08 130.16H146.158V131H146.959V123.646H146.119V126.566H146.046C145.748 125.99 145.128 125.644 144.396 125.644C143.058 125.644 142.184 126.718 142.184 128.368C142.184 130.023 143.048 131.093 144.396 131.093ZM144.591 126.4C145.543 126.4 146.139 127.162 146.139 128.368C146.139 129.584 145.548 130.336 144.591 130.336C143.629 130.336 143.053 129.599 143.053 128.368C143.053 127.143 143.634 126.4 144.591 126.4ZM152.778 125.736H151.938V128.852C151.938 129.774 151.43 130.326 150.503 130.326C149.663 130.326 149.311 129.887 149.311 128.939V125.736H148.471V129.145C148.471 130.39 149.087 131.093 150.268 131.093C151.074 131.093 151.635 130.761 151.899 130.175H151.977V131H152.778V125.736ZM154.339 131H155.179V123.646H154.339V131ZM157.091 124.374V125.736H156.241V126.439H157.091V129.633C157.091 130.639 157.526 131.039 158.61 131.039C158.776 131.039 158.937 131.02 159.103 130.99V130.282C158.947 130.297 158.864 130.302 158.712 130.302C158.165 130.302 157.931 130.038 157.931 129.418V126.439H159.103V125.736H157.931V124.374H157.091ZM165.618 125.644C164.9 125.644 164.27 126.01 163.933 126.615H163.855V125.736H163.055V132.758H163.894V130.209H163.973C164.261 130.766 164.866 131.093 165.618 131.093C166.956 131.093 167.83 130.014 167.83 128.368C167.83 126.713 166.961 125.644 165.618 125.644ZM165.418 130.336C164.471 130.336 163.87 129.574 163.87 128.368C163.87 127.157 164.471 126.4 165.423 126.4C166.385 126.4 166.961 127.138 166.961 128.368C166.961 129.599 166.385 130.336 165.418 130.336ZM170.699 130.355C170.089 130.355 169.635 130.043 169.635 129.506C169.635 128.979 169.987 128.7 170.787 128.646L172.203 128.554V129.037C172.203 129.789 171.564 130.355 170.699 130.355ZM170.543 131.093C171.246 131.093 171.822 130.785 172.164 130.224H172.242V131H173.043V127.396C173.043 126.303 172.325 125.644 171.041 125.644C169.918 125.644 169.088 126.2 168.976 127.045H169.825C169.943 126.63 170.382 126.391 171.012 126.391C171.798 126.391 172.203 126.747 172.203 127.396V127.875L170.685 127.968C169.459 128.041 168.766 128.583 168.766 129.525C168.766 130.487 169.523 131.093 170.543 131.093ZM174.877 124.374V125.736H174.028V126.439H174.877V129.633C174.877 130.639 175.312 131.039 176.396 131.039C176.562 131.039 176.723 131.02 176.889 130.99V130.282C176.733 130.297 176.65 130.302 176.499 130.302C175.952 130.302 175.717 130.038 175.717 129.418V126.439H176.889V125.736H175.717V124.374H174.877ZM178.108 131H178.948V125.736H178.108V131ZM178.528 124.667C178.85 124.667 179.114 124.403 179.114 124.081C179.114 123.759 178.85 123.495 178.528 123.495C178.206 123.495 177.942 123.759 177.942 124.081C177.942 124.403 178.206 124.667 178.528 124.667ZM182.579 126.386C183.414 126.386 183.971 127.001 183.99 127.934H181.09C181.153 127.001 181.739 126.386 182.579 126.386ZM183.966 129.638C183.746 130.102 183.287 130.351 182.609 130.351C181.715 130.351 181.134 129.691 181.09 128.651V128.612H184.874V128.29C184.874 126.654 184.01 125.644 182.589 125.644C181.144 125.644 180.216 126.718 180.216 128.373C180.216 130.038 181.129 131.093 182.589 131.093C183.741 131.093 184.552 130.541 184.806 129.638H183.966ZM186.123 131H186.962V127.885C186.962 126.962 187.504 126.4 188.344 126.4C189.184 126.4 189.584 126.85 189.584 127.797V131H190.424V127.592C190.424 126.342 189.765 125.644 188.583 125.644C187.778 125.644 187.265 125.985 187.001 126.566H186.923V125.736H186.123V131ZM192.244 124.374V125.736H191.394V126.439H192.244V129.633C192.244 130.639 192.679 131.039 193.762 131.039C193.929 131.039 194.09 131.02 194.256 130.99V130.282C194.099 130.297 194.016 130.302 193.865 130.302C193.318 130.302 193.084 130.038 193.084 129.418V126.439H194.256V125.736H193.084V124.374H192.244ZM195.235 127.177C195.235 127.938 195.685 128.363 196.671 128.603L197.574 128.822C198.136 128.959 198.409 129.203 198.409 129.564C198.409 130.048 197.901 130.385 197.193 130.385C196.52 130.385 196.1 130.102 195.958 129.657H195.094C195.187 130.531 195.992 131.093 197.164 131.093C198.36 131.093 199.274 130.443 199.274 129.501C199.274 128.744 198.795 128.314 197.804 128.075L196.993 127.88C196.373 127.729 196.08 127.504 196.08 127.143C196.08 126.674 196.568 126.356 197.193 126.356C197.828 126.356 198.238 126.635 198.351 127.055H199.181C199.068 126.19 198.302 125.644 197.198 125.644C196.08 125.644 195.235 126.303 195.235 127.177ZM201.215 131.049C201.567 131.049 201.85 130.761 201.85 130.414C201.85 130.062 201.567 129.779 201.215 129.779C200.869 129.779 200.581 130.062 200.581 130.414C200.581 130.761 200.869 131.049 201.215 131.049Z" fill="$color-gray-70"/>
</svg>
