<svg width="243" height="144" viewBox="0 0 243 144" fill="none" xmlns="http://www.w3.org/2000/svg">
<path d="M0 6C0 2.68629 2.68629 0 6 0H237C240.314 0 243 2.68629 243 6V138C243 141.314 240.314 144 237 144H6C2.68629 144 0 141.314 0 138V6Z" fill="white"/>
<path fill-rule="evenodd" clip-rule="evenodd" d="M131.442 79.2629V70.8986C132.58 72.4376 134.587 73.2406 136.394 73.2406C140.409 73.2406 143.42 70.0287 143.42 66.1476C143.42 62.2666 140.475 59.0547 136.394 59.0547C134.654 59.0547 132.513 59.9915 131.375 61.5974V59.3223H129.368V79.2629H131.442ZM136.394 60.9283C139.137 60.9283 141.345 63.2703 141.345 66.1477C141.345 69.025 139.137 71.3001 136.394 71.367C133.516 71.367 131.308 69.025 131.308 66.1477C131.308 63.2703 133.449 60.9283 136.394 60.9283Z" fill="#00A3AD"/>
<path d="M145.628 59.3223H147.702V61.2628C148.438 59.9914 149.777 59.3223 151.516 59.3223H153.189V61.2628H151.516C148.773 61.2628 147.769 62.7349 147.769 65.8799V72.9728H145.628V59.3223Z" fill="#00A3AD"/>
<path d="M155.33 59.3223H157.471V66.0137V72.9728H155.33V66.0137V59.3223Z" fill="#00A3AD"/>
<path d="M160.081 59.3223H162.155V61.3298C163.092 59.9246 164.765 59.0547 166.773 59.0547C170.453 59.0547 172.728 61.4636 172.728 65.4116V72.9729H170.587V65.3447C170.587 62.6681 169.248 60.9283 166.505 60.9283C164.029 60.9283 162.155 62.8688 162.155 65.4116V72.9729H160.081V59.3223H160.081Z" fill="#00A3AD"/>
<path d="M180.223 66.3492L177.479 69.1596V72.9737H175.405V53.0332H177.479V66.7507L184.773 59.3232H187.449L181.762 65.1447L187.449 72.9737H184.974L180.223 66.3492Z" fill="#00A3AD"/>
<path d="M189.055 53.0332H191.196V66.0146V72.9737H189.055V66.0146V53.0332Z" fill="#00A3AD"/>
<path fill-rule="evenodd" clip-rule="evenodd" d="M200.431 58.9883C196.349 58.9883 193.338 62.1333 193.338 66.215C193.338 70.2299 196.148 73.2411 200.565 73.1742C203.576 73.1742 205.717 71.769 206.988 69.36L205.182 68.4901C204.312 70.163 202.773 71.3005 200.565 71.3005C197.821 71.3005 195.68 69.4269 195.412 66.7504H207.457V65.8805C207.457 61.6649 204.379 58.9883 200.431 58.9883ZM205.249 64.8768H195.479C196.015 62.6017 197.955 60.9289 200.431 60.9289C203.041 60.9289 204.847 62.401 205.249 64.8768Z" fill="#00A3AD"/>
<path d="M156.401 56.4462C157.214 56.4462 157.873 55.7871 157.873 54.9741C157.873 54.161 157.214 53.502 156.401 53.502C155.588 53.502 154.929 54.161 154.929 54.9741C154.929 55.7871 155.588 56.4462 156.401 56.4462Z" fill="#00A3AD"/>
<path fill-rule="evenodd" clip-rule="evenodd" d="M205.048 55.3088H205.985V57.8515H206.587V55.3088H207.591V54.7734H205.048V55.3088ZM208.461 54.7734H207.992V57.9184H208.594V55.7772L209.665 57.1154L210.736 55.7772V57.8515H211.338V54.7734H210.803L209.598 56.3125L208.461 54.7734Z" fill="#00A3AD"/>
<path d="M115.048 100.14V99.5375H115.985V100.006C115.985 100.742 116.185 101.076 116.855 101.076C117.524 101.076 117.724 100.675 117.724 99.9389V98.8014C117.724 98.1992 117.457 97.9315 116.921 97.9315C116.453 97.9315 116.185 98.1992 115.985 98.5337L115.918 98.7345L115.048 98.4668L115.382 95.1211H118.527V95.188C118.527 95.9241 118.394 95.991 117.591 95.991H116.118C116.052 96.5263 115.985 97.4631 115.918 97.9315C116.118 97.53 116.52 97.1285 117.189 97.1954C118.126 97.1954 118.594 97.8646 118.594 98.8683V100.14C118.594 101.344 117.992 102.013 116.788 102.013C115.65 101.946 115.048 101.411 115.048 100.14Z" fill="#8E99A1"/>
<path d="M122.141 101.814H121.271V96.3936H122.007L122.074 97.1966C122.275 96.5943 122.609 96.2598 123.278 96.2598C123.948 96.2598 124.282 96.5943 124.416 97.1297C124.617 96.5943 125.018 96.2598 125.554 96.2598C126.423 96.2598 126.825 96.7951 126.825 97.9326V101.814H125.955V98.0665C125.955 97.3973 125.754 97.0627 125.219 97.0627C124.684 97.0627 124.483 97.5311 124.483 98.0665V101.814H123.613V98.0665C123.613 97.4642 123.412 97.0627 122.944 97.0627C122.409 97.0627 122.208 97.5311 122.208 98.2003V101.814H122.141Z" fill="#8E99A1"/>
<path fill-rule="evenodd" clip-rule="evenodd" d="M129.1 103.687C128.029 103.687 127.561 103.353 127.561 102.75C127.561 102.349 127.963 101.947 128.565 101.813C127.896 101.747 127.628 101.479 127.628 101.011C127.628 100.542 127.963 100.274 128.565 100.141C128.096 99.9399 127.829 99.5384 127.829 98.9362V97.8655C127.829 97.0626 128.297 96.5272 129.1 96.3934H129.234C129.97 96.2596 130.104 96.1257 130.104 95.5904V95.2559H131.041V95.4566C131.041 96.1257 130.773 96.4603 129.903 96.5272H130.104C130.773 96.6611 131.108 97.1295 131.108 97.7986V98.9362C131.108 99.873 130.438 100.408 129.435 100.408H129.234C128.498 100.408 128.297 100.542 128.297 100.743C128.297 100.944 128.431 101.077 128.966 101.077H129.836C130.907 101.077 131.308 101.546 131.308 102.282C131.308 103.018 130.773 103.687 129.234 103.687H129.1ZM129.435 102.951C130.171 102.951 130.505 102.683 130.505 102.349C130.505 102.081 130.305 101.88 129.769 101.88H129.167C128.699 101.947 128.364 102.215 128.364 102.55C128.364 102.817 128.632 103.018 129.1 103.018H129.435V102.951ZM130.171 97.8655V98.9362C130.171 99.4715 129.903 99.7392 129.368 99.8061C128.899 99.8061 128.631 99.5384 128.631 99.0031V97.9325C128.631 97.531 128.832 97.2633 129.167 97.1295C129.234 97.0626 129.301 97.0626 129.434 97.0626C129.97 97.0626 130.171 97.3971 130.171 97.8655Z" fill="#8E99A1"/>
<path d="M132.044 102.482C132.379 102.415 132.513 102.214 132.58 101.812C132.513 101.812 132.513 101.812 132.446 101.812C132.111 101.812 131.978 101.679 131.978 101.21C131.978 100.742 132.111 100.541 132.58 100.541C132.981 100.541 133.182 100.742 133.182 101.344C133.182 102.147 132.847 102.682 132.111 102.883L132.044 102.482Z" fill="#8E99A1"/>
<path d="M135.724 101.813V100.943H136.661V96.727H135.925V96.0579C136.527 95.991 136.728 95.7902 136.795 95.1211H137.464V100.943H138.401V101.813H135.724Z" fill="#8E99A1"/>
<path fill-rule="evenodd" clip-rule="evenodd" d="M139.07 97.1954V99.872C139.07 101.277 139.806 101.946 140.943 101.946C142.081 101.946 142.817 101.277 142.817 99.872V97.1954C142.817 95.8572 142.081 95.1211 140.943 95.1211C139.806 95.1211 139.07 95.8572 139.07 97.1954ZM141.947 97.1955V99.8052C141.947 100.675 141.613 101.077 140.943 101.077C140.207 101.077 139.94 100.675 139.94 99.8052V97.1955C139.94 96.3256 140.207 95.8572 140.943 95.8572C141.679 95.8572 141.947 96.3256 141.947 97.1955Z" fill="#8E99A1"/>
<path d="M146.43 101.814H145.561V96.3936H146.297L146.364 97.1966C146.564 96.5943 146.899 96.2598 147.568 96.2598C148.237 96.2598 148.572 96.5943 148.706 97.1297C148.906 96.5943 149.308 96.2598 149.843 96.2598C150.713 96.2598 151.114 96.7951 151.114 97.9326V101.814H150.245V98.0665C150.245 97.3973 150.044 97.0627 149.509 97.0627C148.973 97.0627 148.772 97.5311 148.772 98.0665V101.814H147.903V98.0665C147.903 97.4642 147.702 97.0627 147.166 97.0627C146.631 97.0627 146.43 97.5311 146.43 98.2003V101.814Z" fill="#8E99A1"/>
<path fill-rule="evenodd" clip-rule="evenodd" d="M153.323 103.687C152.253 103.687 151.784 103.353 151.784 102.75C151.784 102.349 152.186 101.947 152.788 101.813C152.119 101.747 151.851 101.479 151.851 101.011C151.851 100.542 152.186 100.274 152.788 100.141C152.319 99.9399 152.052 99.5384 152.052 98.9362V97.8655C152.052 97.0626 152.52 96.5272 153.323 96.3934H153.457C154.126 96.2596 154.327 96.1257 154.327 95.5904V95.2559H155.264V95.4566C155.264 96.1257 154.996 96.4603 154.126 96.5272H154.327C154.996 96.6611 155.331 97.1295 155.331 97.7986V98.9362C155.331 99.873 154.662 100.408 153.658 100.408H153.524C152.788 100.408 152.587 100.542 152.587 100.743C152.587 100.944 152.721 101.077 153.256 101.077H154.126C155.197 101.077 155.598 101.546 155.598 102.282C155.598 103.018 155.063 103.687 153.524 103.687H153.323ZM153.658 102.951C154.394 102.951 154.729 102.683 154.729 102.349C154.729 102.081 154.528 101.88 153.993 101.88H153.39C152.922 101.947 152.587 102.215 152.587 102.55C152.587 102.817 152.855 103.018 153.323 103.018H153.658V102.951ZM154.461 97.8655V98.9362C154.461 99.4715 154.193 99.7392 153.658 99.8061C153.189 99.8061 152.922 99.5384 152.922 99.0031V97.9325C152.922 97.531 153.123 97.2633 153.457 97.1295C153.524 97.0626 153.591 97.0626 153.725 97.0626C154.26 97.0626 154.461 97.3971 154.461 97.8655Z" fill="#8E99A1"/>
<path d="M156.334 102.482C156.669 102.415 156.802 102.214 156.869 101.812C156.802 101.812 156.802 101.812 156.735 101.812C156.401 101.812 156.267 101.679 156.267 101.21C156.267 100.742 156.401 100.541 156.869 100.541C157.271 100.541 157.472 100.742 157.472 101.344C157.472 102.147 157.137 102.682 156.401 102.883L156.334 102.482Z" fill="#8E99A1"/>
<path d="M160.081 101.813V101.077C160.081 99.8056 160.884 99.1365 161.62 98.6012C162.222 98.1328 162.825 97.6644 162.825 96.9952V96.7275C162.825 96.1253 162.624 95.7907 161.955 95.7907C161.352 95.7907 161.085 96.0584 161.085 96.6606V97.5974H160.215V96.6606C160.215 95.59 160.884 95.0547 162.022 95.0547C163.159 95.0547 163.761 95.6569 163.761 96.7275V96.9952C163.761 97.9989 163.092 98.5342 162.423 99.1365C161.754 99.6718 161.152 100.14 161.152 101.01H163.761V101.88H160.081V101.813Z" fill="#8E99A1"/>
<path fill-rule="evenodd" clip-rule="evenodd" d="M164.498 97.1954V99.872C164.498 101.277 165.234 101.946 166.372 101.946C167.509 101.946 168.245 101.277 168.245 99.872V97.1954C168.245 95.8572 167.509 95.1211 166.372 95.1211C165.234 95.1211 164.498 95.8572 164.498 97.1954ZM167.375 97.1955V99.8052C167.375 100.675 167.108 101.077 166.372 101.077C165.636 101.077 165.368 100.675 165.368 99.8052V97.1955C165.368 96.3256 165.636 95.8572 166.372 95.8572C167.108 95.8572 167.375 96.3256 167.375 97.1955Z" fill="#8E99A1"/>
<path d="M171.858 101.814H170.988V96.3936H171.724L171.791 97.1966C171.992 96.5943 172.327 96.2598 172.996 96.2598C173.665 96.2598 173.999 96.5943 174.133 97.1297C174.334 96.5943 174.735 96.2598 175.271 96.2598C176.141 96.2598 176.542 96.7951 176.542 97.9326V101.814H175.672V98.0665C175.672 97.3973 175.472 97.0627 174.936 97.0627C174.401 97.0627 174.2 97.5311 174.2 98.0665V101.814H173.33V98.0665C173.33 97.4642 173.13 97.0627 172.661 97.0627C172.126 97.0627 171.925 97.5311 171.925 98.2003V101.814H171.858Z" fill="#8E99A1"/>
<path fill-rule="evenodd" clip-rule="evenodd" d="M178.817 103.687C177.747 103.687 177.278 103.353 177.278 102.75C177.278 102.349 177.68 101.947 178.282 101.813C177.613 101.747 177.345 101.479 177.345 101.011C177.345 100.542 177.68 100.274 178.282 100.141C177.814 99.9399 177.546 99.5384 177.546 98.9362V97.8655C177.546 97.0626 178.014 96.5272 178.817 96.3934H178.951C179.687 96.2596 179.821 96.1257 179.821 95.5904V95.2559H180.758V95.4566C180.758 96.1257 180.49 96.4603 179.62 96.5272H179.821C180.49 96.6611 180.825 97.1295 180.825 97.7986V98.9362C180.825 99.873 180.156 100.408 179.152 100.408H179.018C178.282 100.408 178.081 100.542 178.081 100.743C178.081 100.944 178.215 101.077 178.75 101.077H179.62C180.691 101.077 181.092 101.546 181.092 102.282C181.092 103.018 180.557 103.687 179.018 103.687H178.817ZM179.152 102.951C179.888 102.951 180.223 102.683 180.223 102.349C180.223 102.081 180.022 101.88 179.487 101.88H178.884C178.416 101.947 178.082 102.215 178.082 102.55C178.082 102.817 178.349 103.018 178.818 103.018H179.152V102.951ZM179.888 97.8655V98.9362C179.888 99.4715 179.62 99.7392 179.085 99.8061C178.616 99.8061 178.349 99.5384 178.349 99.0031V97.9325C178.349 97.531 178.55 97.2633 178.884 97.1295C178.951 97.0626 179.018 97.0626 179.152 97.0626C179.687 97.0626 179.888 97.3971 179.888 97.8655Z" fill="#8E99A1"/>
<path d="M181.762 102.482C182.096 102.415 182.23 102.214 182.297 101.812C182.23 101.812 182.23 101.812 182.163 101.812C181.829 101.812 181.695 101.679 181.695 101.21C181.695 100.742 181.829 100.541 182.297 100.541C182.699 100.541 182.899 100.742 182.899 101.344C182.899 102.147 182.565 102.682 181.829 102.883L181.762 102.482Z" fill="#8E99A1"/>
<path fill-rule="evenodd" clip-rule="evenodd" d="M188.587 101.813V100.34H189.39V99.5375H188.587V95.1211H187.784L185.375 99.6713V100.34H187.784V101.813H188.587ZM187.784 99.6044H186.312L187.65 97.0617L187.918 96.1248L187.784 97.1286V99.6044Z" fill="#8E99A1"/>
<path fill-rule="evenodd" clip-rule="evenodd" d="M190.059 97.1954V99.872C190.059 101.277 190.728 101.946 191.933 101.946C193.07 101.946 193.806 101.277 193.806 99.872V97.1954C193.806 95.8572 193.07 95.1211 191.933 95.1211C190.795 95.1211 190.059 95.8572 190.059 97.1954ZM192.936 97.1955V99.8052C192.936 100.675 192.602 101.077 191.933 101.077C191.197 101.077 190.929 100.675 190.929 99.8052V97.1955C190.929 96.3256 191.197 95.8572 191.933 95.8572C192.669 95.8572 192.936 96.3256 192.936 97.1955Z" fill="#8E99A1"/>
<path d="M197.353 101.814H196.483V96.3936H197.219L197.286 97.1966C197.487 96.5943 197.821 96.2598 198.49 96.2598C199.159 96.2598 199.494 96.5943 199.628 97.1297C199.829 96.5943 200.23 96.2598 200.765 96.2598C201.635 96.2598 202.037 96.7951 202.037 97.9326V101.814H201.167V98.0665C201.167 97.3973 200.966 97.0627 200.431 97.0627C199.896 97.0627 199.695 97.5311 199.695 98.0665V101.814H198.825V98.0665C198.825 97.4642 198.624 97.0627 198.156 97.0627C197.62 97.0627 197.42 97.5311 197.42 98.2003V101.814H197.353Z" fill="#8E99A1"/>
<path fill-rule="evenodd" clip-rule="evenodd" d="M204.311 103.687C203.241 103.687 202.772 103.353 202.772 102.75C202.772 102.349 203.174 101.947 203.776 101.813C203.107 101.747 202.839 101.479 202.839 101.011C202.839 100.542 203.174 100.274 203.776 100.141C203.308 99.9399 203.04 99.5384 203.04 98.9362V97.8655C203.04 97.0626 203.509 96.5272 204.311 96.3934H204.445C205.181 96.2596 205.315 96.1257 205.315 95.5904V95.2559H206.252V95.4566C206.252 96.1257 205.984 96.4603 205.114 96.5272H205.315C205.984 96.6611 206.319 97.1295 206.319 97.7986V98.9362C206.319 99.873 205.65 100.408 204.646 100.408H204.512C203.843 100.408 203.575 100.542 203.575 100.743C203.575 100.944 203.709 101.077 204.245 101.077H205.114C206.185 101.077 206.587 101.546 206.587 102.282C206.587 103.018 206.051 103.687 204.512 103.687H204.311ZM204.646 102.951C205.382 102.951 205.717 102.683 205.717 102.349C205.717 102.081 205.516 101.88 204.981 101.88H204.379C203.91 101.947 203.576 102.215 203.576 102.55C203.576 102.817 203.843 103.018 204.312 103.018H204.646V102.951ZM205.382 97.8655V98.9362C205.382 99.4715 205.114 99.7392 204.579 99.8061C204.111 99.8061 203.843 99.5384 203.843 99.0031V97.9325C203.843 97.531 204.044 97.2633 204.378 97.1295C204.445 97.0626 204.512 97.0626 204.646 97.0626C205.181 97.0626 205.382 97.3971 205.382 97.8655Z" fill="#8E99A1"/>
<path d="M45.6577 69.6271L52.8176 62.6011H45.7246V59.3223H57.8362V62.668L50.6763 69.6271H58.0369V72.9728H45.6577V69.6271Z" fill="#612141"/>
<path fill-rule="evenodd" clip-rule="evenodd" d="M65.397 59.0547C62.3189 59.0547 58.7725 61.3298 58.7725 66.1476C58.7725 70.9655 62.5197 73.2406 65.3301 73.2406C67.1368 73.2406 68.6089 72.5045 69.4788 71.4339V72.9729H73.226V59.3223H69.4788V60.6606C68.542 59.7238 67.2037 59.0547 65.397 59.0547ZM66.1329 62.4005C68.1403 62.4005 69.6125 64.0734 69.6125 66.0808C69.6125 68.1552 68.1403 69.7611 66.1329 69.7611C64.0585 69.7611 62.4526 68.1552 62.4526 66.0808C62.4526 63.9395 64.0585 62.4005 66.1329 62.4005Z" fill="#612141"/>
<path d="M79.0475 53.0332V63.0035V72.9737H75.3003V63.0035V53.0332H79.0475Z" fill="#612141"/>
<path d="M84.8693 53.0332V63.0035V72.9737H81.1221V63.0035V53.0332H84.8693Z" fill="#612141"/>
<path fill-rule="evenodd" clip-rule="evenodd" d="M93.4342 59.0547C89.4863 59.0547 86.3413 62.1997 86.3413 66.1476C86.3413 70.0956 89.4863 73.2406 93.4342 73.2406C97.3822 73.2406 100.527 70.0956 100.527 66.1476C100.527 62.1997 97.3822 59.0547 93.4342 59.0547ZM93.5012 62.6012C95.3749 62.6012 96.9139 64.2071 96.9139 66.1477C96.9139 68.0882 95.3749 69.6941 93.5012 69.6941C91.5607 69.6941 90.0886 68.0882 90.0886 66.1477C90.0886 64.2071 91.5607 62.6012 93.5012 62.6012Z" fill="#612141"/>
<path d="M102.066 59.3223H105.814V61.5974C106.483 60.1922 107.754 59.3223 109.561 59.3223H110.899V62.9356H108.624C106.617 62.9356 105.747 64.0063 105.747 66.549V72.9728H102V59.3223H102.066Z" fill="#612141"/>
<path d="M35.6872 57.584V61.1305H43.7169V64.7438H35.6872V69.294H43.7169V72.9743H31.873V57.584H35.6872Z" fill="#612141"/>
<path d="M113.843 69.5612L115.65 68.2229C116.988 70.2972 118.661 71.3009 120.869 71.3009C123.345 71.3009 125.085 69.695 125.085 67.5537C125.085 65.0779 122.676 64.3418 120.2 63.4719C117.457 62.5351 114.646 61.3976 114.646 57.918C114.646 55.0407 117.256 52.7656 120.802 52.7656C123.613 52.7656 125.553 53.9032 126.959 55.7768L125.286 57.0482C124.282 55.4422 122.81 54.6392 120.802 54.6392C118.527 54.6392 116.854 56.0444 116.854 57.918C116.854 60.1931 119.13 60.9292 121.605 61.7991C124.349 62.7359 127.293 63.8734 127.293 67.5537C127.293 70.498 124.75 73.2415 120.869 73.2415C117.657 73.2415 115.449 71.9032 113.843 69.5612Z" fill="#00A3AD"/>
<path d="M115.048 91.0407V87.695C115.048 86.0891 115.918 85.4199 117.323 85.4199C118.728 85.4199 119.598 86.0891 119.598 87.4943V88.7656H117.724V87.6281C117.724 87.0928 117.658 86.959 117.323 86.959C116.988 86.959 116.921 87.2266 116.921 87.7619V90.84C116.921 91.4422 116.988 91.643 117.323 91.643C117.658 91.643 117.724 91.4422 117.724 90.9069V89.7024H119.598V91.0407C119.598 92.6467 118.795 93.2489 117.323 93.2489C115.717 93.3158 115.048 92.6467 115.048 91.0407Z" fill="#8E99A1"/>
<path fill-rule="evenodd" clip-rule="evenodd" d="M121.941 92.378H123.145L123.346 93.2479H125.085L123.413 85.5527H121.673L120.067 93.2479H121.807L121.941 92.378ZM122.877 90.9059H122.141L122.409 89.0323L122.476 88.0955L122.543 89.0323L122.877 90.9059Z" fill="#8E99A1"/>
<path fill-rule="evenodd" clip-rule="evenodd" d="M127.427 93.1815V90.8395H127.828C129.434 90.8395 130.036 90.0365 130.036 88.7651V87.4268C130.036 86.0886 129.367 85.4863 127.828 85.4863H125.687V93.1815H127.427ZM127.427 89.3005V86.9585H127.761C128.163 86.9585 128.297 87.1592 128.297 87.4938V88.7652C128.297 89.0998 128.096 89.3005 127.761 89.3005H127.427Z" fill="#8E99A1"/>
<path d="M130.84 91.3748V90.3042H132.647V91.3748C132.647 91.6425 132.713 91.8432 133.048 91.8432C133.316 91.8432 133.383 91.6425 133.383 91.3748V90.9064C133.383 90.3711 132.847 90.1034 132.312 89.8358C131.643 89.4343 130.84 88.9659 130.84 87.8283V87.4268C130.84 86.0886 131.576 85.4863 132.981 85.4863C134.319 85.4863 135.055 86.0886 135.055 87.293V88.096H133.316V87.3599C133.316 87.0254 133.249 86.8915 132.981 86.8915C132.713 86.8915 132.647 87.0254 132.647 87.3599V87.6276C132.647 88.0291 133.115 88.2967 133.65 88.5644C134.319 88.9659 135.122 89.4343 135.122 90.6387V91.4417C135.122 92.78 134.453 93.3822 132.914 93.3822C131.375 93.3153 130.84 92.6462 130.84 91.3748Z" fill="#8E99A1"/>
<path d="M136.193 91.0402V85.4863H137.933V90.9064C137.933 91.4417 138.066 91.6425 138.334 91.6425C138.602 91.6425 138.736 91.5086 138.736 90.9064V85.4863H140.475V91.0402C140.475 92.6462 139.672 93.3153 138.334 93.3153C136.929 93.3153 136.193 92.6462 136.193 91.0402Z" fill="#8E99A1"/>
<path d="M141.613 93.2479V85.5527H143.419V91.5081H145.226V93.3148H141.613V93.2479Z" fill="#8E99A1"/>
<path d="M149.91 93.2479H146.163V85.5527H149.91V87.1587H147.903V88.5639H149.71V90.1698H147.903V91.575H149.91V93.2479Z" fill="#8E99A1"/>
<path d="M150.713 91.3748V90.3042H152.52V91.3748C152.52 91.6425 152.587 91.8432 152.922 91.8432C153.189 91.8432 153.256 91.6425 153.256 91.3748V90.9064C153.256 90.3711 152.721 90.1034 152.185 89.8358C151.516 89.4343 150.713 88.9659 150.713 87.8283V87.4268C150.713 86.0886 151.449 85.4863 152.855 85.4863C154.193 85.4863 154.929 86.0886 154.929 87.293V88.096H153.189V87.3599C153.189 87.0254 153.122 86.8915 152.855 86.8915C152.587 86.8915 152.52 87.0254 152.52 87.3599V87.6276C152.52 88.0291 152.988 88.2967 153.524 88.5644C154.193 88.9659 154.996 89.4343 154.996 90.6387V91.4417C154.996 92.78 154.327 93.3822 152.788 93.3822C151.316 93.3153 150.713 92.6462 150.713 91.3748Z" fill="#8E99A1"/>
<path d="M42.2446 55.5087C43.0576 55.5087 43.7167 54.8496 43.7167 54.0366C43.7167 53.2235 43.0576 52.5645 42.2446 52.5645C41.4316 52.5645 40.7725 53.2235 40.7725 54.0366C40.7725 54.8496 41.4316 55.5087 42.2446 55.5087Z" fill="#00A3AD"/>
<path d="M33.747 55.5087C34.5601 55.5087 35.2191 54.8496 35.2191 54.0366C35.2191 53.2235 34.5601 52.5645 33.747 52.5645C32.934 52.5645 32.2749 53.2235 32.2749 54.0366C32.2749 54.8496 32.934 55.5087 33.747 55.5087Z" fill="#00A3AD"/>
<path d="M38.0292 55.5087C38.8423 55.5087 39.5014 54.8496 39.5014 54.0366C39.5014 53.2235 38.8423 52.5645 38.0292 52.5645C37.2162 52.5645 36.5571 53.2235 36.5571 54.0366C36.5571 54.8496 37.2162 55.5087 38.0292 55.5087Z" fill="#00A3AD"/>
<path d="M31.873 100.141V87.2935C31.873 84.6169 32.7429 83.8809 35.018 83.8809V85.6206C33.8805 85.6206 33.6128 85.9552 33.6128 87.2935V100.141C33.6128 101.479 33.8805 101.814 35.018 101.814V103.554C32.6091 103.554 31.873 102.818 31.873 100.141Z" fill="#8E99A1"/>
<path fill-rule="evenodd" clip-rule="evenodd" d="M38.7651 101.747V94.788V94.6541H39.2335C39.8358 94.6541 40.0365 94.9218 40.0365 95.6578V100.676C40.0365 101.145 40.1034 101.546 40.2373 101.68H42.044C41.8432 101.412 41.7763 101.078 41.7763 100.676V95.524C41.7763 94.5872 41.5086 94.0519 40.8395 93.8511C41.4417 93.5835 41.7094 93.0482 41.7094 92.1114V87.4943C41.7094 86.0222 41.0402 85.4199 39.3005 85.4199H37.0923V101.747H38.7651ZM38.7654 93.1821V86.959V86.8921H39.1668C39.9029 86.8921 40.1037 87.0928 40.1037 87.762V92.3122C40.1037 92.9144 39.836 93.1821 39.2338 93.1821H38.7654Z" fill="#8E99A1"/>
<path fill-rule="evenodd" clip-rule="evenodd" d="M43.5835 87.6955V99.6063C43.5835 101.279 44.5203 102.015 46.0593 102.015C47.5315 102.015 48.4683 101.279 48.4683 99.6063V87.6955C48.4683 86.1565 47.5984 85.3535 46.0593 85.3535C44.5203 85.3535 43.5835 86.1565 43.5835 87.6955ZM46.7285 87.7625V99.3387C46.7285 100.008 46.5277 100.342 46.0593 100.275C45.524 100.275 45.3233 100.008 45.3233 99.3387V87.7625C45.3233 87.0933 45.4571 86.8257 45.9924 86.8257C46.5277 86.8257 46.7285 87.0933 46.7285 87.7625Z" fill="#8E99A1"/>
<path d="M50.2075 99.6063V95.123H51.8804V99.4056C51.8804 100.075 52.0142 100.342 52.4826 100.342C52.951 100.342 53.1518 100.075 53.1518 99.4725V95.5245C53.1518 94.7215 52.8841 94.5877 51.8804 93.9855C50.7428 93.2494 50.2744 92.7141 50.2744 91.5096V87.5617C50.2744 86.1565 51.0774 85.3535 52.6164 85.3535C54.0886 85.3535 54.7577 86.1565 54.8246 87.361V91.6435H53.2187V87.7624C53.2187 87.0933 53.0848 86.8925 52.6164 86.8925C52.148 86.8925 52.0142 87.0933 52.0142 87.7624V91.3089C52.0142 91.9781 52.215 92.1119 53.3525 92.9149C54.4231 93.6509 54.8246 94.0524 54.8246 95.3238V99.6063C54.8246 101.279 54.0216 102.015 52.4826 102.015C50.9436 102.015 50.2075 101.279 50.2075 99.6063Z" fill="#8E99A1"/>
<path d="M56.6318 99.6053V85.4863H58.3716V99.4045C58.3716 100.074 58.5054 100.341 58.9738 100.341C59.4422 100.341 59.5761 100.074 59.5761 99.4045V85.4863H61.3159V99.6053C61.3159 101.278 60.5129 102.014 58.9738 102.014C57.4348 102.014 56.6318 101.278 56.6318 99.6053Z" fill="#8E99A1"/>
<path d="M64.3936 101.813L62.5869 85.4863H64.2598L65.0628 94.9213L65.1966 98.4008L65.3304 94.9213L66.1334 85.4863H67.7393L66.0665 101.813H64.3936Z" fill="#8E99A1"/>
<path fill-rule="evenodd" clip-rule="evenodd" d="M70.2818 99.806H71.687L71.8877 101.813H73.5606L71.8877 85.4863H70.1479L68.542 101.813H70.1479L70.2818 99.806ZM71.6201 98.2001H70.4156L70.884 92.2447L71.0179 88.5644L71.1517 92.2447L71.6201 98.2001Z" fill="#8E99A1"/>
<path d="M74.7651 99.6063V95.123H76.438V99.4056C76.438 100.075 76.5718 100.342 77.0402 100.342C77.5086 100.342 77.7094 100.075 77.7094 99.4725V95.5245C77.7094 94.7215 77.4417 94.5877 76.438 93.9855C75.3005 93.2494 74.8321 92.7141 74.8321 91.5096V87.5617C74.8321 86.1565 75.635 85.3535 77.1741 85.3535C78.6462 85.3535 79.3153 86.1565 79.3822 87.361V91.6435H77.7094V87.7624C77.7094 87.0933 77.5755 86.8925 77.1071 86.8925C76.6387 86.8925 76.5049 87.0933 76.5049 87.7624V91.3089C76.5049 91.9781 76.7057 92.1119 77.8432 92.9149C78.9138 93.6509 79.3153 94.0524 79.3153 95.3238V99.6063C79.3153 101.279 78.5123 102.015 76.9733 102.015C75.5012 102.015 74.7651 101.279 74.7651 99.6063Z" fill="#8E99A1"/>
<path d="M83.5312 87.1592V101.813H81.8583V87.1592H80.52V85.4863H84.8695V87.1592H83.5312Z" fill="#8E99A1"/>
<path fill-rule="evenodd" clip-rule="evenodd" d="M87.0777 99.806H88.4829L88.6836 101.813H90.3565L88.6836 85.4863H86.9438L85.3379 101.813H86.9438L87.0777 99.806ZM88.3488 98.2001H87.1444L87.6128 92.2447L87.7466 88.5644L87.8804 92.2447L88.3488 98.2001Z" fill="#8E99A1"/>
<path d="M93.7021 87.1592V101.813H92.0292V87.1592H90.6909V85.4863H95.0404V87.1592H93.7021Z" fill="#8E99A1"/>
<path d="M95.7764 101.815V100.209H96.7132V87.1606H95.7764V85.5547H99.2559V87.1606H98.3191V100.209H99.2559V101.815H95.7764Z" fill="#8E99A1"/>
<path d="M102.267 101.814H100.795V85.4868H102.133L104.074 94.6541L104.475 97.063L104.208 93.5835V85.4199H105.747V101.747H104.475L102.535 92.5129L102.133 90.1039L102.401 93.4497V101.814H102.267Z" fill="#8E99A1"/>
<path d="M107.754 101.814C108.892 101.814 109.16 101.479 109.16 100.141V87.2935C109.16 85.9552 108.892 85.6206 107.754 85.6206V83.8809C110.029 83.8809 110.899 84.6169 110.899 87.2935V100.141C110.899 102.818 110.163 103.554 107.754 103.554V101.814Z" fill="#8E99A1"/>
</svg>
