<svg width="243" height="144" viewBox="0 0 243 144" fill="none" xmlns="http://www.w3.org/2000/svg">
<path d="M0 6C0 2.68629 2.68629 0 6 0H237C240.314 0 243 2.68629 243 6V138C243 141.314 240.314 144 237 144H6C2.68629 144 0 141.314 0 138V6Z" fill="white"/>
<path d="M45.0703 48.2275H53.6436V57.5642H61.6296V48.2275H70.1442V75.1217H61.6296V64.4345H53.6436V75.1217H45.0703V48.2275Z" fill="#3799D4"/>
<path fill-rule="evenodd" clip-rule="evenodd" d="M90.5793 48.2275H82.2409L72.0234 75.1217H80.5967L81.8298 71.3049H90.638L91.8124 75.1217H100.679L90.5793 48.2275ZM86.4691 57.2119L88.9354 65.4916H83.7092L86.4104 57.2119H86.4691Z" fill="#3799D4"/>
<path d="M102.617 48.2275H111.132V68.1927H123.404V75.1217H102.617V48.2275Z" fill="#3799D4"/>
<path fill-rule="evenodd" clip-rule="evenodd" d="M154.35 61.6746C154.35 53.4536 148.771 47.5815 140.316 47.5815C131.86 47.5815 126.281 53.4536 126.281 61.6746C126.281 69.8955 131.86 75.7676 140.316 75.7676C148.713 75.7676 154.35 69.8955 154.35 61.6746ZM145.835 61.6747C145.835 67.6642 142.488 69.0735 140.316 69.0735C138.143 69.0735 134.796 67.6642 134.796 61.6747C134.796 55.6851 138.143 54.2758 140.316 54.2758C142.488 54.2758 145.835 55.6851 145.835 61.6747Z" fill="#3799D4"/>
<path d="M178.309 72.3618C176.43 74.7106 173.436 75.7676 170.441 75.7676C162.22 75.7676 157.17 69.6019 157.17 61.9682C157.17 51.692 164.569 47.5815 170.852 47.5815C177.898 47.5815 182.361 51.281 183.653 57.6228H175.432C175.139 55.685 173.436 54.2757 171.38 54.2757C165.508 54.2757 165.684 60.2653 165.684 62.0856C165.684 64.6106 166.741 69.0147 171.909 69.0147C173.905 69.0147 175.902 68.0164 176.313 66.0199H172.555V60.2653H183.888V75.063H178.486L178.309 72.3618Z" fill="#3799D4"/>
<path fill-rule="evenodd" clip-rule="evenodd" d="M199.918 56.4484C199.918 52.5729 196.689 50.0479 193.107 50.0479C189.466 50.0479 186.295 52.5729 186.295 56.4484C186.295 60.3827 189.525 62.9077 193.107 62.9077C196.689 62.9077 199.918 60.3827 199.918 56.4484ZM198.098 56.4484C198.098 59.3844 195.867 61.4984 193.107 61.4984C190.288 61.4984 188.115 59.3844 188.115 56.4484C188.115 53.5123 190.347 51.3984 193.107 51.3984C195.867 51.3984 198.098 53.5123 198.098 56.4484ZM190.523 52.8664H193.283C195.162 52.8664 196.219 53.4536 196.219 54.9804C196.219 56.331 195.397 56.8007 194.281 56.9182L196.278 60.0891H194.751L192.931 57.0356H191.991V60.0891H190.523V52.8664ZM193.224 55.8613H191.932V53.9822H193.165C193.811 53.9822 194.692 54.0997 194.692 54.863C194.692 55.7439 194.046 55.8613 193.224 55.8613Z" fill="#3799D4"/>
<path d="M48.3596 81.522C46.8328 84.047 46.3043 87.0417 46.3043 89.9778C46.3043 93.0313 47.009 95.7324 48.3596 98.4336H47.42C45.6584 96.0261 44.6602 92.9726 44.6602 89.9778C44.7189 86.983 45.6584 83.9883 47.42 81.522H48.3596Z" fill="#3799D4"/>
<path d="M57.4018 94.9691H55.7576V88.5098H51.1774V94.9691H49.5332V81.522H51.1774V86.983H55.7576V81.522H57.4018V94.9691Z" fill="#3799D4"/>
<path fill-rule="evenodd" clip-rule="evenodd" d="M62.6877 84.6343C60.2801 84.6343 59.2819 85.6325 59.2819 87.9227V88.0401H60.8086V87.9227C60.8086 87.5703 60.8086 85.9261 62.5115 85.9261C63.5685 85.9261 64.1557 86.4546 64.1557 87.3942C64.1557 88.2163 64.1557 88.5686 62.9813 88.9209L60.8674 89.5668C59.5755 89.9192 58.9883 90.9174 58.9883 92.3267C58.9883 94.1471 59.8691 95.2628 61.7482 95.2628C62.6877 95.2628 63.6272 94.6756 64.1557 93.7947H64.2144C64.2732 95.0866 65.0365 95.0866 65.6238 95.0866C65.8916 95.0866 66.1595 95.0367 66.3461 95.002C66.4458 94.9834 66.5224 94.9692 66.5633 94.9692V93.8535C66.5046 93.9122 66.4458 93.9709 66.211 93.9709C65.7412 93.9709 65.7412 93.5599 65.7412 93.1488V87.5116C65.7412 86.4546 65.7412 84.6343 62.6877 84.6343ZM62.5241 90.2239C63.1435 90.0378 63.8004 89.8405 64.156 89.4494V91.9744C64.156 93.0314 63.1577 93.9122 62.1007 93.9122C61.0438 93.9122 60.6914 93.2075 60.6914 92.2093C60.6914 91.3284 60.9263 90.9174 61.4548 90.6238C61.7328 90.4616 62.1205 90.3452 62.5241 90.2239Z" fill="#3799D4"/>
<path d="M67.9727 81.522H69.5581V94.9104H67.9727V81.522Z" fill="#3799D4"/>
<path d="M76.5465 87.9228C76.5465 86.9245 76.1354 85.8088 74.961 85.8088C73.9628 85.8088 72.9645 86.2786 72.9645 89.978C72.9645 91.2699 72.9645 93.9123 74.9023 93.9123C76.2529 93.9123 76.5465 92.503 76.5465 91.3873H78.1319C78.1319 92.9728 77.3686 95.1455 74.8436 95.1455C72.3773 95.1455 71.3203 93.4425 71.3203 89.978C71.3203 87.453 71.7901 84.5757 74.9023 84.5757C77.6622 84.5757 78.1319 86.7484 78.1319 87.9228H76.5465Z" fill="#3799D4"/>
<path fill-rule="evenodd" clip-rule="evenodd" d="M81.4195 81.522H79.834V83.3423H81.4195V81.522ZM81.4195 84.869H79.834V94.969H81.4195V84.869Z" fill="#3799D4"/>
<path d="M83.5918 84.8693H85.1185V86.0437H85.1773C85.5883 85.1042 86.6453 84.5757 87.6435 84.5757C90.286 84.5757 90.286 86.5722 90.286 87.7466V94.9106H88.7005V87.9815C88.7005 87.2181 88.6418 85.9263 87.2325 85.9263C86.4104 85.9263 85.236 86.5135 85.236 87.9815V94.9106H83.6505V84.8693H83.5918Z" fill="#3799D4"/>
<path fill-rule="evenodd" clip-rule="evenodd" d="M99.0353 89.9192C99.0353 87.1006 98.3307 84.6343 95.3946 84.6343C92.5173 84.6343 91.7539 87.1006 91.7539 89.9192C91.7539 92.7378 92.4586 95.2041 95.3946 95.2041C98.3307 95.2041 99.0353 92.7378 99.0353 89.9192ZM95.3949 85.8674C97.0978 85.8674 97.3914 87.7465 97.3914 89.9192C97.3914 92.0919 97.0391 93.9709 95.3949 93.9709C93.7507 93.9709 93.4571 92.0919 93.4571 89.9192C93.4571 87.7465 93.8094 85.8674 95.3949 85.8674Z" fill="#3799D4"/>
<path d="M100.621 84.8693H102.148V86.0437H102.207C102.618 85.1042 103.675 84.5757 104.673 84.5757C107.315 84.5757 107.315 86.5722 107.315 87.7466V94.9106H105.73V87.9815C105.73 87.2181 105.671 85.9263 104.262 85.9263C103.44 85.9263 102.265 86.5135 102.265 87.9815V94.9106H100.68V84.8693H100.621Z" fill="#3799D4"/>
<path fill-rule="evenodd" clip-rule="evenodd" d="M110.957 81.522H109.371V83.3423H110.957V81.522ZM110.957 84.869H109.371V94.969H110.957V84.869Z" fill="#3799D4"/>
<path fill-rule="evenodd" clip-rule="evenodd" d="M118.239 94.9693H119.765V81.6396H118.18V86.1024H118.121C117.769 85.2216 116.77 84.6931 115.89 84.6931C113.071 84.6931 112.719 87.8641 112.719 89.978C112.719 93.149 113.6 95.2629 116.007 95.2629C117.064 95.2629 117.945 94.4995 118.18 93.7362H118.239V94.9693ZM118.297 89.9193C118.297 92.2094 118.004 93.8536 116.242 93.8536C114.774 93.8536 114.422 92.3268 114.422 89.9193C114.422 87.5117 114.774 85.9849 116.242 85.9849C117.945 85.9849 118.297 87.9815 118.297 89.9193Z" fill="#3799D4"/>
<path fill-rule="evenodd" clip-rule="evenodd" d="M125.107 93.9709C123.194 93.9709 123.17 91.6815 123.17 90.154H128.396V89.5081C128.396 87.3354 128.102 84.6343 125.049 84.6343C121.937 84.6343 121.467 87.5116 121.467 90.0366C121.467 93.5011 122.524 95.2041 124.99 95.2041C127.75 95.2041 128.396 92.6791 128.396 91.6221H126.81C126.81 92.3854 126.634 93.9709 125.107 93.9709ZM126.811 88.3337V88.8622H123.229V88.5099C123.229 87.9227 123.405 85.8674 125.049 85.8674C126.458 85.8674 126.811 87.218 126.811 88.3337Z" fill="#3799D4"/>
<path d="M130.51 92.9727H132.213V94.6168C132.213 96.0261 132.095 97.318 130.51 97.7291V96.8482C131.156 96.5546 131.332 96.1436 131.332 95.3802V94.9104H130.51V92.9727Z" fill="#3799D4"/>
<path d="M138.438 81.522H140.082V90.976C140.082 92.9726 140.728 93.8534 142.372 93.8534C144.133 93.8534 144.662 92.8551 144.662 90.976V81.522H146.306V90.976C146.306 93.5598 145.014 95.204 142.372 95.204C139.671 95.204 138.438 93.7359 138.438 90.976V81.522H138.438Z" fill="#3799D4"/>
<path d="M153.998 84.9867C153.998 83.5774 153.469 82.5791 151.884 82.5791C150.475 82.5791 149.653 83.3425 149.653 84.7518C149.653 88.5099 155.994 86.2785 155.994 91.1524C155.994 94.2646 153.704 95.1454 151.825 95.1454C148.713 95.1454 147.773 93.5012 147.773 90.6826H149.418C149.418 92.2093 149.535 93.7948 151.943 93.7948C153.234 93.7948 154.291 92.8553 154.291 91.446C154.291 87.6291 147.95 89.8605 147.95 84.9279C147.95 83.6948 148.478 81.2285 151.884 81.2285C154.468 81.2285 155.583 82.5204 155.642 84.9867H153.998Z" fill="#3799D4"/>
<path fill-rule="evenodd" clip-rule="evenodd" d="M161.162 81.522H157.756V94.9691H159.4V89.2731H161.455C163.745 89.2731 165.331 87.9226 165.331 85.3976C165.331 81.522 162.336 81.522 161.162 81.522ZM161.397 87.9226H159.4V82.9314H161.279C162.924 82.9314 163.628 83.8709 163.628 85.3389C163.628 87.1005 162.571 87.9226 161.397 87.9226Z" fill="#3799D4"/>
<path d="M165.742 98.4336C167.269 95.9086 167.797 92.9138 167.797 89.9778C167.797 86.9243 167.093 84.2231 165.742 81.522H166.623C168.385 83.9295 169.383 86.983 169.383 89.9778C169.383 92.9726 168.443 95.9673 166.623 98.4336H165.742Z" fill="#3799D4"/>
<path fill-rule="evenodd" clip-rule="evenodd" d="M179.249 81.6982C175.667 81.6982 175.432 85.5738 175.432 88.5099C175.432 91.6221 175.608 95.2041 179.249 95.2628C182.83 95.2628 183.065 91.3285 183.065 88.5099C183.065 85.2802 182.83 81.6982 179.249 81.6982ZM181.363 88.5099C181.363 91.2698 181.304 93.9709 179.249 93.9709C177.193 93.9709 177.076 91.2698 177.135 88.5099C177.135 85.5738 177.193 82.9314 179.249 82.9314C181.245 82.9314 181.363 85.5738 181.363 88.5099Z" fill="#3799D4"/>
<path d="M185.121 92.9727H186.824V94.9692H185.121V92.9727Z" fill="#3799D4"/>
<path d="M189.525 83.8123C191.17 83.6949 192.755 83.5187 192.814 81.6396H193.929V94.9693H192.344V84.9867H189.525V83.8123Z" fill="#3799D4"/>
<path fill-rule="evenodd" clip-rule="evenodd" d="M207.845 81.6396H206.553L200.74 95.2042H202.032L207.845 81.6396ZM198.156 85.2803C198.156 83.4012 198.391 81.6983 200.623 81.6983C202.854 81.6983 203.089 83.4012 203.089 85.2803C203.089 87.1594 202.854 88.8623 200.623 88.8623C198.332 88.8623 198.156 87.1594 198.156 85.2803ZM201.68 85.2803C201.68 83.7536 201.621 82.6966 200.564 82.6966C199.507 82.6966 199.448 83.7536 199.448 85.2803C199.448 86.8071 199.507 87.864 200.564 87.864C201.621 87.864 201.68 86.8071 201.68 85.2803ZM205.731 91.6221C205.731 89.7431 205.966 88.0401 208.198 88.0401C210.429 88.0401 210.664 89.7431 210.664 91.6221C210.664 93.5012 210.429 95.2041 208.198 95.2041C205.966 95.2041 205.731 93.5012 205.731 91.6221ZM208.198 89.0384C209.255 89.0384 209.313 90.0954 209.313 91.6221C209.313 93.1489 209.255 94.2059 208.198 94.2059C207.141 94.2059 207.082 93.1489 207.082 91.6221C207.082 90.0954 207.141 89.0384 208.198 89.0384Z" fill="#3799D4"/>
</svg>
