<?xml version="1.0" encoding="utf-8"?>
<!-- Generator: Adobe Illustrator 25.0.1, SVG Export Plug-In . SVG Version: 6.00 Build 0)  -->
<svg version="1.1" id="Layer_1" xmlns="http://www.w3.org/2000/svg" xmlns:xlink="http://www.w3.org/1999/xlink" x="0px" y="0px"
	 viewBox="0 0 243 144" style="enable-background:new 0 0 243 144;" xml:space="preserve">
<style type="text/css">
	.st0{fill:#FFFFFF;}
	.st1{fill:#5F2167;}
	.st2{fill-rule:evenodd;clip-rule:evenodd;fill:#5F2167;}
	.st3{fill:#857874;}
	.st4{fill-rule:evenodd;clip-rule:evenodd;fill:#857874;}
	.st5{fill:url(#SVGID_1_);}
	.st6{fill:url(#SVGID_2_);}
	.st7{fill:url(#SVGID_3_);}
</style>
<path class="st0" d="M0,6c0-3.31,2.69-6,6-6h231c3.31,0,6,2.69,6,6v132c0,3.31-2.69,6-6,6H6c-3.31,0-6-2.69-6-6V6z"/>
<path class="st1" d="M68.89,77.25V52.82c0-0.55,0.37-0.92,0.92-0.92h3.55c0.55,0,0.92,0.37,0.92,0.92v24.43
	c0,0.55-0.37,0.92-0.92,0.92h-3.55C69.26,78.17,68.89,77.74,68.89,77.25z"/>
<path class="st1" d="M82.36,77.25V52.82c0-0.55,0.37-0.92,0.92-0.92h3.49c0.55,0,0.92,0.37,0.92,0.92V73.7h11.88
	c0.55,0,0.92,0.37,0.92,0.92v2.63c0,0.55-0.37,0.92-0.92,0.92H83.22C82.73,78.17,82.36,77.74,82.36,77.25z"/>
<path class="st1" d="M103.86,68.13V52.88c0-0.55,0.37-0.92,0.92-0.92h3.43c0.55,0,0.92,0.37,0.92,0.92v15.25
	c0,4.1,2.08,6.06,5.45,6.06c3.37,0,5.45-1.96,5.45-6.06V52.88c0-0.55,0.37-0.92,0.92-0.92h3.37c0.55,0,0.92,0.37,0.92,0.92v15.25
	c0,7.16-4.1,10.41-10.65,10.41S103.86,75.29,103.86,68.13z"/>
<path class="st1" d="M131.72,77.25V52.88c0-0.55,0.37-0.92,0.92-0.92h2.94c0.73,0,1.04,0.49,1.1,0.73l7.22,13.47l7.29-13.47
	c0.12-0.24,0.43-0.73,1.1-0.73h2.94c0.55,0,0.92,0.37,0.92,0.92v24.37c0,0.55-0.37,0.92-0.92,0.92h-3.12
	c-0.55,0-0.92-0.37-0.92-0.92V61.03l-5.27,9.98c-0.25,0.43-0.61,0.8-1.29,0.8h-1.53c-0.67,0-1.04-0.37-1.29-0.8l-5.14-9.98v16.23
	c0,0.55-0.37,0.92-0.92,0.92h-3.12C132.08,78.17,131.72,77.74,131.72,77.25z"/>
<path class="st1" d="M169.93,77.25V68.8l-8.82-15.68c-0.06-0.12-0.12-0.24-0.12-0.43c0-0.43,0.37-0.8,0.74-0.8h3.31
	c0.61,0,0.98,0.43,1.1,0.73l6.37,10.9l6.31-10.9c0.18-0.31,0.55-0.73,1.16-0.73h3.31c0.43,0,0.8,0.37,0.8,0.8
	c0,0.12-0.06,0.31-0.12,0.43l-8.82,15.68v8.45c0,0.55-0.43,0.92-0.92,0.92h-3.43C170.29,78.17,169.93,77.74,169.93,77.25z"/>
<path class="st2" d="M183.67,77.25c-0.01,0.05-0.02,0.1-0.02,0.13c0,0.43,0.37,0.8,0.67,0.8h3.25c0.67,0,0.98-0.49,1.1-0.73
	l1.78-4.59h11.14l1.78,4.59c0.06,0.31,0.37,0.73,1.1,0.73h3.24c0.37,0,0.74-0.37,0.74-0.8c0-0.12,0-0.24-0.06-0.37l-9-24.19
	c-0.18-0.49-0.55-0.92-1.29-0.92h-4.1c-0.74,0-1.16,0.37-1.29,0.92l-9,24.19C183.71,77.08,183.68,77.17,183.67,77.25z M196.07,56.99
	l4.29,11.57h-8.51L196.07,56.99z"/>
<path class="st3" d="M67.91,90.66v-1.22h1.78v-2.63l1.35-0.67v3.25h2.27v1.22h-2.27v8.14c0,1.65,0.18,2.08,1.22,2.08
	c0.43,0,0.73,0,1.04-0.06v1.29c-0.37,0.06-0.86,0.06-1.29,0.06c-1.78,0-2.33-0.92-2.33-2.45V90.6h-1.78V90.66z"/>
<path class="st4" d="M74.65,83.99v1.9h1.65v-1.9H74.65z M74.77,89.44v12.68h1.35V89.44H74.77z"/>
<path class="st3" d="M78.5,102.11V83.99h1.29v18.13H78.5z"/>
<path class="st4" d="M85.06,102.36c1.29,0,2.14-0.61,2.88-1.84l0.06,1.59h1.29c-0.06-0.43-0.12-1.29-0.12-2.51V83.99h-1.35v6.74
	h-0.06c-0.67-0.98-1.65-1.53-2.69-1.53c-3.43,0-3.43,4.1-3.43,6.55C81.63,98.75,81.81,102.36,85.06,102.36z M87.87,94.64v2.27
	c0,3.12-1.16,4.29-2.45,4.23c-1.47,0-2.45-0.61-2.45-5.33c0-3,0-5.45,2.39-5.45C87.87,90.36,87.87,93.91,87.87,94.64z"/>
<path class="st3" d="M92.53,91.15c0.61-1.22,1.78-1.96,3.12-1.96v1.53c-1.9-0.18-3.12,1.1-3.12,3.25v8.14h-1.35V89.44h1.35V91.15z"
	/>
<path class="st4" d="M99.08,102.42c1.35,0,2.45-0.61,3.18-1.84h0.06v1.65h1.35c-0.12-1.47-0.12-2.27-0.12-3.18v-6.37
	c0-3.25-2.39-3.37-3.49-3.37c-1.96,0-3.61,0.92-3.74,3.37h1.41c0-1.53,0.98-2.2,2.2-2.2c1.78,0,2.27,1.16,2.27,3v1.04
	c-0.29,0.02-0.6,0.04-0.93,0.05c-2.27,0.09-5.26,0.21-5.26,4.12C96.02,100.89,97.12,102.42,99.08,102.42z M101.63,95.63
	c0.18,0,0.35-0.01,0.51-0.01v2.39c0,1.65-1.22,3.18-2.76,3.18c-1.41,0-2.02-1.22-2.02-2.63C97.37,95.71,99.77,95.67,101.63,95.63z"
	/>
<path class="st3" d="M105.51,83.99h1.35v11.02h0.06l3.86-5.57h1.53l-3.98,5.63l4.23,7.04h-1.65l-3.98-6.92h-0.06v6.92h-1.35V83.99z"
	/>
<path class="st4" d="M113.84,83.99v1.9h1.65v-1.9H113.84z M113.96,89.44v12.68h1.35V89.44H113.96z"/>
<path class="st3" d="M116.9,100.89l4.65-10.23h-4.41v-1.22h5.69v1.22l-4.53,10.23h4.65v1.22h-6.12v-1.22H116.9z"/>
<path class="st3" d="M131.35,89.44v12.67h-1.16v-1.41h-0.06c-0.8,1.1-1.59,1.65-2.82,1.65c-2.33,0-2.94-1.9-2.94-3.98v-8.94h1.35
	v8.7c0,0.37-0.06,3,1.84,3c1.78,0,2.45-1.9,2.45-2.76v-8.94H131.35L131.35,89.44z"/>
<path class="st3" d="M134.66,102.11h-1.35V89.44h1.16v1.59h0.06c0.55-1.04,1.41-1.84,2.63-1.84c1.16,0,2.14,0.73,2.51,1.96
	c0.55-1.22,1.53-1.96,2.76-1.96c1.84,0,2.82,1.47,2.88,3.49v9.43h-1.22v-9.06c0-1.22-0.43-2.63-1.72-2.63
	c-1.65,0-2.33,1.9-2.33,3.55v8.14h-1.35v-9.06c0-1.22-0.43-2.63-1.71-2.63c-1.65,0-2.33,1.9-2.33,3.55V102.11z"/>
<path class="st4" d="M150.09,102.42c1.35,0,2.45-0.61,3.18-1.84v1.65h1.41c-0.12-1.47-0.12-2.27-0.12-3.18v-6.37
	c0-3.25-2.39-3.37-3.49-3.37c-1.96,0-3.61,0.92-3.74,3.37h1.41c0-1.53,0.98-2.2,2.21-2.2c1.78,0,2.27,1.16,2.27,3v1.04
	c-0.29,0.02-0.6,0.04-0.93,0.05c-2.27,0.09-5.26,0.21-5.26,4.12C147.03,100.89,148.13,102.42,150.09,102.42z M152.64,95.63
	c0.18,0,0.35-0.01,0.51-0.01v2.39c0,1.65-1.22,3.18-2.76,3.18c-1.41,0-2.02-1.22-2.02-2.63C148.37,95.71,150.77,95.67,152.64,95.63z
	"/>
<path class="st4" d="M156.52,100.89c0,0.37-0.06,0.8-0.12,1.22h1.35v-1.53h0.06c0.55,1.16,1.53,1.78,2.82,1.78
	c3.25,0,3.43-3.86,3.43-6.61c0-0.16,0-0.32,0-0.5c0.02-2.34,0.05-6.06-3.31-6.06c-1.22,0-2.14,0.49-2.82,1.71l-0.06-0.06v-6.86
	h-1.35V100.89z M162.7,95.87c0,2.94-0.06,5.33-2.51,5.33c-2.39,0-2.39-3.61-2.39-5.57c0-1.9,0.24-5.2,2.39-5.2
	C162.64,90.42,162.7,92.93,162.7,95.87z"/>
<path class="st3" d="M165.52,96.17v-1.47h4.47v1.41h-4.47V96.17z"/>
<path class="st4" d="M174.27,102.42c1.35,0,2.45-0.61,3.18-1.84h0.06v1.65h1.35c-0.12-1.47-0.12-2.27-0.12-3.18v-6.37
	c0-3.25-2.39-3.37-3.49-3.37c-1.96,0-3.61,0.92-3.74,3.37h1.41c0-1.53,0.98-2.2,2.2-2.2c1.78,0,2.27,1.16,2.27,3v1.04
	c-0.29,0.02-0.6,0.04-0.93,0.05c-2.27,0.09-5.26,0.21-5.26,4.12C171.21,100.89,172.32,102.42,174.27,102.42z M176.82,95.63
	c0.18,0,0.35-0.01,0.51-0.01v2.39c0,1.65-1.23,3.18-2.76,3.18c-1.41,0-2.02-1.22-2.02-2.63C172.56,95.71,174.96,95.67,176.82,95.63z
	"/>
<path class="st3" d="M183.64,102.36c-2.39,0-3.37-1.35-3.31-4.04h1.35c0,1.71,0.37,2.88,2.08,2.88c1.29,0,1.9-0.86,1.9-2.2
	c0-3.31-5.02-2.45-5.02-6.67c0-2.33,1.41-3.18,3.37-3.18c2.21,0,2.94,1.71,2.94,3.67h-1.29c-0.06-1.59-0.43-2.45-1.96-2.45
	c-0.98,0-1.71,0.67-1.71,1.84c0,3.18,5.02,2.33,5.02,6.55C186.95,101.2,185.73,102.36,183.64,102.36z"/>
<path class="st3" d="M189.89,102.11h-1.35V89.44h1.16v1.59h0.06c0.55-1.04,1.41-1.84,2.63-1.84c1.16,0,2.14,0.73,2.51,1.96
	c0.55-1.22,1.53-1.96,2.76-1.96c1.84,0,2.82,1.47,2.88,3.49v9.43h-1.35v-9.06c0-1.22-0.43-2.63-1.71-2.63
	c-1.65,0-2.33,1.9-2.33,3.55v8.14h-1.35v-9.06c0-1.22-0.43-2.63-1.72-2.63c-1.65,0-2.33,1.9-2.33,3.55v8.14H189.89z"/>
<path class="st3" d="M203.91,102.11h-1.35V89.44h1.35v1.53h0.06c0.61-1.04,1.53-1.84,2.69-1.84c2.76,0,3.06,2.33,3.06,3.98v8.94
	h-1.35v-8.88c0-1.47-0.49-2.88-2.08-2.88c-1.16,0-2.39,0.92-2.39,3.74V102.11z"/>
<linearGradient id="SVGID_1_" gradientUnits="userSpaceOnUse" x1="25.5952" y1="100.5881" x2="58.5748" y2="100.5881" gradientTransform="matrix(1 0 0 -1 0 146)">
	<stop  offset="0" style="stop-color:#87588D"/>
	<stop  offset="0.3848" style="stop-color:#733C7A"/>
	<stop  offset="0.7509" style="stop-color:#64286C"/>
	<stop  offset="0.998" style="stop-color:#5F2167"/>
</linearGradient>
<path class="st5" d="M28.11,26.37c4.41,3.55,22.6,14.82,26.27,18.86c4.59,5.14,4.23,9.31,4.16,19.23c-3.67-9.06-27-18.49-29.7-21.74
	C25.66,39.59,23.82,34.76,28.11,26.37z"/>
<linearGradient id="SVGID_2_" gradientUnits="userSpaceOnUse" x1="27.5727" y1="84.7899" x2="58.5129" y2="84.7899" gradientTransform="matrix(1 0 0 -1 0 146)">
	<stop  offset="0" style="stop-color:#9DB4D0"/>
	<stop  offset="9.366150e-03" style="stop-color:#9DB3D0"/>
	<stop  offset="0.311" style="stop-color:#8BA6C8"/>
	<stop  offset="0.631" style="stop-color:#809EC3"/>
	<stop  offset="1" style="stop-color:#7D9BC1"/>
</linearGradient>
<path class="st6" d="M28.23,44.19c4.1,3.92,26.15,12.31,30.07,22.17c0,0,0.8,10.29-0.67,11.88c-1.16-8.7-19.47-14.88-22.9-17.27
	C30.93,58.52,25.72,54.35,28.23,44.19z"/>
<linearGradient id="SVGID_3_" gradientUnits="userSpaceOnUse" x1="39.3144" y1="69.9709" x2="56.7896" y2="69.9709" gradientTransform="matrix(1 0 0 -1 0 146)">
	<stop  offset="0" style="stop-color:#FFE3A2"/>
	<stop  offset="0.9972" style="stop-color:#FFCD58"/>
</linearGradient>
<path class="st7" d="M56.77,79.4c-0.24-5.82-12-12.19-12.43-12.19c-2.76,0.24-5.08,0.73-5.02,3.06l0.24,14.51
	c0,0.06,0,0.06,0.06,0.06c0,0,0.06,0,0.06-0.06C41.21,82.4,52.85,85.21,56.77,79.4z"/>
<path class="st3" d="M70.12,108.05h1.04v8.39h-1.04V108.05z"/>
<path class="st3" d="M72.81,111.3v-0.67h0.98v0.92c0.12-0.24,0.49-1.04,1.65-1.04c0.49,0,1.84,0.18,1.84,2.02v3.98H76.3v-3.74
	c0-0.37-0.06-0.74-0.31-0.98c-0.24-0.25-0.61-0.37-0.92-0.37c-0.67,0-1.35,0.55-1.35,1.78v3.37h-0.98v-5.27H72.81z"/>
<path class="st4" d="M79.91,108.05h-1.16v1.22h1.16V108.05z M78.81,116.87c0,0.92-0.18,1.1-0.92,1.04v0.8
	c0.31,0.06,0.49,0.06,0.61,0.06c1.29,0,1.29-1.22,1.29-1.78v-6.37h-0.98V116.87z"/>
<path class="st4" d="M83.46,115.83c-1.04,0-1.47-0.86-1.47-2.08v-0.06h3.74c0.06-0.92,0.12-3.25-2.2-3.25
	c-0.31,0-0.92,0.06-1.41,0.43c-0.86,0.67-1.04,1.59-1.04,2.76c0,1.84,0.8,3,2.39,3c1.04,0,1.53-0.49,1.78-0.8
	c0.3-0.35,0.35-0.74,0.4-1.03c0.01-0.07,0.02-0.13,0.03-0.19h-0.98C84.57,115.46,84.08,115.83,83.46,115.83z M83.46,111.24
	c1.22,0,1.29,1.16,1.29,1.72h-2.69C82.06,111.67,82.85,111.24,83.46,111.24z"/>
<path class="st3" d="M90.02,112.46c0-0.24-0.12-1.22-1.04-1.22c-1.35,0-1.35,1.78-1.35,2.2c0,1.22,0.24,2.33,1.29,2.33
	c0.8,0,1.1-0.67,1.1-1.29H91c-0.06,1.16-0.8,2.08-2.08,2.08c-0.37,0-1.16-0.06-1.71-0.74c-0.31-0.43-0.61-1.04-0.61-2.26
	c0-2.45,1.29-3.19,2.33-3.19c0.37,0,1.1,0.06,1.59,0.74c0.37,0.49,0.43,0.98,0.43,1.29h-0.92V112.46z"/>
<path class="st3" d="M91.55,110.57h0.92v-1.23l0.98-0.37v1.59h1.16v0.8h-1.16v3.49c0,0.31,0,0.8,0.67,0.8
	c0.18,0,0.37-0.06,0.49-0.06v0.86c-0.18,0.06-0.43,0.06-0.8,0.06c-0.86,0-1.29-0.31-1.29-1.22v-3.92h-0.92v-0.8H91.55z"/>
<path class="st4" d="M96.69,108.05h-1.16v1.22h1.16V108.05z M96.57,110.63h-0.98v5.82h0.98V110.63z"/>
<path class="st4" d="M103,113.5c0-1.22-0.43-3.06-2.51-3.06c-2.02,0-2.63,1.71-2.57,3.12c0,1.71,0.8,3.06,2.51,3.06
	C102.14,116.63,103,115.22,103,113.5z M101.96,113.5c0,1.72-0.8,2.33-1.53,2.33c-1.1,0-1.59-1.1-1.53-2.27
	c0-1.84,0.98-2.26,1.59-2.26C101.35,111.3,101.96,112.03,101.96,113.5z"/>
<path class="st3" d="M104.28,111.3v-0.67h0.98v0.92c0.12-0.24,0.49-1.04,1.65-1.04c0.49,0,1.84,0.18,1.84,2.02v3.98h-0.98v-3.74
	c0-0.37-0.06-0.74-0.31-0.98c-0.25-0.25-0.61-0.37-0.92-0.37c-0.67,0-1.35,0.55-1.35,1.78v3.37h-0.92V111.3z"/>
<path class="st3" d="M114.57,109.65c-0.43,0.43-1.16,0.92-1.65,1.16v-1.16c0.67-0.37,1.35-0.86,1.72-1.29h0.92v8.08h-0.98V109.65z"
	/>
<path class="st4" d="M122.17,112.34c0-1.53-0.25-4.1-2.39-4.1c-2.27,0-2.39,3.06-2.39,4.29c0,1.47,0.25,2.2,0.49,2.76
	c0.31,0.74,0.98,1.35,1.9,1.35c0.31,0,0.92-0.06,1.41-0.61C121.8,115.34,122.17,114.24,122.17,112.34z M121.12,112.46
	c0,1.41-0.25,3.18-1.41,3.18c-1.04,0-1.35-1.41-1.35-3.12c0-1.47,0.18-3.31,1.41-3.31C120.82,109.22,121.12,110.5,121.12,112.46z"/>
<path class="st4" d="M127.92,112.34c0-1.53-0.24-4.1-2.39-4.1c-2.26,0-2.39,3.06-2.39,4.29c0,1.47,0.25,2.2,0.49,2.76
	c0.31,0.74,0.98,1.35,1.9,1.35c0.31,0,0.92-0.06,1.41-0.61C127.55,115.34,127.92,114.24,127.92,112.34z M126.94,112.46
	c0,1.41-0.25,3.18-1.41,3.18c-1.1,0-1.41-1.41-1.35-3.12c0-1.47,0.18-3.31,1.41-3.31C126.64,109.22,126.94,110.5,126.94,112.46z"/>
<path class="st3" d="M130.86,111.42v-0.8h0.98v0.86c0.49-0.92,1.16-0.98,1.65-0.98c1.16,0,1.47,0.67,1.65,1.1
	c0.18-0.31,0.61-1.1,1.71-1.1c0.74,0,1.9,0.37,1.9,2.08v3.92h-0.98v-3.74c0-0.49-0.06-0.74-0.18-0.86
	c-0.18-0.25-0.49-0.49-0.98-0.49c-0.61,0-0.98,0.43-1.1,0.61c-0.25,0.37-0.25,0.98-0.25,1.29v3.25h-0.98v-3.86
	c0-0.74-0.37-1.29-1.1-1.29c-0.67,0-1.04,0.49-1.1,0.61c-0.25,0.37-0.25,0.8-0.25,1.16v3.31h-0.98V111.42L130.86,111.42z"/>
<path class="st4" d="M142.55,118.1c-0.92,0-1.16-0.49-1.22-1.16h-1.1c0,0.8,0.06,1.9,2.14,1.9c0.73,0,1.71-0.12,2.14-1.04
	c0.18-0.49,0.24-1.04,0.24-2.45v-3.67v-1.04h-0.92v0.8c-0.01-0.02-0.03-0.03-0.04-0.06c-0.2-0.27-0.58-0.8-1.55-0.8
	c-1.22,0-2.27,0.98-2.27,2.94c0,0.8,0.18,1.53,0.61,2.14c0.43,0.61,1.1,0.74,1.59,0.74c0.31,0,1.29,0,1.71-0.98
	C143.9,117,143.9,118.1,142.55,118.1z M143.9,113.32c0,1.04-0.18,1.35-0.37,1.65c-0.25,0.31-0.55,0.55-1.16,0.61
	c-1.16,0-1.41-1.16-1.41-2.08c0-0.74,0.18-2.14,1.41-2.14c0.43,0,0.86,0.18,1.1,0.49C143.78,112.16,143.9,112.59,143.9,113.32z"/>
<path class="st3" d="M148.07,108.18h0.67l-2.39,8.51h-0.67L148.07,108.18z"/>
<path class="st3" d="M149.29,111.42v-0.8h0.98v0.86c0.49-0.92,1.16-0.98,1.65-0.98c1.16,0,1.47,0.67,1.65,1.1
	c0.18-0.31,0.61-1.1,1.72-1.1c0.73,0,1.9,0.37,1.9,2.08v3.92h-0.98v-3.74c0-0.49-0.06-0.74-0.18-0.86
	c-0.18-0.25-0.49-0.49-0.98-0.49c-0.61,0-0.98,0.43-1.1,0.61c-0.25,0.37-0.25,0.98-0.25,1.29v3.25h-0.98v-3.86
	c0-0.74-0.37-1.29-1.1-1.29c-0.67,0-1.04,0.49-1.1,0.61c-0.25,0.37-0.25,0.8-0.25,1.16v3.31h-0.98V111.42L149.29,111.42z"/>
<path class="st3" d="M158.78,108.05h1.04v7.35h3.43v1.04h-4.47V108.05z"/>
<path class="st1" d="M207.13,54.96c0-2.03,1.64-3.67,3.67-3.67c2.03,0,3.67,1.64,3.67,3.67c0,2.03-1.64,3.67-3.67,3.67
	C208.77,58.63,207.13,56.99,207.13,54.96C207.13,54.96,207.13,54.96,207.13,54.96z M213.7,54.96c-0.03-1.6-1.35-2.87-2.95-2.84
	s-2.87,1.35-2.84,2.95c0.03,1.57,1.31,2.83,2.89,2.84C212.41,57.89,213.71,56.57,213.7,54.96L213.7,54.96z M209.35,56.59v-3.28
	c-0.01-0.12,0.09-0.22,0.2-0.22c0.01,0,0.01,0,0.02,0h1.38c0.78,0,1.49,0.32,1.49,1.22c0.02,0.45-0.24,0.87-0.66,1.05l0.6,1.09
	c0.03,0.04,0.04,0.09,0.04,0.14c0.01,0.12-0.08,0.22-0.2,0.22c-0.01,0-0.01,0-0.02,0h-0.44c-0.13,0-0.25-0.07-0.3-0.19l-0.57-1.09
	h-0.62v1.06c0.01,0.12-0.08,0.22-0.2,0.22c-0.01,0-0.01,0-0.02,0h-0.47c-0.12,0.01-0.22-0.09-0.22-0.2
	C209.35,56.61,209.35,56.6,209.35,56.59z M210.94,54.77c0.44,0,0.57-0.21,0.57-0.46c0-0.25-0.13-0.47-0.57-0.47h-0.67v0.93
	L210.94,54.77z"/>
</svg>
