<svg width="243" height="144" viewBox="0 0 243 144" fill="none" xmlns="http://www.w3.org/2000/svg">
<path d="M0 6C0 2.68629 2.68629 0 6 0H237C240.314 0 243 2.68629 243 6V138C243 141.314 240.314 144 237 144H6C2.68629 144 0 141.314 0 138V6Z" fill="white"/>
<path d="M27.7259 92.8598V91.5981H30.1091V97.7664C30.1091 99.1683 29.4082 100.009 27.8661 100.009H27.3054C25.9035 100.009 25.0624 99.3085 25.0624 97.7664V85.8504C25.0624 84.4485 25.7633 83.6074 27.3054 83.6074H27.8661C29.268 83.6074 29.969 84.3084 29.969 85.7102V89.3551H28.5671V85.7102C28.5671 85.1495 28.2867 84.8691 27.7259 84.8691H27.3054C26.7446 84.8691 26.4643 85.1495 26.4643 85.7102V97.7664C26.4643 98.3272 26.7446 98.6075 27.3054 98.6075H27.7259C28.2867 98.6075 28.5671 98.3272 28.5671 97.7664V92.7196H27.7259V92.8598Z" fill="#87898B"/>
<path d="M35.0155 83.748V85.0097H32.6323V91.0378H34.8753V92.2995H32.6323V98.608H35.0155V99.8697H31.2304V83.748H35.0155Z" fill="#87898B"/>
<path d="M37.2583 86.1312V91.879V99.8697H35.9966V83.748H38.0994L39.6415 96.365L41.1836 83.748H43.2864V99.8697H42.0247V91.879V86.2714L40.3424 99.8697H38.9406L37.2583 86.1312Z" fill="#87898B"/>
<path d="M49.3149 93.28V97.766C49.3149 99.1679 48.6139 100.009 47.0719 100.009H46.6513C45.2494 100.009 44.4083 99.308 44.4083 97.766V85.7098C44.4083 84.3079 45.1092 83.4668 46.6513 83.4668H47.0719C48.4737 83.4668 49.1747 84.1677 49.1747 85.5696V89.7753H47.913V85.5696C47.913 85.0089 47.6326 84.7285 47.0719 84.7285H46.7915C46.2307 84.7285 45.9504 85.0089 45.9504 85.5696V97.6258C45.9504 98.1865 46.2307 98.4669 46.7915 98.4669H47.2121C47.7728 98.4669 48.0532 98.1865 48.0532 97.6258V93.28H49.3149Z" fill="#87898B"/>
<path d="M51.8382 99.8697H50.4363V91.0378V83.748H51.8382V91.0378V99.8697Z" fill="#87898B"/>
<path d="M54.3615 99.8697V85.0097H52.8195V83.748H57.4457V85.0097H55.9036V99.8697H54.3615Z" fill="#87898B"/>
<path fill-rule="evenodd" clip-rule="evenodd" d="M60.8101 97.3463L61.0905 99.8697H62.3522L60.5298 83.748H58.8475L57.1653 99.8697H58.4269L58.7073 97.3463H60.8101ZM60.6699 96.0845H58.8475L59.6886 86.692L60.6699 96.0845Z" fill="#87898B"/>
<path fill-rule="evenodd" clip-rule="evenodd" d="M67.9599 93.5612V97.7668C67.9599 99.1687 67.2589 100.01 65.7169 100.01H63.1935V83.748H65.5767C67.1187 83.748 67.8197 84.449 67.8197 85.9911V89.9163C67.8197 91.0378 67.5393 91.4584 66.8384 91.7388C67.6795 91.879 67.9599 92.4397 67.9599 93.5612ZM65.7168 85.0097H64.5953V91.0378H65.5766C66.2775 91.0378 66.5579 90.7574 66.5579 90.0565V85.8508C66.6981 85.2901 66.4177 85.0097 65.7168 85.0097ZM65.7168 98.6079H64.5953V92.2994H65.5766C66.2775 92.2994 66.5579 92.5798 66.5579 93.2807V97.7668C66.5579 98.3275 66.2775 98.6079 65.7168 98.6079Z" fill="#87898B"/>
<path d="M70.6232 99.8697H69.2213V90.7574V83.748H70.6232V90.7574V99.8697Z" fill="#87898B"/>
<path d="M75.2496 99.8697L73.0066 86.8322V90.0565V99.8697H71.7449V83.748H73.5674L75.53 95.664V93.5612V83.748H76.7917V99.8697H75.2496Z" fill="#87898B"/>
<path d="M81.9785 83.748V85.0097H79.5953V91.0378H81.8383V92.2995H79.5953V98.608H81.9785V99.8697H78.1934V83.748H81.9785Z" fill="#87898B"/>
<path d="M85.4834 99.8681H84.0815V91.4569V83.8867H85.4834V91.4569V99.8681Z" fill="#87898B"/>
<path d="M90.1093 99.8697L87.8662 86.8322V90.0565V99.8697H86.6046V83.748H88.427L90.3896 95.664V93.5612V83.748H91.6513V99.8697H90.1093Z" fill="#87898B"/>
<path d="M98.9413 94.2617V97.7664C98.9413 99.1683 98.2403 100.009 96.6982 100.009H96.2777C94.8758 100.009 94.1749 99.3085 94.1749 97.9066V93.5608H95.5767V97.9066C95.5767 98.4673 95.8571 98.7477 96.4179 98.7477H96.6982C97.259 98.7477 97.5394 98.4673 97.5394 97.9066V94.2617C97.5394 93.4206 97.3992 93.1402 96.9786 92.8598L95.2964 91.4579C94.4552 90.757 94.1749 90.1963 94.1749 89.0748V85.8504C94.1749 84.4485 94.8758 83.6074 96.4179 83.6074H96.6982C98.1001 83.6074 98.8011 84.3084 98.8011 85.7102V89.9159H97.3992V85.7102C97.3992 85.1495 97.1188 84.8691 96.5581 84.8691H96.2777C95.7169 84.8691 95.4366 85.1495 95.4366 85.7102V89.0748C95.4366 89.9159 95.5767 90.1963 95.9973 90.4766L97.5394 91.7383C98.6609 92.4393 98.9413 93 98.9413 94.2617Z" fill="#87898B"/>
<path fill-rule="evenodd" clip-rule="evenodd" d="M102.306 100.009H102.867C104.269 100.009 104.97 99.308 105.11 97.766V85.7098C105.11 84.1677 104.269 83.4668 102.867 83.4668H102.306C100.764 83.4668 100.063 84.3079 100.063 85.7098V97.766C100.063 99.308 100.904 100.009 102.306 100.009ZM102.306 84.8687H102.727C103.287 84.8687 103.568 85.1491 103.568 85.7098V97.766C103.568 98.3267 103.287 98.6071 102.727 98.6071H102.306C101.745 98.6071 101.465 98.3267 101.465 97.766V85.7098C101.465 85.1491 101.745 84.8687 102.306 84.8687Z" fill="#87898B"/>
<path fill-rule="evenodd" clip-rule="evenodd" d="M108.474 83.748H106.231V100.01H108.474C110.297 100.01 111.138 99.0285 111.138 97.3463V86.4116C111.138 84.5892 110.297 83.748 108.474 83.748ZM108.474 98.6079H107.633V84.8695H108.474C109.315 84.8695 109.736 85.4302 109.736 86.2714V97.206C109.736 98.1874 109.315 98.6079 108.474 98.6079Z" fill="#87898B"/>
<path d="M113.661 99.8697H112.259V91.0378V83.748H113.661V91.0378V99.8697Z" fill="#87898B"/>
<path d="M119.829 97.7668C119.829 99.1687 119.128 100.01 117.586 100.01H117.166C115.764 100.01 114.923 99.3089 114.923 97.7668V83.748H116.324V97.7668C116.324 98.3276 116.605 98.608 117.166 98.608H117.446C118.007 98.608 118.287 98.3276 118.287 97.7668V83.748H119.689V97.7668H119.829Z" fill="#87898B"/>
<path d="M122.212 86.1312V91.879V99.8697H120.951V83.748H123.053L124.595 96.365L126.138 83.748H128.24V99.8697H126.979V91.879V86.2714L125.296 99.8697H123.895L122.212 86.1312Z" fill="#87898B"/>
<path d="M135.811 93.28V97.766C135.811 99.1679 135.11 100.009 133.568 100.009H133.147C131.745 100.009 130.904 99.308 130.904 97.766V85.7098C130.904 84.3079 131.605 83.4668 133.147 83.4668H133.568C134.969 83.4668 135.67 84.1677 135.67 85.5696V89.7753H134.409V85.5696C134.409 85.0089 134.128 84.7285 133.568 84.7285H133.147C132.586 84.7285 132.306 85.0089 132.306 85.5696V97.6258C132.306 98.1865 132.586 98.4669 133.147 98.4669H133.568C134.128 98.4669 134.409 98.1865 134.409 97.6258V93.28H135.811Z" fill="#87898B"/>
<path d="M140.437 91.0378V83.748H141.839V99.8697H140.437V92.2995H138.194V99.8697H136.792V83.748H138.194V91.0378H140.437Z" fill="#87898B"/>
<path d="M144.502 83.748V98.608H146.605V99.8697H143.241V83.748H144.502Z" fill="#87898B"/>
<path fill-rule="evenodd" clip-rule="evenodd" d="M149.409 100.009H149.97C151.372 100.009 152.073 99.308 152.213 97.766V85.7098C152.213 84.1677 151.372 83.4668 149.97 83.4668H149.409C147.867 83.4668 147.166 84.3079 147.166 85.7098V97.766C147.166 99.308 148.007 100.009 149.409 100.009ZM149.409 84.8687H149.83C150.53 84.8687 150.811 85.1491 150.671 85.7098V97.766C150.671 98.3267 150.39 98.6071 149.83 98.6071H149.409C148.848 98.6071 148.568 98.3267 148.568 97.766V85.7098C148.568 85.1491 148.848 84.8687 149.409 84.8687Z" fill="#87898B"/>
<path fill-rule="evenodd" clip-rule="evenodd" d="M158.101 99.8697V93.7014C158.101 92.8603 157.821 92.2995 157.12 92.1593C157.68 91.879 158.101 91.4584 158.101 90.3369V85.9911C158.101 84.449 157.4 83.748 155.858 83.748H153.335V100.01H154.737V92.8603H155.718C156.419 92.8603 156.699 93.1406 156.699 93.8416V99.8697H158.101ZM154.736 85.0097H155.858C156.419 85.0097 156.699 85.2901 156.699 85.991V90.6172C156.699 91.3182 156.419 91.5986 155.718 91.5986H154.736V85.0097Z" fill="#87898B"/>
<path d="M160.764 99.8697H159.362V91.0378V83.748H160.764V91.0378V99.8697Z" fill="#87898B"/>
<path fill-rule="evenodd" clip-rule="evenodd" d="M164.269 83.748H162.026V100.01H164.269C166.091 100.01 166.933 99.0285 166.933 97.3463V86.4116C166.933 84.5892 166.091 83.748 164.269 83.748ZM164.128 98.6079H163.287V84.8695H164.128C164.969 84.8695 165.39 85.4302 165.39 86.2714V97.206C165.39 98.1874 164.969 98.6079 164.128 98.6079Z" fill="#87898B"/>
<path d="M171.839 83.748V85.0097H169.456V91.0378H171.699V92.2995H169.456V98.608H171.839V99.8697H168.054V83.748H171.839Z" fill="#87898B"/>
<path d="M175.624 99.8697H174.222V91.5986V83.748H175.624V91.5986V99.8697Z" fill="#87898B"/>
<path d="M180.39 99.8697L178.147 86.8322V90.0565V99.8697H176.886V83.748H178.708L180.671 95.664V93.5612V83.748H181.932V99.8697H180.39Z" fill="#87898B"/>
<path d="M185.717 97.6267C185.717 99.0285 184.876 99.8697 183.474 99.8697H182.914V98.608H183.474C184.035 98.608 184.456 98.3276 184.456 97.6267V83.748H185.858V97.6267H185.717Z" fill="#87898B"/>
<path d="M190.764 83.748V85.0097H188.381V91.0378H190.624V92.2995H188.381V98.608H190.764V99.8697H186.979V83.748H190.764Z" fill="#87898B"/>
<path d="M196.512 93.28V97.766C196.512 99.1679 195.811 100.009 194.269 100.009H193.848C192.446 100.009 191.605 99.308 191.605 97.766V85.7098C191.605 84.3079 192.306 83.4668 193.848 83.4668H194.269C195.671 83.4668 196.372 84.1677 196.372 85.5696V89.7753H195.11V85.5696C195.11 85.0089 194.83 84.7285 194.269 84.7285H193.988C193.428 84.7285 193.147 85.0089 193.147 85.5696V97.6258C193.147 98.1865 193.428 98.4669 193.988 98.4669H194.409C194.97 98.4669 195.25 98.1865 195.25 97.6258V93.28H196.512Z" fill="#87898B"/>
<path d="M198.755 99.8697V85.0097H197.213V83.748H201.839V85.0097H200.297V99.8697H198.755Z" fill="#87898B"/>
<path d="M203.942 99.8697H202.54V91.5986V83.748H203.942V91.5986V99.8697Z" fill="#87898B"/>
<path fill-rule="evenodd" clip-rule="evenodd" d="M207.307 100.009H207.867C209.269 100.009 209.97 99.308 210.11 97.766V85.7098C210.11 84.1677 209.269 83.4668 207.867 83.4668H207.307C205.765 83.4668 205.064 84.3079 205.064 85.7098V97.766C205.064 99.308 205.905 100.009 207.307 100.009ZM207.307 84.8687H207.727C208.428 84.8687 208.708 85.1491 208.568 85.7098V97.766C208.568 98.3267 208.288 98.6071 207.727 98.6071H207.307C206.746 98.6071 206.465 98.3267 206.465 97.766V85.7098C206.465 85.1491 206.746 84.8687 207.307 84.8687Z" fill="#87898B"/>
<path d="M214.736 99.8697L212.493 86.8322V90.0565V99.8697H211.232V83.748H213.054L215.017 95.664V93.5612V83.748H216.278V99.8697H214.736Z" fill="#87898B"/>
<path d="M25.2022 44.0742V76.1773H33.8938V60.0556V44.0742H25.2022Z" fill="#435CC8"/>
<path d="M58.1461 44.0742V60.8968L44.9685 44.0742H37.6787V76.1773H46.3703V59.2145L59.6882 76.1773H66.8378V44.0742H58.1461Z" fill="#435CC8"/>
<path d="M70.7629 44.0742V76.1773H79.3144V64.4015H88.5668V55.9902H79.3144V52.4855H91.2304V44.0742H70.7629Z" fill="#435CC8"/>
<path fill-rule="evenodd" clip-rule="evenodd" d="M159.082 44.0742H180.11V52.3453H167.774V55.85H177.587V64.2613H167.774V67.766H180.11V68.7473V76.1773H159.082V44.0742ZM179.129 51.5041V45.0554H160.063V75.1959H179.129V68.7472H166.792V63.2799H176.606V56.8312H166.792V51.5041H179.129Z" fill="#435CC8"/>
<path fill-rule="evenodd" clip-rule="evenodd" d="M123.614 60.0559C123.614 50.6633 130.904 43.5137 140.437 43.5137C145.063 43.5137 149.409 45.3361 152.633 48.7006L153.334 49.4016L147.306 55.1493L146.605 54.4483C144.923 52.9063 142.96 52.0651 140.577 52.0651C135.81 52.0651 132.446 55.4297 132.446 60.196C132.446 64.9624 135.81 68.3269 140.577 68.3269C143.941 68.3269 146.184 66.9251 147.166 64.2615H138.754V56.6913H156.418L156.558 57.5325C157.119 63.4204 155.717 68.4671 152.633 71.8316C149.689 74.9158 145.483 76.598 140.577 76.598C130.904 76.598 123.614 69.4484 123.614 60.0559ZM151.651 49.2613C148.848 46.1771 144.642 44.4949 140.436 44.4949C131.184 44.4949 124.595 51.3641 124.455 60.3361C124.455 69.0278 131.184 75.897 140.436 75.897C149.268 75.897 156.418 70.1493 155.296 57.8127H139.595V63.4203H148.287C147.586 67.0652 144.922 69.3082 140.436 69.3082C134.829 69.3082 131.324 65.2427 131.324 60.1959C131.324 55.1492 134.969 51.0837 140.436 51.0837C142.82 51.0837 145.063 51.7847 147.025 53.7473L151.651 49.2613Z" fill="#435CC8"/>
<path fill-rule="evenodd" clip-rule="evenodd" d="M112.399 63.4202V44.0742H120.81V63.28C120.81 71.2707 115.343 76.738 107.492 76.738C99.6418 76.738 94.1745 71.1305 94.1745 63.28V44.0742H102.866V63.4202C102.866 66.5043 104.689 68.3267 107.633 68.3267C110.576 68.3267 112.399 66.3641 112.399 63.4202ZM107.632 75.7566C114.922 75.7566 120.109 70.85 120.109 63.2799H119.969V45.0554H113.24V63.2799C113.24 66.9248 110.997 69.1678 107.632 69.1678V75.7566Z" fill="#435CC8"/>
<path d="M219.923 44.9153H218.802V44.0742H221.886V44.9153H220.764V48.2799H219.783V44.9153H219.923Z" fill="#435CC8"/>
<path d="M223.708 45.6163V48.2799H222.727V44.0742H223.568L224.829 45.8967L226.091 44.0742H226.932V48.2799H225.951V45.6163L224.689 47.2985L223.708 45.6163Z" fill="#435CC8"/>
<path fill-rule="evenodd" clip-rule="evenodd" d="M209.269 44.0742H215.437H216.699V45.0555V75.196V76.1773H215.718H208.849H207.867V75.196V59.4949L200.718 69.3081L200.017 70.4296L199.176 69.3081L192.026 59.4949V75.196V76.1773H191.045H184.316H183.334V75.196V45.0555V44.0742H184.316H190.484H190.905L191.185 44.4948L199.877 56.4108L208.568 44.4948L208.849 44.0742H209.269ZM208.568 75.1959H215.297V45.0554H209.129L199.736 58.0929L190.344 45.0554H184.175V75.336H190.904V56.691L199.736 68.8874L208.568 56.691V75.1959Z" fill="#435CC8"/>
</svg>
