<svg width="243" height="144" viewBox="0 0 243 144" fill="none" xmlns="http://www.w3.org/2000/svg">
<path d="M0 6C0 2.68629 2.68629 0 6 0H237C240.314 0 243 2.68629 243 6V138C243 141.314 240.314 144 237 144H6C2.68629 144 0 141.314 0 138V6Z" fill="white"/>
<path fill-rule="evenodd" clip-rule="evenodd" d="M32.4609 51.9434C29.5006 51.9434 26.0898 54.1314 26.0898 58.7649C26.0898 63.3985 29.6293 65.5865 32.3966 65.5865C34.1342 65.5865 35.55 64.8786 36.3866 63.8489V65.3291H39.9904V52.2008H36.3866V53.4879C35.4856 52.5869 34.1985 51.9434 32.4609 51.9434ZM33.1687 55.1612C35.0994 55.1612 36.5152 56.77 36.5152 58.7007C36.5152 60.6957 35.0994 62.2402 33.1687 62.2402C31.1737 62.2402 29.6292 60.6957 29.6292 58.7007C29.6292 56.6413 31.1737 55.1612 33.1687 55.1612Z" fill="#512D6D"/>
<path fill-rule="evenodd" clip-rule="evenodd" d="M45.0111 71.3784V64.042C45.912 65.0073 47.3278 65.5865 49.0011 65.5865C51.7683 65.5865 55.3078 63.3985 55.3078 58.7649C55.3078 54.1314 51.897 51.9434 48.9367 51.9434C47.1991 51.9434 45.8477 52.6513 45.0111 53.6809V52.2008H41.4072V71.3784H45.0111ZM48.293 55.1612C50.288 55.1612 51.8325 56.7057 51.8325 58.7007C51.8325 60.76 50.288 62.2402 48.293 62.2402C46.3624 62.2402 44.9466 60.6313 44.9466 58.7007C44.9466 56.77 46.3624 55.1612 48.293 55.1612Z" fill="#512D6D"/>
<path d="M55.4365 62.0485L58.9117 60.6971C59.3621 61.9198 60.3918 62.499 61.6789 62.499C62.8373 62.499 63.4808 61.9198 63.4808 61.3406C63.4808 60.6327 62.1937 60.4397 60.6492 60.1179C58.2681 59.6674 55.887 58.8952 55.887 56.0636C55.887 53.8755 58.0107 51.8805 61.2928 51.9449C64.2531 51.9449 65.9263 53.1676 66.8916 54.9695L63.7383 56.321C63.4165 55.4844 62.5155 54.9052 61.2928 54.9052C60.1344 54.9052 59.5552 55.42 59.5552 55.9992C59.5552 56.5784 60.3275 56.7715 62.2581 57.1576C64.4462 57.6081 67.0203 58.3803 67.0203 61.2119C67.0203 63.1426 65.2184 65.6524 61.4215 65.588C58.3325 65.588 56.4018 64.3653 55.4365 62.0485Z" fill="#512D6D"/>
<path fill-rule="evenodd" clip-rule="evenodd" d="M71.5892 71.3784V64.042C72.4258 65.0073 73.8416 65.5865 75.5792 65.5865C78.3464 65.5865 81.8859 63.3985 81.8859 58.7649C81.8859 54.1314 78.4751 51.9434 75.5148 51.9434C73.7773 51.9434 72.4258 52.6513 71.5892 53.6809V52.2008H67.9854V71.3784H71.5892ZM74.8712 55.1612C76.8662 55.1612 78.4107 56.7057 78.4107 58.7007C78.4107 60.76 76.8662 62.2402 74.8712 62.2402C72.9405 62.2402 71.5247 60.6313 71.5247 58.7007C71.5247 56.77 72.9405 55.1612 74.8712 55.1612Z" fill="#512D6D"/>
<path fill-rule="evenodd" clip-rule="evenodd" d="M88.8359 51.9434C85.8756 51.9434 82.4648 54.1314 82.4648 58.7649C82.4648 63.3985 86.0043 65.5865 88.7716 65.5865C90.5092 65.5865 91.925 64.8786 92.7616 63.8489V65.3291H96.3654V52.2008H92.7616V53.4879C91.8606 52.5869 90.5735 51.9434 88.8359 51.9434ZM89.5437 55.1612C91.4744 55.1612 92.8902 56.77 92.8902 58.7007C92.8902 60.6957 91.4744 62.2402 89.5437 62.2402C87.5487 62.2402 86.0042 60.6957 86.0042 58.7007C86.0042 56.6413 87.5487 55.1612 89.5437 55.1612Z" fill="#512D6D"/>
<path d="M97.8456 52.2012H101.449V54.3892C102.093 53.0378 103.316 52.2012 105.053 52.2012H106.469V55.6763H104.152C102.222 55.6763 101.385 56.706 101.385 59.1515V65.3295H97.7812V52.2012H97.8456Z" fill="#512D6D"/>
<path fill-rule="evenodd" clip-rule="evenodd" d="M113.033 51.9434C110.073 51.9434 106.662 54.1314 106.662 58.7649C106.662 63.3985 110.202 65.5865 112.969 65.6509C114.706 65.6509 116.122 64.943 116.959 63.9133V65.136C116.959 66.8093 115.736 68.3538 113.805 68.3538C112.004 68.3538 110.845 67.4528 110.137 66.1014L106.984 67.9033C108.014 69.9626 110.459 71.7002 113.805 71.7002C118.246 71.7002 120.563 68.7399 120.563 65.0073V52.2008H116.959V53.6166C116.058 52.6513 114.771 51.9434 113.033 51.9434ZM113.741 55.1612C115.672 55.1612 117.087 56.77 117.087 58.7007C117.087 60.6957 115.672 62.2402 113.741 62.2402C111.746 62.2402 110.201 60.6957 110.201 58.7007C110.201 56.6413 111.746 55.1612 113.741 55.1612Z" fill="#512D6D"/>
<path fill-rule="evenodd" clip-rule="evenodd" d="M128.285 51.9434C124.489 51.9434 121.464 54.968 121.464 58.7649C121.464 62.5619 124.489 65.5865 128.285 65.5865C132.082 65.5865 135.107 62.5619 135.107 58.7649C135.107 54.968 132.082 51.9434 128.285 51.9434ZM128.35 55.3542C130.152 55.3542 131.632 56.8987 131.632 58.765C131.632 60.6313 130.152 62.1758 128.35 62.1758C126.484 62.1758 125.068 60.6313 125.068 58.765C125.068 56.8987 126.484 55.3542 128.35 55.3542Z" fill="#512D6D"/>
<path d="M139.419 61.9831L141.157 60.696C142.444 62.691 144.052 63.6563 146.176 63.6563C148.557 63.6563 150.231 62.1118 150.231 60.0524C150.231 57.6713 147.914 56.9634 145.533 56.1268C142.894 55.2258 140.191 54.1318 140.191 50.7854C140.191 48.0181 142.701 45.8301 146.112 45.8301C148.815 45.8301 150.681 46.9241 152.032 48.726L150.424 49.9488C149.458 48.4043 148.042 47.632 146.112 47.632C143.924 47.632 142.315 48.9834 142.315 50.7854C142.315 52.9734 144.503 53.6813 146.884 54.5179C149.523 55.4189 152.354 56.5129 152.354 60.0524C152.354 62.884 149.909 65.5226 146.176 65.5226C143.087 65.5226 140.963 64.2355 139.419 61.9831Z" fill="#00A3AD"/>
<path fill-rule="evenodd" clip-rule="evenodd" d="M156.408 71.3784V63.3341C157.502 64.8143 159.368 65.5865 161.17 65.5865C165.032 65.5865 167.928 62.4975 167.928 58.7649C167.928 55.0324 165.096 51.9434 161.17 51.9434C159.497 51.9434 157.438 52.8443 156.344 54.3888V52.2008H154.413V71.3784H156.408ZM161.17 53.7454C163.809 53.7454 165.932 55.9978 165.932 58.765C165.932 61.5323 163.809 63.7203 161.17 63.7847C158.403 63.7847 156.279 61.5323 156.279 58.765C156.279 55.9978 158.339 53.7454 161.17 53.7454Z" fill="#00A3AD"/>
<path d="M169.987 52.2012H171.982V54.0675C172.69 52.8447 173.977 52.2012 175.651 52.2012H177.259V54.0675H175.651C173.012 54.0675 172.047 55.4833 172.047 58.5079V65.3295H169.987V52.2012Z" fill="#00A3AD"/>
<path d="M179.318 52.2012H181.378V58.6366V65.3295H179.318V58.6366V52.2012Z" fill="#00A3AD"/>
<path d="M183.952 52.2008H185.947V54.1314C186.848 52.78 188.457 51.9434 190.388 51.9434C193.927 51.9434 196.115 54.2601 196.115 58.057V65.3291H194.056V57.9927C194.056 55.4185 192.769 53.7453 190.13 53.7453C187.749 53.7453 185.947 55.6116 185.947 58.057V65.3291H183.952V52.2008H183.952Z" fill="#00A3AD"/>
<path d="M203.323 58.9589L200.684 61.6618V65.33H198.689V46.1523H200.684V59.345L207.699 52.2017H210.273L204.803 57.8005L210.273 65.3943H207.892L203.323 58.9589Z" fill="#00A3AD"/>
<path d="M211.817 46.1523H213.877V58.6371V65.33H211.817V58.6371V46.1523Z" fill="#00A3AD"/>
<path fill-rule="evenodd" clip-rule="evenodd" d="M222.758 51.8789C218.832 51.8789 215.937 54.9036 215.937 58.8292C215.937 62.6905 218.639 65.5864 222.887 65.5221C225.783 65.5221 227.842 64.1706 229.065 61.8539L227.327 61.0172C226.491 62.6261 225.011 63.7201 222.887 63.7201C220.248 63.7201 218.189 61.9182 217.932 59.344H229.515V58.5074C229.515 54.4531 226.555 51.8789 222.758 51.8789ZM227.392 57.5421H217.996C218.511 55.3541 220.377 53.7452 222.758 53.7452C225.268 53.7452 227.006 55.161 227.392 57.5421Z" fill="#00A3AD"/>
<path d="M18.1749 56.1273L16.1799 58.6371V65.33H12.5117V58.3153L22.358 46.1523H26.7984L20.7491 53.6175L27.3133 65.33H23.1302L18.1749 56.1273Z" fill="#512D6D"/>
<path d="M15.1502 50.8492C15.9321 50.8492 16.566 50.2153 16.566 49.4334C16.566 48.6515 15.9321 48.0176 15.1502 48.0176C14.3683 48.0176 13.7344 48.6515 13.7344 49.4334C13.7344 50.2153 14.3683 50.8492 15.1502 50.8492Z" fill="#00A3AD"/>
<path d="M12.5115 54.0679C13.2934 54.0679 13.9273 53.4341 13.9273 52.6521C13.9273 51.8702 13.2934 51.2363 12.5115 51.2363C11.7296 51.2363 11.0957 51.8702 11.0957 52.6521C11.0957 53.4341 11.7296 54.0679 12.5115 54.0679Z" fill="#00A3AD"/>
<path d="M12.5115 47.5679C13.2934 47.5679 13.9273 46.9341 13.9273 46.1521C13.9273 45.3702 13.2934 44.7363 12.5115 44.7363C11.7296 44.7363 11.0957 45.3702 11.0957 46.1521C11.0957 46.9341 11.7296 47.5679 12.5115 47.5679Z" fill="#00A3AD"/>
<path d="M180.348 49.4351C181.13 49.4351 181.764 48.8012 181.764 48.0193C181.764 47.2374 181.13 46.6035 180.348 46.6035C179.566 46.6035 178.933 47.2374 178.933 48.0193C178.933 48.8012 179.566 49.4351 180.348 49.4351Z" fill="#00A3AD"/>
<path d="M11.4824 91.5229V79.1668C11.4824 76.5927 12.319 75.8848 14.5071 75.8848V77.558C13.4131 77.558 13.1556 77.8798 13.1556 79.1668V91.5229C13.1556 92.81 13.4131 93.1318 14.5071 93.1318V94.805C12.126 94.805 11.4824 94.0971 11.4824 91.5229Z" fill="#8E99A1"/>
<path d="M16.7595 93.0677H15.2793V77.3652H16.502L18.1109 84.5729L19.7198 77.3652H20.9425V93.0677H19.4623V85.5383L19.9128 80.4543L19.398 83.4146L18.1753 88.4342H17.8535L16.6307 83.4146L16.1159 80.4543L16.5664 85.6026V93.0677H16.7595Z" fill="#8E99A1"/>
<path d="M25.5758 93.0677H22.165V77.3652H25.5115V78.9741H23.7739V84.2512H25.3828V85.86H23.7739V91.3945H25.5758V93.0677Z" fill="#8E99A1"/>
<path d="M29.0512 78.9741V93.0677H27.4424V78.9741H26.1553V77.3652H30.3383V78.9741H29.0512Z" fill="#8E99A1"/>
<path fill-rule="evenodd" clip-rule="evenodd" d="M30.8525 79.4887V90.9438C30.8525 92.5527 31.8179 93.2606 33.2337 93.2606C34.6495 93.2606 35.5504 92.5527 35.5504 90.9438V79.4887C35.5504 78.0086 34.7138 77.2363 33.2337 77.2363C31.7535 77.2363 30.8525 78.0086 30.8525 79.4887ZM33.8772 79.6175V90.7508C33.8772 91.3943 33.6842 91.6518 33.2337 91.6518C32.7188 91.6518 32.5258 91.3943 32.5258 90.7508V79.6175C32.5258 78.9739 32.6545 78.7165 33.1693 78.7165C33.6842 78.7165 33.8772 78.9739 33.8772 79.6175Z" fill="#8E99A1"/>
<path fill-rule="evenodd" clip-rule="evenodd" d="M38.2544 93.0677V87.855V87.7907H38.8336C40.4424 87.7907 41.1503 86.8897 41.1503 85.4739V79.4889C41.1503 78.1375 40.5068 77.3652 38.8336 77.3652H36.6455V93.0677H38.2544ZM38.2546 86.3106V78.7812H38.6407C39.2843 78.7812 39.4774 78.9742 39.4774 79.6178V85.4097C39.4774 86.0532 39.2199 86.3106 38.6407 86.3106H38.2546Z" fill="#8E99A1"/>
<path fill-rule="evenodd" clip-rule="evenodd" d="M43.7886 93.0677V86.3749V86.2462H44.239C44.8182 86.2462 45.0113 86.5036 45.0113 87.2115V92.0381C45.0113 92.4885 45.0756 92.8747 45.2044 93.0034H46.9419C46.7489 92.746 46.6845 92.4242 46.6845 92.0381V87.0828C46.6845 86.1818 46.4271 85.667 45.7835 85.4739C46.3627 85.2165 46.6201 84.7017 46.6201 83.8007V79.3602C46.6201 77.9444 45.9766 77.3652 44.3034 77.3652H42.1797V93.0677H43.7886ZM43.7888 84.7661V78.7811V78.7168H44.1749C44.8828 78.7168 45.0759 78.9098 45.0759 79.5534V83.9295C45.0759 84.5087 44.8185 84.7661 44.2393 84.7661H43.7888Z" fill="#8E99A1"/>
<path fill-rule="evenodd" clip-rule="evenodd" d="M47.5859 79.4887V90.9438C47.5859 92.5527 48.5513 93.2606 49.9671 93.2606C51.3829 93.2606 52.2838 92.5527 52.2838 90.9438V79.4887C52.2838 78.0086 51.4472 77.2363 49.9671 77.2363C48.4869 77.2363 47.5859 78.0086 47.5859 79.4887ZM50.6106 79.6175V90.7508C50.6106 91.3943 50.4176 91.6518 49.9671 91.6518C49.4522 91.6518 49.2592 91.3943 49.2592 90.7508V79.6175C49.2592 78.9739 49.3879 78.7165 49.9027 78.7165C50.4176 78.7165 50.6106 78.9739 50.6106 79.6175Z" fill="#8E99A1"/>
<path d="M53.377 93.0677V77.3652H55.0502V91.3945H56.9808V93.0677H53.377Z" fill="#8E99A1"/>
<path fill-rule="evenodd" clip-rule="evenodd" d="M57.625 79.4887V90.9438C57.625 92.5527 58.526 93.2606 60.0061 93.2606C61.4219 93.2606 62.3229 92.5527 62.3229 90.9438V79.4887C62.3229 78.0086 61.4863 77.2363 60.0061 77.2363C58.526 77.2363 57.625 78.0086 57.625 79.4887ZM60.6497 79.6175V90.7508C60.6497 91.3943 60.4566 91.6518 60.0061 91.6518C59.4913 91.6518 59.2982 91.3943 59.2982 90.7508V79.6175C59.2982 78.9739 59.4269 78.7165 59.9418 78.7165C60.4566 78.7165 60.6497 78.9739 60.6497 79.6175Z" fill="#8E99A1"/>
<path d="M63.417 93.0677V77.3652H65.0902V91.3945H67.0208V93.0677H63.417Z" fill="#8E99A1"/>
<path d="M69.5303 90.9438V86.6321H71.1391V90.7508C71.1391 91.3943 71.2678 91.6517 71.7183 91.6517C72.1688 91.6517 72.3619 91.3943 72.3619 90.8151V87.0182C72.3619 86.246 72.1045 86.1173 71.1391 85.5381C70.0451 84.8302 69.5946 84.3153 69.5946 83.1569V79.36C69.5946 78.0086 70.3669 77.2363 71.847 77.2363C73.2628 77.2363 73.9064 78.0086 73.9707 79.167V83.2857H72.4262V79.5531C72.4262 78.9095 72.2975 78.7165 71.847 78.7165C71.3966 78.7165 71.2678 78.9095 71.2678 79.5531V82.9639C71.2678 83.6074 71.4609 83.7361 72.5549 84.5084C73.5846 85.2163 73.9707 85.6024 73.9707 86.8252V90.9438C73.9707 92.5527 73.1985 93.2606 71.7183 93.2606C70.2382 93.2606 69.5303 92.6171 69.5303 90.9438Z" fill="#8E99A1"/>
<path d="M74.9355 90.944V77.3652H76.6088V90.751C76.6088 91.3945 76.7375 91.6519 77.188 91.6519C77.6384 91.6519 77.7671 91.3945 77.7671 90.751V77.3652H79.4404V90.944C79.4404 92.5529 78.6681 93.2608 77.188 93.2608C75.7078 93.2608 74.9355 92.6173 74.9355 90.944Z" fill="#8E99A1"/>
<path d="M80.4707 90.9438V79.4887C80.4707 77.9442 81.3717 77.2363 82.7875 77.2363C84.2033 77.2363 84.9755 77.9442 85.0399 79.4244V83.6074H83.431V79.5531C83.431 78.9095 83.2379 78.6521 82.7875 78.6521C82.337 78.6521 82.1439 78.9095 82.1439 79.5531V90.6864C82.1439 91.33 82.2726 91.5874 82.7875 91.5874C83.2379 91.5874 83.431 91.33 83.431 90.6864V86.246H85.0399V90.8795C85.0399 92.4884 84.2676 93.1962 82.7875 93.1962C81.243 93.2606 80.4707 92.6171 80.4707 90.9438Z" fill="#8E99A1"/>
<path d="M86.0049 90.9438V79.4887C86.0049 77.9442 86.9058 77.2363 88.3216 77.2363C89.7374 77.2363 90.5097 77.9442 90.5741 79.4244V83.6074H88.9652V79.5531C88.9652 78.9095 88.7721 78.6521 88.3216 78.6521C87.8712 78.6521 87.6781 78.9095 87.6781 79.5531V90.6864C87.6781 91.33 87.8068 91.5874 88.3216 91.5874C88.7721 91.5874 88.9652 91.33 88.9652 90.6864V86.246H90.5741V90.8795C90.5741 92.4884 89.8018 93.1962 88.3216 93.1962C86.7128 93.2606 86.0049 92.6171 86.0049 90.9438Z" fill="#8E99A1"/>
<path d="M91.1533 93.0678V91.5233H92.0543V78.9742H91.1533V77.4297H94.4998V78.9742H93.5988V91.5233H94.4998V93.0678H91.1533Z" fill="#8E99A1"/>
<path d="M96.7527 93.0676H95.3369V77.3651H96.624L98.4903 86.1817L98.8764 88.4985L98.619 85.152V77.3008H100.099V93.0033H98.8764L97.0101 84.1224L96.624 81.8056L96.8814 85.0233V93.0676H96.7527Z" fill="#8E99A1"/>
<path fill-rule="evenodd" clip-rule="evenodd" d="M102.415 91.1371H103.767L103.96 93.0677H105.569L103.96 77.3652H102.287L100.742 93.0677H102.287L102.415 91.1371ZM103.638 89.657H102.48L102.931 83.9295L103.059 80.39L103.188 83.9295L103.638 89.657Z" fill="#8E99A1"/>
<path d="M107.95 78.9741V93.0677H106.341V78.9741H105.054V77.3652H109.237V78.9741H107.95Z" fill="#8E99A1"/>
<path d="M113.292 93.0677H109.881V77.3652H113.227V78.9741H111.49V84.2512H113.099V85.86H111.49V91.3945H113.292V93.0677Z" fill="#8E99A1"/>
<path d="M113.871 93.1318C114.965 93.1318 115.223 92.81 115.223 91.5229V79.1668C115.223 77.8798 114.965 77.558 113.871 77.558V75.8848C116.059 75.8848 116.896 76.5927 116.896 79.1668V91.5229C116.896 94.0971 116.188 94.805 113.871 94.805V93.1318Z" fill="#8E99A1"/>
<path d="M124.102 84.8285H120.498V77.4277H124.102V78.9722H122.171V80.3237H123.909V81.8682H122.171V83.2196H124.102V84.8285Z" fill="#8E99A1"/>
<path d="M126.097 84.8285H124.295L125.839 80.9029L124.424 77.4277H126.161L126.74 79.1653V79.5514V79.1653L127.32 77.4277H129.057L127.641 80.9672L129.186 84.8929H127.448L126.805 82.8979V82.5761V82.8979L126.097 84.8285Z" fill="#8E99A1"/>
<path d="M132.018 78.9078V84.7641H130.345V78.9078H129.251V77.3633H133.177V78.9078H132.018Z" fill="#8E99A1"/>
<path d="M137.295 84.8285H133.691V77.4277H137.295V78.9722H135.365V80.3237H137.102V81.8682H135.3V83.2196H137.231V84.8285H137.295Z" fill="#8E99A1"/>
<path d="M139.29 84.8285H137.745V77.4277H139.29L140.577 81.0316L140.705 81.4177V80.7742V77.4277H142.25V84.8285H140.77L139.418 81.2247L139.29 80.7742L139.354 81.4821V84.8285H139.29Z" fill="#8E99A1"/>
<path fill-rule="evenodd" clip-rule="evenodd" d="M144.888 77.4277H142.829H142.765V84.8285H144.824C146.111 84.8285 147.076 84.2493 147.076 82.7048V79.5514C147.076 78.0069 146.175 77.4277 144.888 77.4277ZM144.503 83.3485V78.8437H144.76C145.082 78.8437 145.275 79.0367 145.275 79.6803V82.5119C145.275 83.0911 145.082 83.3485 144.76 83.3485H144.503Z" fill="#8E99A1"/>
<path d="M151.325 84.8285H147.721V77.4277H151.325V78.9722H149.394V80.3237H151.131V81.8682H149.394V83.2196H151.325V84.8285Z" fill="#8E99A1"/>
<path fill-rule="evenodd" clip-rule="evenodd" d="M153.898 77.4277H151.839H151.774V84.8285H153.834C155.121 84.8285 156.086 84.2493 156.086 82.7048V79.5514C156.086 78.0069 155.185 77.4277 153.898 77.4277ZM153.512 83.3485V78.8437H153.77C154.092 78.8437 154.285 79.0367 154.285 79.6803V82.5119C154.285 83.0911 154.092 83.3485 153.77 83.3485H153.512Z" fill="#8E99A1"/>
<path d="M159.561 81.8686H156.729V80.2598H159.561V81.8686Z" fill="#8E99A1"/>
<path fill-rule="evenodd" clip-rule="evenodd" d="M161.749 84.7641V82.1899H162.007C162.393 82.1899 162.522 82.3186 162.522 82.7047V84.3136C162.522 84.571 162.522 84.7641 162.65 84.8284H164.388C164.259 84.6997 164.195 84.571 164.195 84.3136V82.576C164.195 81.8681 164.066 81.5463 163.616 81.3533C164.002 81.1602 164.259 80.7741 164.259 80.1305V79.1652C164.259 77.8138 163.616 77.3633 162.264 77.3633H160.141V84.7641H161.749ZM161.75 80.7097V78.8435H162.136C162.458 78.8435 162.586 78.9722 162.586 79.2939V80.2593C162.586 80.581 162.458 80.7097 162.136 80.7097H161.75Z" fill="#8E99A1"/>
<path d="M168.377 84.8285H164.773V77.4277H168.377V78.9722H166.447V80.3237H168.184V81.8682H166.447V83.2196H168.377V84.8285Z" fill="#8E99A1"/>
<path d="M168.893 84.8285V77.4277H170.63V83.1553H172.368V84.8929H168.893V84.8285Z" fill="#8E99A1"/>
<path d="M176.551 84.8285H172.947V77.4277H176.551V78.9722H174.62V80.3237H176.358V81.8682H174.556V83.2196H176.487V84.8285H176.551Z" fill="#8E99A1"/>
<path fill-rule="evenodd" clip-rule="evenodd" d="M178.611 83.9919H179.769L179.962 84.8285H181.635L180.026 77.4277H178.353L176.809 84.8285H178.482L178.611 83.9919ZM179.511 82.5762H178.804L179.061 80.7743L179.125 79.8733L179.19 80.7743L179.511 82.5762Z" fill="#8E99A1"/>
<path d="M181.699 83.0265V81.9968H183.437V83.0265C183.437 83.2839 183.501 83.477 183.823 83.477C184.08 83.477 184.145 83.2839 184.145 83.0265V82.576C184.145 82.0612 183.63 81.8037 183.115 81.5463C182.471 81.1602 181.699 80.7097 181.699 79.6157V79.2296C181.699 77.9425 182.407 77.3633 183.759 77.3633C185.046 77.3633 185.754 77.9425 185.754 79.1009V79.8731H184.209V79.1652C184.209 78.8434 184.145 78.7147 183.887 78.7147C183.63 78.7147 183.566 78.8434 183.566 79.1652V79.4226C183.566 79.8088 184.016 80.0662 184.531 80.3236C185.174 80.7097 185.947 81.1602 185.947 82.3186V83.0908C185.947 84.3779 185.303 84.9571 183.823 84.9571C182.278 84.9571 181.699 84.3136 181.699 83.0265Z" fill="#8E99A1"/>
<path d="M190.001 84.8285H186.397V77.4277H190.001V78.9722H188.071V80.3237H189.808V81.8682H188.071V83.2196H190.001V84.8285Z" fill="#8E99A1"/>
<path d="M192.446 82.7046V79.4869C192.446 77.9424 193.283 77.2988 194.634 77.2988C195.986 77.2988 196.822 77.9424 196.822 79.2938V80.5166H195.02V79.4869C195.02 78.972 194.956 78.8433 194.634 78.8433C194.313 78.8433 194.248 79.1008 194.248 79.6156V82.5759C194.248 83.1551 194.313 83.3482 194.634 83.3482C194.956 83.3482 195.02 83.1551 195.02 82.6403V81.4819H196.822V82.769C196.822 84.3135 196.05 84.8927 194.634 84.8927C193.154 84.957 192.446 84.2491 192.446 82.7046Z" fill="#8E99A1"/>
<path fill-rule="evenodd" clip-rule="evenodd" d="M198.689 83.9919H199.847L200.04 84.8285H201.713L200.104 77.4277H198.431L196.887 84.8285H198.56L198.689 83.9919ZM199.59 82.5762H198.882L199.139 80.7743L199.203 79.8733L199.268 80.7743L199.59 82.5762Z" fill="#8E99A1"/>
<path fill-rule="evenodd" clip-rule="evenodd" d="M203.644 84.7641V82.5116H204.03C205.575 82.5116 206.154 81.7394 206.154 80.5167V79.2296C206.154 77.9425 205.51 77.3633 204.03 77.3633H201.971V84.7641H203.644ZM203.644 81.0959V78.8435H203.966C204.352 78.8435 204.481 79.0365 204.481 79.3583V80.581C204.481 80.9028 204.287 81.0959 203.966 81.0959H203.644Z" fill="#8E99A1"/>
<path d="M206.54 83.0265V81.9968H208.278V83.0265C208.278 83.2839 208.342 83.477 208.664 83.477C208.921 83.477 208.986 83.2839 208.986 83.0265V82.576C208.986 82.0612 208.471 81.8037 207.956 81.5463C207.312 81.1602 206.54 80.7097 206.54 79.6157V79.2296C206.54 77.9425 207.248 77.3633 208.599 77.3633C209.886 77.3633 210.594 77.9425 210.594 79.1009V79.8731H208.921V79.1652C208.921 78.8434 208.857 78.7147 208.599 78.7147C208.342 78.7147 208.278 78.8434 208.278 79.1652V79.4226C208.278 79.8088 208.728 80.0662 209.243 80.3236C209.886 80.7097 210.659 81.1602 210.659 82.3186V83.0908C210.659 84.3779 210.015 84.9571 208.535 84.9571C207.119 84.9571 206.54 84.3136 206.54 83.0265Z" fill="#8E99A1"/>
<path d="M211.174 82.7047V77.3633H212.847V82.576C212.847 83.0908 212.976 83.2839 213.233 83.2839C213.555 83.2839 213.619 83.1552 213.619 82.576V77.3633H215.293V82.7047C215.293 84.2492 214.52 84.8928 213.233 84.8928C211.946 84.9571 211.174 84.2492 211.174 82.7047Z" fill="#8E99A1"/>
<path d="M216 84.8285V77.4277H217.738V83.1553H219.475V84.8929H216V84.8285Z" fill="#8E99A1"/>
<path d="M223.594 84.8285H219.99V77.4277H223.594V78.9722H221.663V80.3237H223.401V81.8682H221.663V83.2196H223.594V84.8285Z" fill="#8E99A1"/>
<path d="M223.98 83.0265V81.9968H225.718V83.0265C225.718 83.2839 225.782 83.477 226.104 83.477C226.362 83.477 226.426 83.2839 226.426 83.0265V82.576C226.426 82.0612 225.911 81.8037 225.396 81.5463C224.753 81.1602 223.98 80.7097 223.98 79.6157V79.2296C223.98 77.9425 224.688 77.3633 226.04 77.3633C227.327 77.3633 228.035 77.9425 228.035 79.1009V79.8731H226.362V79.1652C226.362 78.8434 226.297 78.7147 226.04 78.7147C225.782 78.7147 225.718 78.8434 225.718 79.1652V79.4226C225.718 79.8088 226.169 80.0662 226.683 80.3236C227.327 80.7097 228.099 81.1602 228.099 82.3186V83.0908C228.099 84.3779 227.456 84.9571 225.975 84.9571C224.56 84.9571 223.98 84.3136 223.98 83.0265Z" fill="#8E99A1"/>
<path d="M120.498 93.0662V92.3583C120.498 91.1356 121.27 90.492 121.978 89.9772C122.557 89.5267 123.137 89.0762 123.137 88.4327V88.1753C123.137 87.5961 122.944 87.2743 122.3 87.2743C121.721 87.2743 121.463 87.5317 121.463 88.1109V89.0119H120.627V88.1109C120.627 87.0812 121.27 86.5664 122.364 86.5664C123.458 86.5664 124.038 87.1456 124.038 88.1753V88.3683C124.038 89.3337 123.394 89.8485 122.75 90.4277C122.107 90.9425 121.528 91.393 121.528 92.2296H124.038V93.0662H120.498Z" fill="#8E99A1"/>
<path d="M124.617 91.4574V90.8783H125.518V91.3287C125.518 92.0366 125.711 92.3584 126.355 92.3584C126.998 92.3584 127.191 91.9723 127.191 91.2644V90.1704C127.191 89.5912 126.934 89.3337 126.419 89.3337C125.969 89.3337 125.711 89.5912 125.518 89.9129L125.454 90.106L124.617 89.8486L124.939 86.6309H127.964V86.6952C127.964 87.4031 127.835 87.4675 127.063 87.4675H125.647C125.583 87.9823 125.518 88.8833 125.454 89.3337C125.647 88.9476 126.033 88.5615 126.677 88.6258C127.577 88.6258 128.028 89.2694 128.028 90.2347V91.4574C128.028 92.6158 127.449 93.2594 126.29 93.2594C125.261 93.195 124.617 92.6802 124.617 91.4574Z" fill="#8E99A1"/>
<path d="M130.409 93.066H129.572V87.8533H130.28L130.345 88.6256C130.538 88.0464 130.859 87.7246 131.503 87.7246C132.146 87.7246 132.468 88.0464 132.597 88.5612C132.79 88.0464 133.176 87.7246 133.691 87.7246C134.528 87.7246 134.914 88.2394 134.914 89.3335V93.066H134.013V89.4622C134.013 88.8186 133.82 88.4969 133.305 88.4969C132.79 88.4969 132.597 88.9473 132.597 89.4622V93.066H131.76V89.4622C131.76 88.883 131.567 88.4969 131.052 88.4969C130.538 88.4969 130.345 88.9473 130.345 89.5909V93.066H130.409Z" fill="#8E99A1"/>
<path fill-rule="evenodd" clip-rule="evenodd" d="M137.038 94.8684C136.008 94.8684 135.558 94.5467 135.558 93.9675C135.558 93.5813 135.944 93.1952 136.523 93.0665C135.879 93.0022 135.622 92.7447 135.622 92.2943C135.622 91.8438 135.944 91.5864 136.523 91.4576C136.072 91.2646 135.815 90.8785 135.815 90.2993V89.2696C135.815 88.4973 136.266 87.9825 137.038 87.8538H137.166C137.874 87.7251 138.003 87.5964 138.003 87.0815V86.7598H138.904V86.9528C138.904 87.5964 138.647 87.9181 137.81 87.9825H138.003C138.647 88.1112 138.968 88.5617 138.968 89.2052V90.2993C138.968 91.2002 138.325 91.7151 137.36 91.7151H137.231C136.587 91.7151 136.33 91.8438 136.33 92.0368C136.33 92.2299 136.459 92.3586 136.973 92.3586H137.81C138.84 92.3586 139.226 92.8091 139.226 93.517C139.226 94.2249 138.711 94.8684 137.231 94.8684H137.038ZM137.36 94.1607C138.067 94.1607 138.389 93.9032 138.389 93.5815C138.389 93.3241 138.196 93.131 137.681 93.131H137.102C136.652 93.1953 136.33 93.4528 136.33 93.7745C136.33 94.032 136.587 94.225 137.038 94.225H137.36V94.1607ZM138.132 89.2697V90.2993C138.132 90.8142 137.874 91.0716 137.359 91.1359C136.909 91.1359 136.652 90.8785 136.652 90.3637V89.334C136.652 88.9479 136.845 88.6905 137.166 88.5618C137.231 88.4974 137.295 88.4974 137.424 88.4974C137.939 88.4974 138.132 88.8192 138.132 89.2697Z" fill="#8E99A1"/>
<path d="M139.933 93.71C140.255 93.6457 140.384 93.4526 140.448 93.0665C140.384 93.0665 140.384 93.0665 140.32 93.0665C139.998 93.0665 139.869 92.9378 139.869 92.4873C139.869 92.0368 139.998 91.8438 140.448 91.8438C140.834 91.8438 141.028 92.0368 141.028 92.616C141.028 93.3883 140.706 93.9031 139.998 94.0962L139.933 93.71Z" fill="#8E99A1"/>
<path d="M143.408 91.4574V90.8783H144.309V91.3287C144.309 92.0366 144.502 92.3584 145.146 92.3584C145.789 92.3584 145.982 91.9723 145.982 91.2644V90.1704C145.982 89.5912 145.725 89.3337 145.21 89.3337C144.76 89.3337 144.502 89.5912 144.309 89.9129L144.245 90.106L143.408 89.8486L143.73 86.6309H146.755V86.6952C146.755 87.4031 146.626 87.4675 145.854 87.4675H144.438C144.374 87.9823 144.309 88.8833 144.245 89.3337C144.438 88.9476 144.824 88.5615 145.468 88.6258C146.369 88.6258 146.819 89.2694 146.819 90.2347V91.4574C146.819 92.6158 146.24 93.2594 145.081 93.2594C143.987 93.195 143.408 92.6802 143.408 91.4574Z" fill="#8E99A1"/>
<path fill-rule="evenodd" clip-rule="evenodd" d="M147.655 88.6258V91.2C147.655 92.5515 148.363 93.195 149.457 93.195C150.551 93.195 151.259 92.5515 151.259 91.2V88.6258C151.259 87.3388 150.551 86.6309 149.457 86.6309C148.363 86.6309 147.655 87.3388 147.655 88.6258ZM150.423 88.6259V91.1357C150.423 91.9723 150.101 92.3585 149.457 92.3585C148.75 92.3585 148.492 91.9723 148.492 91.1357V88.6259C148.492 87.7893 148.75 87.3388 149.457 87.3388C150.165 87.3388 150.423 87.7893 150.423 88.6259Z" fill="#8E99A1"/>
<path d="M153.64 93.066H152.804V87.8533H153.512L153.576 88.6256C153.769 88.0464 154.091 87.7246 154.734 87.7246C155.378 87.7246 155.7 88.0464 155.828 88.5612C156.021 88.0464 156.408 87.7246 156.922 87.7246C157.759 87.7246 158.145 88.2394 158.145 89.3335V93.066H157.309V89.4622C157.309 88.8186 157.115 88.4969 156.601 88.4969C156.086 88.4969 155.893 88.9473 155.893 89.4622V93.066H155.056V89.4622C155.056 88.883 154.863 88.4969 154.348 88.4969C153.833 88.4969 153.64 88.9473 153.64 89.5909V93.066Z" fill="#8E99A1"/>
<path fill-rule="evenodd" clip-rule="evenodd" d="M160.334 94.8684C159.304 94.8684 158.854 94.5467 158.854 93.9675C158.854 93.5813 159.24 93.1952 159.819 93.0665C159.175 93.0022 158.918 92.7447 158.918 92.2943C158.918 91.8438 159.24 91.5864 159.819 91.4576C159.368 91.2646 159.111 90.8785 159.111 90.2993V89.2696C159.111 88.4973 159.561 87.9825 160.334 87.8538H160.462C161.17 87.7251 161.299 87.5964 161.299 87.0815V86.7598H162.2V86.9528C162.2 87.5964 161.943 87.9181 161.106 87.9825H161.299C161.943 88.1112 162.264 88.5617 162.264 89.2052V90.2993C162.264 91.2002 161.621 91.7151 160.655 91.7151H160.527C159.819 91.7151 159.626 91.8438 159.626 92.0368C159.626 92.2299 159.754 92.3586 160.269 92.3586H161.106C162.136 92.3586 162.522 92.8091 162.522 93.517C162.522 94.2249 162.007 94.8684 160.527 94.8684H160.334ZM160.655 94.1607C161.363 94.1607 161.685 93.9032 161.685 93.5815C161.685 93.3241 161.492 93.131 160.977 93.131H160.398C159.948 93.1953 159.626 93.4528 159.626 93.7745C159.626 94.032 159.883 94.225 160.334 94.225H160.655V94.1607ZM161.363 89.2697V90.2993C161.363 90.8142 161.106 91.0716 160.591 91.1359C160.141 91.1359 159.883 90.8785 159.883 90.3637V89.334C159.883 88.9479 160.076 88.6905 160.398 88.5618C160.463 88.4974 160.527 88.4974 160.656 88.4974C161.17 88.4974 161.363 88.8192 161.363 89.2697Z" fill="#8E99A1"/>
<path d="M163.165 93.71C163.487 93.6457 163.615 93.4526 163.68 93.0665C163.615 93.0665 163.615 93.0665 163.551 93.0665C163.229 93.0665 163.101 92.9378 163.101 92.4873C163.101 92.0368 163.229 91.8438 163.68 91.8438C164.066 91.8438 164.259 92.0368 164.259 92.616C164.259 93.3883 163.937 93.9031 163.229 94.0962L163.165 93.71Z" fill="#8E99A1"/>
<path d="M166.512 93.0663V92.2297H167.413V88.1754H166.705V87.5318C167.284 87.4675 167.477 87.2744 167.541 86.6309H168.185V92.2297H169.086V93.0663H166.512Z" fill="#8E99A1"/>
<path fill-rule="evenodd" clip-rule="evenodd" d="M169.729 88.6258V91.2C169.729 92.5515 170.437 93.195 171.531 93.195C172.625 93.195 173.333 92.5515 173.333 91.2V88.6258C173.333 87.3388 172.625 86.6309 171.531 86.6309C170.437 86.6309 169.729 87.3388 169.729 88.6258ZM172.497 88.6259V91.1357C172.497 91.9723 172.24 92.3585 171.532 92.3585C170.824 92.3585 170.566 91.9723 170.566 91.1357V88.6259C170.566 87.7893 170.824 87.3388 171.532 87.3388C172.24 87.3388 172.497 87.7893 172.497 88.6259Z" fill="#8E99A1"/>
<path fill-rule="evenodd" clip-rule="evenodd" d="M174.234 88.6258V91.2C174.234 92.5515 174.942 93.195 176.036 93.195C177.13 93.195 177.838 92.5515 177.838 91.2V88.6258C177.838 87.3388 177.13 86.6309 176.036 86.6309C174.942 86.6309 174.234 87.3388 174.234 88.6258ZM177.002 88.6259V91.1357C177.002 91.9723 176.744 92.3585 176.037 92.3585C175.329 92.3585 175.071 91.9723 175.071 91.1357V88.6259C175.071 87.7893 175.329 87.3388 176.037 87.3388C176.744 87.3388 177.002 87.7893 177.002 88.6259Z" fill="#8E99A1"/>
<path d="M180.219 93.066H179.383V87.8533H180.091L180.155 88.6256C180.348 88.0464 180.67 87.7246 181.313 87.7246C181.957 87.7246 182.279 88.0464 182.407 88.5612C182.601 88.0464 182.987 87.7246 183.502 87.7246C184.338 87.7246 184.724 88.2394 184.724 89.3335V93.066H183.888V89.4622C183.888 88.8186 183.695 88.4969 183.18 88.4969C182.665 88.4969 182.472 88.9473 182.472 89.4622V93.066H181.635V89.4622C181.635 88.883 181.442 88.4969 180.927 88.4969C180.412 88.4969 180.219 88.9473 180.219 89.5909V93.066Z" fill="#8E99A1"/>
<path fill-rule="evenodd" clip-rule="evenodd" d="M186.912 94.8684C185.882 94.8684 185.432 94.5467 185.432 93.9675C185.432 93.5813 185.818 93.1952 186.397 93.0665C185.753 93.0022 185.496 92.7447 185.496 92.2943C185.496 91.8438 185.818 91.5864 186.397 91.4576C185.946 91.2646 185.689 90.8785 185.689 90.2993V89.2696C185.689 88.4973 186.14 87.9825 186.912 87.8538H187.041C187.748 87.7251 187.877 87.5964 187.877 87.0815V86.7598H188.778V86.9528C188.778 87.5964 188.521 87.9181 187.684 87.9825H187.877C188.521 88.1112 188.842 88.5617 188.842 89.2052V90.2993C188.842 91.2002 188.199 91.7151 187.234 91.7151H187.105C186.461 91.7151 186.204 91.8438 186.204 92.0368C186.204 92.2299 186.333 92.3586 186.847 92.3586H187.684C188.714 92.3586 189.1 92.8091 189.1 93.517C189.1 94.2249 188.585 94.8684 187.105 94.8684H186.912ZM187.234 94.1607C187.941 94.1607 188.263 93.9032 188.263 93.5815C188.263 93.3241 188.07 93.131 187.555 93.131H186.976C186.526 93.1953 186.204 93.4528 186.204 93.7745C186.204 94.032 186.461 94.225 186.912 94.225H187.234V94.1607ZM187.942 89.2697V90.2993C187.942 90.8142 187.684 91.0716 187.169 91.1359C186.719 91.1359 186.461 90.8785 186.461 90.3637V89.334C186.461 88.9479 186.655 88.6905 186.976 88.5618C187.041 88.4974 187.105 88.4974 187.234 88.4974C187.749 88.4974 187.942 88.8192 187.942 89.2697Z" fill="#8E99A1"/>
<path d="M189.808 93.71C190.129 93.6457 190.258 93.4526 190.322 93.0665C190.258 93.0665 190.258 93.0665 190.194 93.0665C189.872 93.0665 189.743 92.9378 189.743 92.4873C189.743 92.0368 189.872 91.8438 190.322 91.8438C190.708 91.8438 190.902 92.0368 190.902 92.616C190.902 93.3883 190.58 93.9031 189.872 94.0962L189.808 93.71Z" fill="#8E99A1"/>
<path d="M193.219 93.0662V92.3583C193.219 91.1356 193.991 90.492 194.699 89.9772C195.278 89.5267 195.857 89.0762 195.857 88.4327V88.1753C195.857 87.5961 195.664 87.2743 195.021 87.2743C194.441 87.2743 194.184 87.5317 194.184 88.1109V89.0119H193.347V88.1109C193.347 87.0812 193.991 86.5664 195.085 86.5664C196.179 86.5664 196.758 87.1456 196.758 88.1753V88.3683C196.758 89.3337 196.115 89.8485 195.471 90.4277C194.828 90.9425 194.248 91.393 194.248 92.2296H196.758V93.0662H193.219Z" fill="#8E99A1"/>
<path fill-rule="evenodd" clip-rule="evenodd" d="M197.467 88.6258V91.2C197.467 92.5515 198.175 93.195 199.269 93.195C200.363 93.195 201.071 92.5515 201.071 91.2V88.6258C201.071 87.3388 200.363 86.6309 199.269 86.6309C198.175 86.6309 197.467 87.3388 197.467 88.6258ZM200.234 88.6259V91.1357C200.234 91.9723 199.977 92.3585 199.269 92.3585C198.561 92.3585 198.304 91.9723 198.304 91.1357V88.6259C198.304 87.7893 198.561 87.3388 199.269 87.3388C199.977 87.3388 200.234 87.7893 200.234 88.6259Z" fill="#8E99A1"/>
<path fill-rule="evenodd" clip-rule="evenodd" d="M201.971 88.6258V91.2C201.971 92.5515 202.679 93.195 203.773 93.195C204.867 93.195 205.575 92.5515 205.575 91.2V88.6258C205.575 87.3388 204.867 86.6309 203.773 86.6309C202.679 86.6309 201.971 87.3388 201.971 88.6258ZM204.738 88.6259V91.1357C204.738 91.9723 204.481 92.3585 203.773 92.3585C203.065 92.3585 202.808 91.9723 202.808 91.1357V88.6259C202.808 87.7893 203.065 87.3388 203.773 87.3388C204.481 87.3388 204.738 87.7893 204.738 88.6259Z" fill="#8E99A1"/>
<path d="M207.956 93.066H207.119V87.8533H207.827L207.891 88.6256C208.084 88.0464 208.406 87.7246 209.05 87.7246C209.693 87.7246 210.015 88.0464 210.144 88.5612C210.337 88.0464 210.723 87.7246 211.238 87.7246C212.074 87.7246 212.461 88.2394 212.461 89.3335V93.066H211.624V89.4622C211.624 88.8186 211.431 88.4969 210.916 88.4969C210.401 88.4969 210.208 88.9473 210.208 89.4622V93.066H209.372V89.4622C209.372 88.883 209.178 88.4969 208.664 88.4969C208.149 88.4969 207.956 88.9473 207.956 89.5909V93.066Z" fill="#8E99A1"/>
<path fill-rule="evenodd" clip-rule="evenodd" d="M214.649 94.8684C213.619 94.8684 213.169 94.5467 213.169 93.9675C213.169 93.5813 213.555 93.1952 214.134 93.0665C213.491 93.0022 213.233 92.7447 213.233 92.2943C213.233 91.8438 213.555 91.5864 214.134 91.4576C213.684 91.2646 213.426 90.8785 213.426 90.2993V89.2696C213.426 88.4973 213.877 87.9825 214.649 87.8538H214.778C215.486 87.7251 215.614 87.5964 215.614 87.0815V86.7598H216.515V86.9528C216.515 87.5964 216.258 87.9181 215.421 87.9825H215.614C216.258 88.1112 216.58 88.5617 216.58 89.2052V90.2993C216.58 91.2002 215.936 91.7151 214.971 91.7151H214.842C214.134 91.7151 213.941 91.8438 213.941 92.0368C213.941 92.2299 214.07 92.3586 214.585 92.3586H215.421C216.451 92.3586 216.837 92.8091 216.837 93.517C216.837 94.2249 216.322 94.8684 214.842 94.8684H214.649ZM214.971 94.1607C215.679 94.1607 216.001 93.9032 216.001 93.5815C216.001 93.3241 215.807 93.131 215.293 93.131H214.713C214.263 93.1953 213.941 93.4528 213.941 93.7745C213.941 94.032 214.199 94.225 214.649 94.225H214.971V94.1607ZM215.679 89.2697V90.2993C215.679 90.8142 215.421 91.0716 214.907 91.1359C214.456 91.1359 214.199 90.8785 214.199 90.3637V89.334C214.199 88.9479 214.392 88.6905 214.714 88.5618C214.778 88.4974 214.842 88.4974 214.971 88.4974C215.486 88.4974 215.679 88.8192 215.679 89.2697Z" fill="#8E99A1"/>
<path fill-rule="evenodd" clip-rule="evenodd" d="M227.134 48.341H228.035V50.7865H228.614V48.341H229.579V47.8262H227.134V48.341ZM230.48 47.8262H230.03V50.8508H230.609V48.7915L231.639 50.0786L232.669 48.7915V50.7865H233.248V47.8262H232.733L231.574 49.3063L230.48 47.8262Z" fill="#00A3AD"/>
</svg>
