<?xml version="1.0" encoding="utf-8"?>
<!-- Generator: Adobe Illustrator 25.2.0, SVG Export Plug-In . SVG Version: 6.00 Build 0)  -->
<svg version="1.1" id="Layer_1" xmlns="http://www.w3.org/2000/svg" xmlns:xlink="http://www.w3.org/1999/xlink" x="0px" y="0px"
	 viewBox="0 0 246 144" style="enable-background:new 0 0 246 144;" xml:space="preserve">
<style type="text/css">
	.st0{fill:#FFFFFF;}
	.st1{fill:#002F65;}
	.st2{fill:#F7941E;}
	.st3{opacity:0.7;}
	.st4{fill:#666766;}
</style>
<path class="st0" d="M0,6c0-3.3,2.7-6,6-6h231c3.3,0,6,2.7,6,6v132c0,3.3-2.7,6-6,6H6c-3.3,0-6-2.7-6-6V6z"/>
<g>
	<polygon class="st1" points="15.8,59.9 15.8,48 17.3,48 17.3,58.4 23.1,58.4 23.1,59.9 	"/>
	<polygon class="st1" points="25.7,59.9 25.7,48 32.5,48 32.5,49.4 27.2,49.4 27.2,53 31.8,53 31.8,54.4 27.2,54.4 27.2,58.5 
		32.5,58.5 32.5,59.9 	"/>
	<polygon class="st1" points="40.4,60.6 34.7,48 36.3,48 40.4,57.1 44.4,48 46,48 	"/>
	<path class="st1" d="M58.3,55.3c0,0.7-0.1,1.4-0.3,2c-0.4,1.2-1.4,2.1-2.5,2.6c-1.3,0.5-2.7,0.5-4,0c-0.6-0.2-1.1-0.6-1.5-1
		c-0.4-0.4-0.8-1-1-1.5c-0.2-0.6-0.4-1.3-0.3-2V48H50v7c0,0.6,0.1,1.2,0.3,1.8c0.2,0.4,0.5,0.8,0.8,1.2c0.3,0.3,0.7,0.5,1.1,0.6
		c0.8,0.3,1.6,0.3,2.3,0c0.4-0.1,0.8-0.3,1.1-0.6c0.4-0.3,0.6-0.7,0.8-1.2c0.2-0.6,0.3-1.2,0.3-1.8v-7h1.5L58.3,55.3z"/>
	<polygon class="st1" points="61.9,59.9 61.9,48 63.4,48 63.4,58.4 69.2,58.4 69.2,59.9 	"/>
	<path class="st1" d="M77,50.8l2.3,4.9h-4.6L77,50.8z M77,47.4l-6,12.5h1.6L74,57H80l1.4,2.9H83L77,47.4z"/>
	<polygon class="st1" points="84.8,47.4 84.8,59.9 86.3,59.9 86.3,51.2 94.9,60.6 94.9,48 93.4,48 93.4,56.8 	"/>
	<path class="st1" d="M97.3,49.6h0.6c0,0,0.1,0,0.1,0c0,0,0.1-0.1,0.1-0.1c0-0.1,0.1-0.1,0.1-0.2c0-0.1,0-0.2-0.1-0.2
		C98,49,97.9,49,97.8,49h-0.5V49.6z M97.8,48.7h0.2c0.1,0,0.2,0,0.2,0.1c0.1,0,0.2,0.1,0.2,0.2c0.1,0.1,0.1,0.2,0.1,0.3
		c0,0.1,0,0.3-0.1,0.4c-0.1,0.1-0.2,0.2-0.3,0.2l0.4,0.9h-0.4l-0.3-0.8h-0.5v0.8H97v-2H97.8z M99.3,49.7c0-0.2-0.1-0.4-0.1-0.6
		c-0.2-0.4-0.5-0.7-0.9-0.9c-0.2-0.1-0.4-0.1-0.6-0.1c-0.2,0-0.4,0-0.6,0.1c-0.2,0.1-0.4,0.2-0.5,0.4c-0.2,0.2-0.3,0.3-0.4,0.5
		c-0.1,0.2-0.1,0.4-0.1,0.6c0,0.2,0,0.4,0.1,0.7c0.1,0.2,0.2,0.4,0.3,0.5c0.1,0.2,0.3,0.3,0.5,0.4c0.2,0.1,0.4,0.1,0.6,0.1
		c0.2,0,0.4,0,0.7-0.1c0.2-0.1,0.4-0.2,0.5-0.4c0.2-0.2,0.3-0.4,0.4-0.6C99.3,50.1,99.4,49.9,99.3,49.7 M95.8,49.7
		c0-0.3,0.1-0.5,0.2-0.7c0.2-0.5,0.6-0.8,1-1c0.5-0.2,1-0.2,1.5,0c0.2,0.1,0.4,0.2,0.6,0.4c0.2,0.2,0.3,0.4,0.4,0.6
		c0.1,0.2,0.2,0.5,0.2,0.7c0,0.3,0,0.5-0.1,0.8c-0.1,0.2-0.2,0.5-0.4,0.7c-0.2,0.2-0.4,0.3-0.6,0.4c-0.2,0.1-0.5,0.2-0.7,0.1
		c-0.3,0-0.5-0.1-0.7-0.2c-0.2-0.1-0.4-0.3-0.6-0.4c-0.2-0.2-0.3-0.4-0.4-0.6C95.8,50.2,95.8,50,95.8,49.7"/>
	<polygon class="st1" points="15.6,76.2 15.6,64.4 17.1,64.4 17.1,69.9 22.4,64.4 24.3,64.4 18.9,70 25.1,76.2 23,76.2 17.1,70.4 
		17.1,76.2 	"/>
	<polygon class="st1" points="27.2,76.2 27.2,64.4 34,64.4 34,65.7 28.7,65.7 28.7,69.4 33.3,69.4 33.3,70.7 28.7,70.7 28.7,74.8 
		34,74.8 34,76.2 	"/>
	<path class="st1" d="M38.3,70.2l0.3,0c0.1,0,0.2,0,0.3,0c0.4,0,0.9,0,1.3-0.1c0.5,0,0.9-0.2,1.4-0.3c0.4-0.2,0.8-0.4,1.1-0.7
		c0.3-0.4,0.5-0.8,0.4-1.3c0-0.6-0.3-1.2-0.8-1.6c-0.7-0.4-1.4-0.6-2.2-0.5h-1.9L38.3,70.2z M36.8,76.2V64.4h3.6
		c0.6,0,1.2,0.1,1.8,0.2c0.5,0.1,0.9,0.4,1.4,0.7c0.4,0.3,0.7,0.7,0.9,1.1c0.2,0.4,0.3,0.9,0.3,1.4c0,0.5-0.1,0.9-0.3,1.3
		c-0.2,0.4-0.4,0.7-0.7,1c-0.3,0.3-0.6,0.5-0.9,0.6c-0.3,0.1-0.6,0.3-1,0.4l4.4,5.1h-1.9l-4.1-4.9l-0.5,0c-0.2,0-0.3,0-0.5,0
		c-0.2,0-0.3,0-0.4,0l-0.4,0v4.9H36.8z"/>
	<path class="st1" d="M53.8,67.1L51.5,72h4.6L53.8,67.1z M47.9,76.2l5.9-12.5l6,12.5h-1.6l-1.4-2.9h-5.9l-1.4,2.9H47.9z"/>
	<path class="st1" d="M68.7,73.2c0,0.5-0.1,0.9-0.3,1.3c-0.2,0.4-0.4,0.8-0.8,1c-0.4,0.3-0.8,0.6-1.3,0.7c-0.6,0.2-1.1,0.3-1.7,0.3
		c-0.4,0-0.8,0-1.2-0.1c-0.3-0.1-0.7-0.1-1-0.3c-0.3-0.1-0.5-0.2-0.7-0.3c-0.2-0.1-0.4-0.2-0.5-0.3l-0.1-1.6
		c0.5,0.3,1.1,0.6,1.7,0.8c0.6,0.2,1.2,0.4,1.8,0.4c0.3,0,0.7,0,1-0.1c0.3-0.1,0.6-0.2,0.8-0.4c0.2-0.2,0.4-0.4,0.5-0.6
		c0.1-0.3,0.2-0.5,0.2-0.8c0-0.3-0.1-0.5-0.2-0.8c-0.1-0.2-0.3-0.5-0.5-0.6c-0.2-0.2-0.5-0.4-0.8-0.5c-0.3-0.2-0.7-0.3-1.1-0.5
		c-0.4-0.2-0.8-0.4-1.2-0.6c-0.4-0.2-0.8-0.5-1.1-0.8c-0.3-0.3-0.6-0.6-0.8-1c-0.2-0.4-0.3-0.9-0.3-1.4c0-0.4,0.1-0.8,0.3-1.2
		c0.2-0.4,0.4-0.7,0.7-0.9c0.3-0.3,0.7-0.5,1.1-0.6c0.5-0.2,1-0.2,1.5-0.2c0.6,0,1.2,0.1,1.8,0.3c0.4,0.1,0.8,0.3,1.1,0.5v1.7
		c-0.5-0.3-1-0.6-1.4-0.8c-0.5-0.2-1-0.3-1.5-0.3c-0.3,0-0.6,0-0.8,0.1c-0.2,0.1-0.5,0.2-0.7,0.3c-0.2,0.1-0.4,0.3-0.5,0.5
		c-0.1,0.2-0.2,0.5-0.2,0.7c0,0.5,0.2,1,0.6,1.4c0.5,0.4,1,0.7,1.6,0.9c0.5,0.2,1,0.4,1.5,0.7c0.4,0.2,0.8,0.5,1.2,0.8
		c0.3,0.3,0.6,0.7,0.8,1.1C68.6,72.3,68.7,72.7,68.7,73.2"/>
	<polygon class="st1" points="69.9,64.4 80.1,64.4 80.1,65.7 75.8,65.7 75.8,76.2 74.3,76.2 74.3,65.7 69.9,65.7 	"/>
	<rect x="82.5" y="64.4" class="st1" width="1.5" height="11.8"/>
	<path class="st1" d="M96,75.4c-0.2,0.1-0.4,0.2-0.6,0.4c-0.3,0.1-0.5,0.3-0.8,0.4c-0.3,0.1-0.7,0.2-1,0.3c-0.4,0.1-0.8,0.1-1.2,0.1
		c-2.4,0-4.7-1.4-5.6-3.7c-0.3-0.8-0.5-1.6-0.5-2.4c0-0.9,0.1-1.8,0.5-2.6c0.3-0.8,0.7-1.5,1.3-2c0.6-0.6,1.2-1,2-1.3
		c0.8-0.3,1.6-0.5,2.5-0.5c0.4,0,0.9,0,1.3,0.1c0.4,0.1,0.7,0.2,1,0.3c0.3,0.1,0.5,0.2,0.7,0.4c0.1,0.1,0.3,0.2,0.4,0.3l-0.1,1.6
		c-0.2-0.1-0.3-0.3-0.5-0.4c-0.2-0.2-0.5-0.3-0.8-0.4c-0.3-0.1-0.7-0.3-1-0.3c-0.4-0.1-0.8-0.1-1.2-0.1c-0.6,0-1.3,0.1-1.9,0.4
		c-0.5,0.2-1,0.6-1.4,1c-0.4,0.4-0.7,1-0.9,1.5c-0.2,0.6-0.3,1.3-0.3,2c0,0.7,0.1,1.3,0.3,2c0.2,0.6,0.5,1.1,0.9,1.6
		c0.4,0.4,0.9,0.8,1.4,1c0.6,0.2,1.2,0.4,1.8,0.4c0.4,0,0.8,0,1.2-0.1c0.3-0.1,0.7-0.2,1-0.4c0.3-0.1,0.6-0.3,0.8-0.5
		c0.2-0.2,0.5-0.3,0.7-0.5L96,75.4z"/>
	<polygon class="st1" points="98.3,76.2 98.3,64.4 99.8,64.4 99.8,69.9 105.1,64.4 107,64.4 101.6,70 107.8,76.2 105.7,76.2 
		99.8,70.4 99.8,76.2 	"/>
	<path class="st1" d="M109,65.9h0.6c0,0,0.1,0,0.1,0c0,0,0.1-0.1,0.1-0.1c0-0.1,0.1-0.1,0.1-0.2c0-0.1,0-0.2-0.1-0.2
		c-0.1,0-0.2-0.1-0.3-0.1H109L109,65.9z M109.5,65h0.2c0.1,0,0.2,0,0.2,0.1c0.1,0,0.2,0.1,0.2,0.2c0.1,0.1,0.1,0.2,0.1,0.3
		c0,0.1,0,0.3-0.1,0.4c-0.1,0.1-0.2,0.2-0.3,0.2l0.4,0.9h-0.3l-0.3-0.8H109V67h-0.3v-2H109.5z M111.1,66c0-0.2-0.1-0.4-0.1-0.6
		c-0.1-0.2-0.2-0.4-0.4-0.5c-0.1-0.1-0.3-0.3-0.5-0.3c-0.2-0.1-0.4-0.1-0.6-0.1c-0.2,0-0.4,0-0.6,0.1c-0.2,0.1-0.4,0.2-0.5,0.4
		c-0.2,0.2-0.3,0.3-0.4,0.5c-0.1,0.2-0.1,0.4-0.1,0.6c0,0.4,0.2,0.9,0.5,1.2c0.1,0.2,0.3,0.3,0.5,0.4c0.2,0.1,0.4,0.1,0.6,0.1
		c0.2,0,0.4,0,0.7-0.1c0.2-0.1,0.4-0.2,0.5-0.4c0.2-0.2,0.3-0.4,0.4-0.6C111.1,66.4,111.1,66.2,111.1,66 M107.5,66
		c0-0.3,0.1-0.5,0.2-0.7c0.2-0.5,0.6-0.8,1-1c0.2-0.1,0.5-0.2,0.7-0.2c0.3,0,0.5,0.1,0.7,0.2c0.2,0.1,0.4,0.2,0.6,0.4
		c0.2,0.2,0.3,0.4,0.4,0.6c0.1,0.2,0.2,0.5,0.2,0.7c0,0.3,0,0.5-0.1,0.8c-0.2,0.5-0.6,0.9-1,1.1c-0.2,0.1-0.5,0.2-0.8,0.2
		c-0.3,0-0.5-0.1-0.7-0.2c-0.2-0.1-0.4-0.3-0.6-0.4c-0.2-0.2-0.3-0.4-0.4-0.6C107.5,66.6,107.5,66.3,107.5,66"/>
	<path class="st1" d="M136.4,54.2v4.4h2.1c0.5,0,1-0.1,1.4-0.2c0.3-0.1,0.7-0.3,0.9-0.5c0.2-0.2,0.4-0.5,0.5-0.8
		c0.1-0.3,0.1-0.6,0.1-0.8c0-0.6-0.3-1.1-0.7-1.4c-0.6-0.4-1.4-0.6-2.1-0.6L136.4,54.2z M136.4,49.3V53h1.5c0.4,0,0.8,0,1.3-0.1
		c0.4-0.1,0.7-0.2,1-0.3c0.3-0.1,0.5-0.3,0.7-0.6c0.4-0.6,0.4-1.3,0-1.8c-0.2-0.2-0.4-0.4-0.7-0.5c-0.3-0.1-0.7-0.2-1-0.3
		c-0.4-0.1-0.9-0.1-1.3-0.1L136.4,49.3z M134.9,59.8V48h4.2c0.5,0,1.1,0.1,1.6,0.3c0.4,0.2,0.8,0.4,1.1,0.7c0.3,0.3,0.5,0.6,0.7,0.9
		c0.1,0.3,0.2,0.7,0.2,1c0,0.3-0.1,0.7-0.2,1c-0.1,0.3-0.3,0.5-0.4,0.7c-0.2,0.2-0.4,0.4-0.6,0.5c-0.2,0.1-0.4,0.2-0.6,0.3
		c0.6,0.2,1.1,0.5,1.5,1c0.4,0.5,0.6,1.1,0.6,1.8c0,0.5-0.1,1-0.3,1.4c-0.2,0.4-0.5,0.8-0.8,1.1c-0.4,0.3-0.8,0.6-1.3,0.8
		c-0.5,0.2-1.1,0.3-1.6,0.3L134.9,59.8z"/>
	<polygon class="st1" points="145.8,59.8 145.8,48 147.4,48 147.4,58.4 153.1,58.4 153.1,59.8 	"/>
	<path class="st1" d="M165.4,55.3c0,0.7-0.1,1.4-0.3,2c-0.2,0.6-0.6,1.1-1,1.5c-0.4,0.4-1,0.8-1.5,1c-1.3,0.5-2.7,0.5-4,0
		c-1.2-0.4-2.1-1.4-2.5-2.6c-0.2-0.6-0.4-1.3-0.3-2V48h1.5v7c0,0.6,0.1,1.2,0.3,1.8c0.2,0.4,0.5,0.8,0.8,1.2
		c0.3,0.3,0.7,0.5,1.1,0.6c0.8,0.3,1.6,0.3,2.3,0c0.4-0.1,0.8-0.3,1.1-0.6c0.4-0.3,0.6-0.7,0.8-1.2c0.2-0.6,0.3-1.2,0.3-1.8v-7h1.5
		L165.4,55.3z"/>
	<rect x="168.2" y="55.5" class="st1" width="3.3" height="1.1"/>
	<path class="st1" d="M184.1,55.3c0,0.7-0.1,1.4-0.3,2c-0.4,1.2-1.4,2.1-2.5,2.6c-1.3,0.5-2.7,0.5-4,0c-0.6-0.2-1.1-0.6-1.5-1
		c-0.4-0.4-0.8-1-1-1.5c-0.2-0.6-0.4-1.3-0.3-2V48h1.5v7c0,0.6,0.1,1.2,0.3,1.8c0.2,0.4,0.5,0.8,0.8,1.2c0.3,0.3,0.7,0.5,1.1,0.6
		c0.8,0.3,1.6,0.3,2.3,0c0.4-0.1,0.8-0.3,1.1-0.6c0.4-0.3,0.6-0.7,0.8-1.2c0.2-0.6,0.3-1.2,0.3-1.8v-7h1.5L184.1,55.3z"/>
	<path class="st1" d="M186.6,49.6h0.6c0,0,0.1,0,0.1,0c0,0,0.1-0.1,0.1-0.1c0-0.1,0.1-0.1,0.1-0.2c0-0.1,0-0.2-0.1-0.2
		c-0.1,0-0.2-0.1-0.3-0.1h-0.5V49.6z M187.1,48.6h0.2c0.1,0,0.2,0,0.2,0.1c0.1,0,0.2,0.1,0.2,0.2c0.1,0.1,0.1,0.2,0.1,0.3
		c0,0.1,0,0.3-0.1,0.4c-0.1,0.1-0.2,0.2-0.3,0.2l0.4,0.9h-0.3l-0.3-0.8h-0.5v0.8h-0.3v-2H187.1z M188.7,49.6c0-0.2-0.1-0.4-0.1-0.6
		c-0.1-0.2-0.2-0.4-0.4-0.5c-0.1-0.1-0.3-0.3-0.5-0.3c-0.2-0.1-0.4-0.1-0.6-0.1c-0.2,0-0.4,0-0.6,0.1c-0.2,0.1-0.4,0.2-0.5,0.4
		c-0.2,0.1-0.3,0.3-0.4,0.5c-0.1,0.2-0.1,0.4-0.1,0.6c0,0.2,0,0.4,0.1,0.7c0.1,0.2,0.2,0.4,0.3,0.5c0.1,0.2,0.3,0.3,0.5,0.4
		c0.2,0.1,0.4,0.1,0.6,0.1c0.2,0,0.4,0,0.7-0.1c0.2-0.1,0.4-0.2,0.5-0.4c0.2-0.2,0.3-0.4,0.4-0.6C188.7,50.1,188.7,49.9,188.7,49.6
		 M185.1,49.7c0-0.3,0.1-0.5,0.2-0.7c0.2-0.5,0.6-0.8,1-1c0.2-0.1,0.5-0.2,0.7-0.2c0.3,0,0.5,0.1,0.7,0.2c0.2,0.1,0.4,0.2,0.6,0.4
		c0.2,0.2,0.3,0.4,0.4,0.6c0.1,0.2,0.2,0.5,0.2,0.7c0,0.3,0,0.5-0.1,0.8c-0.2,0.5-0.6,0.9-1,1.1c-0.2,0.1-0.5,0.2-0.8,0.2
		c-0.3,0-0.5-0.1-0.7-0.2c-0.2-0.1-0.4-0.3-0.6-0.4c-0.2-0.2-0.3-0.4-0.4-0.6C185.2,50.2,185.1,50,185.1,49.7"/>
	<polygon class="st2" points="128.9,69.2 124,69.2 124,64.3 122.2,64.3 122.2,69.2 117.3,69.2 117.3,71 122.2,71 122.2,75.9 
		124,75.9 124,71 128.9,71 	"/>
	<g class="st3">
		<path class="st4" d="M17.1,79.1c-1.3,2.7-1.3,5.9,0,8.6h-0.4c-1.5-2.7-1.5-5.9,0-8.6H17.1z"/>
	</g>
	<g class="st3">
		<path class="st4" d="M19.7,83.1L19.7,83.1c-0.1,0.2-0.4,0.3-0.6,0.3l-0.4,0.1c-0.5,0.1-0.8,0.6-0.8,1.1c0,0.6,0.3,1,0.7,1
			c0.6,0,1.1-0.5,1.1-1.4V83.1z M17.5,82.4c0-1,0.4-1.6,1.4-1.6s1.3,0.5,1.3,1.3v3c0,0.3,0.1,0.4,0.3,0.4h0.1v0.4
			c-0.1,0-0.2,0.1-0.2,0.1c-0.4,0-0.7-0.1-0.7-0.6v-0.2l0,0c-0.1,0.6-0.6,0.9-1.2,0.9c-0.8,0-1.2-0.6-1.2-1.4
			c-0.1-0.6,0.3-1.2,0.9-1.4l1-0.3c0.4-0.1,0.4-0.2,0.4-0.8c0-0.6-0.3-0.9-0.8-0.9c-0.6,0-0.9,0.4-0.9,1.1L17.5,82.4z"/>
	</g>
	<g class="st3">
		<path class="st4" d="M21.3,80.8h0.5v0.7l0,0c0.2-0.5,0.6-0.8,1.2-0.8c0.5,0,0.9,0.4,1,0.9l0,0c0.1-0.5,0.6-0.9,1.2-0.9
			c0.7,0,1.1,0.4,1.1,1.3v3.9h-0.5v-3.8c0-0.6-0.2-0.9-0.7-0.9S24,81.7,24,82.5v3.4h-0.5v-3.8c0-0.6-0.2-0.9-0.7-0.9
			c-0.5,0-0.9,0.5-0.9,1.3v3.4h-0.5V80.8z"/>
	</g>
	<g class="st3">
		<path class="st4" d="M27.2,80.8h0.5v5.1h-0.5V80.8z M27.2,79.1h0.5v1h-0.5V79.1z"/>
	</g>
	<g class="st3">
		<path class="st4" d="M28.7,80.8h0.5v0.7l0,0c0.2-0.5,0.7-0.8,1.2-0.8c0.7,0,1.2,0.4,1.2,1.4v3.8H31v-3.7c0-0.7-0.3-1-0.8-1
			c-0.6,0-1,0.5-1,1.3v3.4h-0.5V80.8z"/>
	</g>
	<g class="st3">
		<path class="st4" d="M33.9,85.6c0.6,0,1-0.6,1-2.2s-0.4-2.2-1-2.2s-1,0.6-1,2.2S33.3,85.6,33.9,85.6 M33.9,80.7
			c1,0,1.6,0.9,1.6,2.6c0,1.8-0.6,2.7-1.6,2.7c-1,0-1.6-0.9-1.6-2.7C32.3,81.6,32.9,80.7,33.9,80.7"/>
	</g>
	<g class="st3">
		<rect x="36.3" y="79.1" class="st4" width="0.5" height="6.8"/>
	</g>
	<g class="st3">
		<path class="st4" d="M40.1,82.9c0-1.3-0.3-1.7-1-1.7c-0.6,0-1,0.5-1,1.7H40.1z M40.6,84.2C40.6,85.3,40,86,39.2,86
			c-1,0-1.5-0.7-1.5-2.7c0-1.8,0.6-2.6,1.6-2.6c1,0,1.5,0.8,1.5,2.5v0.2h-2.5v0.2c0,1.5,0.5,1.9,1,1.9c0.5,0,0.9-0.4,1-1.3
			L40.6,84.2z"/>
	</g>
	<g class="st3">
		<polygon class="st4" points="41.1,80.8 41.6,80.8 42.6,85.3 42.6,85.3 43.6,80.8 44.1,80.8 42.9,85.9 42.3,85.9 		"/>
	</g>
	<g class="st3">
		<path class="st4" d="M44.7,80.8h0.5v3.6c0,0.8,0.2,1.1,0.8,1.1c0.5,0,1-0.5,1-1.3v-3.4h0.5v5.1H47v-0.7l0,0
			c-0.2,0.5-0.7,0.8-1.2,0.8c-0.7,0-1.2-0.4-1.2-1.4L44.7,80.8z"/>
	</g>
	<g class="st3">
		<rect x="48.5" y="79.1" class="st4" width="0.5" height="6.8"/>
	</g>
	<g class="st3">
		<path class="st4" d="M50.1,80.8h0.5v5.1h-0.5V80.8z M50.1,79.1h0.5v1h-0.5V79.1z"/>
	</g>
	<g class="st3">
		<path class="st4" d="M51.7,80.8h0.5v0.7l0,0c0.2-0.5,0.6-0.8,1.2-0.8c0.7,0,1.2,0.4,1.2,1.4v3.8H54v-3.7c0-0.7-0.3-1-0.8-1
			c-0.6,0-1,0.5-1,1.3v3.4h-0.5L51.7,80.8z"/>
	</g>
	<g class="st3">
		<path class="st4" d="M55.5,80.8H56v5.1h-0.5V80.8z M55.5,79.1H56v1h-0.5V79.1z"/>
	</g>
	<g class="st3">
		<path class="st4" d="M59.8,84.2c-0.1,1.1-0.6,1.8-1.5,1.8c-1,0-1.5-0.7-1.5-2.7c0-1.8,0.6-2.6,1.6-2.6c0.9,0,1.4,0.6,1.4,1.6h-0.5
			c-0.1-0.8-0.3-1.1-0.9-1.1s-1,0.4-1,2.2c0,1.9,0.5,2.2,1,2.2s0.9-0.4,0.9-1.3L59.8,84.2z"/>
	</g>
	<g class="st3">
		<path class="st4" d="M64.7,83.1L64.7,83.1c-0.1,0.2-0.3,0.3-0.6,0.3l-0.4,0.1c-0.5,0.1-0.8,0.5-0.8,1.1c0,0.6,0.3,1,0.7,1
			c0.6,0,1.1-0.5,1.1-1.4L64.7,83.1z M62.5,82.4c0-1,0.4-1.6,1.4-1.6c1,0,1.3,0.5,1.3,1.3v3c0,0.3,0.1,0.4,0.3,0.4h0.1v0.4
			c-0.1,0-0.2,0.1-0.2,0.1c-0.4,0-0.7-0.1-0.7-0.6v-0.2l0,0c-0.1,0.5-0.6,0.9-1.2,0.9c-0.8,0-1.2-0.6-1.2-1.4
			c-0.1-0.6,0.3-1.2,0.9-1.4l1-0.3c0.4-0.1,0.4-0.2,0.4-0.8c0-0.6-0.3-0.9-0.8-0.9c-0.6,0-0.9,0.4-0.9,1.1L62.5,82.4z"/>
	</g>
	<g class="st3">
		<path class="st4" d="M69.1,84.2C69,85.3,68.5,86,67.6,86c-1,0-1.5-0.7-1.5-2.7c0-1.8,0.6-2.6,1.6-2.6c0.9,0,1.4,0.6,1.4,1.6h-0.5
			c-0.1-0.8-0.3-1.1-0.9-1.1c-0.6,0-1,0.4-1,2.2c0,1.9,0.5,2.2,1,2.2s0.9-0.4,0.9-1.3L69.1,84.2z"/>
	</g>
	<g class="st3">
		<path class="st4" d="M69.8,80.8h0.5v5.1h-0.5V80.8z M69.8,79.1h0.5v1h-0.5V79.1z"/>
	</g>
	<g class="st3">
		<path class="st4" d="M72.8,85.6c0.5,0,1-0.3,1-2.2s-0.5-2.2-1-2.2s-1,0.3-1,2.2S72.2,85.6,72.8,85.6 M73.8,85.1L73.8,85.1
			c-0.1,0.5-0.6,0.9-1.1,1c-1,0-1.5-0.9-1.5-2.7s0.4-2.6,1.4-2.6c0.5,0,1,0.4,1.1,0.9l0,0v-2.5h0.5v6.8h-0.5L73.8,85.1z"/>
	</g>
	<g class="st3">
		<polygon class="st4" points="80.2,82.5 77.8,82.5 77.8,85.9 77.3,85.9 77.3,79.1 77.8,79.1 77.8,82 80.2,82 80.2,79.1 80.8,79.1 
			80.8,85.9 80.2,85.9 		"/>
	</g>
	<g class="st3">
		<path class="st4" d="M85.5,83.6c-0.1,1.6-0.7,2.4-1.8,2.4c-1.3,0-2-1.1-2-3.5c0-2.4,0.7-3.5,2-3.5c1.3,0,1.8,1,1.8,2.1h-0.6
			c0-0.9-0.4-1.6-1.2-1.6c-0.9,0-1.4,0.8-1.4,3c0,2.2,0.5,3,1.4,3c0.8,0,1.2-0.7,1.3-1.9L85.5,83.6z"/>
	</g>
	<g class="st3">
		<rect x="86.2" y="79.1" class="st4" width="0.6" height="6.8"/>
	</g>
	<g class="st3">
		<path class="st4" d="M87.2,87.7c1.3-2.7,1.3-5.9,0-8.6h0.4c1.5,2.7,1.5,5.9,0,8.6H87.2z"/>
	</g>
	<g class="st3">
		<path class="st4" d="M15.9,91.4h-0.6v-0.5h0.6v-0.6c0-0.7,0.1-1.2,1-1.2c0.1,0,0.2,0,0.3,0v0.5c-0.1,0-0.2,0-0.2,0
			c-0.4,0-0.6,0.2-0.6,0.7v0.6h0.8v0.5h-0.8V96h-0.5V91.4z"/>
	</g>
	<g class="st3">
		<path class="st4" d="M19.1,95.6c0.6,0,1-0.6,1-2.2c0-1.6-0.4-2.2-1-2.2c-0.6,0-1,0.6-1,2.2C18.1,95,18.5,95.6,19.1,95.6
			 M19.1,90.7c1,0,1.6,0.9,1.6,2.6c0,1.8-0.6,2.7-1.6,2.7c-1,0-1.6-0.9-1.6-2.7C17.5,91.6,18.1,90.7,19.1,90.7"/>
	</g>
	<g class="st3">
		<path class="st4" d="M21.4,90.9h0.5v0.8l0,0c0.1-0.5,0.6-0.9,1.2-0.9c0.1,0,0.1,0,0.2,0v0.6c-0.1,0-0.2,0-0.2,0
			c-0.6,0-1.1,0.5-1.1,1.4v3.2h-0.5V90.9z"/>
	</g>
	<g class="st3">
		<path class="st4" d="M30.1,95.6c0.6,0,1-0.6,1-2.2c0-1.6-0.4-2.2-1-2.2c-0.6,0-1,0.5-1,2.2C29.1,95,29.5,95.6,30.1,95.6
			 M30.1,90.8c1,0,1.6,0.9,1.6,2.6c0,1.8-0.6,2.7-1.6,2.7s-1.6-0.9-1.6-2.7C28.5,91.6,29.1,90.8,30.1,90.8"/>
	</g>
	<g class="st3">
		<path class="st4" d="M33.9,91.2c-0.3,0-0.6,0.2-0.7,0.4c-0.2,0.4-0.3,0.9-0.3,1.7c0,1.9,0.5,2.2,1,2.2c0.5,0,1-0.3,1-2.2
			S34.4,91.2,33.9,91.2 M32.4,90.9h0.5v0.7h0c0.1-0.5,0.6-0.8,1.1-0.8c1,0,1.5,0.9,1.5,2.7S35,96.1,34,96.1c-0.5,0-1-0.4-1.1-0.9
			l0,0v2.5h-0.5L32.4,90.9z"/>
	</g>
	<g class="st3">
		<path class="st4" d="M36.3,90.9h0.5v5.1h-0.5V90.9z M36.3,89.1h0.5v1h-0.5V89.1z"/>
	</g>
	<g class="st3">
		<path class="st4" d="M40.6,94.3c-0.1,1.1-0.6,1.8-1.5,1.8c-1,0-1.5-0.7-1.5-2.7c0-1.8,0.6-2.6,1.6-2.6c0.9,0,1.4,0.6,1.4,1.6H40
			c-0.1-0.8-0.3-1.1-0.9-1.1c-0.6,0-1,0.4-1,2.2c0,1.9,0.5,2.2,1,2.2c0.5,0,0.9-0.4,0.9-1.3L40.6,94.3z"/>
	</g>
	<g class="st3">
		<path class="st4" d="M43.4,93.1L43.4,93.1c-0.1,0.2-0.3,0.3-0.6,0.3l-0.4,0.1c-0.5,0.1-0.8,0.5-0.8,1.1c0,0.6,0.3,1,0.7,1
			c0.6,0,1.1-0.5,1.1-1.4L43.4,93.1z M41.2,92.4c0-1,0.4-1.6,1.4-1.6c1,0,1.3,0.5,1.3,1.3v3c0,0.3,0.1,0.4,0.3,0.4h0.1v0.4
			c-0.1,0-0.2,0.1-0.2,0.1c-0.4,0-0.7-0.1-0.7-0.6v-0.2l0,0c-0.1,0.5-0.6,0.9-1.2,0.9c-0.8,0-1.2-0.6-1.2-1.4
			C41,94,41.4,93.4,42,93.2l1-0.3c0.4-0.1,0.4-0.2,0.4-0.8s-0.3-0.9-0.8-0.9c-0.6,0-0.9,0.4-0.9,1.1L41.2,92.4z"/>
	</g>
	<g class="st3">
		<rect x="45" y="89.1" class="st4" width="0.5" height="6.8"/>
	</g>
	<g class="st3">
		<path class="st4" d="M51.5,92.1c0-0.6-0.3-1-0.8-1c-0.5,0-0.9,0.4-0.9,0.8c0,0,0,0.1,0,0.1c0,1.5,2.2,0.7,2.2,2.5
			c0,1-0.6,1.5-1.4,1.5c-0.8,0-1.3-0.5-1.3-1.5v-0.2h0.4v0.2c0,0.7,0.3,1.1,0.9,1.1c0.5,0,1-0.3,1-0.8c0-0.1,0-0.1,0-0.2
			c0-1.5-2.2-0.7-2.2-2.5c-0.1-0.7,0.4-1.3,1.1-1.4c0.1,0,0.1,0,0.2,0c0.9,0,1.3,0.5,1.3,1.4H51.5z"/>
	</g>
	<g class="st3">
		<path class="st4" d="M54.1,95.6c0.6,0,1-0.6,1-2.2c0-1.6-0.4-2.2-1-2.2s-1,0.6-1,2.2C53.1,95,53.5,95.6,54.1,95.6 M54.1,90.7
			c1,0,1.6,0.9,1.6,2.6c0,1.8-0.6,2.7-1.6,2.7s-1.6-0.9-1.6-2.7C52.5,91.6,53.1,90.7,54.1,90.7"/>
	</g>
	<g class="st3">
		<rect x="56.5" y="89.1" class="st4" width="0.5" height="6.8"/>
	</g>
	<g class="st3">
		<path class="st4" d="M58,90.9h0.5v3.6c0,0.8,0.2,1.1,0.8,1.1c0.5,0,1-0.5,1-1.3v-3.4h0.5v5.1h-0.5v-0.7l0,0
			c-0.2,0.5-0.7,0.8-1.2,0.8c-0.7,0-1.2-0.4-1.2-1.4L58,90.9z"/>
	</g>
	<g class="st3">
		<path class="st4" d="M62,91.4h-0.6v-0.5H62v-1.4h0.5v1.4h0.8v0.5h-0.8V95c0,0.4,0.2,0.5,0.5,0.5c0.1,0,0.2,0,0.3-0.1v0.5
			C63.2,96,63.1,96,63,96c-0.7,0-1-0.2-1-0.9L62,91.4z"/>
	</g>
	<g class="st3">
		<path class="st4" d="M64,90.9h0.5v5.1H64V90.9z M64,89.1h0.5v1H64V89.1z"/>
	</g>
	<g class="st3">
		<path class="st4" d="M66.8,95.6c0.6,0,1-0.6,1-2.2c0-1.6-0.4-2.2-1-2.2s-1,0.5-1,2.2C65.8,95,66.3,95.6,66.8,95.6 M66.8,90.8
			c1,0,1.6,0.9,1.6,2.6c0,1.8-0.6,2.7-1.6,2.7c-1,0-1.6-0.9-1.6-2.7C65.3,91.6,65.8,90.8,66.8,90.8"/>
	</g>
	<g class="st3">
		<path class="st4" d="M69.2,90.9h0.5v0.7l0,0c0.2-0.5,0.7-0.8,1.2-0.8c0.7,0,1.2,0.4,1.2,1.4v3.8h-0.5v-3.7c0-0.7-0.3-1-0.8-1
			c-0.6,0-1,0.5-1,1.3v3.4h-0.5L69.2,90.9z"/>
	</g>
	<g class="st3">
		<path class="st4" d="M73.2,95h0.6v1c0,0.6-0.1,1.1-0.6,1.3v-0.4c0.2-0.2,0.3-0.4,0.3-0.9h-0.2V95z"/>
	</g>
	<g class="st3">
		<path class="st4" d="M76.7,91.3c0-1.3,0.6-2.1,1.7-2.1c0.8,0,1.6,0.5,1.6,1.8c0,0.8-0.2,1.4-1,2.1l-0.7,0.6c-0.6,0.6-1,1-1.1,1.7
			h2.8v0.5h-3.4c0-1.1,0.5-1.8,1.3-2.6l0.7-0.6c0.5-0.4,0.8-1,0.8-1.7c0-0.9-0.4-1.4-1.1-1.4c-0.7,0-1.1,0.5-1.1,1.6L76.7,91.3z"/>
	</g>
	<g class="st3">
		<path class="st4" d="M82.5,95.6c0.8,0,1.2-0.8,1.2-3c0-2.2-0.3-3-1.2-3c-0.8,0-1.2,0.8-1.2,3C81.3,94.8,81.7,95.6,82.5,95.6
			 M82.5,89.2c1.4,0,1.7,1.4,1.7,3.4s-0.3,3.4-1.7,3.4s-1.7-1.4-1.7-3.4C80.8,90.6,81.1,89.2,82.5,89.2"/>
	</g>
	<g class="st3">
		<path class="st4" d="M89.3,95.6c0.4,0,0.6-0.3,0.6-1.3S89.6,93,89.3,93c-0.4,0-0.6,0.3-0.6,1.3C88.6,95.3,88.9,95.6,89.3,95.6
			 M89.3,92.5c0.7,0,1.1,0.4,1.1,1.8s-0.4,1.8-1.1,1.8c-0.7,0-1.1-0.4-1.1-1.8S88.6,92.5,89.3,92.5 M88.8,89.2h0.4l-2.6,6.9h-0.4
			L88.8,89.2z M86.1,92.3c0.4,0,0.6-0.3,0.6-1.3s-0.2-1.3-0.6-1.3s-0.6,0.3-0.6,1.3C85.5,91.9,85.8,92.3,86.1,92.3 M86.1,89.2
			c0.7,0,1.1,0.4,1.1,1.8s-0.4,1.8-1.1,1.8S85,92.3,85,90.9S85.4,89.2,86.1,89.2"/>
	</g>
	<g class="st3">
		<path class="st4" d="M27,91.4h-0.6v-0.5H27v-1.4h0.5v1.4h0.8v0.5h-0.8V95c0,0.4,0.2,0.5,0.5,0.5c0.1,0,0.2,0,0.3-0.1V96
			C28.2,96,28,96,27.9,96c-0.7,0-1-0.2-1-0.9V91.4z"/>
	</g>
	<g class="st3">
		<path class="st4" d="M135.5,70.4h1c1,0,1.4-0.5,1.4-1.4c0-0.9-0.5-1.4-1.4-1.4h-1V70.4z M135.5,67.1h0.9c0.9,0,1.4-0.5,1.4-1.2
			c0-0.9-0.4-1.2-1.3-1.2h-1L135.5,67.1z M134.9,64.1h1.7c1.2,0,1.7,0.7,1.7,1.7c0.1,0.7-0.3,1.3-1,1.5v0c0.8,0.2,1.1,0.8,1.1,1.7
			c0,1.2-0.7,1.9-1.9,1.9h-1.7V64.1z"/>
	</g>
	<g class="st3">
		<rect x="139.3" y="64.1" class="st4" width="0.5" height="6.8"/>
	</g>
	<g class="st3">
		<path class="st4" d="M140.8,65.8h0.5v3.6c0,0.8,0.2,1.1,0.8,1.1c0.5,0,1-0.5,1-1.3v-3.4h0.5v5.1h-0.5v-0.7l0,0
			c-0.2,0.5-0.7,0.8-1.2,0.8c-0.7,0-1.2-0.4-1.2-1.4L140.8,65.8z"/>
	</g>
	<g class="st3">
		<path class="st4" d="M147,67.9c0-1.3-0.3-1.7-1-1.7c-0.6,0-1,0.5-1,1.7H147z M147.5,69.2c-0.1,1.1-0.6,1.8-1.5,1.8
			c-1,0-1.5-0.7-1.5-2.7c0-1.8,0.6-2.6,1.6-2.6s1.5,0.8,1.5,2.5v0.2H145v0.2c0,1.5,0.5,1.9,1,1.9s0.9-0.4,1-1.3L147.5,69.2z"/>
	</g>
	<g class="st3">
		<polygon class="st4" points="150.4,64.1 150.9,64.1 150.9,70.4 153.5,70.4 153.5,70.9 150.4,70.9 		"/>
	</g>
	<g class="st3">
		<path class="st4" d="M154.1,65.8h0.5v5.1h-0.5V65.8z M154.1,64.1h0.5v1h-0.5V64.1z"/>
	</g>
	<g class="st3">
		<path class="st4" d="M157,70.4c0.6,0,1-0.5,1-2.1c0-1.6-0.4-2.1-1-2.1c-0.6,0-1,0.5-1,2.1C156,69.9,156.4,70.4,157,70.4 M158,65.8
			h0.5v4.7c0,1.4-0.5,2.1-1.5,2.1c-0.9,0-1.4-0.5-1.4-1.2h0.6c0,0.4,0.4,0.8,0.8,0.8c0,0,0,0,0,0c0.6,0,1-0.5,1-1.4V70l0,0
			c-0.1,0.5-0.6,0.9-1.1,0.9c-0.7,0-1.4-0.5-1.4-2.5c0-1.8,0.5-2.6,1.5-2.6c0.5,0,1,0.4,1.1,0.9l0,0V65.8z"/>
	</g>
	<g class="st3">
		<path class="st4" d="M159.5,64.1h0.5v2.5h0c0.1-0.5,0.6-0.8,1.1-0.8c0.7,0,1.2,0.4,1.2,1.4v3.8h-0.5v-3.7c0-0.7-0.3-1-0.8-1
			c-0.6,0-1,0.5-1,1.3v3.4h-0.5L159.5,64.1z"/>
	</g>
	<g class="st3">
		<path class="st4" d="M163.5,66.3h-0.6v-0.5h0.6v-1.4h0.5v1.4h0.8v0.5h-0.8V70c0,0.4,0.2,0.5,0.5,0.5c0.1,0,0.2,0,0.3-0.1v0.5
			c-0.1,0-0.2,0.1-0.4,0.1c-0.7,0-1-0.2-1-0.9V66.3z"/>
	</g>
	<g class="st3">
		<path class="st4" d="M168,67.4h0.9c0.7,0,1.3-0.4,1.3-1.4c0-1.1-0.5-1.4-1.3-1.4H168V67.4z M167.5,64.1h1.7c1.2,0,1.7,0.8,1.7,1.9
			c0,1.1-0.5,1.9-1.9,1.9H168v3h-0.6V64.1z"/>
	</g>
	<g class="st3">
		<path class="st4" d="M171.6,64.1h0.5v2.5l0,0c0.1-0.5,0.6-0.8,1.1-0.8c0.7,0,1.2,0.4,1.2,1.4v3.8h-0.5v-3.7c0-0.7-0.3-1-0.8-1
			c-0.6,0-1,0.5-1,1.3v3.4h-0.5V64.1z"/>
	</g>
	<g class="st3">
		<path class="st4" d="M176.8,70.6c0.6,0,1-0.6,1-2.2c0-1.6-0.4-2.2-1-2.2c-0.6,0-1,0.6-1,2.2C175.8,70,176.2,70.6,176.8,70.6
			 M176.8,65.7c1,0,1.6,0.9,1.6,2.6c0,1.8-0.6,2.7-1.6,2.7c-1,0-1.6-0.9-1.6-2.7C175.2,66.6,175.8,65.7,176.8,65.7"/>
	</g>
	<g class="st3">
		<path class="st4" d="M179.3,66.3h-0.6v-0.5h0.6v-1.4h0.5v1.4h0.8v0.5h-0.8V70c0,0.4,0.2,0.5,0.5,0.5c0.1,0,0.2,0,0.3-0.1v0.5
			c-0.1,0-0.2,0.1-0.4,0.1c-0.7,0-1-0.2-1-0.9L179.3,66.3z"/>
	</g>
	<g class="st3">
		<path class="st4" d="M182.5,70.6c0.6,0,1-0.6,1-2.2c0-1.6-0.4-2.2-1-2.2c-0.6,0-1,0.6-1,2.2C181.5,70,181.9,70.6,182.5,70.6
			 M182.5,65.7c1,0,1.6,0.9,1.6,2.6c0,1.8-0.6,2.7-1.6,2.7c-1,0-1.6-0.9-1.6-2.7C181,66.6,181.5,65.7,182.5,65.7"/>
	</g>
	<g class="st3">
		<path class="st4" d="M186.2,70.6c0.5,0,1-0.3,1-2.2c0-1.9-0.5-2.2-1-2.2c-0.5,0-1,0.3-1,2.2S185.7,70.6,186.2,70.6 M187.3,70.1
			L187.3,70.1c-0.1,0.5-0.6,1-1.1,1c-1,0-1.5-0.9-1.5-2.7c0-1.8,0.5-2.6,1.5-2.6c0.5,0,1,0.4,1.1,0.9l0,0v-2.5h0.5v6.8h-0.5V70.1z"
			/>
	</g>
	<g class="st3">
		<path class="st4" d="M188.3,65.8h0.6l1,4.4l0,0l0.9-4.4h0.6l-1.4,5.5c-0.2,1-0.5,1.3-1.2,1.3c-0.1,0-0.2,0-0.3,0v-0.5
			c0.1,0,0.2,0,0.3,0c0.3,0,0.5-0.1,0.7-0.7l0.1-0.5L188.3,65.8z"/>
	</g>
	<g class="st3">
		<path class="st4" d="M191.9,65.8h0.5v0.7l0,0c0.2-0.5,0.7-0.8,1.2-0.8c0.7,0,1.2,0.4,1.2,1.4v3.8h-0.5v-3.7c0-0.7-0.3-1-0.8-1
			c-0.6,0-1,0.5-1,1.3v3.4h-0.5L191.9,65.8z"/>
	</g>
	<g class="st3">
		<path class="st4" d="M197.8,68.1L197.8,68.1c-0.1,0.2-0.4,0.3-0.6,0.3l-0.4,0.1c-0.5,0.1-0.8,0.6-0.8,1.1c0,0.6,0.3,1,0.7,1
			c0.6,0,1.1-0.5,1.1-1.4V68.1z M195.6,67.4c0-1,0.4-1.6,1.4-1.6s1.3,0.5,1.3,1.3v3c0,0.3,0.1,0.4,0.3,0.4h0.1v0.4
			c-0.1,0-0.2,0.1-0.2,0.1c-0.4,0-0.7-0.1-0.7-0.6v-0.2l0,0c-0.1,0.5-0.6,0.9-1.2,0.9c-0.8,0-1.2-0.6-1.2-1.4
			c-0.1-0.6,0.3-1.2,0.9-1.4l1-0.3c0.4-0.1,0.4-0.2,0.4-0.8c0-0.6-0.3-0.9-0.8-0.9c-0.6,0-0.9,0.4-0.9,1.1L195.6,67.4z"/>
	</g>
	<g class="st3">
		<path class="st4" d="M199.4,65.8h0.5v0.7l0,0c0.2-0.5,0.6-0.8,1.2-0.8c0.5,0,0.9,0.4,1,0.9l0,0c0.1-0.5,0.6-0.9,1.2-0.9
			c0.6,0,1.1,0.4,1.1,1.3v3.9h-0.5v-3.8c0-0.6-0.2-0.9-0.7-0.9s-0.9,0.5-0.9,1.3v3.4h-0.5v-3.8c0-0.6-0.2-0.9-0.7-0.9
			c-0.5,0-0.9,0.5-0.9,1.3v3.4h-0.5L199.4,65.8z"/>
	</g>
	<g class="st3">
		<path class="st4" d="M205.3,65.8h0.5v5.1h-0.5V65.8z M205.3,64.1h0.5v1h-0.5V64.1z"/>
	</g>
	<g class="st3">
		<path class="st4" d="M209.6,69.2c-0.1,1.1-0.6,1.8-1.5,1.8c-1,0-1.5-0.7-1.5-2.7c0-1.8,0.6-2.6,1.6-2.6c0.9,0,1.4,0.6,1.4,1.6
			h-0.5c-0.1-0.8-0.3-1.1-0.9-1.1s-1,0.4-1,2.2c0,1.9,0.5,2.2,1,2.2s0.9-0.4,0.9-1.3L209.6,69.2z"/>
	</g>
	<g class="st3">
		<polygon class="st4" points="213.3,64.6 211.7,64.6 211.7,64.1 215.4,64.1 215.4,64.6 213.8,64.6 213.8,70.9 213.3,70.9 		"/>
	</g>
	<g class="st3">
		<path class="st4" d="M216,64.1h0.5v2.5l0,0c0.1-0.5,0.6-0.8,1.1-0.8c0.7,0,1.2,0.4,1.2,1.4v3.8h-0.5v-3.7c0-0.7-0.3-1-0.8-1
			c-0.6,0-1,0.5-1,1.3v3.4H216L216,64.1z"/>
	</g>
	<g class="st3">
		<path class="st4" d="M222.1,67.9c0-1.3-0.3-1.7-1-1.7s-1,0.5-1,1.7H222.1z M222.6,69.2c-0.1,1.1-0.6,1.8-1.5,1.8
			c-1,0-1.5-0.7-1.5-2.7c0-1.8,0.6-2.6,1.6-2.6s1.5,0.8,1.5,2.5v0.2h-2.5v0.2c0,1.5,0.5,1.9,1,1.9s0.9-0.4,1-1.3L222.6,69.2z"/>
	</g>
	<g class="st3">
		<path class="st4" d="M223.5,65.8h0.5v0.8l0,0c0.1-0.5,0.6-0.9,1.2-0.9c0.1,0,0.1,0,0.2,0v0.6c-0.1,0-0.2,0-0.2,0
			c-0.6,0-1.1,0.5-1.1,1.4v3.2h-0.5L223.5,65.8z"/>
	</g>
	<g class="st3">
		<path class="st4" d="M228,68.1L228,68.1c-0.1,0.2-0.3,0.3-0.6,0.3l-0.4,0.1c-0.5,0.1-0.8,0.6-0.8,1.1c0,0.6,0.3,1,0.7,1
			c0.6,0,1.1-0.5,1.1-1.4L228,68.1z M225.8,67.4c0-1,0.4-1.6,1.4-1.6s1.3,0.5,1.3,1.3v3c0,0.3,0.1,0.4,0.3,0.4h0.1v0.4
			c-0.1,0-0.2,0.1-0.2,0.1c-0.4,0-0.7-0.1-0.7-0.6v-0.2l0,0c-0.1,0.5-0.6,0.9-1.2,0.9c-0.8,0-1.2-0.6-1.2-1.4
			c-0.1-0.6,0.3-1.2,0.9-1.4l1-0.3c0.4-0.1,0.4-0.2,0.4-0.8c0-0.6-0.3-0.9-0.8-0.9c-0.6,0-0.9,0.4-0.9,1.1L225.8,67.4z"/>
	</g>
	<g class="st3">
		<path class="st4" d="M231,66.2c-0.3,0-0.6,0.2-0.7,0.4c-0.2,0.4-0.3,0.9-0.3,1.7c0,1.9,0.5,2.2,1,2.2s1-0.3,1-2.2
			C232,66.5,231.5,66.2,231,66.2 M229.5,65.8h0.5v0.7l0,0c0.1-0.5,0.6-0.8,1.1-0.8c1,0,1.5,0.9,1.5,2.7c0,1.8-0.5,2.7-1.5,2.7
			c-0.5,0-1-0.4-1.1-0.9h0v2.5h-0.5L229.5,65.8z"/>
	</g>
	<g class="st3">
		<path class="st4" d="M232.9,65.8h0.6l1,4.4l0,0l0.9-4.4h0.6l-1.3,5.5c-0.2,1-0.5,1.3-1.2,1.3c-0.1,0-0.2,0-0.3,0v-0.5
			c0.1,0,0.2,0,0.3,0c0.3,0,0.5-0.1,0.7-0.7l0.1-0.5L232.9,65.8z"/>
	</g>
	<g class="st3">
		<rect x="135" y="74.1" class="st4" width="0.6" height="6.8"/>
	</g>
	<g class="st3">
		<rect x="136.6" y="74.1" class="st4" width="0.5" height="6.8"/>
	</g>
	<g class="st3">
		<rect x="138.2" y="74.1" class="st4" width="0.5" height="6.8"/>
	</g>
	<g class="st3">
		<path class="st4" d="M139.7,75.9h0.5v3.6c0,0.8,0.2,1.1,0.8,1.1c0.5,0,1-0.5,1-1.3v-3.4h0.5V81h-0.5v-0.7l0,0
			c-0.2,0.5-0.7,0.8-1.2,0.8c-0.7,0-1.2-0.4-1.2-1.4L139.7,75.9z"/>
	</g>
	<g class="st3">
		<path class="st4" d="M143.6,75.9h0.5v0.7l0,0c0.2-0.5,0.6-0.8,1.2-0.8c0.5,0,0.9,0.4,1,0.9l0,0c0.1-0.5,0.6-0.9,1.2-0.9
			c0.6,0,1.1,0.4,1.1,1.3v3.9h-0.5v-3.8c0-0.6-0.2-0.9-0.7-0.9s-0.9,0.5-0.9,1.3v3.4h-0.5v-3.8c0-0.6-0.2-0.9-0.7-0.9
			s-0.9,0.5-0.9,1.3v3.4h-0.5L143.6,75.9z"/>
	</g>
	<g class="st3">
		<path class="st4" d="M149.5,75.9h0.5V81h-0.5V75.9z M149.5,74.1h0.5v1h-0.5V74.1z"/>
	</g>
	<g class="st3">
		<path class="st4" d="M151,75.9h0.5v0.7h0c0.2-0.5,0.6-0.8,1.2-0.8c0.7,0,1.2,0.4,1.2,1.4V81h-0.5v-3.7c0-0.7-0.3-1-0.8-1
			c-0.6,0-1,0.5-1,1.3V81H151L151,75.9z"/>
	</g>
	<g class="st3">
		<path class="st4" d="M157,78.1L157,78.1c-0.1,0.2-0.3,0.3-0.6,0.3l-0.4,0.1c-0.5,0.1-0.8,0.6-0.8,1.1c0,0.6,0.3,1,0.7,1
			c0.6,0,1.1-0.5,1.1-1.4L157,78.1z M154.8,77.4c0-1,0.4-1.6,1.4-1.6s1.3,0.5,1.3,1.3v3c0,0.3,0.1,0.4,0.3,0.4h0.1v0.4
			c-0.1,0-0.2,0.1-0.2,0.1c-0.4,0-0.7-0.1-0.7-0.6v-0.2l0,0c-0.1,0.6-0.6,1-1.2,0.9c-0.8,0-1.2-0.6-1.2-1.4
			c-0.1-0.6,0.3-1.2,0.9-1.4l1-0.3c0.4-0.1,0.4-0.2,0.4-0.8c0-0.6-0.3-0.9-0.8-0.9c-0.6,0-0.9,0.4-0.9,1.1L154.8,77.4z"/>
	</g>
	<g class="st3">
		<path class="st4" d="M158.7,76.4h-0.6v-0.5h0.6v-1.4h0.5v1.4h0.8v0.5h-0.8V80c0,0.4,0.2,0.5,0.5,0.5c0.1,0,0.2,0,0.3-0.1V81
			c-0.1,0-0.2,0.1-0.4,0.1c-0.7,0-1-0.2-1-0.9V76.4z"/>
	</g>
	<g class="st3">
		<path class="st4" d="M161.9,80.6c0.6,0,1-0.6,1-2.2c0-1.6-0.4-2.2-1-2.2s-1,0.6-1,2.2C160.9,80,161.4,80.6,161.9,80.6 M161.9,75.8
			c1,0,1.6,0.9,1.6,2.7c0,1.8-0.6,2.7-1.6,2.7s-1.6-0.9-1.6-2.7C160.4,76.6,160.9,75.8,161.9,75.8"/>
	</g>
	<g class="st3">
		<path class="st4" d="M164.3,75.9h0.5v0.8l0,0c0.1-0.5,0.6-0.9,1.2-0.9c0.1,0,0.1,0,0.2,0v0.6c-0.1,0-0.2,0-0.3,0
			c-0.6,0-1.1,0.5-1.1,1.4V81h-0.5L164.3,75.9z"/>
	</g>
	<g class="st3">
		<polygon class="st4" points="168.8,74.1 169.7,74.1 171.2,80.2 171.2,80.2 172.7,74.1 173.6,74.1 173.6,81 173.1,81 173.1,74.7 
			173.1,74.7 171.5,81 170.9,81 169.4,74.7 169.3,74.7 169.3,81 168.8,81 		"/>
	</g>
	<g class="st3">
		<path class="st4" d="M176,80.6c0.6,0,1-0.6,1-2.2c0-1.6-0.4-2.2-1-2.2s-1,0.6-1,2.2C175,80,175.4,80.6,176,80.6 M176,75.8
			c1,0,1.6,0.9,1.6,2.7s-0.6,2.7-1.6,2.7c-1,0-1.6-0.9-1.6-2.7C174.4,76.6,175,75.8,176,75.8"/>
	</g>
	<g class="st3">
		<path class="st4" d="M179.7,80.6c0.5,0,1-0.3,1-2.2c0-1.9-0.5-2.2-1-2.2c-0.5,0-1,0.3-1,2.2C178.7,80.3,179.2,80.6,179.7,80.6
			 M180.8,80.1L180.8,80.1c-0.1,0.5-0.6,0.9-1.1,1c-1,0-1.5-0.9-1.5-2.7c0-1.8,0.5-2.7,1.5-2.7c0.5,0,1,0.4,1.1,0.9h0v-2.5h0.5V81
			h-0.5V80.1z"/>
	</g>
	<g class="st3">
		<path class="st4" d="M184.5,78c0-1.3-0.3-1.7-1-1.7c-0.6,0-1,0.5-1,1.7H184.5z M185,79.3c-0.1,1.1-0.6,1.8-1.5,1.8
			c-1,0-1.5-0.7-1.5-2.7c0-1.8,0.6-2.7,1.6-2.7s1.5,0.8,1.5,2.5v0.2h-2.5v0.3c0,1.5,0.5,1.9,1,1.9c0.5,0,0.9-0.4,1-1.3L185,79.3z"/>
	</g>
	<g class="st3">
		<rect x="185.9" y="74.1" class="st4" width="0.5" height="6.8"/>
	</g>
	<g class="st3">
		<path class="st4" d="M191.6,78.7v-3.5l0,0l-1.9,3.5H191.6z M191.6,79.2h-2.4v-0.6l2.4-4.5h0.5v4.5h0.7v0.5h-0.7V81h-0.5
			L191.6,79.2z"/>
	</g>
	<g class="st3">
		<path class="st4" d="M195.1,75.8h-1.4v-0.4c1,0,1.5-0.5,1.5-1.2h0.4V81h-0.5L195.1,75.8z"/>
	</g>
	<g class="st3">
		<path class="st4" d="M197.6,74.3h3.4v0.5c-1.2,1.8-2,3.9-2.2,6.1h-0.6c0.2-2.2,1-4.3,2.3-6.1h-2.9L197.6,74.3z"/>
	</g>
	<g class="st3">
		<path class="st4" d="M203.5,80.6c0.8,0,1.2-0.8,1.2-3s-0.3-3-1.2-3c-0.8,0-1.2,0.8-1.2,3S202.6,80.6,203.5,80.6 M203.5,74.2
			c1.4,0,1.7,1.4,1.7,3.5c0,2-0.3,3.4-1.7,3.4c-1.4,0-1.7-1.4-1.7-3.4C201.8,75.6,202.1,74.2,203.5,74.2"/>
	</g>
</g>
</svg>
