<svg width="243" height="144" viewBox="0 0 243 144" fill="none" xmlns="http://www.w3.org/2000/svg">
<path d="M0 6C0 2.68629 2.68629 0 6 0H237C240.314 0 243 2.68629 243 6V138C243 141.314 240.314 144 237 144H6C2.68629 144 0 141.314 0 138V6Z" fill="white"/>
<path d="M105.551 50.1372C105.07 49.2197 104.459 48.477 103.803 47.909C102.929 48.2586 102.012 48.3896 101.095 48.1712C100.483 48.0401 99.9149 47.778 99.4343 47.3848C98.3857 48.6081 98.3857 51.0984 99.6091 53.545C100.701 55.7295 102.449 57.1713 103.978 57.3461C103.148 54.5062 103.672 51.6664 105.551 50.1372Z" fill="#308B76"/>
<path d="M147.013 26.7628C145.964 24.2724 143.692 22.8744 141.857 23.6171C140.022 24.3598 139.411 26.9812 140.416 29.4715C141.464 31.9619 143.78 33.3599 145.571 32.6172C147.362 31.8745 148.018 29.2531 147.013 26.7628Z" fill="#308B76"/>
<path d="M115.818 53.3263C116.648 54.5059 117.216 55.7292 117.522 56.9962C118.09 56.8651 118.571 56.603 119.051 56.2535C121.629 54.2874 121.542 49.8311 118.876 46.3359C116.211 42.797 111.93 41.53 109.352 43.496C107.735 44.7193 107.168 46.8601 107.604 49.1757C110.313 48.6951 113.634 50.268 115.818 53.3263Z" fill="#308B76"/>
<path d="M104.065 34.5398C104.721 34.6709 105.332 34.9767 105.857 35.4136C106.293 34.4087 106.599 33.4039 106.73 32.4864C106.424 31.4815 106.424 30.3893 106.687 29.297C106.424 28.3358 105.9 27.5931 105.157 27.2436C103.148 26.3261 100.177 28.5543 98.5166 32.1806C97.4243 34.6272 97.2059 37.0738 97.7739 38.734C98.9535 35.8068 101.531 33.9718 104.065 34.5398Z" fill="#308B76"/>
<path d="M149.547 46.7302C148.28 46.337 146.663 47.9098 146.008 50.2254C145.309 52.5409 145.789 54.7254 147.1 55.1187C148.367 55.5119 149.984 53.939 150.639 51.6235C151.338 49.3079 150.858 47.1234 149.547 46.7302Z" fill="#308B76"/>
<path d="M119.007 60.0109C118.614 59.8798 118.221 59.7925 117.784 59.7051C117.697 61.4964 116.998 63.0255 115.643 63.9867C114.464 64.8168 113.022 65.0353 111.493 64.7294C112.541 66.0401 114.376 67.2197 116.648 67.8751C120.58 69.0547 124.294 68.2246 124.949 66.0401C125.605 63.8556 122.939 61.1468 119.007 60.0109Z" fill="#308B76"/>
<path d="M121.41 22.438C121.978 21.2584 122.109 20.0351 121.716 18.8992C120.711 16.1467 116.866 15.0981 113.153 16.4525C109.439 17.8506 107.211 21.171 108.216 23.8798C108.391 24.3167 108.653 24.7099 108.959 25.0594C109.57 24.3604 110.313 23.705 111.143 23.1371C114.726 20.6904 118.964 20.472 121.41 22.438Z" fill="#308B76"/>
<path d="M139.454 59.8359C137.663 61.8456 136.964 64.1612 137.881 64.9913C138.843 65.8214 141.027 64.9039 142.862 62.8942C144.653 60.8844 145.352 58.5689 144.435 57.7387C143.474 56.9086 141.289 57.8261 139.454 59.8359Z" fill="#308B76"/>
<path d="M132.944 36.3311C134.91 35.9816 136.658 34.5835 137.27 32.5301C138.1 29.6466 136.483 26.632 133.6 25.7582C130.935 24.9718 128.138 26.3261 127.09 28.8602C130.367 30.0398 132.595 33.0107 132.944 36.3311Z" fill="#C4D82E"/>
<path d="M127.527 50.7482C124.731 52.8454 123.769 56.2969 125.386 58.4377C127.003 60.6222 130.585 60.7096 133.381 58.6124C136.177 56.5153 137.139 53.0638 135.522 50.923C133.906 48.7385 130.323 48.6511 127.527 50.7482Z" fill="#C4D82E"/>
<path d="M142.469 40.6565C140.416 40.0448 138.144 41.6614 137.357 44.3265C136.571 46.9479 137.576 49.5693 139.629 50.1809C141.683 50.7926 143.954 49.1324 144.741 46.511C145.527 43.8896 144.522 41.2682 142.469 40.6565Z" fill="#C4D82E"/>
<path d="M147.144 39.0406C147.362 40.8319 148.367 42.1426 149.328 42.0115C150.333 41.8805 150.945 40.3513 150.726 38.56C150.508 36.7687 149.503 35.458 148.542 35.5891C147.537 35.7202 146.925 37.2493 147.144 39.0406Z" fill="#C4D82E"/>
<path d="M130.104 64.2044C127.92 64.7287 126.391 66.1704 126.697 67.3938C127.002 68.6171 129.012 69.1414 131.153 68.6171C133.338 68.0928 134.867 66.651 134.561 65.4277C134.299 64.2044 132.289 63.6801 130.104 64.2044Z" fill="#C4D82E"/>
<path d="M100.09 46.9045C101.138 46.3802 102.536 46.8171 103.803 47.9094C105.726 47.123 107.299 45.1132 107.867 42.4918C108.478 39.5646 107.604 36.8121 105.813 35.4141C105.813 35.4578 105.813 35.4578 105.769 35.5014C104.109 39.1714 101.138 41.3559 99.1286 40.4384C98.4733 40.1326 97.9927 39.5209 97.7305 38.7345C97.5558 39.2151 97.381 39.7394 97.2499 40.2636C96.5946 43.2346 97.5558 46.0744 99.4344 47.4725C99.6529 47.2103 99.8713 47.0356 100.09 46.9045Z" fill="#C4D82E"/>
<path d="M103.803 47.9093C102.536 46.7733 101.138 46.3364 100.089 46.9044C99.8273 47.0355 99.6088 47.2102 99.4341 47.4287C99.9147 47.7782 100.483 48.0403 101.094 48.1714C102.055 48.3899 102.973 48.2588 103.803 47.9093Z" fill="#007054"/>
<path d="M99.172 40.4382C101.182 41.3557 104.196 39.1275 105.813 35.5012C105.813 35.4575 105.813 35.4575 105.857 35.4138C105.332 34.9769 104.721 34.6711 104.065 34.54C101.531 34.0158 98.9536 35.807 97.7739 38.7343C98.0361 39.5207 98.5167 40.1323 99.172 40.4382Z" fill="#007054"/>
<path d="M106.73 32.4869C106.862 32.9675 107.08 33.4481 107.386 33.885C108.915 36.1132 112.104 36.8122 115.294 35.851C115.337 35.4578 115.425 35.1083 115.556 34.7151C116.604 31.1762 119.619 28.7733 123.07 28.3801C123.551 26.6325 123.376 24.8849 122.415 23.4868C122.109 23.0499 121.803 22.7004 121.41 22.3945C120.624 24.0111 118.964 25.4965 116.779 26.2829C113.677 27.4189 110.488 26.8509 108.915 25.0159C107.735 26.3266 106.993 27.7684 106.643 29.2102C106.905 30.1713 106.949 31.2636 106.73 32.4869Z" fill="#C4D82E"/>
<path d="M106.731 32.4862C106.949 31.3066 106.905 30.2144 106.687 29.2969C106.425 30.3891 106.425 31.4814 106.731 32.4862Z" fill="#007054"/>
<path d="M116.823 26.3256C119.008 25.5392 120.624 24.0538 121.454 22.4372C119.008 20.5149 114.726 20.7333 111.143 23.18C110.313 23.7479 109.614 24.4033 108.959 25.1023C110.532 26.8936 113.677 27.5053 116.823 26.3256Z" fill="#007054"/>
<path d="M129.231 23.4863C133.512 24.7533 137.532 23.8358 138.231 21.4765C138.93 19.1173 136.046 16.1464 131.765 14.8793C127.483 13.6123 123.464 14.5298 122.765 16.8891C122.066 19.292 124.949 22.2193 129.231 23.4863Z" fill="#C4D82E"/>
<path d="M110.707 61.8459C111.274 59.8798 114.333 59.006 117.784 59.7051C117.828 58.8313 117.741 57.9575 117.522 56.9963C114.988 57.6953 111.755 56.2972 109.527 53.4137C108.522 52.0593 107.867 50.6175 107.605 49.1758C106.905 49.3069 106.294 49.569 105.726 49.9622C105.682 50.0059 105.638 50.0496 105.551 50.137C105.595 50.268 105.682 50.3554 105.726 50.4865C107.168 53.3263 106.949 56.2972 105.245 57.171C104.852 57.3895 104.415 57.4332 103.935 57.3458C104.284 58.438 104.808 59.574 105.551 60.6225C107.168 62.8944 109.352 64.3362 111.493 64.7294C110.794 63.7682 110.444 62.7634 110.707 61.8459Z" fill="#C4D82E"/>
<path d="M105.769 50.4862C105.726 50.3552 105.638 50.2678 105.595 50.1367C103.672 51.6659 103.148 54.462 104.022 57.3456C104.502 57.3892 104.939 57.3456 105.333 57.1271C106.993 56.3407 107.211 53.3261 105.769 50.4862Z" fill="#007054"/>
<path d="M117.522 56.9961C117.216 55.7728 116.648 54.5058 115.818 53.3262C113.634 50.2242 110.313 48.6513 107.604 49.1756C107.867 50.5737 108.522 52.0591 109.527 53.4135C111.755 56.3408 114.988 57.6952 117.522 56.9961Z" fill="#007054"/>
<path d="M115.687 63.987C116.998 63.0258 117.697 61.4967 117.828 59.7054C114.376 59.0063 111.318 59.8801 110.75 61.8462C110.488 62.7637 110.794 63.7685 111.58 64.7297C113.066 65.0355 114.507 64.8171 115.687 63.987Z" fill="#007054"/>
<path d="M118.701 34.1909C117.609 34.9336 116.473 35.5016 115.293 35.8074C114.594 40.1764 117.216 44.458 121.541 45.7687C126.26 47.1668 131.197 44.458 132.595 39.7395C132.944 38.6036 133.032 37.4239 132.901 36.3317C132.114 36.4628 131.284 36.4628 130.454 36.2006C127.57 35.3705 125.91 32.3122 126.784 29.4287C126.828 29.2102 126.959 29.0355 127.046 28.8607C126.915 28.817 126.74 28.7296 126.609 28.6859C125.43 28.3364 124.25 28.249 123.07 28.3801C122.502 30.5209 120.973 32.6617 118.701 34.1909Z" fill="#FFCE34"/>
<path d="M130.498 36.1993C131.328 36.4614 132.158 36.4614 132.945 36.3304C132.595 33.0099 130.367 30.039 127.046 28.8594C126.959 29.0341 126.872 29.2526 126.828 29.4273C125.954 32.3109 127.614 35.3692 130.498 36.1993Z" fill="#BEBB39"/>
<path d="M115.556 34.7152C115.468 35.0647 115.381 35.4579 115.293 35.8511C116.429 35.5016 117.609 34.9773 118.701 34.2346C120.973 32.6618 122.502 30.5209 123.07 28.4238C119.662 28.7733 116.604 31.1763 115.556 34.7152Z" fill="#BEBB39"/>
<path d="M60.4197 107.328C58.7158 110.299 57.8857 113.663 57.8857 117.071C57.8857 120.479 58.7158 123.887 60.4197 126.814H59.5022C57.3614 123.319 56.6187 120.086 56.6187 117.071C56.6187 114.056 57.3614 110.78 59.5022 107.328H60.4197Z" fill="#007054"/>
<path d="M64.3956 117.114C62.7791 116.502 62.1674 115.541 62.1674 114.361C62.1674 112.002 63.6529 111.041 65.6189 111.041C67.8034 111.041 68.8083 112.133 68.8083 114.274V114.58H67.4976V114.274C67.4976 112.789 66.7986 112.133 65.6189 112.133C64.0898 112.133 63.5218 112.92 63.5218 114.099C63.5218 114.886 63.784 115.541 65.0947 116.022L66.9733 116.721C68.5462 117.289 69.1141 118.381 69.1141 119.648C69.1141 121.614 67.9782 123.099 65.5316 123.099C63.1723 123.099 61.9927 122.138 61.9927 119.517V119.167H63.3034V119.473C63.3034 121.177 64.0461 122.051 65.5316 122.051C66.9296 122.051 67.8034 121.264 67.8034 119.997C67.8034 118.993 67.4102 118.337 66.2306 117.857L64.3956 117.114Z" fill="#007054"/>
<path fill-rule="evenodd" clip-rule="evenodd" d="M79.0751 117.07C79.0751 113.051 77.6333 111.041 75.0993 111.041C72.5216 111.041 71.1235 113.094 71.1235 117.07C71.1235 121.09 72.5653 123.099 75.0993 123.099C77.6333 123.099 79.0751 121.09 79.0751 117.07ZM77.6769 117.114C77.6769 120.784 76.541 122.051 75.0992 122.051C73.6137 122.051 72.4778 120.784 72.5215 117.114C72.5215 113.444 73.6574 112.177 75.0992 112.177C76.541 112.177 77.6769 113.444 77.6769 117.114Z" fill="#007054"/>
<path d="M81.085 111.303H82.2646V112.92H82.3083C82.9636 111.653 84.0996 111.041 85.2792 111.041C87.0268 111.041 88.2501 111.959 88.2501 114.143V122.881H86.9394V114.536C86.9394 112.963 86.2841 112.177 84.9734 112.177C83.4442 112.177 82.4393 113.357 82.4393 115.148V122.925H81.1287V111.303H81.085Z" fill="#007054"/>
<path fill-rule="evenodd" clip-rule="evenodd" d="M92.0509 107.328H90.7402V109.556H92.0509V107.328ZM92.0509 111.304H90.7402V122.838H92.0509V111.304Z" fill="#007054"/>
<path fill-rule="evenodd" clip-rule="evenodd" d="M101.052 120.959H101.095V122.881H102.275V107.371H100.964V113.094H100.92C100.615 111.871 99.6535 111.085 98.2117 111.085C95.634 111.085 94.498 113.138 94.498 117.114C94.498 121.09 95.6777 123.143 98.2117 123.143C99.6098 123.143 100.702 122.269 101.052 120.959ZM101.008 117.114C101.008 121.396 99.7842 122.051 98.4735 122.051C97.1628 122.051 95.9395 121.352 95.9395 117.114C95.9395 112.832 97.1628 112.177 98.4735 112.177C99.8279 112.177 101.008 112.832 101.008 117.114Z" fill="#007054"/>
<path fill-rule="evenodd" clip-rule="evenodd" d="M108.479 123.142C110.663 123.142 112.018 121.482 112.192 119.036H110.882C110.663 121.089 109.789 122.05 108.435 122.05C107.168 122.05 105.988 121.002 105.988 117.681V117.157H112.28V116.676C112.28 112.832 111.144 111.084 108.566 111.084C106.032 111.084 104.59 113.094 104.59 117.113C104.59 121.438 106.032 123.142 108.479 123.142ZM108.478 112.133C110.095 112.133 110.881 113.181 110.925 116.065H106.032C106.076 113.181 106.862 112.133 108.478 112.133Z" fill="#007054"/>
<path fill-rule="evenodd" clip-rule="evenodd" d="M121.979 111.304H120.799V113.051H120.755C120.319 111.741 119.314 110.998 118.047 110.998C115.469 110.998 114.333 113.051 114.333 117.027C114.333 121.615 116.124 122.794 117.916 122.794C119.139 122.794 120.231 122.139 120.624 120.741H120.668V122.576C120.668 124.629 119.794 125.722 118.221 125.722C117.042 125.722 116.037 125.066 116.037 123.974H114.726C114.77 125.634 115.95 126.814 118.178 126.814C120.799 126.814 121.979 125.197 121.979 122.008V111.304ZM120.668 116.94C120.668 120.654 119.75 121.789 118.221 121.789C116.648 121.789 115.731 120.654 115.775 116.94C115.775 113.27 116.692 112.134 118.221 112.134C119.75 112.134 120.668 113.27 120.668 116.94Z" fill="#007054"/>
<path fill-rule="evenodd" clip-rule="evenodd" d="M126.173 107.328H124.862V109.556H126.173V107.328ZM126.173 111.304H124.862V122.838H126.173V111.304Z" fill="#007054"/>
<path fill-rule="evenodd" clip-rule="evenodd" d="M130.935 107.328H129.625V122.838H130.804V120.916H130.848C131.197 122.27 132.333 123.1 133.688 123.1C136.265 123.1 137.401 121.09 137.401 117.071C137.401 113.095 136.222 111.042 133.688 111.042C132.246 111.042 131.241 111.828 130.979 113.052H130.935V107.328ZM136.003 117.115C136.003 121.396 134.78 122.052 133.469 122.052C132.115 122.052 130.935 121.353 130.935 117.115C130.935 112.833 132.158 112.178 133.469 112.178C134.78 112.178 136.003 112.833 136.003 117.115Z" fill="#007054"/>
<path d="M138.538 126.857C140.242 123.886 141.072 120.522 141.072 117.114C141.072 113.706 140.242 110.298 138.538 107.371H139.455C141.596 110.866 142.339 114.099 142.339 117.114C142.339 120.129 141.596 123.405 139.455 126.857H138.538Z" fill="#007054"/>
<path fill-rule="evenodd" clip-rule="evenodd" d="M190.878 83.8223C191.708 83.8223 192.189 84.1281 192.189 84.8708C192.189 85.5262 191.795 85.7883 191.315 85.7883L192.232 87.3175H191.533L190.703 85.832H190.266V87.3175H189.611V83.8223H190.878ZM190.266 84.3903V85.3078H190.878C191.271 85.3078 191.533 85.2641 191.533 84.8272C191.533 84.434 191.14 84.3903 190.834 84.3903H190.266Z" fill="#007054"/>
<path fill-rule="evenodd" clip-rule="evenodd" d="M54.3035 85.6125C55.9201 80.894 60.0706 77.9668 65.1386 77.9668C69.6824 77.9668 72.4349 80.2387 73.7019 81.5931C75.0999 83.1222 76.7602 85.7873 76.7165 90.0252C76.7165 92.4719 76.1048 95.9671 73.3523 98.8069C71.8232 100.336 70.294 101.079 69.2455 101.428C68.0222 101.865 66.5804 102.084 65.0513 102.084C61.5561 102.084 59.022 100.991 56.7939 98.5448C54.6531 96.2292 53.6045 93.433 53.6045 90.0689C53.6045 89.4573 53.6045 87.666 54.3035 85.6125ZM65.1821 98.2827C66.187 98.2827 67.1482 98.1079 68.022 97.7147C69.5948 97.0594 72.2599 95.1807 72.3473 90.4185C72.3473 88.8893 72.1288 86.6612 70.8618 84.7388C69.5511 82.7291 67.5414 81.6368 65.0948 81.6368C64.0025 81.6368 62.9103 81.8553 61.9491 82.3358C60.7695 82.9475 58.017 84.9136 58.017 89.8505C58.017 91.8166 58.4539 95.3554 61.5122 97.2778C62.6044 97.9332 63.8278 98.2827 65.1821 98.2827Z" fill="#007054"/>
<path fill-rule="evenodd" clip-rule="evenodd" d="M90.6536 83.7782C90.872 83.9093 91.0905 84.0403 91.44 84.3025C91.5923 84.4243 91.7234 84.5674 91.8332 84.6873C91.8809 84.7394 91.9246 84.7871 91.9643 84.8267L92.0516 84.9141L92.4885 85.351V77.5742H96.3333V101.342H92.4885V99.2007L92.0516 99.6376C91.9643 99.725 91.8769 99.8124 91.7895 99.9435C91.7458 99.9872 91.713 100.031 91.6803 100.075C91.6475 100.118 91.6147 100.162 91.5711 100.206C90.9157 100.817 89.4739 101.866 87.1584 101.866C86.0224 101.866 84.8865 101.604 83.8379 101.123C82.4399 100.511 79.2505 98.4143 79.2505 92.7783C79.2505 87.6666 81.9156 84.6083 84.2311 83.5597C85.1486 83.1665 86.1972 82.9481 87.3331 82.9481C88.1195 82.9481 89.2992 83.0355 90.5662 83.7345L90.6536 83.7782ZM91.003 97.1037C92.0515 95.9677 92.5321 94.4823 92.4884 92.5162C92.4884 91.5987 92.3574 89.8948 91.6146 88.6278C91.3962 88.1909 90.9593 87.6666 90.6098 87.4045C89.867 86.7928 89.0369 86.5307 87.9884 86.5307C87.5952 86.5307 86.5903 86.5744 85.5854 87.2297C83.4883 88.6278 83.3135 91.5114 83.3135 92.3415C83.3135 95.1813 84.5369 98.4581 87.9447 98.4581C89.2117 98.4581 90.2166 98.0212 91.003 97.1037Z" fill="#007054"/>
<path fill-rule="evenodd" clip-rule="evenodd" d="M108.741 82.9473C109.702 82.9473 111.144 83.0783 112.673 83.7774C113.896 84.3017 117.872 86.4862 117.96 92.3843C117.96 94.263 117.566 95.5737 117.261 96.4038C116.736 97.6708 114.639 101.909 108.916 101.909C108.304 101.909 106.688 101.909 104.853 101.079C103.629 100.511 99.6099 98.2824 99.6099 92.3406C99.6099 90.3638 100.159 88.9365 100.385 88.3498C100.389 88.34 100.393 88.3304 100.396 88.3211C100.921 87.0541 103.105 82.9473 108.741 82.9473ZM108.872 98.4135C110.226 98.4135 111.406 97.9329 112.28 97.0154C113.372 95.8795 113.94 94.1756 113.853 92.2532C113.765 89.4571 112.105 86.3988 108.61 86.3988C108.304 86.3988 107.081 86.4425 105.988 87.1415C105.421 87.491 103.629 88.9328 103.629 92.2532C103.629 93.0397 103.673 93.8698 104.022 94.8309C104.459 96.1853 105.988 98.4135 108.872 98.4135Z" fill="#007054"/>
<path d="M142.076 82.9473C139.979 82.9473 138.756 83.6026 138.013 84.1269C137.139 84.6949 136.79 85.1755 136.484 85.525L136.134 85.9619L135.96 85.6124C135.042 83.9521 133.207 82.9473 131.066 82.9473C128.707 82.9473 126.741 84.1706 126.086 84.8259C125.911 84.957 125.823 85.0444 125.518 85.4376L125.037 86.0929L124.993 83.5152H121.105V101.341H124.993V93.9134C124.993 91.9037 124.993 89.1949 126.916 87.5347C127.921 86.6609 129.013 86.5735 129.406 86.5735C130.018 86.5735 130.848 86.7046 131.547 87.3599C132.246 88.0153 132.639 88.9328 132.639 90.1124C132.639 90.3309 132.639 90.5056 132.639 90.7241C132.639 90.9425 132.639 91.1173 132.639 91.3357V101.341H136.484V92.9523C136.484 91.3357 136.571 89.8503 137.401 88.4959C138.537 86.6609 140.372 86.4862 140.897 86.4862C143.999 86.4862 144.261 89.4134 144.261 90.3309V101.297H148.105V89.9377C148.105 88.3211 148.062 87.5784 147.843 86.792C147.232 84.389 145.091 82.9473 142.076 82.9473Z" fill="#007054"/>
<path d="M151.47 98.3265V101.341H166.674V97.977H156.669L166.674 86.5739V83.5156H152.475V86.9234H161.737L151.47 98.3265Z" fill="#007054"/>
<path fill-rule="evenodd" clip-rule="evenodd" d="M177.946 82.9473C178.907 82.9473 180.349 83.0783 181.878 83.7774C183.102 84.3017 187.121 86.4862 187.165 92.3843C187.165 94.2193 186.772 95.5737 186.466 96.4038C185.941 97.6708 183.844 101.909 178.121 101.909C177.509 101.909 175.893 101.909 174.058 101.079C172.834 100.511 168.815 98.2824 168.815 92.3406C168.815 90.3309 169.383 88.8454 169.601 88.3211C170.257 86.7046 172.441 82.9473 177.946 82.9473ZM178.077 98.4135C179.431 98.4135 180.611 97.9329 181.485 97.0154C182.577 95.8795 183.145 94.1756 183.101 92.2532C183.014 89.4571 181.354 86.3988 177.859 86.3988C177.509 86.3988 176.286 86.4425 175.194 87.1415C174.626 87.491 172.834 88.9328 172.834 92.2532C172.834 93.3018 172.965 94.0445 173.228 94.8309C173.664 96.1853 175.194 98.4135 178.077 98.4135Z" fill="#007054"/>
<path fill-rule="evenodd" clip-rule="evenodd" d="M187.776 85.613C187.776 83.6469 189.305 82.5547 190.79 82.5547C192.276 82.5547 193.805 83.6032 193.805 85.613C193.805 87.579 192.276 88.6713 190.79 88.6713C189.349 88.6713 187.776 87.6227 187.776 85.613ZM188.475 85.5693C188.475 87.011 189.48 88.1033 190.79 88.1033C192.101 88.1033 193.106 87.011 193.106 85.5693C193.106 84.1712 192.101 83.0789 190.79 83.0789C189.48 83.0789 188.475 84.1275 188.475 85.5693Z" fill="#007054"/>
<path d="M150.858 112.002C150.77 113.269 150.071 114.143 148.936 114.143C147.669 114.143 146.926 113.269 146.926 110.997C146.926 108.9 147.669 107.852 149.023 107.852C150.159 107.852 150.814 108.551 150.902 109.774H150.203C150.115 108.813 149.766 108.42 149.023 108.42C148.28 108.42 147.669 108.856 147.669 110.997C147.669 113.269 148.324 113.575 148.936 113.575C149.635 113.575 150.071 113.051 150.203 112.002H150.858Z" fill="#007054"/>
<path fill-rule="evenodd" clip-rule="evenodd" d="M153.873 107.895C152.606 107.895 151.994 108.594 151.994 109.817H152.606C152.606 108.943 152.999 108.463 153.786 108.463C154.397 108.463 154.834 108.725 154.834 109.511C154.834 110.21 154.747 110.341 154.266 110.472L152.999 110.822C152.125 111.04 151.776 111.696 151.776 112.482C151.776 113.531 152.256 114.186 153.305 114.186C154.004 114.186 154.616 113.967 154.878 113.181H154.922V113.399C154.922 114.011 155.271 114.142 155.795 114.142C155.859 114.142 155.923 114.119 156.004 114.089C156.034 114.078 156.066 114.067 156.101 114.055V113.574H155.926C155.708 113.574 155.577 113.443 155.577 113.094V109.511C155.577 108.55 155.14 107.895 153.873 107.895ZM154.135 111.04C154.397 110.996 154.79 110.865 154.878 110.647V111.914C154.878 113.006 154.31 113.618 153.48 113.618C152.868 113.618 152.518 113.137 152.518 112.438C152.518 111.696 152.868 111.346 153.567 111.171L154.135 111.04Z" fill="#007054"/>
<path fill-rule="evenodd" clip-rule="evenodd" d="M157.761 107.94H157.15H157.106V115.979H157.805V113.051H157.849C157.98 113.707 158.504 114.1 159.247 114.1C160.557 114.1 161.169 113.051 161.169 110.954C161.169 108.857 160.601 107.809 159.247 107.809C158.46 107.809 157.98 108.245 157.761 108.813V107.94ZM158.198 108.901C158.417 108.595 158.766 108.377 159.159 108.377C159.815 108.377 160.47 108.77 160.426 110.954C160.426 113.183 159.815 113.532 159.116 113.532C158.417 113.532 157.805 113.183 157.805 110.954C157.805 109.906 157.892 109.338 158.198 108.901Z" fill="#007054"/>
<path d="M163.659 110.998C162.785 110.648 162.479 110.168 162.479 109.556C162.479 108.333 163.266 107.809 164.271 107.809C165.407 107.809 165.931 108.377 165.931 109.513V109.687H165.232V109.513C165.232 108.726 164.882 108.377 164.227 108.377C163.441 108.377 163.135 108.813 163.135 109.381C163.135 109.818 163.266 110.124 163.965 110.386L164.97 110.78C165.8 111.085 166.106 111.653 166.106 112.309C166.106 113.357 165.494 114.1 164.227 114.1C163.004 114.1 162.392 113.576 162.392 112.221V112.047H163.091V112.221C163.091 113.095 163.484 113.576 164.271 113.576C165.013 113.576 165.45 113.182 165.45 112.483C165.45 111.959 165.232 111.61 164.62 111.347L163.659 110.998Z" fill="#007054"/>
<path d="M167.329 107.939H168.028V112.177C168.028 113.139 168.378 113.532 169.077 113.532C169.863 113.532 170.387 112.92 170.387 112.003V107.939H171.086V113.969H170.475V113.139H170.431C170.082 113.794 169.514 114.1 168.902 114.1C167.984 114.1 167.373 113.619 167.373 112.483V107.939H167.329Z" fill="#007054"/>
<path d="M172.659 105.885H173.358V114.011H172.659V105.885Z" fill="#007054"/>
<path fill-rule="evenodd" clip-rule="evenodd" d="M178.816 112.046C178.817 112.031 178.819 112.017 178.82 112.002V112.046H178.816ZM176.853 114.143C178.02 114.143 178.716 113.289 178.816 112.046H178.12C178.033 113.094 177.553 113.619 176.853 113.619C176.198 113.619 175.586 113.094 175.586 111.347V111.041H178.907V110.779C178.907 108.769 178.295 107.852 176.941 107.852C175.586 107.852 174.844 108.9 174.844 110.997C174.844 113.269 175.586 114.143 176.853 114.143ZM176.853 108.376C177.683 108.376 178.12 108.944 178.12 110.429H175.586C175.586 108.944 176.023 108.376 176.853 108.376Z" fill="#007054"/>
<path d="M181.353 110.998C180.48 110.648 180.174 110.168 180.174 109.556C180.174 108.333 180.96 107.809 181.965 107.809C183.101 107.809 183.625 108.377 183.625 109.513V109.687H182.926V109.513C182.926 108.726 182.577 108.377 181.921 108.377C181.135 108.377 180.829 108.813 180.829 109.381C180.829 109.818 180.96 110.124 181.659 110.386L182.664 110.78C183.494 111.085 183.8 111.653 183.8 112.309C183.8 113.357 183.188 114.1 181.921 114.1C180.698 114.1 180.086 113.576 180.086 112.221V112.047H180.785V112.221C180.785 113.095 181.179 113.576 181.965 113.576C182.708 113.576 183.145 113.182 183.145 112.483C183.145 111.959 182.926 111.61 182.315 111.347L181.353 110.998Z" fill="#007054"/>
<path d="M158.285 118.862C158.285 117.551 158.941 116.721 160.208 116.721C161.125 116.721 161.955 117.245 161.955 118.556C161.955 119.386 161.693 119.91 160.819 120.653L160.077 121.264C159.378 121.832 158.984 122.269 158.897 123.012H161.999V123.536H158.242C158.242 122.4 158.766 121.701 159.64 120.915L160.383 120.303C161.082 119.735 161.3 119.255 161.3 118.643C161.3 117.726 160.819 117.245 160.12 117.245C159.334 117.245 158.897 117.769 158.897 118.905H158.285V118.862Z" fill="#007054"/>
<path fill-rule="evenodd" clip-rule="evenodd" d="M166.892 120.172C166.892 118.162 166.543 116.721 165.013 116.721C163.484 116.721 163.135 118.162 163.135 120.172C163.135 122.182 163.484 123.624 165.013 123.624C166.543 123.624 166.892 122.182 166.892 120.172ZM166.324 120.172C166.324 122.357 165.931 123.143 165.013 123.143C164.096 123.143 163.703 122.357 163.703 120.172C163.703 117.988 164.096 117.201 165.013 117.201C165.974 117.201 166.324 117.988 166.324 120.172Z" fill="#007054"/>
<path fill-rule="evenodd" clip-rule="evenodd" d="M172.048 120.172C172.048 118.162 171.698 116.721 170.169 116.721C168.64 116.721 168.247 118.162 168.29 120.172C168.29 122.182 168.64 123.624 170.169 123.624C171.698 123.624 172.048 122.182 172.048 120.172ZM171.48 120.172C171.48 122.357 171.086 123.143 170.169 123.143C169.251 123.143 168.858 122.357 168.858 120.172C168.858 117.988 169.251 117.201 170.169 117.201C171.13 117.201 171.48 117.988 171.48 120.172Z" fill="#007054"/>
<path d="M173.708 118.424H174.232V119.123C174.494 118.555 174.975 118.293 175.543 118.293C176.155 118.293 176.504 118.686 176.592 119.167C176.81 118.599 177.247 118.293 177.902 118.293C178.601 118.293 179.082 118.686 179.082 119.604V123.492H178.514V119.691C178.514 119.079 178.252 118.774 177.727 118.774C177.16 118.774 176.679 119.298 176.679 120.084V123.492H176.111V119.691C176.111 119.079 175.849 118.774 175.325 118.774C174.757 118.774 174.276 119.298 174.276 120.084V123.492H173.708V118.424H173.708Z" fill="#007054"/>
<path fill-rule="evenodd" clip-rule="evenodd" d="M183.625 118.425H183.101H183.057V119.255C182.883 118.644 182.446 118.338 181.878 118.338C180.786 118.338 180.261 119.255 180.261 121.003C180.261 123.013 181.048 123.537 181.834 123.537C182.358 123.537 182.839 123.231 183.014 122.62V123.406C183.014 124.323 182.664 124.804 181.965 124.804C181.441 124.804 181.004 124.542 181.004 124.061H180.436C180.48 124.76 180.96 125.285 181.965 125.285C183.101 125.285 183.625 124.542 183.625 123.144V118.425ZM183.057 120.872C183.057 122.532 182.664 123.013 181.965 123.013C181.31 123.013 180.916 122.532 180.873 120.872C180.873 119.255 181.266 118.775 181.965 118.775C182.664 118.775 183.057 119.255 183.057 120.872Z" fill="#007054"/>
</svg>
