<svg width="268" height="144" viewBox="0 0 268 144" fill="none" xmlns="http://www.w3.org/2000/svg">
<path d="M0 6C0 2.68629 2.68629 0 6 0H237C240.314 0 243 2.68629 243 6V138C243 141.314 240.314 144 237 144H6C2.68629 144 0 141.314 0 138V6Z" fill="white"/>
<path d="M29.7617 80.8368C29.7617 78.0437 30.6928 77.2559 33.0562 77.2559V79.0463C31.9103 79.0463 31.6238 79.4044 31.6238 80.8368V94.3013C31.6238 95.7337 31.9103 96.0917 33.0562 96.0917V97.9539C30.5495 97.9539 29.7617 97.166 29.7617 94.3729V80.8368Z" fill="#8E9BA1"/>
<path d="M35.992 96.2362H34.3447V79.1191H35.7055L37.496 86.9973L39.2865 79.1191H40.6472V96.2362H39.0716V87.9999L39.5729 82.4136L39 85.6365L37.7108 91.1512H37.3527L35.992 85.6365L35.419 82.4136L35.992 88.0716V96.2362Z" fill="#8E9BA1"/>
<path d="M46.0904 96.2362H42.3662V79.1191H46.0188V80.838H44.1567V86.6392H45.9472V88.4297H44.1567V94.4457H46.0904V96.2362Z" fill="#8E9BA1"/>
<path d="M50.3869 80.838V96.2362H48.5964V80.838H47.1641V79.1191H51.7477V80.838H50.3869Z" fill="#8E9BA1"/>
<path d="M54.7563 88.5013V96.2362H52.9658V79.1191H56.6184V80.838H54.7563V86.7824H56.5468V88.5013H54.7563Z" fill="#8E9BA1"/>
<path d="M57.9082 93.945V81.4116C57.9082 79.7644 58.9109 78.9766 60.4865 78.9766C62.0621 78.9766 62.9932 79.836 62.9932 81.4116V93.945C62.9932 95.6639 61.9905 96.4517 60.4149 96.4517C58.9109 96.4517 57.9082 95.6639 57.9082 93.945ZM61.2027 93.6585V81.4832C61.2027 80.8387 60.9878 80.4806 60.4865 80.4806C59.9852 80.4806 59.7703 80.767 59.7703 81.4832V93.6585C59.7703 94.3031 59.9852 94.6612 60.4865 94.6612C60.9878 94.6612 61.2027 94.3747 61.2027 93.6585Z" fill="#8E9BA1"/>
<path d="M66.4298 88.931V96.2362H64.7109V79.1191H67.0744C68.9365 79.1191 69.5811 79.7637 69.5811 81.3393V86.2095C69.5811 87.2121 69.2946 87.7851 68.65 87.9999C69.2946 88.2148 69.6527 88.7878 69.6527 89.7904V95.1619C69.6527 95.5916 69.7243 95.9497 69.9392 96.2362H68.077C67.9338 96.0929 67.8622 95.6632 67.8622 95.2335V89.9337C67.8622 89.2175 67.6473 88.931 67.0028 88.931H66.4298ZM66.4298 80.6232V87.2121H66.9311C67.5757 87.2121 67.8622 86.9257 67.8622 86.2811V81.5542C67.8622 80.9096 67.6473 80.6948 66.9311 80.6948H66.4298V80.6232Z" fill="#8E9BA1"/>
<path d="M72.8045 96.2362H71.1572V79.1191H72.518L74.3085 86.9973L76.099 79.1191H77.4597V96.2362H75.8841V87.9999L76.3854 82.4136L75.8125 85.6365L74.5233 91.1512H74.1652L72.8045 85.6365L72.2315 82.4136L72.8045 88.0716V96.2362Z" fill="#8E9BA1"/>
<path d="M78.8213 96.2362V94.5173H79.7523V80.7664H78.8213V79.1191H82.4739V80.7664H81.5428V94.5173H82.4739V96.2362H78.8213Z" fill="#8E9BA1"/>
<path d="M85.4096 96.2362H83.834V79.1191H85.1948L87.2001 88.7878L87.6298 91.2944L87.3433 87.6419V79.1191H88.9906V96.2362H87.6298L85.5529 86.4959L85.1231 83.9893L85.4096 87.4986V96.2362Z" fill="#8E9BA1"/>
<path d="M97.0832 88.5013H95.7225V96.2362H93.8604V79.1191H95.7225V86.7824H97.0832V79.1191H98.9453V96.2362H97.0832V88.5013Z" fill="#8E9BA1"/>
<path d="M100.593 93.8728V81.3394C100.593 79.6921 101.524 78.9043 103.099 78.9043C104.675 78.9043 105.535 79.6205 105.535 81.2677V85.8514H103.744V81.4826C103.744 80.838 103.529 80.4799 103.028 80.4799C102.526 80.4799 102.383 80.7664 102.383 81.4826V93.5863C102.383 94.3025 102.526 94.5889 103.028 94.5889C103.529 94.5889 103.672 94.3025 103.744 93.5863V88.7162H105.535V93.8011C105.535 95.5916 104.675 96.3078 103.099 96.3078C101.381 96.451 100.593 95.6632 100.593 93.8728Z" fill="#8E9BA1"/>
<path d="M107.11 96.2362V79.1191H108.972V94.4457H111.049V96.2362H107.11Z" fill="#8E9BA1"/>
<path d="M112.053 96.0917C113.199 96.0917 113.485 95.7337 113.485 94.3013V80.8368C113.485 79.4044 113.199 79.0463 112.053 79.0463V77.2559C114.416 77.2559 115.347 78.0437 115.347 80.8368V94.3013C115.347 97.0944 114.559 97.8822 112.053 97.8822V96.0917Z" fill="#8E9BA1"/>
<path d="M122.509 86.6392H118.928V79.334H122.437V80.838H120.575V82.1988H122.222V83.7028H120.575V85.0635H122.509V86.6392Z" fill="#8E9BA1"/>
<path d="M124.657 86.6392H122.866L124.37 82.7717L123.009 79.334H124.728L125.23 81.0528L125.301 81.4109V81.0528L125.874 79.334H127.593L126.232 82.7717L127.665 86.6392H125.946L125.301 84.7054V84.419V84.7054L124.657 86.6392Z" fill="#8E9BA1"/>
<path d="M130.673 80.838V86.6392H129.026V80.838H127.88V79.334H131.747V80.838H130.673Z" fill="#8E9BA1"/>
<path d="M136.045 86.6392H132.464V79.334H135.973V80.838H134.111V82.1988H135.758V83.7028H134.111V85.0635H136.045V86.6392Z" fill="#8E9BA1"/>
<path d="M138.193 86.6392H136.689V79.334H138.193L139.483 82.915L139.626 83.3447L139.554 82.6285V79.334H141.058V86.6392H139.626L138.265 83.0582L138.193 82.6285V83.3447V86.6392Z" fill="#8E9BA1"/>
<path d="M141.917 79.334H143.994C145.283 79.334 146.143 79.9069 146.143 81.4109V84.4906C146.143 85.9946 145.211 86.6392 143.922 86.6392H141.917V79.334ZM143.564 80.7664V85.2068H143.851C144.209 85.2068 144.424 84.9919 144.424 84.419V81.6258C144.424 80.9812 144.209 80.838 143.851 80.838H143.564V80.7664Z" fill="#8E9BA1"/>
<path d="M150.439 86.6392H146.858V79.334H150.439V80.838H148.506V82.1988H150.224V83.7028H148.506V85.0635H150.439V86.6392Z" fill="#8E9BA1"/>
<path d="M151.156 79.334H153.233C154.522 79.334 155.382 79.9069 155.382 81.4109V84.4906C155.382 85.9946 154.451 86.6392 153.162 86.6392H151.156V79.334ZM152.803 80.7664V85.2068H153.09C153.448 85.2068 153.591 84.9919 153.591 84.419V81.6258C153.591 80.9812 153.376 80.838 153.09 80.838H152.803V80.7664Z" fill="#8E9BA1"/>
<path d="M158.891 82.1992H156.098V83.7748H158.891V82.1992Z" fill="#8E9BA1"/>
<path d="M161.253 83.9892V86.6392H159.678V79.334H161.755C163.115 79.334 163.688 79.8353 163.688 81.1245V82.0555C163.688 82.7001 163.474 83.0582 163.044 83.2014C163.474 83.4163 163.617 83.7028 163.617 84.3473V86.0662C163.617 86.2811 163.688 86.4959 163.832 86.5675H162.113C162.041 86.4959 161.97 86.2811 161.97 86.0662V84.4906C161.97 84.1325 161.826 83.9892 161.468 83.9892H161.253ZM161.253 80.7664V82.5569H161.611C161.97 82.5569 162.041 82.4136 162.041 82.1271V81.1961C162.041 80.838 161.898 80.6947 161.611 80.6947H161.253V80.7664Z" fill="#8E9BA1"/>
<path d="M167.986 86.6392H164.405V79.334H167.986V80.838H166.053V82.1988H167.771V83.7028H166.053V85.0635H167.986V86.6392Z" fill="#8E9BA1"/>
<path d="M168.703 86.6392V79.334H170.422V84.9203H172.141V86.6392H168.703Z" fill="#8E9BA1"/>
<path d="M176.365 86.6392H172.855V79.334H176.365V80.838H174.503V82.1988H176.15V83.7028H174.503V85.0635H176.365V86.6392Z" fill="#8E9BA1"/>
<path d="M179.805 85.8514H178.659L178.515 86.6392H176.868L178.372 79.334H180.019L181.595 86.6392H179.948L179.805 85.8514ZM178.873 84.419H179.59L179.303 82.6285L179.232 81.6974L179.16 82.6285L178.873 84.419Z" fill="#8E9BA1"/>
<path d="M181.881 84.848V83.8454H183.6V84.848C183.6 85.1345 183.671 85.2778 183.958 85.2778C184.244 85.2778 184.316 85.1345 184.316 84.848V84.4183C184.316 83.917 183.815 83.7021 183.313 83.4156C182.669 83.0575 181.952 82.5562 181.952 81.4819V81.1238C181.952 79.8347 182.669 79.2617 183.958 79.2617C185.247 79.2617 185.892 79.8347 185.892 80.9806V81.7684H184.244V81.1238C184.244 80.7657 184.173 80.6225 183.886 80.6225C183.6 80.6225 183.528 80.7657 183.528 81.1238V81.3387C183.528 81.7684 183.958 81.9833 184.531 82.2697C185.175 82.6278 185.963 83.1292 185.963 84.2035V84.9197C185.963 86.1372 185.319 86.7818 183.886 86.7818C182.454 86.7818 181.881 86.1372 181.881 84.848Z" fill="#8E9BA1"/>
<path d="M190.26 86.6392H186.679V79.334H190.188V80.838H188.326V82.1988H190.045V83.7028H188.326V85.0635H190.26V86.6392Z" fill="#8E9BA1"/>
<path d="M118.856 94.1592V91.008C118.856 89.5039 119.716 88.8594 121.005 88.8594C122.294 88.8594 123.154 89.5756 123.154 91.008V94.1592C123.154 95.6632 122.294 96.3078 121.005 96.3078C119.716 96.3078 118.856 95.6632 118.856 94.1592ZM121.435 94.016V91.0796C121.435 90.5066 121.363 90.2918 121.005 90.2918C120.647 90.2918 120.575 90.5066 120.575 91.0796V94.016C120.575 94.5889 120.647 94.8038 121.005 94.8038C121.363 94.8038 121.435 94.5889 121.435 94.016Z" fill="#8E9BA1"/>
<path d="M125.515 93.5869V96.2368H123.939V88.9316H126.016C127.377 88.9316 127.95 89.433 127.95 90.7221V91.6532C127.95 92.2978 127.735 92.6559 127.306 92.7991C127.807 93.014 127.879 93.3004 127.879 93.945V95.6639C127.879 95.8787 127.95 96.0936 128.093 96.1652H126.375C126.303 96.0936 126.231 95.8787 126.231 95.6639V94.0882C126.231 93.7301 126.088 93.5869 125.73 93.5869H125.515ZM125.515 90.2924V92.0829H125.873C126.231 92.0829 126.303 91.9397 126.303 91.6532V90.7221C126.303 90.364 126.16 90.2208 125.873 90.2208H125.515V90.2924Z" fill="#8E9BA1"/>
<path d="M131.246 95.449H130.1L129.957 96.2368H128.31L129.814 88.9316H131.461L133.036 96.2368H131.389L131.246 95.449ZM130.315 94.0166H131.031L130.745 92.2261L130.673 91.2951L130.601 92.2261L130.315 94.0166Z" fill="#8E9BA1"/>
<path d="M133.537 96.2368V88.9316H135.256V94.518H136.903V96.2368H133.537Z" fill="#8E9BA1"/>
<path d="M139.625 94.4457V93.443H141.344V94.4457C141.344 94.7322 141.415 94.8754 141.702 94.8754C141.988 94.8754 142.06 94.7322 142.06 94.4457V94.016C142.06 93.5146 141.559 93.2998 141.057 93.0133C140.413 92.6552 139.697 92.1539 139.697 91.0796V90.7215C139.697 89.4323 140.413 88.8594 141.702 88.8594C142.991 88.8594 143.636 89.4323 143.636 90.5782V91.3661H141.988V90.7215C141.988 90.3634 141.917 90.2201 141.63 90.2201C141.344 90.2201 141.272 90.3634 141.272 90.7215V90.9363C141.272 91.366 141.702 91.5809 142.275 91.8674C142.919 92.2255 143.707 92.7268 143.707 93.8011V94.5173C143.707 95.7348 143.063 96.3794 141.63 96.3794C140.198 96.3078 139.625 95.7348 139.625 94.4457Z" fill="#8E9BA1"/>
<path d="M144.352 94.1599V88.9316H145.999V94.0882C145.999 94.5896 146.07 94.7328 146.429 94.7328C146.715 94.7328 146.858 94.5896 146.858 94.0882V88.9316H148.505V94.1599C148.505 95.6639 147.718 96.3084 146.429 96.3084C145.139 96.3084 144.352 95.6639 144.352 94.1599Z" fill="#8E9BA1"/>
<path d="M149.15 94.4457V93.443H150.869V94.4457C150.869 94.7322 150.941 94.8754 151.227 94.8754C151.514 94.8754 151.585 94.7322 151.585 94.4457V94.016C151.585 93.5146 151.084 93.2998 150.583 93.0133C149.938 92.6552 149.222 92.1539 149.222 91.0796V90.7215C149.222 89.4323 149.938 88.8594 151.227 88.8594C152.516 88.8594 153.161 89.4323 153.161 90.5782V91.3661H151.514V90.7215C151.514 90.3634 151.442 90.2201 151.156 90.2201C150.869 90.2201 150.798 90.3634 150.798 90.7215V90.9363C150.798 91.366 151.227 91.5809 151.8 91.8674C152.445 92.2255 153.233 92.7268 153.233 93.8011V94.5173C153.233 95.7348 152.588 96.3794 151.156 96.3794C149.723 96.3078 149.15 95.7348 149.15 94.4457Z" fill="#8E9BA1"/>
<path d="M155.597 94.0166V96.2368H153.95V88.9316H156.027C157.46 88.9316 158.104 89.5046 158.104 90.7221V92.0113C158.104 93.2288 157.531 93.945 156.027 93.945H155.597V94.0166ZM155.597 90.2924V92.5126H155.956C156.314 92.5126 156.457 92.3694 156.457 92.0113V90.8654C156.457 90.5073 156.314 90.364 155.956 90.364H155.597V90.2924Z" fill="#8E9BA1"/>
<path d="M162.329 96.2368H158.748V88.9316H162.257V90.4357H160.395V91.7964H162.043V93.3004H160.395V94.6612H162.329V96.2368Z" fill="#8E9BA1"/>
<path d="M164.478 96.2368H162.974V88.9316H164.478L165.767 92.5126L165.91 92.8707L165.838 92.2261V88.9316H167.342V96.2368H165.91L164.549 92.6559L164.478 92.2261V92.9423V96.2368Z" fill="#8E9BA1"/>
<path d="M167.987 94.4457V93.443H169.706V94.4457C169.706 94.7322 169.778 94.8754 170.064 94.8754C170.351 94.8754 170.422 94.7322 170.422 94.4457V94.016C170.422 93.5146 169.921 93.2998 169.42 93.0133C168.775 92.6552 168.059 92.1539 168.059 91.0796V90.7215C168.059 89.4323 168.775 88.8594 170.064 88.8594C171.353 88.8594 171.998 89.4323 171.998 90.5782V91.3661H170.351V90.7215C170.351 90.3634 170.279 90.2201 169.993 90.2201C169.706 90.2201 169.635 90.3634 169.635 90.7215V90.9363C169.635 91.366 170.064 91.5809 170.637 91.8674C171.282 92.2255 172.07 92.7268 172.07 93.8011V94.5173C172.07 95.7348 171.425 96.3794 169.993 96.3794C168.489 96.3078 167.987 95.7348 167.987 94.4457Z" fill="#8E9BA1"/>
<path d="M172.643 96.2368V94.6612H173.43V90.5073H172.643V88.9316H175.794V90.5073H175.006V94.6612H175.794V96.2368H172.643Z" fill="#8E9BA1"/>
<path d="M176.295 94.1592V91.008C176.295 89.5039 177.154 88.8594 178.444 88.8594C179.733 88.8594 180.592 89.5756 180.592 91.008V94.1592C180.592 95.6632 179.733 96.3078 178.444 96.3078C177.154 96.3078 176.295 95.6632 176.295 94.1592ZM178.945 94.016V91.0796C178.945 90.5066 178.873 90.2918 178.515 90.2918C178.157 90.2918 178.085 90.5066 178.085 91.0796V94.016C178.085 94.5889 178.157 94.8038 178.515 94.8038C178.873 94.8038 178.945 94.5889 178.945 94.016Z" fill="#8E9BA1"/>
<path d="M182.883 96.2368H181.379V88.9316H182.883L184.172 92.5126L184.315 92.8707L184.244 92.2261V88.9316H185.748V96.2368H184.315L183.026 92.6559L182.883 92.2261V92.9423V96.2368Z" fill="#8E9BA1"/>
<path d="M87.1289 66.4431C86.6992 66.4431 86.2694 66.2998 85.983 66.0134C85.6965 65.7269 85.5532 65.2972 85.5532 64.8674V57.2758C85.5532 56.2731 85.3384 55.4853 84.837 55.0556C84.3357 54.5543 83.6911 54.3394 82.9033 54.3394C82.0439 54.3394 81.3993 54.6259 80.898 55.1988C80.325 55.7718 80.1102 56.488 80.1102 57.419V64.8674C80.1102 65.2972 79.9669 65.7269 79.6804 66.0134C79.394 66.2998 78.9643 66.5147 78.5345 66.5147C78.1048 66.5147 77.6751 66.3715 77.3886 66.085C77.1021 65.7985 76.9589 65.3688 76.9589 64.9391V57.2758C76.9589 56.2731 76.7441 55.4853 76.2427 55.0556C75.7414 54.5543 75.0968 54.3394 74.309 54.3394C73.4496 54.3394 72.805 54.6259 72.232 55.1988C71.6591 55.7718 71.4442 56.488 71.4442 57.419V64.8674C71.4442 65.2972 71.301 65.7269 71.0145 66.0134C70.728 66.2998 70.2983 66.5147 69.8686 66.5147C69.4389 66.5147 69.0092 66.3715 68.7227 66.085C68.4362 65.7985 68.293 65.3688 68.293 64.9391V53.1219C68.293 52.6205 68.4362 52.2624 68.7943 51.9043C69.0808 51.6179 69.5105 51.4746 69.9402 51.4746C70.4416 51.4746 70.7996 51.6179 71.0861 51.9043C71.2294 52.0476 71.3726 52.2624 71.4442 52.4773C71.6591 52.3341 71.8023 52.1908 72.0172 52.0476C72.8766 51.5462 73.8077 51.2598 74.8819 51.2598C75.8846 51.2598 76.8873 51.4746 77.6751 51.976C78.1764 52.2624 78.6778 52.6922 79.0359 53.1935C79.4656 52.7638 79.8953 52.4057 80.4683 52.0476C81.3993 51.5462 82.4736 51.2598 83.6195 51.2598C84.6222 51.2598 85.6249 51.4746 86.4127 51.976C87.2005 52.4773 87.8451 53.1219 88.3464 54.0529C88.7761 54.9123 88.991 56.0583 88.991 57.2758V64.7958C88.991 65.2255 88.8477 65.6553 88.5613 65.9417C87.9883 66.2998 87.5586 66.4431 87.1289 66.4431Z" fill="#AF6D04"/>
<path d="M114.559 66.5138C113.556 66.5138 112.697 66.2273 111.909 65.726C111.121 65.2246 110.548 64.5084 110.047 63.649C109.617 62.7896 109.403 61.7869 109.403 60.7126V54.3385H108.4C107.97 54.3385 107.54 54.1953 107.254 53.9088C106.967 53.6223 106.824 53.2642 106.824 52.8345C106.824 52.4048 106.967 51.9751 107.254 51.6886C107.54 51.4021 107.899 51.2589 108.4 51.2589H109.403V47.0333C109.403 46.532 109.546 46.1023 109.904 45.8158C110.19 45.4577 110.62 45.3145 111.121 45.3145C111.623 45.3145 111.981 45.4577 112.339 45.8158C112.625 46.1739 112.84 46.532 112.84 47.0333V51.2589H114.917C115.347 51.2589 115.777 51.4021 116.063 51.6886C116.35 51.9751 116.493 52.3332 116.493 52.8345C116.493 53.2642 116.35 53.6223 116.063 53.9088C115.777 54.1953 115.419 54.3385 114.917 54.3385H112.84V60.7126C112.84 61.4288 113.055 62.0018 113.413 62.4315C113.771 62.8612 114.201 63.0761 114.702 63.0761H115.633C116.063 63.0761 116.421 63.2193 116.708 63.5774C116.994 63.8639 117.137 64.2936 117.137 64.7949C117.137 65.2963 116.923 65.726 116.564 66.0125C116.206 66.2989 115.777 66.5138 115.204 66.5138H114.559Z" fill="#AF6D04"/>
<path d="M98.0145 66.5134C95.293 66.5134 93.0728 65.2242 91.4255 62.7176C90.9242 61.8581 90.6377 60.9271 90.4945 59.996C90.4229 59.5663 90.4229 59.2798 90.4229 58.9217C90.4229 56.1286 91.712 53.9084 94.3619 52.2611C95.6511 51.6166 96.8686 51.3301 98.0145 51.3301C100.951 51.3301 103.243 52.7625 104.818 55.484C105.391 56.5583 105.678 57.7758 105.678 59.065V59.3514C105.535 60.3541 104.962 60.9271 104.174 60.9271H94.0754L94.1471 61.1419C94.5768 62.0014 95.5795 63.3621 98.0861 63.4338C99.232 63.4338 100.02 63.0757 100.664 62.7892L100.736 62.7176C100.808 62.7176 100.879 62.6459 100.879 62.6459C100.951 62.6459 101.094 62.6459 101.166 62.6459C102.598 62.6459 102.598 64.0067 102.598 64.1499V64.2932C102.67 66.4418 98.0861 66.5134 98.0145 66.5134ZM97.8713 54.4813C97.1551 54.4813 96.5105 54.6246 95.9376 54.911C94.1471 55.7705 93.8606 57.4177 93.8606 57.4893V57.6326H102.455L102.383 57.4177C102.383 57.4177 102.312 57.3461 102.312 57.2745C102.168 56.7731 101.595 55.1259 99.5185 54.5529C99.1604 54.4097 98.8023 54.3381 98.4442 54.3381H97.8713V54.4813Z" fill="#AF6D04"/>
<path d="M63.6372 53.5503C62.0616 52.0463 60.2711 51.3301 58.3374 51.3301C56.8334 51.3301 55.401 51.8314 54.0403 52.7625C51.8917 54.4097 50.8174 56.4867 50.8174 58.9217C50.8174 60.569 51.3903 62.1446 52.4646 63.6486C54.1835 65.5107 56.1172 66.5134 58.1942 66.5134H58.6239C59.6982 66.5134 60.8441 66.2269 62.0616 65.654C64.7115 64.0783 66.0723 61.7865 66.0723 58.9933C65.9291 56.9164 65.1413 55.1259 63.6372 53.5503ZM58.3374 63.2189C55.974 63.2189 54.0403 61.2852 54.0403 58.9217C54.0403 56.5583 55.974 54.6246 58.3374 54.6246C60.7009 54.6246 62.6346 56.5583 62.6346 58.9217C62.6346 61.2852 60.7009 63.2189 58.3374 63.2189Z" fill="#AF6D04"/>
<path d="M46.9503 51.3303C46.449 51.3303 46.0909 51.1871 45.7328 50.829C45.3747 50.4709 45.2314 50.1128 45.2314 49.6114C45.2314 49.1101 45.3747 48.752 45.7328 48.3939C46.0909 48.0358 46.449 47.8926 46.9503 47.8926C47.4516 47.8926 47.8097 48.0358 48.1678 48.3939C48.5259 48.752 48.6692 49.1101 48.6692 49.6114C48.6692 50.1128 48.5259 50.4709 48.1678 50.829C47.8814 51.1871 47.4516 51.3303 46.9503 51.3303Z" fill="#AF6D04"/>
<path d="M46.9503 66.443C46.449 66.443 46.0193 66.2998 45.7328 65.9417C45.3747 65.5836 45.2314 65.2255 45.2314 64.7241V54.3393C45.2314 53.838 45.3747 53.4083 45.7328 53.0502C46.0909 52.7637 46.449 52.5488 46.9503 52.5488C47.4516 52.5488 47.8814 52.6921 48.2395 53.0502C48.5259 53.3366 48.7408 53.7664 48.7408 54.3393V64.7241C48.7408 65.2255 48.5976 65.6552 48.2395 65.9417C47.8814 66.2998 47.4516 66.443 46.9503 66.443Z" fill="#AF6D04"/>
<path d="M42.5816 63.8639L38.1412 56.2006C38.1412 56.2006 41.1492 54.5534 41.1492 51.2589V50.8292C41.1492 49.8981 40.9344 48.9671 40.5047 48.036C39.1439 45.8158 37.3534 44.6699 35.2048 44.6699H30.7644C29.9766 44.6699 29.1172 44.8848 29.1172 46.532V64.7233C29.1172 66.9435 32.6265 66.9435 32.6265 64.7233V57.1317H34.5603H34.6319L39.502 65.5828C39.7169 66.0125 40.075 66.299 40.5763 66.3706C41.006 66.5138 41.4357 66.4422 41.8654 66.1557C42.2951 65.8693 42.5816 65.5828 42.7249 65.0814C42.8681 64.7233 42.7965 64.2936 42.5816 63.8639ZM35.2048 53.6223H34.99H32.6265V50.9724V50.9008V50.8292V48.1793H34.1305H35.2048C35.2048 48.1793 37.7831 48.1793 37.7831 50.9008C37.7831 53.694 35.2048 53.6223 35.2048 53.6223Z" fill="#AF6D04"/>
<path d="M25.6797 66.7279C25.6797 66.7279 27.1121 67.4441 30.7647 67.3009C30.7647 67.3009 38.0698 67.086 34.6321 66.2266C34.6321 66.2266 36.8523 66.4414 35.4199 67.2292C35.4199 67.2292 34.274 67.8738 30.7647 67.8738C30.7647 67.8738 26.1094 67.9454 25.6797 66.7279Z" fill="#00A3AD"/>
<path d="M31.0514 69.021C23.5314 69.021 17.3721 68.1616 17.3721 67.0157C17.3721 66.6576 18.16 66.2279 19.5207 65.9414C17.5154 66.3711 16.2979 66.8725 16.2979 67.517C16.2979 68.8778 22.672 69.9521 30.4785 69.9521C38.285 69.9521 44.6591 68.8778 44.6591 67.517C44.6591 67.4454 44.6591 67.3738 44.5875 67.3738C43.5132 68.3048 37.8553 69.021 31.0514 69.021Z" fill="#00A3AD"/>
<path d="M49.5997 66.4414C50.4592 66.7995 50.9605 67.2292 50.9605 67.6589C50.9605 69.5927 41.5784 71.1683 30.0476 71.1683C18.5169 71.1683 9.20641 69.6643 9.20641 67.6589C8.91993 67.9454 8.70508 68.2319 8.70508 68.4468C8.70508 70.5953 18.5885 72.3858 30.7638 72.3858C42.9391 72.3858 52.8226 70.5953 52.8226 68.4468C52.8226 67.7306 51.6051 67.086 49.5997 66.4414Z" fill="#00A3AD"/>
<path d="M150.87 45.8874H149.867V45.3145H152.517V45.8874H151.514V48.5373H150.87V45.8874ZM152.804 45.3145H153.377L154.594 46.8901L155.812 45.3145H156.385V48.5373H155.74V46.3171L154.594 47.7495L153.448 46.3171V48.5373H152.804V45.3145Z" fill="#00A3AD"/>
<path d="M139.052 66.4422C138.622 66.4422 137.906 66.2273 137.906 65.3679V46.532C137.906 45.3861 138.336 45.3145 138.909 45.3145H143.493C145.426 45.3145 147.074 46.3887 148.363 48.4657C148.721 49.2535 148.936 50.113 148.936 50.9724V51.4021C148.936 54.4101 146.214 55.9141 146.142 55.9141L145.498 56.2722L150.44 64.7949C150.583 65.0814 150.654 65.3679 150.583 65.6544C150.511 65.9408 150.368 66.1557 150.082 66.2989C149.867 66.4422 149.723 66.4422 149.509 66.4422C149.437 66.4422 149.365 66.4422 149.222 66.3705C148.936 66.2989 148.721 66.1557 148.578 65.8692L143.349 56.7736H140.126V65.3679C140.198 66.3705 139.267 66.4422 139.052 66.4422ZM140.198 54.5534H143.493C143.564 54.5534 144.352 54.5534 145.14 54.1236C145.928 53.6939 146.787 52.8345 146.787 51.044C146.787 48.2508 144.638 47.5347 143.421 47.5347H140.126V54.5534H140.198Z" fill="#00A3AD"/>
<path d="M124.012 66.5138C123.726 66.5138 123.439 66.4422 123.296 66.2273C123.081 66.0124 123.01 65.7976 123.01 65.5111V46.3887C123.01 46.1023 123.081 45.8158 123.296 45.6009C123.511 45.3861 123.726 45.3145 124.084 45.3145H134.755C135.113 45.3145 135.328 45.3861 135.543 45.6009C135.758 45.7442 135.83 46.0306 135.83 46.3171C135.83 46.6036 135.758 46.8185 135.543 46.9617C135.328 47.1049 135.113 47.2482 134.755 47.2482H125.158V54.9114H131.962C132.32 54.9114 132.535 54.9831 132.75 55.1979C132.965 55.3412 133.036 55.556 133.036 55.8425C133.036 56.129 132.965 56.3438 132.75 56.4871C132.535 56.6303 132.32 56.7736 131.962 56.7736H125.158V64.6517H134.755C135.113 64.6517 135.328 64.7233 135.543 64.9382C135.686 65.0814 135.83 65.2963 135.83 65.5827C135.83 65.8692 135.758 66.0841 135.543 66.2989C135.328 66.5138 135.113 66.5854 134.755 66.5854H124.012V66.5138Z" fill="#00A3AD"/>
<path d="M189.401 94.1592V93.5862H190.332V94.0876C190.332 94.8754 190.547 95.1619 191.263 95.1619C191.98 95.1619 192.195 94.7321 192.195 94.016V92.87C192.195 92.2971 191.908 91.939 191.335 91.939C190.834 91.939 190.547 92.2255 190.404 92.5836L190.332 92.7984L189.473 92.5119L189.831 89.0742H193.054V89.1458C193.054 89.862 192.911 89.9336 192.123 89.9336H190.619C190.547 90.5066 190.476 91.4377 190.404 91.939C190.619 91.5093 190.977 91.1512 191.693 91.1512C192.696 91.1512 193.126 91.7957 193.126 92.87V94.1592C193.126 95.3767 192.481 96.0213 191.263 96.0213C190.046 96.0213 189.401 95.52 189.401 94.1592Z" fill="#8E9BA1"/>
<path d="M193.842 93.8734V91.0802C193.842 89.7195 194.558 88.9316 195.776 88.9316C196.993 88.9316 197.709 89.6478 197.709 91.0802V93.8734C197.709 95.3058 196.993 96.022 195.776 96.022C194.63 96.022 193.842 95.3774 193.842 93.8734ZM196.85 93.8018V91.1518C196.85 90.2924 196.563 89.7911 195.847 89.7911C195.131 89.7911 194.844 90.2924 194.844 91.1518V93.8018C194.844 94.6612 195.131 95.1625 195.847 95.1625C196.492 95.1625 196.85 94.7328 196.85 93.8018Z" fill="#8E9BA1"/>
<path d="M198.711 93.8734V91.0802C198.711 89.7195 199.427 88.9316 200.645 88.9316C201.862 88.9316 202.578 89.6478 202.578 91.0802V93.8734C202.578 95.3058 201.862 96.022 200.645 96.022C199.427 96.022 198.711 95.3774 198.711 93.8734ZM201.647 93.8018V91.1518C201.647 90.2924 201.361 89.7911 200.645 89.7911C199.928 89.7911 199.642 90.2924 199.642 91.1518V93.8018C199.642 94.6612 199.928 95.1625 200.645 95.1625C201.361 95.1625 201.647 94.7328 201.647 93.8018Z" fill="#8E9BA1"/>
<path d="M205.157 95.8786H204.298V90.3639H205.014L205.086 91.1518C205.229 90.5788 205.659 90.2207 206.303 90.2207C206.948 90.2207 207.377 90.5788 207.449 91.1518C207.664 90.5788 208.022 90.2207 208.595 90.2207C209.454 90.2207 209.884 90.7937 209.884 91.868V95.8786H209.025V92.0112C209.025 91.3666 208.81 91.0085 208.309 91.0085C207.736 91.0085 207.521 91.4382 207.521 92.0112V95.8786H206.661V92.0112C206.661 91.4382 206.518 91.0085 205.945 91.0085C205.372 91.0085 205.157 91.5099 205.157 92.226V95.8786Z" fill="#8E9BA1"/>
<path d="M212.248 97.8111C211.102 97.8111 210.672 97.453 210.672 96.8801C210.672 96.4504 211.03 96.0923 211.675 95.949C211.03 95.8774 210.672 95.5909 210.672 95.0896C210.672 94.5882 210.958 94.3018 211.603 94.2302C211.102 94.0153 210.815 93.6572 210.815 93.0126V91.8667C210.815 91.0789 211.316 90.5059 212.176 90.3627H212.319C213.035 90.2195 213.25 90.0762 213.25 89.5749V89.2168H214.253V89.4317C214.253 90.0762 213.966 90.5059 213.035 90.5059C213.107 90.5059 213.107 90.5059 213.179 90.5059C213.823 90.5776 214.253 91.1505 214.253 91.7951V92.941C214.253 93.8721 213.608 94.445 212.534 94.445H212.391C211.675 94.445 211.46 94.5166 211.46 94.8031C211.46 95.018 211.603 95.1612 212.176 95.0896H213.107C214.181 95.0896 214.611 95.5909 214.611 96.3071C214.611 97.0949 214.038 97.7395 212.462 97.7395H212.248V97.8111ZM212.606 97.0233C213.393 97.0233 213.752 96.7368 213.752 96.3787C213.752 96.0923 213.537 95.8774 212.964 95.8774H212.319C211.889 95.949 211.531 96.2355 211.531 96.522C211.531 96.8084 211.818 96.9517 212.319 96.9517H212.606V97.0233ZM213.393 92.941V91.7951C213.393 91.2938 213.179 90.9357 212.606 90.9357C212.534 90.9357 212.391 90.9357 212.319 91.0073C211.961 91.1505 211.818 91.437 211.818 91.8667V93.0126C211.818 93.5856 212.104 93.8004 212.606 93.8004C213.107 93.8004 213.393 93.4423 213.393 92.941Z" fill="#8E9BA1"/>
<path d="M189.401 94.1579V93.5849H190.332V94.0863C190.332 94.8741 190.547 95.1606 191.263 95.1606C191.98 95.1606 192.195 94.7308 192.195 94.0147V92.8687C192.195 92.2958 191.908 91.9377 191.335 91.9377C190.834 91.9377 190.547 92.2242 190.404 92.5823L190.332 92.7971L189.473 92.5823L189.831 89.1445H193.054V89.2162C193.054 89.9323 192.911 90.004 192.123 90.004H190.619C190.547 90.5769 190.476 91.508 190.404 92.0093C190.619 91.5796 190.977 91.2215 191.693 91.2215C192.696 91.2215 193.126 91.8661 193.126 92.9404V94.2295C193.126 95.447 192.481 96.0916 191.263 96.0916C190.046 96.02 189.401 95.5187 189.401 94.1579Z" fill="#8E9BA1"/>
<path d="M193.913 93.8721V91.1505C193.913 89.7898 194.629 89.002 195.847 89.002C197.064 89.002 197.781 89.7181 197.781 91.1505V93.9437C197.781 95.3761 197.064 96.0207 195.847 96.0207C194.629 96.0207 193.913 95.3045 193.913 93.8721ZM196.849 93.8721V91.1505C196.849 90.2911 196.563 89.7898 195.847 89.7898C195.131 89.7898 194.844 90.2911 194.844 91.1505V93.8004C194.844 94.6599 195.131 95.0896 195.847 95.0896C196.491 95.1612 196.849 94.7315 196.849 93.8721Z" fill="#8E9BA1"/>
<path d="M198.711 93.8721V91.1505C198.711 89.7898 199.427 89.002 200.645 89.002C201.862 89.002 202.578 89.7181 202.578 91.1505V93.9437C202.578 95.3761 201.862 96.0207 200.645 96.0207C199.427 96.0207 198.711 95.3045 198.711 93.8721ZM201.647 93.8721V91.1505C201.647 90.2911 201.361 89.7898 200.645 89.7898C199.928 89.7898 199.642 90.2911 199.642 91.1505V93.8004C199.642 94.6599 199.928 95.0896 200.645 95.0896C201.361 95.1612 201.647 94.7315 201.647 93.8721Z" fill="#8E9BA1"/>
<path d="M205.23 95.8773H204.37V90.4343H205.086L205.158 91.2221C205.301 90.6491 205.731 90.291 206.375 90.291C207.02 90.291 207.378 90.6491 207.521 91.2221C207.736 90.6491 208.094 90.291 208.667 90.291C209.527 90.291 209.956 90.864 209.956 91.9383V95.8773H209.097V92.0815C209.097 91.4369 208.882 91.0788 208.381 91.0788C207.808 91.0788 207.593 91.5085 207.593 92.0815V95.8773H206.734V92.0099C206.734 91.4369 206.59 91.0072 206.017 91.0072C205.444 91.0072 205.23 91.5085 205.23 92.1531V95.8773Z" fill="#8E9BA1"/>
<path d="M212.248 97.7395C211.173 97.7395 210.672 97.3814 210.672 96.8084C210.672 96.3787 211.03 96.0206 211.675 95.8774C211.03 95.8058 210.672 95.5193 210.672 95.018C210.672 94.5166 210.958 94.2301 211.603 94.1585C211.102 93.9437 210.815 93.5856 210.815 92.941V91.8667C210.815 91.0789 211.316 90.5059 212.104 90.3627H212.248C212.964 90.2195 213.179 90.0762 213.179 89.5749V89.2168H214.181V89.4317C214.181 90.0762 213.966 90.5059 213.035 90.5059C213.107 90.5059 213.107 90.5059 213.179 90.5059C213.823 90.5776 214.253 91.1505 214.253 91.7951V92.941C214.253 93.8721 213.608 94.445 212.534 94.445H212.391C211.675 94.445 211.46 94.5166 211.46 94.8031C211.46 95.018 211.603 95.1612 212.176 95.0896H213.107C214.181 95.0896 214.611 95.5909 214.611 96.3071C214.611 97.0949 214.038 97.7395 212.462 97.7395H212.248ZM212.606 97.0233C213.393 97.0233 213.752 96.7368 213.752 96.3787C213.752 96.0923 213.537 95.8774 212.964 95.8774H212.319C211.889 95.949 211.531 96.2355 211.531 96.522C211.531 96.8084 211.818 96.9517 212.319 96.9517H212.606V97.0233ZM213.393 92.941V91.8667C213.393 91.3654 213.179 91.0073 212.606 91.0073C212.534 91.0073 212.391 91.0073 212.319 91.0789C211.961 91.2221 211.818 91.5086 211.818 91.8667V92.941C211.818 93.4423 212.104 93.7288 212.606 93.7288C213.107 93.8004 213.393 93.4423 213.393 92.941Z" fill="#8E9BA1"/>
<path d="M214.897 95.8781L216.473 89.0742H217.404L215.829 95.8781H214.897Z" fill="#8E9BA1"/>
<path d="M217.978 94.1579V93.5849H218.909V94.0863C218.909 94.8741 219.123 95.1606 219.84 95.1606C220.556 95.1606 220.771 94.7308 220.771 94.0147V92.8687C220.771 92.2958 220.484 91.9377 219.911 91.9377C219.41 91.9377 219.123 92.2242 218.98 92.5823L218.909 92.7971L218.049 92.5823L218.407 89.1445H221.63V89.2162C221.63 89.9323 221.487 90.004 220.699 90.004H219.195C219.123 90.5769 219.052 91.508 218.98 92.0093C219.195 91.5796 219.553 91.2215 220.269 91.2215C221.272 91.2215 221.702 91.8661 221.702 92.9404V94.2295C221.702 95.447 221.057 96.0916 219.84 96.0916C218.622 96.02 217.978 95.5187 217.978 94.1579Z" fill="#8E9BA1"/>
<path d="M224.351 95.8773H223.491V90.4343H224.207L224.279 91.2221C224.422 90.6491 224.852 90.291 225.497 90.291C226.141 90.291 226.499 90.6491 226.642 91.2221C226.857 90.6491 227.215 90.291 227.788 90.291C228.648 90.291 229.078 90.864 229.078 91.9383V95.8773H228.218V92.0815C228.218 91.4369 228.003 91.0788 227.502 91.0788C226.929 91.0788 226.714 91.5085 226.714 92.0815V95.8773H225.855V92.0099C225.855 91.4369 225.711 91.0072 225.138 91.0072C224.565 91.0072 224.351 91.5085 224.351 92.1531V95.8773Z" fill="#8E9BA1"/>
<path d="M230.224 95.8781V89.0742H231.083V95.0186H233.16V95.8781H230.224Z" fill="#8E9BA1"/>
<path d="M18.6043 115.205C20.1033 115.205 21.2166 114.37 21.451 113.076H20.5574C20.3328 113.892 19.5857 114.395 18.6043 114.395C17.2469 114.395 16.3973 113.286 16.3973 111.519C16.3973 109.751 17.2469 108.638 18.5994 108.638C19.5711 108.638 20.323 109.209 20.5574 110.117H21.451C21.241 108.76 20.0838 107.827 18.5994 107.827C16.6853 107.827 15.4939 109.243 15.4939 111.519C15.4939 113.789 16.6902 115.205 18.6043 115.205ZM24.3693 114.395C23.7589 114.395 23.3048 114.082 23.3048 113.545C23.3048 113.018 23.6564 112.739 24.4571 112.686L25.8732 112.593V113.076C25.8732 113.828 25.2335 114.395 24.3693 114.395ZM24.213 115.132C24.9161 115.132 25.4923 114.824 25.8341 114.263H25.9122V115.039H26.713V111.436C26.713 110.342 25.9952 109.683 24.7111 109.683C23.588 109.683 22.7579 110.239 22.6456 111.084H23.4952C23.6124 110.669 24.0519 110.43 24.6818 110.43C25.4679 110.43 25.8732 110.786 25.8732 111.436V111.914L24.3546 112.007C23.129 112.08 22.4357 112.622 22.4357 113.564C22.4357 114.526 23.1925 115.132 24.213 115.132ZM28.0737 111.216C28.0737 111.978 28.5229 112.402 29.5092 112.642L30.4125 112.861C30.9741 112.998 31.2475 113.242 31.2475 113.604C31.2475 114.087 30.7397 114.424 30.0317 114.424C29.3578 114.424 28.9379 114.141 28.7963 113.696H27.9321C28.0248 114.57 28.8305 115.132 30.0024 115.132C31.1987 115.132 32.1118 114.482 32.1118 113.54C32.1118 112.783 31.6332 112.354 30.642 112.114L29.8315 111.919C29.2114 111.768 28.9184 111.543 28.9184 111.182C28.9184 110.713 29.4067 110.396 30.0317 110.396C30.6664 110.396 31.0766 110.674 31.1889 111.094H32.019C31.9067 110.229 31.1401 109.683 30.0366 109.683C28.9184 109.683 28.0737 110.342 28.0737 111.216ZM35.4597 110.425C36.2947 110.425 36.8513 111.04 36.8709 111.973H33.9705C34.0339 111.04 34.6199 110.425 35.4597 110.425ZM36.8464 113.677C36.6267 114.141 36.1677 114.39 35.489 114.39C34.5955 114.39 34.0144 113.73 33.9705 112.69V112.651H37.7546V112.329C37.7546 110.693 36.8904 109.683 35.4695 109.683C34.0242 109.683 33.0964 110.757 33.0964 112.412C33.0964 114.077 34.0095 115.132 35.4695 115.132C36.6218 115.132 37.4324 114.58 37.6863 113.677H36.8464ZM38.8809 111.216C38.8809 111.978 39.3302 112.402 40.3165 112.642L41.2198 112.861C41.7813 112.998 42.0548 113.242 42.0548 113.604C42.0548 114.087 41.5469 114.424 40.8389 114.424C40.1651 114.424 39.7452 114.141 39.6036 113.696H38.7393C38.8321 114.57 39.6378 115.132 40.8096 115.132C42.0059 115.132 42.919 114.482 42.919 113.54C42.919 112.783 42.4405 112.354 41.4493 112.114L40.6387 111.919C40.0186 111.768 39.7257 111.543 39.7257 111.182C39.7257 110.713 40.2139 110.396 40.8389 110.396C41.4737 110.396 41.8839 110.674 41.9962 111.094H42.8262C42.7139 110.229 41.9473 109.683 40.8438 109.683C39.7257 109.683 38.8809 110.342 38.8809 111.216ZM49.0827 115.132C50.5818 115.132 51.5095 114.097 51.5095 112.407C51.5095 110.713 50.5818 109.683 49.0827 109.683C47.5837 109.683 46.656 110.713 46.656 112.407C46.656 114.097 47.5837 115.132 49.0827 115.132ZM49.0827 114.375C48.0866 114.375 47.5251 113.652 47.5251 112.407C47.5251 111.157 48.0866 110.439 49.0827 110.439C50.0788 110.439 50.6404 111.157 50.6404 112.407C50.6404 113.652 50.0788 114.375 49.0827 114.375ZM53.1094 115.039H53.9493V110.479H55.1553V109.775H53.9493V109.214C53.9493 108.638 54.2032 108.345 54.8086 108.345C54.96 108.345 55.1016 108.35 55.2041 108.369V107.686C55.0284 107.651 54.8428 107.637 54.6377 107.637C53.6368 107.637 53.1094 108.14 53.1094 109.189V109.775H52.2354V110.479H53.1094V115.039ZM59.0632 115.039H59.903V111.777C59.903 111.035 60.4352 110.439 61.1237 110.439C61.7878 110.439 62.2223 110.84 62.2223 111.465V115.039H63.0622V111.655C63.0622 110.986 63.5505 110.439 64.2829 110.439C65.0251 110.439 65.3913 110.82 65.3913 111.597V115.039H66.2311V111.401C66.2311 110.298 65.6305 109.683 64.5563 109.683C63.8288 109.683 63.2282 110.049 62.945 110.605H62.8669C62.6227 110.059 62.1247 109.683 61.4118 109.683C60.7087 109.683 60.1813 110.02 59.9421 110.605H59.8639V109.775H59.0632V115.039ZM69.7939 110.425C70.6289 110.425 71.1855 111.04 71.2051 111.973H68.3047C68.3682 111.04 68.9541 110.425 69.7939 110.425ZM71.1807 113.677C70.9609 114.141 70.5019 114.39 69.8232 114.39C68.9297 114.39 68.3486 113.73 68.3047 112.69V112.651H72.0889V112.329C72.0889 110.693 71.2246 109.683 69.8037 109.683C68.3584 109.683 67.4307 110.757 67.4307 112.412C67.4307 114.077 68.3437 115.132 69.8037 115.132C70.9561 115.132 71.7666 114.58 72.0205 113.677H71.1807ZM73.6888 108.413V109.775H72.8392V110.479H73.6888V113.672C73.6888 114.678 74.1234 115.078 75.2073 115.078C75.3734 115.078 75.5345 115.059 75.7005 115.029V114.321C75.5443 114.336 75.4612 114.341 75.3099 114.341C74.763 114.341 74.5286 114.077 74.5286 113.457V110.479H75.7005V109.775H74.5286V108.413H73.6888ZM77.2516 115.039H78.0914V110.479H79.2975V109.775H78.0914V109.214C78.0914 108.638 78.3454 108.345 78.9508 108.345C79.1022 108.345 79.2438 108.35 79.3463 108.369V107.686C79.1705 107.651 78.985 107.637 78.7799 107.637C77.7789 107.637 77.2516 108.14 77.2516 109.189V109.775H76.3776V110.479H77.2516V115.039ZM82.3916 115.132C83.8906 115.132 84.8183 114.097 84.8183 112.407C84.8183 110.713 83.8906 109.683 82.3916 109.683C80.8925 109.683 79.9648 110.713 79.9648 112.407C79.9648 114.097 80.8925 115.132 82.3916 115.132ZM82.3916 114.375C81.3955 114.375 80.8339 113.652 80.8339 112.407C80.8339 111.157 81.3955 110.439 82.3916 110.439C83.3876 110.439 83.9492 111.157 83.9492 112.407C83.9492 113.652 83.3876 114.375 82.3916 114.375ZM86.0667 115.039H86.9065V111.777C86.9065 111.035 87.4876 110.498 88.2884 110.498C88.4544 110.498 88.7571 110.527 88.8255 110.547V109.707C88.718 109.692 88.5423 109.683 88.4055 109.683C87.7073 109.683 87.1018 110.044 86.9456 110.557H86.8675V109.775H86.0667V115.039ZM89.9029 115.039H90.7428V111.777C90.7428 111.035 91.275 110.439 91.9635 110.439C92.6275 110.439 93.0621 110.84 93.0621 111.465V115.039H93.9019V111.655C93.9019 110.986 94.3902 110.439 95.1227 110.439C95.8648 110.439 96.231 110.82 96.231 111.597V115.039H97.0709V111.401C97.0709 110.298 96.4703 109.683 95.3961 109.683C94.6685 109.683 94.068 110.049 93.7848 110.605H93.7066C93.4625 110.059 92.9644 109.683 92.2516 109.683C91.5484 109.683 91.0211 110.02 90.7818 110.605H90.7037V109.775H89.9029V115.039ZM98.5536 115.039H99.3935V109.775H98.5536V115.039ZM98.9735 108.706C99.2958 108.706 99.5595 108.442 99.5595 108.12C99.5595 107.798 99.2958 107.534 98.9735 107.534C98.6513 107.534 98.3876 107.798 98.3876 108.12C98.3876 108.442 98.6513 108.706 98.9735 108.706ZM100.925 115.039H101.765V111.924C101.765 111.001 102.307 110.439 103.147 110.439C103.987 110.439 104.387 110.889 104.387 111.836V115.039H105.227V111.631C105.227 110.381 104.568 109.683 103.386 109.683C102.58 109.683 102.068 110.024 101.804 110.605H101.726V109.775H100.925V115.039ZM109.864 112.603V111.807H106.661V112.603H109.864ZM112.963 114.395C112.352 114.395 111.898 114.082 111.898 113.545C111.898 113.018 112.25 112.739 113.051 112.686L114.467 112.593V113.076C114.467 113.828 113.827 114.395 112.963 114.395ZM112.807 115.132C113.51 115.132 114.086 114.824 114.428 114.263H114.506V115.039H115.307V111.436C115.307 110.342 114.589 109.683 113.305 109.683C112.182 109.683 111.351 110.239 111.239 111.084H112.089C112.206 110.669 112.645 110.43 113.275 110.43C114.061 110.43 114.467 110.786 114.467 111.436V111.914L112.948 112.007C111.723 112.08 111.029 112.622 111.029 113.564C111.029 114.526 111.786 115.132 112.807 115.132ZM116.667 111.216C116.667 111.978 117.116 112.402 118.103 112.642L119.006 112.861C119.568 112.998 119.841 113.242 119.841 113.604C119.841 114.087 119.333 114.424 118.625 114.424C117.951 114.424 117.531 114.141 117.39 113.696H116.526C116.618 114.57 117.424 115.132 118.596 115.132C119.792 115.132 120.705 114.482 120.705 113.54C120.705 112.783 120.227 112.354 119.236 112.114L118.425 111.919C117.805 111.768 117.512 111.543 117.512 111.182C117.512 110.713 118 110.396 118.625 110.396C119.26 110.396 119.67 110.674 119.782 111.094H120.612C120.5 110.229 119.734 109.683 118.63 109.683C117.512 109.683 116.667 110.342 116.667 111.216ZM121.734 111.216C121.734 111.978 122.183 112.402 123.169 112.642L124.073 112.861C124.634 112.998 124.908 113.242 124.908 113.604C124.908 114.087 124.4 114.424 123.692 114.424C123.018 114.424 122.598 114.141 122.457 113.696H121.592C121.685 114.57 122.491 115.132 123.663 115.132C124.859 115.132 125.772 114.482 125.772 113.54C125.772 112.783 125.293 112.354 124.302 112.114L123.492 111.919C122.872 111.768 122.579 111.543 122.579 111.182C122.579 110.713 123.067 110.396 123.692 110.396C124.327 110.396 124.737 110.674 124.849 111.094H125.679C125.567 110.229 124.8 109.683 123.697 109.683C122.579 109.683 121.734 110.342 121.734 111.216ZM129.183 115.132C130.682 115.132 131.61 114.097 131.61 112.407C131.61 110.713 130.682 109.683 129.183 109.683C127.684 109.683 126.757 110.713 126.757 112.407C126.757 114.097 127.684 115.132 129.183 115.132ZM129.183 114.375C128.187 114.375 127.626 113.652 127.626 112.407C127.626 111.157 128.187 110.439 129.183 110.439C130.18 110.439 130.741 111.157 130.741 112.407C130.741 113.652 130.18 114.375 129.183 114.375ZM137.214 111.387C137.068 110.449 136.286 109.683 135.007 109.683C133.532 109.683 132.595 110.747 132.595 112.388C132.595 114.062 133.537 115.132 135.012 115.132C136.277 115.132 137.063 114.419 137.214 113.452H136.364C136.208 114.048 135.715 114.375 135.007 114.375C134.069 114.375 133.464 113.604 133.464 112.388C133.464 111.196 134.06 110.439 135.007 110.439C135.764 110.439 136.228 110.864 136.364 111.387H137.214ZM138.404 115.039H139.244V109.775H138.404V115.039ZM138.824 108.706C139.146 108.706 139.41 108.442 139.41 108.12C139.41 107.798 139.146 107.534 138.824 107.534C138.501 107.534 138.238 107.798 138.238 108.12C138.238 108.442 138.501 108.706 138.824 108.706ZM142.396 114.395C141.786 114.395 141.332 114.082 141.332 113.545C141.332 113.018 141.683 112.739 142.484 112.686L143.9 112.593V113.076C143.9 113.828 143.261 114.395 142.396 114.395ZM142.24 115.132C142.943 115.132 143.519 114.824 143.861 114.263H143.939V115.039H144.74V111.436C144.74 110.342 144.022 109.683 142.738 109.683C141.615 109.683 140.785 110.239 140.673 111.084H141.522C141.639 110.669 142.079 110.43 142.709 110.43C143.495 110.43 143.9 110.786 143.9 111.436V111.914L142.382 112.007C141.156 112.08 140.463 112.622 140.463 113.564C140.463 114.526 141.22 115.132 142.24 115.132ZM146.574 108.413V109.775H145.725V110.479H146.574V113.672C146.574 114.678 147.009 115.078 148.093 115.078C148.259 115.078 148.42 115.059 148.586 115.029V114.321C148.43 114.336 148.347 114.341 148.195 114.341C147.649 114.341 147.414 114.077 147.414 113.457V110.479H148.586V109.775H147.414V108.413H146.574ZM151.807 110.425C152.642 110.425 153.199 111.04 153.218 111.973H150.318C150.381 111.04 150.967 110.425 151.807 110.425ZM153.194 113.677C152.974 114.141 152.515 114.39 151.836 114.39C150.943 114.39 150.362 113.73 150.318 112.69V112.651H154.102V112.329C154.102 110.693 153.238 109.683 151.817 109.683C150.372 109.683 149.444 110.757 149.444 112.412C149.444 114.077 150.357 115.132 151.817 115.132C152.969 115.132 153.78 114.58 154.034 113.677H153.194ZM157.299 115.132C158.026 115.132 158.651 114.785 158.983 114.199H159.061V115.039H159.862V107.686H159.022V110.605H158.949C158.651 110.029 158.031 109.683 157.299 109.683C155.961 109.683 155.087 110.757 155.087 112.407C155.087 114.062 155.951 115.132 157.299 115.132ZM157.494 110.439C158.446 110.439 159.042 111.201 159.042 112.407C159.042 113.623 158.451 114.375 157.494 114.375C156.532 114.375 155.956 113.638 155.956 112.407C155.956 111.182 156.537 110.439 157.494 110.439ZM164.224 115.039H165.064V107.686H164.224V115.039ZM168.246 114.395C167.635 114.395 167.181 114.082 167.181 113.545C167.181 113.018 167.533 112.739 168.334 112.686L169.75 112.593V113.076C169.75 113.828 169.11 114.395 168.246 114.395ZM168.09 115.132C168.793 115.132 169.369 114.824 169.711 114.263H169.789V115.039H170.59V111.436C170.59 110.342 169.872 109.683 168.588 109.683C167.465 109.683 166.634 110.239 166.522 111.084H167.372C167.489 110.669 167.928 110.43 168.558 110.43C169.344 110.43 169.75 110.786 169.75 111.436V111.914L168.231 112.007C167.006 112.08 166.312 112.622 166.312 113.564C166.312 114.526 167.069 115.132 168.09 115.132ZM176.428 111.387C176.281 110.449 175.5 109.683 174.221 109.683C172.746 109.683 171.809 110.747 171.809 112.388C171.809 114.062 172.751 115.132 174.226 115.132C175.49 115.132 176.276 114.419 176.428 113.452H175.578C175.422 114.048 174.929 114.375 174.221 114.375C173.283 114.375 172.678 113.604 172.678 112.388C172.678 111.196 173.273 110.439 174.221 110.439C174.978 110.439 175.441 110.864 175.578 111.387H176.428ZM178.047 108.413V109.775H177.198V110.479H178.047V113.672C178.047 114.678 178.482 115.078 179.566 115.078C179.732 115.078 179.893 115.059 180.059 115.029V114.321C179.903 114.336 179.82 114.341 179.668 114.341C179.121 114.341 178.887 114.077 178.887 113.457V110.479H180.059V109.775H178.887V108.413H178.047ZM181.278 115.039H182.118V109.775H181.278V115.039ZM181.698 108.706C182.02 108.706 182.284 108.442 182.284 108.12C182.284 107.798 182.02 107.534 181.698 107.534C181.376 107.534 181.112 107.798 181.112 108.12C181.112 108.442 181.376 108.706 181.698 108.706ZM188.005 111.387C187.858 110.449 187.077 109.683 185.798 109.683C184.323 109.683 183.386 110.747 183.386 112.388C183.386 114.062 184.328 115.132 185.803 115.132C187.067 115.132 187.854 114.419 188.005 113.452H187.155C186.999 114.048 186.506 114.375 185.798 114.375C184.86 114.375 184.255 113.604 184.255 112.388C184.255 111.196 184.851 110.439 185.798 110.439C186.555 110.439 187.019 110.864 187.155 111.387H188.005ZM193.548 114.395C192.938 114.395 192.484 114.082 192.484 113.545C192.484 113.018 192.836 112.739 193.636 112.686L195.052 112.593V113.076C195.052 113.828 194.413 114.395 193.548 114.395ZM193.392 115.132C194.095 115.132 194.672 114.824 195.013 114.263H195.091V115.039H195.892V111.436C195.892 110.342 195.174 109.683 193.89 109.683C192.767 109.683 191.937 110.239 191.825 111.084H192.674C192.792 110.669 193.231 110.43 193.861 110.43C194.647 110.43 195.052 110.786 195.052 111.436V111.914L193.534 112.007C192.308 112.08 191.615 112.622 191.615 113.564C191.615 114.526 192.372 115.132 193.392 115.132ZM201.73 111.387C201.584 110.449 200.803 109.683 199.523 109.683C198.049 109.683 197.111 110.747 197.111 112.388C197.111 114.062 198.054 115.132 199.528 115.132C200.793 115.132 201.579 114.419 201.73 113.452H200.881C200.725 114.048 200.231 114.375 199.523 114.375C198.586 114.375 197.98 113.604 197.98 112.388C197.98 111.196 198.576 110.439 199.523 110.439C200.28 110.439 200.744 110.864 200.881 111.387H201.73ZM202.92 115.039H203.76V109.775H202.92V115.039ZM203.34 108.706C203.662 108.706 203.926 108.442 203.926 108.12C203.926 107.798 203.662 107.534 203.34 107.534C203.018 107.534 202.754 107.798 202.754 108.12C202.754 108.442 203.018 108.706 203.34 108.706ZM207.24 115.132C207.967 115.132 208.592 114.785 208.924 114.199H209.003V115.039H209.803V107.686H208.963V110.605H208.89C208.592 110.029 207.972 109.683 207.24 109.683C205.902 109.683 205.028 110.757 205.028 112.407C205.028 114.062 205.892 115.132 207.24 115.132ZM207.435 110.439C208.387 110.439 208.983 111.201 208.983 112.407C208.983 113.623 208.392 114.375 207.435 114.375C206.473 114.375 205.897 113.638 205.897 112.407C205.897 111.182 206.478 110.439 207.435 110.439ZM213.527 115.132C215.026 115.132 215.954 114.097 215.954 112.407C215.954 110.713 215.026 109.683 213.527 109.683C212.028 109.683 211.101 110.713 211.101 112.407C211.101 114.097 212.028 115.132 213.527 115.132ZM213.527 114.375C212.531 114.375 211.97 113.652 211.97 112.407C211.97 111.157 212.531 110.439 213.527 110.439C214.523 110.439 215.085 111.157 215.085 112.407C215.085 113.652 214.523 114.375 213.527 114.375ZM217.08 111.216C217.08 111.978 217.53 112.402 218.516 112.642L219.419 112.861C219.981 112.998 220.254 113.242 220.254 113.604C220.254 114.087 219.746 114.424 219.038 114.424C218.364 114.424 217.945 114.141 217.803 113.696H216.939C217.031 114.57 217.837 115.132 219.009 115.132C220.205 115.132 221.118 114.482 221.118 113.54C221.118 112.783 220.64 112.354 219.649 112.114L218.838 111.919C218.218 111.768 217.925 111.543 217.925 111.182C217.925 110.713 218.413 110.396 219.038 110.396C219.673 110.396 220.083 110.674 220.196 111.094H221.026C220.913 110.229 220.147 109.683 219.043 109.683C217.925 109.683 217.08 110.342 217.08 111.216ZM222.386 115.039H223.226V109.775H222.386V115.039ZM222.806 108.706C223.128 108.706 223.392 108.442 223.392 108.12C223.392 107.798 223.128 107.534 222.806 107.534C222.484 107.534 222.22 107.798 222.22 108.12C222.22 108.442 222.484 108.706 222.806 108.706ZM224.636 111.216C224.636 111.978 225.085 112.402 226.071 112.642L226.974 112.861C227.536 112.998 227.809 113.242 227.809 113.604C227.809 114.087 227.302 114.424 226.594 114.424C225.92 114.424 225.5 114.141 225.358 113.696H224.494C224.587 114.57 225.392 115.132 226.564 115.132C227.761 115.132 228.674 114.482 228.674 113.54C228.674 112.783 228.195 112.354 227.204 112.114L226.393 111.919C225.773 111.768 225.48 111.543 225.48 111.182C225.48 110.713 225.969 110.396 226.594 110.396C227.228 110.396 227.639 110.674 227.751 111.094H228.581C228.469 110.229 227.702 109.683 226.599 109.683C225.48 109.683 224.636 110.342 224.636 111.216ZM38.0549 125.039H38.8948V121.924C38.8948 121.035 39.4123 120.439 40.3547 120.439C41.1506 120.439 41.5705 120.903 41.5705 121.836V125.039H42.4104V121.631C42.4104 120.396 41.7073 119.683 40.594 119.683C39.7883 119.683 39.2366 120.024 38.9729 120.605H38.8948V117.686H38.0549V125.039ZM45.4947 124.395C44.8843 124.395 44.4302 124.082 44.4302 123.545C44.4302 123.018 44.7818 122.739 45.5826 122.686L46.9986 122.593V123.076C46.9986 123.828 46.3589 124.395 45.4947 124.395ZM45.3384 125.132C46.0416 125.132 46.6177 124.824 46.9595 124.263H47.0377V125.039H47.8384V121.436C47.8384 120.342 47.1207 119.683 45.8365 119.683C44.7134 119.683 43.8834 120.239 43.7711 121.084H44.6207C44.7379 120.669 45.1773 120.43 45.8072 120.43C46.5933 120.43 46.9986 120.786 46.9986 121.436V121.914L45.48 122.007C44.2545 122.08 43.5611 122.622 43.5611 123.564C43.5611 124.526 44.3179 125.132 45.3384 125.132ZM53.4227 119.775H52.5243L51.0839 124.111H51.0057L49.5653 119.775H48.6669L50.6151 125.039H51.4745L53.4227 119.775ZM56.3801 120.425C57.215 120.425 57.7717 121.04 57.7912 121.973H54.8908C54.9543 121.04 55.5402 120.425 56.3801 120.425ZM57.7668 123.677C57.5471 124.141 57.0881 124.39 56.4094 124.39C55.5158 124.39 54.9348 123.73 54.8908 122.69V122.651H58.675V122.329C58.675 120.693 57.8107 119.683 56.3898 119.683C54.9445 119.683 54.0168 120.757 54.0168 122.412C54.0168 124.077 54.9299 125.132 56.3898 125.132C57.5422 125.132 58.3527 124.58 58.6066 123.677H57.7668ZM62.6756 125.039H63.5155V121.777C63.5155 121.035 64.0965 120.498 64.8973 120.498C65.0633 120.498 65.3661 120.527 65.4344 120.547V119.707C65.327 119.692 65.1512 119.683 65.0145 119.683C64.3163 119.683 63.7108 120.044 63.5545 120.557H63.4764V119.775H62.6756V125.039ZM68.3673 120.425C69.2023 120.425 69.7589 121.04 69.7785 121.973H66.8781C66.9416 121.04 67.5275 120.425 68.3673 120.425ZM69.7541 123.677C69.5343 124.141 69.0754 124.39 68.3966 124.39C67.5031 124.39 66.922 123.73 66.8781 122.69V122.651H70.6623V122.329C70.6623 120.693 69.798 119.683 68.3771 119.683C66.9318 119.683 66.0041 120.757 66.0041 122.412C66.0041 124.077 66.9172 125.132 68.3771 125.132C69.5295 125.132 70.34 124.58 70.5939 123.677H69.7541ZM71.7886 121.216C71.7886 121.978 72.2378 122.402 73.2241 122.642L74.1274 122.861C74.6889 122.998 74.9624 123.242 74.9624 123.604C74.9624 124.087 74.4546 124.424 73.7466 124.424C73.0727 124.424 72.6528 124.141 72.5112 123.696H71.647C71.7397 124.57 72.5454 125.132 73.7173 125.132C74.9136 125.132 75.8266 124.482 75.8266 123.54C75.8266 122.783 75.3481 122.354 74.3569 122.114L73.5464 121.919C72.9263 121.768 72.6333 121.543 72.6333 121.182C72.6333 120.713 73.1216 120.396 73.7466 120.396C74.3813 120.396 74.7915 120.674 74.9038 121.094H75.7339C75.6216 120.229 74.855 119.683 73.7514 119.683C72.6333 119.683 71.7886 120.342 71.7886 121.216ZM81.3328 119.775H80.493V122.891C80.493 123.813 79.9852 124.365 79.0574 124.365C78.2176 124.365 77.866 123.926 77.866 122.979V119.775H77.0262V123.184C77.0262 124.429 77.6414 125.132 78.823 125.132C79.6287 125.132 80.1902 124.8 80.4539 124.214H80.532V125.039H81.3328V119.775ZM82.8937 125.039H83.7335V117.686H82.8937V125.039ZM85.6459 118.413V119.775H84.7963V120.479H85.6459V123.672C85.6459 124.678 86.0805 125.078 87.1645 125.078C87.3305 125.078 87.4916 125.059 87.6577 125.029V124.321C87.5014 124.336 87.4184 124.341 87.267 124.341C86.7202 124.341 86.4858 124.077 86.4858 123.457V120.479H87.6577V119.775H86.4858V118.413H85.6459ZM90.8787 120.425C91.7136 120.425 92.2703 121.04 92.2898 121.973H89.3894C89.4529 121.04 90.0388 120.425 90.8787 120.425ZM92.2654 123.677C92.0457 124.141 91.5867 124.39 90.908 124.39C90.0144 124.39 89.4334 123.73 89.3894 122.69V122.651H93.1736V122.329C93.1736 120.693 92.3093 119.683 90.8884 119.683C89.4431 119.683 88.5154 120.757 88.5154 122.412C88.5154 124.077 89.4285 125.132 90.8884 125.132C92.0408 125.132 92.8513 124.58 93.1052 123.677H92.2654ZM96.3702 125.132C97.0977 125.132 97.7227 124.785 98.0548 124.199H98.1329V125.039H98.9337V117.686H98.0938V120.605H98.0206C97.7227 120.029 97.1026 119.683 96.3702 119.683C95.0323 119.683 94.1583 120.757 94.1583 122.407C94.1583 124.062 95.0225 125.132 96.3702 125.132ZM96.5655 120.439C97.5177 120.439 98.1134 121.201 98.1134 122.407C98.1134 123.623 97.5225 124.375 96.5655 124.375C95.6036 124.375 95.0274 123.638 95.0274 122.407C95.0274 121.182 95.6085 120.439 96.5655 120.439ZM103.266 125.039H104.106V119.775H103.266V125.039ZM103.686 118.706C104.009 118.706 104.272 118.442 104.272 118.12C104.272 117.798 104.009 117.534 103.686 117.534C103.364 117.534 103.1 117.798 103.1 118.12C103.1 118.442 103.364 118.706 103.686 118.706ZM105.638 125.039H106.478V121.924C106.478 121.001 107.02 120.439 107.859 120.439C108.699 120.439 109.1 120.889 109.1 121.836V125.039H109.939V121.631C109.939 120.381 109.28 119.683 108.099 119.683C107.293 119.683 106.78 120.024 106.517 120.605H106.439V119.775H105.638V125.039ZM116.108 125.132C116.836 125.132 117.461 124.785 117.793 124.199H117.871V125.039H118.672V117.686H117.832V120.605H117.758C117.461 120.029 116.841 119.683 116.108 119.683C114.77 119.683 113.896 120.757 113.896 122.407C113.896 124.062 114.76 125.132 116.108 125.132ZM116.303 120.439C117.256 120.439 117.851 121.201 117.851 122.407C117.851 123.623 117.26 124.375 116.303 124.375C115.341 124.375 114.765 123.638 114.765 122.407C114.765 121.182 115.346 120.439 116.303 120.439ZM122.332 120.425C123.167 120.425 123.724 121.04 123.743 121.973H120.843C120.906 121.04 121.492 120.425 122.332 120.425ZM123.719 123.677C123.499 124.141 123.04 124.39 122.361 124.39C121.468 124.39 120.887 123.73 120.843 122.69V122.651H124.627V122.329C124.627 120.693 123.763 119.683 122.342 119.683C120.896 119.683 119.969 120.757 119.969 122.412C119.969 124.077 120.882 125.132 122.342 125.132C123.494 125.132 124.305 124.58 124.559 123.677H123.719ZM127.496 124.395C126.886 124.395 126.432 124.082 126.432 123.545C126.432 123.018 126.784 122.739 127.584 122.686L129 122.593V123.076C129 123.828 128.361 124.395 127.496 124.395ZM127.34 125.132C128.043 125.132 128.619 124.824 128.961 124.263H129.039V125.039H129.84V121.436C129.84 120.342 129.122 119.683 127.838 119.683C126.715 119.683 125.885 120.239 125.773 121.084H126.622C126.74 120.669 127.179 120.43 127.809 120.43C128.595 120.43 129 120.786 129 121.436V121.914L127.482 122.007C126.256 122.08 125.563 122.622 125.563 123.564C125.563 124.526 126.32 125.132 127.34 125.132ZM131.674 118.413V119.775H130.825V120.479H131.674V123.672C131.674 124.678 132.109 125.078 133.193 125.078C133.359 125.078 133.52 125.059 133.686 125.029V124.321C133.53 124.336 133.447 124.341 133.296 124.341C132.749 124.341 132.514 124.077 132.514 123.457V120.479H133.686V119.775H132.514V118.413H131.674ZM134.935 125.039H135.774V121.924C135.774 121.035 136.292 120.439 137.234 120.439C138.03 120.439 138.45 120.903 138.45 121.836V125.039H139.29V121.631C139.29 120.396 138.587 119.683 137.474 119.683C136.668 119.683 136.116 120.024 135.853 120.605H135.774V117.686H134.935V125.039ZM141.285 126.831L142.052 124.053H141.119L140.656 126.831H141.285ZM146.453 125.039H147.293V121.924C147.293 121.035 147.81 120.439 148.753 120.439C149.549 120.439 149.969 120.903 149.969 121.836V125.039H150.809V121.631C150.809 120.396 150.105 119.683 148.992 119.683C148.186 119.683 147.635 120.024 147.371 120.605H147.293V117.686H146.453V125.039ZM152.526 126.943C153.458 126.943 153.878 126.582 154.327 125.361L156.383 119.775H155.49L154.049 124.106H153.971L152.526 119.775H151.617L153.566 125.044L153.468 125.356C153.248 125.991 152.985 126.221 152.501 126.221C152.384 126.221 152.252 126.216 152.15 126.196V126.914C152.267 126.934 152.413 126.943 152.526 126.943ZM160 119.683C159.282 119.683 158.652 120.049 158.315 120.654H158.237V119.775H157.436V126.797H158.276V124.248H158.354C158.642 124.805 159.248 125.132 160 125.132C161.337 125.132 162.211 124.053 162.211 122.407C162.211 120.752 161.342 119.683 160 119.683ZM159.799 124.375C158.852 124.375 158.252 123.613 158.252 122.407C158.252 121.196 158.852 120.439 159.804 120.439C160.766 120.439 161.342 121.177 161.342 122.407C161.342 123.638 160.766 124.375 159.799 124.375ZM165.623 125.132C167.122 125.132 168.05 124.097 168.05 122.407C168.05 120.713 167.122 119.683 165.623 119.683C164.124 119.683 163.196 120.713 163.196 122.407C163.196 124.097 164.124 125.132 165.623 125.132ZM165.623 124.375C164.627 124.375 164.065 123.652 164.065 122.407C164.065 121.157 164.627 120.439 165.623 120.439C166.619 120.439 167.181 121.157 167.181 122.407C167.181 123.652 166.619 124.375 165.623 124.375ZM169.65 118.413V119.775H168.8V120.479H169.65V123.672C169.65 124.678 170.084 125.078 171.168 125.078C171.334 125.078 171.495 125.059 171.661 125.029V124.321C171.505 124.336 171.422 124.341 171.271 124.341C170.724 124.341 170.489 124.077 170.489 123.457V120.479H171.661V119.775H170.489V118.413H169.65ZM172.91 125.039H173.75V121.924C173.75 121.035 174.267 120.439 175.21 120.439C176.005 120.439 176.425 120.903 176.425 121.836V125.039H177.265V121.631C177.265 120.396 176.562 119.683 175.449 119.683C174.643 119.683 174.091 120.024 173.828 120.605H173.75V117.686H172.91V125.039ZM180.828 120.425C181.663 120.425 182.22 121.04 182.239 121.973H179.339C179.402 121.04 179.988 120.425 180.828 120.425ZM182.215 123.677C181.995 124.141 181.536 124.39 180.857 124.39C179.964 124.39 179.383 123.73 179.339 122.69V122.651H183.123V122.329C183.123 120.693 182.259 119.683 180.838 119.683C179.392 119.683 178.465 120.757 178.465 122.412C178.465 124.077 179.378 125.132 180.838 125.132C181.99 125.132 182.801 124.58 183.055 123.677H182.215ZM184.371 125.039H185.211V121.777C185.211 121.035 185.792 120.498 186.593 120.498C186.759 120.498 187.062 120.527 187.13 120.547V119.707C187.023 119.692 186.847 119.683 186.71 119.683C186.012 119.683 185.406 120.044 185.25 120.557H185.172V119.775H184.371V125.039ZM188.207 125.039H189.047V121.777C189.047 121.035 189.58 120.439 190.268 120.439C190.932 120.439 191.367 120.84 191.367 121.465V125.039H192.207V121.655C192.207 120.986 192.695 120.439 193.427 120.439C194.169 120.439 194.536 120.82 194.536 121.597V125.039H195.375V121.401C195.375 120.298 194.775 119.683 193.701 119.683C192.973 119.683 192.373 120.049 192.089 120.605H192.011C191.767 120.059 191.269 119.683 190.556 119.683C189.853 119.683 189.326 120.02 189.086 120.605H189.008V119.775H188.207V125.039ZM196.858 125.039H197.698V119.775H196.858V125.039ZM197.278 118.706C197.6 118.706 197.864 118.442 197.864 118.12C197.864 117.798 197.6 117.534 197.278 117.534C196.956 117.534 196.692 117.798 196.692 118.12C196.692 118.442 196.956 118.706 197.278 118.706ZM200.851 124.395C200.24 124.395 199.786 124.082 199.786 123.545C199.786 123.018 200.138 122.739 200.939 122.686L202.355 122.593V123.076C202.355 123.828 201.715 124.395 200.851 124.395ZM200.694 125.132C201.398 125.132 201.974 124.824 202.316 124.263H202.394V125.039H203.194V121.436C203.194 120.342 202.477 119.683 201.193 119.683C200.069 119.683 199.239 120.239 199.127 121.084H199.977C200.094 120.669 200.533 120.43 201.163 120.43C201.949 120.43 202.355 120.786 202.355 121.436V121.914L200.836 122.007C199.61 122.08 198.917 122.622 198.917 123.564C198.917 124.526 199.674 125.132 200.694 125.132ZM205.209 126.831L205.976 124.053H205.043L204.58 126.831H205.209ZM17.7237 135.039H18.5636V131.924C18.5636 131.035 19.0812 130.439 20.0236 130.439C20.8195 130.439 21.2394 130.903 21.2394 131.836V135.039H22.0792V131.631C22.0792 130.396 21.3761 129.683 20.2628 129.683C19.4571 129.683 18.9054 130.024 18.6417 130.605H18.5636V127.686H17.7237V135.039ZM23.7963 136.943C24.7289 136.943 25.1489 136.582 25.5981 135.361L27.6537 129.775H26.7602L25.3198 134.106H25.2416L23.7963 129.775H22.8881L24.8364 135.044L24.7387 135.356C24.519 135.991 24.2553 136.221 23.7719 136.221C23.6547 136.221 23.5229 136.216 23.4203 136.196V136.914C23.5375 136.934 23.684 136.943 23.7963 136.943ZM31.2703 129.683C30.5525 129.683 29.9226 130.049 29.5857 130.654H29.5076V129.775H28.7068V136.797H29.5466V134.248H29.6248C29.9128 134.805 30.5183 135.132 31.2703 135.132C32.6082 135.132 33.4822 134.053 33.4822 132.407C33.4822 130.752 32.613 129.683 31.2703 129.683ZM31.0701 134.375C30.1228 134.375 29.5222 133.613 29.5222 132.407C29.5222 131.196 30.1228 130.439 31.075 130.439C32.0369 130.439 32.613 131.177 32.613 132.407C32.613 133.638 32.0369 134.375 31.0701 134.375ZM36.8936 135.132C38.3927 135.132 39.3204 134.097 39.3204 132.407C39.3204 130.713 38.3927 129.683 36.8936 129.683C35.3946 129.683 34.4669 130.713 34.4669 132.407C34.4669 134.097 35.3946 135.132 36.8936 135.132ZM36.8936 134.375C35.8975 134.375 35.336 133.652 35.336 132.407C35.336 131.157 35.8975 130.439 36.8936 130.439C37.8897 130.439 38.4512 131.157 38.4512 132.407C38.4512 133.652 37.8897 134.375 36.8936 134.375ZM40.9203 128.413V129.775H40.0707V130.479H40.9203V133.672C40.9203 134.678 41.3549 135.078 42.4389 135.078C42.6049 135.078 42.766 135.059 42.932 135.029V134.321C42.7758 134.336 42.6928 134.341 42.5414 134.341C41.9945 134.341 41.7602 134.077 41.7602 133.457V130.479H42.932V129.775H41.7602V128.413H40.9203ZM46.153 130.425C46.988 130.425 47.5446 131.04 47.5642 131.973H44.6638C44.7273 131.04 45.3132 130.425 46.153 130.425ZM47.5398 133.677C47.32 134.141 46.8611 134.39 46.1823 134.39C45.2888 134.39 44.7077 133.73 44.6638 132.69V132.651H48.448V132.329C48.448 130.693 47.5837 129.683 46.1628 129.683C44.7175 129.683 43.7898 130.757 43.7898 132.412C43.7898 134.077 44.7029 135.132 46.1628 135.132C47.3152 135.132 48.1257 134.58 48.3796 133.677H47.5398ZM49.6963 135.039H50.5362V131.924C50.5362 131.001 51.0782 130.439 51.918 130.439C52.7579 130.439 53.1582 130.889 53.1582 131.836V135.039H53.9981V131.631C53.9981 130.381 53.3389 129.683 52.1573 129.683C51.3516 129.683 50.8389 130.024 50.5752 130.605H50.4971V129.775H49.6963V135.039ZM55.3441 131.216C55.3441 131.978 55.7933 132.402 56.7796 132.642L57.683 132.861C58.2445 132.998 58.5179 133.242 58.5179 133.604C58.5179 134.087 58.0101 134.424 57.3021 134.424C56.6283 134.424 56.2084 134.141 56.0668 133.696H55.2025C55.2953 134.57 56.1009 135.132 57.2728 135.132C58.4691 135.132 59.3822 134.482 59.3822 133.54C59.3822 132.783 58.9037 132.354 57.9125 132.114L57.1019 131.919C56.4818 131.768 56.1888 131.543 56.1888 131.182C56.1888 130.713 56.6771 130.396 57.3021 130.396C57.9369 130.396 58.347 130.674 58.4593 131.094H59.2894C59.1771 130.229 58.4105 129.683 57.307 129.683C56.1888 129.683 55.3441 130.342 55.3441 131.216ZM60.6501 135.039H61.4899V129.775H60.6501V135.039ZM61.07 128.706C61.3923 128.706 61.6559 128.442 61.6559 128.12C61.6559 127.798 61.3923 127.534 61.07 127.534C60.7477 127.534 60.4841 127.798 60.4841 128.12C60.4841 128.442 60.7477 128.706 61.07 128.706ZM65.1846 135.132C66.6836 135.132 67.6113 134.097 67.6113 132.407C67.6113 130.713 66.6836 129.683 65.1846 129.683C63.6855 129.683 62.7578 130.713 62.7578 132.407C62.7578 134.097 63.6855 135.132 65.1846 135.132ZM65.1846 134.375C64.1885 134.375 63.6269 133.652 63.6269 132.407C63.6269 131.157 64.1885 130.439 65.1846 130.439C66.1807 130.439 66.7422 131.157 66.7422 132.407C66.7422 133.652 66.1807 134.375 65.1846 134.375ZM68.8597 135.039H69.6995V131.924C69.6995 131.001 70.2415 130.439 71.0814 130.439C71.9212 130.439 72.3216 130.889 72.3216 131.836V135.039H73.1614V131.631C73.1614 130.381 72.5023 129.683 71.3206 129.683C70.515 129.683 70.0023 130.024 69.7386 130.605H69.6605V129.775H68.8597V135.039ZM75.1618 136.831L75.9284 134.053H74.9957L74.5319 136.831H75.1618ZM81.9016 134.395C81.2913 134.395 80.8372 134.082 80.8372 133.545C80.8372 133.018 81.1888 132.739 81.9895 132.686L83.4055 132.593V133.076C83.4055 133.828 82.7659 134.395 81.9016 134.395ZM81.7454 135.132C82.4485 135.132 83.0247 134.824 83.3665 134.263H83.4446V135.039H84.2454V131.436C84.2454 130.342 83.5276 129.683 82.2434 129.683C81.1204 129.683 80.2903 130.239 80.178 131.084H81.0276C81.1448 130.669 81.5843 130.43 82.2141 130.43C83.0003 130.43 83.4055 130.786 83.4055 131.436V131.914L81.887 132.007C80.6614 132.08 79.968 132.622 79.968 133.564C79.968 134.526 80.7249 135.132 81.7454 135.132ZM85.7281 135.039H86.568V131.924C86.568 131.001 87.11 130.439 87.9498 130.439C88.7896 130.439 89.19 130.889 89.19 131.836V135.039H90.0299V131.631C90.0299 130.381 89.3707 129.683 88.1891 129.683C87.3834 129.683 86.8707 130.024 86.607 130.605H86.5289V129.775H85.7281V135.039ZM93.4462 135.132C94.1737 135.132 94.7987 134.785 95.1308 134.199H95.2089V135.039H96.0097V127.686H95.1698V130.605H95.0966C94.7987 130.029 94.1786 129.683 93.4462 129.683C92.1083 129.683 91.2343 130.757 91.2343 132.407C91.2343 134.062 92.0985 135.132 93.4462 135.132ZM93.6415 130.439C94.5937 130.439 95.1894 131.201 95.1894 132.407C95.1894 133.623 94.5985 134.375 93.6415 134.375C92.6796 134.375 92.1034 133.638 92.1034 132.407C92.1034 131.182 92.6845 130.439 93.6415 130.439ZM100.323 135.039H101.163V131.777C101.163 131.035 101.744 130.498 102.544 130.498C102.711 130.498 103.013 130.527 103.082 130.547V129.707C102.974 129.692 102.798 129.683 102.662 129.683C101.963 129.683 101.358 130.044 101.202 130.557H101.124V129.775H100.323V135.039ZM106.015 130.425C106.849 130.425 107.406 131.04 107.426 131.973H104.525C104.589 131.04 105.175 130.425 106.015 130.425ZM107.401 133.677C107.182 134.141 106.723 134.39 106.044 134.39C105.15 134.39 104.569 133.73 104.525 132.69V132.651H108.309V132.329C108.309 130.693 107.445 129.683 106.024 129.683C104.579 129.683 103.651 130.757 103.651 132.412C103.651 134.077 104.564 135.132 106.024 135.132C107.177 135.132 107.987 134.58 108.241 133.677H107.401ZM109.436 131.216C109.436 131.978 109.885 132.402 110.871 132.642L111.775 132.861C112.336 132.998 112.61 133.242 112.61 133.604C112.61 134.087 112.102 134.424 111.394 134.424C110.72 134.424 110.3 134.141 110.158 133.696H109.294C109.387 134.57 110.193 135.132 111.364 135.132C112.561 135.132 113.474 134.482 113.474 133.54C113.474 132.783 112.995 132.354 112.004 132.114L111.194 131.919C110.573 131.768 110.28 131.543 110.28 131.182C110.28 130.713 110.769 130.396 111.394 130.396C112.029 130.396 112.439 130.674 112.551 131.094H113.381C113.269 130.229 112.502 129.683 111.399 129.683C110.28 129.683 109.436 130.342 109.436 131.216ZM114.742 135.039H115.582V129.775H114.742V135.039ZM115.162 128.706C115.484 128.706 115.748 128.442 115.748 128.12C115.748 127.798 115.484 127.534 115.162 127.534C114.839 127.534 114.576 127.798 114.576 128.12C114.576 128.442 114.839 128.706 115.162 128.706ZM116.991 131.216C116.991 131.978 117.44 132.402 118.427 132.642L119.33 132.861C119.891 132.998 120.165 133.242 120.165 133.604C120.165 134.087 119.657 134.424 118.949 134.424C118.275 134.424 117.855 134.141 117.714 133.696H116.849C116.942 134.57 117.748 135.132 118.92 135.132C120.116 135.132 121.029 134.482 121.029 133.54C121.029 132.783 120.551 132.354 119.559 132.114L118.749 131.919C118.129 131.768 117.836 131.543 117.836 131.182C117.836 130.713 118.324 130.396 118.949 130.396C119.584 130.396 119.994 130.674 120.106 131.094H120.936C120.824 130.229 120.057 129.683 118.954 129.683C117.836 129.683 116.991 130.342 116.991 131.216ZM122.58 128.413V129.775H121.731V130.479H122.58V133.672C122.58 134.678 123.015 135.078 124.099 135.078C124.265 135.078 124.426 135.059 124.592 135.029V134.321C124.436 134.336 124.353 134.341 124.201 134.341C123.654 134.341 123.42 134.077 123.42 133.457V130.479H124.592V129.775H123.42V128.413H122.58ZM127.413 134.395C126.802 134.395 126.348 134.082 126.348 133.545C126.348 133.018 126.7 132.739 127.5 132.686L128.916 132.593V133.076C128.916 133.828 128.277 134.395 127.413 134.395ZM127.256 135.132C127.959 135.132 128.536 134.824 128.877 134.263H128.956V135.039H129.756V131.436C129.756 130.342 129.039 129.683 127.754 129.683C126.631 129.683 125.801 130.239 125.689 131.084H126.539C126.656 130.669 127.095 130.43 127.725 130.43C128.511 130.43 128.916 130.786 128.916 131.436V131.914L127.398 132.007C126.172 132.08 125.479 132.622 125.479 133.564C125.479 134.526 126.236 135.132 127.256 135.132ZM131.239 135.039H132.079V131.924C132.079 131.001 132.621 130.439 133.461 130.439C134.301 130.439 134.701 130.889 134.701 131.836V135.039H135.541V131.631C135.541 130.381 134.882 129.683 133.7 129.683C132.894 129.683 132.382 130.024 132.118 130.605H132.04V129.775H131.239V135.039ZM137.36 128.413V129.775H136.511V130.479H137.36V133.672C137.36 134.678 137.795 135.078 138.879 135.078C139.045 135.078 139.206 135.059 139.372 135.029V134.321C139.216 134.336 139.133 134.341 138.982 134.341C138.435 134.341 138.2 134.077 138.2 133.457V130.479H139.372V129.775H138.2V128.413H137.36ZM145.941 135.132C147.274 135.132 148.148 134.053 148.148 132.407C148.148 130.752 147.279 129.683 145.941 129.683C145.219 129.683 144.579 130.039 144.291 130.605H144.213V127.686H143.373V135.039H144.174V134.199H144.252C144.584 134.785 145.209 135.132 145.941 135.132ZM145.746 130.439C146.708 130.439 147.279 131.177 147.279 132.407C147.279 133.638 146.708 134.375 145.746 134.375C144.789 134.375 144.193 133.623 144.193 132.407C144.193 131.191 144.789 130.439 145.746 130.439ZM149.397 135.039H150.236V131.777C150.236 131.035 150.817 130.498 151.618 130.498C151.784 130.498 152.087 130.527 152.155 130.547V129.707C152.048 129.692 151.872 129.683 151.735 129.683C151.037 129.683 150.432 130.044 150.275 130.557H150.197V129.775H149.397V135.039ZM154.756 134.395C154.146 134.395 153.692 134.082 153.692 133.545C153.692 133.018 154.043 132.739 154.844 132.686L156.26 132.593V133.076C156.26 133.828 155.621 134.395 154.756 134.395ZM154.6 135.132C155.303 135.132 155.879 134.824 156.221 134.263H156.299V135.039H157.1V131.436C157.1 130.342 156.382 129.683 155.098 129.683C153.975 129.683 153.145 130.239 153.033 131.084H153.882C153.999 130.669 154.439 130.43 155.069 130.43C155.855 130.43 156.26 130.786 156.26 131.436V131.914L154.742 132.007C153.516 132.08 152.823 132.622 152.823 133.564C152.823 134.526 153.579 135.132 154.6 135.132ZM160.531 135.132C161.259 135.132 161.884 134.785 162.216 134.199H162.294V135.039H163.094V127.686H162.255V130.605H162.181C161.884 130.029 161.263 129.683 160.531 129.683C159.193 129.683 158.319 130.757 158.319 132.407C158.319 134.062 159.183 135.132 160.531 135.132ZM160.726 130.439C161.678 130.439 162.274 131.201 162.274 132.407C162.274 133.623 161.683 134.375 160.726 134.375C159.764 134.375 159.188 133.638 159.188 132.407C159.188 131.182 159.769 130.439 160.726 130.439ZM165.105 136.943C166.037 136.943 166.457 136.582 166.906 135.361L168.962 129.775H168.068L166.628 134.106H166.55L165.105 129.775H164.196L166.145 135.044L166.047 135.356C165.827 135.991 165.564 136.221 165.08 136.221C164.963 136.221 164.831 136.216 164.729 136.196V136.914C164.846 136.934 164.992 136.943 165.105 136.943ZM171.441 134.395C170.83 134.395 170.376 134.082 170.376 133.545C170.376 133.018 170.728 132.739 171.529 132.686L172.945 132.593V133.076C172.945 133.828 172.305 134.395 171.441 134.395ZM171.285 135.132C171.988 135.132 172.564 134.824 172.906 134.263H172.984V135.039H173.785V131.436C173.785 130.342 173.067 129.683 171.783 129.683C170.66 129.683 169.829 130.239 169.717 131.084H170.567C170.684 130.669 171.123 130.43 171.753 130.43C172.539 130.43 172.945 130.786 172.945 131.436V131.914L171.426 132.007C170.201 132.08 169.507 132.622 169.507 133.564C169.507 134.526 170.264 135.132 171.285 135.132ZM175.267 135.039H176.107V131.777C176.107 131.035 176.688 130.498 177.489 130.498C177.655 130.498 177.958 130.527 178.026 130.547V129.707C177.919 129.692 177.743 129.683 177.606 129.683C176.908 129.683 176.302 130.044 176.146 130.557H176.068V129.775H175.267V135.039ZM179.104 135.039H179.943V131.777C179.943 131.035 180.524 130.498 181.325 130.498C181.491 130.498 181.794 130.527 181.862 130.547V129.707C181.755 129.692 181.579 129.683 181.442 129.683C180.744 129.683 180.139 130.044 179.982 130.557H179.904V129.775H179.104V135.039ZM182.891 135.039H183.731V131.924C183.731 131.035 184.248 130.439 185.191 130.439C185.987 130.439 186.407 130.903 186.407 131.836V135.039H187.246V131.631C187.246 130.396 186.543 129.683 185.43 129.683C184.624 129.683 184.073 130.024 183.809 130.605H183.731V127.686H182.891V135.039ZM188.964 136.943C189.896 136.943 190.316 136.582 190.765 135.361L192.821 129.775H191.927L190.487 134.106H190.409L188.964 129.775H188.055L190.004 135.044L189.906 135.356C189.686 135.991 189.422 136.221 188.939 136.221C188.822 136.221 188.69 136.216 188.588 136.196V136.914C188.705 136.934 188.851 136.943 188.964 136.943ZM194.226 128.413V129.775H193.376V130.479H194.226V133.672C194.226 134.678 194.66 135.078 195.744 135.078C195.91 135.078 196.071 135.059 196.237 135.029V134.321C196.081 134.336 195.998 134.341 195.847 134.341C195.3 134.341 195.065 134.077 195.065 133.457V130.479H196.237V129.775H195.065V128.413H194.226ZM197.486 135.039H198.325V131.924C198.325 131.035 198.843 130.439 199.785 130.439C200.581 130.439 201.001 130.903 201.001 131.836V135.039H201.841V131.631C201.841 130.396 201.138 129.683 200.025 129.683C199.219 129.683 198.667 130.024 198.404 130.605H198.325V127.686H197.486V135.039ZM203.304 135.039H204.144V131.777C204.144 131.035 204.676 130.439 205.365 130.439C206.029 130.439 206.463 130.84 206.463 131.465V135.039H207.303V131.655C207.303 130.986 207.792 130.439 208.524 130.439C209.266 130.439 209.632 130.82 209.632 131.597V135.039H210.472V131.401C210.472 130.298 209.872 129.683 208.797 129.683C208.07 129.683 207.469 130.049 207.186 130.605H207.108C206.864 130.059 206.366 129.683 205.653 129.683C204.95 129.683 204.422 130.02 204.183 130.605H204.105V129.775H203.304V135.039ZM211.955 135.039H212.795V129.775H211.955V135.039ZM212.375 128.706C212.697 128.706 212.961 128.442 212.961 128.12C212.961 127.798 212.697 127.534 212.375 127.534C212.053 127.534 211.789 127.798 211.789 128.12C211.789 128.442 212.053 128.706 212.375 128.706ZM215.948 134.395C215.337 134.395 214.883 134.082 214.883 133.545C214.883 133.018 215.235 132.739 216.035 132.686L217.451 132.593V133.076C217.451 133.828 216.812 134.395 215.948 134.395ZM215.791 135.132C216.494 135.132 217.071 134.824 217.412 134.263H217.49V135.039H218.291V131.436C218.291 130.342 217.573 129.683 216.289 129.683C215.166 129.683 214.336 130.239 214.224 131.084H215.073C215.191 130.669 215.63 130.43 216.26 130.43C217.046 130.43 217.451 130.786 217.451 131.436V131.914L215.933 132.007C214.707 132.08 214.014 132.622 214.014 133.564C214.014 134.526 214.771 135.132 215.791 135.132ZM219.652 131.216C219.652 131.978 220.101 132.402 221.087 132.642L221.991 132.861C222.552 132.998 222.826 133.242 222.826 133.604C222.826 134.087 222.318 134.424 221.61 134.424C220.936 134.424 220.516 134.141 220.375 133.696H219.51C219.603 134.57 220.409 135.132 221.581 135.132C222.777 135.132 223.69 134.482 223.69 133.54C223.69 132.783 223.211 132.354 222.22 132.114L221.41 131.919C220.79 131.768 220.497 131.543 220.497 131.182C220.497 130.713 220.985 130.396 221.61 130.396C222.245 130.396 222.655 130.674 222.767 131.094H223.597C223.485 130.229 222.718 129.683 221.615 129.683C220.497 129.683 219.652 130.342 219.652 131.216ZM225.632 135.088C225.983 135.088 226.266 134.8 226.266 134.453C226.266 134.102 225.983 133.818 225.632 133.818C225.285 133.818 224.997 134.102 224.997 134.453C224.997 134.8 225.285 135.088 225.632 135.088Z" fill="#676E79"/>
</svg>
