<svg width="243" height="144" viewBox="0 0 243 144" fill="none" xmlns="http://www.w3.org/2000/svg">
<path d="M0 6C0 2.68629 2.68629 0 6 0H237C240.314 0 243 2.68629 243 6V138C243 141.314 240.314 144 237 144H6C2.68629 144 0 141.314 0 138V6Z" fill="white"/>
<path d="M59.3796 95.9729C58.5419 93.6882 58.085 91.5558 58.085 88.8141C58.085 86.1486 58.6181 83.7115 59.3796 81.5791H59.8366C58.9989 83.7877 58.6181 86.4532 58.6181 89.1949C58.6181 91.4796 59.075 94.069 59.8366 95.9729H59.3796Z" fill="#808285"/>
<path d="M60.2178 81.8076H60.827V86.3009C61.0555 85.3109 61.6648 84.7016 62.3502 84.7016C63.721 84.7016 64.1018 85.9201 64.1018 87.8241V93.0028H63.4925V87.9764C63.4925 86.6056 63.1879 85.5393 62.274 85.5393C61.3601 85.5393 60.7509 86.7579 60.7509 88.281V93.0028H60.1416V81.8076H60.2178Z" fill="#808285"/>
<path fill-rule="evenodd" clip-rule="evenodd" d="M66.9957 84.6255C65.8533 84.6255 65.0918 85.4632 65.0156 87.3672V87.4433H65.6249C65.6249 86.0725 66.158 85.5394 66.9195 85.5394C67.605 85.5394 68.2142 85.9202 68.2142 87.2149C68.2142 88.0526 67.9096 88.2049 67.4526 88.2811C67.3762 88.2945 67.2998 88.3075 67.2236 88.3204C66.0096 88.5262 64.8633 88.7206 64.8633 90.8704C64.8633 92.4697 65.5487 93.2313 66.4626 93.2313C67.3765 93.2313 67.8334 92.622 68.2142 91.5558C68.2142 92.3936 68.2904 92.9267 68.8996 92.9267C69.052 92.9267 69.1281 92.9267 69.2804 92.8505V92.0128C69.2804 92.0889 69.2043 92.0889 69.1281 92.0889C68.8235 92.0889 68.7473 91.8605 68.7473 91.4797V87.2149C68.7473 85.0824 67.8334 84.6255 66.9957 84.6255ZM68.0621 88.7125C68.0954 88.6761 68.122 88.6344 68.1382 88.5857H68.0621V88.7125ZM68.0621 88.7125C67.971 88.8119 67.8298 88.8705 67.714 88.9186C67.6735 88.9354 67.6362 88.9509 67.6051 88.9664C67.436 89.0185 67.258 89.0616 67.079 89.105C66.2105 89.3155 65.3204 89.5313 65.3204 90.7942C65.3204 91.7843 65.8535 92.3935 66.3866 92.3935C67.3005 92.3935 68.0621 91.4035 68.0621 89.8803V88.7125Z" fill="#808285"/>
<path d="M69.7373 81.8076H70.3466V93.0028H69.7373V81.8076Z" fill="#808285"/>
<path fill-rule="evenodd" clip-rule="evenodd" d="M73.317 93.2313C74.764 93.2313 75.6017 91.2512 75.6017 88.9665C75.6017 86.6056 74.8401 84.7017 73.317 84.7017C71.87 84.7017 71.0322 86.6818 71.0322 88.9665C71.0322 91.2512 71.7938 93.2313 73.317 93.2313ZM73.317 92.3937C72.1746 92.3937 71.6415 90.7182 71.6415 88.9666C71.6415 87.215 72.1746 85.5395 73.317 85.5395C74.4594 85.5395 74.9925 87.215 74.9925 88.9666C74.9925 90.6421 74.4594 92.3937 73.317 92.3937Z" fill="#808285"/>
<path fill-rule="evenodd" clip-rule="evenodd" d="M76.9725 81.8076H76.3633V93.0028H76.8964V91.4796C77.201 92.5459 77.8864 93.2313 78.648 93.2313C80.1712 93.2313 80.8566 91.2512 80.8566 88.9664C80.8566 86.6817 80.095 84.7016 78.648 84.7016C77.9626 84.7016 77.201 85.3109 76.9725 86.4532V81.8076ZM76.9726 88.9663C76.9726 87.2909 77.3534 85.5392 78.648 85.5392C79.7904 85.5392 80.2474 87.2909 80.2474 88.9663C80.2474 90.6418 79.7904 92.3934 78.648 92.3934C77.4295 92.3934 76.9726 90.6418 76.9726 88.9663Z" fill="#808285"/>
<path fill-rule="evenodd" clip-rule="evenodd" d="M81.846 89.2711C81.8618 90.7027 82.3225 92.3936 83.4449 92.3936C84.2826 92.3936 84.8157 91.5559 84.9681 90.3373H85.5773C85.3488 92.1651 84.6634 93.2313 83.4449 93.2313C81.9217 93.2313 81.2363 91.2512 81.2363 88.9665C81.2363 86.8341 81.9217 84.7017 83.4449 84.7017C84.9681 84.7017 85.6535 86.9864 85.5773 89.2711H81.846ZM83.521 85.4631C84.4349 85.4631 85.0442 86.834 85.0442 88.3571H81.9217C81.9979 86.834 82.531 85.4631 83.521 85.4631Z" fill="#808285"/>
<path d="M87.1775 84.9302H88.1675V85.7679H87.1775V91.1751C87.1775 91.7844 87.2536 92.1652 87.6344 92.2413C87.7867 92.2413 87.939 92.2413 88.1675 92.1652V93.0029C88.0152 93.0029 87.7867 93.0029 87.6344 93.0029C86.8728 93.0029 86.5682 92.546 86.5682 91.1751V85.6918H85.7305V84.854H86.5682V82.417H87.1775V84.9302Z" fill="#808285"/>
<path fill-rule="evenodd" clip-rule="evenodd" d="M90.7564 84.6255C89.6141 84.6255 88.8525 85.4632 88.7763 87.3672V87.4433H89.3856C89.3856 86.0725 89.9187 85.5394 90.6803 85.5394C91.3657 85.5394 91.975 85.9202 91.975 87.2149C91.975 88.0526 91.6703 88.2049 91.2134 88.2811C91.137 88.2945 91.0605 88.3075 90.9844 88.3204C89.7704 88.5262 88.624 88.7206 88.624 90.8704C88.624 92.4697 89.3094 93.2313 90.2233 93.2313C91.1372 93.2313 91.5942 92.622 91.975 91.5558C91.975 92.3936 92.0511 92.9267 92.6604 92.9267C92.8127 92.9267 92.8889 92.9267 93.0412 92.8505V92.0128C93.0412 92.0889 92.965 92.0889 92.8889 92.0889C92.5842 92.0889 92.5081 91.8605 92.5081 91.4797V87.2149C92.5081 85.0824 91.5942 84.6255 90.7564 84.6255ZM91.8228 88.7125C91.8561 88.6761 91.8827 88.6344 91.899 88.5857H91.8228V88.7125ZM91.8228 88.7125C91.7317 88.8119 91.5905 88.8705 91.4747 88.9186C91.4343 88.9354 91.3969 88.9509 91.3659 88.9664C91.1967 89.0185 91.0187 89.0616 90.8398 89.105C89.9712 89.3155 89.0811 89.5313 89.0811 90.7942C89.0811 91.7843 89.6142 92.3935 90.1473 92.3935C91.0612 92.3935 91.8228 91.4035 91.8228 89.8803V88.7125Z" fill="#808285"/>
<path d="M96.392 87.291C96.392 86.0725 95.7827 85.5394 95.0973 85.5394C94.5642 85.5394 93.9549 85.9202 93.9549 86.9102C93.9549 87.748 94.5642 88.1288 94.945 88.2811L95.7065 88.5857C96.392 88.738 97.0774 89.4234 97.0774 90.7943C97.0774 92.5459 96.0112 93.2313 95.0973 93.2313C93.9549 93.2313 93.1933 92.3936 93.1172 90.4135H93.7264C93.8026 91.7082 94.3357 92.3936 95.1734 92.3936C95.7065 92.3936 96.4681 92.0128 96.4681 90.8704C96.4681 89.9565 95.935 89.6519 95.4019 89.4234L94.6403 89.1188C93.8788 88.738 93.2695 88.3572 93.2695 86.9864C93.2695 85.3109 94.2596 84.7017 95.0973 84.7017C96.0873 84.7017 96.8489 85.5394 96.8489 87.291H96.392Z" fill="#808285"/>
<path fill-rule="evenodd" clip-rule="evenodd" d="M99.8961 93.2313C101.343 93.2313 102.181 91.2512 102.181 88.9665C102.181 86.6056 101.343 84.7017 99.8961 84.7017C98.4491 84.7017 97.6113 86.6818 97.6113 88.9665C97.6113 91.2512 98.4491 93.2313 99.8961 93.2313ZM99.8961 92.3937C98.7537 92.3937 98.2206 90.7182 98.2206 88.9666C98.2206 87.215 98.7537 85.5395 99.8961 85.5395C101.038 85.5395 101.572 87.215 101.572 88.9666C101.572 90.6421 101.038 92.3937 99.8961 92.3937Z" fill="#808285"/>
<path d="M102.865 81.8076H103.474V93.0028H102.865V81.8076Z" fill="#808285"/>
<path fill-rule="evenodd" clip-rule="evenodd" d="M107.359 84.9301H106.826V95.973H107.435V91.4797C107.664 92.6221 108.349 93.2313 109.111 93.2313C110.634 93.2313 111.319 91.2512 111.319 88.9665C111.319 86.6818 110.558 84.7017 109.111 84.7017C108.273 84.7017 107.664 85.3871 107.359 86.4533V84.9301ZM107.435 88.9666C107.435 87.1388 107.816 85.5395 109.111 85.5395C110.253 85.5395 110.71 87.2911 110.71 88.9666C110.71 90.6421 110.253 92.3937 109.111 92.3937C107.892 92.3937 107.435 90.6421 107.435 88.9666Z" fill="#808285"/>
<path d="M112.08 84.93H112.613V86.834C112.918 85.5393 113.603 84.7777 114.441 84.8539V85.8439C113.375 85.7677 112.613 87.0624 112.613 88.7379V93.0027H112.004V84.93H112.08Z" fill="#808285"/>
<path fill-rule="evenodd" clip-rule="evenodd" d="M116.726 93.2313C118.173 93.2313 119.011 91.2512 119.011 88.9665C119.011 86.6056 118.173 84.7017 116.726 84.7017C115.279 84.7017 114.441 86.6818 114.441 88.9665C114.441 91.2512 115.279 93.2313 116.726 93.2313ZM116.65 92.3937C115.508 92.3937 114.975 90.7182 114.975 88.9666C114.975 87.215 115.508 85.5395 116.65 85.5395C117.792 85.5395 118.326 87.215 118.326 88.9666C118.326 90.6421 117.792 92.3937 116.65 92.3937Z" fill="#808285"/>
<path fill-rule="evenodd" clip-rule="evenodd" d="M120.229 84.9301H119.696V95.973H120.306V91.4797C120.534 92.6221 121.219 93.2313 121.981 93.2313C123.504 93.2313 124.19 91.2512 124.19 88.9665C124.19 86.6818 123.428 84.7017 121.981 84.7017C121.143 84.7017 120.534 85.3871 120.229 86.4533V84.9301ZM120.306 88.9666C120.306 87.1388 120.686 85.5395 121.981 85.5395C123.123 85.5395 123.58 87.2911 123.58 88.9666C123.58 90.6421 123.123 92.3937 121.981 92.3937C120.763 92.3937 120.306 90.6421 120.306 88.9666Z" fill="#808285"/>
<path fill-rule="evenodd" clip-rule="evenodd" d="M125.484 81.8076H124.875V83.4069H125.484V81.8076ZM125.484 84.9302H124.875V93.0029H125.484V84.9302Z" fill="#808285"/>
<path fill-rule="evenodd" clip-rule="evenodd" d="M128.531 93.2313C129.978 93.2313 130.816 91.2512 130.816 88.9665C130.816 86.6056 129.978 84.7017 128.531 84.7017C127.084 84.7017 126.246 86.6818 126.246 88.9665C126.246 91.2512 127.008 93.2313 128.531 93.2313ZM128.455 92.3937C127.312 92.3937 126.779 90.7182 126.779 88.9666C126.779 87.215 127.389 85.5395 128.455 85.5395C129.597 85.5395 130.13 87.215 130.13 88.9666C130.13 90.6421 129.597 92.3937 128.455 92.3937Z" fill="#808285"/>
<path d="M131.501 84.9301H132.11V86.301C132.339 85.3109 132.948 84.7017 133.633 84.7017C135.004 84.7017 135.385 85.9202 135.385 87.8241V93.0028H134.776V87.9764C134.776 86.6056 134.471 85.5394 133.557 85.5394C132.643 85.5394 132.034 86.7579 132.034 88.2811V93.0028H131.425V84.9301H131.501Z" fill="#808285"/>
<path fill-rule="evenodd" clip-rule="evenodd" d="M138.279 84.6255C137.137 84.6255 136.375 85.4632 136.299 87.3672V87.4433H136.908C136.908 86.0725 137.441 85.5394 138.203 85.5394C138.888 85.5394 139.497 85.9202 139.497 87.2149C139.497 88.0526 139.193 88.2049 138.736 88.2811C138.659 88.2945 138.583 88.3075 138.507 88.3204C137.293 88.5262 136.146 88.7206 136.146 90.8704C136.146 92.4697 136.832 93.2313 137.746 93.2313C138.66 93.2313 139.117 92.622 139.497 91.5558C139.497 92.3936 139.574 92.9267 140.183 92.9267C140.335 92.9267 140.411 92.9267 140.564 92.8505V92.0128C140.564 92.0889 140.487 92.0889 140.411 92.0889C140.107 92.0889 140.031 91.8605 140.031 91.4797V87.2149C140.031 85.0824 139.117 84.6255 138.279 84.6255ZM139.345 88.7125C139.379 88.6761 139.405 88.6344 139.421 88.5857H139.345V88.7125ZM139.345 88.7125C139.254 88.8119 139.113 88.8705 138.997 88.9186C138.957 88.9354 138.919 88.9509 138.888 88.9664C138.719 89.0185 138.541 89.0616 138.362 89.105C137.494 89.3155 136.604 89.5313 136.604 90.7942C136.604 91.7843 137.137 92.3935 137.67 92.3935C138.584 92.3935 139.345 91.4035 139.345 89.8803V88.7125Z" fill="#808285"/>
<path d="M142.01 84.9302H143.001V85.7679H142.01V91.1751C142.01 91.7844 142.087 92.1652 142.467 92.2413C142.62 92.2413 142.772 92.2413 143.001 92.1652V93.0029C142.848 93.0029 142.62 93.0029 142.467 93.0029C141.706 93.0029 141.401 92.546 141.401 91.1751V85.6918H140.563V84.854H141.401V82.417H142.01V84.9302Z" fill="#808285"/>
<path fill-rule="evenodd" clip-rule="evenodd" d="M143.992 89.2711C144.007 90.7027 144.468 92.3936 145.59 92.3936C146.428 92.3936 146.961 91.5559 147.114 90.3373H147.723C147.494 92.1651 146.809 93.2313 145.59 93.2313C144.067 93.2313 143.382 91.2512 143.382 88.9665C143.382 86.8341 144.067 84.7017 145.59 84.7017C147.114 84.7017 147.799 86.9864 147.723 89.2711H143.992ZM145.59 85.4631C146.504 85.4631 147.114 86.834 147.114 88.3571H143.991C144.067 86.834 144.6 85.4631 145.59 85.4631Z" fill="#808285"/>
<path d="M149.474 91.3271V93.0026C149.474 93.9165 149.246 94.8304 148.637 95.135V94.4496C148.941 94.2973 149.094 93.4596 149.094 93.0026H148.713V91.3271H149.474V91.3271Z" fill="#808285"/>
<path fill-rule="evenodd" clip-rule="evenodd" d="M155.262 93.2313C157.166 93.2313 157.547 90.185 157.547 87.5956C157.547 85.0063 157.166 81.96 155.262 81.96C153.358 81.96 152.978 85.0063 152.978 87.5956C152.978 90.185 153.358 93.2313 155.262 93.2313ZM155.186 92.3937C153.739 92.3937 153.511 89.4997 153.511 87.5957C153.511 85.6918 153.739 82.7978 155.186 82.7978C156.633 82.7978 156.862 85.6918 156.862 87.5957C156.862 89.4997 156.709 92.3937 155.186 92.3937Z" fill="#808285"/>
<path d="M158.537 93.0026V91.3271H159.299V93.0026H158.537Z" fill="#808285"/>
<path fill-rule="evenodd" clip-rule="evenodd" d="M162.726 93.2313C164.63 93.2313 165.011 90.185 165.011 87.5956C165.011 85.0063 164.63 81.96 162.726 81.96C160.822 81.96 160.441 85.0063 160.441 87.5956C160.441 90.185 160.822 93.2313 162.726 93.2313ZM162.65 92.3937C161.203 92.3937 160.975 89.4997 160.975 87.5957C160.975 85.6918 161.203 82.7978 162.65 82.7978C164.097 82.7978 164.326 85.6918 164.326 87.5957C164.326 89.4997 164.173 92.3937 162.65 92.3937Z" fill="#808285"/>
<path d="M166 89.8804C166 91.4036 166.685 92.3936 167.599 92.3936C168.589 92.3936 169.275 91.0228 169.275 89.4235C169.275 87.8241 168.589 86.6056 167.599 86.6056C166.99 86.6056 166.457 87.0626 166.152 87.9003H165.619L166.228 82.1885H169.503V83.1024H166.609L166.152 86.7579C166.457 86.1487 167.066 85.7679 167.523 85.7679C168.894 85.7679 169.732 87.3672 169.732 89.5758C169.732 91.7082 168.742 93.3075 167.447 93.3075C166.228 93.3075 165.314 92.0128 165.314 89.9566H166V89.8804Z" fill="#808285"/>
<path fill-rule="evenodd" clip-rule="evenodd" d="M176.662 81.6553H176.205L171.94 93.5359H172.397L176.662 81.6553ZM173.768 84.9301C173.768 86.6055 173.311 87.9002 172.245 87.9002C171.179 87.9002 170.722 86.6055 170.722 84.9301C170.722 83.2546 171.179 81.9599 172.245 81.9599C173.311 81.9599 173.768 83.2546 173.768 84.9301ZM171.255 84.93C171.255 85.9201 171.483 87.1386 172.245 87.1386C173.007 87.1386 173.235 85.9201 173.235 84.93C173.235 83.94 173.007 82.6453 172.245 82.6453C171.483 82.6453 171.255 83.94 171.255 84.93ZM177.88 90.261C177.88 91.9365 177.423 93.2312 176.357 93.2312C175.291 93.2312 174.834 91.9365 174.834 90.261C174.834 88.5856 175.291 87.2909 176.357 87.2909C177.423 87.2909 177.88 88.5856 177.88 90.261ZM176.433 92.4696C175.672 92.4696 175.443 91.251 175.443 90.261C175.443 89.2709 175.672 87.9763 176.433 87.9763C177.195 87.9763 177.423 89.2709 177.423 90.261C177.423 91.251 177.195 92.4696 176.433 92.4696Z" fill="#808285"/>
<path d="M178.795 81.5791C179.633 83.8638 180.09 85.9962 180.09 88.7379C180.09 91.4034 179.556 93.8405 178.795 95.9729H178.338C179.176 93.7643 179.556 91.0988 179.556 88.3571C179.556 86.0724 179.099 83.483 178.338 81.5791H178.795Z" fill="#808285"/>
<path d="M16.5025 55.6094H18.7111V69.2416C18.7111 72.4402 20.1581 74.0395 22.9759 74.1157C25.7937 74.1919 27.2407 72.5164 27.2407 69.2416V55.6094H31.734V69.7747C31.734 75.1819 28.5354 77.9997 22.9759 77.9997C17.3402 77.9997 14.2178 75.3342 14.2178 69.7747V57.9703C14.2178 56.7517 15.284 55.6094 16.5025 55.6094Z" fill="#8A1E41"/>
<path d="M38.131 57.6656V77.6189H33.79V55.5332H35.9986C37.141 55.6094 38.131 56.5233 38.131 57.6656Z" fill="#8A1E41"/>
<path d="M45.2894 63.5298H44.8325V73.0495C44.8325 73.7349 45.2894 74.1157 46.1272 74.1157H47.4219V77.3905C46.051 77.5428 44.5279 77.5428 42.8524 77.3905C41.1769 77.2382 40.4154 76.2481 40.4915 74.3442V55.6094H42.7001C43.8425 55.6094 44.7563 56.6756 44.7563 57.8179V60.5596H47.3457V61.4735C47.4219 62.6159 46.508 63.5298 45.2894 63.5298Z" fill="#8A1E41"/>
<path d="M49.25 68.7846C49.4023 63.2251 52.2963 60.4834 58.0843 60.4834H58.6936V64.9767H57.2466C54.8095 64.9767 53.6671 66.2714 53.6671 68.7084V77.6189H49.3262V68.7846H49.25Z" fill="#8A1E41"/>
<path fill-rule="evenodd" clip-rule="evenodd" d="M60.8261 64.9767H65.1671C65.3955 64.1389 66.2333 63.7581 67.7564 63.7581C69.5842 63.7581 70.4981 64.2151 70.5743 65.2051C70.5743 66.1952 69.5842 66.7283 67.7564 66.9568C63.3393 67.3375 60.3691 68.4799 60.293 72.5924C60.293 76.4003 63.187 78.3043 67.2995 77.9996C71.9451 77.695 74.7629 75.5626 74.7629 70.8408V64.9767C74.6868 61.778 72.2497 60.2549 67.528 60.2549C63.5678 60.2549 61.3592 61.778 60.8261 64.9767ZM70.574 69.0131V70.6124C70.574 73.0494 69.127 74.4203 66.7661 74.4964C65.3952 74.4964 64.6337 73.8872 64.5575 72.5163C64.5575 71.2216 65.3952 70.3839 67.1469 70.0793L67.1469 70.0793C68.3654 69.7746 69.5839 69.47 70.574 69.0131Z" fill="#8A1E41"/>
<path d="M92.5838 60.4834L86.4912 77.6189H81.9217L75.9053 60.4834H80.7032L84.2065 72.5163L87.1766 62.0066C87.4812 61.0165 88.2428 60.4834 89.309 60.4834H92.5838Z" fill="#8A1E41"/>
<path fill-rule="evenodd" clip-rule="evenodd" d="M93.6503 64.9767H97.9913C98.2198 64.1389 99.0575 63.7581 100.581 63.7581C102.408 63.7581 103.322 64.2151 103.398 65.2051C103.398 66.1952 102.408 66.7283 100.581 66.9568C96.1635 67.3375 93.1933 68.4799 93.1172 72.5924C93.1172 76.4003 96.0112 78.3043 100.124 77.9996C104.769 77.695 107.587 75.5626 107.587 70.8408V64.9767C107.511 61.778 105.074 60.2549 100.352 60.2549C96.392 60.2549 94.1834 61.778 93.6503 64.9767ZM103.398 69.0131V70.6124C103.398 73.0494 101.951 74.4203 99.5903 74.4964C98.2195 74.4964 97.4579 73.8872 97.3817 72.5163C97.3817 71.2216 98.2195 70.3839 99.9711 70.0793L99.9711 70.0793C101.19 69.7746 102.408 69.47 103.398 69.0131Z" fill="#8A1E41"/>
<path d="M115.126 63.5298H114.669V73.0495C114.669 73.7349 115.126 74.1157 115.964 74.1157H117.259V77.3905C115.888 77.5428 114.365 77.5428 112.689 77.3905C111.014 77.2382 110.252 76.2481 110.328 74.3442V55.6094H112.537C113.679 55.6094 114.593 56.6756 114.593 57.8179V60.5596H117.183V61.4735C117.259 62.6159 116.269 63.5298 115.126 63.5298Z" fill="#8A1E41"/>
<path fill-rule="evenodd" clip-rule="evenodd" d="M118.935 69.013C118.935 74.801 121.524 77.8473 126.703 77.9996C130.891 77.9996 133.252 76.0195 134.242 72.4401H131.044C130.434 72.4401 129.977 72.5924 129.597 73.0494C128.759 73.811 127.769 74.2679 126.779 74.2679C124.646 74.2679 123.504 72.8971 123.352 70.3077H134.471C134.775 63.6058 132.262 60.2549 126.779 60.2549C121.524 60.2549 118.935 63.225 118.935 69.013ZM129.901 67.1853H123.428C123.733 64.9006 124.799 63.7582 126.703 63.7582C128.607 63.7582 129.673 64.9006 129.901 67.1853Z" fill="#8A1E41"/>
<path fill-rule="evenodd" clip-rule="evenodd" d="M135.309 61.0165C135.309 63.0728 136.832 64.2151 138.583 64.2151C140.259 64.2151 141.858 63.0728 141.858 61.0165C141.858 58.9602 140.335 57.8179 138.583 57.8179C136.832 57.8179 135.309 59.0364 135.309 61.0165ZM136.298 61.0928C136.298 59.6458 137.288 58.6557 138.583 58.6557C139.802 58.6557 140.868 59.6458 140.868 61.0928C140.868 62.5398 139.802 63.5298 138.583 63.5298C137.288 63.5298 136.298 62.5398 136.298 61.0928ZM137.974 62.7682H137.289V59.3411H138.583C139.497 59.3411 140.03 59.5696 140.03 60.4073C140.03 61.0166 139.65 61.2451 139.193 61.3212L140.107 62.8444H139.193L138.355 61.3974H137.974V62.7682ZM139.193 60.3312C139.193 60.712 138.964 60.7881 138.659 60.7881H137.974V59.9504H138.507C138.812 59.9504 139.193 59.9504 139.193 60.3312Z" fill="#A31D4A"/>
<path d="M148.255 77.9998H162.573V74.5727H152.139V56.1426H150.235C149.702 56.1426 149.245 56.2949 148.864 56.7518C148.483 57.1326 148.255 57.5896 148.255 58.1227V77.9998Z" fill="#00A7E1"/>
<path fill-rule="evenodd" clip-rule="evenodd" d="M163.487 65.9668C163.792 64.8244 164.249 63.9105 164.934 63.149C166 61.9304 167.371 61.1689 169.123 60.7881C169.656 60.7119 170.189 60.7119 170.722 60.7119C171.865 60.7119 172.931 60.9404 173.845 61.245C175.444 61.9304 176.586 62.9966 177.348 64.5198C178.033 65.8906 178.414 67.5661 178.414 69.3939C178.414 70.7647 178.262 71.9071 177.957 72.8971C177.653 73.8872 177.272 74.6488 176.815 75.3342C175.825 76.705 174.53 77.6189 173.007 77.9236C171.636 78.3043 170.189 78.3043 168.818 77.9997C167.447 77.6951 166.305 77.162 165.467 76.4004C164.63 75.715 164.02 74.7249 163.64 73.4303C163.259 72.1356 163.03 70.7647 163.03 69.3939C163.03 68.2515 163.183 67.1092 163.487 65.9668ZM173.844 65.8145C173.235 64.9767 172.626 64.3675 171.864 64.139C171.103 63.9105 170.341 63.8344 169.732 64.0628C169.046 64.2913 168.513 64.5198 168.133 64.9006C167.142 65.9668 166.686 67.6423 166.762 69.6985C166.914 71.8309 167.295 73.2779 167.98 74.1157C168.285 74.4965 168.742 74.8011 169.503 75.1057C169.884 75.258 170.341 75.3342 170.722 75.3342C171.027 75.3342 171.407 75.258 171.712 75.1819C172.55 75.0296 173.159 74.4203 173.768 73.5826C174.301 72.7448 174.606 71.374 174.682 69.5462C174.682 67.9469 174.377 66.6522 173.844 65.8145Z" fill="#00A7E1"/>
<path d="M186.867 75.3343H185.877C184.43 75.3343 184.201 74.4204 184.201 73.8112V63.6822H185.039C185.572 63.6822 185.953 63.5299 186.334 63.1491C186.715 62.7683 186.867 62.3875 186.867 61.7782V61.2451H184.201V57.8942C184.201 57.3611 184.049 56.9803 183.668 56.5995C183.288 56.2187 182.907 56.0664 182.45 56.0664H180.47V75.0297C180.47 76.8575 181.155 77.7714 182.678 77.8475C184.201 77.9998 185.648 77.9998 186.943 77.9237V75.3343H186.867Z" fill="#00A7E1"/>
<path d="M190.065 61.2451V77.9998H193.873V63.1491C193.873 62.616 193.721 62.2352 193.34 61.8544C192.959 61.4736 192.579 61.3213 192.046 61.3213H190.065V61.2451Z" fill="#00A7E1"/>
<path d="M193.949 58.9604V57.9704C193.949 57.4373 193.797 57.0565 193.416 56.6757C193.036 56.2949 192.655 56.1426 192.122 56.1426H190.142V58.9604H193.949Z" fill="#00A7E1"/>
<path fill-rule="evenodd" clip-rule="evenodd" d="M196.691 65.9668C196.996 64.8244 197.453 63.9105 198.138 63.149C199.205 61.9304 200.575 61.1689 202.327 60.7881C202.86 60.7119 203.393 60.7119 203.926 60.7119C205.069 60.7119 206.135 60.9404 207.049 61.245C208.648 61.9304 209.79 62.9966 210.552 64.5198C211.237 65.8906 211.618 67.5661 211.618 69.3939C211.618 70.7647 211.466 71.9071 211.161 72.8971C210.857 73.8872 210.476 74.6488 210.019 75.3342C209.029 76.705 207.734 77.6189 206.211 77.9236C204.84 78.3043 203.393 78.3043 202.022 77.9997C200.652 77.6951 199.509 77.162 198.671 76.4004C197.834 75.715 197.224 74.7249 196.844 73.4303C196.463 72.1356 196.234 70.7647 196.234 69.3939C196.234 68.2515 196.387 67.1092 196.691 65.9668ZM206.972 65.8145C206.439 64.9767 205.83 64.3675 205.068 64.139C204.307 63.9105 203.545 63.8344 202.86 64.0628C202.174 64.2913 201.641 64.5198 201.261 64.9006C200.27 65.9668 199.814 67.6423 199.89 69.6985C200.042 71.8309 200.423 73.2779 201.108 74.1157C201.413 74.4965 201.87 74.8011 202.631 75.1057C203.012 75.258 203.469 75.3342 203.85 75.3342C204.155 75.3342 204.535 75.258 204.84 75.1819C205.678 75.0296 206.287 74.4203 206.896 73.5826C207.429 72.7448 207.734 71.374 207.81 69.5462C207.81 67.9469 207.505 66.6522 206.972 65.8145Z" fill="#00A7E1"/>
<path d="M225.936 77.4666C226.317 77.8474 226.698 77.9997 227.307 77.9997H229.211V68.0992C229.211 65.2052 228.45 63.2251 226.926 62.3113C225.403 61.3212 223.652 60.8643 221.824 60.8643C219.996 60.9404 218.397 61.4735 216.874 62.4636C215.427 63.3775 214.741 65.2814 214.741 68.0992V77.9997H218.549V67.1853C218.549 66.043 218.93 65.1291 219.615 64.596C220.301 64.0629 221.062 63.7583 221.976 63.7583C222.814 63.7583 223.652 64.0629 224.337 64.596C225.099 65.1291 225.479 66.043 225.479 67.1853V76.0958C225.403 76.7051 225.556 77.0858 225.936 77.4666Z" fill="#00A7E1"/>
</svg>
