<?xml version="1.0" encoding="utf-8"?>
<!-- Generator: Adobe Illustrator 25.2.2, SVG Export Plug-In . SVG Version: 6.00 Build 0)  -->
<svg version="1.1" xmlns="http://www.w3.org/2000/svg" xmlns:xlink="http://www.w3.org/1999/xlink" x="0px" y="0px"
	 viewBox="0 0 243 144" style="enable-background:new 0 0 243 144;" xml:space="preserve">
<style type="text/css">
	.st0{fill:#FFFFFF;}
	.st1{fill:#3FAE2A;}
	.st2{fill:#0082CA;}
	.st3{fill:#67675D;}
</style>
<g id="Layer_2">
	<path class="st0" d="M239.24,144H3.76C1.68,144,0,142.32,0,140.24V3.76C0,1.68,1.68,0,3.76,0h235.48c2.08,0,3.76,1.68,3.76,3.76
		v136.48C243,142.32,241.32,144,239.24,144z"/>
</g>
<g id="Layer_1">
	<path class="st1" d="M214.56,105.5c-0.21-0.29-0.56-0.44-0.92-0.39H28.95c-0.35-0.04-0.71,0.11-0.92,0.39
		c-1.7,2.75-2.59,5.91-2.58,9.15c0.01,3.3,0.9,6.54,2.58,9.37c0.2,0.32,0.55,0.69,0.93,0.69h184.67c0.38,0,0.73-0.39,0.93-0.72
		c1.68-2.78,2.58-5.98,2.59-9.23C217.15,111.5,216.26,108.29,214.56,105.5z M211.85,122.68c-0.17,0.27-0.44,0.63-0.76,0.63H31.53
		c-0.31,0-0.59-0.36-0.75-0.63c-1.4-2.5-2.13-5.31-2.13-8.17c0-2.75,0.73-5.46,2.13-7.83c0.17-0.26,0.44-0.18,0.75-0.18h179.56
		c0.31,0,0.59-0.14,0.75,0.14c1.4,2.44,2.14,5.2,2.13,8.02C213.98,117.47,213.24,120.23,211.85,122.68L211.85,122.68z"/>
	<path class="st2" d="M158.22,113.59h-1.42v-0.95h3.85v0.95h-1.42v3.7h-1.07L158.22,113.59z"/>
	<path class="st2" d="M161.44,112.65h3.5v0.89h-2.5v0.95h2.19v0.92h-2.19v0.98h2.54v0.91h-3.54L161.44,112.65L161.44,112.65z"/>
	<path class="st2" d="M165.69,114.99L165.69,114.99c0.05-1.39,1.22-2.45,2.6-2.4c0.62,0.02,1.22,0.29,1.66,0.72l-0.65,0.74
		c-0.32-0.32-0.74-0.51-1.2-0.52c-0.76,0.01-1.36,0.63-1.35,1.4c0,0.02,0,0.03,0,0.05l0,0c-0.04,0.76,0.53,1.42,1.3,1.47
		c0.02,0,0.04,0,0.05,0c0.47,0,0.91-0.2,1.23-0.54l0.65,0.66c-0.48,0.55-1.17,0.86-1.9,0.84c-1.3,0.02-2.37-1.03-2.39-2.32
		C165.69,115.05,165.69,115.02,165.69,114.99z"/>
	<path class="st2" d="M170.8,112.65h1.07v1.84h1.88v-1.84h1.07v4.65h-1.07v-1.86h-1.89v1.86h-1.07L170.8,112.65z"/>
	<path class="st2" d="M175.88,112.65h0.95l2.13,2.87v-2.87h1.07v4.65h-0.87l-2.25-2.96v2.96h-1.07L175.88,112.65z"/>
	<path class="st2" d="M180.91,114.99L180.91,114.99c0.08-1.36,1.27-2.4,2.63-2.32c1.24,0.08,2.23,1.07,2.32,2.32l0,0
		c-0.08,1.36-1.27,2.4-2.63,2.32C181.98,117.22,180.99,116.24,180.91,114.99z M184.78,114.99L184.78,114.99
		c0.02-0.78-0.59-1.44-1.37-1.46c-0.02,0-0.05,0-0.07,0c-0.76-0.01-1.39,0.6-1.4,1.37c0,0.02,0,0.05,0,0.07l0,0
		c-0.03,0.78,0.58,1.44,1.36,1.47c0.01,0,0.03,0,0.04,0c0.77,0.02,1.42-0.58,1.44-1.35C184.78,115.06,184.78,115.03,184.78,114.99z"
		/>
	<path class="st2" d="M186.76,112.65h1.07v3.72h2.32v0.93h-3.34L186.76,112.65z"/>
	<path class="st2" d="M190.42,114.99L190.42,114.99c0-1.36,1.11-2.47,2.47-2.46c1.36,0,2.46,1.11,2.46,2.46l0,0
		c-0.01,1.33-1.09,2.4-2.42,2.4c-0.01,0-0.01,0-0.02,0c-1.31,0.06-2.43-0.95-2.5-2.26C190.42,115.08,190.42,115.03,190.42,114.99z
		 M194.29,114.99L194.29,114.99c0.02-0.78-0.59-1.44-1.37-1.46l0,0c-0.77,0-1.4,0.62-1.4,1.4c0,0.02,0,0.03,0,0.05l0,0
		c-0.02,0.78,0.59,1.44,1.37,1.46c0.01,0,0.01,0,0.02,0c0.77-0.01,1.39-0.65,1.37-1.42C194.29,115.01,194.29,115,194.29,114.99z"/>
	<path class="st2" d="M196.11,114.99L196.11,114.99c-0.01-1.32,1.06-2.4,2.38-2.41c0.02,0,0.04,0,0.06,0
		c0.67-0.03,1.32,0.2,1.82,0.63l-0.63,0.77c-0.33-0.31-0.76-0.48-1.22-0.47c-0.76,0.03-1.36,0.67-1.35,1.43l0,0
		c-0.04,0.77,0.54,1.43,1.31,1.48c0.03,0,0.06,0,0.1,0c0.35,0.01,0.68-0.08,0.97-0.27v-0.67h-1.07v-0.9h2.02v2.02
		c-0.55,0.48-1.26,0.74-1.99,0.74c-1.29,0.04-2.37-0.97-2.4-2.25C196.11,115.07,196.11,115.03,196.11,114.99z"/>
	<path class="st2" d="M202.6,115.47l-1.79-2.82h1.2l1.12,1.86l1.13-1.86h1.16l-1.79,2.8v1.85h-1.07L202.6,115.47z"/>
	<path class="st2" d="M37.21,112.84h3.32v0.69h-2.54v1.22h2.24v0.72H38v1.81h-0.78v-4.43H37.21z"/>
	<path class="st2" d="M41.09,115.67L41.09,115.67c0-0.97,0.78-1.76,1.76-1.76c0.01,0,0.03,0,0.04,0c0.96-0.03,1.76,0.72,1.79,1.68
		c0,0.02,0,0.05,0,0.07l0,0c-0.01,0.97-0.79,1.76-1.77,1.75c-0.01,0-0.02,0-0.03,0c-0.96,0.02-1.77-0.74-1.79-1.7
		C41.09,115.69,41.09,115.68,41.09,115.67z M43.9,115.67L43.9,115.67c0-0.59-0.48-1.07-1.07-1.07c-0.57,0.03-1.02,0.5-1.02,1.07l0,0
		c0,0.59,0.48,1.07,1.07,1.07C43.46,116.7,43.9,116.23,43.9,115.67z"/>
	<path class="st2" d="M45.51,113.94h0.77v0.75c0.17-0.51,0.66-0.84,1.2-0.82v0.82l0,0c-0.67,0-1.15,0.43-1.15,1.33v1.28h-0.77
		L45.51,113.94z"/>
	<path class="st2" d="M48.22,113.94h0.77v0.51c0.22-0.37,0.63-0.59,1.07-0.57c0.42-0.02,0.82,0.21,1.02,0.58
		c0.25-0.37,0.68-0.59,1.13-0.58c0.62-0.03,1.15,0.44,1.2,1.07c0,0.07,0,0.15-0.01,0.21v2.13h-0.77v-1.88
		c0-0.54-0.24-0.84-0.68-0.84s-0.71,0.3-0.71,0.85v1.89h-0.77v-1.91c0-0.52-0.25-0.82-0.68-0.82s-0.71,0.32-0.71,0.85v1.89h-0.82
		v-3.36H48.22z"/>
	<path class="st2" d="M54.3,116.08v-2.13h0.76v1.91c0,0.52,0.26,0.81,0.72,0.81c0.4,0.01,0.75-0.3,0.76-0.71
		c0-0.04,0-0.08-0.01-0.13v-1.9h0.77v3.36h-0.77v-0.52c-0.22,0.38-0.62,0.6-1.07,0.59c-0.63,0.02-1.16-0.48-1.2-1.11
		C54.29,116.2,54.29,116.14,54.3,116.08z"/>
	<path class="st2" d="M58.38,112.65h0.77v4.65h-0.77V112.65z"/>
	<path class="st2" d="M60,116.33L60,116.33c0-0.72,0.57-1.07,1.4-1.07c0.31,0,0.61,0.04,0.91,0.14v-0.07c0-0.48-0.29-0.73-0.84-0.73
		c-0.33,0-0.67,0.07-0.97,0.2l-0.2-0.59c0.39-0.19,0.82-0.29,1.27-0.27c0.39-0.02,0.77,0.12,1.07,0.37
		c0.26,0.29,0.39,0.68,0.36,1.07v1.99h-0.74v-0.41c-0.26,0.31-0.66,0.49-1.07,0.49c-0.58,0.06-1.11-0.36-1.17-0.94
		C60,116.44,60,116.38,60,116.33z M62.32,116.09v-0.22c-0.24-0.1-0.5-0.14-0.75-0.14c-0.5,0-0.8,0.21-0.8,0.56l0,0
		c0,0.33,0.29,0.51,0.66,0.51S62.32,116.51,62.32,116.09z"/>
	<path class="st2" d="M64.17,116.37v-1.78h-0.42v-0.66h0.42v-0.93h0.76v0.93h0.91v0.66h-0.91v1.65c-0.03,0.2,0.11,0.39,0.32,0.42
		c0.03,0,0.07,0.01,0.11,0c0.17,0,0.33-0.04,0.48-0.12v0.62c-0.21,0.13-0.45,0.18-0.69,0.17c-0.48,0.06-0.91-0.26-0.97-0.74
		C64.16,116.53,64.16,116.46,64.17,116.37z"/>
	<path class="st2" d="M66.41,115.67L66.41,115.67c-0.04-0.92,0.66-1.69,1.58-1.75c0.02,0,0.04,0,0.06,0c0.9,0,1.63,0.74,1.62,1.64
		c0,0.03,0,0.07,0,0.11c0,0.07,0,0.15,0,0.22h-2.5c0.05,0.5,0.48,0.87,0.97,0.86c0.35,0,0.69-0.15,0.92-0.4l0.44,0.4
		c-0.34,0.41-0.85,0.65-1.37,0.62c-0.92,0.03-1.69-0.7-1.72-1.62C66.41,115.72,66.41,115.69,66.41,115.67z M68.91,115.42
		c0.01-0.48-0.37-0.87-0.86-0.89c-0.48,0.02-0.87,0.4-0.88,0.89H68.91z"/>
	<path class="st2" d="M70.35,115.67L70.35,115.67c-0.08-0.88,0.56-1.66,1.44-1.73c0.04,0,0.07-0.01,0.12-0.01
		c0.45-0.01,0.89,0.21,1.15,0.58v-1.81h0.76v4.65h-0.76v-0.61c-0.24,0.4-0.68,0.65-1.15,0.63c-0.89-0.03-1.59-0.78-1.55-1.68
		C70.35,115.68,70.35,115.68,70.35,115.67z M73.06,115.67L73.06,115.67c0-0.55-0.42-1.02-0.97-1.07c-0.55,0.01-0.98,0.47-0.97,1
		c0,0.02,0,0.04,0,0.05l0,0c-0.03,0.55,0.38,1.03,0.93,1.07c0.01,0,0.02,0,0.03,0C72.64,116.68,73.06,116.22,73.06,115.67z"/>
	<path class="st2" d="M76.54,113.94h0.8l0.67,2.31l0.74-2.32h0.67l0.74,2.32l0.68-2.31h0.77l-1.07,3.4h-0.72l-0.75-2.31l-0.75,2.31
		h-0.69L76.54,113.94z"/>
	<path class="st2" d="M82.4,112.69h0.86v0.73H82.4V112.69z M82.4,113.94h0.86v3.36h-0.77L82.4,113.94z"/>
	<path class="st2" d="M84.43,116.37v-1.78h-0.42v-0.66h0.42v-0.93h0.76v0.93h0.91v0.66H85.2v1.65c-0.03,0.2,0.11,0.39,0.32,0.42
		c0.03,0,0.07,0.01,0.11,0c0.17,0,0.33-0.04,0.48-0.12v0.62c-0.21,0.13-0.45,0.18-0.69,0.17c-0.47,0.07-0.9-0.25-0.97-0.71
		C84.41,116.55,84.41,116.46,84.43,116.37z"/>
	<path class="st2" d="M86.94,112.65h0.77v1.81c0.22-0.37,0.63-0.59,1.07-0.58c0.62-0.03,1.16,0.44,1.2,1.08c0,0.06,0,0.14-0.01,0.2
		v2.13H89.2v-1.88c0-0.53-0.26-0.84-0.72-0.84c-0.41,0-0.76,0.34-0.76,0.75c0,0.03,0,0.06,0,0.1v1.89h-0.77L86.94,112.65z"/>
	<path class="st2" d="M95.38,111.29h1.6v5.81h3.61v1.45h-5.2C95.38,118.54,95.38,111.29,95.38,111.29z"/>
	<path class="st2" d="M101.86,111.29h1.62v7.26h-1.6L101.86,111.29z"/>
	<path class="st2" d="M105.27,111.29h2.96c1.36-0.16,2.6,0.82,2.76,2.19c0.01,0.11,0.02,0.22,0.02,0.33l0,0
		c0,1.68-1.31,2.56-2.93,2.56h-1.22v2.13h-1.6V111.29z M108.13,114.94c0.61,0.08,1.17-0.35,1.26-0.96c0-0.03,0.01-0.07,0.01-0.11
		l0,0c0-0.71-0.5-1.07-1.3-1.07h-1.23v2.21L108.13,114.94z"/>
	<path class="st2" d="M112.25,111.29h1.6v7.26h-1.6V111.29z"/>
	<path class="st2" d="M121.94,111.29l-2.42,3.54l2.53,3.7h-1.86l-1.62-2.5l-1.64,2.5h-1.81l2.53-3.68l-2.45-3.56h1.86l1.5,2.35
		l1.54-2.35C120.1,111.29,121.94,111.29,121.94,111.29z"/>
	<path class="st2" d="M123.24,111.29h5.46v1.42h-3.87v1.47h3.42v1.43h-3.42v1.52h3.92v1.42h-5.51V111.29z"/>
	<path class="st2" d="M130.19,111.29h1.59v5.81h3.65v1.45h-5.2L130.19,111.29z"/>
	<path class="st2" d="M136.6,111.29h1.59v5.81h3.63v1.45h-5.21V111.29z"/>
	<path class="st2" d="M143.01,111.29h5.46v1.42h-3.88v1.47H148v1.43h-3.42v1.52h3.93v1.42h-5.51V111.29z"/>
	<path class="st2" d="M149.91,111.66h-0.55v-0.25h1.42v0.29h-0.55v1.46h-0.31v-1.49H149.91z"/>
	<path class="st2" d="M151.13,111.4h0.32l0.53,0.84l0.53-0.84h0.32v1.75h-0.31v-1.28l-0.54,0.82l0,0l-0.54-0.82v1.25h-0.3
		L151.13,111.4z"/>
	<path class="st3" d="M31.86,69.99c-0.76,4.1-1.15,8.27-1.17,12.45c-0.04,4.18,0.35,8.36,1.15,12.46h-1.07
		c-0.97-4.08-1.44-8.26-1.41-12.46c-0.05-4.19,0.42-8.38,1.43-12.45H31.86z"/>
	<path class="st3" d="M32.77,70.33h1.33V91.7h-1.33V70.33z"/>
	<path class="st3" d="M38.13,78.23c0-0.98-0.23-1.36-0.76-1.36c-0.74,0-0.86,0.61-0.86,1.57v1.51h-1.32v-1.89
		c-0.17-1.29,0.75-2.47,2.04-2.64c0.05-0.01,0.12-0.01,0.17-0.01c1.28,0,2.04,0.73,2.04,2.81V91.7h-1.23v-0.87l0,0
		c-0.24,0.63-0.86,1.06-1.53,1.07c-1.07,0-1.58-1.07-1.58-2.67v-4.45c0-2.01,0.98-3.11,3.07-3.11L38.13,78.23z M38.13,83.2
		c-0.92-0.03-1.69,0.68-1.72,1.6c0,0.05,0,0.11,0,0.15v3.67c0,1.15,0.13,1.77,0.84,1.77c0.7,0,0.92-0.58,0.92-1.65L38.13,83.2z"/>
	<path class="st3" d="M40.8,73.41l1.32-0.71v2.88h0.94v1.48h-0.94v12.25c0,0.73,0.27,0.92,0.66,0.92h0.27v1.48h-0.63
		c-1.07,0-1.62-0.74-1.62-1.99V77.05h-0.66v-1.48h0.66V73.41z"/>
	<path class="st3" d="M46.81,78.23c0-0.98-0.23-1.36-0.76-1.36c-0.74,0-0.86,0.61-0.86,1.57v1.51h-1.34v-1.89
		c-0.17-1.29,0.75-2.47,2.04-2.64c0.05-0.01,0.12-0.01,0.17-0.01c1.28,0,2.05,0.73,2.05,2.81V91.7h-1.23v-0.87l0,0
		c-0.24,0.63-0.86,1.06-1.53,1.07c-1.07,0-1.58-1.07-1.58-2.67v-4.45c0-2.01,0.98-3.11,3.07-3.11L46.81,78.23z M46.81,83.2
		c-0.92-0.05-1.7,0.66-1.75,1.58c0,0.06,0,0.12,0,0.18v3.67c0,1.15,0.13,1.77,0.84,1.77c0.71,0,0.92-0.58,0.92-1.65V83.2H46.81z"/>
	<path class="st3" d="M49.07,75.57h1.24v1.07l0,0c0.22-0.69,0.81-1.18,1.53-1.28c1.07,0,1.59,1.13,1.59,2.43v13.84h-1.29V78.52
		c0-0.86-0.23-1.47-0.84-1.47c-0.59,0-0.92,0.82-0.92,1.47V91.7h-1.32V75.57H49.07z"/>
	<path class="st3" d="M54.37,78.5c0-2.46,1.07-3.11,2.2-3.11c1.13,0,2.19,0.65,2.19,3.11v10.26c0,2.45-1.07,3.1-2.19,3.1
		s-2.2-0.65-2.2-3.1V78.5z M57.44,78.5c0-1.18-0.34-1.63-0.88-1.63s-0.88,0.44-0.88,1.63v10.26c0,1.18,0.34,1.62,0.88,1.62
		s0.88-0.43,0.88-1.62V78.5z"/>
	<path class="st3" d="M59.67,75.57h1.22v1l0,0c0.12-0.69,0.71-1.18,1.41-1.18c0.86,0,1.7,0.71,1.7,3.13v10.83
		c0,1.45-0.59,2.52-1.51,2.52c-0.71-0.02-1.32-0.5-1.51-1.18l0,0v4.21h-1.3C59.67,94.89,59.67,75.57,59.67,75.57z M62.74,78.58
		c0-1.07-0.23-1.71-0.76-1.71S61,77.34,61,78.65v9.78c0,1,0.38,1.78,0.96,1.78s0.78-0.68,0.78-1.86V78.58z"/>
	<path class="st3" d="M64.98,75.57h1.24v1.07l0,0c0.25-0.76,0.96-1.29,1.77-1.3v1.88c-1.28,0-1.72,0.68-1.72,2.36V91.7h-1.28
		C64.98,91.7,64.98,75.57,64.98,75.57z"/>
	<path class="st3" d="M68.8,78.5c0-2.46,1.07-3.11,2.19-3.11s2.19,0.65,2.19,3.11v10.26c0,2.45-1.07,3.1-2.19,3.1
		s-2.19-0.65-2.19-3.1V78.5z M71.87,78.5c0-1.18-0.34-1.63-0.88-1.63c-0.53,0-0.88,0.44-0.88,1.63v10.26c0,1.18,0.34,1.62,0.88,1.62
		c0.53,0,0.88-0.43,0.88-1.62V78.5z"/>
	<path class="st3" d="M76.79,77.97c0-0.74-0.25-1.07-0.68-1.07s-0.68,0.53-0.68,1.15v1.81c0.03,0.56,0.2,1.11,0.49,1.6l1.67,3.19
		c0.32,0.54,0.48,1.15,0.47,1.78v2.72c0,1.75-0.7,2.72-1.99,2.72c-1.07,0-1.96-0.7-1.96-2.52v-2.81h1.32v2.51
		c0,0.73,0.08,1.35,0.66,1.35s0.63-0.65,0.63-1.39v-1.97c-0.01-0.62-0.18-1.23-0.49-1.77l-1.5-2.88c-0.4-0.63-0.61-1.37-0.61-2.13
		v-2.13c0-1.77,0.88-2.78,2.06-2.78c1.42,0,1.86,1.33,1.86,2.31v2.67h-1.26C76.79,80.34,76.79,77.97,76.79,77.97z"/>
	<path class="st3" d="M79.41,73.41l1.32-0.71v2.88h0.94v1.48h-0.94v12.25c0,0.73,0.27,0.92,0.66,0.92h0.27v1.48h-0.63
		c-1.07,0-1.62-0.74-1.62-1.99V77.05h-0.66v-1.48h0.66C79.41,75.57,79.41,73.41,79.41,73.41z"/>
	<path class="st3" d="M84.84,78.5c0-2.46,1.07-3.11,2.19-3.11c1.12,0,2.2,0.65,2.2,3.11v10.26c0,2.45-1.07,3.1-2.2,3.1
		c-1.13,0-2.19-0.65-2.19-3.1V78.5z M87.9,78.5c0-1.18-0.34-1.63-0.88-1.63c-0.54,0-0.88,0.44-0.88,1.63v10.26
		c0,1.18,0.34,1.62,0.88,1.62c0.54,0,0.88-0.43,0.88-1.62V78.5z"/>
	<path class="st3" d="M90.14,75.57h1.25v1l0,0c0.12-0.7,0.74-1.21,1.45-1.18c0.86,0,1.7,0.71,1.7,3.13v10.83
		c0,1.45-0.59,2.52-1.51,2.52c-0.71-0.02-1.32-0.5-1.51-1.18l0,0v4.21h-1.37V75.57z M93.21,78.58c0-1.07-0.23-1.71-0.76-1.71
		s-0.98,0.47-0.98,1.78v9.78c0,1,0.38,1.78,0.96,1.78c0.58,0,0.78-0.68,0.78-1.86V78.58z"/>
	<path class="st3" d="M95.46,70.33h1.32v6.39l0,0c0.19-0.69,0.78-1.2,1.49-1.28c1.07,0,1.53,1.13,1.53,2.43v13.84h-1.28v-13.2
		c0-0.86-0.23-1.47-0.84-1.47c-0.59,0-0.92,0.82-0.92,1.47V91.7h-1.32V70.33H95.46z"/>
	<path class="st3" d="M101.2,73.41l1.32-0.71v2.88h0.96v1.48h-0.96v12.25c0,0.73,0.27,0.92,0.66,0.92h0.3v1.48h-0.63
		c-1.07,0-1.62-0.74-1.62-1.99V77.05h-0.66v-1.48h0.66L101.2,73.41z"/>
	<path class="st3" d="M104.15,70.33h1.32v6.39l0,0c0.19-0.69,0.78-1.2,1.49-1.28c1.07,0,1.53,1.13,1.53,2.43v13.84h-1.28v-13.2
		c0-0.86-0.23-1.47-0.84-1.47c-0.59,0-0.92,0.82-0.92,1.47V91.7h-1.32V70.33H104.15z"/>
	<path class="st3" d="M112.53,78.23c0-0.98-0.23-1.36-0.76-1.36c-0.74,0-0.86,0.61-0.86,1.57v1.51h-1.33v-1.89
		c-0.16-1.3,0.76-2.49,2.06-2.64c0.05-0.01,0.11-0.01,0.16-0.01c1.28,0,2.04,0.73,2.04,2.81V91.7h-1.24v-0.87l0,0
		c-0.24,0.63-0.86,1.06-1.53,1.07c-1.07,0-1.59-1.07-1.59-2.67v-4.45c0-2.01,0.98-3.11,3.08-3.11L112.53,78.23z M112.53,83.2
		c-0.92-0.05-1.7,0.66-1.75,1.58c0,0.06,0,0.12,0,0.18v3.67c0,1.15,0.13,1.77,0.84,1.77c0.7,0,0.92-0.58,0.92-1.65V83.2H112.53z"/>
	<path class="st3" d="M114.82,70.33h1.32V91.7h-1.32V70.33z"/>
	<path class="st3" d="M117.15,75.57h1.24v1.07l0,0c0.4-0.84,0.84-1.28,1.53-1.28c0.59,0.06,1.09,0.49,1.24,1.07
		c0.21-0.58,0.74-1,1.36-1.07c1.07,0,1.58,1.13,1.58,2.43v13.84h-1.28V78.39c0-0.89-0.17-1.39-0.66-1.39s-0.86,0.67-0.86,1.47V91.7
		h-1.32V78.39c0-0.89-0.17-1.39-0.66-1.39c-0.49,0-0.86,0.67-0.86,1.47V91.7h-1.32C117.15,91.7,117.15,75.57,117.15,75.57z"/>
	<path class="st3" d="M125.12,70.33h1.41v2.24h-1.41V70.33z M125.12,75.57h1.32V91.7h-1.28L125.12,75.57z"/>
	<path class="st3" d="M130.1,78.2c0-1-0.19-1.33-0.61-1.33s-0.72,0.41-0.72,1.33v10.97c0,0.84,0.17,1.22,0.66,1.22
		s0.68-0.47,0.68-1.22v-2.6h1.32v2.58c0,1.75-0.7,2.72-1.98,2.72c-1.07,0-2-0.73-2-2.43V78.5c0-2.46,1.07-3.11,2.19-3.11
		c1.13,0,1.79,0.87,1.79,2.6v2.7h-1.32V78.2z"/>
	<path class="st3" d="M138.14,86.48h1.32v2.27c0,2.45-1.07,3.1-2.19,3.1c-1.13,0-2.2-0.65-2.2-3.1V78.5c0-2.46,1.07-3.11,2.2-3.11
		c1.14,0,2.19,0.65,2.19,3.11v5.6h-3.07v4.67c0,1.18,0.34,1.62,0.88,1.62c0.53,0,0.88-0.43,0.88-1.62v-2.28H138.14z M138.14,78.5
		c0-1.18-0.34-1.63-0.88-1.63c-0.53,0-0.88,0.44-0.88,1.63v3.92h1.75V78.5H138.14z"/>
	<path class="st3" d="M140.4,75.57h1.24v1.07l0,0c0.4-0.84,0.84-1.28,1.53-1.28c0.59,0.06,1.09,0.49,1.24,1.07
		c0.21-0.58,0.74-1,1.36-1.07c1.07,0,1.58,1.13,1.58,2.43v13.84h-1.27V78.39c0-0.89-0.17-1.39-0.66-1.39
		c-0.49,0-0.86,0.67-0.86,1.47V91.7h-1.32V78.39c0-0.89-0.17-1.39-0.66-1.39c-0.49,0-0.86,0.67-0.86,1.47V91.7h-1.32L140.4,75.57z"
		/>
	<path class="st3" d="M152.74,91.7h-1.24v-1.07l0,0c-0.22,0.69-0.81,1.17-1.53,1.27c-1.07,0-1.59-1.12-1.59-2.43V75.62h1.33v13.11
		c0,0.86,0.23,1.48,0.84,1.48c0.6,0,0.92-0.84,0.92-1.48V75.57h1.32L152.74,91.7z"/>
	<path class="st3" d="M153.73,70.33h1.32V91.7h-1.32V70.33z"/>
	<path class="st3" d="M158.71,77.97c0-0.74-0.25-1.07-0.68-1.07s-0.69,0.53-0.69,1.15v1.81c0.03,0.56,0.2,1.11,0.5,1.6l1.66,3.19
		c0.32,0.54,0.48,1.15,0.47,1.78v2.72c0,1.75-0.7,2.72-1.98,2.72c-1.07,0-1.97-0.7-1.97-2.52v-2.81h1.32v2.51
		c0,0.73,0.08,1.35,0.67,1.35c0.58,0,0.63-0.65,0.63-1.39v-1.97c-0.01-0.62-0.18-1.23-0.49-1.77l-1.52-2.88
		c-0.4-0.63-0.61-1.37-0.61-2.13v-2.13c0-1.77,0.88-2.78,2.07-2.78c1.41,0,1.85,1.33,1.85,2.31v2.67h-1.24L158.71,77.97
		L158.71,77.97z"/>
	<path class="st3" d="M160.9,70.33h1.41v2.24h-1.41V70.33z M160.9,75.57h1.32V91.7h-1.25L160.9,75.57z"/>
	<path class="st3" d="M163.24,78.5c0-2.46,1.07-3.11,2.19-3.11c1.12,0,2.19,0.65,2.19,3.11v10.26c0,2.45-1.07,3.1-2.19,3.1
		c-1.12,0-2.19-0.65-2.19-3.1V78.5z M166.3,78.5c0-1.18-0.34-1.63-0.88-1.63s-0.88,0.44-0.88,1.63v10.26c0,1.18,0.34,1.62,0.88,1.62
		s0.88-0.43,0.88-1.62V78.5z"/>
	<path class="st3" d="M168.54,75.57h1.24v1.07l0,0c0.22-0.69,0.81-1.18,1.53-1.28c1.07,0,1.59,1.13,1.59,2.43v13.84h-1.27V78.52
		c0-0.86-0.24-1.47-0.85-1.47c-0.59,0-0.92,0.82-0.92,1.47V91.7h-1.33V75.57H168.54z"/>
	<path class="st3" d="M173.54,94.89c0.76-4.1,1.15-8.28,1.17-12.46c0.04-4.18-0.35-8.34-1.15-12.45h1.07
		c0.97,4.07,1.44,8.26,1.41,12.45c0.05,4.2-0.42,8.39-1.43,12.46H173.54z"/>
	<path class="st3" d="M179.54,73.33c0-2.7,1.24-3.19,2.19-3.19s2.19,0.48,2.19,3.19v15.38c0,2.7-1.24,3.19-2.19,3.19
		s-2.19-0.47-2.19-3.19V73.33z M182.61,73.12c0-0.53,0-1.48-0.88-1.48s-0.88,0.95-0.88,1.48v15.79c0,0.53,0,1.48,0.88,1.48
		s0.88-0.95,0.88-1.48V73.12z"/>
	<path class="st3" d="M185.11,89.44h1.42v2.25h-1.41L185.11,89.44z"/>
	<path class="st3" d="M187.69,73.33c0-2.7,1.25-3.19,2.2-3.19s2.19,0.48,2.19,3.19v15.38c0,2.7-1.24,3.19-2.19,3.19
		s-2.2-0.47-2.2-3.19V73.33z M190.79,73.07c0-0.53,0-1.48-0.88-1.48c-0.88,0-0.89,0.95-0.89,1.48v15.83c0,0.53,0,1.48,0.89,1.48
		s0.88-0.95,0.88-1.48V73.07z"/>
	<path class="st3" d="M193.27,73.33c0-2.7,1.24-3.19,2.2-3.19c0.97,0,2.19,0.48,2.19,3.19v15.38c0,2.7-1.24,3.19-2.19,3.19
		c-0.96,0-2.2-0.47-2.2-3.19V73.33z M196.35,73.12c0-0.53,0-1.48-0.88-1.48s-0.89,0.95-0.89,1.48v15.79c0,0.53,0,1.48,0.89,1.48
		s0.88-0.95,0.88-1.48V73.12z"/>
	<path class="st3" d="M198.94,70.33h4.26v1.67h-2.98v7.21l0,0c0.2-0.54,0.7-0.92,1.28-0.97c1.07,0,1.77,0.82,1.77,2.75v7.66
		c0,1.92-0.63,3.19-2.21,3.19s-2.23-1.3-2.23-3.19v-2.91h1.32v2.9c0,1.07,0.19,1.75,0.92,1.75s0.9-0.65,0.9-1.75v-7.19
		c0-1.07-0.19-1.73-0.88-1.73c-0.68,0-0.9,0.65-0.9,1.73v0.87h-1.32L198.94,70.33z"/>
	<path class="st3" d="M204.35,72.47c0-1.6,0.57-2.31,1.72-2.31c1.15,0,1.72,0.71,1.72,2.31v5.74c0,1.6-0.57,2.31-1.72,2.31
		c-1.15,0-1.72-0.71-1.72-2.31V72.47z M206.66,72.26c0-0.53-0.13-0.92-0.57-0.92s-0.57,0.38-0.57,0.92v6.13
		c0,0.48,0.13,0.92,0.57,0.92s0.57-0.43,0.57-0.92V72.26z M210.92,70.13h1.07l-5.32,21.71h-1.07L210.92,70.13z M209.81,83.83
		c0-1.6,0.57-2.31,1.72-2.31s1.72,0.71,1.72,2.31v5.74c0,1.6-0.57,2.3-1.72,2.3s-1.72-0.7-1.72-2.3V83.83z M212.1,83.62
		c0-0.53-0.13-0.92-0.57-0.92s-0.57,0.38-0.57,0.92v6.16c0,0.47,0.13,0.92,0.57,0.92s0.57-0.44,0.57-0.92V83.62z"/>
	<path class="st1" d="M97.98,22.72c6.23-0.96,12.53-1.34,18.83-1.13c0.22-0.01,0.39-0.19,0.38-0.41c-0.01-0.18-0.13-0.33-0.31-0.37
		c-6.45-0.94-13-1.06-19.48-0.33c-15.64,1.67-28.8,7.54-35.21,14.81c-0.14,0.17-0.11,0.42,0.06,0.55c0.13,0.11,0.32,0.12,0.45,0.02
		C70.93,29.84,83.47,24.92,97.98,22.72z"/>
	<path class="st2" d="M151.65,38.37c-0.91-0.08-1.82-0.08-1.99-0.08c-3.49,0.25-6.95,0.88-10.3,1.87c-1.41,0.43-2.37,1.72-2.37,3.19
		v18.79h4.19V44.19c1.52-0.87,4.79-1.46,7.33-1.78C149.3,40.89,150.37,39.52,151.65,38.37z"/>
	<path class="st2" d="M123.72,24.43c-7.16-0.86-45.65-3.27-67.73,20.86l1.4,1.67c0.84,1.02,2.33,1.15,3.34,0.32
		c0.08-0.07,0.17-0.15,0.24-0.23c5.32-5.87,23.56-21.84,62.65-21.29c0.36,0.03,0.68-0.24,0.71-0.61
		C124.35,24.78,124.08,24.46,123.72,24.43z"/>
	<path class="st2" d="M39.26,64.49l12.61-14.13L39.26,36.24c-0.5-0.59-0.41-1.47,0.18-1.97c0.25-0.21,0.56-0.33,0.89-0.33l0,0
		c1.66,0,3.25,0.73,4.33,2l25.73,28.54c0.54,0.65,0.45,1.61-0.19,2.15c-0.27,0.23-0.61,0.36-0.97,0.36l0,0
		c-1.47,0-2.87-0.67-3.78-1.82L54.88,53.12L44.24,65.14c-0.94,1.16-2.36,1.84-3.85,1.84l0,0c-0.84-0.02-1.5-0.71-1.48-1.54
		C38.91,65.09,39.04,64.76,39.26,64.49z"/>
	<path class="st2" d="M66.91,50.27c0-7.73,6.24-12.04,13.09-12.04c8.08,0,12.9,4.71,12.92,12.4v0.15l0,0
		c-0.06,0.67-0.62,1.18-1.3,1.18H71.78c0,4.83,4.93,7.46,9.58,7.46c3.2-0.17,6.39-0.62,9.52-1.35v1.34
		c0.01,1.09-0.75,2.03-1.81,2.25c-2.8,0.61-5.65,0.94-8.51,0.99C72.86,62.68,66.91,58.91,66.91,50.27z M88.2,49.01
		c0-4.35-3.63-7.46-8.17-7.46c-4.54,0-8.22,3.14-8.22,7.46H88.2z"/>
	<path class="st2" d="M164.08,38.23h0.27c6.58,0,14.01,2.81,14.01,12.18s-7.37,12.42-13.95,12.27h-0.34
		c-6.58,0.15-14.01-3.33-14.01-12.13S157.5,38.1,164.08,38.23z M164.25,41.43c-5.9,0-9.31,3.52-9.31,8.94
		c0,5.66,3.41,9.14,9.31,9.14c5.9,0,9.24-3.19,9.24-9.14C173.49,44.71,170.08,41.43,164.25,41.43z"/>
	<path class="st2" d="M191.86,41.43c-4.65-0.19-6.63,1.64-6.68,3.33c0,0-0.4,1.98,2.55,2.71c7.6,2.13,13.38,2.95,13.04,8.69
		c-0.5,5.56-5.62,6.52-11.78,6.52c-2.53-0.04-5.02-0.49-7.41-1.32c-0.65-0.24-1.07-0.86-1.07-1.54v-2.23
		c2.75,1.03,5.66,1.59,8.59,1.65c3.85,0,6.57-0.53,6.85-3.19c0.29-2.67-4.2-3.48-9.7-5.02c-6.46-1.79-6.01-6.18-6.01-6.18
		c0.17-4.02,3.68-6.86,11.79-6.58c2.01,0.15,4.01,0.43,5.99,0.88c0.74,0.15,1.28,0.79,1.29,1.54v2.13
		C196.9,42.01,194.39,41.54,191.86,41.43z"/>
	<path class="st2" d="M119.36,38.23h-0.27c-3.63-0.17-7.19,0.96-10.06,3.19c-0.53,0.45-0.84,1.13-0.84,1.83v25.12
		c0,1.34,1.09,2.44,2.44,2.44l0,0l0,0c1.34,0.01,2.43-1.08,2.44-2.42c0-0.01,0-0.01,0-0.02V44.63c0.01-0.94,0.55-1.81,1.41-2.21
		c1.5-0.69,3.13-1.03,4.78-0.99c5.84,0,9.24,3.28,9.24,8.94c0,5.9-3.41,9.14-9.24,9.14c-1.08,0-2.16-0.14-3.19-0.41v2.36
		c-0.05,0.57,0.35,1.08,0.92,1.16c0.71,0.06,1.42,0.1,2.13,0.07h0.35c6.57,0.15,13.95-2.75,13.95-12.27S125.94,38.23,119.36,38.23z"
		/>
	<path class="st2" d="M100.65,55.35V29.41c-1.64,0.3-3.25,0.66-4.82,1.07v25.15c0,4.83,2.41,6.39,7.81,6.67
		c0.65,0.03,1.2-0.47,1.23-1.12c0-0.02,0-0.04,0-0.06V59C100.74,58.69,100.65,57.1,100.65,55.35z"/>
	<path class="st2" d="M203.72,37.2h-0.77v-3.34h-1.25v-0.7h3.27v0.7h-1.25L203.72,37.2z M207.91,36.27h-0.07l-1.25-1.95v2.89h-0.75
		v-4.05h0.84l1.23,1.91l1.23-1.91h0.86v4.05h-0.74v-2.89L207.91,36.27z"/>
</g>
</svg>
