<svg width="243" height="144" viewBox="0 0 243 144" fill="none" xmlns="http://www.w3.org/2000/svg">
<path d="M0 6C0 2.68629 2.68629 0 6 0H237C240.314 0 243 2.68629 243 6V138C243 141.314 240.314 144 237 144H6C2.68629 144 0 141.314 0 138V6Z" fill="white"/>
<path d="M108.449 62.7509L96.5518 45.4688H100.481L110.123 59.7675L119.837 45.4688H123.585L111.724 62.7145V74.0662H108.449V62.7509Z" fill="#002554"/>
<path fill-rule="evenodd" clip-rule="evenodd" d="M120.419 63.5515V63.6243C120.419 69.5912 125.04 74.5757 131.37 74.5757C137.737 74.5757 142.431 69.5184 142.431 63.5515V63.4788C142.431 57.5119 137.774 52.5273 131.443 52.5273C125.076 52.5273 120.419 57.5846 120.419 63.5515ZM139.193 63.5516V63.6243C139.193 68.0631 136.027 71.7378 131.407 71.7742C126.968 71.7742 123.621 68.0995 123.621 63.5516V63.4788C123.621 59.0036 126.75 55.2925 131.334 55.2925C135.809 55.2925 139.193 59.0036 139.193 63.5516Z" fill="#002554"/>
<path d="M146.106 52.9639H149.235V56.6387C150.618 54.3465 152.837 52.5273 156.476 52.5273C161.569 52.5273 164.553 55.9474 164.553 61.0047V74.1391H161.424V61.7324C161.424 57.803 159.314 55.3653 155.566 55.3653C151.928 55.3653 149.235 58.0213 149.235 61.9871V74.1028H146.106V52.9639H146.106Z" fill="#002554"/>
<path d="M167.536 71.3735L169.137 69.1177C171.429 70.8277 173.94 71.8101 176.45 71.8101C178.997 71.8101 180.816 70.5003 180.816 68.4628V68.39C180.816 66.2798 178.342 65.443 175.541 64.6789C172.23 63.733 168.555 62.6051 168.555 58.712V58.6393C168.555 55.0009 171.575 52.5996 175.759 52.5996C178.342 52.5996 181.18 53.5092 183.363 54.9282L181.944 57.2931C179.979 56.0197 177.724 55.2556 175.686 55.2556C173.212 55.2556 171.611 56.5654 171.611 58.3118V58.3846C171.611 60.3857 174.231 61.1497 177.032 62.0229C180.307 63.0053 183.8 64.2787 183.8 68.0626V68.1717C183.8 72.1739 180.489 74.5025 176.268 74.5025C173.285 74.5025 169.901 73.3018 167.536 71.3735Z" fill="#002554"/>
<path fill-rule="evenodd" clip-rule="evenodd" d="M186.091 67.8809V67.9537C186.091 72.2833 190.057 74.5391 193.95 74.5755C197.661 74.5755 200.135 72.8654 201.59 70.9371V74.1389H204.61V61.2227C204.61 58.5303 203.846 56.4565 202.427 55.0375C200.899 53.473 198.607 52.709 195.623 52.709C192.567 52.709 190.275 53.4003 187.946 54.4554L188.892 57.0386C190.857 56.129 192.822 55.4741 195.296 55.4741C199.262 55.4741 201.59 57.4388 201.59 61.2227V61.9504C199.735 61.4046 197.806 61.0408 195.114 61.0408C189.766 61.0408 186.091 63.4421 186.091 67.8809ZM201.663 64.279V66.3165C201.663 69.6638 198.461 72.0287 194.568 72.0287C191.694 72.0287 189.256 70.4642 189.256 67.8082V67.7354C189.256 65.0794 191.476 63.3694 195.442 63.3694C198.025 63.3694 200.099 63.8424 201.663 64.279Z" fill="#002554"/>
<path d="M145.887 99.4619L144.869 99.753L144.65 98.5523L146.288 98.043H147.234V104.701H145.887V99.4619Z" fill="#00A7B5"/>
<path d="M148.397 103.609L150.362 101.608C151.053 100.88 151.308 100.516 151.308 100.043C151.308 99.534 150.981 99.2429 150.508 99.2429C150.035 99.2429 149.707 99.4976 149.307 100.043L148.434 99.2065C149.016 98.4061 149.671 98.0059 150.653 98.0059C151.89 98.0059 152.727 98.7335 152.727 99.9342V99.9706C152.727 100.88 152.29 101.426 151.308 102.372L150.217 103.5H152.727V104.737H148.434V103.609H148.397Z" fill="#00A7B5"/>
<path d="M153.455 104.009L154.219 102.991C154.656 103.354 155.056 103.573 155.529 103.573C156.147 103.573 156.548 103.209 156.548 102.59C156.548 102.008 156.111 101.644 155.493 101.644C155.165 101.644 154.838 101.754 154.583 101.863L153.819 101.353L154.001 98.1152H157.639V99.3523H155.165L155.092 100.553C155.311 100.48 155.529 100.444 155.82 100.444C156.948 100.444 157.93 101.062 157.93 102.518V102.554C157.93 103.973 156.984 104.846 155.602 104.846C154.692 104.846 154.001 104.519 153.455 104.009Z" fill="#00A7B5"/>
<path d="M160.877 99.6431H162.223V100.334C162.514 99.8978 162.915 99.5703 163.533 99.5703C164.115 99.5703 164.552 99.8614 164.77 100.298C165.134 99.8614 165.607 99.5703 166.226 99.5703C167.135 99.5703 167.717 100.152 167.717 101.28V104.737H166.371V101.681C166.371 101.098 166.116 100.771 165.68 100.771C165.243 100.771 164.952 101.098 164.952 101.681V104.737H163.606V101.681C163.606 101.098 163.351 100.771 162.915 100.771C162.478 100.771 162.187 101.098 162.187 101.681V104.737H160.841V99.6431H160.877Z" fill="#00A7B5"/>
<path fill-rule="evenodd" clip-rule="evenodd" d="M169.209 104.7L168.809 105.755C169.391 106.009 170.046 106.191 170.737 106.191C171.611 106.191 172.229 105.973 172.666 105.573C173.066 105.173 173.248 104.591 173.248 103.79V99.6424H171.902V100.297C171.574 99.897 171.174 99.5332 170.483 99.5332C169.5 99.5332 168.591 100.297 168.591 101.898V101.935C168.591 103.535 169.464 104.336 170.483 104.336C171.174 104.336 171.574 103.972 171.902 103.535V103.863C171.902 104.663 171.502 105.063 170.665 105.063C170.119 105.063 169.61 104.918 169.209 104.7ZM170.956 100.734C171.502 100.734 171.938 101.207 171.938 101.971C171.938 102.699 171.502 103.208 170.956 103.208C170.374 103.208 169.974 102.735 169.974 101.971C169.974 101.207 170.374 100.734 170.956 100.734Z" fill="#00A7B5"/>
<path d="M176.669 103.463V100.807H176.159V99.6789H176.669V98.3691H178.015V99.6789H179.033V100.807H178.015V103.208C178.015 103.499 178.16 103.645 178.415 103.645C178.633 103.645 178.815 103.572 178.997 103.499V104.554C178.742 104.7 178.415 104.809 178.015 104.809C177.214 104.809 176.669 104.518 176.669 103.463Z" fill="#00A7B5"/>
<path fill-rule="evenodd" clip-rule="evenodd" d="M179.614 103.208V103.281C179.614 104.263 180.306 104.809 181.142 104.845C181.725 104.845 182.161 104.591 182.452 104.191V104.773H183.762V101.68C183.762 101.025 183.616 100.516 183.253 100.152C182.925 99.8245 182.416 99.6426 181.725 99.6426C180.997 99.6426 180.487 99.7881 179.978 100.043L180.342 101.098C180.669 100.952 181.033 100.807 181.506 100.807C182.088 100.807 182.452 101.098 182.452 101.68V101.826C182.161 101.68 181.834 101.607 181.397 101.607C180.342 101.607 179.614 102.08 179.614 103.208ZM182.452 102.626V103.063C182.452 103.536 182.088 103.863 181.543 103.827C181.142 103.827 180.888 103.608 180.888 103.208V103.172C180.888 102.735 181.179 102.48 181.688 102.48C181.979 102.48 182.27 102.517 182.452 102.626Z" fill="#00A7B5"/>
<path fill-rule="evenodd" clip-rule="evenodd" d="M186.127 104.737V104.082C186.419 104.446 186.819 104.809 187.51 104.809C188.529 104.809 189.438 104.009 189.438 102.263V102.117C189.438 100.407 188.529 99.5701 187.51 99.5701C186.819 99.5701 186.419 99.934 186.127 100.371V97.8965H184.781V104.737H186.127ZM188.092 102.117V102.226C188.092 103.099 187.655 103.645 187.11 103.645C186.564 103.645 186.127 103.099 186.127 102.226V102.117C186.127 101.244 186.564 100.698 187.11 100.698C187.655 100.698 188.092 101.244 188.092 102.117Z" fill="#00A7B5"/>
<path d="M190.385 97.8965H191.731V104.737H190.385V97.8965Z" fill="#00A7B5"/>
<path fill-rule="evenodd" clip-rule="evenodd" d="M192.641 102.19V102.263C192.641 103.827 193.696 104.846 195.006 104.81C195.77 104.81 196.352 104.518 196.825 104.009L196.133 103.209C195.806 103.536 195.479 103.718 195.078 103.718C194.533 103.718 194.096 103.354 193.987 102.699H197.007V102.263C197.007 100.771 196.315 99.5703 194.86 99.5703C193.587 99.5703 192.641 100.698 192.641 102.19ZM194.86 100.698C195.369 100.698 195.66 101.135 195.733 101.826H193.987C194.059 101.098 194.351 100.698 194.86 100.698Z" fill="#00A7B5"/>
<path d="M198.098 103.463V100.807H197.589V99.6789H198.098V98.3691H199.444V99.6789H200.463V100.807H199.444V103.208C199.444 103.499 199.59 103.645 199.845 103.645C200.063 103.645 200.245 103.572 200.427 103.499V104.554C200.172 104.7 199.845 104.809 199.444 104.809C198.68 104.809 198.098 104.518 198.098 103.463Z" fill="#00A7B5"/>
<path d="M200.936 104.118L201.518 103.172C201.954 103.535 202.464 103.754 202.864 103.754C203.228 103.754 203.41 103.572 203.41 103.353V103.317C203.41 103.026 203.046 102.917 202.5 102.662C201.772 102.335 201.154 102.007 201.154 101.134V101.098C201.154 100.115 201.918 99.5332 202.9 99.5332C203.446 99.5332 204.065 99.7151 204.574 100.079L204.028 101.061C203.664 100.807 203.228 100.625 202.864 100.625C202.536 100.625 202.355 100.77 202.355 100.989V101.025C202.355 101.28 202.718 101.425 203.264 101.68C203.992 102.044 204.61 102.407 204.61 103.208V103.244C204.61 104.299 203.846 104.809 202.827 104.809C202.282 104.809 201.554 104.627 200.936 104.118Z" fill="#00A7B5"/>
<path d="M97.8252 86.3642C97.8252 82.3984 99.3169 79.7061 101.318 78.2871V78.942C99.7899 80.3974 98.6256 82.6531 98.6256 86.3642C98.6256 90.0754 99.7899 92.3311 101.318 93.7865V94.4414C99.2805 93.0224 97.8252 90.33 97.8252 86.3642Z" fill="#002554"/>
<path fill-rule="evenodd" clip-rule="evenodd" d="M102.046 88.802V88.9476C102.046 90.694 102.992 92.0038 104.338 91.9674C105.284 91.9674 105.939 91.3489 106.339 90.3665V91.8219H107.14V84.6907C107.14 82.8351 106.121 81.8164 104.484 81.8164C103.792 81.8164 103.174 81.9983 102.628 82.253V83.0171C103.21 82.726 103.756 82.5805 104.447 82.5805C105.721 82.5805 106.339 83.3809 106.339 84.7635V86.0005C105.866 85.8186 105.357 85.6367 104.666 85.6367C102.992 85.6367 102.046 86.9829 102.046 88.802ZM106.339 86.7281V88.7292C106.339 90.039 105.611 91.3124 104.447 91.276C103.392 91.276 102.846 90.2209 102.846 88.8747V88.7292C102.846 87.3466 103.465 86.3279 104.702 86.3279C105.284 86.3279 105.793 86.4734 106.339 86.7281Z" fill="#002554"/>
<path fill-rule="evenodd" clip-rule="evenodd" d="M109.796 91.8579V89.9296C110.196 91.0574 110.887 92.0034 111.869 92.0034C113.216 92.0034 114.453 90.2206 114.453 87.0553V86.6914C114.453 83.4897 113.216 81.7433 111.869 81.7433C110.887 81.7433 110.196 82.6892 109.796 83.8171V78.4688H108.995V91.8579H109.796ZM113.689 86.7278V87.0189C113.689 89.7476 112.816 91.2757 111.797 91.3121C110.778 91.3121 109.759 89.784 109.759 87.128V86.655C109.759 83.999 110.778 82.4709 111.797 82.4709C112.816 82.4709 113.689 83.999 113.689 86.7278Z" fill="#002554"/>
<path fill-rule="evenodd" clip-rule="evenodd" d="M116.999 78.4688H116.126V79.7786H116.999V78.4688ZM116.963 81.8889H116.163V91.8216H116.963V81.8889Z" fill="#002554"/>
<path d="M119.037 81.8896H119.838V83.3449C120.201 82.4353 121.002 81.7076 122.166 81.7804V82.6172H122.13C120.893 82.6172 119.838 83.4177 119.838 85.1641V91.8223H119.037V81.8896H119.037Z" fill="#002554"/>
<path fill-rule="evenodd" clip-rule="evenodd" d="M122.529 88.802V88.9476C122.529 90.694 123.475 92.0038 124.821 91.9674C125.767 91.9674 126.422 91.3489 126.823 90.3665V91.8219H127.623V84.6907C127.623 82.8351 126.604 81.8164 124.967 81.8164C124.276 81.8164 123.657 81.9983 123.111 82.253V83.0171C123.694 82.726 124.239 82.5805 124.931 82.5805C126.204 82.5805 126.823 83.3809 126.823 84.7635V86.0005C126.35 85.8186 125.84 85.6367 125.149 85.6367C123.475 85.6367 122.529 86.9829 122.529 88.802ZM126.823 86.7281V88.7292C126.823 90.039 126.095 91.3124 124.931 91.276C123.875 91.276 123.33 90.2209 123.33 88.8747V88.7292C123.33 87.3466 123.948 86.3279 125.185 86.3279C125.767 86.3279 126.277 86.4734 126.823 86.7281Z" fill="#002554"/>
<path d="M129.697 90.1836V82.6522H128.751V81.9246H129.697V79.123H130.497V81.9246H132.098V82.6522H130.497V90.0745C130.497 90.9477 130.898 91.166 131.553 91.166C131.734 91.166 131.989 91.1296 132.171 91.0568V91.7845C131.989 91.8573 131.698 91.8937 131.48 91.8937C130.388 91.93 129.697 91.4571 129.697 90.1836Z" fill="#002554"/>
<path fill-rule="evenodd" clip-rule="evenodd" d="M133.008 86.8742V87.0561C133.008 90.3306 134.5 91.9679 136.173 91.9679C136.937 91.9679 137.41 91.8224 138.102 91.4222L137.992 90.6217C137.374 91.0583 136.901 91.2038 136.282 91.2038C134.936 91.2038 133.845 89.894 133.808 87.2017H138.32V86.6195C138.32 83.4905 137.228 81.7441 135.737 81.7441C134.281 81.7441 133.008 83.4178 133.008 86.8742ZM135.737 82.5082C136.792 82.5082 137.556 84.2182 137.556 86.5104H133.808C133.881 83.8908 134.718 82.5082 135.737 82.5082Z" fill="#002554"/>
<path d="M139.921 81.8896H140.721V83.3449C141.085 82.4353 141.886 81.7076 143.05 81.7804V82.6172H143.013C141.776 82.6172 140.721 83.4177 140.721 85.1641V91.8223H139.921V81.8896H139.921Z" fill="#002554"/>
<path fill-rule="evenodd" clip-rule="evenodd" d="M143.522 86.7651V86.947C143.522 90.076 144.869 92.0043 146.36 91.9679C147.852 91.9679 149.162 90.076 149.162 86.947V86.7651C149.162 83.6725 147.852 81.7441 146.36 81.7441C144.869 81.7441 143.522 83.6361 143.522 86.7651ZM148.362 86.7651V86.947C148.362 89.5666 147.452 91.2403 146.324 91.2403C145.196 91.2403 144.287 89.5666 144.287 86.947V86.7651C144.287 84.1455 145.196 82.4719 146.324 82.4719C147.452 82.4719 148.362 84.1455 148.362 86.7651Z" fill="#002554"/>
<path d="M150.727 81.8897H151.527V83.345C151.855 82.5082 152.473 81.7441 153.565 81.7441C154.911 81.7441 155.821 82.872 155.821 84.8731V91.8224H155.02V84.9459C155.02 83.3086 154.438 82.399 153.383 82.399C152.328 82.399 151.491 83.4905 151.491 85.0914V91.8224H150.69V81.8897H150.727Z" fill="#002554"/>
<path fill-rule="evenodd" clip-rule="evenodd" d="M157.312 86.8742V87.0561C157.312 90.3306 158.804 91.9679 160.478 91.9679C161.242 91.9679 161.715 91.8224 162.406 91.4222L162.297 90.6217C161.679 91.0583 161.206 91.2038 160.587 91.2038C159.241 91.2038 158.149 89.894 158.113 87.2017H162.624V86.6195C162.624 83.4905 161.533 81.7441 160.041 81.7441C158.586 81.7441 157.312 83.4178 157.312 86.8742ZM160.041 82.5082C161.096 82.5082 161.86 84.2182 161.86 86.5104H158.113C158.186 83.8908 159.023 82.5082 160.041 82.5082Z" fill="#002554"/>
<path fill-rule="evenodd" clip-rule="evenodd" d="M166.809 88.802V88.9476C166.809 90.694 167.755 92.0038 169.101 91.9674C170.047 91.9674 170.702 91.3489 171.102 90.3665V91.8219H171.902V84.6907C171.902 82.8351 170.884 81.8164 169.246 81.8164C168.555 81.8164 167.936 81.9983 167.391 82.253V83.0171C167.973 82.726 168.519 82.5805 169.21 82.5805C170.483 82.5805 171.102 83.3809 171.102 84.7635V86.0005C170.629 85.8186 170.119 85.6367 169.428 85.6367C167.755 85.6367 166.809 86.9829 166.809 88.802ZM171.102 86.7281V88.7292C171.102 90.039 170.374 91.3124 169.21 91.276C168.155 91.276 167.609 90.2209 167.609 88.8747V88.7292C167.609 87.3466 168.228 86.3279 169.465 86.3279C170.047 86.3279 170.556 86.4734 171.102 86.7281Z" fill="#002554"/>
<path d="M173.357 86.9821V86.8002C173.357 83.3438 174.886 81.7793 176.377 81.7793C176.887 81.7793 177.287 81.9248 177.578 82.1067V82.98C177.25 82.7253 176.85 82.5434 176.377 82.5434C175.359 82.5434 174.158 83.8532 174.158 86.7638V87.0185C174.158 90.002 175.322 91.2026 176.45 91.2026C176.85 91.2026 177.25 91.0207 177.578 90.766V91.6028C177.25 91.8211 176.887 91.9667 176.377 91.9667C174.849 91.9667 173.357 90.475 173.357 86.9821Z" fill="#002554"/>
<path fill-rule="evenodd" clip-rule="evenodd" d="M178.451 86.8742V87.0561C178.451 90.3306 179.943 91.9679 181.617 91.9679C182.381 91.9679 182.854 91.8224 183.545 91.4222L183.436 90.6217C182.817 91.0583 182.344 91.2038 181.726 91.2038C180.379 91.2038 179.288 89.894 179.252 87.2017H183.763V86.6195C183.763 83.4905 182.672 81.7441 181.18 81.7441C179.725 81.7441 178.451 83.4178 178.451 86.8742ZM181.144 82.5082C182.199 82.5082 182.963 84.2182 182.963 86.5104H179.215C179.288 83.8908 180.125 82.5082 181.144 82.5082Z" fill="#002554"/>
<path d="M185.583 90.1836V82.6522H184.637V81.9246H185.583V79.123H186.383V81.9246H187.984V82.6522H186.383V90.0745C186.383 90.9477 186.783 91.166 187.438 91.166C187.62 91.166 187.875 91.1296 188.057 91.0568V91.7845C187.875 91.8573 187.584 91.8937 187.365 91.8937C186.238 91.93 185.583 91.4571 185.583 90.1836Z" fill="#002554"/>
<path fill-rule="evenodd" clip-rule="evenodd" d="M189.002 88.802V88.9476C189.002 90.694 189.912 92.0038 191.294 91.9674C192.24 91.9674 192.895 91.3489 193.295 90.3665V91.8219H194.096V84.6907C194.096 82.8351 193.077 81.8164 191.44 81.8164C190.748 81.8164 190.13 81.9983 189.584 82.253V83.0171C190.166 82.726 190.712 82.5805 191.403 82.5805C192.677 82.5805 193.295 83.3809 193.295 84.7635V86.0005C192.822 85.8186 192.313 85.6367 191.622 85.6367C189.948 85.6367 189.002 86.9829 189.002 88.802ZM193.259 86.7281V88.7292C193.259 90.039 192.568 91.3124 191.367 91.276C190.312 91.276 189.766 90.2209 189.766 88.8747V88.7292C189.766 87.3466 190.385 86.3279 191.622 86.3279C192.204 86.3279 192.713 86.4734 193.259 86.7281Z" fill="#002554"/>
<path d="M196.133 90.1836V82.6522H195.188V81.9246H196.133V79.123H196.934V81.9246H198.535V82.6522H196.934V90.0745C196.934 90.9477 197.334 91.166 197.989 91.166C198.171 91.166 198.426 91.1296 198.608 91.0568V91.7845C198.426 91.8573 198.135 91.8937 197.916 91.8937C196.825 91.93 196.133 91.4571 196.133 90.1836Z" fill="#002554"/>
<path fill-rule="evenodd" clip-rule="evenodd" d="M199.444 86.8742V87.0561C199.444 90.3306 200.936 91.9679 202.61 91.9679C203.374 91.9679 203.847 91.8224 204.538 91.4222L204.429 90.6217C203.81 91.0583 203.337 91.2038 202.719 91.2038C201.373 91.2038 200.281 89.894 200.245 87.2017H204.756V86.6195C204.756 83.4905 203.665 81.7441 202.173 81.7441C200.718 81.7441 199.444 83.4178 199.444 86.8742ZM202.173 82.5082C203.228 82.5082 203.992 84.2182 203.992 86.5104H200.245C200.318 83.8908 201.154 82.5082 202.173 82.5082Z" fill="#002554"/>
<path d="M205.666 93.7865C207.194 92.3311 208.358 90.0754 208.358 86.3642C208.358 82.6531 207.194 80.3974 205.666 78.942V78.2871C207.667 79.7061 209.159 82.3984 209.159 86.3642C209.159 90.33 207.667 93.0224 205.666 94.4414V93.7865H205.666Z" fill="#002554"/>
<path d="M67.9177 92.0754C67.1536 92.0754 66.3896 91.7115 65.953 91.0566L42.0854 57.5111C41.3213 56.4196 41.576 54.9278 42.6675 54.1274C43.759 53.3633 45.2508 53.618 46.0148 54.7095L67.9177 76.6124L89.8205 54.7095C90.5846 53.618 92.1127 53.3633 93.1678 54.1274C94.2593 54.8914 94.514 56.4196 93.75 57.5111L69.8824 91.0566C69.4458 91.7115 68.7181 92.0754 67.9177 92.0754Z" fill="#F93822"/>
<path d="M56.02 49.9432C55.5834 48.6697 54.2008 48.0148 52.9274 48.4878C51.6903 48.9244 50.999 50.307 51.472 51.5804L52.9274 59.8031L63.1511 70.0268L56.02 49.9432Z" fill="#002554"/>
<path d="M73.1208 69.6279L75.9587 49.2167C76.1406 47.9069 75.231 46.6699 73.9212 46.488C72.6114 46.3061 71.3744 47.2156 71.1924 48.5618L64.0977 70.9741L67.9179 74.7943L73.1208 69.6279Z" fill="#00A7B5"/>
<path d="M32.1525 68.5355C30.9518 67.9169 29.4965 68.3899 28.9144 69.5906C28.2959 70.7912 28.7688 72.2466 29.9695 72.8287L50.1987 83.1616L63.697 90.0745L53.0366 75.0845L32.1525 68.5355Z" fill="#00A7B5"/>
<path d="M52.2002 85.5995L47.7614 83.3438L25.9677 87.0185C24.6215 87.0185 23.5664 88.11 23.5664 89.4198C23.5664 90.766 24.6579 91.8211 25.9677 91.8211H28.7329H64.3887L52.2002 85.5995Z" fill="#002554"/>
<path fill-rule="evenodd" clip-rule="evenodd" d="M208.103 52.709C206.684 52.709 205.593 53.8369 205.593 55.2194C205.593 56.5656 206.684 57.6935 208.103 57.6935C209.522 57.6935 210.614 56.5293 210.614 55.1831C210.614 53.8369 209.522 52.709 208.103 52.709ZM208.103 52.9638C209.377 52.9638 210.323 53.9825 210.323 55.2195C210.323 56.4566 209.377 57.4753 208.067 57.4753C206.794 57.4753 205.848 56.4566 205.848 55.2195C205.848 53.9825 206.83 52.9638 208.103 52.9638ZM207.084 53.8369H208.249C208.612 53.8369 208.867 53.9461 209.049 54.128C209.195 54.2735 209.267 54.4554 209.267 54.6737C209.267 55.1103 209.013 55.365 208.649 55.4742L209.34 56.4565H208.758L208.139 55.5469H207.594V56.4565H207.084V53.8369ZM208.758 54.7101C208.758 54.9648 208.576 55.1103 208.249 55.1103V55.1467H207.594V54.3099H208.249C208.576 54.3099 208.758 54.4554 208.758 54.7101Z" fill="#002554"/>
</svg>
