<svg width="242" height="73" viewBox="0 0 242 73" fill="none" xmlns="http://www.w3.org/2000/svg">
<path fill-rule="evenodd" clip-rule="evenodd" d="M35.9316 0.0869141C16.1506 0.0869141 0.11499 16.1227 0.11499 35.9037C0.11499 55.6847 16.1505 71.7203 35.9316 71.7203C55.7127 71.7203 71.7482 55.6848 71.7482 35.9037C71.7482 16.1226 55.7126 0.0869141 35.9316 0.0869141ZM23.0416 43.6422H19.7796L13.4224 32.5628V43.6422H10.3821V28.0269H13.803L20.0011 38.9148V28.0269H23.0416V43.6422ZM25.8386 43.6422H29.0804V28.0269H25.8386V43.6422ZM35.8525 39.9504C36.5605 40.8226 37.4609 41.2587 38.5521 41.2587C39.6715 41.2587 40.5243 40.8844 41.1115 40.1358C41.4364 39.7332 41.7055 39.1294 41.92 38.3242H45.1618C44.882 40.0263 44.1679 41.4105 43.0184 42.4769C41.8689 43.5434 40.3964 44.0767 38.6008 44.0767C36.3795 44.0767 34.6326 43.3563 33.3612 41.9155C32.0891 40.4677 31.4534 38.4831 31.4534 35.9617C31.4534 33.2356 32.1764 31.1346 33.6233 29.6585C34.8805 28.373 36.4811 27.7305 38.4233 27.7305C41.0223 27.7305 42.923 28.5921 44.1245 30.3154C44.7884 31.2829 45.1442 32.254 45.1937 33.2286H41.9308C41.7232 32.4799 41.4566 31.9149 41.1318 31.5336C40.5499 30.8556 39.6892 30.5165 38.5478 30.5165C37.3851 30.5165 36.4678 30.995 35.7969 31.9521C35.126 32.9091 34.7905 34.2633 34.7905 36.0149C34.7904 37.7663 35.1444 39.0781 35.8525 39.9504ZM56.9128 40.4323L57.9431 43.6422H61.4814L55.9567 28.0269H52.2649L46.6907 43.6422H50.1037L51.1621 40.4323L52.0495 37.7415L54.0763 31.597L56.0485 37.7415L56.9128 40.4323Z" fill="#59C9E6"/>
<path d="M78.0696 24.751H81.4837V45.6698H78.0696V24.751Z" fill="#808285"/>
<path d="M84.6799 24.751H88.094L91.3271 36.8872V24.751H94.4879V45.6698H91.0738L87.9613 33.9195V45.6698H84.6799V24.751H84.6799Z" fill="#808285"/>
<path d="M97.6248 24.751H106.48V27.7187H101.039V33.7145H105.72V36.7063H101.039V45.6698H97.6248V24.751H97.6248Z" fill="#808285"/>
<path d="M118.459 41.6524C118.459 44.5799 116.822 46.0477 113.549 46.0557C110.284 46.0557 108.651 44.588 108.651 41.6524V24.7871H112.065V41.6525C112.065 42.5934 112.56 43.064 113.549 43.064C114.546 43.064 115.045 42.5934 115.045 41.6525V24.7871H118.459V41.6524Z" fill="#808285"/>
<path d="M121.234 28.8531C121.234 25.9257 122.867 24.4619 126.132 24.4619C129.405 24.4619 131.042 25.9257 131.042 28.8531V31.664H127.628V28.8531C127.628 27.9122 127.133 27.4416 126.144 27.4416H126.12C125.139 27.4416 124.648 27.9122 124.648 28.8531V30.7472C124.648 31.6802 125.714 32.8222 127.845 34.1733C129.976 35.5164 131.042 37.129 131.042 39.011V41.653C131.042 44.5885 129.409 46.0563 126.144 46.0563C122.871 46.0483 121.234 44.5805 121.234 41.653V38.8421H124.648V41.653C124.648 42.594 125.147 43.0645 126.144 43.0645C127.133 43.0645 127.628 42.594 127.628 41.653V39.2643C127.628 38.2509 126.562 37.0687 124.431 35.7176C122.3 34.3745 121.234 32.7418 121.234 30.8196V28.8531H121.234Z" fill="#808285"/>
<path d="M133.997 24.751H137.411V45.6698H133.997V24.751Z" fill="#808285"/>
<path fill-rule="evenodd" clip-rule="evenodd" d="M145.265 46.0562C148.538 46.0482 150.175 44.5804 150.175 41.6529V28.8531C150.175 25.9257 148.538 24.4619 145.265 24.4619C142 24.4619 140.367 25.9257 140.367 28.8531V41.6529C140.367 44.5885 142 46.0562 145.265 46.0562ZM145.277 27.4419C146.266 27.4419 146.761 27.9124 146.761 28.8534V41.6532C146.761 42.5942 146.262 43.0647 145.265 43.0647C144.276 43.0647 143.781 42.5942 143.781 41.6532V28.8534C143.781 27.9124 144.272 27.4419 145.253 27.4419H145.277Z" fill="#808285"/>
<path d="M153.071 24.751H156.485L159.718 36.8872V24.751H162.879V45.6698H159.464L156.352 33.9195V45.6698H153.071V24.751Z" fill="#808285"/>
<path d="M181.71 41.6529C181.71 44.5804 180.073 46.0482 176.8 46.0562C173.535 46.0562 171.902 44.5885 171.902 41.6529V28.8531C171.902 25.9257 173.535 24.4619 176.8 24.4619C180.073 24.4619 181.71 25.9257 181.71 28.8531V31.664H178.296V28.8531C178.296 27.9122 177.801 27.4416 176.812 27.4416H176.788C175.807 27.4416 175.316 27.9122 175.316 28.8531V41.653C175.316 42.594 175.811 43.0645 176.8 43.0645C177.797 43.0645 178.296 42.594 178.296 41.653V38.8421H181.71V41.6529Z" fill="#808285"/>
<path d="M184.485 24.751H193.34V27.7187H187.899V33.7145H192.58V36.7063H187.899V42.69H193.34V45.6698H184.485V24.751Z" fill="#808285"/>
<path d="M195.873 24.751H199.287L202.521 36.8872V24.751H205.681V45.6698H202.267L199.155 33.9195V45.6698H195.873V24.751H195.873Z" fill="#808285"/>
<path d="M217.661 24.751V27.7187H214.464V45.6698H211.05V27.7187H207.853V24.751H217.661Z" fill="#808285"/>
<path d="M219.832 24.751H228.687V27.7187H223.246V33.7145H227.927V36.7063H223.246V42.69H228.687V45.6698H219.832V24.751Z" fill="#808285"/>
<path fill-rule="evenodd" clip-rule="evenodd" d="M236.191 24.751H231.221H231.22V45.6698H234.635V36.5253L235.069 36.465L238.145 45.6698H241.885L238.049 35.9342C239.842 35.3471 240.739 34.1327 240.739 32.2909V29.1543C240.739 26.2187 239.223 24.751 236.191 24.751ZM234.635 33.7145V27.7188H235.841C236.83 27.7188 237.325 28.1973 237.325 29.1544V32.291C237.325 32.9666 237.015 33.4129 236.396 33.6301C236.219 33.6864 235.893 33.7145 235.419 33.7145H234.635Z" fill="#808285"/>
<path d="M78.4133 0.375H81.8055L85.018 12.4337V0.375H88.1585V21.1599H84.7663L81.6737 9.48489V21.1599H78.4133V0.375H78.4133Z" fill="#59C9E6"/>
<path fill-rule="evenodd" clip-rule="evenodd" d="M101.836 21.16L100.733 13.7882L98.3475 0.375H93.6967L91.2993 13.8121L90.1965 21.16H93.6127L94.284 16.7489H97.7481L98.4074 21.16H101.836ZM96.0102 5.1333L97.3047 13.7877H94.7156L96.0102 5.1333Z" fill="#59C9E6"/>
<path d="M112.096 0.375V3.32377H108.92V21.16H105.527V3.32377H102.351V0.375L112.096 0.375Z" fill="#59C9E6"/>
<path d="M114.314 0.375H117.706V21.1599H114.314V0.375Z" fill="#59C9E6"/>
<path fill-rule="evenodd" clip-rule="evenodd" d="M125.509 21.5431C128.762 21.5352 130.388 20.0767 130.388 17.168V4.45009C130.388 1.54133 128.762 0.0869141 125.509 0.0869141C122.265 0.0869141 120.643 1.54133 120.643 4.45009V17.168C120.643 20.0847 122.265 21.5431 125.509 21.5431ZM125.522 3.04785C126.505 3.04785 126.996 3.51534 126.996 4.45031V17.1682C126.996 18.1032 126.501 18.5706 125.51 18.5706C124.527 18.5706 124.035 18.1032 124.035 17.1682V4.45031C124.035 3.51534 124.523 3.04785 125.498 3.04785H125.522Z" fill="#59C9E6"/>
<path d="M133.265 0.375H136.657L139.87 12.4337V0.375H143.01V21.1599H139.618L136.525 9.48489V21.1599H133.265V0.375H133.265Z" fill="#59C9E6"/>
<path fill-rule="evenodd" clip-rule="evenodd" d="M156.687 21.16L155.584 13.7882L153.199 0.375H148.548L146.151 13.8121L145.048 21.16H148.464L149.136 16.7489H152.6L153.259 21.16H156.687ZM150.862 5.1333L152.156 13.7877H149.567L150.862 5.1333Z" fill="#59C9E6"/>
<path d="M158.725 21.16V0.375H162.117V18.1992H167.523V21.1599H158.725V21.16Z" fill="#59C9E6"/>
<path fill-rule="evenodd" clip-rule="evenodd" d="M88.1456 71.6785L86.9729 63.8395L84.4364 49.5762H79.4907L76.9415 63.865L75.7688 71.6785H79.4015L80.1153 66.9878H83.799L84.5001 71.6785H88.1456ZM81.9511 54.6367L83.3277 63.8397H80.5745L81.9511 54.6367Z" fill="#59C9E6"/>
<path d="M90.0579 53.9112C90.0579 50.818 91.7829 49.2715 95.233 49.2715C98.6915 49.2715 100.421 50.8181 100.421 53.9112V56.8811H96.8135V53.9112C96.8135 52.9169 96.2909 52.4199 95.2457 52.4199H95.2202C94.1835 52.4199 93.6652 52.917 93.6652 53.9112V55.9124C93.6652 56.8982 94.7911 58.1048 97.043 59.5324C99.2949 60.9515 100.421 62.6553 100.421 64.6437V67.4352C100.421 70.5368 98.6958 72.0876 95.2457 72.0876C91.7872 72.0791 90.0579 70.5283 90.0579 67.4352V64.4653H93.6652V67.4352C93.6652 68.4294 94.192 68.9265 95.2457 68.9265C96.2909 68.9265 96.8135 68.4294 96.8135 67.4352V64.9114C96.8135 63.8407 95.6876 62.5915 93.4357 61.1639C91.1838 59.7448 90.0579 58.0198 90.0579 55.9888V53.9112Z" fill="#59C9E6"/>
<path d="M103.225 53.9112C103.225 50.818 104.95 49.2715 108.4 49.2715C111.858 49.2715 113.588 50.8181 113.588 53.9112V56.8811H109.981V53.9112C109.981 52.9169 109.458 52.4199 108.413 52.4199H108.387C107.35 52.4199 106.832 52.917 106.832 53.9112V55.9124C106.832 56.8982 107.958 58.1048 110.21 59.5324C112.462 60.9515 113.588 62.6553 113.588 64.6437V67.4352C113.588 70.5368 111.863 72.0876 108.413 72.0876C104.954 72.0791 103.225 70.5283 103.225 67.4352V64.4653H106.832V67.4352C106.832 68.4294 107.359 68.9265 108.413 68.9265C109.458 68.9265 109.981 68.4294 109.981 67.4352V64.9114C109.981 63.8407 108.855 62.5915 106.603 61.1639C104.351 59.7448 103.225 58.0198 103.225 55.9888V53.9112Z" fill="#59C9E6"/>
<path fill-rule="evenodd" clip-rule="evenodd" d="M121.567 72.0876C125.025 72.0791 126.755 70.5283 126.755 67.4352V53.9112C126.755 50.8181 125.025 49.2715 121.567 49.2715C118.117 49.2715 116.392 50.818 116.392 53.9112V67.4352C116.392 70.5368 118.117 72.0876 121.567 72.0876ZM121.58 52.4194C122.625 52.4194 123.148 52.9165 123.148 53.9107V67.4347C123.148 68.4289 122.621 68.9261 121.567 68.9261C120.522 68.9261 119.999 68.429 119.999 67.4347V53.9107C119.999 52.9166 120.518 52.4194 121.554 52.4194H121.58Z" fill="#59C9E6"/>
<path d="M139.922 67.4352C139.922 70.5283 138.193 72.0791 134.734 72.0876C131.284 72.0876 129.559 70.5368 129.559 67.4352V53.9112C129.559 50.818 131.284 49.2715 134.734 49.2715C138.193 49.2715 139.922 50.8181 139.922 53.9112V56.8811H136.315V53.9112C136.315 52.9169 135.792 52.4199 134.747 52.4199H134.722C133.685 52.4199 133.167 52.917 133.167 53.9112V67.4352C133.167 68.4294 133.689 68.9265 134.734 68.9265C135.788 68.9265 136.315 68.4294 136.315 67.4352V64.4653H139.922V67.4352Z" fill="#59C9E6"/>
<path d="M142.917 49.5762H146.524V71.6785H142.917V49.5762Z" fill="#59C9E6"/>
<path fill-rule="evenodd" clip-rule="evenodd" d="M161.132 71.6785L159.959 63.8395L157.423 49.5762H152.477L149.928 63.865L148.755 71.6785H152.388L153.102 66.9878H156.785L157.486 71.6785H161.132ZM154.937 54.6367L156.314 63.8397H153.561L154.937 54.6367Z" fill="#59C9E6"/>
<path d="M172.043 49.5762V52.7118H168.665V71.6786H165.058V52.7118H161.68V49.5762H172.043Z" fill="#59C9E6"/>
<path d="M174.401 49.5762H178.008V71.6785H174.401V49.5762Z" fill="#59C9E6"/>
<path fill-rule="evenodd" clip-rule="evenodd" d="M186.306 72.0876C189.765 72.0791 191.494 70.5283 191.494 67.4352V53.9112C191.494 50.8181 189.765 49.2715 186.306 49.2715C182.856 49.2715 181.131 50.818 181.131 53.9112V67.4352C181.131 70.5368 182.856 72.0876 186.306 72.0876ZM186.319 52.4194C187.364 52.4194 187.886 52.9165 187.886 53.9107V67.4347C187.886 68.4289 187.36 68.9261 186.306 68.9261C185.261 68.9261 184.738 68.429 184.738 67.4347V53.9107C184.738 52.9166 185.256 52.4194 186.293 52.4194H186.319Z" fill="#59C9E6"/>
<path d="M194.553 49.5762H198.161L201.577 62.3991V49.5762H204.916V71.6785H201.309L198.021 59.2635V71.6785H194.553V49.5762H194.553Z" fill="#59C9E6"/>
</svg>
