<svg xmlns="http://www.w3.org/2000/svg" viewBox="0 0 161.4 172.9" xmlns:v="https://vecta.io/nano"><g fill="#fff"><path d="M79.3 147.9c-37.5 0-68-30.5-68-68s30.5-68 68-68 68 30.5 68 68-30.5 68-68 68z"/><path d="M79.3 19.9c33.1 0 60 26.9 60 60s-26.9 60-60 60-60-26.9-60-60 26.8-60 60-60m0-16c-41.9 0-76 34.1-76 76s34.1 76 76 76 76-34.1 76-76-34.1-76-76-76h0z"/></g><linearGradient id="A" gradientUnits="userSpaceOnUse" x1="138.694" y1="80.649" x2="18.694" y2="80.649"><stop offset="0" stop-color="#fcb316"/><stop offset="1" stop-color="#e37925"/></linearGradient><path d="M78.7 140.6c33.1 0 60-26.9 60-60s-26.9-60-60-60-60 26.9-60 60 26.9 60 60 60z" fill="url(#A)"/><path d="M41 166.6h2.4L39.7 156h-2.6l-3.7 10.6h2.2l.8-2.5h3.7l.9 2.5zm-2.7-8.3h.1l1.3 4.1H37l1.3-4.1zm6.5 8.3h2.1v-11.2h-2.1v11.2zm4.2 0h2.1v-11.2H49v11.2zm7.9-10.5v10.6h2.2v-3.3h2.1c2.2 0 3.8-1.5 3.8-3.6 0-2.2-1.5-3.7-3.7-3.7h-4.4zm2.3 1.8h1.6c1.3 0 2 .6 2 1.8s-.7 1.8-2 1.8h-1.6v-3.6zm7.4 8.7h2.1v-4.5c0-1.1.8-1.8 2-1.8.3 0 .8.1 1 .1v-1.9c-.2-.1-.5-.1-.8-.1-1 0-1.9.6-2.1 1.4h-.1v-1.3h-2.1v8.1zm9.7.2c2.5 0 4-1.6 4-4.2s-1.5-4.2-4-4.2-4 1.6-4 4.2c0 2.7 1.5 4.2 4 4.2zm0-1.7c-1.1 0-1.8-.9-1.8-2.5s.7-2.5 1.8-2.5 1.8.9 1.8 2.5-.7 2.5-1.8 2.5zm8.4 1.7c1.1 0 2-.5 2.5-1.4h.1v1.3h2.1v-11.2h-2.1v4.4h-.1c-.4-.9-1.3-1.4-2.4-1.4-2 0-3.3 1.6-3.3 4.2-.1 2.5 1.1 4.1 3.2 4.1zm.7-6.6c1.1 0 1.8.9 1.8 2.4s-.7 2.4-1.8 2.4-1.8-.9-1.8-2.4.6-2.4 1.8-2.4zm13.2-1.6h-2.1v4.7c0 1.1-.6 1.7-1.6 1.7s-1.5-.6-1.5-1.7v-4.7h-2.1v5.3c0 1.9 1.1 3 2.8 3 1.2 0 2-.5 2.4-1.5h.1v1.3h2.1v-8.1zm9.1 2.8c-.2-1.8-1.5-3-3.6-3-2.5 0-3.9 1.5-3.9 4.2s1.4 4.2 3.9 4.2c2.1 0 3.4-1.2 3.6-3h-2c-.2.8-.7 1.2-1.6 1.2-1.1 0-1.8-.9-1.8-2.5s.6-2.4 1.8-2.4c.9 0 1.5.5 1.6 1.3h2zm2.1-4.7v2h-1.3v1.7h1.3v4.1c0 1.6.8 2.2 2.7 2.2.4 0 .8 0 1.1-.1V165h-.6c-.7 0-1-.3-1-1v-3.6h1.7v-1.7H112v-2h-2.2zm5.1 4.2c0 1.2.8 2 2.3 2.3l1.5.3c.7.2 1 .4 1 .8 0 .5-.6.9-1.4.9s-1.4-.3-1.5-.9h-2.1c.1 1.6 1.4 2.4 3.6 2.4 2.1 0 3.6-1.1 3.6-2.7 0-1.2-.7-1.9-2.3-2.2l-1.5-.3c-.7-.2-1.1-.4-1.1-.8 0-.5.6-.9 1.3-.9.8 0 1.3.3 1.4.8h2c-.1-1.5-1.3-2.4-3.4-2.4-2.1.2-3.4 1.2-3.4 2.7z" fill="#1d295b"/><path d="M63.5,63.6c-1,0-1.8,0.8-1.8,1.8v10.7c0,1,0.8,1.8,1.8,1.8h10.7c1,0,1.8-0.8,1.8-1.8V65.4c0-1-0.8-1.8-1.8-1.8 H63.5z M63.5,83.3c-1,0-1.8,0.8-1.8,1.8v10.7c0,1,0.8,1.8,1.8,1.8h10.7c1,0,1.8-0.8,1.8-1.8V85.1c0-1-0.8-1.8-1.8-1.8H63.5z M81.4,65.4c0-1,0.8-1.8,1.8-1.8h10.7c1,0,1.8,0.8,1.8,1.8v10.7c0,1-0.8,1.8-1.8,1.8H83.2c-1,0-1.8-0.8-1.8-1.8V65.4z M83.2,83.3 c-1,0-1.8,0.8-1.8,1.8v10.7c0,1,0.8,1.8,1.8,1.8h10.7c1,0,1.8-0.8,1.8-1.8V85.1c0-1-0.8-1.8-1.8-1.8H83.2z" fill="#fff"/></svg>