<svg xmlns="http://www.w3.org/2000/svg" viewBox="0 0 161.4 172.9" xmlns:v="https://vecta.io/nano"><g fill="#fff"><path d="M79.3 147.9c-37.5 0-68-30.5-68-68s30.5-68 68-68 68 30.5 68 68-30.5 68-68 68z"/><path d="M79.3 19.9c33.1 0 60 26.9 60 60s-26.9 60-60 60-60-26.9-60-60 26.8-60 60-60m0-16c-41.9 0-76 34.1-76 76s34.1 76 76 76 76-34.1 76-76-34.1-76-76-76h0z"/></g><path d="M79.3 140.9c33.1 0 60-26.9 60-60s-26.9-60-60-60-60 26.9-60 60 26.8 60 60 60z" fill="none" stroke="#1d295b" stroke-width="3"/><linearGradient id="A" gradientUnits="userSpaceOnUse" x1="111.262" y1="102.268" x2="47.262" y2="102.268"><stop offset="0" stop-color="#fcb316"/><stop offset="1" stop-color="#e37925"/></linearGradient><circle cx="65.4" cy="102.3" r="1.1" fill="url(#A)"/><linearGradient id="B" gradientUnits="userSpaceOnUse" x1="111.262" y1="93.734" x2="47.262" y2="93.734"><stop offset="0" stop-color="#fcb316"/><stop offset="1" stop-color="#e37925"/></linearGradient><circle cx="68.6" cy="93.7" r="1.1" fill="url(#B)"/><linearGradient id="C" gradientUnits="userSpaceOnUse" x1="111.262" y1="105.469" x2="47.262" y2="105.469"><stop offset="0" stop-color="#fcb316"/><stop offset="1" stop-color="#e37925"/></linearGradient><circle cx="88.9" cy="105.5" r="1.1" fill="url(#C)"/><linearGradient id="D" gradientUnits="userSpaceOnUse" x1="111.262" y1="92.669" x2="47.262" y2="92.669"><stop offset="0" stop-color="#fcb316"/><stop offset="1" stop-color="#e37925"/></linearGradient><circle cx="54.7" cy="92.7" r="1.1" fill="url(#D)"/><linearGradient id="E" gradientUnits="userSpaceOnUse" x1="111.262" y1="94.802" x2="47.262" y2="94.802"><stop offset="0" stop-color="#fcb316"/><stop offset="1" stop-color="#e37925"/></linearGradient><circle cx="89.9" cy="94.8" r="1.1" fill="url(#E)"/><linearGradient id="F" gradientUnits="userSpaceOnUse" x1="111.262" y1="96.935" x2="47.262" y2="96.935"><stop offset="0" stop-color="#fcb316"/><stop offset="1" stop-color="#e37925"/></linearGradient><circle cx="57.9" cy="96.9" r="1.1" fill="url(#F)"/><circle cx="64.3" cy="96.9" r="1.1" fill="url(#F)"/><linearGradient id="G" gradientUnits="userSpaceOnUse" x1="111.262" y1="97.341" x2="47.262" y2="97.341"><stop offset="0" stop-color="#fcb316"/><stop offset="1" stop-color="#e37925"/></linearGradient><path d="M77.3 98.4c-.3.7-.2 1.4.2 2s1 .9 1.8.9 1.4-.3 1.8-.9.5-1.3.2-2l-2-4.9-2 4.9z" fill="url(#G)"/><linearGradient id="H" gradientUnits="userSpaceOnUse" x1="111.262" y1="79.906" x2="47.262" y2="79.906"><stop offset="0" stop-color="#fcb316"/><stop offset="1" stop-color="#e37925"/></linearGradient><path d="M83.2 97.6l-2.9-7.2V57.5a1.11 1.11 0 0 0-1.1-1.1 1.11 1.11 0 0 0-1.1 1.1v32.9l-2.9 7.2c-.5 1.3-.4 2.8.4 4s2.1 1.9 3.5 1.9 2.7-.7 3.5-1.9c1-1.2 1.1-2.7.6-4z" fill="url(#H)"/><path d="M81 100.3c-.4.6-1 .9-1.8.9s-1.4-.3-1.8-.9-.5-1.3-.2-2l2-4.9 2 4.9c.3.7.2 1.4-.2 2z" fill="#fff"/><linearGradient id="I" gradientUnits="userSpaceOnUse" x1="111.262" y1="80.935" x2="47.262" y2="80.935"><stop offset="0" stop-color="#fcb316"/><stop offset="1" stop-color="#e37925"/></linearGradient><path d="M111.2 81.9v-1c0-17.6-14.4-32-32-32s-32 14.4-32 32v2.3c0 .5.1 1 .1 1.5.1.5.1 1 .2 1.5h0c.1.8.3 1.6.5 2.4h0l.2.8v.2c.2.8.5 1.6.8 2.4l.9 2.1c.1.1.1.3.2.4.3.7.7 1.3 1 1.9.1.1.1.2.2.4l.1.1c.4.6.7 1.2 1.1 1.8 0 .1.1.1.1.2s.1.1.1.2c.4.5.8 1.1 1.2 1.6l.1.1c.1.1.1.2.2.2.5.6 1 1.1 1.5 1.7.1.1.1.2.2.2l.1.1c.5.6 1.1 1.1 1.7 1.6 3.8 3.4 8.5 6 13.7 7.3h.1l1.4.3h.2c.2 0 .4.1.5.1h1.2c.3 0 .7.1 1.1.1h6.3c.4 0 .7-.1 1.1-.1h.5c.2 0 .3-.1.5-.1s.3 0 .4-.1h.6l1.4-.3h.1c.4-.1.8-.2 1.3-.3.3-.1.6-.2 1-.3 8.2-2.6 15-8.4 18.8-16.2.2-.3.3-.7.5-1h0c.1-.3.3-.6.4-.9.3-.7.5-1.3.8-2 0-.1.1-.3.1-.4.3-.8.5-1.6.7-2.4h0l.1-.6.3-1.5c.1-.5.1-1 .2-1.5v-.1c.1-.5.1-1 .1-1.5h0v-.6l.1-.6zm-61.1 5.3h0c-.3-1-.4-2-.5-3.1h22.8a2.69 2.69 0 0 1 2.7 2.7v.3l-.6 1.5c-1 .1-2-.2-2.7-.9l-.5-.5c-2.1-2.1-5.5-2.1-7.6 0l-.5.5c-1.3 1.3-3.3 1.3-4.6 0l-.6-.5c-2.4-2.1-5.8-2.1-7.9 0zm58 1.4v.2c-.2.6-.3 1.1-.5 1.7-.1.4-.3.7-.4 1.1-.1.3-.2.6-.4 1-3.5 8.2-10.5 14.6-19.2 17.1h-.2l-1.2.3h-.1l-1.4.3h-.2c-.2 0-.4.1-.7.1-.6.1-1.3.2-1.9.2h-.5c-.7.1-1.5.1-2.3.1-.7 0-1.5 0-2.2-.1h0-.4c-.7-.1-1.4-.1-2.1-.3-.1 0-.2 0-.3-.1-.7-.1-1.4-.3-2.1-.4h-.2l-2.1-.6h-.1c-.7-.2-1.3-.5-2-.8h-.4l-1.8-.9c-.1 0-.2-.1-.3-.2h0c-.1 0-.1-.1-.2-.1-.6-.3-1.1-.6-1.6-.9-.1-.1-.2-.1-.3-.2h0c-.1 0-.1-.1-.2-.1-.4-.3-.8-.5-1.2-.8-.3-.2-.5-.4-.8-.6-.4-.3-.7-.6-1.1-.8-.2-.2-.5-.4-.7-.6-.4-.3-.7-.7-1.1-1-.3-.2-.5-.5-.8-.8h0l-.6-.6c-.4-.4-.7-.9-1.1-1.3v-.1c-.1-.2-.3-.4-.4-.5-.3-.4-.7-.9-1-1.4 0-.1-.1-.1-.1-.2-.1-.2-.2-.4-.4-.6-.2-.3-.4-.6-.5-.9-.3-.4-.5-.9-.7-1.4-.1-.3-.3-.5-.4-.8-.2-.5-.5-1-.7-1.6 0-.1-.1-.2-.1-.4 0-.1-.1-.2-.1-.2-.2-.5-.4-1.1-.6-1.7v-.2c.1-.1.3-.2.4-.3l.6-.6c1.2-1.2 3.4-1.2 4.6 0l.6.6c1 1 2.4 1.6 3.8 1.6s2.8-.6 3.8-1.6l.5-.5c1.3-1.3 3.3-1.3 4.6 0l.5.5c.9.9 2.1 1.4 3.3 1.5L71.3 96c-1.1 2.6-.7 5.6.9 7.9s4.2 3.8 7.1 3.8a8.43 8.43 0 0 0 7.1-3.8c1.6-2.3 1.9-5.3.9-7.9h0l-2.2-5.6c2 1 4.5.6 6.2-1 1.3-1.3 3.3-1.3 4.6 0 1 1 2.4 1.6 3.8 1.6s2.8-.6 3.8-1.6l.5-.6c1.2-1.2 3-1.3 4.3-.3-.1 0-.2 0-.2.1zm.5-2.3c-2-1-4.6-.7-6.2 1l-.6.5c-1.2 1.2-3.4 1.2-4.6 0-2.1-2.1-5.5-2.1-7.6 0-1.3 1.3-3.3 1.3-4.6 0l-1.2-1.1-.3.1a2.69 2.69 0 0 1 2.7-2.7H109c-.1.8-.2 1.5-.4 2.2zm.5-4.3H86.2c-2.6 0-4.8 2.1-4.8 4.8v.8l3.8 9.2c.8 2 .6 4.2-.6 6s-3.2 2.8-5.3 2.8-4.1-1.1-5.3-2.8c-1.2-1.8-1.4-4-.6-6l3.8-9.2v-.8c0-2.6-2.1-4.8-4.8-4.8h-23v-1.1C49.4 64.4 62.8 51 79.3 51s29.9 13.4 29.9 29.9c-.1.4-.1.7-.1 1.1z" fill="url(#I)"/><linearGradient id="J" gradientUnits="userSpaceOnUse" x1="111.262" y1="95.867" x2="47.262" y2="95.867"><stop offset="0" stop-color="#fcb316"/><stop offset="1" stop-color="#e37925"/></linearGradient><circle cx="95.3" cy="95.9" r="1.1" fill="url(#J)"/><linearGradient id="K" gradientUnits="userSpaceOnUse" x1="111.262" y1="101.2" x2="47.262" y2="101.2"><stop offset="0" stop-color="#fcb316"/><stop offset="1" stop-color="#e37925"/></linearGradient><circle cx="93.1" cy="101.2" r="1.1" fill="url(#K)"/><linearGradient id="L" gradientUnits="userSpaceOnUse" x1="111.262" y1="98.003" x2="47.262" y2="98.003"><stop offset="0" stop-color="#fcb316"/><stop offset="1" stop-color="#e37925"/></linearGradient><circle cx="100.6" cy="98" r="1.1" fill="url(#L)"/><path d="M32 156.4V167h4.2c3.2 0 5-1.9 5-5.4 0-3.3-1.8-5.2-5-5.2H32zm2.2 1.8h1.6c1.9 0 3.1 1.2 3.1 3.4 0 2.3-1.1 3.5-3.1 3.5h-1.6v-6.9zm13.8 6.5c-.2.5-.8.9-1.6.9-1.1 0-1.8-.8-1.8-2v-.1h5.5v-.6c0-2.5-1.4-4.1-3.8-4.1s-3.9 1.6-3.9 4.2 1.5 4.2 3.9 4.2c2 0 3.4-.9 3.7-2.4h-2zm-1.7-4.4c1 0 1.6.7 1.7 1.8h-3.4c0-1.1.7-1.8 1.7-1.8zm5.3 6.6h2.1v-4.5c0-1.1.8-1.8 2-1.8.3 0 .8.1 1 .1v-1.9c-.2-.1-.5-.1-.8-.1-1 0-1.9.6-2.1 1.4h-.1v-1.3h-2.1v8.1zm6.3 0H60V162c0-.9.6-1.6 1.4-1.6s1.3.5 1.3 1.4v5.1h2.1v-5c0-.9.6-1.5 1.4-1.5.9 0 1.3.5 1.3 1.5v5h2.1v-5.5c0-1.7-1-2.7-2.6-2.7-1.1 0-2.1.6-2.4 1.5h-.1c-.3-.9-1.1-1.5-2.2-1.5s-1.9.6-2.2 1.5H60v-1.3h-2.1v8zm15.9.2c1 0 1.9-.4 2.3-1.2h.1v1.1h2.1v-5.5c0-1.7-1.2-2.7-3.3-2.7-2 0-3.4.9-3.5 2.4h2c.2-.5.7-.8 1.5-.8.9 0 1.4.4 1.4 1.1v.7l-2 .1c-2 .1-3.1 1-3.1 2.4-.1 1.4 1 2.4 2.5 2.4zm.7-1.6c-.7 0-1.3-.4-1.3-1s.4-.9 1.4-1l1.6-.1v.6c.1.8-.7 1.5-1.7 1.5zm6.3-8.6v2h-1.3v1.6h1.3v4.2c0 1.6.8 2.2 2.7 2.2.4 0 .8 0 1.1-.1v-1.6H84c-.7 0-1-.3-1-1.1v-3.7h1.7v-1.6H83v-2h-2.2zm8.9 10.2c2.5 0 4-1.6 4-4.2s-1.5-4.2-4-4.2-4 1.6-4 4.2 1.5 4.2 4 4.2zm0-1.7c-1.1 0-1.8-.9-1.8-2.5s.7-2.5 1.8-2.5 1.8.9 1.8 2.5-.7 2.5-1.8 2.5zm5.6 1.5h2.1v-11.1h-2.1v11.1zm7.7.2c2.5 0 4-1.6 4-4.2s-1.5-4.2-4-4.2-4 1.6-4 4.2 1.5 4.2 4 4.2zm0-1.7c-1.1 0-1.8-.9-1.8-2.5s.7-2.5 1.8-2.5 1.8.9 1.8 2.5c-.1 1.6-.7 2.5-1.8 2.5zm9 4.6c2.4 0 4-1.2 4-3.1v-8h-2.1v1.3h-.1c-.4-.9-1.4-1.4-2.5-1.4-2.1 0-3.3 1.6-3.3 4.1 0 2.4 1.3 4 3.3 4 1.1 0 2-.5 2.4-1.3h.1v1.5c0 .9-.7 1.5-1.8 1.5-.9 0-1.5-.3-1.6-.8h-2.1c.1 1.3 1.6 2.2 3.7 2.2zm0-4.8c-1.2 0-1.8-.9-1.8-2.4s.7-2.4 1.8-2.4 1.8.9 1.8 2.4c.1 1.5-.6 2.4-1.8 2.4zm6.9 4.7c2 0 3-.7 3.7-2.8l2.8-8.2h-2.3l-1.7 6.2h-.1l-1.7-6.2h-2.4l2.8 8.1-.1.3c-.2.7-.6.9-1.4.9h-.5v1.7h.9z" fill="#1d295b"/></svg>