<svg xmlns="http://www.w3.org/2000/svg" xmlns:xlink="http://www.w3.org/1999/xlink" viewBox="0 0 161.4 172.9" xmlns:v="https://vecta.io/nano"><g fill="#fff"><path d="M79.3 147.9c-37.5 0-68-30.5-68-68s30.5-68 68-68 68 30.5 68 68-30.5 68-68 68z"/><path d="M79.3 19.9c33.1 0 60 26.9 60 60s-26.9 60-60 60-60-26.9-60-60 26.8-60 60-60m0-16c-41.9 0-76 34.1-76 76s34.1 76 76 76 76-34.1 76-76-34.1-76-76-76h0z"/></g><path d="M137.8 80.4c0 32.3-26.2 58.5-58.5 58.5s-58.5-26.2-58.5-58.5S47 21.9 79.3 21.9s58.5 26.2 58.5 58.5z" fill="none" stroke="#1d295b" stroke-width="3"/><linearGradient id="A" gradientUnits="userSpaceOnUse" x1="98.262" y1="78.406" x2="60.262" y2="78.406"><stop offset="0" stop-color="#fcb316"/><stop offset="1" stop-color="#e37925"/></linearGradient><use xlink:href="#I" fill="url(#A)"/><linearGradient id="B" gradientUnits="userSpaceOnUse" x1="98.262" y1="80.406" x2="60.262" y2="80.406"><stop offset="0" stop-color="#fcb316"/><stop offset="1" stop-color="#e37925"/></linearGradient><use xlink:href="#J" fill="url(#B)"/><linearGradient id="C" gradientUnits="userSpaceOnUse" x1="116.262" y1="78.406" x2="78.262" y2="78.406"><stop offset="0" stop-color="#fcb316"/><stop offset="1" stop-color="#e37925"/></linearGradient><use xlink:href="#I" x="-18" fill="url(#C)"/><use xlink:href="#I" y="-10" fill="url(#A)"/><use xlink:href="#I" x="-18" y="-10" fill="url(#C)"/><use xlink:href="#I" y="10" fill="url(#A)"/><linearGradient id="D" gradientUnits="userSpaceOnUse" x1="98.262" y1="58.406" x2="60.262" y2="58.406"><stop offset="0" stop-color="#fcb316"/><stop offset="1" stop-color="#e37925"/></linearGradient><path d="M78.3 62.4h2v-3h3v-2h-3v-3h-2v3h-3v2h3z" fill="url(#D)"/><linearGradient id="E" gradientUnits="userSpaceOnUse" x1="107.262" y1="78.406" x2="69.262" y2="78.406"><stop offset="0" stop-color="#fcb316"/><stop offset="1" stop-color="#e37925"/></linearGradient><use xlink:href="#I" x="-9" fill="url(#E)"/><use xlink:href="#I" x="-9" y="10" fill="url(#E)"/><linearGradient id="F" gradientUnits="userSpaceOnUse" x1="98.262" y1="88.406" x2="60.262" y2="88.406"><stop offset="0" stop-color="#fcb316"/><stop offset="1" stop-color="#e37925"/></linearGradient><use xlink:href="#K" fill="url(#F)"/><use xlink:href="#I" x="-9" y="-10" fill="url(#E)"/><path d="M27.7 164.5H23v-8.6h-2.2v10.6h6.9v-2zm4.8 2.1c2.5 0 4-1.6 4-4.2s-1.5-4.2-4-4.2-4 1.6-4 4.2 1.5 4.2 4 4.2zm0-1.8c-1.1 0-1.8-.9-1.8-2.5s.7-2.5 1.8-2.5 1.8.9 1.8 2.5c-.1 1.6-.7 2.5-1.8 2.5zm5.4 1.6H40v-4.7c0-1.1.6-1.8 1.6-1.8s1.5.6 1.5 1.7v4.7h2.1v-5.2c0-1.9-1-3-2.8-3-1.2 0-2 .6-2.4 1.5h0v-1.3h-2.1v8.1zm12.8-1.8c-1.2 0-1.8-.9-1.8-2.3s.7-2.3 1.8-2.3 1.8.9 1.8 2.3-.6 2.3-1.8 2.3zm0 4.9c2.4 0 4-1.2 4-3.1v-8h-2.1v1.3h-.1c-.4-.9-1.4-1.4-2.5-1.4-2.1 0-3.3 1.6-3.3 4.1 0 2.4 1.3 4 3.3 4 1.1 0 2-.5 2.4-1.3h.1v1.5c0 .9-.7 1.4-1.8 1.4-.9 0-1.5-.3-1.6-.8H47c.1 1.3 1.5 2.3 3.7 2.3zm10.8-6.4v-2h-4.8v2h4.8zm6.3 3.3v-8.7H71v-1.9h-8.6v1.9h3.2v8.7h2.2zm6.7-6.6c1 0 1.6.7 1.7 1.7h-3.4c.1-1 .7-1.7 1.7-1.7zm1.8 4.3c-.2.5-.8.8-1.6.8-1.1 0-1.8-.7-1.8-1.9v-.1h5.5v-.7c0-2.6-1.4-4.1-3.8-4.1s-3.9 1.6-3.9 4.3c0 2.6 1.5 4.2 3.9 4.2 2 0 3.4-1 3.7-2.5h-2zm3.5 2.3H82v-4.5c0-1.1.8-1.8 2-1.8.3 0 .8.1 1 .1v-1.9c-.2-.1-.5-.1-.8-.1-1 0-1.9.6-2.1 1.4H82v-1.3h-2.1v8.1zm6.4 0h2.1v-4.9c0-.9.6-1.6 1.4-1.6s1.3.5 1.3 1.3v5.1h2.1v-4.9c0-.9.6-1.5 1.4-1.5.9 0 1.3.5 1.3 1.4v5H98v-5.5c0-1.7-1-2.7-2.6-2.7-1.1 0-2.1.6-2.4 1.5h-.1c-.3-.9-1.1-1.5-2.2-1.5s-1.9.6-2.2 1.5h-.1v-1.3h-2.1v8.1zm22 .3c2.5 0 4.4-1.6 4.6-3.9h-2.2c-.2 1.2-1.2 1.9-2.4 1.9-1.7 0-2.7-1.4-2.7-3.6s1-3.6 2.7-3.6c1.3 0 2.2.8 2.4 2h2.2c-.2-2.3-2.1-4-4.6-4-3.1 0-5 2.1-5 5.6s1.9 5.6 5 5.6zm9.1-1.8c-.7 0-1.3-.4-1.3-1s.4-.9 1.4-1l1.6-.1v.6c0 .9-.7 1.5-1.7 1.5zm-.7 1.6c1 0 1.9-.4 2.3-1.2h.1v1.1h2.1v-5.5c0-1.7-1.2-2.7-3.3-2.7-2 0-3.4.9-3.5 2.4h2c.2-.5.7-.7 1.5-.7.9 0 1.4.4 1.4 1.1v.7l-2 .1c-2 .1-3.1 1-3.1 2.4-.2 1.4.9 2.3 2.5 2.3zm6.4-.1h2.1v-4.5c0-1.1.8-1.8 2-1.8.3 0 .8.1 1 .1v-1.9c-.2-.1-.5-.1-.8-.1-1 0-1.9.6-2.1 1.4h-.2v-1.3h-2v8.1zm9.6-6.6c1 0 1.6.7 1.7 1.7h-3.4c0-1 .7-1.7 1.7-1.7zm1.7 4.3c-.2.5-.8.8-1.6.8-1.1 0-1.8-.7-1.8-1.9v-.1h5.5v-.7c0-2.6-1.4-4.1-3.8-4.1s-3.9 1.6-3.9 4.3c0 2.6 1.5 4.2 3.9 4.2 2 0 3.4-1 3.7-2.5h-2z" fill="#1d295b"/><linearGradient id="G" gradientUnits="userSpaceOnUse" x1="139.262" y1="80.318" x2="19.262" y2="80.318"><stop offset="0" stop-color="#fcb316"/><stop offset="1" stop-color="#e37925"/></linearGradient><path d="M79.3 140.3c33.1 0 60-26.9 60-60s-26.9-60-60-60-60 26.9-60 60 26.8 60 60 60z" fill="url(#G)"/><g fill="#fff"><use xlink:href="#I" y="9.9"/><path d="M78.3 62.3h2v-3h3v-2h-3v-3h-2v3h-3v2h3z"/><use xlink:href="#I" y="-0.1"/><use xlink:href="#I" y="-10.1"/><use xlink:href="#K" y="-0.1"/><use xlink:href="#J" y="-0.1"/><use xlink:href="#I" x="-9" y="-10.1"/><use xlink:href="#I" x="-18" y="-0.1"/><use xlink:href="#I" x="-18" y="-10.1"/><use xlink:href="#I" x="-9" y="-0.1"/><use xlink:href="#I" x="-9" y="9.9"/></g><defs ><path id="I" d="M85.3 82.4h6a.94.94 0 0 0 1-1v-6a.94.94 0 0 0-1-1h-6a.94.94 0 0 0-1 1v6a.94.94 0 0 0 1 1zm1-6h4v4h-4v-4z"/><path id="J" d="M97.3 104.4h-1v-43a.94.94 0 0 0-1-1h-3v-9a.94.94 0 0 0-1-1h-24a.94.94 0 0 0-1 1v9h-3a.94.94 0 0 0-1 1v43h-1a.94.94 0 0 0-1 1v4a.94.94 0 0 0 1 1h36a.94.94 0 0 0 1-1v-4a1.08 1.08 0 0 0-1-1zm-33-42h3a.94.94 0 0 0 1-1v-9h22v9a.94.94 0 0 0 1 1h3v42h-4v-9a.94.94 0 0 0-1-1h-20a.94.94 0 0 0-1 1v9h-4v-42zm24 34v8h-18v-8h18zm8 12h-34v-2h34v2z"/><path id="K" d="M74.3 91.4v-6a.94.94 0 0 0-1-1h-6a.94.94 0 0 0-1 1v6a.94.94 0 0 0 1 1h6c.5 0 1-.4 1-1zm-2-1h-4v-4h4v4z"/></defs></svg>