<svg xmlns="http://www.w3.org/2000/svg" viewBox="0 0 161.4 172.9" xmlns:v="https://vecta.io/nano"><g fill="#fff"><path d="M79.3 147.9c-37.5 0-68-30.5-68-68s30.5-68 68-68 68 30.5 68 68-30.5 68-68 68z"/><path d="M79.3 19.9c33.1 0 60 26.9 60 60s-26.9 60-60 60-60-26.9-60-60 26.8-60 60-60m0-16c-41.9 0-76 34.1-76 76s34.1 76 76 76 76-34.1 76-76-34.1-76-76-76h0z"/></g><path d="M137.8 79.5c0 32.3-26.2 58.5-58.5 58.5s-58.5-26.2-58.5-58.5S47 21 79.3 21s58.5 26.2 58.5 58.5z" fill="none" stroke="#1d295b" stroke-width="3"/><linearGradient id="A" gradientUnits="userSpaceOnUse" x1="111.262" y1="79.558" x2="47.262" y2="79.558"><stop offset="0" stop-color="#fcb316"/><stop offset="1" stop-color="#e37925"/></linearGradient><path d="M107.7 79.6l3.3-5.8c.2-.4.2-.9 0-1.2l-3.7-6.4c-.2-.4-.6-.6-1.1-.6h-6.9L96 59.8c-.1-.5-.6-.8-1-.8h-7.4c-.4 0-.9.2-1.1.6l-3.3 5.8h-6.4c-.7 0-1.2.6-1.2 1.2 0 .7.6 1.2 1.2 1.2h6.4l3.3 5.8c.2.4.6.6 1.1.6h6.7l3.1 5.3-2.9 5.1h-6.9c-.4 0-.9.2-1.1.6l-3.7 6.4c-.2.4-.2.9 0 1.2l3.7 6.4c.2.4.6.6 1.1.6H95c.4 0 .9-.2 1.1-.6l3.4-5.8h6.9c.4 0 .9-.2 1.1-.6l3.7-6.4c.2-.4.2-.9 0-1.2l-3.5-5.6zm-13.4-7.7h-6l-3-5.2 3-5.2h6l3 5.2-3 5.2zm2.2 1.2l3-5.2h6.1l3 5.2-3 5.2h-6.1l-3-5.2zm-2.2 24.5h-6l-3-5.2 3-5.2h6l3 5.2-3 5.2zm11.3-6.4h-6l-3-5.2 3-5.2h6l3 5.2-3 5.2z" fill="url(#A)"/><linearGradient id="B" gradientUnits="userSpaceOnUse" x1="111.262" y1="79.563" x2="47.262" y2="79.563"><stop offset="0" stop-color="#fcb316"/><stop offset="1" stop-color="#e37925"/></linearGradient><path d="M49.1 80.8c.7 0 1.2-.6 1.2-1.3s-.5-1.3-1.2-1.3h0c-.7 0-1.2.5-1.2 1.2h0c0 .9.5 1.4 1.2 1.4z" fill="url(#B)"/><linearGradient id="C" gradientUnits="userSpaceOnUse" x1="111.262" y1="97.161" x2="47.262" y2="97.161"><stop offset="0" stop-color="#fcb316"/><stop offset="1" stop-color="#e37925"/></linearGradient><path d="M63.2 98c0-.1-.1-.1-.2-.2l-8.7-8.7c-1.5-1.5-2.6-3.3-3.3-5.3-.2-.7-.9-1-1.6-.8s-1 .9-.8 1.6c.8 2.4 2.1 4.6 3.9 6.4l4 4-3.6 3.6c-2.9 2.9-4.6 7.4-4.6 11.8 0 .7.6 1.2 1.2 1.2.7 0 1.2-.6 1.2-1.2 0-3.8 1.5-7.6 3.9-10l3.6-3.6 2.1 2.1-3.6 3.6c-2.2 2.2-3 5.7-3 7.9 0 .7.6 1.2 1.2 1.2.7 0 1.2-.6 1.2-1.2 0-1.4.4-3.2 1.2-4.7h9.4c.8 1.5 1.2 3.3 1.2 4.7 0 .7.6 1.2 1.2 1.2.7 0 1.2-.6 1.2-1.2 0-2.3-.8-5.7-3-7.9L63.2 98zm-3.7 5.1l2.6-2.6 2.6 2.6h-5.2z" fill="url(#C)"/><linearGradient id="D" gradientUnits="userSpaceOnUse" x1="111.262" y1="79.553" x2="47.262" y2="79.553"><stop offset="0" stop-color="#fcb316"/><stop offset="1" stop-color="#e37925"/></linearGradient><path d="M88.6 80.8c.3 0 .7-.1.9-.4.2-.2.4-.6.4-.9s-.1-.7-.4-.9c-.2-.2-.6-.4-.9-.4s-.7.1-.9.4c-.2.2-.4.6-.4.9s.1.7.4.9c.2.3.5.4.9.4z" fill="url(#D)"/><linearGradient id="E" gradientUnits="userSpaceOnUse" x1="111.262" y1="79.484" x2="47.262" y2="79.484"><stop offset="0" stop-color="#fcb316"/><stop offset="1" stop-color="#e37925"/></linearGradient><path d="M85.1 79.6c0-.7-.6-1.2-1.2-1.2h-2.5c-.6-3-3.3-5.3-6.4-5.3h0c-.8-1.7-1.8-3.2-3.2-4.5l-4-4 4-4c2.9-2.9 4.6-7.4 4.6-11.8 0-.7-.6-1.2-1.2-1.2-.7 0-1.2.6-1.2 1.2 0 3.8-1.5 7.6-3.9 10l-4 4-2.1-2.1 4-4c2.2-2.2 3-5.7 3-7.9 0-.7-.6-1.2-1.2-1.2-.7 0-1.2.6-1.2 1.2 0 1.4-.4 3.3-1.3 4.8H56.9c-1-1.4-1.6-3-1.6-4.8 0-.7-.6-1.2-1.2-1.2-.7 0-1.2.6-1.2 1.2 0 2.8 1.1 5.4 3 7.3L70 70.2c1 1 1.8 2.1 2.4 3.3-.9.4-1.8 1-2.4 1.8-.5-1.1-1.2-2.1-2.1-3L53.7 58.1c-2.5-2.5-3.9-5.8-3.9-9.4 0-.7-.6-1.2-1.2-1.2-.7 0-1.2.6-1.2 1.2 0 4.2 1.6 8.2 4.6 11.2l4.6 4.6-4 4c-1.8 1.8-3.1 3.9-3.8 6.3-.2.7.1 1.4.8 1.6.1 0 .3.1.4.1.5 0 1-.3 1.2-.9.7-2 1.7-3.8 3.2-5.3l4-4 2.1 2.1-4 4c-1.9 1.9-3 4.5-3 7.3s1.1 5.4 3 7.3l8.8 8.8c0 .1.1.1.2.2l4.2 4.2c2.4 2.4 3.9 6.2 3.9 10 0 .7.6 1.2 1.2 1.2.7 0 1.2-.6 1.2-1.2 0-4.4-1.8-8.9-4.6-11.8l-3.6-3.6 4-4a16.69 16.69 0 0 0 3.3-4.7c3.2 0 5.8-2.3 6.4-5.3H84c.6 0 1.1-.6 1.1-1.2zM59.3 56H65l-2.8 2.8-2.9-2.8zm2.8 14.1L65 73h-5.7l2.8-2.9zM57 75.5h10.1c.5.9.9 1.8 1.1 2.8H56c.1-1 .5-1.9 1-2.8zm-1.1 5.3h12.4c-.1 1-.5 2-1 2.8H56.9c-.5-.9-.8-1.8-1-2.8zm3.2 5.3h6.1l-3 3-3.1-3zm10.9 3l-4 4-2.1-2.1 4-4c.9-.9 1.6-2 2.1-3.1.7.8 1.5 1.4 2.5 1.8-.7 1.2-1.5 2.3-2.5 3.4zm3.4-5.8c-1.5-.6-2.5-2.1-2.5-3.7 0-1.7 1-3.1 2.4-3.7.4 1.2.6 2.5.6 3.8 0 1.2-.2 2.4-.5 3.6zm2.5.2a16 16 0 0 0 .5-3.9c0-1.4-.2-2.8-.5-4.1 1.8.4 3.2 2 3.2 4-.1 2-1.4 3.6-3.2 4z" fill="url(#E)"/><path d="M50.2 154.6c-3.1 0-5.1 2.1-5.1 5.6 0 3.4 2 5.6 5.1 5.6s5.1-2.1 5.1-5.6c-.1-3.4-2-5.6-5.1-5.6zm0 2c1.7 0 2.8 1.4 2.8 3.6s-1.1 3.6-2.8 3.6-2.8-1.4-2.8-3.6c-.1-2.2 1-3.6 2.8-3.6zm6.7 8.9H59v-4.7c0-1.1.6-1.8 1.6-1.8s1.5.6 1.5 1.7v4.7h2.1v-5.2c0-1.9-1-3-2.8-3-1.2 0-2 .6-2.4 1.5h-.1v-1.3h-2.1v8.1zm16.3-5.2c-.2-1.8-1.5-3-3.6-3-2.5 0-3.9 1.5-3.9 4.2s1.4 4.2 3.9 4.2c2.1 0 3.4-1.2 3.6-3h-2c-.2.8-.7 1.2-1.6 1.2-1.1 0-1.8-.9-1.8-2.5s.6-2.4 1.8-2.4c.9 0 1.5.5 1.6 1.3h2zm5 5.4c2.5 0 4-1.6 4-4.2s-1.5-4.2-4-4.2-4 1.6-4 4.2 1.5 4.2 4 4.2zm0-1.8c-1.1 0-1.8-.9-1.8-2.5s.7-2.5 1.8-2.5 1.8.9 1.8 2.5-.7 2.5-1.8 2.5zm5.6 1.6h2.1v-11.2h-2.1v11.2zm7.7.2c2.5 0 4-1.6 4-4.2s-1.5-4.2-4-4.2-4 1.6-4 4.2 1.5 4.2 4 4.2zm0-1.8c-1.1 0-1.8-.9-1.8-2.5s.7-2.5 1.8-2.5 1.8.9 1.8 2.5c-.1 1.6-.7 2.5-1.8 2.5zm9-.2c-1.2 0-1.8-.9-1.8-2.3s.7-2.3 1.8-2.3 1.8.9 1.8 2.3c.1 1.4-.6 2.3-1.8 2.3zm0 4.8c2.4 0 4-1.2 4-3.1v-8h-2.1v1.3h-.1c-.4-.9-1.4-1.4-2.5-1.4-2.1 0-3.3 1.6-3.3 4.1 0 2.4 1.3 4 3.3 4 1.1 0 2-.5 2.4-1.3h.1v1.5c0 .9-.7 1.4-1.8 1.4-.9 0-1.5-.3-1.6-.8h-2.1c.1 1.4 1.5 2.3 3.7 2.3zm6.9-.1c2 0 3-.7 3.7-2.8l2.8-8.2h-2.3l-1.7 6.1h-.1l-1.7-6.1h-2.4l2.8 8.1-.1.3c-.2.6-.6.9-1.4.9h-.5v1.7h.9z" fill="#1d295b"/></svg>