<svg xmlns="http://www.w3.org/2000/svg" viewBox="0 0 161.4 172.9" xmlns:v="https://vecta.io/nano"><g fill="#fff"><path d="M79.3 147.9c-37.5 0-68-30.5-68-68s30.5-68 68-68 68 30.5 68 68-30.5 68-68 68z"/><path d="M79.3 19.9c33.1 0 60 26.9 60 60s-26.9 60-60 60-60-26.9-60-60 26.8-60 60-60m0-16c-41.9 0-76 34.1-76 76s34.1 76 76 76 76-34.1 76-76-34.1-76-76-76h0z"/></g><linearGradient id="A" gradientUnits="userSpaceOnUse" x1="111.262" y1="102.567" x2="47.262" y2="102.567"><stop offset="0" stop-color="#fcb316"/><stop offset="1" stop-color="#e37925"/></linearGradient><path d="M54.7,97.8h-2.1v8.5c0,0.6,0.5,1.1,1.1,1.1h8.5v-2.1h-7.5V97.8z" fill="url(#A)"/><linearGradient id="B" gradientUnits="userSpaceOnUse" x1="111.262" y1="59.107" x2="47.262" y2="59.107"><stop offset="0" stop-color="#fcb316"/><stop offset="1" stop-color="#e37925"/></linearGradient><path d="M103.8,63.9h2.1v-8.5c0-0.6-0.5-1.1-1.1-1.1h-8.5v2.1h7.5V63.9z" fill="url(#B)"/><path d="M54.7,56.5h7.5v-2.1h-8.5c-0.6,0-1.1,0.5-1.1,1.1v8.5h2.1V56.5z" fill="url(#B)"/><linearGradient id="C" gradientUnits="userSpaceOnUse" x1="111.262" y1="80.837" x2="47.262" y2="80.837"><stop offset="0" stop-color="#fcb316"/><stop offset="1" stop-color="#e37925"/></linearGradient><path d="M111.1 80.3c-6.7-10.6-18.2-17.1-30.8-17.4v-8.5h-2.1v8.5c-12.5.3-24.1 6.9-30.8 17.4-.2.3-.2.8 0 1.1C54.1 92 65.6 98.5 78.2 98.8v8.5h2.1v-8.5c12.5-.3 24.1-6.9 30.8-17.4.2-.3.2-.8 0-1.1zm-61.5.5c4.4-6.6 10.8-11.5 18.4-14-4 3.2-6.5 7.9-6.8 13h-8.6v2.1h8.6c.3 5.1 2.8 9.8 6.8 13a34.91 34.91 0 0 1-18.4-14.1zm28.6 9.6v6.3c-8-.5-14.3-6.9-14.9-14.8h6.3v-2.1h-6.3c.5-7.9 6.9-14.2 14.9-14.8v6.3h2.1V65c8 .5 14.3 6.9 14.9 14.8h-6.3v2.1h6.3c-.5 7.9-6.9 14.2-14.9 14.8v-6.3h-2.1zm12.3 4.5c4-3.2 6.5-7.9 6.8-13h8.6v-2.1h-8.6c-.3-5.1-2.8-9.8-6.8-13 7.5 2.5 14 7.5 18.4 14.1-4.3 6.6-10.8 11.5-18.4 14z" fill="url(#C)"/><path d="M103.8,105.2h-7.5v2.1h8.5c0.6,0,1.1-0.5,1.1-1.1v-8.5h-2.1V105.2z" fill="url(#A)"/><path d="M86.7 80.8c0-4.1-3.3-7.4-7.5-7.4-4.1 0-7.5 3.3-7.5 7.4s3.3 7.4 7.5 7.4c4.2.1 7.5-3.3 7.5-7.4zm-7.4 5.3a5.34 5.34 0 0 1-5.3-5.3 5.34 5.34 0 0 1 5.3-5.3 5.34 5.34 0 0 1 5.3 5.3 5.27 5.27 0 0 1-5.3 5.3z" fill="url(#C)"/><path d="M28.8 155.5c-3.1 0-5.1 2.1-5.1 5.6 0 3.4 2 5.6 5.1 5.6s5.1-2.1 5.1-5.6c-.1-3.5-2-5.6-5.1-5.6zm0 1.9c1.7 0 2.8 1.4 2.8 3.6s-1.1 3.6-2.8 3.6-2.8-1.4-2.8-3.6c-.1-2.2 1-3.6 2.8-3.6zm11.3.7c-1.1 0-2 .5-2.5 1.5h-.1v-1.3h-2.1V169h2.1v-3.9h.1c.4.9 1.3 1.4 2.4 1.4 2 0 3.3-1.6 3.3-4.2.1-2.6-1.1-4.2-3.2-4.2zm-.7 6.6c-1.1 0-1.8-.9-1.8-2.4s.7-2.4 1.8-2.4 1.8.9 1.8 2.4-.6 2.4-1.8 2.4zm5.6 1.6h2.1v-4.6c0-1 .6-1.8 1.7-1.8 1 0 1.5.6 1.5 1.7v4.7h2.1v-5.2c0-1.9-1-3-2.8-3-1.2 0-2.1.6-2.4 1.5h-.1v-4.4H45v11.1zm9.9-10v2h-1.3v1.7h1.3v4.1c0 1.6.8 2.2 2.7 2.2.4 0 .8 0 1.1-.1v-1.6h-.6c-.7 0-1-.3-1-1V160h1.7v-1.7H57v-2h-2.1zm5.4 10h2.1v-4.6c0-1 .6-1.8 1.7-1.8 1 0 1.5.6 1.5 1.7v4.7h2.1v-5.2c0-1.9-1-3-2.8-3-1.2 0-2.1.6-2.4 1.5h-.1v-4.4h-2.1v11.1zm12.2-1.4c-.7 0-1.3-.4-1.3-1s.4-.9 1.4-1l1.6-.1v.6c0 .8-.7 1.5-1.7 1.5zm-.7 1.6c1 0 1.9-.4 2.3-1.2h.1v1.1h2.1v-5.5c0-1.7-1.2-2.7-3.3-2.7-2 0-3.4.9-3.5 2.4h2c.2-.5.7-.7 1.5-.7.9 0 1.4.4 1.4 1.1v.7l-2 .1c-2 .1-3.1 1-3.1 2.4-.2 1.3.9 2.3 2.5 2.3zm6.4-.2h2.1v-11.2h-2.1v11.2zm4.2 0h2.1v-4.9c0-.9.6-1.6 1.4-1.6s1.3.5 1.3 1.3v5.1h2.1v-4.9c0-.9.6-1.5 1.4-1.5.9 0 1.3.5 1.3 1.4v5h2.1v-5.5c0-1.7-1-2.7-2.6-2.7-1.1 0-2.1.6-2.4 1.5H89c-.3-.9-1.1-1.5-2.2-1.5s-1.9.6-2.2 1.5h-.1v-1.3h-2.1v8.1zm17.2.2c2.5 0 4-1.6 4-4.2s-1.5-4.2-4-4.2-4 1.6-4 4.2 1.5 4.2 4 4.2zm0-1.7c-1.1 0-1.8-.9-1.8-2.5s.7-2.5 1.8-2.5 1.8.9 1.8 2.5-.7 2.5-1.8 2.5zm5.6 1.5h2.1v-11.2h-2.1v11.2zm7.7.2c2.5 0 4-1.6 4-4.2s-1.5-4.2-4-4.2-4 1.6-4 4.2 1.5 4.2 4 4.2zm0-1.7c-1.1 0-1.8-.9-1.8-2.5s.7-2.5 1.8-2.5 1.8.9 1.8 2.5c-.1 1.6-.7 2.5-1.8 2.5zm9-.3c-1.2 0-1.8-.9-1.8-2.3s.7-2.3 1.8-2.3 1.8.9 1.8 2.3c.1 1.4-.6 2.3-1.8 2.3zm0 4.9c2.4 0 4-1.2 4-3.1v-8h-2.1v1.3h-.1c-.4-.9-1.4-1.4-2.5-1.4-2.1 0-3.3 1.6-3.3 4.1 0 2.4 1.3 4 3.3 4 1.1 0 2-.5 2.4-1.3h.1v1.5c0 .9-.7 1.4-1.8 1.4-.9 0-1.5-.3-1.6-.8h-2.1c.1 1.4 1.6 2.3 3.7 2.3zm6.9-.1c2 0 3-.7 3.7-2.8l2.8-8.2H133l-1.7 6.1h-.1l-1.7-6.1h-2.4l2.8 8.1-.1.3c-.2.6-.6.9-1.4.9h-.5v1.7h.9z" fill="#1d295b"/><path d="M79.3 140.9c33.1 0 60-26.9 60-60s-26.9-60-60-60-60 26.9-60 60 26.8 60 60 60z" fill="none" stroke="#1d295b" stroke-width="3"/></svg>