<svg width="49" height="67" viewBox="0 0 49 67" fill="none" xmlns="http://www.w3.org/2000/svg">
<g clip-path="url(#clip0)">
<path d="M35.9895 6.91122C35.0324 5.20184 33.724 3.72016 32.1528 2.56618C30.5817 1.4122 28.7842 0.612761 26.8817 0.221823C21.7346 -0.719587 16.7422 1.44549 13.8842 5.79034C9.98312 7.52305 7.5764 11.4388 6.88485 15.4524C6.20781 20.693 8.27923 25.5681 12.6316 28.4625C14.5515 31.8333 17.9271 34.3508 21.6008 35.0344C26.835 35.9791 31.9176 33.7895 34.658 29.3533C38.1351 27.2225 40.8465 23.7505 41.4494 19.7956C42.1796 14.7019 40.2226 9.89697 35.9895 6.91122ZM29.6914 23.2741C28.094 24.8274 26.145 25.4898 24.0204 25.6203C21.2623 25.4066 18.7186 24.0589 17.2903 21.5806C15.7976 19.1071 15.854 15.1816 17.6788 12.9072C18.2043 12.018 19.0974 11.4649 19.876 10.8482C22.1118 9.34714 25.4938 9.17256 27.8344 10.5431C29.494 11.5035 30.7854 13.002 31.5001 14.7965C32.7123 17.6159 31.8322 21.1547 29.6914 23.2741Z" fill="#666666"/>
<path d="M34.1551 50.4642C34.1551 51.8641 34.3018 52.9284 34.5952 53.6572C34.8902 54.3865 35.3576 54.8515 35.9944 55.0472C36.224 55.1111 36.4595 55.1504 36.6972 55.1647C37.1292 55.2039 37.342 55.3279 37.342 55.5285C37.3463 55.5818 37.3353 55.6352 37.3104 55.6823C37.2856 55.7295 37.2478 55.7684 37.2018 55.7945C37.0214 55.8588 36.8298 55.8844 36.6392 55.8695H31.4115C31.2335 55.8838 31.0546 55.8582 30.8876 55.7945C30.8431 55.7671 30.807 55.7277 30.7833 55.6807C30.7597 55.6338 30.7495 55.5811 30.7538 55.5285C30.7538 55.3251 30.9391 55.2077 31.3099 55.1761C31.4389 55.168 31.5307 55.1614 31.5904 55.1517C32.2083 55.0266 32.6785 54.5676 33.0009 53.7746C33.3233 52.9817 33.4845 51.894 33.4845 50.5115V40.4285C33.1718 39.8411 32.5528 39.5246 31.6323 39.4773C31.4163 39.4675 31.247 39.4561 31.131 39.4397C30.9992 39.4431 30.8691 39.4092 30.7554 39.3418C30.714 39.3144 30.6804 39.2765 30.658 39.2318C30.6357 39.1872 30.6253 39.1373 30.628 39.0873C30.6232 39.0319 30.6336 38.9762 30.658 38.9264C30.6825 38.8766 30.7201 38.8346 30.7667 38.8051C30.9277 38.7375 31.1023 38.7095 31.276 38.7235H36.918C37.0235 38.7197 37.1289 38.7318 37.2308 38.7594C37.302 38.7818 37.3663 38.8222 37.4178 38.8769C37.4832 39.0083 37.5372 39.1454 37.579 39.2864C37.6556 39.5207 37.7641 39.7431 37.9014 39.9472L45.3923 51.7499V43.9526C45.3923 42.6033 45.2457 41.5722 44.9571 40.8657C44.6686 40.1593 44.2059 39.7236 43.5724 39.5458C43.338 39.4886 43.099 39.4531 42.8583 39.4397C42.4214 39.4104 42.2006 39.2929 42.2006 39.0873C42.1966 39.0305 42.2088 38.9738 42.2356 38.9238C42.2625 38.8738 42.3029 38.8326 42.3521 38.8051C42.5277 38.7371 42.7159 38.7092 42.9034 38.7235H48.223C48.3994 38.7104 48.5764 38.7383 48.7405 38.8051C48.7897 38.8326 48.8301 38.8738 48.8569 38.9238C48.8838 38.9738 48.8959 39.0305 48.892 39.0873C48.8845 39.2929 48.6991 39.4104 48.3359 39.4397C48.2004 39.4495 48.1037 39.4561 48.0441 39.4642C47.3606 39.6062 46.8593 40.0369 46.5385 40.7695C46.2177 41.502 46.0549 42.5479 46.0549 43.9363V52.5232C46.2963 52.8375 46.6163 53.0808 46.9818 53.228C47.367 53.3912 47.5605 53.5331 47.5605 53.6408C47.5605 53.7191 47.3525 53.8644 46.935 54.0732C46.5509 54.2621 46.1855 54.4878 45.8437 54.747C45.474 55.0328 45.1385 55.3613 44.8443 55.726C44.5219 56.1175 44.3381 56.3133 44.293 56.3133C44.1747 56.3133 44.0109 56.1447 43.8013 55.8075C43.7637 55.7488 43.7379 55.7096 43.7239 55.6901L34.1486 40.4595V50.4707L34.1551 50.4642Z" fill="#666666"/>
<path d="M35.0288 6.17389C30.1767 3.67271 24.5508 4.44933 21.683 6.61278C17.8142 9.25591 15.9765 13.374 15.7879 17.9309C15.9105 20.2755 16.9437 22.359 18.6895 24.0297C14.803 21.9625 12.1851 17.7172 12.1029 13.356C12.0336 8.64407 14.3033 4.48196 18.4058 2.0232C20.8109 0.6739 23.6303 -0.0472492 26.5787 0.554796C28.2979 0.838064 29.9389 1.48487 31.3946 2.45306C32.8503 3.42125 34.088 4.68907 35.0272 6.17389H35.0288Z" fill="#FF7F00"/>
<path d="M35.0288 6.17389C30.1767 3.67271 24.5508 4.44933 21.683 6.61278C17.8142 9.25591 15.9765 13.374 15.7879 17.9309C15.9105 20.2755 16.9437 22.359 18.6895 24.0297C14.803 21.9625 12.1851 17.7172 12.1029 13.356C12.0336 8.64407 14.3033 4.48196 18.4058 2.0232C20.8109 0.6739 23.6303 -0.0472492 26.5787 0.554796C28.2979 0.838064 29.9389 1.48487 31.3946 2.45306C32.8503 3.42125 34.088 4.68907 35.0272 6.17389H35.0288Z" stroke="#666666" stroke-width="0.4" stroke-linejoin="bevel"/>
<path d="M39.9132 12.1943C41.8476 15.9191 41.5171 21.3196 39.0701 24.7132C38.1803 26.0283 36.939 27.389 35.5237 28.1281C36.7826 25.3936 37.2888 21.7259 36.3442 18.7385C35.327 14.4964 31.2406 10.6329 27.0865 9.58052C23.6577 8.55263 19.7825 9.49894 17.5015 12.315C18.5606 9.51526 21.2413 6.91781 24.0462 5.75777C28.3793 4.18495 33.7634 5.07578 37.0551 8.32096C38.2689 9.4451 39.299 10.7683 39.9196 12.1943H39.9132Z" fill="#FDCCA1"/>
<path d="M39.9132 12.1943C41.8476 15.9191 41.5171 21.3196 39.0701 24.7132C38.1803 26.0283 36.939 27.389 35.5237 28.1281C36.7826 25.3936 37.2888 21.7259 36.3442 18.7385C35.327 14.4964 31.2406 10.6329 27.0865 9.58052C23.6577 8.55263 19.7825 9.49894 17.5015 12.315C18.5606 9.51526 21.2413 6.91781 24.0462 5.75777C28.3793 4.18495 33.7634 5.07578 37.0551 8.32096C38.2689 9.4451 39.299 10.7683 39.9196 12.1943H39.9132Z" stroke="#666666" stroke-width="0.4" stroke-linejoin="bevel"/>
<path d="M13.2716 6.60779C11.1228 10.5415 11.2147 16.4232 13.7939 20.0861C16.5472 23.7506 20.416 26.3725 25.1166 25.9238C27.381 25.5755 29.4358 24.3853 30.8795 22.5856C29.1772 27.0871 24.4154 30.2018 19.6745 30.1169C15.1044 30.1316 10.9938 27.7936 8.71286 23.7359C6.50442 20.2656 6.66079 14.9173 8.61776 11.3589C9.64621 9.43528 11.2808 7.62099 13.2652 6.60779H13.2716Z" fill="#FDCCA1"/>
<path d="M13.2716 6.60779C11.1228 10.5415 11.2147 16.4232 13.7939 20.0861C16.5472 23.7506 20.416 26.3725 25.1166 25.9238C27.381 25.5755 29.4358 24.3853 30.8795 22.5856C29.1772 27.0871 24.4154 30.2018 19.6745 30.1169C15.1044 30.1316 10.9938 27.7936 8.71286 23.7359C6.50442 20.2656 6.66079 14.9173 8.61776 11.3589C9.64621 9.43528 11.2808 7.62099 13.2652 6.60779H13.2716Z" stroke="#666666" stroke-width="0.4" stroke-linejoin="bevel"/>
<path d="M31.5001 14.7949C32.7123 17.6159 31.8322 21.158 29.6914 23.2791C28.094 24.8323 26.145 25.4947 24.0204 25.6252C21.2623 25.4115 18.7186 24.0638 17.2903 21.5855C15.7976 19.1072 15.854 15.1816 17.6788 12.9072C18.2043 12.018 19.0974 11.4649 19.876 10.8482C22.1118 9.34717 25.4938 9.17259 27.8344 10.5431C29.494 11.5036 30.7854 13.002 31.5001 14.7966V14.7949Z" stroke="#666666" stroke-width="0.4" stroke-linejoin="bevel"/>
<path d="M36.004 19.1644C36.0781 19.3347 36.1322 19.5132 36.1652 19.6962C37.2308 25.0282 34.8079 30.2671 30.4023 33.0669C26.9172 35.3723 21.3751 35.4995 17.8287 33.2104C16.17 32.3327 14.6789 30.8463 13.6375 29.2017C14.5451 29.4693 15.3092 29.8543 16.2248 30.1105C21.7346 31.5626 27.2267 29.2947 30.3298 24.6089C32.3174 21.8352 33.1992 17.43 31.7097 14.2158C31.1713 12.9677 30.1331 11.8501 29.0902 10.876L29.1208 10.8206C32.477 12.2237 35.1787 15.7152 36.0202 19.1644H36.004Z" fill="#FF7F00"/>
<path d="M36.004 19.1644C36.0781 19.3347 36.1322 19.5132 36.1652 19.6962C37.2308 25.0282 34.8079 30.2671 30.4023 33.0669C26.9172 35.3723 21.3751 35.4995 17.8287 33.2104C16.17 32.3327 14.6789 30.8463 13.6375 29.2017C14.5451 29.4693 15.3092 29.8543 16.2248 30.1105C21.7346 31.5626 27.2267 29.2947 30.3298 24.6089C32.3174 21.8352 33.1992 17.43 31.7097 14.2158C31.1713 12.9677 30.1331 11.8501 29.0902 10.876L29.1208 10.8206C32.477 12.2237 35.1787 15.7152 36.0202 19.1644H36.004Z" stroke="#666666" stroke-width="0.4" stroke-linejoin="bevel"/>
<path d="M1.57815 62.9962H3.55769C4.24602 62.9962 4.72639 62.9015 4.99882 62.7155C5.27125 62.5295 5.40827 62.2065 5.40827 61.7513C5.40827 61.2961 5.27447 60.9959 5.00205 60.8066C4.72962 60.6174 4.27987 60.5195 3.64635 60.5195H1.57815V62.9962ZM0.39978 67.0065V59.6058H3.59477C3.99076 59.5981 4.38677 59.6199 4.77959 59.671C5.02979 59.7074 5.27354 59.78 5.50338 59.8864C5.8405 60.0387 6.12227 60.2936 6.30938 60.6157C6.50417 60.9587 6.60229 61.3492 6.59309 61.7448C6.60008 62.1276 6.50186 62.505 6.30938 62.8346C6.11005 63.1593 5.82387 63.4201 5.48403 63.5868C5.25319 63.7018 5.00552 63.7784 4.75057 63.8136C4.29017 63.8702 3.82631 63.8931 3.36264 63.8821H1.57815V67L0.39978 67.0065ZM7.76018 67.0065V59.6058H8.93855V62.6437H13.4409V59.6058H14.6257V67H13.4409V63.5362H8.93855V67L7.76018 67.0065ZM18.0302 63.9343H20.7352L19.3924 60.6712L18.0302 63.9343ZM15.5204 67.0065L18.7444 59.6123H20.0452L23.2805 67.0065H22.0006L21.0818 64.7909H17.6659L16.7406 67L15.5204 67.0065ZM25.3326 60.4803V62.9798H27.3476C28.0762 62.9798 28.5889 62.8787 28.8903 62.678C29.1917 62.4773 29.34 62.1429 29.34 61.673C29.34 61.2357 29.1998 60.9273 28.9161 60.7446C28.6324 60.5619 28.1101 60.4738 27.3476 60.4738L25.3326 60.4803ZM24.18 59.6058H27.5459C27.9482 59.5983 28.3505 59.6184 28.7501 59.6662C28.9887 59.7015 29.2218 59.7684 29.4432 59.8652C29.7836 60.0158 30.0732 60.2636 30.2766 60.5782C30.4731 60.9009 30.5728 61.2744 30.5636 61.6534C30.5732 62.0179 30.4682 62.3761 30.2637 62.6764C30.0345 62.9799 29.724 63.2104 29.3691 63.3404C29.6476 63.3886 29.9013 63.532 30.088 63.7467C30.2315 63.9376 30.3201 64.2622 30.3556 64.7158L30.4555 65.9362C30.4634 66.1364 30.5042 66.3338 30.5764 66.5203C30.632 66.6428 30.7301 66.7403 30.8521 66.7944V67H29.49C29.3803 66.845 29.3046 66.5105 29.2611 66.0113V65.9803L29.1885 65.0177C29.1482 64.5282 29.0273 64.2019 28.8178 64.0534C28.6082 63.9049 28.0891 63.8331 27.2557 63.8331H25.3439V67H24.18V59.6058ZM33.2782 60.7006V67H32.1917V59.6058H33.8762L36.0266 65.2624C36.0895 65.4256 36.1362 65.5479 36.1636 65.6377C36.1903 65.7142 36.2129 65.792 36.2314 65.871C36.2636 65.747 36.2942 65.636 36.3265 65.5447C36.3587 65.4533 36.3909 65.3554 36.4264 65.2673L38.6558 59.6107H40.3452V67.0049H39.2023V60.7006C39.1749 60.8066 39.1442 60.9143 39.1088 61.0269C39.0733 61.1394 39.0362 61.2422 38.9959 61.3532L36.7633 67.0065H35.6494L33.47 61.3532C33.4289 61.2552 33.3934 61.155 33.3636 61.053C33.3314 60.9453 33.304 60.8311 33.2749 60.7071L33.2782 60.7006ZM43.7562 63.9278H46.4611L45.1183 60.6647L43.7562 63.9278ZM41.2463 67L44.4703 59.6058H45.7712L49.0049 67H47.7153L46.8029 64.7909H43.387L42.4617 67H41.2463Z" fill="#666666"/>
<path d="M15.6364 44.2218C15.6364 42.3727 15.5451 41.1909 15.3624 40.6764C15.2853 40.4347 15.1573 40.2128 14.9873 40.0261C14.8172 39.8393 14.6092 39.6921 14.3774 39.5947C14.0948 39.4965 13.7992 39.4415 13.5005 39.4315C13.0943 39.4 12.8912 39.2781 12.8912 39.066C12.8867 39.0143 12.8964 38.9622 12.9191 38.9156C12.9418 38.869 12.9768 38.8296 13.0201 38.8017C13.1733 38.7386 13.339 38.7128 13.5037 38.7267H21.4831C21.6754 38.7116 21.8686 38.7371 22.0506 38.8017C22.098 38.8263 22.1372 38.8645 22.1633 38.9115C22.1894 38.9585 22.2012 39.0123 22.1973 39.066C22.1973 39.2716 21.949 39.3924 21.4493 39.4429C21.1978 39.4674 20.9915 39.4952 20.8351 39.5245C20.1581 39.642 19.6922 39.9748 19.4407 40.5165C19.1893 41.0582 19.0603 42.2949 19.0603 44.225V51.1983C19.047 51.7704 19.0881 52.3424 19.1828 52.9066C19.2562 53.2808 19.3925 53.6395 19.5858 53.9671C19.9137 54.5077 20.4074 54.9248 20.9915 55.1549C21.724 55.4429 22.5062 55.5794 23.2918 55.5562C24.9801 55.5562 26.2015 55.1282 26.9559 54.2722C27.7103 53.4162 28.0864 52.0185 28.0843 50.0791V43.8791C28.0843 42.5445 27.936 41.5237 27.6394 40.8167C27.3428 40.1119 26.8817 39.686 26.266 39.5441C26.0309 39.4907 25.7922 39.4553 25.5518 39.438C25.0973 39.3989 24.8683 39.2749 24.8603 39.0612C24.8561 39.0089 24.8664 38.9564 24.8901 38.9097C24.9137 38.8631 24.9497 38.824 24.9941 38.7968C25.1577 38.7327 25.3335 38.707 25.5083 38.7218H30.7892C30.9799 38.7061 31.1717 38.7316 31.3518 38.7968C31.398 38.8223 31.4359 38.8609 31.4608 38.9079C31.4857 38.9548 31.4966 39.0081 31.4921 39.0612C31.4921 39.2586 31.3147 39.3695 30.9569 39.3875C30.7957 39.4054 30.6683 39.4201 30.5893 39.4348C30.0004 39.5436 29.548 39.9786 29.232 40.74C28.9096 41.5003 28.7581 42.5347 28.7581 43.8237V50.4331C28.7581 52.5161 28.2562 54.0144 27.2525 54.9281C26.2488 55.8417 24.6029 56.3013 22.3149 56.3067C21.2956 56.3198 20.2794 56.1891 19.2957 55.9184C18.4812 55.7006 17.7197 55.3157 17.0582 54.7878C16.5702 54.3989 16.1912 53.8876 15.9588 53.3047C15.7476 52.7467 15.6364 51.8966 15.6364 50.7594V44.2218Z" fill="#666666"/>
<path d="M12.6091 42.6277C12.6447 42.7214 12.6743 42.8173 12.6977 42.9149C12.7111 42.971 12.7187 43.0284 12.7203 43.0862C12.7264 43.1869 12.7034 43.2872 12.6542 43.3749C12.6318 43.408 12.6013 43.4346 12.5657 43.452C12.5301 43.4695 12.4906 43.4772 12.4511 43.4745C12.2738 43.4745 11.9675 43.1074 11.5258 42.3683C11.2888 41.9767 11.0954 41.6569 10.9471 41.4154C10.4501 40.6558 9.78077 40.0276 8.99496 39.5832C8.25055 39.124 7.39864 38.8739 6.52699 38.8588C5.49316 38.8588 4.65653 39.1242 4.0171 39.655C3.70876 39.8969 3.46067 40.2086 3.29271 40.565C3.12476 40.9214 3.0416 41.3127 3.0499 41.7075C3.04474 42.0824 3.12936 42.453 3.29654 42.7876C3.48305 43.132 3.74229 43.4306 4.05579 43.6621C4.34488 43.8905 5.62051 44.3256 7.88268 44.9674C8.47751 45.1387 8.93693 45.2741 9.26578 45.3671C10.7166 45.7897 11.7918 46.4048 12.4898 47.2026C13.1878 48.0004 13.5376 49.0185 13.5376 50.2422C13.5376 51.9455 12.9293 53.3443 11.7128 54.4386C10.499 55.5317 8.92404 56.0815 6.99931 56.0815C6.44753 56.0793 5.89693 56.0296 5.35345 55.9331C4.7683 55.8368 4.43622 55.7862 4.35401 55.7862C3.96874 55.7862 3.63183 56 3.35135 56.4274C3.07086 56.8549 2.88548 57.0703 2.80327 57.0703C2.77263 57.0703 2.74234 57.0637 2.7145 57.0507C2.68666 57.0377 2.66195 57.0188 2.64207 56.9952C2.57373 56.8992 2.51943 56.7937 2.48087 56.6819L0.149912 51.1346C0.119284 51.0563 0.0886584 50.9715 0.0515824 50.8867C0.0252584 50.8351 0.00574714 50.7802 -0.00644976 50.7235C-0.0112652 50.6229 0.0158491 50.5234 0.0709256 50.4396C0.095485 50.4056 0.127834 50.3783 0.165184 50.3598C0.202535 50.3413 0.243767 50.3323 0.285322 50.3336C0.425566 50.3336 0.707665 50.6501 1.13001 51.2864C1.52091 51.8784 1.95752 52.4381 2.43573 52.9604C3.09021 53.7129 3.87531 54.3377 4.75218 54.804C5.5407 55.1884 6.40626 55.3833 7.28141 55.3734C8.32921 55.3734 9.18572 55.0852 9.85094 54.5087C10.1727 54.2395 10.4299 53.9 10.6033 53.5156C10.7766 53.1313 10.8617 52.7122 10.852 52.2898C10.852 50.8758 9.233 49.682 5.99503 48.7085L5.48403 48.5551C3.54962 47.958 2.21113 47.2891 1.46853 46.5483C0.725935 45.8076 0.353562 44.8205 0.351412 43.5871C0.351412 42.0708 0.931197 40.796 2.09076 39.7627C3.25033 38.7294 4.69737 38.2105 6.43188 38.2062C7.01856 38.2136 7.60319 38.278 8.17768 38.3987C8.56665 38.4885 8.96073 38.5539 9.35766 38.5945C9.53005 38.6008 9.6998 38.5503 9.84137 38.4505C9.98295 38.3508 10.0887 38.2072 10.1427 38.0414C10.2942 37.6726 10.4167 37.4883 10.5054 37.4883C10.5366 37.4918 10.5665 37.5026 10.5928 37.5199C10.6191 37.5372 10.6411 37.5604 10.6569 37.5878C10.7256 37.7 10.7798 37.8206 10.8181 37.9467L12.6042 42.6228L12.6091 42.6277Z" fill="#666666"/>
</g>
<defs>
<clipPath id="clip0">
<rect width="49" height="67" fill="white"/>
</clipPath>
</defs>
</svg>
