<svg width="240" height="46" viewBox="0 0 240 46" fill="none" xmlns="http://www.w3.org/2000/svg">
<path fill-rule="evenodd" clip-rule="evenodd" d="M0.440094 23.2875L2.6956 21.85C4.29095 24.8975 6.10635 26.45 8.19682 26.45C9.07701 26.45 9.9022 26.22 10.7274 25.8175C11.4976 25.3575 12.1027 24.7825 12.4878 24.0925C12.8729 23.345 13.0929 22.5975 13.0929 21.7925C13.0929 20.8725 12.8178 19.9525 12.2127 19.0325C11.3875 17.825 9.84718 16.33 7.6467 14.605C5.44621 12.88 4.0709 11.615 3.52078 10.81C2.58557 9.4875 2.09046 8.1075 2.09046 6.555C2.09046 5.3475 2.36552 4.255 2.91564 3.2775C3.46577 2.3 4.23594 1.495 5.22616 0.920001C6.21638 0.345001 7.31662 0.0575009 8.52689 0.0575009C9.84718 9.38656e-07 11.0024 0.287501 12.1027 0.977501C13.2029 1.61 14.3582 2.8175 15.5685 4.5425L14.6332 5.29C13.9731 5.8075 12.9829 5.6925 12.4328 5.06C11.8276 4.37 11.2775 3.8525 10.8374 3.565C10.1222 3.0475 9.35207 2.875 8.52689 2.875C7.48166 2.875 6.60146 3.22 5.8863 3.91C5.22616 4.6 4.84107 5.405 4.84107 6.44C4.84107 7.015 4.9511 7.6475 5.22616 8.2225C5.44621 8.7975 5.8863 9.43 6.54645 10.0625C6.87652 10.4075 8.03178 11.3275 9.95721 12.8225C12.2677 14.605 13.8081 16.1575 14.6883 17.5375C15.5685 18.9175 15.9535 20.2975 15.9535 21.735C15.9535 23.7475 15.2384 25.4725 13.7531 26.9675C12.2677 28.4625 10.5073 29.21 8.41687 29.21C6.82151 29.21 5.33618 28.75 4.01589 27.8875C2.80562 26.91 1.59535 25.3575 0.440094 23.2875ZM20.1345 7.8775H20.9597C21.8398 7.8775 22.61 8.625 22.61 9.6025V17.48C22.61 19.8375 22.72 21.4475 22.9951 22.31C23.3802 23.575 24.0403 24.5525 25.0856 25.3C26.1308 26.0475 27.3411 26.3925 28.7164 26.3925C30.1467 26.3925 31.302 26.0475 32.2922 25.3C33.2824 24.61 33.9425 23.6325 34.3276 22.4825C34.6027 21.6775 34.7127 20.01 34.7127 17.4225V7.8775H37.2983V17.94C37.2983 20.7575 36.9682 22.885 36.3631 24.3225C35.7579 25.76 34.7677 26.8525 33.5024 27.715C32.2372 28.52 30.6418 28.9225 28.7164 28.9225C26.7909 28.9225 25.1956 28.52 23.9303 27.715C22.665 26.91 21.6748 25.76 21.0697 24.3225C20.4645 22.885 20.1345 20.7 20.1345 17.7675V7.8775ZM43.7897 7.8775H42.8545V28.4625H45.3851V20.93C45.3851 18.2275 45.5501 16.3875 45.7702 15.3525C46.1553 13.8 46.9254 12.4775 48.1357 11.4425C49.346 10.35 50.7213 9.8325 52.2616 9.8325C53.5819 9.8325 54.6822 10.1775 55.5073 10.8675C56.3325 11.5575 56.9377 12.535 57.2127 13.915C57.3778 14.6625 57.4878 16.2725 57.4878 18.63V28.405H60.0183V17.825C60.0183 15.065 59.7433 12.995 59.1932 11.6725C58.643 10.35 57.8178 9.315 56.6626 8.51C55.5073 7.7625 54.2421 7.36 52.7567 7.36C51.3264 7.36 49.9511 7.705 48.7408 8.395C47.5306 9.085 46.3753 10.1775 45.3851 11.5575V9.545C45.3851 8.625 44.6699 7.8775 43.7897 7.8775Z" fill="url(#paint0_linear)"/>
<path d="M98.1968 16.2725C96.8765 16.2725 95.8313 17.3075 95.8313 18.63C95.8313 19.9525 96.8765 21.045 98.1968 21.045C99.4621 21.045 100.507 19.9525 100.507 18.63C100.507 17.3075 99.5171 16.2725 98.1968 16.2725Z" fill="url(#paint1_linear)"/>
<path fill-rule="evenodd" clip-rule="evenodd" d="M95.4462 5.8075L93.2457 7.9925C92.5306 8.74 91.3753 8.74 90.6601 8.05C88.5697 6.21 86.3142 5.3475 83.8386 5.3475C81.3081 5.3475 79.1626 6.2675 77.4022 8.05C75.6418 9.8325 74.8166 12.075 74.8166 14.7775C74.8166 16.6175 75.2017 18.285 75.9719 19.7225C76.742 21.16 77.8423 22.31 79.2176 23.115C80.6479 23.92 82.1883 24.3225 83.8936 24.3225C85.379 24.3225 86.6993 24.035 87.9095 23.46C88.7347 23.0575 89.6149 22.4825 90.5501 21.6775C91.3753 20.9875 92.5306 21.045 93.3007 21.7925L95.3912 24.0925C93.4107 26.105 91.5953 27.485 89.835 28.2325C88.0746 28.98 86.0941 29.3825 83.8386 29.3825C79.7127 29.3825 76.357 28.0025 73.7164 25.3C71.0758 22.54 69.7555 19.0325 69.7555 14.7775C69.7555 12.0175 70.3606 9.545 71.5709 7.4175C72.7812 5.29 74.4865 3.565 76.742 2.2425C78.9975 0.919998 81.3631 0.287498 83.9486 0.287498C86.1491 0.287498 88.2396 0.747498 90.275 1.725C92.2555 2.645 93.9609 4.025 95.4462 5.8075ZM106.889 7.1875C102.323 7.1875 98.5269 9.775 96.8765 13.6275C97.3166 13.5125 97.7567 13.455 98.1968 13.455C99.4071 13.455 100.507 13.915 101.388 14.6625C102.543 12.765 104.578 11.5 106.889 11.5C110.355 11.5 113.215 14.375 113.215 18.055C113.215 21.735 110.355 24.6675 106.889 24.6675C104.908 24.6675 103.148 23.7475 101.938 22.2525C101.002 23.2875 99.6821 23.9775 98.1968 23.9775C98.0318 23.9775 97.8117 23.9775 97.6467 23.92C99.5721 26.91 102.928 28.865 106.834 28.865C112.995 28.865 117.726 24.0925 117.726 17.94C117.726 11.7875 113.05 7.1875 106.889 7.1875ZM125.428 28.6925H120.532V8.165H124.383C124.988 8.165 125.483 8.6825 125.483 9.315V10.2925C126.583 9.315 127.628 8.625 128.509 8.2225C129.444 7.82 130.379 7.6475 131.314 7.6475C133.24 7.6475 134.89 8.3375 136.265 9.775C137.421 10.9825 137.971 12.765 137.971 15.1225V28.6925H133.075V19.7225C133.075 17.25 132.965 15.64 132.744 14.835C132.524 14.03 132.139 13.3975 131.644 12.995C131.149 12.5925 130.489 12.3625 129.719 12.3625C128.729 12.3625 127.848 12.7075 127.133 13.3975C126.418 14.0875 125.923 15.065 125.648 16.2725C125.483 16.905 125.428 18.285 125.428 20.4125V28.6925ZM141.877 28.6925H146.773V20.4125C146.773 18.285 146.828 16.905 146.993 16.2725C147.268 15.065 147.763 14.0875 148.478 13.3975C149.193 12.7075 150.073 12.3625 151.064 12.3625C151.834 12.3625 152.494 12.5925 152.989 12.995C153.484 13.3975 153.869 14.03 154.089 14.835C154.309 15.64 154.419 17.25 154.419 19.7225V28.6925H159.315V15.1225C159.315 12.765 158.765 10.9825 157.61 9.775C156.235 8.3375 154.584 7.6475 152.659 7.6475C151.724 7.6475 150.788 7.82 149.853 8.2225C148.973 8.625 147.928 9.315 146.828 10.2925V9.1425C146.828 8.625 146.443 8.165 145.892 8.165H141.877V28.6925ZM179.615 10.695C181.54 12.765 182.531 15.525 182.531 18.9175C182.531 19.435 182.09 19.895 181.705 19.9525H166.797C167.017 21.4475 167.622 22.5975 168.612 23.46C169.603 24.3225 170.868 24.725 172.408 24.725C174.224 24.725 175.819 24.035 177.139 22.7125L181.265 24.725C180.22 26.22 178.955 27.37 177.524 28.1175C176.039 28.865 174.334 29.21 172.353 29.21C169.273 29.21 166.742 28.175 164.817 26.1625C162.891 24.0925 161.901 21.5625 161.901 18.515C161.901 15.3525 162.891 12.765 164.817 10.695C166.742 8.625 169.163 7.59 172.078 7.59C175.159 7.59 177.689 8.625 179.615 10.695ZM166.907 15.87C167.457 14.605 168.062 13.685 168.722 13.225C169.768 12.42 170.978 12.0175 172.353 12.0175C173.619 12.0175 174.719 12.3625 175.709 13.11C176.644 13.8 177.304 14.7775 177.634 15.9275H166.907V15.87ZM218.619 8.1075C219.169 8.1075 219.554 8.5675 219.554 9.085L219.444 12.4775H214.878V28.5775H209.982V12.4775H206.076V8.05H209.982V0.574997H213.998C214.548 0.574997 214.933 1.035 214.933 1.5525V2.7025V8.1075H218.619ZM200.079 28.4625C201.4 27.8875 202.83 26.795 204.26 25.3L204.535 25.0125L202.72 23.0575C202.06 22.31 200.96 22.2525 200.189 22.9425C199.529 23.5175 198.924 23.92 198.374 24.2075C197.549 24.61 196.614 24.7825 195.568 24.7825C194.358 24.7825 193.258 24.495 192.323 23.92C191.333 23.345 190.617 22.5975 190.067 21.5625C189.517 20.585 189.242 19.435 189.242 18.1125C189.242 16.2725 189.847 14.72 191.057 13.455C192.268 12.19 193.698 11.5575 195.513 11.5575C197.219 11.5575 198.869 12.19 200.299 13.455C201.015 14.0875 202.06 14.03 202.72 13.3975L204.59 11.5L204.37 11.2125C203.27 9.89 201.895 8.7975 200.41 8.05C198.869 7.3025 197.274 6.9575 195.623 6.9575C193.698 6.9575 191.828 7.475 190.122 8.4525C188.417 9.43 187.097 10.7525 186.216 12.42C185.281 14.03 184.841 15.9275 184.841 18.055C184.841 21.275 185.831 23.9775 187.867 26.0475C189.847 28.1175 192.488 29.1525 195.568 29.1525C197.219 29.3825 198.759 29.0375 200.079 28.4625ZM227.255 7.59C229.841 7.59 232.152 8.7975 233.747 10.9825L231.656 12.8225C230.996 13.5125 230.006 13.5125 229.291 12.9375C228.631 12.4775 227.916 12.19 227.2 12.19C226.21 12.19 225.44 12.65 225.44 13.455C225.44 14.216 226.079 14.5659 227.032 15.0876C227.087 15.1178 227.143 15.1485 227.2 15.18L229.016 16.1575C232.262 17.8825 234.022 19.665 234.022 22.7125C234.022 26.3925 231.271 29.1525 226.98 29.1525C224.12 29.1525 221.809 27.945 220.104 25.645L223.13 22.195C224.285 23.6325 225.935 24.61 227.255 24.61C228.521 24.61 229.456 23.8625 229.456 22.9425C229.456 22.0225 228.631 21.39 227.255 20.6425L225.605 19.78C222.469 18.1125 220.874 16.1 220.874 13.5125C220.874 10.2925 223.46 7.59 227.255 7.59Z" fill="url(#paint2_linear)"/>
<path d="M236.222 8.165V8.5675H235.397V10.58H235.012V8.5675H234.187V8.165H236.222Z" fill="#1D295B"/>
<path d="M239.468 8.165V10.58H239.028V8.5675L238.203 10.58H237.928L237.103 8.5675V10.58H236.663V8.165H237.323L238.038 9.8325L238.808 8.165H239.468Z" fill="#1D295B"/>
<path fill-rule="evenodd" clip-rule="evenodd" d="M142.702 36.455C142.922 36.455 143.087 36.5125 143.362 36.6275V35.9375C143.169 35.8701 142.994 35.8225 142.849 35.783C142.747 35.7551 142.66 35.7313 142.592 35.7075C142.372 35.7075 142.152 35.765 141.987 35.88C141.822 35.995 141.711 36.11 141.656 36.2825C141.601 36.455 141.546 36.7425 141.546 37.145V38.0075H140.831V38.64H141.491V43.5275H142.152V38.64H143.252V38.0075H142.152V37.26C142.152 37.0613 142.178 36.8901 142.194 36.7843C142.201 36.737 142.207 36.7028 142.207 36.685C142.207 36.6275 142.262 36.57 142.372 36.5125C142.482 36.455 142.592 36.455 142.702 36.455ZM71.956 36.11H71.1308L73.4413 40.02V43.585H74.1565V40.02L76.412 36.11H75.5868L73.7714 39.1575L71.956 36.11ZM80.5379 38.8125C79.9878 38.18 79.3276 37.8925 78.5024 37.8925C77.6773 37.8925 77.0171 38.2375 76.467 38.8125C75.9719 39.3875 75.7518 40.0775 75.7518 40.825C75.7518 41.5725 76.0269 42.2625 76.522 42.8375C77.0171 43.4125 77.6773 43.7 78.5024 43.7C79.3276 43.7 79.9878 43.4125 80.4829 42.8375C80.978 42.2625 81.2531 41.5725 81.2531 40.825C81.2531 40.02 81.033 39.3875 80.5379 38.8125ZM78.5024 38.64C77.9523 38.64 77.4572 38.87 77.0721 39.2725C76.632 39.675 76.467 40.25 76.467 40.825C76.467 41.2275 76.577 41.5725 76.742 41.9175C76.9071 42.2625 77.1821 42.55 77.5122 42.7225C77.8423 42.895 78.1724 43.01 78.5575 43.01C78.9425 43.01 79.2726 42.895 79.6027 42.7225C79.9328 42.55 80.1528 42.2625 80.3729 41.9175C80.5379 41.5725 80.6479 41.2275 80.6479 40.825C80.6479 40.1925 80.4279 39.675 80.0428 39.215C79.5477 38.8125 79.0526 38.64 78.5024 38.64ZM83.1235 38.065H82.5183V40.71C82.5183 41.515 82.6284 42.09 82.7934 42.4925C82.9584 42.895 83.2335 43.1825 83.5636 43.4125C83.8936 43.6425 84.3337 43.7575 84.8289 43.7575C85.324 43.7575 85.7641 43.6425 86.0941 43.4125C86.4242 43.1825 86.6993 42.895 86.8643 42.4925C87.0293 42.09 87.1394 41.515 87.1394 40.7675V38.065H86.4242V40.6525C86.4242 41.3425 86.3692 41.8025 86.3142 42.0325C86.2042 42.32 86.0391 42.6075 85.7641 42.78C85.489 42.9525 85.1589 43.0675 84.7738 43.0675C84.3888 43.0675 84.0587 42.9525 83.7836 42.78C83.5086 42.6075 83.3435 42.32 83.2335 41.975C83.1785 41.6875 83.1235 41.285 83.1235 40.6525V38.065ZM88.2946 38.065H89.0098V38.87C89.2298 38.525 89.4499 38.295 89.6699 38.18C89.89 38.0075 90.165 37.95 90.3851 37.95C90.5501 37.95 90.7702 38.0075 90.9902 38.1225L90.6602 38.6975C90.6159 38.6821 90.5757 38.6667 90.5383 38.6524C90.4362 38.6133 90.3556 38.5825 90.2751 38.5825C90.055 38.5825 89.835 38.6975 89.6149 38.87C89.3949 39.0425 89.2298 39.3875 89.1198 39.79C89.0098 40.0775 89.0098 40.7675 89.0098 41.6875V43.5275H88.2946V38.065ZM95.8863 36.11H94.456V43.5275H95.1712V40.0775H95.5562L98.1418 43.5275H99.022L96.4364 40.0775C97.0416 40.0775 97.5367 40.02 97.8668 39.8475C98.1968 39.675 98.4719 39.445 98.6369 39.1575C98.802 38.8125 98.912 38.4675 98.912 38.065C98.912 37.605 98.802 37.2025 98.5269 36.8575C98.2518 36.57 97.9218 36.34 97.4817 36.225C97.2066 36.1675 96.6565 36.11 95.8863 36.11ZM95.1712 36.8575V39.3875H96.3814C96.8765 39.3875 97.2066 39.33 97.4267 39.2725C97.6467 39.1575 97.8117 39.0425 97.9768 38.8125C98.0868 38.5825 98.1418 38.3525 98.1418 38.1225C98.1418 37.8925 98.0868 37.6625 97.9218 37.4325C97.8117 37.2025 97.6467 37.0875 97.4267 36.9725C97.2066 36.8575 96.8765 36.8575 96.3814 36.8575H95.1712ZM104.743 42.0325L104.193 41.745C104.028 42.09 103.808 42.3775 103.643 42.435C103.478 42.6075 103.258 42.7225 102.983 42.8375C102.763 42.9525 102.488 43.01 102.213 43.01C101.608 43.01 101.167 42.78 100.782 42.3775C100.397 41.975 100.177 41.4575 100.177 40.825H104.908C104.853 40.0775 104.688 39.445 104.303 38.9275C103.753 38.18 103.038 37.835 102.158 37.835C101.278 37.835 100.562 38.18 100.067 38.87C99.6822 39.445 99.4621 40.0775 99.4621 40.7675C99.4621 41.515 99.6822 42.205 100.177 42.78C100.672 43.355 101.333 43.6425 102.213 43.6425C102.598 43.6425 102.983 43.585 103.258 43.47C103.533 43.355 103.863 43.1825 104.083 42.9525C104.358 42.7225 104.578 42.435 104.743 42.0325ZM104.193 40.25L104.177 40.1925H104.193V40.25ZM104.177 40.1925H100.342C100.452 39.675 100.672 39.2725 100.947 39.0425C101.278 38.6975 101.773 38.525 102.268 38.525C102.543 38.525 102.873 38.64 103.148 38.755C103.423 38.9275 103.643 39.1 103.808 39.33C103.965 39.5489 104.072 39.8199 104.177 40.1925ZM108.429 39.1L108.869 38.64C108.374 38.18 107.879 37.8925 107.494 37.8925C107.054 37.8925 106.724 38.0075 106.449 38.295C106.174 38.5825 106.064 38.9275 106.064 39.33C106.064 39.675 106.174 39.9625 106.339 40.1925C106.504 40.4225 106.834 40.71 107.329 40.94C107.824 41.17 108.099 41.3425 108.209 41.515C108.319 41.63 108.374 41.8025 108.374 42.0325C108.374 42.2625 108.264 42.4925 108.099 42.665C107.879 42.8375 107.659 42.9525 107.384 42.9525C106.999 42.9525 106.614 42.7225 106.284 42.32L105.844 42.8375C106.009 43.0675 106.229 43.2975 106.504 43.4125C106.779 43.585 107.054 43.6425 107.384 43.6425C107.879 43.6425 108.209 43.47 108.539 43.1825C108.814 42.895 108.979 42.4925 108.979 42.0325C108.979 41.745 108.869 41.4 108.704 41.17C108.484 40.8825 108.154 40.6525 107.659 40.365C107.219 40.135 106.944 39.9625 106.834 39.79C106.669 39.6175 106.614 39.445 106.614 39.2725C106.614 39.1 106.669 38.9275 106.834 38.755C106.999 38.5825 107.164 38.525 107.384 38.525C107.714 38.525 108.044 38.755 108.429 39.1ZM112.61 37.8925C113.435 37.8925 114.095 38.18 114.645 38.8125C115.141 39.3875 115.361 40.02 115.361 40.825C115.361 41.5725 115.086 42.2625 114.59 42.8375C114.095 43.4125 113.435 43.7 112.61 43.7C111.785 43.7 111.125 43.4125 110.63 42.8375C110.134 42.2625 109.859 41.5725 109.859 40.825C109.859 40.0775 110.079 39.3875 110.575 38.8125C111.07 38.2375 111.785 37.8925 112.61 37.8925ZM111.125 39.2725C111.51 38.87 112.005 38.64 112.555 38.64C113.16 38.64 113.6 38.8125 114.095 39.2725C114.48 39.7325 114.701 40.25 114.701 40.8825C114.701 41.285 114.645 41.63 114.425 41.975C114.205 42.32 113.985 42.6075 113.655 42.78C113.325 42.9525 112.995 43.0675 112.61 43.0675C112.225 43.0675 111.895 42.9525 111.565 42.78C111.235 42.6075 110.96 42.32 110.795 41.975C110.63 41.63 110.52 41.285 110.52 40.8825C110.52 40.25 110.74 39.675 111.125 39.2725ZM116.571 38.065H117.176V40.6525C117.176 41.285 117.231 41.6875 117.286 41.975C117.396 42.32 117.561 42.6075 117.836 42.78C118.111 42.9525 118.441 43.0675 118.826 43.0675C119.211 43.0675 119.542 42.9525 119.817 42.78C120.092 42.6075 120.257 42.32 120.367 42.0325C120.422 41.8025 120.477 41.3425 120.477 40.6525V38.065H121.192V40.7675C121.192 41.515 121.082 42.09 120.917 42.4925C120.752 42.895 120.477 43.1825 120.147 43.4125C119.817 43.6425 119.377 43.7575 118.881 43.7575C118.386 43.7575 117.946 43.6425 117.616 43.4125C117.286 43.1825 117.011 42.895 116.846 42.4925C116.681 42.09 116.571 41.515 116.571 40.71V38.065ZM123.062 38.065H122.347V43.5275H123.062V41.6875C123.062 40.7675 123.062 40.0775 123.172 39.79C123.282 39.3875 123.447 39.0425 123.667 38.87C123.888 38.6975 124.108 38.5825 124.328 38.5825C124.408 38.5825 124.489 38.6133 124.591 38.6524C124.628 38.6667 124.669 38.6821 124.713 38.6975L125.043 38.1225C124.823 38.0075 124.603 37.95 124.438 37.95C124.218 37.95 123.943 38.0075 123.723 38.18C123.502 38.295 123.282 38.525 123.062 38.87V38.065ZM130.654 39.215L130.104 39.56C129.664 38.9275 129.004 38.5825 128.178 38.5825C127.518 38.5825 127.023 38.8125 126.583 39.215C126.143 39.675 125.923 40.1925 125.923 40.7675C125.923 41.17 126.033 41.5725 126.198 41.9175C126.418 42.2625 126.638 42.55 127.023 42.7225C127.353 42.895 127.738 43.01 128.178 43.01C128.949 43.01 129.609 42.665 130.104 42.0325L130.654 42.3775C130.379 42.78 130.049 43.0675 129.664 43.2975C129.224 43.5275 128.729 43.6425 128.233 43.6425C127.408 43.6425 126.693 43.355 126.143 42.8375C125.593 42.2625 125.318 41.63 125.318 40.825C125.318 40.3075 125.428 39.79 125.703 39.33C125.978 38.87 126.308 38.525 126.748 38.2375C127.188 38.0075 127.683 37.835 128.233 37.835C128.564 37.835 128.894 37.8925 129.224 38.0075C129.554 38.1225 129.829 38.2375 130.049 38.4675C130.324 38.6975 130.489 38.9275 130.654 39.215ZM136.98 42.0325L136.43 41.745L136.398 41.7956L136.357 41.8605C136.173 42.1526 136.026 42.3841 135.88 42.435C135.715 42.6075 135.495 42.7225 135.22 42.8375C135 42.9525 134.725 43.01 134.45 43.01C133.845 43.01 133.405 42.78 133.02 42.3775C132.634 41.975 132.414 41.4575 132.414 40.825H137.145C137.09 40.0775 136.925 39.445 136.54 38.9275C135.99 38.18 135.275 37.835 134.395 37.835C133.515 37.835 132.8 38.18 132.304 38.87C131.919 39.445 131.699 40.0775 131.699 40.7675C131.699 41.515 131.919 42.205 132.414 42.78C132.91 43.355 133.57 43.6425 134.45 43.6425C134.835 43.6425 135.165 43.585 135.495 43.47C135.77 43.355 136.1 43.1825 136.32 42.9525C136.595 42.7225 136.815 42.435 136.98 42.0325ZM136.43 40.25L136.414 40.1925H136.43V40.25ZM136.414 40.1925H132.579C132.689 39.675 132.91 39.2725 133.185 39.0425C133.515 38.6975 134.01 38.525 134.505 38.525C134.78 38.525 135.11 38.64 135.385 38.755C135.66 38.9275 135.88 39.1 136.045 39.33C136.202 39.5489 136.31 39.8199 136.414 40.1925ZM146.773 37.8925C147.598 37.8925 148.258 38.18 148.808 38.8125C149.303 39.3875 149.523 40.02 149.523 40.825C149.523 41.5725 149.248 42.2625 148.753 42.8375C148.258 43.4125 147.598 43.7 146.773 43.7C145.947 43.7 145.287 43.4125 144.792 42.8375C144.297 42.2625 144.022 41.5725 144.022 40.825C144.022 40.0775 144.242 39.3875 144.737 38.8125C145.287 38.2375 146.002 37.8925 146.773 37.8925ZM145.342 39.2725C145.727 38.87 146.222 38.64 146.773 38.64C147.378 38.64 147.818 38.8125 148.313 39.2725C148.698 39.7325 148.918 40.25 148.918 40.8825C148.918 41.285 148.863 41.63 148.643 41.975C148.423 42.32 148.203 42.6075 147.873 42.78C147.543 42.9525 147.213 43.0675 146.828 43.0675C146.443 43.0675 146.112 42.9525 145.782 42.78C145.452 42.6075 145.177 42.32 145.012 41.975C144.847 41.63 144.737 41.285 144.737 40.8825C144.737 40.25 144.957 39.675 145.342 39.2725ZM150.568 38.065H151.284V38.87C151.504 38.525 151.724 38.295 151.944 38.18C152.164 38.0075 152.439 37.95 152.659 37.95C152.824 37.95 153.044 38.0075 153.264 38.1225L152.934 38.6975C152.89 38.6821 152.849 38.6667 152.812 38.6524C152.71 38.6133 152.629 38.5825 152.549 38.5825C152.329 38.5825 152.109 38.6975 151.889 38.87C151.669 39.0425 151.504 39.3875 151.394 39.79C151.284 40.0775 151.284 40.7675 151.284 41.6875V43.5275H150.568V38.065ZM202.17 41.2275H206.406V40.9975C206.406 40.0775 206.131 39.3875 205.636 38.8125C205.086 38.2375 204.425 37.95 203.6 37.95C202.83 37.95 202.17 38.2375 201.675 38.8125C201.18 39.33 200.905 40.02 200.905 40.8825C200.905 41.745 201.18 42.435 201.675 42.9525C202.225 43.47 202.885 43.7575 203.71 43.7575C204.26 43.7575 204.7 43.6425 205.086 43.47C205.471 43.24 205.801 42.9525 206.076 42.55L204.976 41.975C204.645 42.32 204.205 42.4925 203.71 42.4925C203.27 42.4925 202.94 42.3775 202.665 42.1475C202.39 41.9175 202.225 41.63 202.17 41.2275ZM205.086 40.135C204.976 39.8475 204.811 39.56 204.59 39.3875C204.315 39.215 204.04 39.1 203.71 39.1C203.325 39.1 202.995 39.215 202.72 39.445C202.555 39.56 202.39 39.79 202.225 40.135H205.086ZM217.353 36.0525C217.188 35.88 216.968 35.765 216.748 35.765C216.528 35.765 216.363 35.88 216.143 36.0525C215.978 36.225 215.923 36.455 215.923 36.685C215.923 36.915 216.033 37.145 216.198 37.3175C216.363 37.49 216.583 37.605 216.803 37.605C217.023 37.605 217.243 37.49 217.408 37.3175C217.518 37.145 217.628 36.915 217.628 36.685C217.628 36.455 217.518 36.225 217.353 36.0525ZM225.385 41.2275H229.621V40.9975C229.621 40.0775 229.346 39.3875 228.851 38.8125C228.301 38.2375 227.641 37.95 226.815 37.95C226.045 37.95 225.385 38.2375 224.89 38.8125C224.395 39.33 224.12 40.02 224.12 40.8825C224.12 41.745 224.395 42.435 224.89 42.9525C225.44 43.47 226.1 43.7575 226.925 43.7575C227.476 43.7575 227.916 43.6425 228.301 43.47C228.686 43.24 229.016 42.9525 229.291 42.55L228.191 41.975C227.861 42.32 227.421 42.4925 226.925 42.4925C226.485 42.4925 226.155 42.3775 225.88 42.1475C225.605 41.9175 225.44 41.63 225.385 41.2275ZM228.301 40.135C228.191 39.8475 228.026 39.56 227.806 39.3875C227.531 39.215 227.255 39.1 226.925 39.1C226.54 39.1 226.21 39.215 225.935 39.445C225.77 39.56 225.605 39.79 225.44 40.135H228.301ZM160.691 37.3175L161.131 36.915C160.746 36.455 160.361 36.1675 160.031 35.995C159.7 35.8225 159.37 35.7075 158.985 35.7075C158.38 35.7075 157.94 35.88 157.555 36.2825C157.17 36.6275 157.005 37.0875 157.005 37.605C157.005 37.95 157.115 38.3525 157.335 38.6975C157.555 39.0425 158.105 39.56 158.875 40.25C159.315 40.595 159.59 40.8825 159.7 41.055C159.811 41.2275 159.866 41.4 159.866 41.5725C159.866 41.8025 159.811 41.975 159.645 42.09C159.48 42.2625 159.26 42.32 159.04 42.32C158.765 42.32 158.49 42.1475 158.215 41.86C157.94 41.5725 157.555 41.4575 157.225 41.6875L156.675 42.0325C156.95 42.6075 157.28 43.01 157.665 43.2975C158.05 43.585 158.49 43.7 158.985 43.7C159.645 43.7 160.196 43.47 160.581 43.0675C160.966 42.665 161.186 42.1475 161.186 41.515C161.186 41.2275 161.131 40.94 161.021 40.6525C160.911 40.365 160.691 40.0775 160.416 39.79C160.306 39.675 160.031 39.3875 159.48 38.9275C159.36 38.8141 159.25 38.7117 159.15 38.6191L159.15 38.6191L159.15 38.619L159.15 38.6189C158.796 38.2894 158.576 38.0847 158.49 37.95C158.435 37.835 158.38 37.72 158.38 37.605C158.38 37.49 158.435 37.375 158.545 37.26C158.655 37.145 158.82 37.0875 158.985 37.0875C159.205 37.0875 159.425 37.2025 159.645 37.375C159.976 37.605 160.416 37.605 160.691 37.3175ZM200.189 36.915L199.749 37.3175C199.474 37.605 199.034 37.605 198.704 37.375C198.484 37.2025 198.264 37.0875 198.044 37.0875C197.879 37.0875 197.714 37.145 197.604 37.26C197.494 37.375 197.439 37.49 197.439 37.605C197.439 37.72 197.494 37.835 197.549 37.95C197.635 38.0847 197.855 38.2895 198.209 38.6191C198.309 38.7117 198.419 38.8141 198.539 38.9275C199.089 39.3875 199.364 39.675 199.474 39.79C199.749 40.0775 199.969 40.365 200.079 40.6525C200.189 40.94 200.244 41.2275 200.244 41.515C200.244 42.1475 200.024 42.665 199.639 43.0675C199.254 43.47 198.704 43.7 198.044 43.7C197.549 43.7 197.109 43.585 196.724 43.2975C196.339 43.01 196.009 42.6075 195.733 42.0325L196.284 41.6875C196.614 41.4575 196.999 41.5725 197.274 41.86C197.549 42.1475 197.824 42.32 198.099 42.32C198.319 42.32 198.539 42.2625 198.704 42.09C198.869 41.975 198.924 41.8025 198.924 41.5725C198.924 41.4 198.869 41.2275 198.759 41.055C198.649 40.8825 198.374 40.595 197.934 40.25C197.164 39.56 196.614 39.0425 196.394 38.6975C196.174 38.3525 196.064 37.95 196.064 37.605C196.064 37.0875 196.229 36.6275 196.614 36.2825C196.999 35.88 197.439 35.7075 198.044 35.7075C198.429 35.7075 198.759 35.8225 199.089 35.995C199.474 36.1675 199.859 36.455 200.189 36.915ZM232.757 39.1L233.087 38.8125C232.812 38.4675 232.537 38.2375 232.207 38.1225C231.987 38.0075 231.767 37.95 231.491 37.95C231.106 37.95 230.776 38.065 230.501 38.3525C230.226 38.64 230.116 38.9275 230.116 39.33C230.116 39.6175 230.226 39.8475 230.391 40.135C230.556 40.365 230.941 40.7675 231.491 41.2275C231.596 41.3372 231.693 41.4302 231.776 41.5096L231.776 41.5098C231.911 41.6384 232.008 41.7314 232.042 41.8025C232.097 41.9175 232.152 42.0325 232.152 42.1475C232.152 42.2625 232.097 42.3775 231.987 42.4925C231.877 42.6075 231.712 42.665 231.546 42.665C231.326 42.665 231.106 42.55 230.941 42.32C230.721 42.1475 230.446 42.0325 230.226 42.205L229.841 42.435C230.061 42.895 230.281 43.1825 230.556 43.355C230.831 43.5275 231.161 43.6425 231.546 43.6425C232.042 43.6425 232.427 43.47 232.702 43.1825C232.977 42.895 233.142 42.55 233.142 42.09C233.142 41.86 233.142 41.63 233.032 41.4575C232.922 41.2275 232.812 41.055 232.592 40.825C232.55 40.7375 232.412 40.6167 232.179 40.4118L232.179 40.4116C232.106 40.3474 232.023 40.2749 231.932 40.1925C231.876 40.143 231.823 40.0959 231.773 40.0511L231.738 40.0199C231.456 39.7696 231.262 39.5971 231.216 39.5025C231.161 39.445 231.106 39.3875 231.106 39.2725C231.106 39.215 231.106 39.1 231.216 39.0425C231.326 38.985 231.436 38.9275 231.546 38.9275C231.712 38.9275 231.877 38.985 232.042 39.1C232.262 39.33 232.537 39.2725 232.757 39.1ZM162.011 37.8925H162.726C163.056 37.8925 163.386 38.18 163.386 38.5825V40.595C163.386 41.1125 163.441 41.4575 163.496 41.6875C163.551 41.9175 163.661 42.0325 163.826 42.1475C163.991 42.2625 164.156 42.32 164.377 42.32C164.597 42.32 164.762 42.2625 164.927 42.1475C165.092 42.0325 165.202 41.86 165.257 41.63C165.312 41.4575 165.367 41.1125 165.367 40.595V37.835H166.687V40.25C166.687 41.2275 166.632 41.9175 166.467 42.2625C166.302 42.7225 166.027 43.01 165.697 43.2975C165.367 43.585 164.927 43.6425 164.377 43.6425C163.771 43.6425 163.331 43.5275 162.946 43.24C162.561 42.9525 162.341 42.6075 162.176 42.09C162.066 41.745 162.011 41.1125 162.011 40.25V37.8925ZM168.943 38.41C168.943 38.1225 168.722 37.8925 168.447 37.8925H167.512V45.54H168.833V42.895C169.053 43.1825 169.328 43.355 169.603 43.47C169.878 43.585 170.153 43.6425 170.483 43.6425C171.198 43.6425 171.803 43.355 172.298 42.78C172.793 42.2625 173.068 41.515 173.068 40.71C173.068 39.8475 172.848 39.1575 172.353 38.5825C171.858 38.065 171.308 37.7775 170.593 37.7775C170.318 37.7775 169.988 37.835 169.713 37.95C169.438 38.065 169.163 38.295 168.943 38.525V38.41ZM170.318 39.0425C169.878 39.0425 169.548 39.215 169.273 39.5025C168.998 39.79 168.833 40.1925 168.833 40.71C168.833 41.2275 168.998 41.63 169.273 41.9175C169.548 42.205 169.878 42.3775 170.318 42.3775C170.703 42.3775 171.088 42.205 171.363 41.9175C171.638 41.63 171.803 41.2275 171.803 40.71C171.803 40.25 171.693 39.8475 171.418 39.56C171.088 39.1575 170.758 39.0425 170.318 39.0425ZM175.599 38.3525C175.599 38.065 175.379 37.8925 175.159 37.8925H174.169V45.54H175.489V42.895C175.709 43.1825 175.984 43.355 176.259 43.47C176.534 43.585 176.809 43.6425 177.139 43.6425C177.855 43.6425 178.46 43.2975 178.955 42.78C179.45 42.2625 179.725 41.515 179.725 40.71C179.725 39.8475 179.505 39.1575 179.01 38.5825C178.515 38.065 177.965 37.7775 177.249 37.7775C176.974 37.7775 176.644 37.835 176.369 37.95C176.094 38.065 175.819 38.295 175.599 38.525V38.3525ZM176.974 39.0425C176.534 39.0425 176.204 39.215 175.929 39.5025C175.654 39.79 175.489 40.1925 175.489 40.71C175.489 41.2275 175.654 41.63 175.929 41.9175C176.204 42.205 176.534 42.3775 176.974 42.3775C177.359 42.3775 177.744 42.205 178.02 41.9175C178.295 41.63 178.46 41.2275 178.46 40.71C178.46 40.25 178.35 39.8475 178.075 39.56C177.744 39.1575 177.359 39.0425 176.974 39.0425ZM184.511 38.1225C184.071 37.835 183.576 37.72 183.081 37.72C182.421 37.72 181.76 37.95 181.21 38.525C180.605 39.1 180.275 39.8475 180.275 40.71C180.275 41.515 180.55 42.205 181.1 42.78C181.65 43.355 182.311 43.6425 183.081 43.6425C183.576 43.6425 184.071 43.47 184.511 43.24C184.951 42.9525 185.281 42.6075 185.556 42.1475C185.831 41.6875 185.941 41.17 185.941 40.6525C185.941 40.135 185.831 39.675 185.556 39.215C185.281 38.755 184.951 38.41 184.511 38.1225ZM183.136 39.0425C182.696 39.0425 182.366 39.215 182.09 39.5025C181.815 39.79 181.65 40.1925 181.65 40.6525C181.65 41.1125 181.76 41.515 182.035 41.86C182.311 42.1475 182.641 42.32 183.081 42.32C183.521 42.32 183.851 42.1475 184.126 41.86C184.401 41.5725 184.566 41.17 184.566 40.71C184.566 40.25 184.456 39.8475 184.181 39.56C183.906 39.215 183.521 39.0425 183.136 39.0425ZM187.482 37.8925H186.822V43.47H188.142V41.2275V40.94C188.142 40.1925 188.197 39.675 188.362 39.3875C188.472 39.1 188.637 38.985 188.857 38.985C188.938 38.985 189.018 39.0158 189.12 39.0549C189.158 39.0692 189.198 39.0846 189.242 39.1L189.682 37.835C189.636 37.823 189.593 37.811 189.551 37.7995C189.393 37.756 189.263 37.72 189.132 37.72C188.912 37.72 188.692 37.835 188.472 37.95C188.252 38.1225 188.087 38.295 187.977 38.5825V38.41C187.977 38.1225 187.757 37.8925 187.482 37.8925ZM207.231 37.8925H207.891C208.166 37.8925 208.386 38.1225 208.386 38.41V38.5825C208.496 38.295 208.661 38.1225 208.881 37.95C209.101 37.835 209.322 37.72 209.542 37.72C209.672 37.72 209.803 37.756 209.961 37.7995C210.002 37.811 210.046 37.823 210.092 37.835L209.652 39.0425C209.607 39.0271 209.567 39.0117 209.53 38.9974C209.428 38.9583 209.347 38.9275 209.266 38.9275C209.046 38.9275 208.881 39.0425 208.771 39.33C208.606 39.6175 208.551 40.135 208.551 40.8825V41.17V43.4125H207.231V37.8925ZM191.553 35.8225H190.782V37.8925H190.122V39.1H190.782V43.47H192.103V39.1H193.643V37.8925H192.103V36.3975C192.103 36.11 191.883 35.8225 191.553 35.8225ZM212.842 40.5375C213.007 40.9975 213.117 41.3425 213.117 41.3425L214.438 38.065H215.758L213.502 43.585H212.622L210.367 38.065L211.302 38.0075C211.632 38.0075 211.852 38.2375 212.017 38.64L212.842 40.5375ZM223.24 39.675L223.79 39.1575C223.515 38.755 223.185 38.4675 222.8 38.2375C222.359 38.0075 221.919 37.8925 221.369 37.8925C220.819 37.8925 220.269 38.065 219.829 38.295C219.389 38.525 219.059 38.87 218.784 39.33C218.509 39.79 218.399 40.3075 218.399 40.825C218.399 41.63 218.509 42.2625 219.059 42.8375C219.609 43.4125 220.324 43.7 221.259 43.7C222.304 43.7 223.13 43.2975 223.68 42.55L222.634 41.8025C222.304 42.205 221.864 42.435 221.259 42.435C220.764 42.435 220.379 42.2625 220.104 41.975C219.829 41.6875 219.664 41.285 219.664 40.825C219.664 40.3075 219.774 39.905 220.104 39.6175C220.434 39.33 220.819 39.1575 221.314 39.1575C221.589 39.1575 221.809 39.1575 222.029 39.2725C222.249 39.3875 222.414 39.5025 222.634 39.7325C222.855 39.8475 223.075 39.8475 223.24 39.675ZM216.088 38.065H217.408V43.585H216.088V38.065Z" fill="#1D295B"/>
<path fill-rule="evenodd" clip-rule="evenodd" d="M236.553 39.215V37.95H236.167L235.782 38.8125L235.397 37.95H235.067V39.215H235.287V38.18L235.727 39.215H235.892L236.333 38.18V39.215H236.553ZM234.902 38.18V37.95H233.802V38.18H234.242V39.2725H234.462V38.18H234.902Z" fill="#1D295B"/>
<defs>
<linearGradient id="paint0_linear" x1="0.465235" y1="29.123" x2="59.9895" y2="29.123" gradientUnits="userSpaceOnUse">
<stop stop-color="#E37925"/>
<stop offset="1" stop-color="#FCB316"/>
</linearGradient>
<linearGradient id="paint1_linear" x1="95.8651" y1="21.0623" x2="100.529" y2="21.0623" gradientUnits="userSpaceOnUse">
<stop stop-color="#E37925"/>
<stop offset="1" stop-color="#FCB316"/>
</linearGradient>
<linearGradient id="paint2_linear" x1="69.7261" y1="29.3628" x2="234.108" y2="29.3628" gradientUnits="userSpaceOnUse">
<stop stop-color="#145091"/>
<stop offset="1" stop-color="#1D295B"/>
</linearGradient>
</defs>
</svg>
